EXTRACT: program_change channel=9 program=25 time=0
EXTRACT: control_change channel=9 control=7 value=100 time=0
EXTRACT: program_change channel=1 program=39 time=0
EXTRACT: control_change channel=1 control=7 value=100 time=0
EXTRACT: program_change channel=10 program=50 time=0
EXTRACT: control_change channel=10 control=7 value=93 time=0
EXTRACT: program_change channel=3 program=80 time=0
EXTRACT: control_change channel=3 control=7 value=107 time=0
EXTRACT: program_change channel=4 program=81 time=0
EXTRACT: control_change channel=4 control=7 value=97 time=0
EXTRACT: program_change channel=5 program=25 time=0
EXTRACT: control_change channel=5 control=7 value=102 time=0
EXTRACT: program_change channel=6 program=25 time=0
EXTRACT: control_change channel=6 control=7 value=98 time=0
EXTRACT: program_change channel=7 program=2 time=0
EXTRACT: control_change channel=7 control=7 value=96 time=0
EXTRACT: program_change channel=8 program=122 time=0
EXTRACT: control_change channel=8 control=7 value=92 time=0
EXTRACT: program_change channel=2 program=51 time=0
EXTRACT: program_change channel=0 program=50 time=0
EXTRACT: program_change channel=9 program=25 time=0
EXTRACT: control_change channel=1 control=121 value=0 time=0.36111075000000004
EXTRACT: control_change channel=10 control=121 value=0 time=0.005952375000000001
EXTRACT: control_change channel=3 control=121 value=0 time=0.00396825
EXTRACT: control_change channel=4 control=121 value=0 time=0.005952375000000001
EXTRACT: control_change channel=5 control=121 value=0 time=0.00396825
EXTRACT: control_change channel=6 control=121 value=0 time=0.005952375000000001
EXTRACT: control_change channel=7 control=121 value=0 time=0.00396825
EXTRACT: control_change channel=8 control=121 value=0 time=0.005952375000000001
EXTRACT: control_change channel=9 control=121 value=0 time=0.00396825
EXTRACT: control_change channel=1 control=11 value=127 time=0.11904750000000001
EXTRACT: control_change channel=1 control=91 value=12 time=0.005952375000000001
EXTRACT: control_change channel=1 control=93 value=46 time=0
EXTRACT: control_change channel=10 control=11 value=127 time=0.01984125
EXTRACT: control_change channel=10 control=91 value=52 time=0.00396825
EXTRACT: control_change channel=10 control=93 value=65 time=0
EXTRACT: control_change channel=3 control=11 value=127 time=0.01984125
EXTRACT: control_change channel=3 control=91 value=114 time=0.005952375000000001
EXTRACT: control_change channel=3 control=93 value=105 time=0
EXTRACT: control_change channel=4 control=11 value=127 time=0.01984125
EXTRACT: control_change channel=4 control=91 value=110 time=0.00396825
EXTRACT: control_change channel=4 control=93 value=80 time=0
EXTRACT: control_change channel=5 control=11 value=127 time=0.01984125
EXTRACT: control_change channel=5 control=91 value=52 time=0.005952375000000001
EXTRACT: control_change channel=5 control=93 value=88 time=0
EXTRACT: control_change channel=6 control=11 value=127 time=0.01984125
EXTRACT: control_change channel=6 control=91 value=52 time=0.00396825
EXTRACT: control_change channel=6 control=93 value=71 time=0
EXTRACT: control_change channel=7 control=11 value=127 time=0.01984125
EXTRACT: control_change channel=7 control=91 value=52 time=0.005952375000000001
EXTRACT: control_change channel=7 control=93 value=27 time=0
EXTRACT: control_change channel=8 control=11 value=127 time=0.01984125
EXTRACT: control_change channel=8 control=91 value=52 time=0.00396825
EXTRACT: control_change channel=8 control=93 value=20 time=0
EXTRACT: control_change channel=9 control=11 value=127 time=0.01984125
EXTRACT: control_change channel=9 control=91 value=59 time=0.005952375000000001
EXTRACT: control_change channel=9 control=93 value=81 time=0
EXTRACT: note_on channel=2 note=64 velocity=64 time=3.0853143750000003
EXTRACT: note_on channel=2 note=61 velocity=64 time=0
EXTRACT: note_on channel=2 note=68 velocity=64 time=0
EXTRACT: note_on channel=4 note=71 velocity=94 time=0.7142850000000001
EXTRACT: note_on channel=2 note=68 velocity=0 time=0.16269825000000002
EXTRACT: note_on channel=2 note=61 velocity=0 time=0
EXTRACT: note_on channel=2 note=64 velocity=0 time=0
EXTRACT: note_on channel=2 note=61 velocity=64 time=0.029761875000000004
EXTRACT: note_on channel=2 note=66 velocity=64 time=0
EXTRACT: note_on channel=2 note=69 velocity=64 time=0
EXTRACT: note_on channel=4 note=71 velocity=0 time=0.009920625
EXTRACT: note_on channel=4 note=73 velocity=77 time=0.03571425
EXTRACT: note_on channel=4 note=73 velocity=0 time=0.11507925000000001
EXTRACT: note_on channel=4 note=76 velocity=76 time=0.00396825
EXTRACT: note_on channel=4 note=76 velocity=0 time=0.11507925000000001
EXTRACT: note_on channel=4 note=78 velocity=81 time=0.00396825
EXTRACT: note_on channel=4 note=78 velocity=0 time=0.18253950000000002
EXTRACT: note_on channel=2 note=69 velocity=0 time=0.45634875
EXTRACT: note_on channel=2 note=66 velocity=0 time=0
EXTRACT: note_on channel=2 note=61 velocity=0 time=0
EXTRACT: note_on channel=2 note=66 velocity=64 time=0.029761875000000004
EXTRACT: note_on channel=2 note=63 velocity=64 time=0
EXTRACT: note_on channel=2 note=59 velocity=64 time=0
EXTRACT: note_on channel=3 note=75 velocity=92 time=0.283729875
EXTRACT: note_on channel=3 note=75 velocity=0 time=0.11507925000000001
EXTRACT: note_on channel=3 note=73 velocity=74 time=0.00396825
EXTRACT: note_on channel=3 note=73 velocity=0 time=0.11507925000000001
EXTRACT: note_on channel=3 note=71 velocity=80 time=0.00396825
EXTRACT: note_on channel=3 note=71 velocity=0 time=0.23015850000000002
EXTRACT: note_on channel=3 note=69 velocity=92 time=0.0079365
EXTRACT: note_on channel=3 note=69 velocity=0 time=0.079365
EXTRACT: note_on channel=2 note=59 velocity=0 time=0.08333325000000001
EXTRACT: note_on channel=2 note=63 velocity=0 time=0
EXTRACT: note_on channel=2 note=66 velocity=0 time=0
EXTRACT: note_on channel=2 note=68 velocity=64 time=0.029761875000000004
EXTRACT: note_on channel=2 note=59 velocity=64 time=0
EXTRACT: note_on channel=2 note=64 velocity=64 time=0
EXTRACT: note_on channel=3 note=67 velocity=80 time=0.045634875000000005
EXTRACT: note_on channel=3 note=67 velocity=0 time=0.11507925000000001
EXTRACT: note_on channel=3 note=68 velocity=81 time=0.00396825
EXTRACT: note_on channel=3 note=68 velocity=0 time=0.2777775
EXTRACT: note_on channel=4 note=68 velocity=92 time=0.31746
EXTRACT: note_on channel=4 note=68 velocity=0 time=0.11507925000000001
EXTRACT: note_on channel=4 note=71 velocity=89 time=0.00396825
EXTRACT: note_on channel=2 note=64 velocity=0 time=0.04365075
EXTRACT: note_on channel=2 note=59 velocity=0 time=0
EXTRACT: note_on channel=2 note=68 velocity=0 time=0
EXTRACT: note_on channel=2 note=64 velocity=64 time=0.029761875000000004
EXTRACT: note_on channel=2 note=68 velocity=64 time=0
EXTRACT: note_on channel=2 note=61 velocity=64 time=0
EXTRACT: note_on channel=4 note=71 velocity=0 time=0.041666625000000006
EXTRACT: note_on channel=4 note=73 velocity=83 time=0.00396825
EXTRACT: note_on channel=4 note=73 velocity=0 time=0.20039662500000002
EXTRACT: note_on channel=4 note=76 velocity=96 time=0.037698375000000006
EXTRACT: note_on channel=4 note=76 velocity=0 time=0.20039662500000002
EXTRACT: note_on channel=2 note=61 velocity=0 time=0.43849162500000005
EXTRACT: note_on channel=2 note=68 velocity=0 time=0
EXTRACT: note_on channel=2 note=64 velocity=0 time=0
EXTRACT: note_on channel=2 note=66 velocity=64 time=0.029761875000000004
EXTRACT: note_on channel=2 note=61 velocity=64 time=0
EXTRACT: note_on channel=2 note=69 velocity=64 time=0
EXTRACT: note_on channel=3 note=65 velocity=94 time=0.7599198750000001
EXTRACT: note_on channel=3 note=65 velocity=0 time=0.10912687500000001
EXTRACT: note_on channel=3 note=66 velocity=83 time=0.009920625
EXTRACT: note_on channel=2 note=69 velocity=0 time=0.04365075
EXTRACT: note_on channel=2 note=61 velocity=0 time=0
EXTRACT: note_on channel=2 note=66 velocity=0 time=0
EXTRACT: note_on channel=2 note=66 velocity=64 time=0.029761875000000004
EXTRACT: note_on channel=2 note=64 velocity=64 time=0
EXTRACT: note_on channel=2 note=71 velocity=64 time=0
EXTRACT: note_on channel=3 note=66 velocity=0 time=0.041666625000000006
EXTRACT: note_on channel=3 note=69 velocity=92 time=0.00396825
EXTRACT: note_on channel=3 note=69 velocity=0 time=0.23214262500000002
EXTRACT: note_on channel=3 note=71 velocity=80 time=0.005952375000000001
EXTRACT: note_on channel=2 note=64 velocity=0 time=0.63888825
EXTRACT: note_on channel=2 note=66 velocity=0 time=0
EXTRACT: note_on channel=2 note=63 velocity=64 time=0.029761875000000004
EXTRACT: note_on channel=2 note=66 velocity=64 time=0
EXTRACT: note_on channel=3 note=71 velocity=0 time=0.7559516250000001
EXTRACT: note_on channel=2 note=71 velocity=0 time=0.11706337500000001
EXTRACT: note_on channel=2 note=66 velocity=0 time=0.049603125000000005
EXTRACT: note_on channel=2 note=63 velocity=0 time=0
EXTRACT: note_on channel=3 note=68 velocity=92 time=0.07539675000000001
EXTRACT: note_on channel=2 note=64 velocity=64 time=0
EXTRACT: note_on channel=2 note=61 velocity=64 time=0
EXTRACT: note_on channel=2 note=68 velocity=64 time=0
EXTRACT: note_on channel=0 note=80 velocity=60 time=0
EXTRACT: note_on channel=3 note=68 velocity=0 time=0.23412675000000002
EXTRACT: note_on channel=3 note=64 velocity=74 time=0.00396825
EXTRACT: note_on channel=3 note=64 velocity=0 time=0.21230137500000001
EXTRACT: note_on channel=3 note=68 velocity=83 time=0.025793625000000004
EXTRACT: note_on channel=3 note=68 velocity=0 time=0.23412675000000002
EXTRACT: note_on channel=3 note=73 velocity=79 time=0.00396825
EXTRACT: note_on channel=2 note=68 velocity=0 time=0.16269825000000002
EXTRACT: note_on channel=2 note=61 velocity=0 time=0
EXTRACT: note_on channel=2 note=64 velocity=0 time=0
EXTRACT: note_on channel=2 note=61 velocity=64 time=0.029761875000000004
EXTRACT: note_on channel=2 note=66 velocity=64 time=0
EXTRACT: note_on channel=2 note=69 velocity=64 time=0
EXTRACT: note_on channel=0 note=81 velocity=60 time=0
EXTRACT: note_on channel=3 note=73 velocity=0 time=0.041666625000000006
EXTRACT: note_on channel=3 note=69 velocity=92 time=0.00396825
EXTRACT: note_on channel=0 note=80 velocity=0 time=0.029761875000000004
EXTRACT: note_on channel=3 note=69 velocity=0 time=0.36904725000000005
EXTRACT: note_on channel=2 note=69 velocity=0 time=0.47817412500000006
EXTRACT: note_on channel=2 note=66 velocity=0 time=0
EXTRACT: note_on channel=2 note=61 velocity=0 time=0
EXTRACT: note_on channel=2 note=66 velocity=64 time=0.029761875000000004
EXTRACT: note_on channel=2 note=63 velocity=64 time=0
EXTRACT: note_on channel=2 note=59 velocity=64 time=0
EXTRACT: note_on channel=0 note=83 velocity=60 time=0
EXTRACT: note_on channel=3 note=66 velocity=88 time=0.045634875000000005
EXTRACT: note_on channel=0 note=81 velocity=0 time=0.029761875000000004
EXTRACT: note_on channel=3 note=66 velocity=0 time=0.20436487500000003
EXTRACT: note_on channel=3 note=63 velocity=75 time=0.00396825
EXTRACT: note_on channel=3 note=63 velocity=0 time=0.23412675000000002
EXTRACT: note_on channel=3 note=66 velocity=78 time=0.00396825
EXTRACT: note_on channel=3 note=66 velocity=0 time=0.23412675000000002
EXTRACT: note_on channel=3 note=71 velocity=85 time=0.00396825
EXTRACT: note_on channel=2 note=59 velocity=0 time=0.16269825000000002
EXTRACT: note_on channel=2 note=63 velocity=0 time=0
EXTRACT: note_on channel=2 note=66 velocity=0 time=0
EXTRACT: note_on channel=2 note=68 velocity=64 time=0.029761875000000004
EXTRACT: note_on channel=2 note=59 velocity=64 time=0
EXTRACT: note_on channel=2 note=64 velocity=64 time=0
EXTRACT: note_on channel=0 note=80 velocity=60 time=0
EXTRACT: note_on channel=3 note=71 velocity=0 time=0.041666625000000006
EXTRACT: note_on channel=3 note=68 velocity=88 time=0.00396825
EXTRACT: note_on channel=0 note=83 velocity=0 time=0.029761875000000004
EXTRACT: note_on channel=3 note=68 velocity=0 time=0.44245987500000006
EXTRACT: note_on channel=3 note=66 velocity=78 time=0.00396825
EXTRACT: note_on channel=3 note=66 velocity=0 time=0.23015850000000002
EXTRACT: note_on channel=3 note=64 velocity=78 time=0.0079365
EXTRACT: note_on channel=2 note=64 velocity=0 time=0.16269825000000002
EXTRACT: note_on channel=2 note=59 velocity=0 time=0
EXTRACT: note_on channel=2 note=68 velocity=0 time=0
EXTRACT: note_on channel=2 note=64 velocity=64 time=0.029761875000000004
EXTRACT: note_on channel=2 note=68 velocity=64 time=0
EXTRACT: note_on channel=2 note=61 velocity=64 time=0
EXTRACT: note_on channel=0 note=76 velocity=60 time=0
EXTRACT: note_on channel=3 note=64 velocity=0 time=0.005952375000000001
EXTRACT: note_on channel=0 note=80 velocity=0 time=0.069444375
EXTRACT: note_on channel=3 note=64 velocity=92 time=0.44642812500000006
EXTRACT: note_on channel=3 note=64 velocity=0 time=0.23412675000000002
EXTRACT: note_on channel=3 note=61 velocity=70 time=0.00396825
EXTRACT: note_on channel=2 note=61 velocity=0 time=0.16269825000000002
EXTRACT: note_on channel=2 note=68 velocity=0 time=0
EXTRACT: note_on channel=2 note=64 velocity=0 time=0
EXTRACT: note_on channel=0 note=81 velocity=60 time=0.025793625000000004
EXTRACT: note_on channel=2 note=66 velocity=64 time=0.00396825
EXTRACT: note_on channel=2 note=61 velocity=64 time=0
EXTRACT: note_on channel=2 note=69 velocity=64 time=0
EXTRACT: note_on channel=3 note=61 velocity=0 time=0.041666625000000006
EXTRACT: note_on channel=3 note=66 velocity=90 time=0.00396825
EXTRACT: note_on channel=0 note=76 velocity=0 time=0.023809500000000004
EXTRACT: note_on channel=3 note=66 velocity=0 time=0.44841225000000007
EXTRACT: note_on channel=3 note=61 velocity=75 time=0.00396825
EXTRACT: note_on channel=3 note=61 velocity=0 time=0.311507625
EXTRACT: note_on channel=2 note=69 velocity=0 time=0.08928562500000001
EXTRACT: note_on channel=2 note=61 velocity=0 time=0
EXTRACT: note_on channel=2 note=66 velocity=0 time=0
EXTRACT: note_on channel=2 note=66 velocity=64 time=0.029761875000000004
EXTRACT: note_on channel=2 note=64 velocity=64 time=0
EXTRACT: note_on channel=2 note=71 velocity=64 time=0
EXTRACT: note_on channel=0 note=78 velocity=60 time=0
EXTRACT: note_on channel=0 note=81 velocity=0 time=0.08531737500000001
EXTRACT: note_on channel=3 note=66 velocity=90 time=0.43650750000000005
EXTRACT: note_on channel=3 note=66 velocity=0 time=0.23412675000000002
EXTRACT: note_on channel=3 note=64 velocity=75 time=0.00396825
EXTRACT: note_on channel=2 note=64 velocity=0 time=0.16269825000000002
EXTRACT: note_on channel=2 note=66 velocity=0 time=0
EXTRACT: note_on channel=3 note=64 velocity=0 time=0.017857125
EXTRACT: note_on channel=2 note=63 velocity=64 time=0.011904750000000002
EXTRACT: note_on channel=2 note=66 velocity=64 time=0
EXTRACT: note_on channel=3 note=68 velocity=92 time=0.045634875000000005
EXTRACT: note_on channel=3 note=68 velocity=0 time=0.46230112500000003
EXTRACT: note_on channel=3 note=66 velocity=88 time=0.013888875000000002
EXTRACT: note_on channel=3 note=66 velocity=0 time=0.311507625
EXTRACT: note_on channel=2 note=71 velocity=0 time=0.0396825
EXTRACT: note_on channel=2 note=66 velocity=0 time=0.049603125000000005
EXTRACT: note_on channel=2 note=63 velocity=0 time=0
EXTRACT: note_on channel=0 note=78 velocity=0 time=0.0396825
EXTRACT: note_on channel=9 note=27 velocity=95 time=0.03571425
EXTRACT: note_on channel=10 note=37 velocity=86 time=0
EXTRACT: note_on channel=10 note=61 velocity=71 time=0
EXTRACT: note_on channel=10 note=64 velocity=84 time=0
EXTRACT: note_on channel=10 note=68 velocity=73 time=0
EXTRACT: note_on channel=10 note=73 velocity=74 time=0
EXTRACT: note_on channel=3 note=68 velocity=88 time=0
EXTRACT: note_on channel=5 note=64 velocity=92 time=0
EXTRACT: note_on channel=5 note=68 velocity=93 time=0
EXTRACT: note_on channel=5 note=73 velocity=89 time=0
EXTRACT: note_on channel=2 note=64 velocity=64 time=0
EXTRACT: note_on channel=2 note=61 velocity=64 time=0
EXTRACT: note_on channel=2 note=68 velocity=64 time=0
EXTRACT: note_on channel=0 note=80 velocity=60 time=0
EXTRACT: note_on channel=5 note=64 velocity=0 time=0.061507875000000004
EXTRACT: note_on channel=9 note=27 velocity=0 time=0.00396825
EXTRACT: note_on channel=5 note=68 velocity=0 time=0.00396825
EXTRACT: note_on channel=5 note=73 velocity=0 time=0.041666625000000006
EXTRACT: note_on channel=3 note=68 velocity=0 time=0.0714285
EXTRACT: note_on channel=9 note=27 velocity=80 time=0.05555550000000001
EXTRACT: note_on channel=3 note=64 velocity=81 time=0
EXTRACT: note_on channel=9 note=27 velocity=0 time=0.0714285
EXTRACT: note_on channel=5 note=64 velocity=78 time=0.04761900000000001
EXTRACT: note_on channel=5 note=68 velocity=84 time=0
EXTRACT: note_on channel=5 note=73 velocity=84 time=0
EXTRACT: note_on channel=9 note=32 velocity=72 time=0.009920625
EXTRACT: note_on channel=5 note=64 velocity=0 time=0.021825375
EXTRACT: note_on channel=5 note=68 velocity=0 time=0.0396825
EXTRACT: note_on channel=9 note=32 velocity=0 time=0.023809500000000004
EXTRACT: note_on channel=5 note=73 velocity=0 time=0
EXTRACT: note_on channel=3 note=64 velocity=0 time=0.009920625
EXTRACT: note_on channel=3 note=68 velocity=87 time=0.013888875000000002
EXTRACT: note_on channel=9 note=32 velocity=60 time=0.12896812500000002
EXTRACT: note_on channel=9 note=32 velocity=0 time=0.053571375000000004
EXTRACT: note_on channel=3 note=68 velocity=0 time=0.05158725000000001
EXTRACT: note_on channel=9 note=32 velocity=64 time=0.00396825
EXTRACT: note_on channel=3 note=73 velocity=80 time=0
EXTRACT: note_on channel=5 note=64 velocity=87 time=0
EXTRACT: note_on channel=5 note=68 velocity=93 time=0
EXTRACT: note_on channel=5 note=73 velocity=89 time=0
EXTRACT: note_on channel=5 note=64 velocity=0 time=0.069444375
EXTRACT: note_on channel=9 note=32 velocity=0 time=0.001984125
EXTRACT: note_on channel=10 note=61 velocity=0 time=0.0079365
EXTRACT: note_on channel=10 note=64 velocity=0 time=0.005952375000000001
EXTRACT: note_on channel=5 note=68 velocity=0 time=0.00396825
EXTRACT: note_on channel=10 note=73 velocity=0 time=0.011904750000000002
EXTRACT: note_on channel=5 note=73 velocity=0 time=0.011904750000000002
EXTRACT: note_on channel=10 note=68 velocity=0 time=0.001984125
EXTRACT: note_on channel=9 note=32 velocity=63 time=0.013888875000000002
EXTRACT: note_on channel=10 note=37 velocity=0 time=0.029761875000000004
EXTRACT: note_on channel=2 note=68 velocity=0 time=0.00396825
EXTRACT: note_on channel=2 note=61 velocity=0 time=0
EXTRACT: note_on channel=2 note=64 velocity=0 time=0
EXTRACT: note_on channel=2 note=61 velocity=64 time=0.029761875000000004
EXTRACT: note_on channel=2 note=66 velocity=64 time=0
EXTRACT: note_on channel=2 note=69 velocity=64 time=0
EXTRACT: note_on channel=0 note=81 velocity=60 time=0
EXTRACT: note_on channel=9 note=32 velocity=0 time=0.009920625
EXTRACT: note_on channel=3 note=73 velocity=0 time=0.031746
EXTRACT: note_on channel=9 note=27 velocity=89 time=0.00396825
EXTRACT: note_on channel=10 note=30 velocity=82 time=0
EXTRACT: note_on channel=10 note=61 velocity=69 time=0
EXTRACT: note_on channel=10 note=66 velocity=74 time=0
EXTRACT: note_on channel=10 note=69 velocity=81 time=0
EXTRACT: note_on channel=10 note=73 velocity=62 time=0
EXTRACT: note_on channel=3 note=69 velocity=92 time=0
EXTRACT: note_on channel=0 note=80 velocity=0 time=0.029761875000000004
EXTRACT: note_on channel=9 note=27 velocity=0 time=0.04365075
EXTRACT: note_on channel=5 note=66 velocity=94 time=0.045634875000000005
EXTRACT: note_on channel=5 note=69 velocity=95 time=0
EXTRACT: note_on channel=5 note=73 velocity=89 time=0
EXTRACT: note_on channel=9 note=27 velocity=65 time=0.009920625
EXTRACT: note_on channel=5 note=69 velocity=0 time=0.053571375000000004
EXTRACT: note_on channel=9 note=27 velocity=0 time=0.0079365
EXTRACT: note_on channel=5 note=66 velocity=0 time=0
EXTRACT: note_on channel=5 note=73 velocity=0 time=0.031746
EXTRACT: note_on channel=9 note=27 velocity=70 time=0.015873
EXTRACT: note_on channel=9 note=27 velocity=0 time=0.079365
EXTRACT: note_on channel=3 note=69 velocity=0 time=0.07341262500000001
EXTRACT: note_on channel=9 note=32 velocity=79 time=0.08531737500000001
EXTRACT: note_on channel=5 note=66 velocity=87 time=0
EXTRACT: note_on channel=5 note=69 velocity=100 time=0
EXTRACT: note_on channel=5 note=73 velocity=84 time=0
EXTRACT: note_on channel=9 note=32 velocity=0 time=0.079365
EXTRACT: note_on channel=9 note=32 velocity=68 time=0.15873
EXTRACT: note_on channel=5 note=73 velocity=0 time=0.041666625000000006
EXTRACT: note_on channel=5 note=69 velocity=0 time=0.001984125
EXTRACT: note_on channel=9 note=32 velocity=0 time=0.0079365
EXTRACT: note_on channel=5 note=66 velocity=0 time=0.0079365
EXTRACT: note_on channel=10 note=69 velocity=0 time=0.013888875000000002
EXTRACT: note_on channel=10 note=73 velocity=0 time=0.037698375000000006
EXTRACT: note_on channel=10 note=66 velocity=0 time=0.00396825
EXTRACT: note_on channel=10 note=61 velocity=0 time=0.00396825
EXTRACT: note_on channel=9 note=32 velocity=65 time=0.009920625
EXTRACT: note_on channel=2 note=69 velocity=0 time=0.03373012500000001
EXTRACT: note_on channel=2 note=66 velocity=0 time=0
EXTRACT: note_on channel=2 note=61 velocity=0 time=0
EXTRACT: note_on channel=2 note=66 velocity=64 time=0.029761875000000004
EXTRACT: note_on channel=2 note=63 velocity=64 time=0
EXTRACT: note_on channel=2 note=59 velocity=64 time=0
EXTRACT: note_on channel=0 note=83 velocity=60 time=0
EXTRACT: note_on channel=9 note=32 velocity=0 time=0.001984125
EXTRACT: note_on channel=10 note=30 velocity=0 time=0.027777750000000004
EXTRACT: note_on channel=9 note=27 velocity=93 time=0.015873
EXTRACT: note_on channel=10 note=35 velocity=71 time=0
EXTRACT: note_on channel=10 note=59 velocity=68 time=0
EXTRACT: note_on channel=10 note=63 velocity=60 time=0
EXTRACT: note_on channel=10 note=66 velocity=67 time=0
EXTRACT: note_on channel=10 note=71 velocity=74 time=0
EXTRACT: note_on channel=3 note=66 velocity=90 time=0
EXTRACT: note_on channel=5 note=63 velocity=98 time=0
EXTRACT: note_on channel=5 note=66 velocity=88 time=0
EXTRACT: note_on channel=5 note=71 velocity=76 time=0
EXTRACT: note_on channel=0 note=81 velocity=0 time=0.029761875000000004
EXTRACT: note_on channel=9 note=27 velocity=0 time=0.049603125000000005
EXTRACT: note_on channel=5 note=63 velocity=0 time=0.021825375
EXTRACT: note_on channel=5 note=66 velocity=0 time=0.011904750000000002
EXTRACT: note_on channel=5 note=71 velocity=0 time=0.005952375000000001
EXTRACT: note_on channel=3 note=66 velocity=0 time=0.105158625
EXTRACT: note_on channel=9 note=27 velocity=86 time=0.013888875000000002
EXTRACT: note_on channel=3 note=63 velocity=75 time=0
EXTRACT: note_on channel=9 note=27 velocity=0 time=0.069444375
EXTRACT: note_on channel=5 note=63 velocity=93 time=0.049603125000000005
EXTRACT: note_on channel=5 note=66 velocity=87 time=0
EXTRACT: note_on channel=5 note=71 velocity=85 time=0
EXTRACT: note_on channel=9 note=32 velocity=77 time=0.009920625
EXTRACT: note_on channel=9 note=32 velocity=0 time=0.07341262500000001
EXTRACT: note_on channel=5 note=63 velocity=0 time=0
EXTRACT: note_on channel=5 note=66 velocity=0 time=0.021825375
EXTRACT: note_on channel=3 note=63 velocity=0 time=0.009920625
EXTRACT: note_on channel=3 note=66 velocity=80 time=0.00396825
EXTRACT: note_on channel=5 note=71 velocity=0 time=0.001984125
EXTRACT: note_on channel=9 note=32 velocity=69 time=0.126984
EXTRACT: note_on channel=9 note=32 velocity=0 time=0.053571375000000004
EXTRACT: note_on channel=3 note=66 velocity=0 time=0.0396825
EXTRACT: note_on channel=9 note=32 velocity=71 time=0.015873
EXTRACT: note_on channel=3 note=71 velocity=84 time=0
EXTRACT: note_on channel=5 note=63 velocity=95 time=0
EXTRACT: note_on channel=5 note=66 velocity=89 time=0
EXTRACT: note_on channel=5 note=71 velocity=88 time=0
EXTRACT: note_on channel=9 note=32 velocity=0 time=0.063492
EXTRACT: note_on channel=10 note=71 velocity=0 time=0.021825375
EXTRACT: note_on channel=5 note=63 velocity=0 time=0
EXTRACT: note_on channel=10 note=59 velocity=0 time=0.009920625
EXTRACT: note_on channel=5 note=66 velocity=0 time=0.005952375000000001
EXTRACT: note_on channel=5 note=71 velocity=0 time=0.001984125
EXTRACT: note_on channel=10 note=66 velocity=0 time=0.001984125
EXTRACT: note_on channel=10 note=63 velocity=0 time=0.009920625
EXTRACT: note_on channel=9 note=32 velocity=64 time=0.013888875000000002
EXTRACT: note_on channel=2 note=59 velocity=0 time=0.03373012500000001
EXTRACT: note_on channel=2 note=63 velocity=0 time=0
EXTRACT: note_on channel=2 note=66 velocity=0 time=0
EXTRACT: note_on channel=10 note=35 velocity=0 time=0.005952375000000001
EXTRACT: note_on channel=9 note=32 velocity=0 time=0.023809500000000004
EXTRACT: note_on channel=2 note=68 velocity=64 time=0
EXTRACT: note_on channel=2 note=59 velocity=64 time=0
EXTRACT: note_on channel=2 note=64 velocity=64 time=0
EXTRACT: note_on channel=0 note=80 velocity=60 time=0
EXTRACT: note_on channel=3 note=71 velocity=0 time=0.041666625000000006
EXTRACT: note_on channel=9 note=27 velocity=88 time=0.00396825
EXTRACT: note_on channel=10 note=28 velocity=82 time=0
EXTRACT: note_on channel=10 note=59 velocity=74 time=0
EXTRACT: note_on channel=10 note=64 velocity=69 time=0
EXTRACT: note_on channel=10 note=68 velocity=71 time=0
EXTRACT: note_on channel=10 note=71 velocity=75 time=0
EXTRACT: note_on channel=3 note=68 velocity=90 time=0
EXTRACT: note_on channel=0 note=83 velocity=0 time=0.029761875000000004
EXTRACT: note_on channel=9 note=27 velocity=0 time=0.0396825
EXTRACT: note_on channel=5 note=64 velocity=95 time=0.049603125000000005
EXTRACT: note_on channel=5 note=68 velocity=94 time=0
EXTRACT: note_on channel=5 note=71 velocity=82 time=0
EXTRACT: note_on channel=9 note=32 velocity=77 time=0.009920625
EXTRACT: note_on channel=5 note=64 velocity=0 time=0.05158725000000001
EXTRACT: note_on channel=9 note=32 velocity=0 time=0.011904750000000002
EXTRACT: note_on channel=5 note=71 velocity=0 time=0.001984125
EXTRACT: note_on channel=5 note=68 velocity=0 time=0.005952375000000001
EXTRACT: note_on channel=9 note=27 velocity=59 time=0.037698375000000006
EXTRACT: note_on channel=9 note=27 velocity=0 time=0.045634875000000005
EXTRACT: note_on channel=3 note=68 velocity=0 time=0.18849187500000003
EXTRACT: note_on channel=9 note=32 velocity=89 time=0.00396825
EXTRACT: note_on channel=3 note=66 velocity=83 time=0
EXTRACT: note_on channel=5 note=64 velocity=84 time=0
EXTRACT: note_on channel=5 note=68 velocity=87 time=0
EXTRACT: note_on channel=5 note=71 velocity=90 time=0
EXTRACT: note_on channel=9 note=32 velocity=0 time=0.0714285
EXTRACT: note_on channel=3 note=66 velocity=0 time=0.15277762500000003
EXTRACT: note_on channel=9 note=32 velocity=72 time=0.013888875000000002
EXTRACT: note_on channel=3 note=64 velocity=76 time=0
EXTRACT: note_on channel=5 note=64 velocity=0 time=0.009920625
EXTRACT: note_on channel=9 note=32 velocity=0 time=0.045634875000000005
EXTRACT: note_on channel=5 note=68 velocity=0 time=0.00396825
EXTRACT: note_on channel=5 note=71 velocity=0 time=0.001984125
EXTRACT: note_on channel=10 note=59 velocity=0 time=0.00396825
EXTRACT: note_on channel=10 note=71 velocity=0 time=0.029761875000000004
EXTRACT: note_on channel=10 note=64 velocity=0 time=0.029761875000000004
EXTRACT: note_on channel=9 note=32 velocity=68 time=0.00396825
EXTRACT: note_on channel=2 note=64 velocity=0 time=0.03373012500000001
EXTRACT: note_on channel=2 note=59 velocity=0 time=0
EXTRACT: note_on channel=2 note=68 velocity=0 time=0
EXTRACT: note_on channel=10 note=68 velocity=0 time=0.005952375000000001
EXTRACT: note_on channel=3 note=64 velocity=0 time=0.013888875000000002
EXTRACT: note_on channel=2 note=64 velocity=64 time=0.009920625
EXTRACT: note_on channel=2 note=68 velocity=64 time=0
EXTRACT: note_on channel=2 note=61 velocity=64 time=0
EXTRACT: note_on channel=0 note=76 velocity=60 time=0
EXTRACT: note_on channel=9 note=32 velocity=0 time=0.005952375000000001
EXTRACT: note_on channel=10 note=28 velocity=0 time=0.025793625000000004
EXTRACT: note_on channel=9 note=27 velocity=91 time=0.013888875000000002
EXTRACT: note_on channel=10 note=37 velocity=83 time=0
EXTRACT: note_on channel=10 note=61 velocity=59 time=0
EXTRACT: note_on channel=10 note=64 velocity=74 time=0
EXTRACT: note_on channel=10 note=68 velocity=60 time=0
EXTRACT: note_on channel=10 note=73 velocity=69 time=0
EXTRACT: note_on channel=5 note=64 velocity=92 time=0
EXTRACT: note_on channel=5 note=68 velocity=95 time=0
EXTRACT: note_on channel=5 note=73 velocity=87 time=0
EXTRACT: note_on channel=0 note=80 velocity=0 time=0.029761875000000004
EXTRACT: note_on channel=5 note=64 velocity=0 time=0.013888875000000002
EXTRACT: note_on channel=5 note=68 velocity=0 time=0.027777750000000004
EXTRACT: note_on channel=9 note=27 velocity=0 time=0.0079365
EXTRACT: note_on channel=5 note=73 velocity=0 time=0.021825375
EXTRACT: note_on channel=9 note=27 velocity=79 time=0.136904625
EXTRACT: note_on channel=3 note=64 velocity=90 time=0
EXTRACT: note_on channel=9 note=27 velocity=0 time=0.06547612500000001
EXTRACT: note_on channel=5 note=64 velocity=92 time=0.053571375000000004
EXTRACT: note_on channel=5 note=68 velocity=93 time=0
EXTRACT: note_on channel=5 note=73 velocity=89 time=0
EXTRACT: note_on channel=9 note=27 velocity=51 time=0.009920625
EXTRACT: note_on channel=3 note=64 velocity=0 time=0.031746
EXTRACT: note_on channel=5 note=64 velocity=0 time=0.009920625
EXTRACT: note_on channel=5 note=68 velocity=0 time=0.013888875000000002
EXTRACT: note_on channel=5 note=73 velocity=0 time=0.027777750000000004
EXTRACT: note_on channel=9 note=27 velocity=0 time=0.005952375000000001
EXTRACT: note_on channel=9 note=32 velocity=79 time=0.01984125
EXTRACT: note_on channel=3 note=64 velocity=80 time=0
EXTRACT: note_on channel=9 note=32 velocity=0 time=0.0714285
EXTRACT: note_on channel=3 note=64 velocity=0 time=0.140872875
EXTRACT: note_on channel=9 note=32 velocity=70 time=0.025793625000000004
EXTRACT: note_on channel=3 note=61 velocity=82 time=0
EXTRACT: note_on channel=5 note=64 velocity=94 time=0
EXTRACT: note_on channel=5 note=68 velocity=95 time=0
EXTRACT: note_on channel=5 note=73 velocity=90 time=0
EXTRACT: note_on channel=9 note=32 velocity=0 time=0.05952375000000001
EXTRACT: note_on channel=5 note=64 velocity=0 time=0.005952375000000001
EXTRACT: note_on channel=10 note=61 velocity=0 time=0.023809500000000004
EXTRACT: note_on channel=10 note=64 velocity=0 time=0.001984125
EXTRACT: note_on channel=5 note=68 velocity=0 time=0
EXTRACT: note_on channel=5 note=73 velocity=0 time=0.023809500000000004
EXTRACT: note_on channel=9 note=32 velocity=70 time=0.013888875000000002
EXTRACT: note_on channel=10 note=73 velocity=0 time=0
EXTRACT: note_on channel=10 note=68 velocity=0 time=0.029761875000000004
EXTRACT: note_on channel=2 note=61 velocity=0 time=0.00396825
EXTRACT: note_on channel=2 note=68 velocity=0 time=0
EXTRACT: note_on channel=2 note=64 velocity=0 time=0
EXTRACT: note_on channel=0 note=81 velocity=60 time=0.025793625000000004
EXTRACT: note_on channel=2 note=66 velocity=64 time=0.00396825
EXTRACT: note_on channel=2 note=61 velocity=64 time=0
EXTRACT: note_on channel=2 note=69 velocity=64 time=0
EXTRACT: note_on channel=9 note=32 velocity=0 time=0.009920625
EXTRACT: note_on channel=3 note=61 velocity=0 time=0.009920625
EXTRACT: note_on channel=10 note=37 velocity=0 time=0.001984125
EXTRACT: note_on channel=9 note=27 velocity=89 time=0.023809500000000004
EXTRACT: note_on channel=10 note=30 velocity=77 time=0
EXTRACT: note_on channel=10 note=61 velocity=68 time=0
EXTRACT: note_on channel=10 note=66 velocity=75 time=0
EXTRACT: note_on channel=10 note=69 velocity=80 time=0
EXTRACT: note_on channel=10 note=73 velocity=68 time=0
EXTRACT: note_on channel=3 note=66 velocity=91 time=0
EXTRACT: note_on channel=0 note=76 velocity=0 time=0.023809500000000004
EXTRACT: note_on channel=9 note=27 velocity=0 time=0.04761900000000001
EXTRACT: note_on channel=5 note=66 velocity=87 time=0.04761900000000001
EXTRACT: note_on channel=5 note=69 velocity=96 time=0
EXTRACT: note_on channel=5 note=73 velocity=87 time=0
EXTRACT: note_on channel=9 note=32 velocity=78 time=0.009920625
EXTRACT: note_on channel=9 note=32 velocity=0 time=0.05555550000000001
EXTRACT: note_on channel=5 note=69 velocity=0 time=0.005952375000000001
EXTRACT: note_on channel=5 note=66 velocity=0 time=0.021825375
EXTRACT: note_on channel=5 note=73 velocity=0 time=0.015873
EXTRACT: note_on channel=9 note=27 velocity=78 time=0.009920625
EXTRACT: note_on channel=9 note=27 velocity=0 time=0.063492
EXTRACT: note_on channel=3 note=66 velocity=0 time=0.17063475000000003
EXTRACT: note_on channel=9 note=32 velocity=84 time=0.00396825
EXTRACT: note_on channel=3 note=61 velocity=82 time=0
EXTRACT: note_on channel=5 note=66 velocity=90 time=0
EXTRACT: note_on channel=5 note=69 velocity=104 time=0
EXTRACT: note_on channel=5 note=73 velocity=87 time=0
EXTRACT: note_on channel=9 note=32 velocity=0 time=0.063492
EXTRACT: note_on channel=9 note=32 velocity=80 time=0.174603
EXTRACT: note_on channel=5 note=69 velocity=0 time=0.011904750000000002
EXTRACT: note_on channel=5 note=66 velocity=0 time=0.00396825
EXTRACT: note_on channel=5 note=73 velocity=0 time=0.005952375000000001
EXTRACT: note_on channel=10 note=69 velocity=0 time=0.029761875000000004
EXTRACT: note_on channel=9 note=32 velocity=0 time=0.0079365
EXTRACT: note_on channel=3 note=61 velocity=0 time=0.031746
EXTRACT: note_on channel=10 note=73 velocity=0 time=0.0079365
EXTRACT: note_on channel=10 note=66 velocity=0 time=0.013888875000000002
EXTRACT: note_on channel=10 note=61 velocity=0 time=0.001984125
EXTRACT: note_on channel=9 note=32 velocity=72 time=0.013888875000000002
EXTRACT: note_on channel=2 note=69 velocity=0 time=0.03373012500000001
EXTRACT: note_on channel=2 note=61 velocity=0 time=0
EXTRACT: note_on channel=2 note=66 velocity=0 time=0
EXTRACT: note_on channel=9 note=32 velocity=0 time=0.029761875000000004
EXTRACT: note_on channel=2 note=66 velocity=64 time=0
EXTRACT: note_on channel=2 note=64 velocity=64 time=0
EXTRACT: note_on channel=2 note=71 velocity=64 time=0
EXTRACT: note_on channel=0 note=78 velocity=60 time=0
EXTRACT: note_on channel=10 note=30 velocity=0 time=0.029761875000000004
EXTRACT: note_on channel=9 note=27 velocity=87 time=0.015873
EXTRACT: note_on channel=10 note=35 velocity=81 time=0
EXTRACT: note_on channel=10 note=59 velocity=66 time=0
EXTRACT: note_on channel=10 note=64 velocity=60 time=0
EXTRACT: note_on channel=10 note=66 velocity=59 time=0
EXTRACT: note_on channel=10 note=71 velocity=71 time=0
EXTRACT: note_on channel=3 note=66 velocity=90 time=0
EXTRACT: note_on channel=5 note=64 velocity=92 time=0
EXTRACT: note_on channel=5 note=66 velocity=95 time=0
EXTRACT: note_on channel=5 note=71 velocity=100 time=0
EXTRACT: note_on channel=0 note=81 velocity=0 time=0.0396825
EXTRACT: note_on channel=5 note=64 velocity=0 time=0.021825375
EXTRACT: note_on channel=9 note=27 velocity=0 time=0.017857125
EXTRACT: note_on channel=5 note=66 velocity=0 time=0.009920625
EXTRACT: note_on channel=5 note=71 velocity=0 time=0.011904750000000002
EXTRACT: note_on channel=3 note=66 velocity=0 time=0.053571375000000004
EXTRACT: note_on channel=9 note=27 velocity=86 time=0.08333325000000001
EXTRACT: note_on channel=3 note=66 velocity=83 time=0
EXTRACT: note_on channel=9 note=27 velocity=0 time=0.07539675000000001
EXTRACT: note_on channel=5 note=64 velocity=91 time=0.04365075
EXTRACT: note_on channel=5 note=66 velocity=94 time=0
EXTRACT: note_on channel=5 note=71 velocity=100 time=0
EXTRACT: note_on channel=3 note=66 velocity=0 time=0.00396825
EXTRACT: note_on channel=5 note=64 velocity=0 time=0.05952375000000001
EXTRACT: note_on channel=5 note=66 velocity=0 time=0.011904750000000002
EXTRACT: note_on channel=5 note=71 velocity=0 time=0.009920625
EXTRACT: note_on channel=9 note=32 velocity=84 time=0.03373012500000001
EXTRACT: note_on channel=3 note=66 velocity=93 time=0
EXTRACT: note_on channel=9 note=32 velocity=0 time=0.0714285
EXTRACT: note_on channel=3 note=66 velocity=0 time=0.16269825000000002
EXTRACT: note_on channel=9 note=32 velocity=79 time=0.00396825
EXTRACT: note_on channel=3 note=64 velocity=81 time=0
EXTRACT: note_on channel=5 note=64 velocity=92 time=0
EXTRACT: note_on channel=5 note=66 velocity=100 time=0
EXTRACT: note_on channel=5 note=71 velocity=101 time=0
EXTRACT: note_on channel=9 note=32 velocity=0 time=0.06547612500000001
EXTRACT: note_on channel=10 note=59 velocity=0 time=0.005952375000000001
EXTRACT: note_on channel=5 note=64 velocity=0 time=0
EXTRACT: note_on channel=5 note=66 velocity=0 time=0.00396825
EXTRACT: note_on channel=10 note=71 velocity=0 time=0.005952375000000001
EXTRACT: note_on channel=10 note=64 velocity=0 time=0.011904750000000002
EXTRACT: note_on channel=10 note=66 velocity=0 time=0.001984125
EXTRACT: note_on channel=5 note=71 velocity=0 time=0.00396825
EXTRACT: note_on channel=10 note=35 velocity=0 time=0.00396825
EXTRACT: note_on channel=9 note=32 velocity=56 time=0.025793625000000004
EXTRACT: note_on channel=3 note=64 velocity=0 time=0.023809500000000004
EXTRACT: note_on channel=2 note=64 velocity=0 time=0.009920625
EXTRACT: note_on channel=2 note=66 velocity=0 time=0
EXTRACT: note_on channel=9 note=32 velocity=0 time=0.01984125
EXTRACT: note_on channel=2 note=63 velocity=64 time=0.009920625
EXTRACT: note_on channel=2 note=66 velocity=64 time=0
EXTRACT: note_on channel=9 note=27 velocity=88 time=0.045634875000000005
EXTRACT: note_on channel=10 note=35 velocity=80 time=0
EXTRACT: note_on channel=10 note=59 velocity=75 time=0
EXTRACT: note_on channel=10 note=63 velocity=73 time=0
EXTRACT: note_on channel=10 note=66 velocity=74 time=0
EXTRACT: note_on channel=10 note=71 velocity=78 time=0
EXTRACT: note_on channel=3 note=68 velocity=90 time=0
EXTRACT: note_on channel=9 note=27 velocity=0 time=0.08531737500000001
EXTRACT: note_on channel=5 note=63 velocity=93 time=0.03373012500000001
EXTRACT: note_on channel=5 note=66 velocity=93 time=0
EXTRACT: note_on channel=5 note=71 velocity=91 time=0
EXTRACT: note_on channel=5 note=63 velocity=0 time=0.069444375
EXTRACT: note_on channel=5 note=66 velocity=0 time=0.00396825
EXTRACT: note_on channel=5 note=71 velocity=0 time=0.021825375
EXTRACT: note_on channel=9 note=27 velocity=87 time=0.023809500000000004
EXTRACT: note_on channel=9 note=27 velocity=0 time=0.08333325000000001
EXTRACT: note_on channel=3 note=68 velocity=0 time=0.10912687500000001
EXTRACT: note_on channel=9 note=32 velocity=88 time=0.045634875000000005
EXTRACT: note_on channel=3 note=66 velocity=91 time=0
EXTRACT: note_on channel=5 note=63 velocity=94 time=0
EXTRACT: note_on channel=5 note=66 velocity=94 time=0
EXTRACT: note_on channel=5 note=71 velocity=98 time=0
EXTRACT: note_on channel=9 note=32 velocity=0 time=0.06547612500000001
EXTRACT: note_on channel=9 note=32 velocity=75 time=0.172618875
EXTRACT: note_on channel=9 note=65 velocity=71 time=0.03373012500000001
EXTRACT: note_on channel=9 note=65 velocity=0 time=0.001984125
EXTRACT: note_on channel=10 note=71 velocity=0 time=0.009920625
EXTRACT: note_on channel=9 note=32 velocity=0 time=0.013888875000000002
EXTRACT: note_on channel=10 note=59 velocity=0 time=0.00396825
EXTRACT: note_on channel=10 note=66 velocity=0 time=0.001984125
EXTRACT: note_on channel=10 note=63 velocity=0 time=0.005952375000000001
EXTRACT: note_on channel=5 note=71 velocity=0 time=0.021825375
EXTRACT: note_on channel=5 note=63 velocity=0 time=0.001984125
EXTRACT: note_on channel=5 note=66 velocity=0 time=0.005952375000000001
EXTRACT: note_on channel=9 note=65 velocity=76 time=0.001984125
EXTRACT: note_on channel=9 note=65 velocity=0 time=0.001984125
EXTRACT: note_on channel=3 note=66 velocity=0 time=0.0079365
EXTRACT: note_on channel=2 note=71 velocity=0 time=0
EXTRACT: note_on channel=9 note=32 velocity=70 time=0.015873
EXTRACT: note_on channel=10 note=35 velocity=0 time=0.025793625000000004
EXTRACT: note_on channel=2 note=66 velocity=0 time=0.0079365
EXTRACT: note_on channel=2 note=63 velocity=0 time=0
EXTRACT: note_on channel=9 note=65 velocity=85 time=0.009920625
EXTRACT: note_on channel=9 note=65 velocity=0 time=0.001984125
EXTRACT: note_on channel=9 note=32 velocity=0 time=0.01984125
EXTRACT: note_on channel=0 note=78 velocity=0 time=0.0079365
EXTRACT: note_on channel=9 note=27 velocity=107 time=0.03571425
EXTRACT: note_on channel=10 note=28 velocity=87 time=0
EXTRACT: note_on channel=10 note=40 velocity=101 time=0
EXTRACT: note_on channel=10 note=59 velocity=79 time=0
EXTRACT: note_on channel=10 note=64 velocity=89 time=0
EXTRACT: note_on channel=10 note=68 velocity=85 time=0
EXTRACT: note_on channel=4 note=64 velocity=113 time=0
EXTRACT: note_on channel=5 note=59 velocity=95 time=0
EXTRACT: note_on channel=5 note=64 velocity=109 time=0
EXTRACT: note_on channel=5 note=68 velocity=100 time=0
EXTRACT: note_on channel=9 note=65 velocity=109 time=0.011904750000000002
EXTRACT: note_on channel=9 note=57 velocity=69 time=0
EXTRACT: note_on channel=9 note=57 velocity=0 time=0.001984125
EXTRACT: note_on channel=9 note=65 velocity=0 time=0
EXTRACT: note_on channel=9 note=66 velocity=79 time=0.017857125
EXTRACT: note_on channel=9 note=66 velocity=0 time=0.001984125
EXTRACT: note_on channel=4 note=64 velocity=0 time=0.061507875000000004
EXTRACT: note_on channel=9 note=27 velocity=0 time=0.023809500000000004
EXTRACT: note_on channel=4 note=64 velocity=105 time=0.11904750000000001
EXTRACT: note_on channel=5 note=59 velocity=0 time=0.041666625000000006
EXTRACT: note_on channel=5 note=64 velocity=0 time=0.00396825
EXTRACT: note_on channel=5 note=68 velocity=0 time=0.017857125
EXTRACT: note_on channel=10 note=59 velocity=0 time=0.09920625000000001
EXTRACT: note_on channel=10 note=40 velocity=0 time=0.001984125
EXTRACT: note_on channel=10 note=64 velocity=0 time=0.0079365
EXTRACT: note_on channel=10 note=28 velocity=0 time=0.021825375
EXTRACT: note_on channel=10 note=68 velocity=0 time=0.00396825
EXTRACT: note_on channel=4 note=61 velocity=90 time=0.0396825
EXTRACT: note_on channel=9 note=65 velocity=106 time=0.015873
EXTRACT: note_on channel=4 note=64 velocity=0 time=0.00396825
EXTRACT: note_on channel=9 note=65 velocity=0 time=0
EXTRACT: note_on channel=9 note=66 velocity=78 time=0.015873
EXTRACT: note_on channel=9 note=66 velocity=0 time=0.00396825
EXTRACT: note_on channel=4 note=59 velocity=89 time=0.19841250000000002
EXTRACT: note_on channel=4 note=61 velocity=0 time=0.01984125
EXTRACT: note_on channel=4 note=59 velocity=0 time=0.15277762500000003
EXTRACT: note_on channel=4 note=64 velocity=110 time=0.06547612500000001
EXTRACT: note_on channel=4 note=64 velocity=0 time=0.12301575000000001
EXTRACT: note_on channel=9 note=66 velocity=87 time=0.11507925000000001
EXTRACT: note_on channel=4 note=64 velocity=115 time=0
EXTRACT: note_on channel=9 note=66 velocity=0 time=0.07341262500000001
EXTRACT: note_on channel=9 note=65 velocity=89 time=0.045634875000000005
EXTRACT: note_on channel=9 note=65 velocity=0 time=0.05555550000000001
EXTRACT: note_on channel=4 note=61 velocity=92 time=0.063492
EXTRACT: note_on channel=4 note=64 velocity=0 time=0.03571425
EXTRACT: note_on channel=9 note=65 velocity=80 time=0.08333325000000001
EXTRACT: note_on channel=9 note=65 velocity=0 time=0.029761875000000004
EXTRACT: note_on channel=4 note=61 velocity=0 time=0.08333325000000001
EXTRACT: note_on channel=9 note=65 velocity=87 time=0.005952375000000001
EXTRACT: note_on channel=4 note=59 velocity=88 time=0
EXTRACT: note_on channel=9 note=65 velocity=0 time=0.049603125000000005
EXTRACT: note_on channel=4 note=59 velocity=0 time=0.12499987500000001
EXTRACT: note_on channel=9 note=27 velocity=94 time=0.063492
EXTRACT: note_on channel=9 note=36 velocity=105 time=0
EXTRACT: note_on channel=9 note=42 velocity=103 time=0
EXTRACT: note_on channel=9 note=44 velocity=107 time=0
EXTRACT: note_on channel=9 note=49 velocity=88 time=0
EXTRACT: note_on channel=9 note=56 velocity=82 time=0
EXTRACT: note_on channel=9 note=57 velocity=74 time=0
EXTRACT: note_on channel=1 note=37 velocity=120 time=0
EXTRACT: note_on channel=10 note=56 velocity=55 time=0
EXTRACT: note_on channel=10 note=61 velocity=44 time=0
EXTRACT: note_on channel=10 note=64 velocity=53 time=0
EXTRACT: note_on channel=3 note=68 velocity=91 time=0
EXTRACT: note_on channel=5 note=61 velocity=81 time=0
EXTRACT: note_on channel=5 note=64 velocity=87 time=0
EXTRACT: note_on channel=5 note=68 velocity=75 time=0
EXTRACT: note_on channel=7 note=49 velocity=81 time=0
EXTRACT: note_on channel=2 note=64 velocity=64 time=0
EXTRACT: note_on channel=2 note=61 velocity=64 time=0
EXTRACT: note_on channel=2 note=68 velocity=64 time=0
EXTRACT: note_on channel=0 note=80 velocity=60 time=0
EXTRACT: note_on channel=9 note=36 velocity=126 time=0
EXTRACT: note_on channel=9 note=35 velocity=117 time=0
EXTRACT: note_on channel=9 note=57 velocity=84 time=0
EXTRACT: note_on channel=9 note=57 velocity=0 time=0.001984125
EXTRACT: note_on channel=9 note=35 velocity=0 time=0
EXTRACT: note_on channel=9 note=36 velocity=0 time=0
EXTRACT: note_on channel=9 note=44 velocity=0 time=0.061507875000000004
EXTRACT: note_on channel=5 note=64 velocity=0 time=0
EXTRACT: note_on channel=9 note=27 velocity=0 time=0.001984125
EXTRACT: note_on channel=9 note=36 velocity=0 time=0.0079365
EXTRACT: note_on channel=5 note=68 velocity=0 time=0.001984125
EXTRACT: note_on channel=9 note=49 velocity=0 time=0.009920625
EXTRACT: note_on channel=5 note=61 velocity=0 time=0
EXTRACT: note_on channel=9 note=57 velocity=0 time=0.009920625
EXTRACT: note_on channel=9 note=69 velocity=93 time=0.045634875000000005
EXTRACT: note_on channel=9 note=69 velocity=0 time=0.001984125
EXTRACT: note_on channel=9 note=42 velocity=0 time=0.01984125
EXTRACT: note_on channel=7 note=49 velocity=0 time=0.03571425
EXTRACT: note_on channel=3 note=68 velocity=0 time=0.03571425
EXTRACT: note_on channel=9 note=27 velocity=79 time=0.00396825
EXTRACT: note_on channel=9 note=44 velocity=51 time=0
EXTRACT: note_on channel=9 note=67 velocity=35 time=0
EXTRACT: note_on channel=3 note=64 velocity=81 time=0
EXTRACT: note_on channel=7 note=56 velocity=74 time=0
EXTRACT: note_on channel=7 note=61 velocity=62 time=0
EXTRACT: note_on channel=9 note=42 velocity=73 time=0
EXTRACT: note_on channel=9 note=70 velocity=105 time=0
EXTRACT: note_on channel=9 note=70 velocity=0 time=0.001984125
EXTRACT: note_on channel=9 note=42 velocity=0 time=0
EXTRACT: note_on channel=9 note=44 velocity=0 time=0.027777750000000004
EXTRACT: note_on channel=9 note=56 velocity=0 time=0.005952375000000001
EXTRACT: note_on channel=9 note=67 velocity=0 time=0.005952375000000001
EXTRACT: note_on channel=7 note=61 velocity=0 time=0.01984125
EXTRACT: note_on channel=7 note=56 velocity=0 time=0
EXTRACT: note_on channel=9 note=27 velocity=0 time=0.009920625
EXTRACT: note_on channel=1 note=49 velocity=104 time=0.0396825
EXTRACT: note_on channel=7 note=56 velocity=82 time=0.0079365
EXTRACT: note_on channel=7 note=61 velocity=71 time=0
EXTRACT: note_on channel=9 note=62 velocity=64 time=0
EXTRACT: note_on channel=9 note=62 velocity=0 time=0.001984125
EXTRACT: note_on channel=9 note=32 velocity=71 time=0.0079365
EXTRACT: note_on channel=9 note=44 velocity=66 time=0
EXTRACT: note_on channel=9 note=67 velocity=43 time=0
EXTRACT: note_on channel=5 note=61 velocity=76 time=0
EXTRACT: note_on channel=5 note=64 velocity=86 time=0
EXTRACT: note_on channel=5 note=68 velocity=77 time=0
EXTRACT: note_on channel=9 note=42 velocity=66 time=0.011904750000000002
EXTRACT: note_on channel=9 note=69 velocity=61 time=0
EXTRACT: note_on channel=9 note=69 velocity=0 time=0.001984125
EXTRACT: note_on channel=9 note=42 velocity=0 time=0
EXTRACT: note_on channel=7 note=61 velocity=0 time=0.037698375000000006
EXTRACT: note_on channel=9 note=44 velocity=0 time=0.001984125
EXTRACT: note_on channel=1 note=49 velocity=0 time=0.001984125
EXTRACT: note_on channel=7 note=56 velocity=0 time=0
EXTRACT: note_on channel=9 note=67 velocity=0 time=0.015873
EXTRACT: note_on channel=3 note=64 velocity=0 time=0.0079365
EXTRACT: note_on channel=5 note=64 velocity=0 time=0.001984125
EXTRACT: note_on channel=9 note=32 velocity=0 time=0.00396825
EXTRACT: note_on channel=9 note=28 velocity=74 time=0.023809500000000004
EXTRACT: note_on channel=9 note=36 velocity=103 time=0
EXTRACT: note_on channel=9 note=39 velocity=104 time=0
EXTRACT: note_on channel=9 note=42 velocity=74 time=0
EXTRACT: note_on channel=9 note=56 velocity=77 time=0
EXTRACT: note_on channel=3 note=68 velocity=79 time=0
EXTRACT: note_on channel=7 note=49 velocity=78 time=0
EXTRACT: note_on channel=9 note=40 velocity=117 time=0
EXTRACT: note_on channel=9 note=36 velocity=126 time=0
EXTRACT: note_on channel=9 note=35 velocity=117 time=0
EXTRACT: note_on channel=9 note=39 velocity=121 time=0
EXTRACT: note_on channel=9 note=44 velocity=81 time=0
EXTRACT: note_on channel=9 note=69 velocity=78 time=0
EXTRACT: note_on channel=9 note=60 velocity=80 time=0
EXTRACT: note_on channel=9 note=60 velocity=0 time=0.001984125
EXTRACT: note_on channel=9 note=44 velocity=0 time=0
EXTRACT: note_on channel=9 note=36 velocity=0 time=0
EXTRACT: note_on channel=9 note=35 velocity=0 time=0
EXTRACT: note_on channel=9 note=40 velocity=0 time=0
EXTRACT: note_on channel=9 note=69 velocity=0 time=0
EXTRACT: note_on channel=9 note=39 velocity=0 time=0
EXTRACT: note_on channel=5 note=68 velocity=0 time=0.017857125
EXTRACT: note_on channel=5 note=61 velocity=0 time=0.00396825
EXTRACT: note_on channel=9 note=39 velocity=0 time=0.037698375000000006
EXTRACT: note_on channel=9 note=42 velocity=0 time=0.00396825
EXTRACT: note_on channel=9 note=36 velocity=0 time=0.0079365
EXTRACT: note_on channel=1 note=37 velocity=0 time=0
EXTRACT: note_on channel=9 note=28 velocity=0 time=0.017857125
EXTRACT: note_on channel=9 note=62 velocity=63 time=0.027777750000000004
EXTRACT: note_on channel=9 note=62 velocity=0 time=0.001984125
EXTRACT: note_on channel=9 note=32 velocity=59 time=0.0079365
EXTRACT: note_on channel=7 note=49 velocity=0 time=0.029761875000000004
EXTRACT: note_on channel=9 note=32 velocity=0 time=0.023809500000000004
EXTRACT: note_on channel=3 note=68 velocity=0 time=0.049603125000000005
EXTRACT: note_on channel=9 note=32 velocity=63 time=0.005952375000000001
EXTRACT: note_on channel=9 note=44 velocity=53 time=0
EXTRACT: note_on channel=9 note=68 velocity=59 time=0
EXTRACT: note_on channel=1 note=42 velocity=120 time=0
EXTRACT: note_on channel=3 note=73 velocity=77 time=0
EXTRACT: note_on channel=5 note=61 velocity=84 time=0
EXTRACT: note_on channel=5 note=64 velocity=85 time=0
EXTRACT: note_on channel=5 note=68 velocity=86 time=0
EXTRACT: note_on channel=7 note=56 velocity=74 time=0
EXTRACT: note_on channel=7 note=61 velocity=57 time=0
EXTRACT: note_on channel=9 note=42 velocity=73 time=0
EXTRACT: note_on channel=9 note=60 velocity=59 time=0
EXTRACT: note_on channel=9 note=60 velocity=0 time=0.001984125
EXTRACT: note_on channel=9 note=42 velocity=0 time=0
EXTRACT: note_on channel=9 note=70 velocity=105 time=0
EXTRACT: note_on channel=9 note=70 velocity=0 time=0.001984125
EXTRACT: note_on channel=9 note=44 velocity=0 time=0.03571425
EXTRACT: note_on channel=9 note=56 velocity=0 time=0.001984125
EXTRACT: note_on channel=7 note=61 velocity=0 time=0.013888875000000002
EXTRACT: note_on channel=9 note=68 velocity=0 time=0.005952375000000001
EXTRACT: note_on channel=5 note=64 velocity=0 time=0.001984125
EXTRACT: note_on channel=7 note=56 velocity=0 time=0.001984125
EXTRACT: note_on channel=9 note=32 velocity=0 time=0.005952375000000001
EXTRACT: note_on channel=5 note=61 velocity=0 time=0.029761875000000004
EXTRACT: note_on channel=5 note=68 velocity=0 time=0.0079365
EXTRACT: note_on channel=10 note=64 velocity=0 time=0.005952375000000001
EXTRACT: note_on channel=7 note=56 velocity=81 time=0.00396825
EXTRACT: note_on channel=7 note=61 velocity=68 time=0
EXTRACT: note_on channel=9 note=61 velocity=69 time=0
EXTRACT: note_on channel=10 note=61 velocity=0 time=0.001984125
EXTRACT: note_on channel=9 note=61 velocity=0 time=0
EXTRACT: note_on channel=9 note=32 velocity=62 time=0.0079365
EXTRACT: note_on channel=9 note=44 velocity=60 time=0
EXTRACT: note_on channel=9 note=68 velocity=36 time=0
EXTRACT: note_on channel=9 note=42 velocity=66 time=0.011904750000000002
EXTRACT: note_on channel=9 note=82 velocity=28 time=0
EXTRACT: note_on channel=9 note=82 velocity=0 time=0.001984125
EXTRACT: note_on channel=9 note=42 velocity=0 time=0
EXTRACT: note_on channel=2 note=68 velocity=0 time=0.01984125
EXTRACT: note_on channel=2 note=61 velocity=0 time=0
EXTRACT: note_on channel=2 note=64 velocity=0 time=0
EXTRACT: note_on channel=9 note=68 velocity=0 time=0.025793625000000004
EXTRACT: note_on channel=10 note=56 velocity=0 time=0
EXTRACT: note_on channel=7 note=61 velocity=0 time=0
EXTRACT: note_on channel=9 note=44 velocity=0 time=0.001984125
EXTRACT: note_on channel=7 note=56 velocity=0 time=0
EXTRACT: note_on channel=2 note=61 velocity=64 time=0.001984125
EXTRACT: note_on channel=2 note=66 velocity=64 time=0
EXTRACT: note_on channel=2 note=69 velocity=64 time=0
EXTRACT: note_on channel=0 note=81 velocity=60 time=0
EXTRACT: note_on channel=9 note=32 velocity=0 time=0.009920625
EXTRACT: note_on channel=3 note=73 velocity=0 time=0.031746
EXTRACT: note_on channel=9 note=27 velocity=88 time=0.00396825
EXTRACT: note_on channel=9 note=36 velocity=99 time=0
EXTRACT: note_on channel=9 note=42 velocity=93 time=0
EXTRACT: note_on channel=9 note=44 velocity=90 time=0
EXTRACT: note_on channel=9 note=56 velocity=73 time=0
EXTRACT: note_on channel=10 note=57 velocity=58 time=0
EXTRACT: note_on channel=10 note=61 velocity=58 time=0
EXTRACT: note_on channel=10 note=66 velocity=49 time=0
EXTRACT: note_on channel=3 note=69 velocity=87 time=0
EXTRACT: note_on channel=7 note=54 velocity=83 time=0
EXTRACT: note_on channel=9 note=36 velocity=126 time=0
EXTRACT: note_on channel=9 note=35 velocity=117 time=0
EXTRACT: note_on channel=9 note=44 velocity=81 time=0
EXTRACT: note_on channel=9 note=82 velocity=74 time=0
EXTRACT: note_on channel=9 note=56 velocity=78 time=0
EXTRACT: note_on channel=9 note=56 velocity=0 time=0.001984125
EXTRACT: note_on channel=9 note=44 velocity=0 time=0
EXTRACT: note_on channel=9 note=36 velocity=0 time=0
EXTRACT: note_on channel=9 note=35 velocity=0 time=0
EXTRACT: note_on channel=9 note=82 velocity=0 time=0
EXTRACT: note_on channel=0 note=80 velocity=0 time=0.027777750000000004
EXTRACT: note_on channel=9 note=44 velocity=0 time=0.03571425
EXTRACT: note_on channel=9 note=27 velocity=0 time=0.0079365
EXTRACT: note_on channel=9 note=36 velocity=0 time=0.01984125
EXTRACT: note_on channel=9 note=27 velocity=64 time=0.03571425
EXTRACT: note_on channel=5 note=61 velocity=84 time=0
EXTRACT: note_on channel=5 note=66 velocity=86 time=0
EXTRACT: note_on channel=5 note=69 velocity=97 time=0
EXTRACT: note_on channel=9 note=82 velocity=36 time=0.011904750000000002
EXTRACT: note_on channel=9 note=82 velocity=0 time=0.001984125
EXTRACT: note_on channel=9 note=42 velocity=0 time=0.005952375000000001
EXTRACT: note_on channel=9 note=27 velocity=0 time=0.041666625000000006
EXTRACT: note_on channel=5 note=69 velocity=0 time=0.0079365
EXTRACT: note_on channel=7 note=54 velocity=0 time=0
EXTRACT: note_on channel=5 note=66 velocity=0 time=0.00396825
EXTRACT: note_on channel=5 note=61 velocity=0 time=0.0079365
EXTRACT: note_on channel=9 note=70 velocity=105 time=0.01984125
EXTRACT: note_on channel=9 note=70 velocity=0 time=0.001984125
EXTRACT: note_on channel=9 note=27 velocity=69 time=0.005952375000000001
EXTRACT: note_on channel=9 note=44 velocity=53 time=0
EXTRACT: note_on channel=9 note=67 velocity=44 time=0
EXTRACT: note_on channel=7 note=57 velocity=64 time=0
EXTRACT: note_on channel=7 note=61 velocity=49 time=0
EXTRACT: note_on channel=9 note=42 velocity=73 time=0
EXTRACT: note_on channel=9 note=82 velocity=59 time=0
EXTRACT: note_on channel=9 note=82 velocity=0 time=0.001984125
EXTRACT: note_on channel=9 note=42 velocity=0 time=0
EXTRACT: note_on channel=1 note=54 velocity=104 time=0.021825375
EXTRACT: note_on channel=9 note=56 velocity=0 time=0.005952375000000001
EXTRACT: note_on channel=7 note=61 velocity=0 time=0.00396825
EXTRACT: note_on channel=7 note=57 velocity=0 time=0
EXTRACT: note_on channel=9 note=44 velocity=0 time=0.001984125
EXTRACT: note_on channel=9 note=67 velocity=0 time=0.005952375000000001
EXTRACT: note_on channel=9 note=27 velocity=0 time=0.037698375000000006
EXTRACT: note_on channel=1 note=54 velocity=0 time=0.013888875000000002
EXTRACT: note_on channel=7 note=57 velocity=71 time=0.025793625000000004
EXTRACT: note_on channel=7 note=61 velocity=56 time=0
EXTRACT: note_on channel=9 note=56 velocity=72 time=0
EXTRACT: note_on channel=9 note=56 velocity=0 time=0.001984125
EXTRACT: note_on channel=9 note=44 velocity=35 time=0.0079365
EXTRACT: note_on channel=9 note=67 velocity=27 time=0
EXTRACT: note_on channel=9 note=42 velocity=66 time=0.011904750000000002
EXTRACT: note_on channel=9 note=82 velocity=49 time=0
EXTRACT: note_on channel=9 note=82 velocity=0 time=0.001984125
EXTRACT: note_on channel=9 note=42 velocity=0 time=0
EXTRACT: note_on channel=9 note=44 velocity=0 time=0.027777750000000004
EXTRACT: note_on channel=9 note=67 velocity=0 time=0.001984125
EXTRACT: note_on channel=7 note=57 velocity=0 time=0.015873
EXTRACT: note_on channel=7 note=61 velocity=0 time=0.00396825
EXTRACT: note_on channel=3 note=69 velocity=0 time=0.001984125
EXTRACT: note_on channel=9 note=28 velocity=79 time=0.04365075
EXTRACT: note_on channel=9 note=32 velocity=78 time=0
EXTRACT: note_on channel=9 note=36 velocity=103 time=0
EXTRACT: note_on channel=9 note=39 velocity=99 time=0
EXTRACT: note_on channel=9 note=42 velocity=64 time=0
EXTRACT: note_on channel=9 note=56 velocity=76 time=0
EXTRACT: note_on channel=5 note=61 velocity=82 time=0
EXTRACT: note_on channel=5 note=66 velocity=78 time=0
EXTRACT: note_on channel=5 note=69 velocity=96 time=0
EXTRACT: note_on channel=7 note=54 velocity=85 time=0
EXTRACT: note_on channel=9 note=39 velocity=121 time=0
EXTRACT: note_on channel=9 note=40 velocity=117 time=0
EXTRACT: note_on channel=9 note=36 velocity=126 time=0
EXTRACT: note_on channel=9 note=35 velocity=117 time=0
EXTRACT: note_on channel=9 note=44 velocity=81 time=0
EXTRACT: note_on channel=9 note=82 velocity=66 time=0
EXTRACT: note_on channel=9 note=82 velocity=0 time=0.001984125
EXTRACT: note_on channel=9 note=40 velocity=0 time=0
EXTRACT: note_on channel=9 note=36 velocity=0 time=0
EXTRACT: note_on channel=9 note=39 velocity=0 time=0
EXTRACT: note_on channel=9 note=44 velocity=0 time=0
EXTRACT: note_on channel=9 note=35 velocity=0 time=0
EXTRACT: note_on channel=9 note=39 velocity=0 time=0.063492
EXTRACT: note_on channel=9 note=28 velocity=0 time=0.00396825
EXTRACT: note_on channel=9 note=32 velocity=0 time=0.009920625
EXTRACT: note_on channel=9 note=42 velocity=0 time=0.001984125
EXTRACT: note_on channel=1 note=42 velocity=0 time=0.037698375000000006
EXTRACT: note_on channel=9 note=36 velocity=0 time=0.06547612500000001
EXTRACT: note_on channel=7 note=54 velocity=0 time=0.01984125
EXTRACT: note_on channel=9 note=70 velocity=105 time=0.027777750000000004
EXTRACT: note_on channel=9 note=70 velocity=0 time=0.001984125
EXTRACT: note_on channel=9 note=32 velocity=67 time=0.00396825
EXTRACT: note_on channel=9 note=44 velocity=53 time=0
EXTRACT: note_on channel=9 note=68 velocity=40 time=0
EXTRACT: note_on channel=1 note=30 velocity=120 time=0
EXTRACT: note_on channel=7 note=57 velocity=70 time=0
EXTRACT: note_on channel=7 note=61 velocity=63 time=0
EXTRACT: note_on channel=9 note=42 velocity=73 time=0
EXTRACT: note_on channel=9 note=69 velocity=93 time=0
EXTRACT: note_on channel=9 note=56 velocity=72 time=0
EXTRACT: note_on channel=9 note=56 velocity=0 time=0.001984125
EXTRACT: note_on channel=9 note=69 velocity=0 time=0
EXTRACT: note_on channel=9 note=42 velocity=0 time=0
EXTRACT: note_on channel=9 note=68 velocity=0 time=0.027777750000000004
EXTRACT: note_on channel=7 note=57 velocity=0 time=0.011904750000000002
EXTRACT: note_on channel=9 note=32 velocity=0 time=0.009920625
EXTRACT: note_on channel=9 note=44 velocity=0 time=0.001984125
EXTRACT: note_on channel=7 note=61 velocity=0 time=0.011904750000000002
EXTRACT: note_on channel=9 note=56 velocity=0 time=0.005952375000000001
EXTRACT: note_on channel=5 note=66 velocity=0 time=0.027777750000000004
EXTRACT: note_on channel=5 note=69 velocity=0 time=0.00396825
EXTRACT: note_on channel=10 note=66 velocity=0 time=0.005952375000000001
EXTRACT: note_on channel=10 note=61 velocity=0 time=0.001984125
EXTRACT: note_on channel=7 note=57 velocity=74 time=0.0079365
EXTRACT: note_on channel=7 note=61 velocity=59 time=0
EXTRACT: note_on channel=9 note=32 velocity=64 time=0.009920625
EXTRACT: note_on channel=9 note=44 velocity=54 time=0
EXTRACT: note_on channel=9 note=68 velocity=34 time=0
EXTRACT: note_on channel=10 note=57 velocity=0 time=0.011904750000000002
EXTRACT: note_on channel=5 note=61 velocity=0 time=0
EXTRACT: note_on channel=9 note=42 velocity=66 time=0
EXTRACT: note_on channel=9 note=69 velocity=73 time=0
EXTRACT: note_on channel=9 note=69 velocity=0 time=0.001984125
EXTRACT: note_on channel=9 note=42 velocity=0 time=0
EXTRACT: note_on channel=2 note=69 velocity=0 time=0.01984125
EXTRACT: note_on channel=2 note=66 velocity=0 time=0
EXTRACT: note_on channel=2 note=61 velocity=0 time=0
EXTRACT: note_on channel=9 note=44 velocity=0 time=0.021825375
EXTRACT: note_on channel=7 note=57 velocity=0 time=0.00396825
EXTRACT: note_on channel=2 note=66 velocity=64 time=0.00396825
EXTRACT: note_on channel=2 note=63 velocity=64 time=0
EXTRACT: note_on channel=2 note=59 velocity=64 time=0
EXTRACT: note_on channel=0 note=83 velocity=60 time=0
EXTRACT: note_on channel=9 note=32 velocity=0 time=0.001984125
EXTRACT: note_on channel=7 note=61 velocity=0 time=0
EXTRACT: note_on channel=9 note=68 velocity=0 time=0.0079365
EXTRACT: note_on channel=9 note=27 velocity=92 time=0.03571425
EXTRACT: note_on channel=9 note=36 velocity=99 time=0
EXTRACT: note_on channel=9 note=42 velocity=90 time=0
EXTRACT: note_on channel=9 note=44 velocity=89 time=0
EXTRACT: note_on channel=9 note=56 velocity=74 time=0
EXTRACT: note_on channel=1 note=35 velocity=120 time=0
EXTRACT: note_on channel=10 note=59 velocity=68 time=0
EXTRACT: note_on channel=10 note=63 velocity=46 time=0
EXTRACT: note_on channel=10 note=66 velocity=61 time=0
EXTRACT: note_on channel=3 note=66 velocity=90 time=0
EXTRACT: note_on channel=5 note=59 velocity=83 time=0
EXTRACT: note_on channel=5 note=63 velocity=79 time=0
EXTRACT: note_on channel=5 note=66 velocity=81 time=0
EXTRACT: note_on channel=7 note=51 velocity=94 time=0
EXTRACT: note_on channel=9 note=36 velocity=126 time=0
EXTRACT: note_on channel=9 note=35 velocity=117 time=0
EXTRACT: note_on channel=9 note=35 velocity=0 time=0.001984125
EXTRACT: note_on channel=9 note=36 velocity=0 time=0
EXTRACT: note_on channel=1 note=30 velocity=0 time=0.00396825
EXTRACT: note_on channel=0 note=81 velocity=0 time=0.023809500000000004
EXTRACT: note_on channel=5 note=63 velocity=0 time=0.0396825
EXTRACT: note_on channel=9 note=27 velocity=0 time=0.009920625
EXTRACT: note_on channel=5 note=66 velocity=0 time=0
EXTRACT: note_on channel=9 note=44 velocity=0 time=0.001984125
EXTRACT: note_on channel=9 note=36 velocity=0 time=0.01984125
EXTRACT: note_on channel=5 note=59 velocity=0 time=0.011904750000000002
EXTRACT: note_on channel=7 note=51 velocity=0 time=0.015873
EXTRACT: note_on channel=9 note=69 velocity=84 time=0.011904750000000002
EXTRACT: note_on channel=9 note=69 velocity=0 time=0.001984125
EXTRACT: note_on channel=9 note=42 velocity=0 time=0.049603125000000005
EXTRACT: note_on channel=3 note=66 velocity=0 time=0.041666625000000006
EXTRACT: note_on channel=9 note=70 velocity=105 time=0
EXTRACT: note_on channel=9 note=27 velocity=85 time=0.00396825
EXTRACT: note_on channel=9 note=44 velocity=53 time=0
EXTRACT: note_on channel=9 note=67 velocity=38 time=0
EXTRACT: note_on channel=3 note=63 velocity=73 time=0
EXTRACT: note_on channel=7 note=54 velocity=69 time=0
EXTRACT: note_on channel=7 note=59 velocity=41 time=0
EXTRACT: note_on channel=9 note=70 velocity=0 time=0
EXTRACT: note_on channel=9 note=42 velocity=73 time=0
EXTRACT: note_on channel=9 note=62 velocity=79 time=0
EXTRACT: note_on channel=9 note=62 velocity=0 time=0.001984125
EXTRACT: note_on channel=9 note=42 velocity=0 time=0
EXTRACT: note_on channel=9 note=44 velocity=0 time=0.031746
EXTRACT: note_on channel=9 note=67 velocity=0 time=0.0079365
EXTRACT: note_on channel=7 note=59 velocity=0 time=0
EXTRACT: note_on channel=9 note=56 velocity=0 time=0.013888875000000002
EXTRACT: note_on channel=7 note=54 velocity=0 time=0.009920625
EXTRACT: note_on channel=9 note=27 velocity=0 time=0.00396825
EXTRACT: note_on channel=7 note=54 velocity=73 time=0.049603125000000005
EXTRACT: note_on channel=7 note=59 velocity=65 time=0
EXTRACT: note_on channel=9 note=61 velocity=69 time=0
EXTRACT: note_on channel=9 note=61 velocity=0 time=0.001984125
EXTRACT: note_on channel=9 note=32 velocity=76 time=0.0079365
EXTRACT: note_on channel=9 note=44 velocity=27 time=0
EXTRACT: note_on channel=9 note=67 velocity=45 time=0
EXTRACT: note_on channel=1 note=47 velocity=104 time=0
EXTRACT: note_on channel=5 note=59 velocity=67 time=0
EXTRACT: note_on channel=5 note=63 velocity=90 time=0
EXTRACT: note_on channel=5 note=66 velocity=81 time=0
EXTRACT: note_on channel=9 note=42 velocity=66 time=0.011904750000000002
EXTRACT: note_on channel=9 note=69 velocity=68 time=0
EXTRACT: note_on channel=9 note=69 velocity=0 time=0.001984125
EXTRACT: note_on channel=9 note=42 velocity=0 time=0
EXTRACT: note_on channel=9 note=44 velocity=0 time=0.025793625000000004
EXTRACT: note_on channel=9 note=67 velocity=0 time=0.00396825
EXTRACT: note_on channel=9 note=32 velocity=0 time=0.029761875000000004
EXTRACT: note_on channel=5 note=63 velocity=0 time=0
EXTRACT: note_on channel=7 note=54 velocity=0 time=0
EXTRACT: note_on channel=7 note=59 velocity=0 time=0.001984125
EXTRACT: note_on channel=5 note=66 velocity=0 time=0.0079365
EXTRACT: note_on channel=1 note=47 velocity=0 time=0.001984125
EXTRACT: note_on channel=3 note=63 velocity=0 time=0.01984125
EXTRACT: note_on channel=9 note=28 velocity=82 time=0.00396825
EXTRACT: note_on channel=9 note=36 velocity=94 time=0
EXTRACT: note_on channel=9 note=39 velocity=99 time=0
EXTRACT: note_on channel=9 note=42 velocity=76 time=0
EXTRACT: note_on channel=9 note=56 velocity=76 time=0
EXTRACT: note_on channel=3 note=66 velocity=74 time=0
EXTRACT: note_on channel=7 note=51 velocity=85 time=0
EXTRACT: note_on channel=9 note=39 velocity=121 time=0
EXTRACT: note_on channel=9 note=36 velocity=126 time=0
EXTRACT: note_on channel=9 note=35 velocity=117 time=0
EXTRACT: note_on channel=9 note=40 velocity=117 time=0
EXTRACT: note_on channel=9 note=44 velocity=81 time=0
EXTRACT: note_on channel=9 note=44 velocity=0 time=0.001984125
EXTRACT: note_on channel=9 note=35 velocity=0 time=0
EXTRACT: note_on channel=9 note=39 velocity=0 time=0
EXTRACT: note_on channel=9 note=36 velocity=0 time=0
EXTRACT: note_on channel=9 note=40 velocity=0 time=0
EXTRACT: note_on channel=5 note=59 velocity=0 time=0.0396825
EXTRACT: note_on channel=9 note=39 velocity=0 time=0.027777750000000004
EXTRACT: note_on channel=9 note=28 velocity=0 time=0.005952375000000001
EXTRACT: note_on channel=9 note=36 velocity=0 time=0
EXTRACT: note_on channel=9 note=42 velocity=0 time=0.03373012500000001
EXTRACT: note_on channel=1 note=35 velocity=0 time=0.001984125
EXTRACT: note_on channel=9 note=62 velocity=73 time=0.0079365
EXTRACT: note_on channel=9 note=62 velocity=0 time=0.001984125
EXTRACT: note_on channel=9 note=32 velocity=68 time=0.0079365
EXTRACT: note_on channel=9 note=32 velocity=0 time=0.053571375000000004
EXTRACT: note_on channel=3 note=66 velocity=0 time=0.045634875000000005
EXTRACT: note_on channel=7 note=51 velocity=0 time=0
EXTRACT: note_on channel=9 note=32 velocity=70 time=0.009920625
EXTRACT: note_on channel=9 note=44 velocity=59 time=0
EXTRACT: note_on channel=9 note=68 velocity=43 time=0
EXTRACT: note_on channel=1 note=40 velocity=120 time=0
EXTRACT: note_on channel=3 note=71 velocity=81 time=0
EXTRACT: note_on channel=5 note=59 velocity=87 time=0
EXTRACT: note_on channel=5 note=63 velocity=93 time=0
EXTRACT: note_on channel=5 note=66 velocity=86 time=0
EXTRACT: note_on channel=7 note=54 velocity=75 time=0
EXTRACT: note_on channel=7 note=59 velocity=76 time=0
EXTRACT: note_on channel=9 note=42 velocity=73 time=0
EXTRACT: note_on channel=9 note=61 velocity=66 time=0
EXTRACT: note_on channel=9 note=61 velocity=0 time=0.001984125
EXTRACT: note_on channel=9 note=42 velocity=0 time=0
EXTRACT: note_on channel=9 note=70 velocity=105 time=0.001984125
EXTRACT: note_on channel=9 note=70 velocity=0 time=0.001984125
EXTRACT: note_on channel=9 note=68 velocity=0 time=0.029761875000000004
EXTRACT: note_on channel=9 note=44 velocity=0 time=0.01984125
EXTRACT: note_on channel=9 note=32 velocity=0 time=0.0079365
EXTRACT: note_on channel=9 note=56 velocity=0 time=0.005952375000000001
EXTRACT: note_on channel=7 note=54 velocity=0 time=0
EXTRACT: note_on channel=5 note=63 velocity=0 time=0.00396825
EXTRACT: note_on channel=7 note=59 velocity=0 time=0.005952375000000001
EXTRACT: note_on channel=5 note=66 velocity=0 time=0.00396825
EXTRACT: note_on channel=10 note=63 velocity=0 time=0.025793625000000004
EXTRACT: note_on channel=5 note=59 velocity=0 time=0
EXTRACT: note_on channel=10 note=66 velocity=0 time=0.005952375000000001
EXTRACT: note_on channel=7 note=54 velocity=73 time=0.00396825
EXTRACT: note_on channel=7 note=59 velocity=51 time=0
EXTRACT: note_on channel=9 note=32 velocity=63 time=0.009920625
EXTRACT: note_on channel=9 note=44 velocity=61 time=0
EXTRACT: note_on channel=9 note=68 velocity=25 time=0
EXTRACT: note_on channel=9 note=42 velocity=66 time=0.011904750000000002
EXTRACT: note_on channel=9 note=82 velocity=48 time=0
EXTRACT: note_on channel=10 note=59 velocity=0 time=0.001984125
EXTRACT: note_on channel=9 note=82 velocity=0 time=0
EXTRACT: note_on channel=9 note=42 velocity=0 time=0
EXTRACT: note_on channel=2 note=59 velocity=0 time=0.01984125
EXTRACT: note_on channel=2 note=63 velocity=0 time=0
EXTRACT: note_on channel=2 note=66 velocity=0 time=0
EXTRACT: note_on channel=9 note=44 velocity=0 time=0.025793625000000004
EXTRACT: note_on channel=7 note=54 velocity=0 time=0
EXTRACT: note_on channel=7 note=59 velocity=0 time=0.001984125
EXTRACT: note_on channel=9 note=32 velocity=0 time=0.001984125
EXTRACT: note_on channel=2 note=68 velocity=64 time=0
EXTRACT: note_on channel=2 note=59 velocity=64 time=0
EXTRACT: note_on channel=2 note=64 velocity=64 time=0
EXTRACT: note_on channel=0 note=80 velocity=60 time=0
EXTRACT: note_on channel=9 note=68 velocity=0 time=0.021825375
EXTRACT: note_on channel=3 note=71 velocity=0 time=0.01984125
EXTRACT: note_on channel=9 note=27 velocity=87 time=0.00396825
EXTRACT: note_on channel=9 note=36 velocity=103 time=0
EXTRACT: note_on channel=9 note=42 velocity=87 time=0
EXTRACT: note_on channel=9 note=44 velocity=85 time=0
EXTRACT: note_on channel=9 note=56 velocity=71 time=0
EXTRACT: note_on channel=10 note=59 velocity=60 time=0
EXTRACT: note_on channel=10 note=64 velocity=65 time=0
EXTRACT: note_on channel=10 note=68 velocity=58 time=0
EXTRACT: note_on channel=3 note=68 velocity=88 time=0
EXTRACT: note_on channel=7 note=52 velocity=95 time=0
EXTRACT: note_on channel=9 note=36 velocity=126 time=0
EXTRACT: note_on channel=9 note=35 velocity=117 time=0
EXTRACT: note_on channel=9 note=44 velocity=81 time=0
EXTRACT: note_on channel=9 note=82 velocity=55 time=0
EXTRACT: note_on channel=9 note=56 velocity=80 time=0
EXTRACT: note_on channel=9 note=56 velocity=0 time=0.001984125
EXTRACT: note_on channel=9 note=44 velocity=0 time=0
EXTRACT: note_on channel=9 note=36 velocity=0 time=0
EXTRACT: note_on channel=9 note=35 velocity=0 time=0
EXTRACT: note_on channel=9 note=82 velocity=0 time=0
EXTRACT: note_on channel=0 note=83 velocity=0 time=0.027777750000000004
EXTRACT: note_on channel=9 note=27 velocity=0 time=0.0396825
EXTRACT: note_on channel=9 note=36 velocity=0 time=0.005952375000000001
EXTRACT: note_on channel=9 note=44 velocity=0 time=0.01984125
EXTRACT: note_on channel=9 note=32 velocity=76 time=0.03373012500000001
EXTRACT: note_on channel=5 note=59 velocity=77 time=0
EXTRACT: note_on channel=5 note=64 velocity=96 time=0
EXTRACT: note_on channel=5 note=68 velocity=84 time=0
EXTRACT: note_on channel=9 note=82 velocity=63 time=0.011904750000000002
EXTRACT: note_on channel=9 note=82 velocity=0 time=0.001984125
EXTRACT: note_on channel=9 note=32 velocity=0 time=0.049603125000000005
EXTRACT: note_on channel=5 note=64 velocity=0 time=0
EXTRACT: note_on channel=5 note=68 velocity=0 time=0.017857125
EXTRACT: note_on channel=5 note=59 velocity=0 time=0.017857125
EXTRACT: note_on channel=9 note=42 velocity=0 time=0.005952375000000001
EXTRACT: note_on channel=9 note=27 velocity=58 time=0.00396825
EXTRACT: note_on channel=9 note=44 velocity=56 time=0
EXTRACT: note_on channel=9 note=67 velocity=44 time=0
EXTRACT: note_on channel=7 note=56 velocity=70 time=0
EXTRACT: note_on channel=7 note=59 velocity=72 time=0
EXTRACT: note_on channel=9 note=42 velocity=73 time=0
EXTRACT: note_on channel=9 note=82 velocity=59 time=0
EXTRACT: note_on channel=9 note=63 velocity=60 time=0
EXTRACT: note_on channel=9 note=63 velocity=0 time=0.001984125
EXTRACT: note_on channel=9 note=82 velocity=0 time=0
EXTRACT: note_on channel=9 note=42 velocity=0 time=0
EXTRACT: note_on channel=9 note=70 velocity=105 time=0.001984125
EXTRACT: note_on channel=9 note=70 velocity=0 time=0.001984125
EXTRACT: note_on channel=1 note=52 velocity=104 time=0.027777750000000004
EXTRACT: note_on channel=7 note=52 velocity=0 time=0
EXTRACT: note_on channel=9 note=67 velocity=0 time=0.0079365
EXTRACT: note_on channel=9 note=44 velocity=0 time=0
EXTRACT: note_on channel=7 note=59 velocity=0 time=0
EXTRACT: note_on channel=9 note=27 velocity=0 time=0.00396825
EXTRACT: note_on channel=7 note=56 velocity=0 time=0.015873
EXTRACT: note_on channel=9 note=56 velocity=0 time=0.001984125
EXTRACT: note_on channel=7 note=56 velocity=74 time=0.05555550000000001
EXTRACT: note_on channel=7 note=59 velocity=73 time=0
EXTRACT: note_on channel=9 note=56 velocity=89 time=0
EXTRACT: note_on channel=9 note=56 velocity=0 time=0.001984125
EXTRACT: note_on channel=1 note=52 velocity=0 time=0.001984125
EXTRACT: note_on channel=9 note=44 velocity=51 time=0.005952375000000001
EXTRACT: note_on channel=9 note=67 velocity=35 time=0
EXTRACT: note_on channel=9 note=42 velocity=66 time=0.011904750000000002
EXTRACT: note_on channel=9 note=82 velocity=45 time=0
EXTRACT: note_on channel=9 note=82 velocity=0 time=0.001984125
EXTRACT: note_on channel=9 note=42 velocity=0 time=0
EXTRACT: note_on channel=9 note=44 velocity=0 time=0.045634875000000005
EXTRACT: note_on channel=7 note=56 velocity=0 time=0
EXTRACT: note_on channel=9 note=67 velocity=0 time=0.005952375000000001
EXTRACT: note_on channel=7 note=59 velocity=0 time=0.00396825
EXTRACT: note_on channel=3 note=68 velocity=0 time=0.03571425
EXTRACT: note_on channel=9 note=28 velocity=85 time=0.00396825
EXTRACT: note_on channel=9 note=32 velocity=88 time=0
EXTRACT: note_on channel=9 note=36 velocity=103 time=0
EXTRACT: note_on channel=9 note=39 velocity=94 time=0
EXTRACT: note_on channel=9 note=42 velocity=79 time=0
EXTRACT: note_on channel=9 note=56 velocity=70 time=0
EXTRACT: note_on channel=1 note=32 velocity=120 time=0
EXTRACT: note_on channel=3 note=66 velocity=78 time=0
EXTRACT: note_on channel=5 note=59 velocity=89 time=0
EXTRACT: note_on channel=5 note=64 velocity=97 time=0
EXTRACT: note_on channel=5 note=68 velocity=86 time=0
EXTRACT: note_on channel=7 note=52 velocity=91 time=0
EXTRACT: note_on channel=9 note=36 velocity=126 time=0
EXTRACT: note_on channel=9 note=35 velocity=117 time=0
EXTRACT: note_on channel=9 note=39 velocity=121 time=0
EXTRACT: note_on channel=9 note=40 velocity=117 time=0
EXTRACT: note_on channel=9 note=44 velocity=81 time=0
EXTRACT: note_on channel=9 note=82 velocity=60 time=0
EXTRACT: note_on channel=9 note=82 velocity=0 time=0.001984125
EXTRACT: note_on channel=9 note=35 velocity=0 time=0
EXTRACT: note_on channel=9 note=39 velocity=0 time=0
EXTRACT: note_on channel=9 note=36 velocity=0 time=0
EXTRACT: note_on channel=9 note=44 velocity=0 time=0
EXTRACT: note_on channel=9 note=40 velocity=0 time=0
EXTRACT: note_on channel=9 note=39 velocity=0 time=0.06746025000000001
EXTRACT: note_on channel=9 note=32 velocity=0 time=0.001984125
EXTRACT: note_on channel=9 note=28 velocity=0 time=0.001984125
EXTRACT: note_on channel=9 note=36 velocity=0 time=0
EXTRACT: note_on channel=1 note=40 velocity=0 time=0.045634875000000005
EXTRACT: note_on channel=9 note=42 velocity=0 time=0.025793625000000004
EXTRACT: note_on channel=7 note=52 velocity=0 time=0.049603125000000005
EXTRACT: note_on channel=1 note=32 velocity=0 time=0.017857125
EXTRACT: note_on channel=3 note=66 velocity=0 time=0.005952375000000001
EXTRACT: note_on channel=9 note=70 velocity=105 time=0.013888875000000002
EXTRACT: note_on channel=9 note=70 velocity=0 time=0.001984125
EXTRACT: note_on channel=9 note=32 velocity=71 time=0.00396825
EXTRACT: note_on channel=9 note=36 velocity=74 time=0
EXTRACT: note_on channel=9 note=44 velocity=55 time=0
EXTRACT: note_on channel=9 note=68 velocity=53 time=0
EXTRACT: note_on channel=1 note=35 velocity=120 time=0
EXTRACT: note_on channel=3 note=64 velocity=69 time=0
EXTRACT: note_on channel=7 note=56 velocity=77 time=0
EXTRACT: note_on channel=7 note=59 velocity=80 time=0
EXTRACT: note_on channel=9 note=42 velocity=75 time=0
EXTRACT: note_on channel=9 note=69 velocity=87 time=0
EXTRACT: note_on channel=9 note=56 velocity=87 time=0
EXTRACT: note_on channel=9 note=56 velocity=0 time=0.001984125
EXTRACT: note_on channel=9 note=69 velocity=0 time=0
EXTRACT: note_on channel=9 note=42 velocity=0 time=0
EXTRACT: note_on channel=9 note=44 velocity=0 time=0.041666625000000006
EXTRACT: note_on channel=5 note=59 velocity=0 time=0.009920625
EXTRACT: note_on channel=9 note=32 velocity=0 time=0.001984125
EXTRACT: note_on channel=9 note=68 velocity=0 time=0
EXTRACT: note_on channel=9 note=36 velocity=0 time=0.0079365
EXTRACT: note_on channel=10 note=64 velocity=0 time=0
EXTRACT: note_on channel=5 note=64 velocity=0 time=0
EXTRACT: note_on channel=7 note=56 velocity=0 time=0.001984125
EXTRACT: note_on channel=9 note=56 velocity=0 time=0.005952375000000001
EXTRACT: note_on channel=7 note=59 velocity=0 time=0.001984125
EXTRACT: note_on channel=10 note=68 velocity=0 time=0.029761875000000004
EXTRACT: note_on channel=5 note=68 velocity=0 time=0
EXTRACT: note_on channel=7 note=56 velocity=83 time=0.015873
EXTRACT: note_on channel=7 note=59 velocity=53 time=0
EXTRACT: note_on channel=9 note=62 velocity=64 time=0
EXTRACT: note_on channel=9 note=62 velocity=0 time=0.001984125
EXTRACT: note_on channel=9 note=32 velocity=67 time=0.0079365
EXTRACT: note_on channel=9 note=44 velocity=62 time=0
EXTRACT: note_on channel=9 note=68 velocity=35 time=0
EXTRACT: note_on channel=9 note=42 velocity=66 time=0.011904750000000002
EXTRACT: note_on channel=9 note=69 velocity=69 time=0
EXTRACT: note_on channel=9 note=69 velocity=0 time=0.001984125
EXTRACT: note_on channel=9 note=42 velocity=0 time=0
EXTRACT: note_on channel=10 note=59 velocity=0 time=0.0079365
EXTRACT: note_on channel=2 note=64 velocity=0 time=0.011904750000000002
EXTRACT: note_on channel=2 note=59 velocity=0 time=0
EXTRACT: note_on channel=2 note=68 velocity=0 time=0
EXTRACT: note_on channel=7 note=59 velocity=0 time=0.021825375
EXTRACT: note_on channel=9 note=44 velocity=0 time=0.0079365
EXTRACT: note_on channel=2 note=64 velocity=64 time=0
EXTRACT: note_on channel=2 note=68 velocity=64 time=0
EXTRACT: note_on channel=2 note=61 velocity=64 time=0
EXTRACT: note_on channel=0 note=76 velocity=60 time=0
EXTRACT: note_on channel=9 note=32 velocity=0 time=0.005952375000000001
EXTRACT: note_on channel=7 note=56 velocity=0 time=0.001984125
EXTRACT: note_on channel=9 note=68 velocity=0 time=0.001984125
EXTRACT: note_on channel=3 note=64 velocity=0 time=0.011904750000000002
EXTRACT: note_on channel=9 note=27 velocity=90 time=0.023809500000000004
EXTRACT: note_on channel=9 note=36 velocity=101 time=0
EXTRACT: note_on channel=9 note=42 velocity=93 time=0
EXTRACT: note_on channel=9 note=44 velocity=85 time=0
EXTRACT: note_on channel=9 note=56 velocity=73 time=0
EXTRACT: note_on channel=1 note=37 velocity=120 time=0
EXTRACT: note_on channel=10 note=61 velocity=57 time=0
EXTRACT: note_on channel=10 note=64 velocity=65 time=0
EXTRACT: note_on channel=10 note=68 velocity=57 time=0
EXTRACT: note_on channel=5 note=61 velocity=74 time=0
EXTRACT: note_on channel=5 note=64 velocity=91 time=0
EXTRACT: note_on channel=5 note=68 velocity=90 time=0
EXTRACT: note_on channel=7 note=49 velocity=84 time=0
EXTRACT: note_on channel=9 note=36 velocity=126 time=0
EXTRACT: note_on channel=9 note=35 velocity=117 time=0
EXTRACT: note_on channel=9 note=44 velocity=81 time=0
EXTRACT: note_on channel=9 note=60 velocity=69 time=0
EXTRACT: note_on channel=9 note=60 velocity=0 time=0.001984125
EXTRACT: note_on channel=9 note=36 velocity=0 time=0
EXTRACT: note_on channel=9 note=35 velocity=0 time=0
EXTRACT: note_on channel=9 note=44 velocity=0 time=0
EXTRACT: note_on channel=0 note=80 velocity=0 time=0.027777750000000004
EXTRACT: note_on channel=1 note=35 velocity=0 time=0.023809500000000004
EXTRACT: note_on channel=5 note=64 velocity=0 time=0.011904750000000002
EXTRACT: note_on channel=9 note=27 velocity=0 time=0.013888875000000002
EXTRACT: note_on channel=5 note=68 velocity=0 time=0.005952375000000001
EXTRACT: note_on channel=5 note=61 velocity=0 time=0.0396825
EXTRACT: note_on channel=9 note=44 velocity=0 time=0.009920625
EXTRACT: note_on channel=9 note=36 velocity=0 time=0.00396825
EXTRACT: note_on channel=9 note=69 velocity=93 time=0.001984125
EXTRACT: note_on channel=9 note=69 velocity=0 time=0.001984125
EXTRACT: note_on channel=9 note=42 velocity=0 time=0.09126975000000001
EXTRACT: note_on channel=7 note=49 velocity=0 time=0
EXTRACT: note_on channel=9 note=27 velocity=78 time=0.00396825
EXTRACT: note_on channel=9 note=44 velocity=43 time=0
EXTRACT: note_on channel=9 note=67 velocity=36 time=0
EXTRACT: note_on channel=7 note=56 velocity=80 time=0
EXTRACT: note_on channel=7 note=61 velocity=63 time=0
EXTRACT: note_on channel=9 note=42 velocity=73 time=0
EXTRACT: note_on channel=9 note=62 velocity=59 time=0
EXTRACT: note_on channel=9 note=70 velocity=105 time=0
EXTRACT: note_on channel=9 note=70 velocity=0 time=0.001984125
EXTRACT: note_on channel=9 note=62 velocity=0 time=0
EXTRACT: note_on channel=9 note=42 velocity=0 time=0
EXTRACT: note_on channel=9 note=44 velocity=0 time=0.027777750000000004
EXTRACT: note_on channel=9 note=67 velocity=0 time=0.013888875000000002
EXTRACT: note_on channel=7 note=56 velocity=0 time=0.011904750000000002
EXTRACT: note_on channel=7 note=61 velocity=0 time=0.005952375000000001
EXTRACT: note_on channel=9 note=27 velocity=0 time=0.00396825
EXTRACT: note_on channel=9 note=56 velocity=0 time=0.017857125
EXTRACT: note_on channel=1 note=49 velocity=104 time=0.029761875000000004
EXTRACT: note_on channel=7 note=56 velocity=81 time=0.005952375000000001
EXTRACT: note_on channel=7 note=61 velocity=74 time=0
EXTRACT: note_on channel=9 note=60 velocity=63 time=0
EXTRACT: note_on channel=9 note=60 velocity=0 time=0.001984125
EXTRACT: note_on channel=9 note=27 velocity=50 time=0.0079365
EXTRACT: note_on channel=9 note=44 velocity=58 time=0
EXTRACT: note_on channel=9 note=67 velocity=42 time=0
EXTRACT: note_on channel=5 note=61 velocity=81 time=0
EXTRACT: note_on channel=5 note=64 velocity=84 time=0
EXTRACT: note_on channel=5 note=68 velocity=84 time=0
EXTRACT: note_on channel=9 note=42 velocity=66 time=0.011904750000000002
EXTRACT: note_on channel=9 note=69 velocity=61 time=0
EXTRACT: note_on channel=9 note=69 velocity=0 time=0.001984125
EXTRACT: note_on channel=9 note=42 velocity=0 time=0
EXTRACT: note_on channel=7 note=56 velocity=0 time=0.041666625000000006
EXTRACT: note_on channel=1 note=49 velocity=0 time=0.00396825
EXTRACT: note_on channel=9 note=67 velocity=0 time=0.009920625
EXTRACT: note_on channel=9 note=44 velocity=0 time=0
EXTRACT: note_on channel=5 note=64 velocity=0 time=0.001984125
EXTRACT: note_on channel=7 note=61 velocity=0 time=0
EXTRACT: note_on channel=9 note=27 velocity=0 time=0.017857125
EXTRACT: note_on channel=5 note=68 velocity=0 time=0.015873
EXTRACT: note_on channel=9 note=28 velocity=74 time=0.00396825
EXTRACT: note_on channel=9 note=32 velocity=78 time=0
EXTRACT: note_on channel=9 note=36 velocity=103 time=0
EXTRACT: note_on channel=9 note=39 velocity=92 time=0
EXTRACT: note_on channel=9 note=42 velocity=79 time=0
EXTRACT: note_on channel=9 note=56 velocity=79 time=0
EXTRACT: note_on channel=3 note=64 velocity=90 time=0
EXTRACT: note_on channel=7 note=49 velocity=87 time=0
EXTRACT: note_on channel=9 note=40 velocity=117 time=0
EXTRACT: note_on channel=9 note=36 velocity=126 time=0
EXTRACT: note_on channel=9 note=35 velocity=117 time=0
EXTRACT: note_on channel=9 note=39 velocity=121 time=0
EXTRACT: note_on channel=9 note=44 velocity=81 time=0
EXTRACT: note_on channel=9 note=69 velocity=78 time=0
EXTRACT: note_on channel=9 note=69 velocity=0 time=0.001984125
EXTRACT: note_on channel=9 note=36 velocity=0 time=0
EXTRACT: note_on channel=9 note=35 velocity=0 time=0
EXTRACT: note_on channel=9 note=40 velocity=0 time=0
EXTRACT: note_on channel=9 note=44 velocity=0 time=0
EXTRACT: note_on channel=9 note=39 velocity=0 time=0
EXTRACT: note_on channel=5 note=61 velocity=0 time=0.029761875000000004
EXTRACT: note_on channel=9 note=32 velocity=0 time=0.0396825
EXTRACT: note_on channel=9 note=39 velocity=0 time=0.00396825
EXTRACT: note_on channel=9 note=28 velocity=0 time=0.015873
EXTRACT: note_on channel=1 note=37 velocity=0 time=0.017857125
EXTRACT: note_on channel=9 note=61 velocity=73 time=0.009920625
EXTRACT: note_on channel=9 note=61 velocity=0 time=0.001984125
EXTRACT: note_on channel=9 note=36 velocity=0 time=0.031746
EXTRACT: note_on channel=9 note=42 velocity=0 time=0.06547612500000001
EXTRACT: note_on channel=7 note=49 velocity=0 time=0.009920625
EXTRACT: note_on channel=3 note=64 velocity=0 time=0.00396825
EXTRACT: note_on channel=9 note=32 velocity=69 time=0.005952375000000001
EXTRACT: note_on channel=9 note=44 velocity=55 time=0
EXTRACT: note_on channel=9 note=68 velocity=34 time=0
EXTRACT: note_on channel=1 note=42 velocity=120 time=0
EXTRACT: note_on channel=3 note=61 velocity=59 time=0
EXTRACT: note_on channel=5 note=61 velocity=84 time=0
EXTRACT: note_on channel=5 note=64 velocity=87 time=0
EXTRACT: note_on channel=5 note=68 velocity=89 time=0
EXTRACT: note_on channel=7 note=56 velocity=80 time=0
EXTRACT: note_on channel=7 note=61 velocity=59 time=0
EXTRACT: note_on channel=9 note=42 velocity=73 time=0
EXTRACT: note_on channel=9 note=60 velocity=66 time=0
EXTRACT: note_on channel=9 note=60 velocity=0 time=0.001984125
EXTRACT: note_on channel=9 note=42 velocity=0 time=0
EXTRACT: note_on channel=9 note=70 velocity=105 time=0
EXTRACT: note_on channel=9 note=70 velocity=0 time=0.001984125
EXTRACT: note_on channel=9 note=68 velocity=0 time=0.037698375000000006
EXTRACT: note_on channel=9 note=44 velocity=0 time=0.001984125
EXTRACT: note_on channel=9 note=32 velocity=0 time=0.015873
EXTRACT: note_on channel=7 note=56 velocity=0 time=0.001984125
EXTRACT: note_on channel=7 note=61 velocity=0 time=0.00396825
EXTRACT: note_on channel=5 note=64 velocity=0 time=0.00396825
EXTRACT: note_on channel=10 note=64 velocity=0 time=0.00396825
EXTRACT: note_on channel=9 note=56 velocity=0 time=0.009920625
EXTRACT: note_on channel=5 note=68 velocity=0 time=0.015873
EXTRACT: note_on channel=10 note=68 velocity=0 time=0.013888875000000002
EXTRACT: note_on channel=10 note=61 velocity=0 time=0.001984125
EXTRACT: note_on channel=7 note=56 velocity=81 time=0.00396825
EXTRACT: note_on channel=7 note=61 velocity=71 time=0
EXTRACT: note_on channel=9 note=62 velocity=69 time=0
EXTRACT: note_on channel=9 note=62 velocity=0 time=0.001984125
EXTRACT: note_on channel=5 note=61 velocity=0 time=0.001984125
EXTRACT: note_on channel=9 note=32 velocity=69 time=0.005952375000000001
EXTRACT: note_on channel=9 note=44 velocity=62 time=0
EXTRACT: note_on channel=9 note=68 velocity=36 time=0
EXTRACT: note_on channel=9 note=42 velocity=66 time=0.011904750000000002
EXTRACT: note_on channel=9 note=42 velocity=0 time=0.001984125
EXTRACT: note_on channel=2 note=61 velocity=0 time=0.01984125
EXTRACT: note_on channel=2 note=68 velocity=0 time=0
EXTRACT: note_on channel=2 note=64 velocity=0 time=0
EXTRACT: note_on channel=0 note=81 velocity=60 time=0.025793625000000004
EXTRACT: note_on channel=9 note=44 velocity=0 time=0.001984125
EXTRACT: note_on channel=7 note=56 velocity=0 time=0.001984125
EXTRACT: note_on channel=2 note=66 velocity=64 time=0
EXTRACT: note_on channel=2 note=61 velocity=64 time=0
EXTRACT: note_on channel=2 note=69 velocity=64 time=0
EXTRACT: note_on channel=9 note=68 velocity=0 time=0.009920625
EXTRACT: note_on channel=9 note=32 velocity=0 time=0
EXTRACT: note_on channel=7 note=61 velocity=0 time=0.001984125
EXTRACT: note_on channel=3 note=61 velocity=0 time=0.029761875000000004
EXTRACT: note_on channel=9 note=27 velocity=88 time=0.00396825
EXTRACT: note_on channel=9 note=36 velocity=103 time=0
EXTRACT: note_on channel=9 note=42 velocity=93 time=0
EXTRACT: note_on channel=9 note=44 velocity=89 time=0
EXTRACT: note_on channel=9 note=56 velocity=73 time=0
EXTRACT: note_on channel=10 note=61 velocity=60 time=0
EXTRACT: note_on channel=10 note=66 velocity=53 time=0
EXTRACT: note_on channel=10 note=69 velocity=69 time=0
EXTRACT: note_on channel=3 note=66 velocity=87 time=0
EXTRACT: note_on channel=7 note=54 velocity=83 time=0
EXTRACT: note_on channel=9 note=36 velocity=126 time=0
EXTRACT: note_on channel=9 note=35 velocity=117 time=0
EXTRACT: note_on channel=9 note=44 velocity=81 time=0
EXTRACT: note_on channel=9 note=82 velocity=69 time=0
EXTRACT: note_on channel=9 note=56 velocity=87 time=0
EXTRACT: note_on channel=9 note=60 velocity=63 time=0
EXTRACT: note_on channel=9 note=60 velocity=0 time=0.001984125
EXTRACT: note_on channel=9 note=35 velocity=0 time=0
EXTRACT: note_on channel=9 note=44 velocity=0 time=0
EXTRACT: note_on channel=9 note=36 velocity=0 time=0
EXTRACT: note_on channel=9 note=56 velocity=0 time=0
EXTRACT: note_on channel=9 note=82 velocity=0 time=0
EXTRACT: note_on channel=0 note=76 velocity=0 time=0.021825375
EXTRACT: note_on channel=9 note=27 velocity=0 time=0.04761900000000001
EXTRACT: note_on channel=9 note=32 velocity=77 time=0.057539625000000004
EXTRACT: note_on channel=5 note=61 velocity=84 time=0
EXTRACT: note_on channel=5 note=66 velocity=86 time=0
EXTRACT: note_on channel=5 note=69 velocity=96 time=0
EXTRACT: note_on channel=9 note=82 velocity=43 time=0.011904750000000002
EXTRACT: note_on channel=9 note=82 velocity=0 time=0.001984125
EXTRACT: note_on channel=9 note=44 velocity=0 time=0.005952375000000001
EXTRACT: note_on channel=9 note=36 velocity=0 time=0
EXTRACT: note_on channel=9 note=32 velocity=0 time=0.03571425
EXTRACT: note_on channel=5 note=69 velocity=0 time=0.0079365
EXTRACT: note_on channel=5 note=66 velocity=0 time=0.0079365
EXTRACT: note_on channel=5 note=61 velocity=0 time=0.013888875000000002
EXTRACT: note_on channel=9 note=70 velocity=105 time=0.015873
EXTRACT: note_on channel=9 note=70 velocity=0 time=0.001984125
EXTRACT: note_on channel=9 note=42 velocity=0 time=0.001984125
EXTRACT: note_on channel=9 note=27 velocity=77 time=0.00396825
EXTRACT: note_on channel=9 note=44 velocity=59 time=0
EXTRACT: note_on channel=9 note=67 velocity=24 time=0
EXTRACT: note_on channel=7 note=57 velocity=74 time=0
EXTRACT: note_on channel=7 note=61 velocity=67 time=0
EXTRACT: note_on channel=9 note=42 velocity=73 time=0
EXTRACT: note_on channel=9 note=82 velocity=48 time=0
EXTRACT: note_on channel=9 note=82 velocity=0 time=0.001984125
EXTRACT: note_on channel=9 note=42 velocity=0 time=0
EXTRACT: note_on channel=1 note=54 velocity=104 time=0.021825375
EXTRACT: note_on channel=7 note=54 velocity=0 time=0.005952375000000001
EXTRACT: note_on channel=7 note=57 velocity=0 time=0.009920625
EXTRACT: note_on channel=9 note=67 velocity=0 time=0.005952375000000001
EXTRACT: note_on channel=9 note=44 velocity=0 time=0.00396825
EXTRACT: note_on channel=9 note=27 velocity=0 time=0.013888875000000002
EXTRACT: note_on channel=7 note=61 velocity=0 time=0
EXTRACT: note_on channel=9 note=56 velocity=0 time=0.015873
EXTRACT: note_on channel=1 note=54 velocity=0 time=0.025793625000000004
EXTRACT: note_on channel=7 note=57 velocity=79 time=0.013888875000000002
EXTRACT: note_on channel=7 note=61 velocity=69 time=0
EXTRACT: note_on channel=9 note=56 velocity=87 time=0
EXTRACT: note_on channel=9 note=56 velocity=0 time=0.001984125
EXTRACT: note_on channel=9 note=44 velocity=48 time=0.0079365
EXTRACT: note_on channel=9 note=67 velocity=43 time=0
EXTRACT: note_on channel=9 note=42 velocity=66 time=0.011904750000000002
EXTRACT: note_on channel=9 note=82 velocity=40 time=0
EXTRACT: note_on channel=9 note=82 velocity=0 time=0.001984125
EXTRACT: note_on channel=9 note=42 velocity=0 time=0
EXTRACT: note_on channel=7 note=57 velocity=0 time=0.031746
EXTRACT: note_on channel=9 note=44 velocity=0 time=0.00396825
EXTRACT: note_on channel=9 note=67 velocity=0 time=0.001984125
EXTRACT: note_on channel=7 note=61 velocity=0 time=0.03373012500000001
EXTRACT: note_on channel=3 note=66 velocity=0 time=0.01984125
EXTRACT: note_on channel=9 note=28 velocity=79 time=0.00396825
EXTRACT: note_on channel=9 note=32 velocity=83 time=0
EXTRACT: note_on channel=9 note=36 velocity=103 time=0
EXTRACT: note_on channel=9 note=39 velocity=96 time=0
EXTRACT: note_on channel=9 note=42 velocity=75 time=0
EXTRACT: note_on channel=9 note=56 velocity=73 time=0
EXTRACT: note_on channel=3 note=61 velocity=69 time=0
EXTRACT: note_on channel=5 note=61 velocity=82 time=0
EXTRACT: note_on channel=5 note=66 velocity=82 time=0
EXTRACT: note_on channel=5 note=69 velocity=99 time=0
EXTRACT: note_on channel=7 note=54 velocity=87 time=0
EXTRACT: note_on channel=9 note=39 velocity=121 time=0
EXTRACT: note_on channel=9 note=40 velocity=117 time=0
EXTRACT: note_on channel=9 note=36 velocity=126 time=0
EXTRACT: note_on channel=9 note=35 velocity=117 time=0
EXTRACT: note_on channel=9 note=44 velocity=81 time=0
EXTRACT: note_on channel=9 note=82 velocity=69 time=0
EXTRACT: note_on channel=9 note=82 velocity=0 time=0.001984125
EXTRACT: note_on channel=9 note=40 velocity=0 time=0
EXTRACT: note_on channel=9 note=36 velocity=0 time=0
EXTRACT: note_on channel=9 note=39 velocity=0 time=0
EXTRACT: note_on channel=9 note=44 velocity=0 time=0
EXTRACT: note_on channel=9 note=35 velocity=0 time=0
EXTRACT: note_on channel=9 note=32 velocity=0 time=0.061507875000000004
EXTRACT: note_on channel=9 note=28 velocity=0 time=0.005952375000000001
EXTRACT: note_on channel=9 note=39 velocity=0 time=0.00396825
EXTRACT: note_on channel=9 note=36 velocity=0 time=0.011904750000000002
EXTRACT: note_on channel=1 note=42 velocity=0 time=0.03373012500000001
EXTRACT: note_on channel=7 note=54 velocity=0 time=0.08531737500000001
EXTRACT: note_on channel=9 note=70 velocity=105 time=0.027777750000000004
EXTRACT: note_on channel=9 note=42 velocity=0 time=0.001984125
EXTRACT: note_on channel=9 note=70 velocity=0 time=0
EXTRACT: note_on channel=9 note=32 velocity=79 time=0.00396825
EXTRACT: note_on channel=9 note=44 velocity=62 time=0
EXTRACT: note_on channel=9 note=68 velocity=41 time=0
EXTRACT: note_on channel=1 note=30 velocity=120 time=0
EXTRACT: note_on channel=7 note=57 velocity=80 time=0
EXTRACT: note_on channel=7 note=61 velocity=72 time=0
EXTRACT: note_on channel=9 note=42 velocity=73 time=0
EXTRACT: note_on channel=9 note=69 velocity=78 time=0
EXTRACT: note_on channel=9 note=56 velocity=87 time=0
EXTRACT: note_on channel=9 note=56 velocity=0 time=0.001984125
EXTRACT: note_on channel=9 note=69 velocity=0 time=0
EXTRACT: note_on channel=9 note=42 velocity=0 time=0
EXTRACT: note_on channel=7 note=57 velocity=0 time=0.049603125000000005
EXTRACT: note_on channel=9 note=44 velocity=0 time=0.001984125
EXTRACT: note_on channel=9 note=68 velocity=0 time=0.005952375000000001
EXTRACT: note_on channel=9 note=32 velocity=0 time=0
EXTRACT: note_on channel=9 note=56 velocity=0 time=0.00396825
EXTRACT: note_on channel=7 note=61 velocity=0 time=0.011904750000000002
EXTRACT: note_on channel=5 note=66 velocity=0 time=0.009920625
EXTRACT: note_on channel=5 note=69 velocity=0 time=0.0079365
EXTRACT: note_on channel=10 note=66 velocity=0 time=0.009920625
EXTRACT: note_on channel=10 note=69 velocity=0 time=0.0079365
EXTRACT: note_on channel=5 note=61 velocity=0 time=0
EXTRACT: note_on channel=7 note=57 velocity=78 time=0.0079365
EXTRACT: note_on channel=7 note=61 velocity=68 time=0
EXTRACT: note_on channel=3 note=61 velocity=0 time=0.00396825
EXTRACT: note_on channel=9 note=32 velocity=71 time=0.005952375000000001
EXTRACT: note_on channel=9 note=44 velocity=51 time=0
EXTRACT: note_on channel=9 note=68 velocity=25 time=0
EXTRACT: note_on channel=10 note=61 velocity=0 time=0.009920625
EXTRACT: note_on channel=9 note=42 velocity=66 time=0.001984125
EXTRACT: note_on channel=9 note=69 velocity=73 time=0
EXTRACT: note_on channel=9 note=69 velocity=0 time=0.001984125
EXTRACT: note_on channel=9 note=42 velocity=0 time=0
EXTRACT: note_on channel=2 note=69 velocity=0 time=0.01984125
EXTRACT: note_on channel=2 note=61 velocity=0 time=0
EXTRACT: note_on channel=2 note=66 velocity=0 time=0
EXTRACT: note_on channel=7 note=57 velocity=0 time=0.011904750000000002
EXTRACT: note_on channel=9 note=44 velocity=0 time=0.0079365
EXTRACT: note_on channel=9 note=32 velocity=0 time=0.009920625
EXTRACT: note_on channel=2 note=66 velocity=64 time=0
EXTRACT: note_on channel=2 note=64 velocity=64 time=0
EXTRACT: note_on channel=2 note=71 velocity=64 time=0
EXTRACT: note_on channel=0 note=78 velocity=60 time=0
EXTRACT: note_on channel=9 note=68 velocity=0 time=0.0079365
EXTRACT: note_on channel=7 note=61 velocity=0 time=0.00396825
EXTRACT: note_on channel=9 note=27 velocity=86 time=0.03373012500000001
EXTRACT: note_on channel=9 note=36 velocity=105 time=0
EXTRACT: note_on channel=9 note=42 velocity=85 time=0
EXTRACT: note_on channel=9 note=44 velocity=82 time=0
EXTRACT: note_on channel=9 note=56 velocity=75 time=0
EXTRACT: note_on channel=1 note=35 velocity=120 time=0
EXTRACT: note_on channel=10 note=59 velocity=68 time=0
EXTRACT: note_on channel=10 note=64 velocity=62 time=0
EXTRACT: note_on channel=10 note=66 velocity=62 time=0
EXTRACT: note_on channel=5 note=59 velocity=88 time=0
EXTRACT: note_on channel=5 note=64 velocity=85 time=0
EXTRACT: note_on channel=5 note=66 velocity=81 time=0
EXTRACT: note_on channel=7 note=47 velocity=83 time=0
EXTRACT: note_on channel=9 note=36 velocity=126 time=0
EXTRACT: note_on channel=9 note=35 velocity=117 time=0
EXTRACT: note_on channel=9 note=35 velocity=0 time=0.001984125
EXTRACT: note_on channel=9 note=36 velocity=0 time=0
EXTRACT: note_on channel=1 note=30 velocity=0 time=0.001984125
EXTRACT: note_on channel=0 note=81 velocity=0 time=0.03571425
EXTRACT: note_on channel=5 note=64 velocity=0 time=0.031746
EXTRACT: note_on channel=9 note=27 velocity=0 time=0.0079365
EXTRACT: note_on channel=9 note=36 velocity=0 time=0.009920625
EXTRACT: note_on channel=5 note=66 velocity=0 time=0.001984125
EXTRACT: note_on channel=5 note=59 velocity=0 time=0.021825375
EXTRACT: note_on channel=9 note=69 velocity=85 time=0.027777750000000004
EXTRACT: note_on channel=9 note=69 velocity=0 time=0.001984125
EXTRACT: note_on channel=9 note=44 velocity=0 time=0.06547612500000001
EXTRACT: note_on channel=9 note=42 velocity=0 time=0.025793625000000004
EXTRACT: note_on channel=9 note=70 velocity=105 time=0
EXTRACT: note_on channel=9 note=27 velocity=85 time=0.00396825
EXTRACT: note_on channel=9 note=44 velocity=48 time=0
EXTRACT: note_on channel=9 note=67 velocity=33 time=0
EXTRACT: note_on channel=7 note=52 velocity=92 time=0
EXTRACT: note_on channel=7 note=59 velocity=71 time=0
EXTRACT: note_on channel=9 note=70 velocity=0 time=0
EXTRACT: note_on channel=9 note=42 velocity=73 time=0
EXTRACT: note_on channel=9 note=62 velocity=62 time=0
EXTRACT: note_on channel=9 note=62 velocity=0 time=0.001984125
EXTRACT: note_on channel=9 note=42 velocity=0 time=0
EXTRACT: note_on channel=7 note=59 velocity=0 time=0.023809500000000004
EXTRACT: note_on channel=9 note=44 velocity=0 time=0.00396825
EXTRACT: note_on channel=9 note=67 velocity=0 time=0.011904750000000002
EXTRACT: note_on channel=7 note=52 velocity=0 time=0.00396825
EXTRACT: note_on channel=7 note=47 velocity=0 time=0.023809500000000004
EXTRACT: note_on channel=9 note=27 velocity=0 time=0.005952375000000001
EXTRACT: note_on channel=9 note=56 velocity=0 time=0.009920625
EXTRACT: note_on channel=7 note=52 velocity=96 time=0.03373012500000001
EXTRACT: note_on channel=7 note=59 velocity=75 time=0
EXTRACT: note_on channel=9 note=60 velocity=58 time=0
EXTRACT: note_on channel=9 note=60 velocity=0 time=0.001984125
EXTRACT: note_on channel=9 note=44 velocity=63 time=0.0079365
EXTRACT: note_on channel=9 note=67 velocity=43 time=0
EXTRACT: note_on channel=5 note=59 velocity=81 time=0
EXTRACT: note_on channel=5 note=64 velocity=81 time=0
EXTRACT: note_on channel=5 note=66 velocity=80 time=0
EXTRACT: note_on channel=9 note=42 velocity=66 time=0.011904750000000002
EXTRACT: note_on channel=9 note=69 velocity=71 time=0
EXTRACT: note_on channel=9 note=69 velocity=0 time=0.001984125
EXTRACT: note_on channel=9 note=42 velocity=0 time=0
EXTRACT: note_on channel=1 note=47 velocity=104 time=0.009920625
EXTRACT: note_on channel=7 note=52 velocity=0 time=0.015873
EXTRACT: note_on channel=9 note=44 velocity=0 time=0.013888875000000002
EXTRACT: note_on channel=9 note=67 velocity=0 time=0.0079365
EXTRACT: note_on channel=7 note=59 velocity=0 time=0.00396825
EXTRACT: note_on channel=5 note=64 velocity=0 time=0.00396825
EXTRACT: note_on channel=9 note=28 velocity=82 time=0.0396825
EXTRACT: note_on channel=9 note=32 velocity=83 time=0
EXTRACT: note_on channel=9 note=36 velocity=105 time=0
EXTRACT: note_on channel=9 note=39 velocity=96 time=0
EXTRACT: note_on channel=9 note=42 velocity=82 time=0
EXTRACT: note_on channel=9 note=56 velocity=78 time=0
EXTRACT: note_on channel=3 note=66 velocity=82 time=0
EXTRACT: note_on channel=7 note=47 velocity=82 time=0
EXTRACT: note_on channel=9 note=39 velocity=121 time=0
EXTRACT: note_on channel=9 note=36 velocity=126 time=0
EXTRACT: note_on channel=9 note=35 velocity=117 time=0
EXTRACT: note_on channel=9 note=40 velocity=117 time=0
EXTRACT: note_on channel=9 note=44 velocity=81 time=0
EXTRACT: note_on channel=9 note=62 velocity=70 time=0
EXTRACT: note_on channel=9 note=62 velocity=0 time=0.001984125
EXTRACT: note_on channel=9 note=36 velocity=0 time=0
EXTRACT: note_on channel=9 note=35 velocity=0 time=0
EXTRACT: note_on channel=9 note=39 velocity=0 time=0
EXTRACT: note_on channel=9 note=44 velocity=0 time=0
EXTRACT: note_on channel=9 note=40 velocity=0 time=0
EXTRACT: note_on channel=5 note=66 velocity=0 time=0.001984125
EXTRACT: note_on channel=1 note=47 velocity=0 time=0.0079365
EXTRACT: note_on channel=5 note=59 velocity=0 time=0.04365075
EXTRACT: note_on channel=9 note=39 velocity=0 time=0.013888875000000002
EXTRACT: note_on channel=9 note=32 velocity=0 time=0.001984125
EXTRACT: note_on channel=9 note=28 velocity=0 time=0.00396825
EXTRACT: note_on channel=9 note=36 velocity=0 time=0.00396825
EXTRACT: note_on channel=1 note=35 velocity=0 time=0.00396825
EXTRACT: note_on channel=9 note=60 velocity=65 time=0.03571425
EXTRACT: note_on channel=9 note=60 velocity=0 time=0.001984125
EXTRACT: note_on channel=9 note=42 velocity=0 time=0.11309512500000002
EXTRACT: note_on channel=3 note=66 velocity=0 time=0
EXTRACT: note_on channel=9 note=32 velocity=78 time=0.00396825
EXTRACT: note_on channel=9 note=44 velocity=55 time=0
EXTRACT: note_on channel=9 note=68 velocity=37 time=0
EXTRACT: note_on channel=1 note=35 velocity=120 time=0
EXTRACT: note_on channel=3 note=64 velocity=73 time=0
EXTRACT: note_on channel=5 note=59 velocity=90 time=0
EXTRACT: note_on channel=5 note=64 velocity=97 time=0
EXTRACT: note_on channel=5 note=66 velocity=88 time=0
EXTRACT: note_on channel=7 note=52 velocity=82 time=0
EXTRACT: note_on channel=7 note=59 velocity=70 time=0
EXTRACT: note_on channel=9 note=42 velocity=73 time=0
EXTRACT: note_on channel=9 note=61 velocity=80 time=0
EXTRACT: note_on channel=9 note=61 velocity=0 time=0.001984125
EXTRACT: note_on channel=9 note=42 velocity=0 time=0
EXTRACT: note_on channel=9 note=70 velocity=105 time=0.001984125
EXTRACT: note_on channel=9 note=70 velocity=0 time=0.001984125
EXTRACT: note_on channel=7 note=52 velocity=0 time=0.029761875000000004
EXTRACT: note_on channel=9 note=44 velocity=0 time=0.00396825
EXTRACT: note_on channel=9 note=68 velocity=0 time=0.00396825
EXTRACT: note_on channel=10 note=64 velocity=0 time=0.0079365
EXTRACT: note_on channel=5 note=64 velocity=0 time=0.009920625
EXTRACT: note_on channel=9 note=32 velocity=0 time=0.00396825
EXTRACT: note_on channel=7 note=59 velocity=0 time=0.009920625
EXTRACT: note_on channel=10 note=66 velocity=0 time=0.00396825
EXTRACT: note_on channel=5 note=66 velocity=0 time=0
EXTRACT: note_on channel=9 note=56 velocity=0 time=0.013888875000000002
EXTRACT: note_on channel=5 note=59 velocity=0 time=0.011904750000000002
EXTRACT: note_on channel=7 note=47 velocity=0 time=0
EXTRACT: note_on channel=10 note=59 velocity=0 time=0.00396825
EXTRACT: note_on channel=7 note=52 velocity=89 time=0.009920625
EXTRACT: note_on channel=7 note=59 velocity=62 time=0
EXTRACT: note_on channel=9 note=60 velocity=70 time=0
EXTRACT: note_on channel=9 note=60 velocity=0 time=0.001984125
EXTRACT: note_on channel=9 note=32 velocity=55 time=0.0079365
EXTRACT: note_on channel=9 note=44 velocity=55 time=0
EXTRACT: note_on channel=9 note=68 velocity=38 time=0
EXTRACT: note_on channel=9 note=42 velocity=66 time=0.011904750000000002
EXTRACT: note_on channel=9 note=82 velocity=50 time=0
EXTRACT: note_on channel=9 note=82 velocity=0 time=0.001984125
EXTRACT: note_on channel=9 note=42 velocity=0 time=0
EXTRACT: note_on channel=2 note=64 velocity=0 time=0.01984125
EXTRACT: note_on channel=2 note=66 velocity=0 time=0
EXTRACT: note_on channel=7 note=52 velocity=0 time=0.005952375000000001
EXTRACT: note_on channel=7 note=59 velocity=0 time=0.005952375000000001
EXTRACT: note_on channel=9 note=32 velocity=0 time=0.0079365
EXTRACT: note_on channel=9 note=44 velocity=0 time=0.005952375000000001
EXTRACT: note_on channel=2 note=63 velocity=64 time=0.00396825
EXTRACT: note_on channel=2 note=66 velocity=64 time=0
EXTRACT: note_on channel=9 note=68 velocity=0 time=0.0079365
EXTRACT: note_on channel=3 note=64 velocity=0 time=0
EXTRACT: note_on channel=9 note=27 velocity=87 time=0.037698375000000006
EXTRACT: note_on channel=9 note=36 velocity=103 time=0
EXTRACT: note_on channel=9 note=42 velocity=90 time=0
EXTRACT: note_on channel=9 note=44 velocity=89 time=0
EXTRACT: note_on channel=9 note=56 velocity=78 time=0
EXTRACT: note_on channel=10 note=59 velocity=68 time=0
EXTRACT: note_on channel=10 note=63 velocity=56 time=0
EXTRACT: note_on channel=10 note=66 velocity=56 time=0
EXTRACT: note_on channel=3 note=68 velocity=85 time=0
EXTRACT: note_on channel=7 note=47 velocity=83 time=0
EXTRACT: note_on channel=9 note=36 velocity=126 time=0
EXTRACT: note_on channel=9 note=35 velocity=117 time=0
EXTRACT: note_on channel=9 note=44 velocity=81 time=0
EXTRACT: note_on channel=9 note=82 velocity=57 time=0
EXTRACT: note_on channel=9 note=56 velocity=83 time=0
EXTRACT: note_on channel=9 note=56 velocity=0 time=0.001984125
EXTRACT: note_on channel=9 note=44 velocity=0 time=0
EXTRACT: note_on channel=9 note=36 velocity=0 time=0
EXTRACT: note_on channel=9 note=35 velocity=0 time=0
EXTRACT: note_on channel=9 note=82 velocity=0 time=0
EXTRACT: note_on channel=9 note=36 velocity=0 time=0.077380875
EXTRACT: note_on channel=9 note=27 velocity=0 time=0.005952375000000001
EXTRACT: note_on channel=9 note=63 velocity=60 time=0.03373012500000001
EXTRACT: note_on channel=9 note=63 velocity=0 time=0.001984125
EXTRACT: note_on channel=5 note=59 velocity=87 time=0.0079365
EXTRACT: note_on channel=5 note=63 velocity=89 time=0
EXTRACT: note_on channel=5 note=66 velocity=87 time=0
EXTRACT: note_on channel=9 note=82 velocity=38 time=0.011904750000000002
EXTRACT: note_on channel=9 note=82 velocity=0 time=0.001984125
EXTRACT: note_on channel=9 note=44 velocity=0 time=0.027777750000000004
EXTRACT: note_on channel=5 note=63 velocity=0 time=0.021825375
EXTRACT: note_on channel=5 note=66 velocity=0 time=0.0079365
EXTRACT: note_on channel=5 note=59 velocity=0 time=0.027777750000000004
EXTRACT: note_on channel=9 note=42 velocity=0 time=0.005952375000000001
EXTRACT: note_on channel=9 note=65 velocity=87 time=0
EXTRACT: note_on channel=9 note=27 velocity=86 time=0.00396825
EXTRACT: note_on channel=9 note=44 velocity=60 time=0
EXTRACT: note_on channel=9 note=65 velocity=88 time=0
EXTRACT: note_on channel=9 note=67 velocity=51 time=0
EXTRACT: note_on channel=7 note=54 velocity=74 time=0
EXTRACT: note_on channel=7 note=59 velocity=71 time=0
EXTRACT: note_on channel=9 note=65 velocity=0 time=0
EXTRACT: note_on channel=9 note=42 velocity=73 time=0
EXTRACT: note_on channel=9 note=82 velocity=60 time=0
EXTRACT: note_on channel=9 note=82 velocity=0 time=0.001984125
EXTRACT: note_on channel=9 note=42 velocity=0 time=0
EXTRACT: note_on channel=9 note=70 velocity=105 time=0.001984125
EXTRACT: note_on channel=9 note=70 velocity=0 time=0.001984125
EXTRACT: note_on channel=9 note=66 velocity=79 time=0.00396825
EXTRACT: note_on channel=9 note=66 velocity=0 time=0.001984125
EXTRACT: note_on channel=1 note=47 velocity=104 time=0.017857125
EXTRACT: note_on channel=9 note=44 velocity=0 time=0.00396825
EXTRACT: note_on channel=7 note=59 velocity=0 time=0.001984125
EXTRACT: note_on channel=9 note=67 velocity=0 time=0.00396825
EXTRACT: note_on channel=7 note=54 velocity=0 time=0.015873
EXTRACT: note_on channel=9 note=65 velocity=0 time=0.009920625
EXTRACT: note_on channel=9 note=56 velocity=0 time=0.005952375000000001
EXTRACT: note_on channel=9 note=27 velocity=0 time=0.011904750000000002
EXTRACT: note_on channel=7 note=47 velocity=0 time=0.009920625
EXTRACT: note_on channel=7 note=54 velocity=79 time=0.025793625000000004
EXTRACT: note_on channel=7 note=59 velocity=60 time=0
EXTRACT: note_on channel=9 note=56 velocity=80 time=0
EXTRACT: note_on channel=9 note=56 velocity=0 time=0.001984125
EXTRACT: note_on channel=1 note=47 velocity=0 time=0.00396825
EXTRACT: note_on channel=9 note=66 velocity=88 time=0
EXTRACT: note_on channel=9 note=44 velocity=63 time=0.00396825
EXTRACT: note_on channel=9 note=65 velocity=80 time=0
EXTRACT: note_on channel=9 note=67 velocity=36 time=0
EXTRACT: note_on channel=9 note=66 velocity=0 time=0
EXTRACT: note_on channel=9 note=42 velocity=66 time=0.011904750000000002
EXTRACT: note_on channel=9 note=82 velocity=48 time=0
EXTRACT: note_on channel=9 note=82 velocity=0 time=0.001984125
EXTRACT: note_on channel=9 note=42 velocity=0 time=0
EXTRACT: note_on channel=1 note=35 velocity=0 time=0.015873
EXTRACT: note_on channel=9 note=67 velocity=0 time=0.013888875000000002
EXTRACT: note_on channel=9 note=65 velocity=0 time=0.011904750000000002
EXTRACT: note_on channel=9 note=44 velocity=0 time=0.00396825
EXTRACT: note_on channel=7 note=54 velocity=0 time=0.01984125
EXTRACT: note_on channel=7 note=59 velocity=0 time=0.00396825
EXTRACT: note_on channel=3 note=68 velocity=0 time=0.021825375
EXTRACT: note_on channel=9 note=28 velocity=85 time=0.00396825
EXTRACT: note_on channel=9 note=32 velocity=87 time=0
EXTRACT: note_on channel=9 note=36 velocity=103 time=0
EXTRACT: note_on channel=9 note=39 velocity=99 time=0
EXTRACT: note_on channel=9 note=42 velocity=84 time=0
EXTRACT: note_on channel=9 note=56 velocity=78 time=0
EXTRACT: note_on channel=9 note=66 velocity=83 time=0
EXTRACT: note_on channel=1 note=32 velocity=120 time=0
EXTRACT: note_on channel=3 note=66 velocity=83 time=0
EXTRACT: note_on channel=5 note=59 velocity=90 time=0
EXTRACT: note_on channel=5 note=63 velocity=90 time=0
EXTRACT: note_on channel=5 note=66 velocity=87 time=0
EXTRACT: note_on channel=7 note=47 velocity=88 time=0
EXTRACT: note_on channel=9 note=36 velocity=126 time=0
EXTRACT: note_on channel=9 note=35 velocity=117 time=0
EXTRACT: note_on channel=9 note=39 velocity=121 time=0
EXTRACT: note_on channel=9 note=40 velocity=117 time=0
EXTRACT: note_on channel=9 note=44 velocity=81 time=0
EXTRACT: note_on channel=9 note=82 velocity=61 time=0
EXTRACT: note_on channel=9 note=82 velocity=0 time=0.001984125
EXTRACT: note_on channel=9 note=35 velocity=0 time=0
EXTRACT: note_on channel=9 note=39 velocity=0 time=0
EXTRACT: note_on channel=9 note=36 velocity=0 time=0
EXTRACT: note_on channel=9 note=44 velocity=0 time=0
EXTRACT: note_on channel=9 note=40 velocity=0 time=0
EXTRACT: note_on channel=9 note=32 velocity=0 time=0.063492
EXTRACT: note_on channel=9 note=39 velocity=0 time=0.005952375000000001
EXTRACT: note_on channel=9 note=28 velocity=0 time=0.001984125
EXTRACT: note_on channel=9 note=36 velocity=0 time=0.005952375000000001
EXTRACT: note_on channel=9 note=66 velocity=0 time=0.00396825
EXTRACT: note_on channel=9 note=65 velocity=95 time=0.05158725000000001
EXTRACT: note_on channel=9 note=65 velocity=0 time=0.00396825
EXTRACT: note_on channel=9 note=66 velocity=85 time=0.009920625
EXTRACT: note_on channel=9 note=66 velocity=0 time=0.001984125
EXTRACT: note_on channel=9 note=42 velocity=0 time=0.057539625000000004
EXTRACT: note_on channel=1 note=32 velocity=0 time=0.00396825
EXTRACT: note_on channel=9 note=70 velocity=105 time=0.01984125
EXTRACT: note_on channel=9 note=70 velocity=0 time=0.001984125
EXTRACT: note_on channel=9 note=32 velocity=74 time=0.00396825
EXTRACT: note_on channel=9 note=36 velocity=91 time=0
EXTRACT: note_on channel=9 note=44 velocity=60 time=0
EXTRACT: note_on channel=9 note=66 velocity=71 time=0
EXTRACT: note_on channel=9 note=68 velocity=44 time=0
EXTRACT: note_on channel=1 note=35 velocity=120 time=0
EXTRACT: note_on channel=7 note=54 velocity=83 time=0
EXTRACT: note_on channel=7 note=59 velocity=79 time=0
EXTRACT: note_on channel=9 note=42 velocity=75 time=0
EXTRACT: note_on channel=9 note=69 velocity=87 time=0
EXTRACT: note_on channel=9 note=56 velocity=80 time=0
EXTRACT: note_on channel=7 note=47 velocity=0 time=0.001984125
EXTRACT: note_on channel=9 note=56 velocity=0 time=0
EXTRACT: note_on channel=9 note=69 velocity=0 time=0
EXTRACT: note_on channel=9 note=42 velocity=0 time=0
EXTRACT: note_on channel=9 note=66 velocity=82 time=0.001984125
EXTRACT: note_on channel=9 note=66 velocity=0 time=0.001984125
EXTRACT: note_on channel=9 note=68 velocity=0 time=0.01984125
EXTRACT: note_on channel=9 note=44 velocity=0 time=0.01984125
EXTRACT: note_on channel=9 note=36 velocity=0 time=0.0079365
EXTRACT: note_on channel=9 note=32 velocity=0 time=0.005952375000000001
EXTRACT: note_on channel=9 note=56 velocity=0 time=0.001984125
EXTRACT: note_on channel=9 note=66 velocity=0 time=0.0079365
EXTRACT: note_on channel=7 note=54 velocity=0 time=0.001984125
EXTRACT: note_on channel=7 note=59 velocity=0 time=0.00396825
EXTRACT: note_on channel=5 note=63 velocity=0 time=0.015873
EXTRACT: note_on channel=5 note=66 velocity=0 time=0.0079365
EXTRACT: note_on channel=5 note=59 velocity=0 time=0.009920625
EXTRACT: note_on channel=2 note=71 velocity=0 time=0.00396825
EXTRACT: note_on channel=10 note=63 velocity=0 time=0.001984125
EXTRACT: note_on channel=7 note=54 velocity=84 time=0.00396825
EXTRACT: note_on channel=7 note=59 velocity=66 time=0
EXTRACT: note_on channel=10 note=66 velocity=0 time=0.005952375000000001
EXTRACT: note_on channel=9 note=32 velocity=69 time=0.00396825
EXTRACT: note_on channel=9 note=44 velocity=58 time=0
EXTRACT: note_on channel=9 note=65 velocity=75 time=0
EXTRACT: note_on channel=9 note=68 velocity=50 time=0
EXTRACT: note_on channel=9 note=42 velocity=66 time=0.011904750000000002
EXTRACT: note_on channel=9 note=69 velocity=69 time=0
EXTRACT: note_on channel=9 note=69 velocity=0 time=0.001984125
EXTRACT: note_on channel=9 note=42 velocity=0 time=0
EXTRACT: note_on channel=3 note=66 velocity=0 time=0.005952375000000001
EXTRACT: note_on channel=10 note=59 velocity=0 time=0.013888875000000002
EXTRACT: note_on channel=2 note=66 velocity=0 time=0
EXTRACT: note_on channel=2 note=63 velocity=0 time=0
EXTRACT: note_on channel=9 note=68 velocity=0 time=0.027777750000000004
EXTRACT: note_on channel=9 note=44 velocity=0 time=0
EXTRACT: note_on channel=9 note=32 velocity=0 time=0.00396825
EXTRACT: note_on channel=7 note=54 velocity=0 time=0.0079365
EXTRACT: note_on channel=0 note=78 velocity=0 time=0
EXTRACT: note_on channel=7 note=59 velocity=0 time=0.017857125
EXTRACT: note_on channel=9 note=27 velocity=94 time=0.017857125
EXTRACT: note_on channel=9 note=36 velocity=105 time=0
EXTRACT: note_on channel=9 note=42 velocity=88 time=0
EXTRACT: note_on channel=9 note=49 velocity=94 time=0
EXTRACT: note_on channel=9 note=56 velocity=83 time=0
EXTRACT: note_on channel=1 note=37 velocity=120 time=0
EXTRACT: note_on channel=10 note=61 velocity=60 time=0
EXTRACT: note_on channel=10 note=64 velocity=51 time=0
EXTRACT: note_on channel=10 note=68 velocity=53 time=0
EXTRACT: note_on channel=10 note=76 velocity=79 time=0
EXTRACT: note_on channel=3 note=68 velocity=80 time=0
EXTRACT: note_on channel=5 note=61 velocity=80 time=0
EXTRACT: note_on channel=5 note=64 velocity=87 time=0
EXTRACT: note_on channel=5 note=68 velocity=86 time=0
EXTRACT: note_on channel=7 note=49 velocity=90 time=0
EXTRACT: note_on channel=2 note=64 velocity=64 time=0
EXTRACT: note_on channel=2 note=61 velocity=64 time=0
EXTRACT: note_on channel=2 note=68 velocity=64 time=0
EXTRACT: note_on channel=0 note=80 velocity=60 time=0
EXTRACT: note_on channel=9 note=36 velocity=126 time=0
EXTRACT: note_on channel=9 note=35 velocity=117 time=0
EXTRACT: note_on channel=9 note=44 velocity=81 time=0
EXTRACT: note_on channel=9 note=44 velocity=0 time=0.001984125
EXTRACT: note_on channel=9 note=35 velocity=0 time=0
EXTRACT: note_on channel=9 note=36 velocity=0 time=0
EXTRACT: note_on channel=9 note=65 velocity=0 time=0.00396825
EXTRACT: note_on channel=9 note=57 velocity=64 time=0
EXTRACT: note_on channel=9 note=57 velocity=0 time=0.00396825
EXTRACT: note_on channel=1 note=35 velocity=0 time=0.04365075
EXTRACT: note_on channel=5 note=64 velocity=0 time=0.0079365
EXTRACT: note_on channel=9 note=27 velocity=0 time=0.00396825
EXTRACT: note_on channel=9 note=36 velocity=0 time=0.005952375000000001
EXTRACT: note_on channel=5 note=68 velocity=0 time=0.017857125
EXTRACT: note_on channel=5 note=61 velocity=0 time=0.045634875000000005
EXTRACT: note_on channel=9 note=69 velocity=93 time=0.005952375000000001
EXTRACT: note_on channel=9 note=69 velocity=0 time=0.001984125
EXTRACT: note_on channel=9 note=42 velocity=0 time=0.09126975000000001
EXTRACT: note_on channel=3 note=68 velocity=0 time=0
EXTRACT: note_on channel=9 note=27 velocity=79 time=0.00396825
EXTRACT: note_on channel=9 note=44 velocity=60 time=0
EXTRACT: note_on channel=9 note=67 velocity=37 time=0
EXTRACT: note_on channel=3 note=64 velocity=80 time=0
EXTRACT: note_on channel=7 note=49 velocity=0 time=0
EXTRACT: note_on channel=7 note=56 velocity=77 time=0
EXTRACT: note_on channel=7 note=61 velocity=60 time=0
EXTRACT: note_on channel=9 note=42 velocity=73 time=0
EXTRACT: note_on channel=9 note=70 velocity=105 time=0
EXTRACT: note_on channel=9 note=70 velocity=0 time=0.001984125
EXTRACT: note_on channel=9 note=42 velocity=0 time=0
EXTRACT: note_on channel=9 note=67 velocity=0 time=0.0396825
EXTRACT: note_on channel=7 note=61 velocity=0 time=0.0079365
EXTRACT: note_on channel=9 note=44 velocity=0 time=0.005952375000000001
EXTRACT: note_on channel=7 note=56 velocity=0 time=0
EXTRACT: note_on channel=9 note=56 velocity=0 time=0.0079365
EXTRACT: note_on channel=9 note=27 velocity=0 time=0.0079365
EXTRACT: note_on channel=1 note=49 velocity=104 time=0.0396825
EXTRACT: note_on channel=7 note=56 velocity=88 time=0.0079365
EXTRACT: note_on channel=7 note=61 velocity=73 time=0
EXTRACT: note_on channel=9 note=62 velocity=64 time=0
EXTRACT: note_on channel=9 note=62 velocity=0 time=0.001984125
EXTRACT: note_on channel=9 note=32 velocity=71 time=0.0079365
EXTRACT: note_on channel=9 note=67 velocity=29 time=0
EXTRACT: note_on channel=5 note=61 velocity=82 time=0
EXTRACT: note_on channel=5 note=64 velocity=85 time=0
EXTRACT: note_on channel=5 note=68 velocity=84 time=0
EXTRACT: note_on channel=9 note=44 velocity=69 time=0.009920625
EXTRACT: note_on channel=9 note=42 velocity=66 time=0.001984125
EXTRACT: note_on channel=9 note=69 velocity=61 time=0
EXTRACT: note_on channel=9 note=69 velocity=0 time=0.001984125
EXTRACT: note_on channel=9 note=42 velocity=0 time=0
EXTRACT: note_on channel=9 note=67 velocity=0 time=0.029761875000000004
EXTRACT: note_on channel=1 note=49 velocity=0 time=0.011904750000000002
EXTRACT: note_on channel=7 note=56 velocity=0 time=0.005952375000000001
EXTRACT: note_on channel=5 note=64 velocity=0 time=0.0079365
EXTRACT: note_on channel=7 note=61 velocity=0 time=0.005952375000000001
EXTRACT: note_on channel=9 note=32 velocity=0 time=0.009920625
EXTRACT: note_on channel=9 note=44 velocity=0 time=0.005952375000000001
EXTRACT: note_on channel=3 note=64 velocity=0 time=0.00396825
EXTRACT: note_on channel=5 note=68 velocity=0 time=0.00396825
EXTRACT: note_on channel=9 note=28 velocity=74 time=0.009920625
EXTRACT: note_on channel=9 note=36 velocity=99 time=0
EXTRACT: note_on channel=9 note=39 velocity=101 time=0
EXTRACT: note_on channel=9 note=42 velocity=90 time=0
EXTRACT: note_on channel=9 note=56 velocity=80 time=0
EXTRACT: note_on channel=3 note=68 velocity=74 time=0
EXTRACT: note_on channel=7 note=52 velocity=99 time=0
EXTRACT: note_on channel=9 note=40 velocity=117 time=0
EXTRACT: note_on channel=9 note=36 velocity=126 time=0
EXTRACT: note_on channel=9 note=35 velocity=117 time=0
EXTRACT: note_on channel=9 note=39 velocity=121 time=0
EXTRACT: note_on channel=9 note=44 velocity=81 time=0
EXTRACT: note_on channel=9 note=69 velocity=78 time=0
EXTRACT: note_on channel=9 note=60 velocity=80 time=0
EXTRACT: note_on channel=9 note=60 velocity=0 time=0.001984125
EXTRACT: note_on channel=9 note=44 velocity=0 time=0
EXTRACT: note_on channel=9 note=36 velocity=0 time=0
EXTRACT: note_on channel=9 note=35 velocity=0 time=0
EXTRACT: note_on channel=9 note=40 velocity=0 time=0
EXTRACT: note_on channel=9 note=69 velocity=0 time=0
EXTRACT: note_on channel=9 note=39 velocity=0 time=0
EXTRACT: note_on channel=5 note=61 velocity=0 time=0.029761875000000004
EXTRACT: note_on channel=9 note=39 velocity=0 time=0.0396825
EXTRACT: note_on channel=1 note=37 velocity=0 time=0.001984125
EXTRACT: note_on channel=9 note=36 velocity=0 time=0.001984125
EXTRACT: note_on channel=9 note=28 velocity=0 time=0.015873
EXTRACT: note_on channel=9 note=62 velocity=63 time=0.027777750000000004
EXTRACT: note_on channel=9 note=62 velocity=0 time=0.001984125
EXTRACT: note_on channel=9 note=32 velocity=59 time=0.0079365
EXTRACT: note_on channel=9 note=32 velocity=0 time=0.053571375000000004
EXTRACT: note_on channel=9 note=42 velocity=0 time=0.05158725000000001
EXTRACT: note_on channel=3 note=68 velocity=0 time=0
EXTRACT: note_on channel=9 note=32 velocity=63 time=0.00396825
EXTRACT: note_on channel=9 note=44 velocity=44 time=0
EXTRACT: note_on channel=9 note=68 velocity=62 time=0
EXTRACT: note_on channel=1 note=42 velocity=120 time=0
EXTRACT: note_on channel=3 note=73 velocity=76 time=0
EXTRACT: note_on channel=5 note=61 velocity=87 time=0
EXTRACT: note_on channel=5 note=64 velocity=91 time=0
EXTRACT: note_on channel=5 note=68 velocity=89 time=0
EXTRACT: note_on channel=7 note=56 velocity=77 time=0
EXTRACT: note_on channel=7 note=61 velocity=57 time=0
EXTRACT: note_on channel=9 note=42 velocity=73 time=0
EXTRACT: note_on channel=9 note=60 velocity=59 time=0
EXTRACT: note_on channel=9 note=60 velocity=0 time=0.001984125
EXTRACT: note_on channel=9 note=42 velocity=0 time=0
EXTRACT: note_on channel=9 note=70 velocity=105 time=0
EXTRACT: note_on channel=9 note=70 velocity=0 time=0.001984125
EXTRACT: note_on channel=5 note=64 velocity=0 time=0.05555550000000001
EXTRACT: note_on channel=7 note=56 velocity=0 time=0.001984125
EXTRACT: note_on channel=9 note=68 velocity=0 time=0.00396825
EXTRACT: note_on channel=9 note=44 velocity=0 time=0
EXTRACT: note_on channel=10 note=64 velocity=0 time=0
EXTRACT: note_on channel=7 note=61 velocity=0 time=0
EXTRACT: note_on channel=9 note=32 velocity=0 time=0.005952375000000001
EXTRACT: note_on channel=7 note=52 velocity=0 time=0.0079365
EXTRACT: note_on channel=10 note=68 velocity=0 time=0.001984125
EXTRACT: note_on channel=9 note=56 velocity=0 time=0.001984125
EXTRACT: note_on channel=5 note=68 velocity=0 time=0.021825375
EXTRACT: note_on channel=7 note=56 velocity=83 time=0.013888875000000002
EXTRACT: note_on channel=7 note=61 velocity=72 time=0
EXTRACT: note_on channel=9 note=61 velocity=69 time=0
EXTRACT: note_on channel=10 note=61 velocity=0 time=0.001984125
EXTRACT: note_on channel=5 note=61 velocity=0 time=0
EXTRACT: note_on channel=9 note=61 velocity=0 time=0
EXTRACT: note_on channel=9 note=49 velocity=0 time=0.00396825
EXTRACT: note_on channel=9 note=32 velocity=62 time=0.00396825
EXTRACT: note_on channel=9 note=56 velocity=79 time=0
EXTRACT: note_on channel=9 note=68 velocity=36 time=0
EXTRACT: note_on channel=9 note=44 velocity=59 time=0.009920625
EXTRACT: note_on channel=9 note=42 velocity=66 time=0.001984125
EXTRACT: note_on channel=9 note=82 velocity=28 time=0
EXTRACT: note_on channel=9 note=82 velocity=0 time=0.001984125
EXTRACT: note_on channel=9 note=42 velocity=0 time=0
EXTRACT: note_on channel=2 note=68 velocity=0 time=0.01984125
EXTRACT: note_on channel=2 note=61 velocity=0 time=0
EXTRACT: note_on channel=2 note=64 velocity=0 time=0
EXTRACT: note_on channel=9 note=68 velocity=0 time=0.001984125
EXTRACT: note_on channel=7 note=56 velocity=0 time=0.027777750000000004
EXTRACT: note_on channel=2 note=61 velocity=64 time=0
EXTRACT: note_on channel=2 note=66 velocity=64 time=0
EXTRACT: note_on channel=2 note=69 velocity=64 time=0
EXTRACT: note_on channel=0 note=81 velocity=60 time=0
EXTRACT: note_on channel=7 note=61 velocity=0 time=0.005952375000000001
EXTRACT: note_on channel=9 note=32 velocity=0 time=0.00396825
EXTRACT: note_on channel=9 note=44 velocity=0 time=0.01984125
EXTRACT: note_on channel=10 note=76 velocity=0 time=0.001984125
EXTRACT: note_on channel=3 note=73 velocity=0 time=0.009920625
EXTRACT: note_on channel=9 note=27 velocity=88 time=0.00396825
EXTRACT: note_on channel=9 note=36 velocity=101 time=0
EXTRACT: note_on channel=9 note=42 velocity=93 time=0
EXTRACT: note_on channel=10 note=57 velocity=38 time=0
EXTRACT: note_on channel=10 note=61 velocity=55 time=0
EXTRACT: note_on channel=10 note=66 velocity=59 time=0
EXTRACT: note_on channel=10 note=78 velocity=67 time=0
EXTRACT: note_on channel=3 note=69 velocity=85 time=0
EXTRACT: note_on channel=7 note=54 velocity=88 time=0
EXTRACT: note_on channel=9 note=36 velocity=126 time=0
EXTRACT: note_on channel=9 note=35 velocity=117 time=0
EXTRACT: note_on channel=9 note=44 velocity=81 time=0
EXTRACT: note_on channel=9 note=82 velocity=74 time=0
EXTRACT: note_on channel=9 note=56 velocity=78 time=0
EXTRACT: note_on channel=9 note=56 velocity=0 time=0.001984125
EXTRACT: note_on channel=9 note=44 velocity=0 time=0
EXTRACT: note_on channel=9 note=36 velocity=0 time=0
EXTRACT: note_on channel=9 note=35 velocity=0 time=0
EXTRACT: note_on channel=9 note=82 velocity=0 time=0
EXTRACT: note_on channel=0 note=80 velocity=0 time=0.027777750000000004
EXTRACT: note_on channel=9 note=27 velocity=0 time=0.04365075
EXTRACT: note_on channel=9 note=36 velocity=0 time=0.005952375000000001
EXTRACT: note_on channel=9 note=27 velocity=64 time=0.049603125000000005
EXTRACT: note_on channel=5 note=61 velocity=84 time=0
EXTRACT: note_on channel=5 note=66 velocity=84 time=0
EXTRACT: note_on channel=5 note=69 velocity=98 time=0
EXTRACT: note_on channel=9 note=82 velocity=36 time=0.011904750000000002
EXTRACT: note_on channel=9 note=82 velocity=0 time=0.001984125
EXTRACT: note_on channel=9 note=56 velocity=0 time=0.0396825
EXTRACT: note_on channel=9 note=27 velocity=0 time=0.0079365
EXTRACT: note_on channel=5 note=69 velocity=0 time=0.001984125
EXTRACT: note_on channel=5 note=66 velocity=0 time=0.001984125
EXTRACT: note_on channel=5 note=61 velocity=0 time=0.01984125
EXTRACT: note_on channel=9 note=70 velocity=105 time=0.015873
EXTRACT: note_on channel=9 note=70 velocity=0 time=0.001984125
EXTRACT: note_on channel=9 note=42 velocity=0 time=0.001984125
EXTRACT: note_on channel=9 note=27 velocity=69 time=0.00396825
EXTRACT: note_on channel=9 note=44 velocity=67 time=0
EXTRACT: note_on channel=9 note=67 velocity=28 time=0
EXTRACT: note_on channel=7 note=57 velocity=64 time=0
EXTRACT: note_on channel=7 note=61 velocity=47 time=0
EXTRACT: note_on channel=9 note=42 velocity=73 time=0
EXTRACT: note_on channel=9 note=82 velocity=59 time=0
EXTRACT: note_on channel=9 note=82 velocity=0 time=0.001984125
EXTRACT: note_on channel=9 note=42 velocity=0 time=0
EXTRACT: note_on channel=1 note=54 velocity=104 time=0.021825375
EXTRACT: note_on channel=7 note=57 velocity=0 time=0.001984125
EXTRACT: note_on channel=9 note=67 velocity=0 time=0.015873
EXTRACT: note_on channel=7 note=61 velocity=0 time=0
EXTRACT: note_on channel=9 note=44 velocity=0 time=0.017857125
EXTRACT: note_on channel=9 note=27 velocity=0 time=0.01984125
EXTRACT: note_on channel=1 note=54 velocity=0 time=0.013888875000000002
EXTRACT: note_on channel=7 note=54 velocity=0 time=0.015873
EXTRACT: note_on channel=7 note=57 velocity=76 time=0.009920625
EXTRACT: note_on channel=7 note=61 velocity=64 time=0
EXTRACT: note_on channel=9 note=56 velocity=72 time=0
EXTRACT: note_on channel=9 note=56 velocity=0 time=0.001984125
EXTRACT: note_on channel=9 note=67 velocity=42 time=0.0079365
EXTRACT: note_on channel=9 note=44 velocity=67 time=0.009920625
EXTRACT: note_on channel=9 note=42 velocity=66 time=0.001984125
EXTRACT: note_on channel=9 note=82 velocity=49 time=0
EXTRACT: note_on channel=9 note=82 velocity=0 time=0.001984125
EXTRACT: note_on channel=9 note=42 velocity=0 time=0
EXTRACT: note_on channel=9 note=67 velocity=0 time=0.029761875000000004
EXTRACT: note_on channel=3 note=69 velocity=0 time=0.0079365
EXTRACT: note_on channel=7 note=57 velocity=0 time=0.00396825
EXTRACT: note_on channel=7 note=61 velocity=0 time=0.01984125
EXTRACT: note_on channel=9 note=44 velocity=0 time=0.023809500000000004
EXTRACT: note_on channel=9 note=28 velocity=79 time=0.009920625
EXTRACT: note_on channel=9 note=32 velocity=78 time=0
EXTRACT: note_on channel=9 note=36 velocity=101 time=0
EXTRACT: note_on channel=9 note=39 velocity=96 time=0
EXTRACT: note_on channel=9 note=42 velocity=88 time=0
EXTRACT: note_on channel=9 note=56 velocity=80 time=0
EXTRACT: note_on channel=5 note=61 velocity=86 time=0
EXTRACT: note_on channel=5 note=66 velocity=83 time=0
EXTRACT: note_on channel=5 note=69 velocity=98 time=0
EXTRACT: note_on channel=7 note=54 velocity=85 time=0
EXTRACT: note_on channel=9 note=39 velocity=121 time=0
EXTRACT: note_on channel=9 note=40 velocity=117 time=0
EXTRACT: note_on channel=9 note=36 velocity=126 time=0
EXTRACT: note_on channel=9 note=35 velocity=117 time=0
EXTRACT: note_on channel=9 note=44 velocity=81 time=0
EXTRACT: note_on channel=9 note=82 velocity=66 time=0
EXTRACT: note_on channel=9 note=82 velocity=0 time=0.001984125
EXTRACT: note_on channel=9 note=40 velocity=0 time=0
EXTRACT: note_on channel=9 note=36 velocity=0 time=0
EXTRACT: note_on channel=9 note=39 velocity=0 time=0
EXTRACT: note_on channel=9 note=44 velocity=0 time=0
EXTRACT: note_on channel=9 note=35 velocity=0 time=0
EXTRACT: note_on channel=9 note=28 velocity=0 time=0.06746025000000001
EXTRACT: note_on channel=9 note=39 velocity=0 time=0.00396825
EXTRACT: note_on channel=9 note=32 velocity=0 time=0.005952375000000001
EXTRACT: note_on channel=9 note=36 velocity=0 time=0
EXTRACT: note_on channel=1 note=42 velocity=0 time=0.0396825
EXTRACT: note_on channel=9 note=70 velocity=105 time=0.11309512500000002
EXTRACT: note_on channel=9 note=42 velocity=0 time=0.001984125
EXTRACT: note_on channel=9 note=70 velocity=0 time=0
EXTRACT: note_on channel=9 note=32 velocity=67 time=0.00396825
EXTRACT: note_on channel=9 note=44 velocity=70 time=0
EXTRACT: note_on channel=9 note=68 velocity=26 time=0
EXTRACT: note_on channel=1 note=30 velocity=120 time=0
EXTRACT: note_on channel=7 note=57 velocity=75 time=0
EXTRACT: note_on channel=7 note=61 velocity=63 time=0
EXTRACT: note_on channel=9 note=42 velocity=73 time=0
EXTRACT: note_on channel=9 note=69 velocity=93 time=0
EXTRACT: note_on channel=9 note=56 velocity=72 time=0
EXTRACT: note_on channel=9 note=56 velocity=0 time=0.001984125
EXTRACT: note_on channel=9 note=69 velocity=0 time=0
EXTRACT: note_on channel=9 note=42 velocity=0 time=0
EXTRACT: note_on channel=9 note=68 velocity=0 time=0.03373012500000001
EXTRACT: note_on channel=7 note=54 velocity=0 time=0
EXTRACT: note_on channel=9 note=32 velocity=0 time=0.015873
EXTRACT: note_on channel=7 note=57 velocity=0 time=0.001984125
EXTRACT: note_on channel=9 note=56 velocity=0 time=0.001984125
EXTRACT: note_on channel=9 note=44 velocity=0 time=0.0079365
EXTRACT: note_on channel=7 note=61 velocity=0 time=0.001984125
EXTRACT: note_on channel=10 note=61 velocity=0 time=0.027777750000000004
EXTRACT: note_on channel=5 note=66 velocity=0 time=0.005952375000000001
EXTRACT: note_on channel=10 note=66 velocity=0 time=0.00396825
EXTRACT: note_on channel=5 note=69 velocity=0 time=0
EXTRACT: note_on channel=7 note=57 velocity=78 time=0.015873
EXTRACT: note_on channel=7 note=61 velocity=62 time=0
EXTRACT: note_on channel=9 note=32 velocity=64 time=0.009920625
EXTRACT: note_on channel=9 note=68 velocity=51 time=0
EXTRACT: note_on channel=10 note=57 velocity=0 time=0.001984125
EXTRACT: note_on channel=5 note=61 velocity=0 time=0
EXTRACT: note_on channel=9 note=44 velocity=68 time=0.0079365
EXTRACT: note_on channel=9 note=42 velocity=66 time=0.001984125
EXTRACT: note_on channel=9 note=69 velocity=73 time=0
EXTRACT: note_on channel=9 note=69 velocity=0 time=0.001984125
EXTRACT: note_on channel=9 note=42 velocity=0 time=0
EXTRACT: note_on channel=2 note=69 velocity=0 time=0.01984125
EXTRACT: note_on channel=2 note=66 velocity=0 time=0
EXTRACT: note_on channel=2 note=61 velocity=0 time=0
EXTRACT: note_on channel=7 note=57 velocity=0 time=0.017857125
EXTRACT: note_on channel=2 note=66 velocity=64 time=0.011904750000000002
EXTRACT: note_on channel=2 note=63 velocity=64 time=0
EXTRACT: note_on channel=2 note=59 velocity=64 time=0
EXTRACT: note_on channel=0 note=83 velocity=60 time=0
EXTRACT: note_on channel=9 note=32 velocity=0 time=0.001984125
EXTRACT: note_on channel=9 note=68 velocity=0 time=0.005952375000000001
EXTRACT: note_on channel=7 note=61 velocity=0 time=0.011904750000000002
EXTRACT: note_on channel=9 note=44 velocity=0 time=0.015873
EXTRACT: note_on channel=10 note=78 velocity=0 time=0.005952375000000001
EXTRACT: note_on channel=9 note=27 velocity=92 time=0.00396825
EXTRACT: note_on channel=9 note=36 velocity=101 time=0
EXTRACT: note_on channel=9 note=42 velocity=93 time=0
EXTRACT: note_on channel=9 note=56 velocity=76 time=0
EXTRACT: note_on channel=1 note=35 velocity=120 time=0
EXTRACT: note_on channel=10 note=59 velocity=68 time=0
EXTRACT: note_on channel=10 note=63 velocity=56 time=0
EXTRACT: note_on channel=10 note=66 velocity=53 time=0
EXTRACT: note_on channel=10 note=75 velocity=60 time=0
EXTRACT: note_on channel=3 note=66 velocity=82 time=0
EXTRACT: note_on channel=5 note=59 velocity=88 time=0
EXTRACT: note_on channel=5 note=63 velocity=86 time=0
EXTRACT: note_on channel=5 note=66 velocity=84 time=0
EXTRACT: note_on channel=7 note=51 velocity=91 time=0
EXTRACT: note_on channel=9 note=36 velocity=126 time=0
EXTRACT: note_on channel=9 note=35 velocity=117 time=0
EXTRACT: note_on channel=9 note=35 velocity=0 time=0.001984125
EXTRACT: note_on channel=9 note=36 velocity=0 time=0
EXTRACT: note_on channel=1 note=30 velocity=0 time=0.00396825
EXTRACT: note_on channel=0 note=81 velocity=0 time=0.023809500000000004
EXTRACT: note_on channel=5 note=63 velocity=0 time=0.041666625000000006
EXTRACT: note_on channel=5 note=66 velocity=0 time=0.00396825
EXTRACT: note_on channel=9 note=27 velocity=0 time=0.00396825
EXTRACT: note_on channel=9 note=36 velocity=0 time=0.00396825
EXTRACT: note_on channel=9 note=69 velocity=84 time=0.057539625000000004
EXTRACT: note_on channel=9 note=69 velocity=0 time=0.001984125
EXTRACT: note_on channel=5 note=59 velocity=0 time=0.029761875000000004
EXTRACT: note_on channel=9 note=42 velocity=0 time=0.061507875000000004
EXTRACT: note_on channel=3 note=66 velocity=0 time=0
EXTRACT: note_on channel=9 note=70 velocity=105 time=0
EXTRACT: note_on channel=9 note=27 velocity=85 time=0.00396825
EXTRACT: note_on channel=9 note=44 velocity=62 time=0
EXTRACT: note_on channel=9 note=67 velocity=36 time=0
EXTRACT: note_on channel=3 note=63 velocity=65 time=0
EXTRACT: note_on channel=7 note=54 velocity=73 time=0
EXTRACT: note_on channel=7 note=59 velocity=58 time=0
EXTRACT: note_on channel=9 note=70 velocity=0 time=0
EXTRACT: note_on channel=9 note=42 velocity=73 time=0
EXTRACT: note_on channel=9 note=62 velocity=79 time=0
EXTRACT: note_on channel=9 note=62 velocity=0 time=0.001984125
EXTRACT: note_on channel=9 note=42 velocity=0 time=0
EXTRACT: note_on channel=9 note=67 velocity=0 time=0.037698375000000006
EXTRACT: note_on channel=7 note=59 velocity=0 time=0
EXTRACT: note_on channel=9 note=56 velocity=0 time=0.001984125
EXTRACT: note_on channel=9 note=44 velocity=0 time=0.01984125
EXTRACT: note_on channel=7 note=54 velocity=0 time=0.001984125
EXTRACT: note_on channel=9 note=27 velocity=0 time=0.005952375000000001
EXTRACT: note_on channel=7 note=54 velocity=78 time=0.049603125000000005
EXTRACT: note_on channel=7 note=59 velocity=78 time=0
EXTRACT: note_on channel=9 note=61 velocity=69 time=0
EXTRACT: note_on channel=9 note=61 velocity=0 time=0.001984125
EXTRACT: note_on channel=9 note=32 velocity=76 time=0.0079365
EXTRACT: note_on channel=9 note=67 velocity=46 time=0
EXTRACT: note_on channel=1 note=47 velocity=104 time=0
EXTRACT: note_on channel=5 note=59 velocity=78 time=0
EXTRACT: note_on channel=5 note=63 velocity=87 time=0
EXTRACT: note_on channel=5 note=66 velocity=85 time=0
EXTRACT: note_on channel=7 note=51 velocity=0 time=0.001984125
EXTRACT: note_on channel=9 note=44 velocity=71 time=0.0079365
EXTRACT: note_on channel=9 note=42 velocity=66 time=0.001984125
EXTRACT: note_on channel=9 note=69 velocity=68 time=0
EXTRACT: note_on channel=9 note=69 velocity=0 time=0.001984125
EXTRACT: note_on channel=9 note=42 velocity=0 time=0
EXTRACT: note_on channel=5 note=63 velocity=0 time=0.05555550000000001
EXTRACT: note_on channel=9 note=67 velocity=0 time=0.001984125
EXTRACT: note_on channel=7 note=59 velocity=0 time=0
EXTRACT: note_on channel=9 note=32 velocity=0 time=0.001984125
EXTRACT: note_on channel=7 note=54 velocity=0 time=0
EXTRACT: note_on channel=5 note=66 velocity=0 time=0.0079365
EXTRACT: note_on channel=1 note=47 velocity=0 time=0.00396825
EXTRACT: note_on channel=9 note=44 velocity=0 time=0.005952375000000001
EXTRACT: note_on channel=3 note=63 velocity=0 time=0.013888875000000002
EXTRACT: note_on channel=9 note=28 velocity=82 time=0.00396825
EXTRACT: note_on channel=9 note=36 velocity=101 time=0
EXTRACT: note_on channel=9 note=39 velocity=99 time=0
EXTRACT: note_on channel=9 note=42 velocity=92 time=0
EXTRACT: note_on channel=9 note=56 velocity=73 time=0
EXTRACT: note_on channel=3 note=66 velocity=79 time=0
EXTRACT: note_on channel=7 note=51 velocity=91 time=0
EXTRACT: note_on channel=9 note=39 velocity=121 time=0
EXTRACT: note_on channel=9 note=36 velocity=126 time=0
EXTRACT: note_on channel=9 note=35 velocity=117 time=0
EXTRACT: note_on channel=9 note=40 velocity=117 time=0
EXTRACT: note_on channel=9 note=44 velocity=81 time=0
EXTRACT: note_on channel=9 note=44 velocity=0 time=0.001984125
EXTRACT: note_on channel=9 note=35 velocity=0 time=0
EXTRACT: note_on channel=9 note=39 velocity=0 time=0
EXTRACT: note_on channel=9 note=36 velocity=0 time=0
EXTRACT: note_on channel=9 note=40 velocity=0 time=0
EXTRACT: note_on channel=5 note=59 velocity=0 time=0.05158725000000001
EXTRACT: note_on channel=9 note=39 velocity=0 time=0.01984125
EXTRACT: note_on channel=9 note=28 velocity=0 time=0.001984125
EXTRACT: note_on channel=9 note=36 velocity=0 time=0.0079365
EXTRACT: note_on channel=1 note=35 velocity=0 time=0.027777750000000004
EXTRACT: note_on channel=9 note=62 velocity=73 time=0.0079365
EXTRACT: note_on channel=9 note=62 velocity=0 time=0.001984125
EXTRACT: note_on channel=9 note=32 velocity=68 time=0.0079365
EXTRACT: note_on channel=9 note=32 velocity=0 time=0.053571375000000004
EXTRACT: note_on channel=3 note=66 velocity=0 time=0.04761900000000001
EXTRACT: note_on channel=9 note=42 velocity=0 time=0.00396825
EXTRACT: note_on channel=9 note=32 velocity=70 time=0.00396825
EXTRACT: note_on channel=9 note=44 velocity=65 time=0
EXTRACT: note_on channel=9 note=68 velocity=59 time=0
EXTRACT: note_on channel=1 note=40 velocity=120 time=0
EXTRACT: note_on channel=3 note=71 velocity=77 time=0
EXTRACT: note_on channel=5 note=59 velocity=90 time=0
EXTRACT: note_on channel=5 note=63 velocity=94 time=0
EXTRACT: note_on channel=5 note=66 velocity=87 time=0
EXTRACT: note_on channel=7 note=54 velocity=79 time=0
EXTRACT: note_on channel=7 note=59 velocity=75 time=0
EXTRACT: note_on channel=9 note=42 velocity=73 time=0
EXTRACT: note_on channel=9 note=61 velocity=66 time=0
EXTRACT: note_on channel=9 note=61 velocity=0 time=0.001984125
EXTRACT: note_on channel=9 note=42 velocity=0 time=0
EXTRACT: note_on channel=9 note=70 velocity=105 time=0.001984125
EXTRACT: note_on channel=9 note=70 velocity=0 time=0.001984125
EXTRACT: note_on channel=9 note=68 velocity=0 time=0.0396825
EXTRACT: note_on channel=9 note=56 velocity=0 time=0.00396825
EXTRACT: note_on channel=9 note=44 velocity=0 time=0.005952375000000001
EXTRACT: note_on channel=9 note=32 velocity=0 time=0.0079365
EXTRACT: note_on channel=7 note=59 velocity=0 time=0.001984125
EXTRACT: note_on channel=7 note=54 velocity=0 time=0
EXTRACT: note_on channel=5 note=63 velocity=0 time=0.015873
EXTRACT: note_on channel=5 note=66 velocity=0 time=0.00396825
EXTRACT: note_on channel=7 note=54 velocity=77 time=0.03373012500000001
EXTRACT: note_on channel=7 note=59 velocity=47 time=0
EXTRACT: note_on channel=9 note=32 velocity=63 time=0.009920625
EXTRACT: note_on channel=9 note=68 velocity=54 time=0
EXTRACT: note_on channel=5 note=59 velocity=0 time=0
EXTRACT: note_on channel=10 note=63 velocity=0 time=0.00396825
EXTRACT: note_on channel=9 note=44 velocity=65 time=0.005952375000000001
EXTRACT: note_on channel=10 note=59 velocity=0 time=0.001984125
EXTRACT: note_on channel=9 note=42 velocity=66 time=0
EXTRACT: note_on channel=9 note=82 velocity=48 time=0
EXTRACT: note_on channel=9 note=82 velocity=0 time=0.001984125
EXTRACT: note_on channel=9 note=42 velocity=0 time=0
EXTRACT: note_on channel=7 note=51 velocity=0 time=0.0079365
EXTRACT: note_on channel=2 note=59 velocity=0 time=0.011904750000000002
EXTRACT: note_on channel=2 note=63 velocity=0 time=0
EXTRACT: note_on channel=2 note=66 velocity=0 time=0
EXTRACT: note_on channel=10 note=66 velocity=0 time=0.001984125
EXTRACT: note_on channel=7 note=54 velocity=0 time=0.025793625000000004
EXTRACT: note_on channel=9 note=32 velocity=0 time=0.001984125
EXTRACT: note_on channel=2 note=68 velocity=64 time=0
EXTRACT: note_on channel=2 note=59 velocity=64 time=0
EXTRACT: note_on channel=2 note=64 velocity=64 time=0
EXTRACT: note_on channel=0 note=80 velocity=60 time=0
EXTRACT: note_on channel=9 note=68 velocity=0 time=0.001984125
EXTRACT: note_on channel=7 note=59 velocity=0 time=0.005952375000000001
EXTRACT: note_on channel=9 note=44 velocity=0 time=0.013888875000000002
EXTRACT: note_on channel=10 note=75 velocity=0 time=0.013888875000000002
EXTRACT: note_on channel=3 note=71 velocity=0 time=0.005952375000000001
EXTRACT: note_on channel=9 note=27 velocity=87 time=0.00396825
EXTRACT: note_on channel=9 note=36 velocity=101 time=0
EXTRACT: note_on channel=9 note=42 velocity=93 time=0
EXTRACT: note_on channel=9 note=56 velocity=70 time=0
EXTRACT: note_on channel=10 note=56 velocity=57 time=0
EXTRACT: note_on channel=10 note=59 velocity=49 time=0
EXTRACT: note_on channel=10 note=64 velocity=69 time=0
EXTRACT: note_on channel=10 note=76 velocity=65 time=0
EXTRACT: note_on channel=3 note=68 velocity=84 time=0
EXTRACT: note_on channel=7 note=52 velocity=91 time=0
EXTRACT: note_on channel=9 note=36 velocity=126 time=0
EXTRACT: note_on channel=9 note=35 velocity=117 time=0
EXTRACT: note_on channel=9 note=44 velocity=81 time=0
EXTRACT: note_on channel=9 note=82 velocity=55 time=0
EXTRACT: note_on channel=9 note=56 velocity=80 time=0
EXTRACT: note_on channel=9 note=56 velocity=0 time=0.001984125
EXTRACT: note_on channel=9 note=44 velocity=0 time=0
EXTRACT: note_on channel=9 note=36 velocity=0 time=0
EXTRACT: note_on channel=9 note=35 velocity=0 time=0
EXTRACT: note_on channel=9 note=82 velocity=0 time=0
EXTRACT: note_on channel=0 note=83 velocity=0 time=0.027777750000000004
EXTRACT: note_on channel=9 note=27 velocity=0 time=0.0396825
EXTRACT: note_on channel=9 note=36 velocity=0 time=0.013888875000000002
EXTRACT: note_on channel=9 note=32 velocity=76 time=0.045634875000000005
EXTRACT: note_on channel=5 note=59 velocity=81 time=0
EXTRACT: note_on channel=5 note=64 velocity=99 time=0
EXTRACT: note_on channel=5 note=68 velocity=90 time=0
EXTRACT: note_on channel=9 note=82 velocity=63 time=0.011904750000000002
EXTRACT: note_on channel=9 note=82 velocity=0 time=0.001984125
EXTRACT: note_on channel=5 note=64 velocity=0 time=0.045634875000000005
EXTRACT: note_on channel=9 note=32 velocity=0 time=0.00396825
EXTRACT: note_on channel=5 note=59 velocity=0 time=0.001984125
EXTRACT: note_on channel=5 note=68 velocity=0 time=0.013888875000000002
EXTRACT: note_on channel=9 note=42 velocity=0 time=0.025793625000000004
EXTRACT: note_on channel=9 note=27 velocity=58 time=0.00396825
EXTRACT: note_on channel=9 note=44 velocity=66 time=0
EXTRACT: note_on channel=9 note=67 velocity=43 time=0
EXTRACT: note_on channel=7 note=56 velocity=74 time=0
EXTRACT: note_on channel=7 note=59 velocity=79 time=0
EXTRACT: note_on channel=9 note=42 velocity=73 time=0
EXTRACT: note_on channel=9 note=82 velocity=59 time=0
EXTRACT: note_on channel=9 note=63 velocity=60 time=0
EXTRACT: note_on channel=9 note=63 velocity=0 time=0.001984125
EXTRACT: note_on channel=9 note=82 velocity=0 time=0
EXTRACT: note_on channel=9 note=42 velocity=0 time=0
EXTRACT: note_on channel=9 note=70 velocity=105 time=0.001984125
EXTRACT: note_on channel=9 note=70 velocity=0 time=0.001984125
EXTRACT: note_on channel=1 note=52 velocity=104 time=0.027777750000000004
EXTRACT: note_on channel=9 note=67 velocity=0 time=0.001984125
EXTRACT: note_on channel=9 note=27 velocity=0 time=0.009920625
EXTRACT: note_on channel=7 note=59 velocity=0 time=0.0079365
EXTRACT: note_on channel=9 note=56 velocity=0 time=0.001984125
EXTRACT: note_on channel=9 note=44 velocity=0 time=0.00396825
EXTRACT: note_on channel=7 note=56 velocity=0 time=0.00396825
EXTRACT: note_on channel=7 note=52 velocity=0 time=0.027777750000000004
EXTRACT: note_on channel=7 note=56 velocity=79 time=0.027777750000000004
EXTRACT: note_on channel=7 note=59 velocity=61 time=0
EXTRACT: note_on channel=9 note=56 velocity=89 time=0
EXTRACT: note_on channel=9 note=56 velocity=0 time=0.001984125
EXTRACT: note_on channel=1 note=52 velocity=0 time=0.001984125
EXTRACT: note_on channel=9 note=67 velocity=40 time=0.005952375000000001
EXTRACT: note_on channel=9 note=44 velocity=69 time=0.009920625
EXTRACT: note_on channel=9 note=42 velocity=66 time=0.001984125
EXTRACT: note_on channel=9 note=82 velocity=45 time=0
EXTRACT: note_on channel=9 note=82 velocity=0 time=0.001984125
EXTRACT: note_on channel=9 note=42 velocity=0 time=0
EXTRACT: note_on channel=9 note=67 velocity=0 time=0.04761900000000001
EXTRACT: note_on channel=7 note=59 velocity=0 time=0.001984125
EXTRACT: note_on channel=7 note=56 velocity=0 time=0.011904750000000002
EXTRACT: note_on channel=9 note=44 velocity=0 time=0.013888875000000002
EXTRACT: note_on channel=3 note=68 velocity=0 time=0.015873
EXTRACT: note_on channel=9 note=28 velocity=85 time=0.00396825
EXTRACT: note_on channel=9 note=32 velocity=88 time=0
EXTRACT: note_on channel=9 note=36 velocity=101 time=0
EXTRACT: note_on channel=9 note=39 velocity=99 time=0
EXTRACT: note_on channel=9 note=42 velocity=90 time=0
EXTRACT: note_on channel=9 note=56 velocity=70 time=0
EXTRACT: note_on channel=1 note=32 velocity=120 time=0
EXTRACT: note_on channel=3 note=66 velocity=77 time=0
EXTRACT: note_on channel=5 note=59 velocity=92 time=0
EXTRACT: note_on channel=5 note=64 velocity=99 time=0
EXTRACT: note_on channel=5 note=68 velocity=92 time=0
EXTRACT: note_on channel=7 note=52 velocity=95 time=0
EXTRACT: note_on channel=9 note=36 velocity=126 time=0
EXTRACT: note_on channel=9 note=35 velocity=117 time=0
EXTRACT: note_on channel=9 note=39 velocity=121 time=0
EXTRACT: note_on channel=9 note=40 velocity=117 time=0
EXTRACT: note_on channel=9 note=44 velocity=81 time=0
EXTRACT: note_on channel=9 note=82 velocity=60 time=0
EXTRACT: note_on channel=5 note=64 velocity=0 time=0.001984125
EXTRACT: note_on channel=9 note=82 velocity=0 time=0
EXTRACT: note_on channel=9 note=35 velocity=0 time=0
EXTRACT: note_on channel=9 note=39 velocity=0 time=0
EXTRACT: note_on channel=9 note=36 velocity=0 time=0
EXTRACT: note_on channel=9 note=44 velocity=0 time=0
EXTRACT: note_on channel=9 note=40 velocity=0 time=0
EXTRACT: note_on channel=9 note=32 velocity=0 time=0.069444375
EXTRACT: note_on channel=9 note=28 velocity=0 time=0.001984125
EXTRACT: note_on channel=9 note=39 velocity=0 time=0.005952375000000001
EXTRACT: note_on channel=9 note=36 velocity=0 time=0.00396825
EXTRACT: note_on channel=1 note=40 velocity=0 time=0.03571425
EXTRACT: note_on channel=5 note=64 velocity=35 time=0.009920625
EXTRACT: note_on channel=1 note=32 velocity=0 time=0.08333325000000001
EXTRACT: note_on channel=3 note=66 velocity=0 time=0.017857125
EXTRACT: note_on channel=9 note=70 velocity=105 time=0.001984125
EXTRACT: note_on channel=9 note=42 velocity=0 time=0.001984125
EXTRACT: note_on channel=9 note=70 velocity=0 time=0
EXTRACT: note_on channel=9 note=32 velocity=71 time=0.00396825
EXTRACT: note_on channel=9 note=44 velocity=69 time=0
EXTRACT: note_on channel=9 note=68 velocity=50 time=0
EXTRACT: note_on channel=1 note=35 velocity=120 time=0
EXTRACT: note_on channel=3 note=64 velocity=71 time=0
EXTRACT: note_on channel=7 note=56 velocity=75 time=0
EXTRACT: note_on channel=7 note=59 velocity=73 time=0
EXTRACT: note_on channel=9 note=42 velocity=75 time=0
EXTRACT: note_on channel=9 note=69 velocity=87 time=0
EXTRACT: note_on channel=9 note=56 velocity=87 time=0
EXTRACT: note_on channel=9 note=56 velocity=0 time=0.001984125
EXTRACT: note_on channel=9 note=69 velocity=0 time=0
EXTRACT: note_on channel=9 note=42 velocity=0 time=0
EXTRACT: note_on channel=9 note=68 velocity=0 time=0.031746
EXTRACT: note_on channel=5 note=59 velocity=0 time=0.0079365
EXTRACT: note_on channel=9 note=44 velocity=0 time=0.013888875000000002
EXTRACT: note_on channel=9 note=32 velocity=0 time=0
EXTRACT: note_on channel=7 note=56 velocity=0 time=0.009920625
EXTRACT: note_on channel=10 note=64 velocity=0 time=0.009920625
EXTRACT: note_on channel=7 note=59 velocity=0 time=0
EXTRACT: note_on channel=5 note=64 velocity=0 time=0.009920625
EXTRACT: note_on channel=5 note=68 velocity=0 time=0.00396825
EXTRACT: note_on channel=9 note=56 velocity=0 time=0.001984125
EXTRACT: note_on channel=10 note=56 velocity=0 time=0.0079365
EXTRACT: note_on channel=10 note=59 velocity=0 time=0
EXTRACT: note_on channel=7 note=56 velocity=81 time=0.01984125
EXTRACT: note_on channel=7 note=59 velocity=56 time=0
EXTRACT: note_on channel=9 note=62 velocity=64 time=0
EXTRACT: note_on channel=9 note=62 velocity=0 time=0.001984125
EXTRACT: note_on channel=9 note=32 velocity=67 time=0.0079365
EXTRACT: note_on channel=9 note=68 velocity=52 time=0
EXTRACT: note_on channel=7 note=52 velocity=0 time=0.005952375000000001
EXTRACT: note_on channel=9 note=44 velocity=68 time=0.00396825
EXTRACT: note_on channel=9 note=42 velocity=66 time=0.001984125
EXTRACT: note_on channel=9 note=69 velocity=69 time=0
EXTRACT: note_on channel=9 note=69 velocity=0 time=0.001984125
EXTRACT: note_on channel=9 note=42 velocity=0 time=0
EXTRACT: note_on channel=2 note=64 velocity=0 time=0.01984125
EXTRACT: note_on channel=2 note=59 velocity=0 time=0
EXTRACT: note_on channel=2 note=68 velocity=0 time=0
EXTRACT: note_on channel=7 note=59 velocity=0 time=0.021825375
EXTRACT: note_on channel=3 note=64 velocity=0 time=0.00396825
EXTRACT: note_on channel=7 note=56 velocity=0 time=0.001984125
EXTRACT: note_on channel=9 note=68 velocity=0 time=0.001984125
EXTRACT: note_on channel=2 note=64 velocity=64 time=0
EXTRACT: note_on channel=2 note=68 velocity=64 time=0
EXTRACT: note_on channel=2 note=61 velocity=64 time=0
EXTRACT: note_on channel=0 note=76 velocity=60 time=0
EXTRACT: note_on channel=9 note=32 velocity=0 time=0.005952375000000001
EXTRACT: note_on channel=9 note=44 velocity=0 time=0.01984125
EXTRACT: note_on channel=10 note=76 velocity=0 time=0.015873
EXTRACT: note_on channel=9 note=27 velocity=90 time=0.00396825
EXTRACT: note_on channel=9 note=36 velocity=101 time=0
EXTRACT: note_on channel=9 note=42 velocity=93 time=0
EXTRACT: note_on channel=9 note=56 velocity=70 time=0
EXTRACT: note_on channel=1 note=37 velocity=120 time=0
EXTRACT: note_on channel=10 note=56 velocity=60 time=0
EXTRACT: note_on channel=10 note=61 velocity=57 time=0
EXTRACT: note_on channel=10 note=64 velocity=60 time=0
EXTRACT: note_on channel=10 note=80 velocity=70 time=0
EXTRACT: note_on channel=5 note=61 velocity=79 time=0
EXTRACT: note_on channel=5 note=64 velocity=98 time=0
EXTRACT: note_on channel=5 note=68 velocity=92 time=0
EXTRACT: note_on channel=7 note=49 velocity=85 time=0
EXTRACT: note_on channel=9 note=36 velocity=126 time=0
EXTRACT: note_on channel=9 note=35 velocity=117 time=0
EXTRACT: note_on channel=9 note=44 velocity=81 time=0
EXTRACT: note_on channel=9 note=60 velocity=69 time=0
EXTRACT: note_on channel=9 note=60 velocity=0 time=0.001984125
EXTRACT: note_on channel=9 note=36 velocity=0 time=0
EXTRACT: note_on channel=9 note=35 velocity=0 time=0
EXTRACT: note_on channel=9 note=44 velocity=0 time=0
EXTRACT: note_on channel=0 note=80 velocity=0 time=0.027777750000000004
EXTRACT: note_on channel=1 note=35 velocity=0 time=0.023809500000000004
EXTRACT: note_on channel=5 note=64 velocity=0 time=0.011904750000000002
EXTRACT: note_on channel=9 note=27 velocity=0 time=0.013888875000000002
EXTRACT: note_on channel=9 note=36 velocity=0 time=0.00396825
EXTRACT: note_on channel=5 note=68 velocity=0 time=0.001984125
EXTRACT: note_on channel=5 note=61 velocity=0 time=0.03373012500000001
EXTRACT: note_on channel=9 note=69 velocity=93 time=0.021825375
EXTRACT: note_on channel=9 note=69 velocity=0 time=0.001984125
EXTRACT: note_on channel=9 note=42 velocity=0 time=0.09126975000000001
EXTRACT: note_on channel=9 note=27 velocity=78 time=0.00396825
EXTRACT: note_on channel=9 note=44 velocity=60 time=0
EXTRACT: note_on channel=9 note=67 velocity=40 time=0
EXTRACT: note_on channel=3 note=64 velocity=85 time=0
EXTRACT: note_on channel=7 note=56 velocity=81 time=0
EXTRACT: note_on channel=7 note=61 velocity=69 time=0
EXTRACT: note_on channel=9 note=42 velocity=73 time=0
EXTRACT: note_on channel=9 note=62 velocity=59 time=0
EXTRACT: note_on channel=9 note=70 velocity=105 time=0
EXTRACT: note_on channel=9 note=70 velocity=0 time=0.001984125
EXTRACT: note_on channel=9 note=62 velocity=0 time=0
EXTRACT: note_on channel=9 note=42 velocity=0 time=0
EXTRACT: note_on channel=9 note=56 velocity=0 time=0.027777750000000004
EXTRACT: note_on channel=9 note=67 velocity=0 time=0.009920625
EXTRACT: note_on channel=9 note=44 velocity=0 time=0.005952375000000001
EXTRACT: note_on channel=7 note=56 velocity=0 time=0.015873
EXTRACT: note_on channel=7 note=61 velocity=0 time=0.001984125
EXTRACT: note_on channel=9 note=27 velocity=0 time=0.001984125
EXTRACT: note_on channel=3 note=64 velocity=0 time=0.023809500000000004
EXTRACT: note_on channel=1 note=49 velocity=104 time=0.023809500000000004
EXTRACT: note_on channel=7 note=49 velocity=0 time=0.005952375000000001
EXTRACT: note_on channel=7 note=56 velocity=78 time=0
EXTRACT: note_on channel=7 note=61 velocity=61 time=0
EXTRACT: note_on channel=9 note=60 velocity=63 time=0
EXTRACT: note_on channel=9 note=60 velocity=0 time=0.001984125
EXTRACT: note_on channel=9 note=27 velocity=50 time=0.0079365
EXTRACT: note_on channel=9 note=67 velocity=41 time=0
EXTRACT: note_on channel=5 note=61 velocity=84 time=0
EXTRACT: note_on channel=5 note=64 velocity=88 time=0
EXTRACT: note_on channel=5 note=68 velocity=84 time=0
EXTRACT: note_on channel=9 note=44 velocity=63 time=0.009920625
EXTRACT: note_on channel=9 note=42 velocity=66 time=0.001984125
EXTRACT: note_on channel=9 note=69 velocity=61 time=0
EXTRACT: note_on channel=9 note=69 velocity=0 time=0.001984125
EXTRACT: note_on channel=9 note=42 velocity=0 time=0
EXTRACT: note_on channel=1 note=49 velocity=0 time=0.045634875000000005
EXTRACT: note_on channel=7 note=56 velocity=0 time=0.001984125
EXTRACT: note_on channel=5 note=64 velocity=0 time=0.00396825
EXTRACT: note_on channel=7 note=61 velocity=0 time=0.005952375000000001
EXTRACT: note_on channel=9 note=67 velocity=0 time=0.001984125
EXTRACT: note_on channel=9 note=44 velocity=0 time=0.015873
EXTRACT: note_on channel=9 note=27 velocity=0 time=0
EXTRACT: note_on channel=9 note=28 velocity=74 time=0.01984125
EXTRACT: note_on channel=9 note=32 velocity=78 time=0
EXTRACT: note_on channel=9 note=36 velocity=99 time=0
EXTRACT: note_on channel=9 note=39 velocity=96 time=0
EXTRACT: note_on channel=9 note=42 velocity=93 time=0
EXTRACT: note_on channel=9 note=56 velocity=67 time=0
EXTRACT: note_on channel=3 note=64 velocity=85 time=0
EXTRACT: note_on channel=5 note=68 velocity=0 time=0
EXTRACT: note_on channel=7 note=49 velocity=88 time=0
EXTRACT: note_on channel=9 note=40 velocity=117 time=0
EXTRACT: note_on channel=9 note=36 velocity=126 time=0
EXTRACT: note_on channel=9 note=35 velocity=117 time=0
EXTRACT: note_on channel=9 note=39 velocity=121 time=0
EXTRACT: note_on channel=9 note=44 velocity=81 time=0
EXTRACT: note_on channel=9 note=69 velocity=78 time=0
EXTRACT: note_on channel=9 note=69 velocity=0 time=0.001984125
EXTRACT: note_on channel=9 note=36 velocity=0 time=0
EXTRACT: note_on channel=9 note=35 velocity=0 time=0
EXTRACT: note_on channel=9 note=40 velocity=0 time=0
EXTRACT: note_on channel=9 note=44 velocity=0 time=0
EXTRACT: note_on channel=9 note=39 velocity=0 time=0
EXTRACT: note_on channel=5 note=61 velocity=0 time=0.027777750000000004
EXTRACT: note_on channel=9 note=32 velocity=0 time=0.041666625000000006
EXTRACT: note_on channel=9 note=39 velocity=0 time=0.0079365
EXTRACT: note_on channel=9 note=36 velocity=0 time=0
EXTRACT: note_on channel=9 note=28 velocity=0 time=0.011904750000000002
EXTRACT: note_on channel=1 note=37 velocity=0 time=0.017857125
EXTRACT: note_on channel=9 note=61 velocity=73 time=0.009920625
EXTRACT: note_on channel=9 note=61 velocity=0 time=0.001984125
EXTRACT: note_on channel=9 note=42 velocity=0 time=0.11309512500000002
EXTRACT: note_on channel=3 note=64 velocity=0 time=0
EXTRACT: note_on channel=9 note=32 velocity=69 time=0.00396825
EXTRACT: note_on channel=9 note=44 velocity=69 time=0
EXTRACT: note_on channel=9 note=68 velocity=39 time=0
EXTRACT: note_on channel=1 note=42 velocity=120 time=0
EXTRACT: note_on channel=3 note=61 velocity=71 time=0
EXTRACT: note_on channel=5 note=61 velocity=87 time=0
EXTRACT: note_on channel=5 note=64 velocity=87 time=0
EXTRACT: note_on channel=5 note=68 velocity=89 time=0
EXTRACT: note_on channel=7 note=56 velocity=87 time=0
EXTRACT: note_on channel=7 note=61 velocity=74 time=0
EXTRACT: note_on channel=9 note=42 velocity=73 time=0
EXTRACT: note_on channel=9 note=60 velocity=66 time=0
EXTRACT: note_on channel=9 note=60 velocity=0 time=0.001984125
EXTRACT: note_on channel=9 note=42 velocity=0 time=0
EXTRACT: note_on channel=9 note=70 velocity=105 time=0
EXTRACT: note_on channel=9 note=70 velocity=0 time=0.001984125
EXTRACT: note_on channel=9 note=68 velocity=0 time=0.031746
EXTRACT: note_on channel=9 note=56 velocity=0 time=0.015873
EXTRACT: note_on channel=9 note=32 velocity=0 time=0.0079365
EXTRACT: note_on channel=9 note=44 velocity=0 time=0.005952375000000001
EXTRACT: note_on channel=7 note=56 velocity=0 time=0
EXTRACT: note_on channel=5 note=64 velocity=0 time=0.00396825
EXTRACT: note_on channel=7 note=61 velocity=0 time=0.00396825
EXTRACT: note_on channel=10 note=61 velocity=0 time=0.011904750000000002
EXTRACT: note_on channel=10 note=64 velocity=0 time=0.0079365
EXTRACT: note_on channel=5 note=61 velocity=0 time=0.001984125
EXTRACT: note_on channel=5 note=68 velocity=0 time=0.005952375000000001
EXTRACT: note_on channel=10 note=56 velocity=0 time=0.013888875000000002
EXTRACT: note_on channel=7 note=56 velocity=81 time=0.00396825
EXTRACT: note_on channel=7 note=61 velocity=68 time=0
EXTRACT: note_on channel=9 note=62 velocity=69 time=0
EXTRACT: note_on channel=9 note=62 velocity=0 time=0.001984125
EXTRACT: note_on channel=9 note=32 velocity=69 time=0.0079365
EXTRACT: note_on channel=9 note=68 velocity=56 time=0
EXTRACT: note_on channel=7 note=49 velocity=0 time=0.00396825
EXTRACT: note_on channel=9 note=44 velocity=64 time=0.005952375000000001
EXTRACT: note_on channel=9 note=42 velocity=66 time=0.001984125
EXTRACT: note_on channel=9 note=42 velocity=0 time=0.001984125
EXTRACT: note_on channel=2 note=61 velocity=0 time=0.01984125
EXTRACT: note_on channel=2 note=68 velocity=0 time=0
EXTRACT: note_on channel=2 note=64 velocity=0 time=0
EXTRACT: note_on channel=0 note=81 velocity=60 time=0.025793625000000004
EXTRACT: note_on channel=9 note=68 velocity=0 time=0.001984125
EXTRACT: note_on channel=7 note=56 velocity=0 time=0
EXTRACT: note_on channel=2 note=66 velocity=64 time=0.001984125
EXTRACT: note_on channel=2 note=61 velocity=64 time=0
EXTRACT: note_on channel=2 note=69 velocity=64 time=0
EXTRACT: note_on channel=9 note=32 velocity=0 time=0.009920625
EXTRACT: note_on channel=7 note=61 velocity=0 time=0.0079365
EXTRACT: note_on channel=9 note=44 velocity=0 time=0.0079365
EXTRACT: note_on channel=10 note=80 velocity=0 time=0.015873
EXTRACT: note_on channel=3 note=61 velocity=0 time=0
EXTRACT: note_on channel=9 note=27 velocity=88 time=0.00396825
EXTRACT: note_on channel=9 note=36 velocity=103 time=0
EXTRACT: note_on channel=9 note=42 velocity=92 time=0
EXTRACT: note_on channel=9 note=56 velocity=69 time=0
EXTRACT: note_on channel=10 note=57 velocity=58 time=0
EXTRACT: note_on channel=10 note=61 velocity=59 time=0
EXTRACT: note_on channel=10 note=66 velocity=60 time=0
EXTRACT: note_on channel=10 note=78 velocity=71 time=0
EXTRACT: note_on channel=3 note=66 velocity=84 time=0
EXTRACT: note_on channel=7 note=54 velocity=83 time=0
EXTRACT: note_on channel=9 note=36 velocity=126 time=0
EXTRACT: note_on channel=9 note=35 velocity=117 time=0
EXTRACT: note_on channel=9 note=44 velocity=81 time=0
EXTRACT: note_on channel=9 note=82 velocity=69 time=0
EXTRACT: note_on channel=9 note=56 velocity=87 time=0
EXTRACT: note_on channel=9 note=60 velocity=63 time=0
EXTRACT: note_on channel=9 note=60 velocity=0 time=0.001984125
EXTRACT: note_on channel=9 note=35 velocity=0 time=0
EXTRACT: note_on channel=9 note=44 velocity=0 time=0
EXTRACT: note_on channel=9 note=36 velocity=0 time=0
EXTRACT: note_on channel=9 note=56 velocity=0 time=0
EXTRACT: note_on channel=9 note=82 velocity=0 time=0
EXTRACT: note_on channel=0 note=76 velocity=0 time=0.021825375
EXTRACT: note_on channel=9 note=27 velocity=0 time=0.04761900000000001
EXTRACT: note_on channel=9 note=36 velocity=0 time=0.009920625
EXTRACT: note_on channel=9 note=32 velocity=77 time=0.04761900000000001
EXTRACT: note_on channel=5 note=61 velocity=89 time=0
EXTRACT: note_on channel=5 note=66 velocity=90 time=0
EXTRACT: note_on channel=5 note=69 velocity=94 time=0
EXTRACT: note_on channel=9 note=82 velocity=43 time=0.011904750000000002
EXTRACT: note_on channel=9 note=82 velocity=0 time=0.001984125
EXTRACT: note_on channel=9 note=32 velocity=0 time=0.041666625000000006
EXTRACT: note_on channel=5 note=69 velocity=0 time=0.015873
EXTRACT: note_on channel=5 note=66 velocity=0 time=0.001984125
EXTRACT: note_on channel=5 note=61 velocity=0 time=0.017857125
EXTRACT: note_on channel=9 note=70 velocity=105 time=0.009920625
EXTRACT: note_on channel=9 note=70 velocity=0 time=0.001984125
EXTRACT: note_on channel=9 note=42 velocity=0 time=0.001984125
EXTRACT: note_on channel=9 note=27 velocity=77 time=0.00396825
EXTRACT: note_on channel=9 note=44 velocity=70 time=0
EXTRACT: note_on channel=7 note=57 velocity=80 time=0
EXTRACT: note_on channel=7 note=61 velocity=71 time=0
EXTRACT: note_on channel=9 note=42 velocity=73 time=0
EXTRACT: note_on channel=9 note=82 velocity=48 time=0
EXTRACT: note_on channel=9 note=82 velocity=0 time=0.001984125
EXTRACT: note_on channel=9 note=42 velocity=0 time=0
EXTRACT: note_on channel=1 note=54 velocity=104 time=0.021825375
EXTRACT: note_on channel=9 note=56 velocity=0 time=0.029761875000000004
EXTRACT: note_on channel=9 note=44 velocity=0 time=0.001984125
EXTRACT: note_on channel=7 note=57 velocity=0 time=0
EXTRACT: note_on channel=9 note=27 velocity=0 time=0.0079365
EXTRACT: note_on channel=7 note=61 velocity=0 time=0
EXTRACT: note_on channel=1 note=54 velocity=0 time=0.041666625000000006
EXTRACT: note_on channel=7 note=57 velocity=77 time=0.013888875000000002
EXTRACT: note_on channel=7 note=61 velocity=64 time=0
EXTRACT: note_on channel=9 note=56 velocity=87 time=0
EXTRACT: note_on channel=9 note=56 velocity=0 time=0.001984125
EXTRACT: note_on channel=9 note=67 velocity=49 time=0.0079365
EXTRACT: note_on channel=7 note=54 velocity=0 time=0
EXTRACT: note_on channel=9 note=44 velocity=72 time=0.009920625
EXTRACT: note_on channel=9 note=42 velocity=66 time=0.001984125
EXTRACT: note_on channel=9 note=82 velocity=40 time=0
EXTRACT: note_on channel=9 note=82 velocity=0 time=0.001984125
EXTRACT: note_on channel=9 note=42 velocity=0 time=0
EXTRACT: note_on channel=7 note=57 velocity=0 time=0.0396825
EXTRACT: note_on channel=9 note=67 velocity=0 time=0.017857125
EXTRACT: note_on channel=9 note=44 velocity=0 time=0.013888875000000002
EXTRACT: note_on channel=7 note=61 velocity=0 time=0.00396825
EXTRACT: note_on channel=3 note=66 velocity=0 time=0.015873
EXTRACT: note_on channel=9 note=28 velocity=79 time=0.00396825
EXTRACT: note_on channel=9 note=32 velocity=83 time=0
EXTRACT: note_on channel=9 note=36 velocity=95 time=0
EXTRACT: note_on channel=9 note=39 velocity=99 time=0
EXTRACT: note_on channel=9 note=42 velocity=94 time=0
EXTRACT: note_on channel=9 note=56 velocity=70 time=0
EXTRACT: note_on channel=3 note=61 velocity=74 time=0
EXTRACT: note_on channel=5 note=61 velocity=90 time=0
EXTRACT: note_on channel=5 note=66 velocity=85 time=0
EXTRACT: note_on channel=5 note=69 velocity=101 time=0
EXTRACT: note_on channel=7 note=54 velocity=88 time=0
EXTRACT: note_on channel=9 note=39 velocity=121 time=0
EXTRACT: note_on channel=9 note=40 velocity=117 time=0
EXTRACT: note_on channel=9 note=36 velocity=126 time=0
EXTRACT: note_on channel=9 note=35 velocity=117 time=0
EXTRACT: note_on channel=9 note=44 velocity=81 time=0
EXTRACT: note_on channel=9 note=82 velocity=69 time=0
EXTRACT: note_on channel=9 note=82 velocity=0 time=0.001984125
EXTRACT: note_on channel=9 note=40 velocity=0 time=0
EXTRACT: note_on channel=9 note=36 velocity=0 time=0
EXTRACT: note_on channel=9 note=39 velocity=0 time=0
EXTRACT: note_on channel=9 note=44 velocity=0 time=0
EXTRACT: note_on channel=9 note=35 velocity=0 time=0
EXTRACT: note_on channel=9 note=32 velocity=0 time=0.061507875000000004
EXTRACT: note_on channel=9 note=28 velocity=0 time=0.005952375000000001
EXTRACT: note_on channel=9 note=36 velocity=0 time=0.009920625
EXTRACT: note_on channel=9 note=39 velocity=0 time=0.013888875000000002
EXTRACT: note_on channel=1 note=42 velocity=0 time=0.025793625000000004
EXTRACT: note_on channel=9 note=70 velocity=105 time=0.11309512500000002
EXTRACT: note_on channel=9 note=42 velocity=0 time=0.001984125
EXTRACT: note_on channel=9 note=70 velocity=0 time=0
EXTRACT: note_on channel=9 note=32 velocity=79 time=0.00396825
EXTRACT: note_on channel=9 note=44 velocity=70 time=0
EXTRACT: note_on channel=9 note=68 velocity=47 time=0
EXTRACT: note_on channel=1 note=30 velocity=120 time=0
EXTRACT: note_on channel=7 note=57 velocity=78 time=0
EXTRACT: note_on channel=7 note=61 velocity=67 time=0
EXTRACT: note_on channel=9 note=42 velocity=73 time=0
EXTRACT: note_on channel=9 note=69 velocity=78 time=0
EXTRACT: note_on channel=9 note=56 velocity=87 time=0
EXTRACT: note_on channel=9 note=56 velocity=0 time=0.001984125
EXTRACT: note_on channel=9 note=69 velocity=0 time=0
EXTRACT: note_on channel=9 note=42 velocity=0 time=0
EXTRACT: note_on channel=9 note=68 velocity=0 time=0.03373012500000001
EXTRACT: note_on channel=5 note=69 velocity=0 time=0.0079365
EXTRACT: note_on channel=5 note=66 velocity=0 time=0.005952375000000001
EXTRACT: note_on channel=5 note=61 velocity=0 time=0.005952375000000001
EXTRACT: note_on channel=9 note=44 velocity=0 time=0.00396825
EXTRACT: note_on channel=9 note=32 velocity=0 time=0
EXTRACT: note_on channel=7 note=57 velocity=0 time=0.00396825
EXTRACT: note_on channel=7 note=61 velocity=0 time=0.001984125
EXTRACT: note_on channel=9 note=56 velocity=0 time=0.015873
EXTRACT: note_on channel=10 note=61 velocity=0 time=0.0079365
EXTRACT: note_on channel=10 note=66 velocity=0 time=0.00396825
EXTRACT: note_on channel=7 note=54 velocity=0 time=0.025793625000000004
EXTRACT: note_on channel=7 note=57 velocity=80 time=0
EXTRACT: note_on channel=7 note=61 velocity=62 time=0
EXTRACT: note_on channel=9 note=32 velocity=71 time=0.009920625
EXTRACT: note_on channel=9 note=68 velocity=56 time=0
EXTRACT: note_on channel=10 note=57 velocity=0 time=0.00396825
EXTRACT: note_on channel=9 note=44 velocity=68 time=0.005952375000000001
EXTRACT: note_on channel=9 note=42 velocity=66 time=0.001984125
EXTRACT: note_on channel=9 note=69 velocity=73 time=0
EXTRACT: note_on channel=9 note=69 velocity=0 time=0.001984125
EXTRACT: note_on channel=9 note=42 velocity=0 time=0
EXTRACT: note_on channel=2 note=69 velocity=0 time=0.01984125
EXTRACT: note_on channel=2 note=61 velocity=0 time=0
EXTRACT: note_on channel=2 note=66 velocity=0 time=0
EXTRACT: note_on channel=7 note=57 velocity=0 time=0.009920625
EXTRACT: note_on channel=3 note=61 velocity=0 time=0.001984125
EXTRACT: note_on channel=9 note=32 velocity=0 time=0.017857125
EXTRACT: note_on channel=2 note=66 velocity=64 time=0
EXTRACT: note_on channel=2 note=64 velocity=64 time=0
EXTRACT: note_on channel=2 note=71 velocity=64 time=0
EXTRACT: note_on channel=0 note=78 velocity=60 time=0
EXTRACT: note_on channel=9 note=68 velocity=0 time=0.011904750000000002
EXTRACT: note_on channel=7 note=61 velocity=0 time=0
EXTRACT: note_on channel=9 note=44 velocity=0 time=0.0079365
EXTRACT: note_on channel=10 note=78 velocity=0 time=0.011904750000000002
EXTRACT: note_on channel=9 note=27 velocity=86 time=0.013888875000000002
EXTRACT: note_on channel=9 note=36 velocity=99 time=0
EXTRACT: note_on channel=9 note=42 velocity=92 time=0
EXTRACT: note_on channel=9 note=56 velocity=69 time=0
EXTRACT: note_on channel=1 note=35 velocity=120 time=0
EXTRACT: note_on channel=10 note=59 velocity=68 time=0
EXTRACT: note_on channel=10 note=64 velocity=61 time=0
EXTRACT: note_on channel=10 note=66 velocity=62 time=0
EXTRACT: note_on channel=10 note=71 velocity=70 time=0
EXTRACT: note_on channel=3 note=66 velocity=84 time=0
EXTRACT: note_on channel=5 note=59 velocity=89 time=0
EXTRACT: note_on channel=5 note=64 velocity=87 time=0
EXTRACT: note_on channel=5 note=66 velocity=89 time=0
EXTRACT: note_on channel=7 note=47 velocity=80 time=0
EXTRACT: note_on channel=9 note=36 velocity=126 time=0
EXTRACT: note_on channel=9 note=35 velocity=117 time=0
EXTRACT: note_on channel=9 note=35 velocity=0 time=0.001984125
EXTRACT: note_on channel=9 note=36 velocity=0 time=0
EXTRACT: note_on channel=1 note=30 velocity=0 time=0.001984125
EXTRACT: note_on channel=0 note=81 velocity=0 time=0.03571425
EXTRACT: note_on channel=5 note=64 velocity=0 time=0.023809500000000004
EXTRACT: note_on channel=9 note=27 velocity=0 time=0.015873
EXTRACT: note_on channel=9 note=36 velocity=0 time=0.00396825
EXTRACT: note_on channel=5 note=66 velocity=0 time=0.001984125
EXTRACT: note_on channel=3 note=66 velocity=0 time=0.0079365
EXTRACT: note_on channel=5 note=59 velocity=0 time=0.04761900000000001
EXTRACT: note_on channel=9 note=69 velocity=85 time=0
EXTRACT: note_on channel=9 note=69 velocity=0 time=0.001984125
EXTRACT: note_on channel=9 note=42 velocity=0 time=0.09126975000000001
EXTRACT: note_on channel=9 note=70 velocity=105 time=0
EXTRACT: note_on channel=9 note=27 velocity=85 time=0.00396825
EXTRACT: note_on channel=9 note=44 velocity=64 time=0
EXTRACT: note_on channel=9 note=67 velocity=36 time=0
EXTRACT: note_on channel=3 note=66 velocity=83 time=0
EXTRACT: note_on channel=7 note=52 velocity=89 time=0
EXTRACT: note_on channel=7 note=59 velocity=73 time=0
EXTRACT: note_on channel=9 note=70 velocity=0 time=0
EXTRACT: note_on channel=9 note=42 velocity=73 time=0
EXTRACT: note_on channel=9 note=62 velocity=62 time=0
EXTRACT: note_on channel=9 note=62 velocity=0 time=0.001984125
EXTRACT: note_on channel=9 note=42 velocity=0 time=0
EXTRACT: note_on channel=7 note=59 velocity=0 time=0.027777750000000004
EXTRACT: note_on channel=7 note=52 velocity=0 time=0
EXTRACT: note_on channel=9 note=67 velocity=0 time=0.011904750000000002
EXTRACT: note_on channel=9 note=44 velocity=0 time=0.001984125
EXTRACT: note_on channel=9 note=56 velocity=0 time=0.01984125
EXTRACT: note_on channel=9 note=27 velocity=0 time=0.011904750000000002
EXTRACT: note_on channel=3 note=66 velocity=0 time=0.009920625
EXTRACT: note_on channel=7 note=47 velocity=0 time=0.01984125
EXTRACT: note_on channel=9 note=65 velocity=89 time=0
EXTRACT: note_on channel=9 note=65 velocity=0 time=0.00396825
EXTRACT: note_on channel=7 note=52 velocity=99 time=0.009920625
EXTRACT: note_on channel=7 note=59 velocity=78 time=0
EXTRACT: note_on channel=9 note=60 velocity=58 time=0
EXTRACT: note_on channel=9 note=60 velocity=0 time=0.001984125
EXTRACT: note_on channel=9 note=67 velocity=51 time=0.0079365
EXTRACT: note_on channel=5 note=59 velocity=86 time=0
EXTRACT: note_on channel=5 note=64 velocity=94 time=0
EXTRACT: note_on channel=5 note=66 velocity=88 time=0
EXTRACT: note_on channel=9 note=44 velocity=75 time=0.009920625
EXTRACT: note_on channel=9 note=42 velocity=66 time=0.001984125
EXTRACT: note_on channel=9 note=69 velocity=71 time=0
EXTRACT: note_on channel=9 note=69 velocity=0 time=0.001984125
EXTRACT: note_on channel=9 note=42 velocity=0 time=0
EXTRACT: note_on channel=1 note=47 velocity=104 time=0.009920625
EXTRACT: note_on channel=7 note=52 velocity=0 time=0.01984125
EXTRACT: note_on channel=5 note=64 velocity=0 time=0.017857125
EXTRACT: note_on channel=9 note=67 velocity=0 time=0.011904750000000002
EXTRACT: note_on channel=7 note=59 velocity=0 time=0.001984125
EXTRACT: note_on channel=5 note=66 velocity=0 time=0.00396825
EXTRACT: note_on channel=9 note=44 velocity=0 time=0.005952375000000001
EXTRACT: note_on channel=9 note=28 velocity=82 time=0.023809500000000004
EXTRACT: note_on channel=9 note=32 velocity=83 time=0
EXTRACT: note_on channel=9 note=36 velocity=101 time=0
EXTRACT: note_on channel=9 note=39 velocity=104 time=0
EXTRACT: note_on channel=9 note=42 velocity=94 time=0
EXTRACT: note_on channel=9 note=56 velocity=73 time=0
EXTRACT: note_on channel=3 note=66 velocity=83 time=0
EXTRACT: note_on channel=7 note=47 velocity=83 time=0
EXTRACT: note_on channel=9 note=39 velocity=121 time=0
EXTRACT: note_on channel=9 note=36 velocity=126 time=0
EXTRACT: note_on channel=9 note=35 velocity=117 time=0
EXTRACT: note_on channel=9 note=40 velocity=117 time=0
EXTRACT: note_on channel=9 note=44 velocity=81 time=0
EXTRACT: note_on channel=9 note=62 velocity=70 time=0
EXTRACT: note_on channel=9 note=62 velocity=0 time=0.001984125
EXTRACT: note_on channel=9 note=36 velocity=0 time=0
EXTRACT: note_on channel=9 note=35 velocity=0 time=0
EXTRACT: note_on channel=9 note=39 velocity=0 time=0
EXTRACT: note_on channel=9 note=44 velocity=0 time=0
EXTRACT: note_on channel=9 note=40 velocity=0 time=0
EXTRACT: note_on channel=9 note=65 velocity=101 time=0.0079365
EXTRACT: note_on channel=1 note=47 velocity=0 time=0.001984125
EXTRACT: note_on channel=9 note=65 velocity=0 time=0
EXTRACT: note_on channel=5 note=59 velocity=0 time=0.027777750000000004
EXTRACT: note_on channel=9 note=32 velocity=0 time=0.031746
EXTRACT: note_on channel=9 note=28 velocity=0 time=0.00396825
EXTRACT: note_on channel=9 note=36 velocity=0 time=0.00396825
EXTRACT: note_on channel=1 note=35 velocity=0 time=0.00396825
EXTRACT: note_on channel=9 note=60 velocity=65 time=0.03571425
EXTRACT: note_on channel=9 note=60 velocity=0 time=0.001984125
EXTRACT: note_on channel=9 note=39 velocity=0 time=0.031746
EXTRACT: note_on channel=9 note=42 velocity=0 time=0.08134912500000001
EXTRACT: note_on channel=3 note=66 velocity=0 time=0
EXTRACT: note_on channel=9 note=32 velocity=78 time=0.00396825
EXTRACT: note_on channel=9 note=44 velocity=77 time=0
EXTRACT: note_on channel=9 note=68 velocity=48 time=0
EXTRACT: note_on channel=1 note=35 velocity=120 time=0
EXTRACT: note_on channel=3 note=64 velocity=73 time=0
EXTRACT: note_on channel=5 note=59 velocity=91 time=0
EXTRACT: note_on channel=5 note=64 velocity=91 time=0
EXTRACT: note_on channel=5 note=66 velocity=89 time=0
EXTRACT: note_on channel=7 note=52 velocity=99 time=0
EXTRACT: note_on channel=7 note=59 velocity=83 time=0
EXTRACT: note_on channel=9 note=42 velocity=73 time=0
EXTRACT: note_on channel=9 note=61 velocity=80 time=0
EXTRACT: note_on channel=9 note=61 velocity=0 time=0.001984125
EXTRACT: note_on channel=9 note=42 velocity=0 time=0
EXTRACT: note_on channel=9 note=70 velocity=105 time=0.001984125
EXTRACT: note_on channel=9 note=70 velocity=0 time=0.001984125
EXTRACT: note_on channel=9 note=68 velocity=0 time=0.027777750000000004
EXTRACT: note_on channel=9 note=56 velocity=0 time=0.009920625
EXTRACT: note_on channel=9 note=44 velocity=0 time=0.009920625
EXTRACT: note_on channel=7 note=52 velocity=0 time=0
EXTRACT: note_on channel=5 note=64 velocity=0 time=0.001984125
EXTRACT: note_on channel=7 note=59 velocity=0 time=0.0079365
EXTRACT: note_on channel=9 note=32 velocity=0 time=0.001984125
EXTRACT: note_on channel=5 note=66 velocity=0 time=0.013888875000000002
EXTRACT: note_on channel=5 note=59 velocity=0 time=0.011904750000000002
EXTRACT: note_on channel=10 note=64 velocity=0 time=0.0079365
EXTRACT: note_on channel=9 note=66 velocity=80 time=0
EXTRACT: note_on channel=9 note=66 velocity=0 time=0.001984125
EXTRACT: note_on channel=10 note=66 velocity=0 time=0.009920625
EXTRACT: note_on channel=7 note=52 velocity=89 time=0.0079365
EXTRACT: note_on channel=7 note=59 velocity=74 time=0
EXTRACT: note_on channel=9 note=60 velocity=70 time=0
EXTRACT: note_on channel=3 note=64 velocity=0 time=0.001984125
EXTRACT: note_on channel=9 note=60 velocity=0 time=0
EXTRACT: note_on channel=9 note=32 velocity=55 time=0.0079365
EXTRACT: note_on channel=9 note=68 velocity=57 time=0
EXTRACT: note_on channel=9 note=44 velocity=74 time=0.009920625
EXTRACT: note_on channel=9 note=42 velocity=66 time=0.001984125
EXTRACT: note_on channel=9 note=82 velocity=50 time=0
EXTRACT: note_on channel=9 note=82 velocity=0 time=0.001984125
EXTRACT: note_on channel=9 note=42 velocity=0 time=0
EXTRACT: note_on channel=10 note=59 velocity=0 time=0.005952375000000001
EXTRACT: note_on channel=7 note=47 velocity=0 time=0.00396825
EXTRACT: note_on channel=2 note=64 velocity=0 time=0.009920625
EXTRACT: note_on channel=2 note=66 velocity=0 time=0
EXTRACT: note_on channel=7 note=52 velocity=0 time=0.011904750000000002
EXTRACT: note_on channel=9 note=32 velocity=0 time=0.0079365
EXTRACT: note_on channel=2 note=63 velocity=64 time=0.009920625
EXTRACT: note_on channel=2 note=66 velocity=64 time=0
EXTRACT: note_on channel=9 note=68 velocity=0 time=0.005952375000000001
EXTRACT: note_on channel=7 note=59 velocity=0 time=0.005952375000000001
EXTRACT: note_on channel=9 note=44 velocity=0 time=0.005952375000000001
EXTRACT: note_on channel=9 note=27 velocity=87 time=0.027777750000000004
EXTRACT: note_on channel=9 note=36 velocity=103 time=0
EXTRACT: note_on channel=9 note=42 velocity=99 time=0
EXTRACT: note_on channel=9 note=56 velocity=72 time=0
EXTRACT: note_on channel=10 note=59 velocity=63 time=0
EXTRACT: note_on channel=10 note=63 velocity=65 time=0
EXTRACT: note_on channel=10 note=66 velocity=59 time=0
EXTRACT: note_on channel=3 note=68 velocity=85 time=0
EXTRACT: note_on channel=7 note=47 velocity=84 time=0
EXTRACT: note_on channel=9 note=36 velocity=126 time=0
EXTRACT: note_on channel=9 note=35 velocity=117 time=0
EXTRACT: note_on channel=9 note=44 velocity=81 time=0
EXTRACT: note_on channel=9 note=82 velocity=57 time=0
EXTRACT: note_on channel=9 note=56 velocity=83 time=0
EXTRACT: note_on channel=9 note=56 velocity=0 time=0.001984125
EXTRACT: note_on channel=9 note=44 velocity=0 time=0
EXTRACT: note_on channel=9 note=36 velocity=0 time=0
EXTRACT: note_on channel=9 note=35 velocity=0 time=0
EXTRACT: note_on channel=9 note=82 velocity=0 time=0
EXTRACT: note_on channel=9 note=66 velocity=87 time=0.001984125
EXTRACT: note_on channel=9 note=66 velocity=0 time=0.001984125
EXTRACT: note_on channel=9 note=36 velocity=0 time=0.07341262500000001
EXTRACT: note_on channel=9 note=27 velocity=0 time=0.005952375000000001
EXTRACT: note_on channel=9 note=63 velocity=60 time=0.03373012500000001
EXTRACT: note_on channel=9 note=63 velocity=0 time=0.001984125
EXTRACT: note_on channel=9 note=66 velocity=75 time=0.001984125
EXTRACT: note_on channel=9 note=66 velocity=0 time=0.001984125
EXTRACT: note_on channel=5 note=59 velocity=85 time=0.00396825
EXTRACT: note_on channel=5 note=63 velocity=91 time=0
EXTRACT: note_on channel=5 note=66 velocity=90 time=0
EXTRACT: note_on channel=9 note=82 velocity=38 time=0.011904750000000002
EXTRACT: note_on channel=9 note=82 velocity=0 time=0.001984125
EXTRACT: note_on channel=5 note=63 velocity=0 time=0.057539625000000004
EXTRACT: note_on channel=5 note=66 velocity=0 time=0.001984125
EXTRACT: note_on channel=5 note=59 velocity=0 time=0.027777750000000004
EXTRACT: note_on channel=9 note=42 velocity=0 time=0.00396825
EXTRACT: note_on channel=9 note=27 velocity=86 time=0.00396825
EXTRACT: note_on channel=9 note=44 velocity=78 time=0
EXTRACT: note_on channel=9 note=66 velocity=75 time=0
EXTRACT: note_on channel=9 note=67 velocity=53 time=0
EXTRACT: note_on channel=7 note=54 velocity=83 time=0
EXTRACT: note_on channel=7 note=59 velocity=79 time=0
EXTRACT: note_on channel=9 note=42 velocity=73 time=0
EXTRACT: note_on channel=9 note=82 velocity=60 time=0
EXTRACT: note_on channel=9 note=82 velocity=0 time=0.001984125
EXTRACT: note_on channel=9 note=42 velocity=0 time=0
EXTRACT: note_on channel=9 note=70 velocity=105 time=0.001984125
EXTRACT: note_on channel=9 note=70 velocity=0 time=0.001984125
EXTRACT: note_on channel=9 note=66 velocity=100 time=0
EXTRACT: note_on channel=9 note=66 velocity=0 time=0.00396825
EXTRACT: note_on channel=1 note=47 velocity=104 time=0.01984125
EXTRACT: note_on channel=9 note=67 velocity=0 time=0.009920625
EXTRACT: note_on channel=9 note=44 velocity=0 time=0.013888875000000002
EXTRACT: note_on channel=7 note=59 velocity=0 time=0.011904750000000002
EXTRACT: note_on channel=7 note=54 velocity=0 time=0.0079365
EXTRACT: note_on channel=9 note=66 velocity=0 time=0.001984125
EXTRACT: note_on channel=9 note=56 velocity=0 time=0.005952375000000001
EXTRACT: note_on channel=9 note=27 velocity=0 time=0.001984125
EXTRACT: note_on channel=9 note=65 velocity=99 time=0.027777750000000004
EXTRACT: note_on channel=7 note=47 velocity=0 time=0.001984125
EXTRACT: note_on channel=9 note=65 velocity=0 time=0
EXTRACT: note_on channel=7 note=54 velocity=83 time=0.005952375000000001
EXTRACT: note_on channel=7 note=59 velocity=82 time=0
EXTRACT: note_on channel=9 note=56 velocity=80 time=0
EXTRACT: note_on channel=9 note=56 velocity=0 time=0.001984125
EXTRACT: note_on channel=1 note=47 velocity=0 time=0.00396825
EXTRACT: note_on channel=9 note=67 velocity=45 time=0.00396825
EXTRACT: note_on channel=9 note=44 velocity=75 time=0.009920625
EXTRACT: note_on channel=9 note=42 velocity=66 time=0.001984125
EXTRACT: note_on channel=9 note=82 velocity=48 time=0
EXTRACT: note_on channel=9 note=82 velocity=0 time=0.001984125
EXTRACT: note_on channel=9 note=42 velocity=0 time=0
EXTRACT: note_on channel=1 note=35 velocity=0 time=0.015873
EXTRACT: note_on channel=9 note=44 velocity=0 time=0.045634875000000005
EXTRACT: note_on channel=9 note=67 velocity=0 time=0
EXTRACT: note_on channel=7 note=54 velocity=0 time=0.013888875000000002
EXTRACT: note_on channel=7 note=59 velocity=0 time=0.005952375000000001
EXTRACT: note_on channel=3 note=68 velocity=0 time=0.009920625
EXTRACT: note_on channel=9 note=65 velocity=115 time=0
EXTRACT: note_on channel=9 note=28 velocity=85 time=0.00396825
EXTRACT: note_on channel=9 note=32 velocity=87 time=0
EXTRACT: note_on channel=9 note=36 velocity=103 time=0
EXTRACT: note_on channel=9 note=39 velocity=104 time=0
EXTRACT: note_on channel=9 note=42 velocity=99 time=0
EXTRACT: note_on channel=9 note=56 velocity=75 time=0
EXTRACT: note_on channel=9 note=65 velocity=73 time=0
EXTRACT: note_on channel=1 note=32 velocity=120 time=0
EXTRACT: note_on channel=3 note=66 velocity=84 time=0
EXTRACT: note_on channel=5 note=59 velocity=89 time=0
EXTRACT: note_on channel=5 note=63 velocity=94 time=0
EXTRACT: note_on channel=5 note=66 velocity=91 time=0
EXTRACT: note_on channel=7 note=47 velocity=81 time=0
EXTRACT: note_on channel=9 note=65 velocity=0 time=0
EXTRACT: note_on channel=9 note=36 velocity=126 time=0
EXTRACT: note_on channel=9 note=35 velocity=117 time=0
EXTRACT: note_on channel=9 note=39 velocity=121 time=0
EXTRACT: note_on channel=9 note=40 velocity=117 time=0
EXTRACT: note_on channel=9 note=44 velocity=81 time=0
EXTRACT: note_on channel=9 note=82 velocity=61 time=0
EXTRACT: note_on channel=9 note=82 velocity=0 time=0.001984125
EXTRACT: note_on channel=9 note=35 velocity=0 time=0
EXTRACT: note_on channel=9 note=39 velocity=0 time=0
EXTRACT: note_on channel=9 note=36 velocity=0 time=0
EXTRACT: note_on channel=9 note=44 velocity=0 time=0
EXTRACT: note_on channel=9 note=40 velocity=0 time=0
EXTRACT: note_on channel=9 note=65 velocity=0 time=0.03373012500000001
EXTRACT: note_on channel=9 note=32 velocity=0 time=0.029761875000000004
EXTRACT: note_on channel=9 note=28 velocity=0 time=0.0079365
EXTRACT: note_on channel=9 note=36 velocity=0 time=0.001984125
EXTRACT: note_on channel=9 note=39 velocity=0 time=0.0079365
EXTRACT: note_on channel=10 note=71 velocity=0 time=0.105158625
EXTRACT: note_on channel=1 note=32 velocity=0 time=0.023809500000000004
EXTRACT: note_on channel=9 note=42 velocity=0 time=0.001984125
EXTRACT: note_on channel=9 note=70 velocity=105 time=0.017857125
EXTRACT: note_on channel=9 note=70 velocity=0 time=0.001984125
EXTRACT: note_on channel=9 note=32 velocity=74 time=0.00396825
EXTRACT: note_on channel=9 note=44 velocity=81 time=0
EXTRACT: note_on channel=9 note=65 velocity=68 time=0
EXTRACT: note_on channel=9 note=68 velocity=53 time=0
EXTRACT: note_on channel=1 note=35 velocity=120 time=0
EXTRACT: note_on channel=7 note=54 velocity=79 time=0
EXTRACT: note_on channel=7 note=59 velocity=76 time=0
EXTRACT: note_on channel=9 note=42 velocity=75 time=0
EXTRACT: note_on channel=9 note=69 velocity=87 time=0
EXTRACT: note_on channel=9 note=56 velocity=80 time=0
EXTRACT: note_on channel=9 note=56 velocity=0 time=0.001984125
EXTRACT: note_on channel=9 note=69 velocity=0 time=0
EXTRACT: note_on channel=9 note=42 velocity=0 time=0
EXTRACT: note_on channel=9 note=65 velocity=0 time=0.027777750000000004
EXTRACT: note_on channel=9 note=68 velocity=0 time=0.01984125
EXTRACT: note_on channel=9 note=44 velocity=0 time=0.005952375000000001
EXTRACT: note_on channel=9 note=32 velocity=0 time=0.00396825
EXTRACT: note_on channel=7 note=59 velocity=0 time=0.00396825
EXTRACT: note_on channel=7 note=54 velocity=0 time=0.001984125
EXTRACT: note_on channel=10 note=63 velocity=0 time=0.015873
EXTRACT: note_on channel=5 note=63 velocity=0 time=0
EXTRACT: note_on channel=5 note=66 velocity=0 time=0.009920625
EXTRACT: note_on channel=9 note=56 velocity=0 time=0.0079365
EXTRACT: note_on channel=2 note=71 velocity=0 time=0.013888875000000002
EXTRACT: note_on channel=5 note=59 velocity=0 time=0.001984125
EXTRACT: note_on channel=7 note=54 velocity=84 time=0.00396825
EXTRACT: note_on channel=7 note=59 velocity=62 time=0
EXTRACT: note_on channel=9 note=32 velocity=69 time=0.009920625
EXTRACT: note_on channel=9 note=65 velocity=70 time=0
EXTRACT: note_on channel=9 note=68 velocity=52 time=0
EXTRACT: note_on channel=10 note=66 velocity=0 time=0.001984125
EXTRACT: note_on channel=10 note=59 velocity=0 time=0.001984125
EXTRACT: note_on channel=9 note=44 velocity=62 time=0.005952375000000001
EXTRACT: note_on channel=9 note=42 velocity=66 time=0.001984125
EXTRACT: note_on channel=9 note=69 velocity=69 time=0
EXTRACT: note_on channel=9 note=69 velocity=0 time=0.001984125
EXTRACT: note_on channel=9 note=42 velocity=0 time=0
EXTRACT: note_on channel=2 note=66 velocity=0 time=0.01984125
EXTRACT: note_on channel=2 note=63 velocity=0 time=0
EXTRACT: note_on channel=7 note=47 velocity=0 time=0.011904750000000002
EXTRACT: note_on channel=9 note=65 velocity=0 time=0.005952375000000001
EXTRACT: note_on channel=9 note=68 velocity=0 time=0.011904750000000002
EXTRACT: note_on channel=9 note=32 velocity=0 time=0.001984125
EXTRACT: note_on channel=7 note=59 velocity=0 time=0.00396825
EXTRACT: note_on channel=7 note=54 velocity=0 time=0
EXTRACT: note_on channel=0 note=78 velocity=0 time=0.00396825
EXTRACT: note_on channel=9 note=44 velocity=0 time=0.001984125
EXTRACT: note_on channel=3 note=66 velocity=0 time=0.029761875000000004
EXTRACT: note_on channel=9 note=27 velocity=106 time=0.00396825
EXTRACT: note_on channel=9 note=36 velocity=113 time=0
EXTRACT: note_on channel=9 note=46 velocity=97 time=0
EXTRACT: note_on channel=9 note=49 velocity=88 time=0
EXTRACT: note_on channel=9 note=56 velocity=83 time=0
EXTRACT: note_on channel=9 note=57 velocity=77 time=0
EXTRACT: note_on channel=1 note=37 velocity=90 time=0
EXTRACT: note_on channel=1 note=49 velocity=90 time=0
EXTRACT: note_on channel=10 note=56 velocity=71 time=0
EXTRACT: note_on channel=10 note=61 velocity=48 time=0
EXTRACT: note_on channel=10 note=64 velocity=64 time=0
EXTRACT: note_on channel=3 note=64 velocity=68 time=0
EXTRACT: note_on channel=5 note=56 velocity=101 time=0
EXTRACT: note_on channel=5 note=61 velocity=85 time=0
EXTRACT: note_on channel=5 note=64 velocity=90 time=0
EXTRACT: note_on channel=6 note=56 velocity=93 time=0
EXTRACT: note_on channel=6 note=61 velocity=76 time=0
EXTRACT: note_on channel=6 note=64 velocity=80 time=0
EXTRACT: note_on channel=7 note=49 velocity=87 time=0
EXTRACT: note_on channel=7 note=56 velocity=90 time=0
EXTRACT: note_on channel=1 note=35 velocity=0 time=0.053571375000000004
EXTRACT: note_on channel=9 note=46 velocity=0 time=0.005952375000000001
EXTRACT: note_on channel=6 note=64 velocity=0 time=0.00396825
EXTRACT: note_on channel=9 note=36 velocity=0 time=0.001984125
EXTRACT: note_on channel=6 note=56 velocity=0 time=0.0079365
EXTRACT: note_on channel=9 note=49 velocity=0 time=0.001984125
EXTRACT: note_on channel=6 note=61 velocity=0 time=0.005952375000000001
EXTRACT: note_on channel=9 note=57 velocity=0 time=0.017857125
EXTRACT: note_on channel=9 note=27 velocity=0 time=0.01984125
EXTRACT: note_on channel=1 note=37 velocity=0 time=0.05158725000000001
EXTRACT: note_on channel=1 note=49 velocity=0 time=0.009920625
EXTRACT: note_on channel=1 note=49 velocity=90 time=0.176587125
EXTRACT: note_on channel=1 note=37 velocity=90 time=0
EXTRACT: note_on channel=6 note=56 velocity=90 time=0.009920625
EXTRACT: note_on channel=6 note=61 velocity=79 time=0
EXTRACT: note_on channel=6 note=64 velocity=79 time=0
EXTRACT: note_on channel=6 note=64 velocity=0 time=0.069444375
EXTRACT: note_on channel=6 note=61 velocity=0 time=0.009920625
EXTRACT: note_on channel=6 note=56 velocity=0 time=0
EXTRACT: note_on channel=1 note=37 velocity=0 time=0.09325387500000001
EXTRACT: note_on channel=1 note=49 velocity=0 time=0.009920625
EXTRACT: note_on channel=1 note=49 velocity=90 time=0.16468237500000002
EXTRACT: note_on channel=1 note=37 velocity=90 time=0
EXTRACT: note_on channel=6 note=56 velocity=88 time=0
EXTRACT: note_on channel=6 note=61 velocity=79 time=0
EXTRACT: note_on channel=6 note=64 velocity=80 time=0
EXTRACT: note_on channel=3 note=64 velocity=0 time=0.061507875000000004
EXTRACT: note_on channel=6 note=61 velocity=0 time=0.08134912500000001
EXTRACT: note_on channel=6 note=64 velocity=0 time=0.001984125
EXTRACT: note_on channel=6 note=56 velocity=0 time=0.0079365
EXTRACT: note_on channel=1 note=49 velocity=0 time=0.03571425
EXTRACT: note_on channel=1 note=37 velocity=0 time=0.001984125
EXTRACT: note_on channel=9 note=50 velocity=76 time=0.04761900000000001
EXTRACT: note_on channel=9 note=50 velocity=0 time=0.23412675000000002
EXTRACT: note_on channel=1 note=49 velocity=90 time=0.00396825
EXTRACT: note_on channel=1 note=37 velocity=90 time=0
EXTRACT: note_on channel=3 note=64 velocity=99 time=0
EXTRACT: note_on channel=6 note=56 velocity=87 time=0
EXTRACT: note_on channel=6 note=61 velocity=83 time=0
EXTRACT: note_on channel=6 note=64 velocity=84 time=0
EXTRACT: note_on channel=6 note=64 velocity=0 time=0.05555550000000001
EXTRACT: note_on channel=9 note=56 velocity=0 time=0.01984125
EXTRACT: note_on channel=6 note=61 velocity=0 time=0
EXTRACT: note_on channel=6 note=56 velocity=0 time=0.017857125
EXTRACT: note_on channel=3 note=64 velocity=0 time=0.10714275000000001
EXTRACT: note_on channel=9 note=48 velocity=86 time=0.037698375000000006
EXTRACT: note_on channel=3 note=66 velocity=84 time=0
EXTRACT: note_on channel=5 note=56 velocity=0 time=0.031746
EXTRACT: note_on channel=5 note=64 velocity=0 time=0.009920625
EXTRACT: note_on channel=5 note=61 velocity=0 time=0
EXTRACT: note_on channel=1 note=37 velocity=0 time=0.0079365
EXTRACT: note_on channel=1 note=49 velocity=0 time=0.00396825
EXTRACT: note_on channel=9 note=48 velocity=0 time=0.01984125
EXTRACT: note_on channel=6 note=56 velocity=91 time=0.05555550000000001
EXTRACT: note_on channel=6 note=61 velocity=83 time=0
EXTRACT: note_on channel=6 note=64 velocity=83 time=0
EXTRACT: note_on channel=7 note=49 velocity=0 time=0.045634875000000005
EXTRACT: note_on channel=3 note=66 velocity=0 time=0.0079365
EXTRACT: note_on channel=7 note=56 velocity=0 time=0.025793625000000004
EXTRACT: note_on channel=6 note=64 velocity=0 time=0.009920625
EXTRACT: control_change channel=9 control=11 value=0 time=0
EXTRACT: note_on channel=6 note=56 velocity=0 time=0.001984125
EXTRACT: note_on channel=6 note=61 velocity=0 time=0.009920625
EXTRACT: note_on channel=9 note=43 velocity=76 time=0.0079365
EXTRACT: note_on channel=3 note=68 velocity=95 time=0
EXTRACT: note_on channel=10 note=61 velocity=0 time=0.00396825
EXTRACT: note_on channel=10 note=56 velocity=0 time=0.0079365
EXTRACT: note_on channel=9 note=57 velocity=81 time=0
EXTRACT: note_on channel=10 note=64 velocity=0 time=0.001984125
EXTRACT: note_on channel=9 note=57 velocity=0 time=0
EXTRACT: control_change channel=9 control=11 value=2 time=0.031746
EXTRACT: control_change channel=9 control=11 value=19 time=0.025793625000000004
EXTRACT: control_change channel=9 control=11 value=37 time=0.027777750000000004
EXTRACT: control_change channel=9 control=11 value=55 time=0.025793625000000004
EXTRACT: control_change channel=9 control=11 value=73 time=0.027777750000000004
EXTRACT: control_change channel=9 control=11 value=90 time=0.025793625000000004
EXTRACT: control_change channel=9 control=11 value=108 time=0.025793625000000004
EXTRACT: control_change channel=9 control=11 value=127 time=0.027777750000000004
EXTRACT: note_on channel=9 note=43 velocity=0 time=0.001984125
EXTRACT: note_on channel=1 note=37 velocity=95 time=0.00396825
EXTRACT: note_on channel=10 note=56 velocity=77 time=0
EXTRACT: note_on channel=10 note=61 velocity=57 time=0
EXTRACT: note_on channel=10 note=64 velocity=64 time=0
EXTRACT: note_on channel=5 note=56 velocity=87 time=0
EXTRACT: note_on channel=5 note=61 velocity=73 time=0
EXTRACT: note_on channel=5 note=64 velocity=78 time=0
EXTRACT: note_on channel=6 note=56 velocity=65 time=0
EXTRACT: note_on channel=6 note=61 velocity=51 time=0
EXTRACT: note_on channel=6 note=64 velocity=56 time=0
EXTRACT: note_on channel=9 note=36 velocity=126 time=0
EXTRACT: note_on channel=9 note=35 velocity=117 time=0
EXTRACT: note_on channel=9 note=44 velocity=81 time=0
EXTRACT: note_on channel=9 note=60 velocity=69 time=0
EXTRACT: note_on channel=9 note=60 velocity=0 time=0.001984125
EXTRACT: note_on channel=9 note=36 velocity=0 time=0
EXTRACT: note_on channel=9 note=35 velocity=0 time=0
EXTRACT: note_on channel=9 note=44 velocity=0 time=0
EXTRACT: note_on channel=5 note=64 velocity=0 time=0.0714285
EXTRACT: note_on channel=5 note=56 velocity=0 time=0.0079365
EXTRACT: note_on channel=5 note=61 velocity=0 time=0.011904750000000002
EXTRACT: note_on channel=9 note=69 velocity=93 time=0.04761900000000001
EXTRACT: note_on channel=9 note=69 velocity=0 time=0.001984125
EXTRACT: note_on channel=6 note=64 velocity=0 time=0.029761875000000004
EXTRACT: note_on channel=6 note=61 velocity=0 time=0
EXTRACT: note_on channel=6 note=56 velocity=0 time=0
EXTRACT: note_on channel=3 note=68 velocity=0 time=0.021825375
EXTRACT: note_on channel=1 note=37 velocity=0 time=0.027777750000000004
EXTRACT: note_on channel=1 note=32 velocity=77 time=0.015873
EXTRACT: note_on channel=3 note=64 velocity=99 time=0
EXTRACT: note_on channel=9 note=42 velocity=73 time=0
EXTRACT: note_on channel=9 note=62 velocity=59 time=0
EXTRACT: note_on channel=9 note=70 velocity=105 time=0
EXTRACT: note_on channel=9 note=70 velocity=0 time=0.001984125
EXTRACT: note_on channel=9 note=62 velocity=0 time=0
EXTRACT: note_on channel=9 note=42 velocity=0 time=0
EXTRACT: note_on channel=9 note=60 velocity=63 time=0.11706337500000001
EXTRACT: note_on channel=9 note=60 velocity=0 time=0.001984125
EXTRACT: note_on channel=5 note=56 velocity=80 time=0.0079365
EXTRACT: note_on channel=5 note=61 velocity=71 time=0
EXTRACT: note_on channel=5 note=64 velocity=76 time=0
EXTRACT: note_on channel=6 note=56 velocity=58 time=0
EXTRACT: note_on channel=6 note=61 velocity=49 time=0
EXTRACT: note_on channel=6 note=64 velocity=54 time=0
EXTRACT: note_on channel=9 note=42 velocity=66 time=0.011904750000000002
EXTRACT: note_on channel=9 note=69 velocity=61 time=0
EXTRACT: note_on channel=9 note=69 velocity=0 time=0.001984125
EXTRACT: note_on channel=9 note=42 velocity=0 time=0
EXTRACT: note_on channel=3 note=64 velocity=0 time=0.05555550000000001
EXTRACT: note_on channel=5 note=64 velocity=0 time=0.005952375000000001
EXTRACT: note_on channel=5 note=61 velocity=0 time=0
EXTRACT: note_on channel=5 note=56 velocity=0 time=0.017857125
EXTRACT: note_on channel=1 note=32 velocity=0 time=0.0079365
EXTRACT: note_on channel=1 note=35 velocity=69 time=0.0079365
EXTRACT: note_on channel=3 note=66 velocity=78 time=0
EXTRACT: note_on channel=9 note=40 velocity=117 time=0
EXTRACT: note_on channel=9 note=36 velocity=126 time=0
EXTRACT: note_on channel=9 note=35 velocity=117 time=0
EXTRACT: note_on channel=9 note=39 velocity=121 time=0
EXTRACT: note_on channel=9 note=44 velocity=81 time=0
EXTRACT: note_on channel=9 note=69 velocity=78 time=0
EXTRACT: note_on channel=9 note=69 velocity=0 time=0.001984125
EXTRACT: note_on channel=9 note=36 velocity=0 time=0
EXTRACT: note_on channel=9 note=35 velocity=0 time=0
EXTRACT: note_on channel=9 note=40 velocity=0 time=0
EXTRACT: note_on channel=9 note=44 velocity=0 time=0
EXTRACT: note_on channel=9 note=39 velocity=0 time=0
EXTRACT: note_on channel=6 note=64 velocity=0 time=0.061507875000000004
EXTRACT: note_on channel=6 note=61 velocity=0 time=0
EXTRACT: note_on channel=6 note=56 velocity=0 time=0
EXTRACT: note_on channel=9 note=61 velocity=73 time=0.05555550000000001
EXTRACT: note_on channel=9 note=61 velocity=0 time=0.001984125
EXTRACT: note_on channel=3 note=66 velocity=0 time=0.061507875000000004
EXTRACT: note_on channel=1 note=35 velocity=0 time=0.05158725000000001
EXTRACT: note_on channel=1 note=37 velocity=92 time=0.00396825
EXTRACT: note_on channel=3 note=68 velocity=87 time=0
EXTRACT: note_on channel=5 note=56 velocity=87 time=0
EXTRACT: note_on channel=5 note=61 velocity=75 time=0
EXTRACT: note_on channel=5 note=64 velocity=78 time=0
EXTRACT: note_on channel=6 note=56 velocity=65 time=0
EXTRACT: note_on channel=6 note=61 velocity=53 time=0
EXTRACT: note_on channel=6 note=64 velocity=56 time=0
EXTRACT: note_on channel=9 note=42 velocity=73 time=0
EXTRACT: note_on channel=9 note=60 velocity=66 time=0
EXTRACT: note_on channel=9 note=60 velocity=0 time=0.001984125
EXTRACT: note_on channel=9 note=42 velocity=0 time=0
EXTRACT: note_on channel=9 note=70 velocity=105 time=0
EXTRACT: note_on channel=9 note=70 velocity=0 time=0.001984125
EXTRACT: note_on channel=5 note=64 velocity=0 time=0.06547612500000001
EXTRACT: note_on channel=5 note=61 velocity=0 time=0.005952375000000001
EXTRACT: note_on channel=5 note=56 velocity=0 time=0.015873
EXTRACT: note_on channel=9 note=62 velocity=69 time=0.027777750000000004
EXTRACT: note_on channel=9 note=62 velocity=0 time=0.001984125
EXTRACT: note_on channel=9 note=42 velocity=66 time=0.01984125
EXTRACT: note_on channel=9 note=42 velocity=0 time=0.001984125
EXTRACT: note_on channel=6 note=64 velocity=0 time=0.029761875000000004
EXTRACT: note_on channel=6 note=61 velocity=0 time=0
EXTRACT: note_on channel=6 note=56 velocity=0 time=0
EXTRACT: note_on channel=1 note=37 velocity=0 time=0.061507875000000004
EXTRACT: note_on channel=9 note=36 velocity=126 time=0.00396825
EXTRACT: note_on channel=9 note=35 velocity=117 time=0
EXTRACT: note_on channel=9 note=44 velocity=81 time=0
EXTRACT: note_on channel=9 note=82 velocity=69 time=0
EXTRACT: note_on channel=9 note=56 velocity=87 time=0
EXTRACT: note_on channel=9 note=60 velocity=63 time=0
EXTRACT: note_on channel=9 note=60 velocity=0 time=0.001984125
EXTRACT: note_on channel=9 note=35 velocity=0 time=0
EXTRACT: note_on channel=9 note=44 velocity=0 time=0
EXTRACT: note_on channel=9 note=36 velocity=0 time=0
EXTRACT: note_on channel=9 note=56 velocity=0 time=0
EXTRACT: note_on channel=9 note=82 velocity=0 time=0
EXTRACT: note_on channel=9 note=82 velocity=43 time=0.13888875
EXTRACT: note_on channel=9 note=82 velocity=0 time=0.001984125
EXTRACT: note_on channel=3 note=68 velocity=0 time=0.0873015
EXTRACT: note_on channel=9 note=70 velocity=105 time=0
EXTRACT: note_on channel=9 note=70 velocity=0 time=0.001984125
EXTRACT: note_on channel=1 note=37 velocity=91 time=0.005952375000000001
EXTRACT: note_on channel=3 note=64 velocity=84 time=0
EXTRACT: note_on channel=5 note=56 velocity=82 time=0
EXTRACT: note_on channel=5 note=61 velocity=76 time=0
EXTRACT: note_on channel=5 note=64 velocity=78 time=0
EXTRACT: note_on channel=6 note=56 velocity=60 time=0
EXTRACT: note_on channel=6 note=61 velocity=54 time=0
EXTRACT: note_on channel=6 note=64 velocity=56 time=0
EXTRACT: note_on channel=9 note=42 velocity=73 time=0
EXTRACT: note_on channel=9 note=82 velocity=48 time=0
EXTRACT: note_on channel=9 note=82 velocity=0 time=0.001984125
EXTRACT: note_on channel=9 note=42 velocity=0 time=0
EXTRACT: note_on channel=5 note=64 velocity=0 time=0.069444375
EXTRACT: note_on channel=5 note=61 velocity=0 time=0.001984125
EXTRACT: note_on channel=5 note=56 velocity=0 time=0.015873
EXTRACT: note_on channel=9 note=56 velocity=87 time=0.029761875000000004
EXTRACT: note_on channel=9 note=56 velocity=0 time=0.001984125
EXTRACT: note_on channel=9 note=42 velocity=66 time=0.01984125
EXTRACT: note_on channel=9 note=82 velocity=40 time=0
EXTRACT: note_on channel=9 note=82 velocity=0 time=0.001984125
EXTRACT: note_on channel=9 note=42 velocity=0 time=0
EXTRACT: note_on channel=6 note=64 velocity=0 time=0.029761875000000004
EXTRACT: note_on channel=6 note=61 velocity=0 time=0
EXTRACT: note_on channel=6 note=56 velocity=0 time=0
EXTRACT: note_on channel=1 note=37 velocity=0 time=0.015873
EXTRACT: note_on channel=3 note=64 velocity=0 time=0.0396825
EXTRACT: note_on channel=3 note=66 velocity=82 time=0.009920625
EXTRACT: note_on channel=9 note=39 velocity=121 time=0
EXTRACT: note_on channel=9 note=40 velocity=117 time=0
EXTRACT: note_on channel=9 note=36 velocity=126 time=0
EXTRACT: note_on channel=9 note=35 velocity=117 time=0
EXTRACT: note_on channel=9 note=44 velocity=81 time=0
EXTRACT: note_on channel=9 note=82 velocity=69 time=0
EXTRACT: note_on channel=9 note=82 velocity=0 time=0.001984125
EXTRACT: note_on channel=9 note=40 velocity=0 time=0
EXTRACT: note_on channel=9 note=36 velocity=0 time=0
EXTRACT: note_on channel=9 note=39 velocity=0 time=0
EXTRACT: note_on channel=9 note=44 velocity=0 time=0
EXTRACT: note_on channel=9 note=35 velocity=0 time=0
EXTRACT: note_on channel=5 note=56 velocity=84 time=0.126984
EXTRACT: note_on channel=5 note=61 velocity=73 time=0
EXTRACT: note_on channel=5 note=64 velocity=77 time=0
EXTRACT: note_on channel=6 note=56 velocity=62 time=0
EXTRACT: note_on channel=6 note=61 velocity=51 time=0
EXTRACT: note_on channel=6 note=64 velocity=55 time=0
EXTRACT: note_on channel=3 note=66 velocity=0 time=0.063492
EXTRACT: note_on channel=5 note=64 velocity=0 time=0.0079365
EXTRACT: note_on channel=5 note=61 velocity=0 time=0.009920625
EXTRACT: note_on channel=5 note=56 velocity=0 time=0.00396825
EXTRACT: note_on channel=9 note=70 velocity=105 time=0.017857125
EXTRACT: note_on channel=9 note=70 velocity=0 time=0.001984125
EXTRACT: note_on channel=1 note=37 velocity=91 time=0.00396825
EXTRACT: note_on channel=3 note=68 velocity=90 time=0
EXTRACT: note_on channel=9 note=42 velocity=73 time=0
EXTRACT: note_on channel=9 note=69 velocity=78 time=0
EXTRACT: note_on channel=9 note=56 velocity=87 time=0
EXTRACT: note_on channel=9 note=56 velocity=0 time=0.001984125
EXTRACT: note_on channel=9 note=69 velocity=0 time=0
EXTRACT: note_on channel=9 note=42 velocity=0 time=0
EXTRACT: note_on channel=6 note=64 velocity=0 time=0.061507875000000004
EXTRACT: note_on channel=6 note=61 velocity=0 time=0
EXTRACT: note_on channel=6 note=56 velocity=0 time=0
EXTRACT: note_on channel=10 note=64 velocity=0 time=0.01984125
EXTRACT: note_on channel=10 note=61 velocity=0 time=0.005952375000000001
EXTRACT: note_on channel=10 note=56 velocity=0 time=0.04365075
EXTRACT: note_on channel=9 note=42 velocity=66 time=0.0079365
EXTRACT: note_on channel=9 note=69 velocity=73 time=0
EXTRACT: note_on channel=9 note=69 velocity=0 time=0.001984125
EXTRACT: note_on channel=9 note=42 velocity=0 time=0
EXTRACT: note_on channel=1 note=37 velocity=0 time=0.09126975000000001
EXTRACT: note_on channel=1 note=30 velocity=79 time=0.00396825
EXTRACT: note_on channel=10 note=57 velocity=62 time=0
EXTRACT: note_on channel=10 note=61 velocity=48 time=0
EXTRACT: note_on channel=10 note=66 velocity=51 time=0
EXTRACT: note_on channel=5 note=57 velocity=76 time=0
EXTRACT: note_on channel=5 note=61 velocity=73 time=0
EXTRACT: note_on channel=5 note=66 velocity=75 time=0
EXTRACT: note_on channel=6 note=57 velocity=54 time=0
EXTRACT: note_on channel=6 note=61 velocity=51 time=0
EXTRACT: note_on channel=6 note=66 velocity=53 time=0
EXTRACT: note_on channel=9 note=36 velocity=126 time=0
EXTRACT: note_on channel=9 note=35 velocity=117 time=0
EXTRACT: note_on channel=9 note=35 velocity=0 time=0.001984125
EXTRACT: note_on channel=9 note=36 velocity=0 time=0
EXTRACT: note_on channel=5 note=61 velocity=0 time=0.0714285
EXTRACT: note_on channel=5 note=57 velocity=0 time=0.005952375000000001
EXTRACT: note_on channel=5 note=66 velocity=0 time=0.009920625
EXTRACT: note_on channel=9 note=69 velocity=84 time=0.05158725000000001
EXTRACT: note_on channel=9 note=69 velocity=0 time=0.001984125
EXTRACT: note_on channel=6 note=66 velocity=0 time=0.029761875000000004
EXTRACT: note_on channel=6 note=61 velocity=0 time=0
EXTRACT: note_on channel=6 note=57 velocity=0 time=0
EXTRACT: note_on channel=3 note=68 velocity=0 time=0.009920625
EXTRACT: note_on channel=1 note=30 velocity=0 time=0.05158725000000001
EXTRACT: note_on channel=9 note=70 velocity=105 time=0
EXTRACT: note_on channel=1 note=33 velocity=68 time=0.00396825
EXTRACT: note_on channel=3 note=69 velocity=94 time=0
EXTRACT: note_on channel=9 note=70 velocity=0 time=0
EXTRACT: note_on channel=9 note=42 velocity=73 time=0
EXTRACT: note_on channel=9 note=62 velocity=79 time=0
EXTRACT: note_on channel=9 note=62 velocity=0 time=0.001984125
EXTRACT: note_on channel=9 note=42 velocity=0 time=0
EXTRACT: note_on channel=9 note=61 velocity=69 time=0.11706337500000001
EXTRACT: note_on channel=9 note=61 velocity=0 time=0.001984125
EXTRACT: note_on channel=5 note=57 velocity=67 time=0.0079365
EXTRACT: note_on channel=5 note=61 velocity=71 time=0
EXTRACT: note_on channel=5 note=66 velocity=76 time=0
EXTRACT: note_on channel=6 note=57 velocity=45 time=0
EXTRACT: note_on channel=6 note=61 velocity=49 time=0
EXTRACT: note_on channel=6 note=66 velocity=54 time=0
EXTRACT: note_on channel=9 note=42 velocity=66 time=0.011904750000000002
EXTRACT: note_on channel=9 note=69 velocity=68 time=0
EXTRACT: note_on channel=9 note=69 velocity=0 time=0.001984125
EXTRACT: note_on channel=9 note=42 velocity=0 time=0
EXTRACT: note_on channel=5 note=57 velocity=0 time=0.05158725000000001
EXTRACT: note_on channel=5 note=61 velocity=0 time=0.00396825
EXTRACT: note_on channel=5 note=66 velocity=0 time=0.021825375
EXTRACT: note_on channel=1 note=33 velocity=0 time=0.011904750000000002
EXTRACT: note_on channel=3 note=69 velocity=0 time=0.001984125
EXTRACT: note_on channel=1 note=35 velocity=74 time=0.00396825
EXTRACT: note_on channel=3 note=68 velocity=84 time=0
EXTRACT: note_on channel=9 note=39 velocity=121 time=0
EXTRACT: note_on channel=9 note=36 velocity=126 time=0
EXTRACT: note_on channel=9 note=35 velocity=117 time=0
EXTRACT: note_on channel=9 note=40 velocity=117 time=0
EXTRACT: note_on channel=9 note=44 velocity=81 time=0
EXTRACT: note_on channel=9 note=44 velocity=0 time=0.001984125
EXTRACT: note_on channel=9 note=35 velocity=0 time=0
EXTRACT: note_on channel=9 note=39 velocity=0 time=0
EXTRACT: note_on channel=9 note=36 velocity=0 time=0
EXTRACT: note_on channel=9 note=40 velocity=0 time=0
EXTRACT: note_on channel=6 note=66 velocity=0 time=0.061507875000000004
EXTRACT: note_on channel=6 note=61 velocity=0 time=0
EXTRACT: note_on channel=6 note=57 velocity=0 time=0
EXTRACT: note_on channel=9 note=62 velocity=73 time=0.05555550000000001
EXTRACT: note_on channel=9 note=62 velocity=0 time=0.001984125
EXTRACT: note_on channel=1 note=35 velocity=0 time=0.11309512500000002
EXTRACT: note_on channel=3 note=68 velocity=0 time=0
EXTRACT: note_on channel=1 note=37 velocity=92 time=0.00396825
EXTRACT: note_on channel=3 note=66 velocity=85 time=0
EXTRACT: note_on channel=5 note=57 velocity=74 time=0
EXTRACT: note_on channel=5 note=61 velocity=70 time=0
EXTRACT: note_on channel=5 note=66 velocity=73 time=0
EXTRACT: note_on channel=6 note=57 velocity=52 time=0
EXTRACT: note_on channel=6 note=61 velocity=48 time=0
EXTRACT: note_on channel=6 note=66 velocity=51 time=0
EXTRACT: note_on channel=9 note=42 velocity=73 time=0
EXTRACT: note_on channel=9 note=61 velocity=66 time=0
EXTRACT: note_on channel=9 note=61 velocity=0 time=0.001984125
EXTRACT: note_on channel=9 note=42 velocity=0 time=0
EXTRACT: note_on channel=9 note=70 velocity=105 time=0.001984125
EXTRACT: note_on channel=9 note=70 velocity=0 time=0.001984125
EXTRACT: note_on channel=5 note=61 velocity=0 time=0.057539625000000004
EXTRACT: note_on channel=5 note=57 velocity=0 time=0.005952375000000001
EXTRACT: note_on channel=5 note=66 velocity=0 time=0.015873
EXTRACT: note_on channel=9 note=42 velocity=66 time=0.05555550000000001
EXTRACT: note_on channel=9 note=82 velocity=48 time=0
EXTRACT: note_on channel=9 note=82 velocity=0 time=0.001984125
EXTRACT: note_on channel=9 note=42 velocity=0 time=0
EXTRACT: note_on channel=6 note=66 velocity=0 time=0.029761875000000004
EXTRACT: note_on channel=6 note=61 velocity=0 time=0
EXTRACT: note_on channel=6 note=57 velocity=0 time=0
EXTRACT: note_on channel=1 note=37 velocity=0 time=0.015873
EXTRACT: note_on channel=9 note=36 velocity=126 time=0.049603125000000005
EXTRACT: note_on channel=9 note=35 velocity=117 time=0
EXTRACT: note_on channel=9 note=44 velocity=81 time=0
EXTRACT: note_on channel=9 note=82 velocity=55 time=0
EXTRACT: note_on channel=9 note=56 velocity=80 time=0
EXTRACT: note_on channel=9 note=56 velocity=0 time=0.001984125
EXTRACT: note_on channel=9 note=44 velocity=0 time=0
EXTRACT: note_on channel=9 note=36 velocity=0 time=0
EXTRACT: note_on channel=9 note=35 velocity=0 time=0
EXTRACT: note_on channel=9 note=82 velocity=0 time=0
EXTRACT: note_on channel=9 note=82 velocity=63 time=0.13888875
EXTRACT: note_on channel=9 note=82 velocity=0 time=0.001984125
EXTRACT: note_on channel=3 note=66 velocity=0 time=0.09126975000000001
EXTRACT: note_on channel=1 note=30 velocity=86 time=0.00396825
EXTRACT: note_on channel=3 note=63 velocity=82 time=0
EXTRACT: note_on channel=5 note=57 velocity=75 time=0
EXTRACT: note_on channel=5 note=61 velocity=72 time=0
EXTRACT: note_on channel=5 note=66 velocity=78 time=0
EXTRACT: note_on channel=6 note=57 velocity=53 time=0
EXTRACT: note_on channel=6 note=61 velocity=50 time=0
EXTRACT: note_on channel=6 note=66 velocity=56 time=0
EXTRACT: note_on channel=9 note=42 velocity=73 time=0
EXTRACT: note_on channel=9 note=82 velocity=59 time=0
EXTRACT: note_on channel=9 note=63 velocity=60 time=0
EXTRACT: note_on channel=9 note=63 velocity=0 time=0.001984125
EXTRACT: note_on channel=9 note=82 velocity=0 time=0
EXTRACT: note_on channel=9 note=42 velocity=0 time=0
EXTRACT: note_on channel=9 note=70 velocity=105 time=0.001984125
EXTRACT: note_on channel=9 note=70 velocity=0 time=0.001984125
EXTRACT: note_on channel=5 note=57 velocity=0 time=0.05555550000000001
EXTRACT: note_on channel=5 note=61 velocity=0 time=0.001984125
EXTRACT: note_on channel=5 note=66 velocity=0 time=0.01984125
EXTRACT: note_on channel=9 note=56 velocity=89 time=0.03571425
EXTRACT: note_on channel=9 note=56 velocity=0 time=0.001984125
EXTRACT: note_on channel=9 note=42 velocity=66 time=0.01984125
EXTRACT: note_on channel=9 note=82 velocity=45 time=0
EXTRACT: note_on channel=9 note=82 velocity=0 time=0.001984125
EXTRACT: note_on channel=9 note=42 velocity=0 time=0
EXTRACT: note_on channel=6 note=66 velocity=0 time=0.029761875000000004
EXTRACT: note_on channel=6 note=61 velocity=0 time=0
EXTRACT: note_on channel=6 note=57 velocity=0 time=0
EXTRACT: note_on channel=1 note=30 velocity=0 time=0.029761875000000004
EXTRACT: note_on channel=3 note=63 velocity=0 time=0.017857125
EXTRACT: note_on channel=3 note=64 velocity=70 time=0.017857125
EXTRACT: note_on channel=9 note=36 velocity=126 time=0
EXTRACT: note_on channel=9 note=35 velocity=117 time=0
EXTRACT: note_on channel=9 note=39 velocity=121 time=0
EXTRACT: note_on channel=9 note=40 velocity=117 time=0
EXTRACT: note_on channel=9 note=44 velocity=81 time=0
EXTRACT: note_on channel=9 note=82 velocity=60 time=0
EXTRACT: note_on channel=9 note=82 velocity=0 time=0.001984125
EXTRACT: note_on channel=9 note=35 velocity=0 time=0
EXTRACT: note_on channel=9 note=39 velocity=0 time=0
EXTRACT: note_on channel=9 note=36 velocity=0 time=0
EXTRACT: note_on channel=9 note=44 velocity=0 time=0
EXTRACT: note_on channel=9 note=40 velocity=0 time=0
EXTRACT: note_on channel=5 note=57 velocity=77 time=0.126984
EXTRACT: note_on channel=5 note=61 velocity=72 time=0
EXTRACT: note_on channel=5 note=66 velocity=78 time=0
EXTRACT: note_on channel=6 note=57 velocity=55 time=0
EXTRACT: note_on channel=6 note=61 velocity=50 time=0
EXTRACT: note_on channel=6 note=66 velocity=56 time=0
EXTRACT: note_on channel=5 note=61 velocity=0 time=0.061507875000000004
EXTRACT: note_on channel=5 note=57 velocity=0 time=0
EXTRACT: note_on channel=5 note=66 velocity=0 time=0.023809500000000004
EXTRACT: note_on channel=3 note=64 velocity=0 time=0.015873
EXTRACT: note_on channel=9 note=70 velocity=105 time=0.001984125
EXTRACT: note_on channel=9 note=70 velocity=0 time=0.001984125
EXTRACT: note_on channel=1 note=30 velocity=81 time=0.00396825
EXTRACT: note_on channel=3 note=66 velocity=86 time=0
EXTRACT: note_on channel=9 note=42 velocity=75 time=0
EXTRACT: note_on channel=9 note=69 velocity=87 time=0
EXTRACT: note_on channel=9 note=56 velocity=87 time=0
EXTRACT: note_on channel=9 note=56 velocity=0 time=0.001984125
EXTRACT: note_on channel=9 note=69 velocity=0 time=0
EXTRACT: note_on channel=9 note=42 velocity=0 time=0
EXTRACT: note_on channel=6 note=66 velocity=0 time=0.061507875000000004
EXTRACT: note_on channel=6 note=61 velocity=0 time=0
EXTRACT: note_on channel=6 note=57 velocity=0 time=0
EXTRACT: note_on channel=10 note=66 velocity=0 time=0.03571425
EXTRACT: note_on channel=10 note=61 velocity=0 time=0.005952375000000001
EXTRACT: note_on channel=9 note=62 velocity=64 time=0.013888875000000002
EXTRACT: note_on channel=9 note=62 velocity=0 time=0.001984125
EXTRACT: note_on channel=9 note=42 velocity=66 time=0.01984125
EXTRACT: note_on channel=9 note=69 velocity=69 time=0
EXTRACT: note_on channel=9 note=69 velocity=0 time=0.001984125
EXTRACT: note_on channel=9 note=42 velocity=0 time=0
EXTRACT: note_on channel=10 note=57 velocity=0 time=0.0079365
EXTRACT: note_on channel=1 note=30 velocity=0 time=0.08333325000000001
EXTRACT: note_on channel=1 note=35 velocity=85 time=0.00396825
EXTRACT: note_on channel=10 note=59 velocity=67 time=0
EXTRACT: note_on channel=10 note=63 velocity=65 time=0
EXTRACT: note_on channel=10 note=66 velocity=62 time=0
EXTRACT: note_on channel=5 note=59 velocity=82 time=0
EXTRACT: note_on channel=5 note=63 velocity=73 time=0
EXTRACT: note_on channel=5 note=66 velocity=65 time=0
EXTRACT: note_on channel=6 note=59 velocity=60 time=0
EXTRACT: note_on channel=6 note=63 velocity=51 time=0
EXTRACT: note_on channel=6 note=66 velocity=43 time=0
EXTRACT: note_on channel=9 note=36 velocity=126 time=0
EXTRACT: note_on channel=9 note=35 velocity=117 time=0
EXTRACT: note_on channel=9 note=44 velocity=81 time=0
EXTRACT: note_on channel=9 note=60 velocity=69 time=0
EXTRACT: note_on channel=9 note=60 velocity=0 time=0.001984125
EXTRACT: note_on channel=9 note=36 velocity=0 time=0
EXTRACT: note_on channel=9 note=35 velocity=0 time=0
EXTRACT: note_on channel=9 note=44 velocity=0 time=0
EXTRACT: note_on channel=5 note=63 velocity=0 time=0.053571375000000004
EXTRACT: note_on channel=5 note=59 velocity=0 time=0.023809500000000004
EXTRACT: note_on channel=5 note=66 velocity=0 time=0.005952375000000001
EXTRACT: note_on channel=9 note=69 velocity=93 time=0.05555550000000001
EXTRACT: note_on channel=9 note=69 velocity=0 time=0.001984125
EXTRACT: note_on channel=6 note=66 velocity=0 time=0.029761875000000004
EXTRACT: note_on channel=6 note=63 velocity=0 time=0
EXTRACT: note_on channel=6 note=59 velocity=0 time=0
EXTRACT: note_on channel=1 note=35 velocity=0 time=0.045634875000000005
EXTRACT: note_on channel=3 note=66 velocity=0 time=0.015873
EXTRACT: note_on channel=1 note=30 velocity=76 time=0.00396825
EXTRACT: note_on channel=3 note=63 velocity=79 time=0
EXTRACT: note_on channel=9 note=42 velocity=73 time=0
EXTRACT: note_on channel=9 note=62 velocity=59 time=0
EXTRACT: note_on channel=9 note=70 velocity=105 time=0
EXTRACT: note_on channel=9 note=70 velocity=0 time=0.001984125
EXTRACT: note_on channel=9 note=62 velocity=0 time=0
EXTRACT: note_on channel=9 note=42 velocity=0 time=0
EXTRACT: note_on channel=9 note=60 velocity=63 time=0.11706337500000001
EXTRACT: note_on channel=9 note=60 velocity=0 time=0.001984125
EXTRACT: note_on channel=5 note=59 velocity=75 time=0.0079365
EXTRACT: note_on channel=5 note=63 velocity=76 time=0
EXTRACT: note_on channel=5 note=66 velocity=72 time=0
EXTRACT: note_on channel=6 note=59 velocity=53 time=0
EXTRACT: note_on channel=6 note=63 velocity=54 time=0
EXTRACT: note_on channel=6 note=66 velocity=50 time=0
EXTRACT: note_on channel=9 note=42 velocity=66 time=0.011904750000000002
EXTRACT: note_on channel=9 note=69 velocity=61 time=0
EXTRACT: note_on channel=9 note=69 velocity=0 time=0.001984125
EXTRACT: note_on channel=9 note=42 velocity=0 time=0
EXTRACT: note_on channel=5 note=63 velocity=0 time=0.04761900000000001
EXTRACT: note_on channel=3 note=63 velocity=0 time=0.01984125
EXTRACT: note_on channel=5 note=66 velocity=0 time=0.0079365
EXTRACT: note_on channel=5 note=59 velocity=0 time=0.001984125
EXTRACT: note_on channel=1 note=30 velocity=0 time=0.013888875000000002
EXTRACT: note_on channel=1 note=33 velocity=74 time=0.00396825
EXTRACT: note_on channel=3 note=64 velocity=73 time=0
EXTRACT: note_on channel=9 note=40 velocity=117 time=0
EXTRACT: note_on channel=9 note=36 velocity=126 time=0
EXTRACT: note_on channel=9 note=35 velocity=117 time=0
EXTRACT: note_on channel=9 note=39 velocity=121 time=0
EXTRACT: note_on channel=9 note=44 velocity=81 time=0
EXTRACT: note_on channel=9 note=69 velocity=78 time=0
EXTRACT: note_on channel=9 note=69 velocity=0 time=0.001984125
EXTRACT: note_on channel=9 note=36 velocity=0 time=0
EXTRACT: note_on channel=9 note=35 velocity=0 time=0
EXTRACT: note_on channel=9 note=40 velocity=0 time=0
EXTRACT: note_on channel=9 note=44 velocity=0 time=0
EXTRACT: note_on channel=9 note=39 velocity=0 time=0
EXTRACT: note_on channel=6 note=66 velocity=0 time=0.061507875000000004
EXTRACT: note_on channel=6 note=63 velocity=0 time=0
EXTRACT: note_on channel=6 note=59 velocity=0 time=0
EXTRACT: note_on channel=9 note=61 velocity=73 time=0.05555550000000001
EXTRACT: note_on channel=9 note=61 velocity=0 time=0.001984125
EXTRACT: note_on channel=1 note=33 velocity=0 time=0.10317450000000002
EXTRACT: note_on channel=3 note=64 velocity=0 time=0
EXTRACT: note_on channel=1 note=35 velocity=87 time=0.013888875000000002
EXTRACT: note_on channel=3 note=66 velocity=85 time=0
EXTRACT: note_on channel=5 note=59 velocity=78 time=0
EXTRACT: note_on channel=5 note=63 velocity=80 time=0
EXTRACT: note_on channel=5 note=66 velocity=73 time=0
EXTRACT: note_on channel=6 note=59 velocity=56 time=0
EXTRACT: note_on channel=6 note=63 velocity=58 time=0
EXTRACT: note_on channel=6 note=66 velocity=51 time=0
EXTRACT: note_on channel=9 note=42 velocity=73 time=0
EXTRACT: note_on channel=9 note=60 velocity=66 time=0
EXTRACT: note_on channel=9 note=60 velocity=0 time=0.001984125
EXTRACT: note_on channel=9 note=42 velocity=0 time=0
EXTRACT: note_on channel=9 note=70 velocity=105 time=0
EXTRACT: note_on channel=9 note=70 velocity=0 time=0.001984125
EXTRACT: note_on channel=5 note=63 velocity=0 time=0.057539625000000004
EXTRACT: note_on channel=5 note=66 velocity=0 time=0.01984125
EXTRACT: note_on channel=5 note=59 velocity=0 time=0.013888875000000002
EXTRACT: note_on channel=9 note=62 velocity=69 time=0.023809500000000004
EXTRACT: note_on channel=9 note=62 velocity=0 time=0.001984125
EXTRACT: note_on channel=9 note=42 velocity=66 time=0.01984125
EXTRACT: note_on channel=9 note=42 velocity=0 time=0.001984125
EXTRACT: note_on channel=6 note=66 velocity=0 time=0.029761875000000004
EXTRACT: note_on channel=6 note=63 velocity=0 time=0
EXTRACT: note_on channel=6 note=59 velocity=0 time=0
EXTRACT: note_on channel=1 note=35 velocity=0 time=0.0079365
EXTRACT: note_on channel=9 note=36 velocity=126 time=0.057539625000000004
EXTRACT: note_on channel=9 note=35 velocity=117 time=0
EXTRACT: note_on channel=9 note=44 velocity=81 time=0
EXTRACT: note_on channel=9 note=82 velocity=69 time=0
EXTRACT: note_on channel=9 note=56 velocity=87 time=0
EXTRACT: note_on channel=9 note=60 velocity=63 time=0
EXTRACT: note_on channel=9 note=60 velocity=0 time=0.001984125
EXTRACT: note_on channel=9 note=35 velocity=0 time=0
EXTRACT: note_on channel=9 note=44 velocity=0 time=0
EXTRACT: note_on channel=9 note=36 velocity=0 time=0
EXTRACT: note_on channel=9 note=56 velocity=0 time=0
EXTRACT: note_on channel=9 note=82 velocity=0 time=0
EXTRACT: note_on channel=3 note=66 velocity=0 time=0.11706337500000001
EXTRACT: note_on channel=9 note=82 velocity=43 time=0.021825375
EXTRACT: note_on channel=9 note=82 velocity=0 time=0.001984125
EXTRACT: note_on channel=9 note=70 velocity=105 time=0.0873015
EXTRACT: note_on channel=9 note=70 velocity=0 time=0.001984125
EXTRACT: note_on channel=1 note=35 velocity=84 time=0.005952375000000001
EXTRACT: note_on channel=3 note=66 velocity=91 time=0
EXTRACT: note_on channel=5 note=59 velocity=77 time=0
EXTRACT: note_on channel=5 note=63 velocity=81 time=0
EXTRACT: note_on channel=5 note=66 velocity=79 time=0
EXTRACT: note_on channel=6 note=59 velocity=55 time=0
EXTRACT: note_on channel=6 note=63 velocity=59 time=0
EXTRACT: note_on channel=6 note=66 velocity=57 time=0
EXTRACT: note_on channel=9 note=42 velocity=73 time=0
EXTRACT: note_on channel=9 note=82 velocity=48 time=0
EXTRACT: note_on channel=9 note=82 velocity=0 time=0.001984125
EXTRACT: note_on channel=9 note=42 velocity=0 time=0
EXTRACT: note_on channel=5 note=63 velocity=0 time=0.05952375000000001
EXTRACT: note_on channel=5 note=66 velocity=0 time=0.01984125
EXTRACT: note_on channel=5 note=59 velocity=0 time=0
EXTRACT: note_on channel=9 note=56 velocity=87 time=0.037698375000000006
EXTRACT: note_on channel=9 note=56 velocity=0 time=0.001984125
EXTRACT: note_on channel=9 note=42 velocity=66 time=0.01984125
EXTRACT: note_on channel=9 note=82 velocity=40 time=0
EXTRACT: note_on channel=9 note=82 velocity=0 time=0.001984125
EXTRACT: note_on channel=9 note=42 velocity=0 time=0
EXTRACT: note_on channel=6 note=66 velocity=0 time=0.029761875000000004
EXTRACT: note_on channel=6 note=63 velocity=0 time=0
EXTRACT: note_on channel=6 note=59 velocity=0 time=0
EXTRACT: note_on channel=1 note=35 velocity=0 time=0.009920625
EXTRACT: note_on channel=3 note=66 velocity=0 time=0.05158725000000001
EXTRACT: note_on channel=3 note=68 velocity=82 time=0.00396825
EXTRACT: note_on channel=9 note=39 velocity=121 time=0
EXTRACT: note_on channel=9 note=40 velocity=117 time=0
EXTRACT: note_on channel=9 note=36 velocity=126 time=0
EXTRACT: note_on channel=9 note=35 velocity=117 time=0
EXTRACT: note_on channel=9 note=44 velocity=81 time=0
EXTRACT: note_on channel=9 note=82 velocity=69 time=0
EXTRACT: note_on channel=9 note=82 velocity=0 time=0.001984125
EXTRACT: note_on channel=9 note=40 velocity=0 time=0
EXTRACT: note_on channel=9 note=36 velocity=0 time=0
EXTRACT: note_on channel=9 note=39 velocity=0 time=0
EXTRACT: note_on channel=9 note=44 velocity=0 time=0
EXTRACT: note_on channel=9 note=35 velocity=0 time=0
EXTRACT: note_on channel=5 note=59 velocity=75 time=0.126984
EXTRACT: note_on channel=5 note=63 velocity=72 time=0
EXTRACT: note_on channel=5 note=66 velocity=76 time=0
EXTRACT: note_on channel=6 note=59 velocity=53 time=0
EXTRACT: note_on channel=6 note=63 velocity=50 time=0
EXTRACT: note_on channel=6 note=66 velocity=54 time=0
EXTRACT: note_on channel=5 note=63 velocity=0 time=0.053571375000000004
EXTRACT: note_on channel=5 note=59 velocity=0 time=0.0079365
EXTRACT: note_on channel=3 note=68 velocity=0 time=0.013888875000000002
EXTRACT: note_on channel=5 note=66 velocity=0 time=0.013888875000000002
EXTRACT: note_on channel=9 note=70 velocity=105 time=0.013888875000000002
EXTRACT: note_on channel=9 note=70 velocity=0 time=0.001984125
EXTRACT: note_on channel=1 note=35 velocity=87 time=0.00396825
EXTRACT: note_on channel=3 note=66 velocity=85 time=0
EXTRACT: note_on channel=9 note=42 velocity=73 time=0
EXTRACT: note_on channel=9 note=69 velocity=78 time=0
EXTRACT: note_on channel=9 note=56 velocity=87 time=0
EXTRACT: note_on channel=9 note=56 velocity=0 time=0.001984125
EXTRACT: note_on channel=9 note=69 velocity=0 time=0
EXTRACT: note_on channel=9 note=42 velocity=0 time=0
EXTRACT: note_on channel=10 note=63 velocity=0 time=0.061507875000000004
EXTRACT: note_on channel=6 note=66 velocity=0 time=0
EXTRACT: note_on channel=6 note=63 velocity=0 time=0
EXTRACT: note_on channel=6 note=59 velocity=0 time=0
EXTRACT: note_on channel=10 note=66 velocity=0 time=0.017857125
EXTRACT: note_on channel=10 note=59 velocity=0 time=0.053571375000000004
EXTRACT: note_on channel=9 note=42 velocity=66 time=0.005952375000000001
EXTRACT: note_on channel=9 note=69 velocity=73 time=0
EXTRACT: note_on channel=9 note=69 velocity=0 time=0.001984125
EXTRACT: note_on channel=9 note=42 velocity=0 time=0
EXTRACT: note_on channel=1 note=35 velocity=0 time=0.05158725000000001
EXTRACT: note_on channel=1 note=37 velocity=88 time=0.04365075
EXTRACT: note_on channel=10 note=56 velocity=71 time=0
EXTRACT: note_on channel=10 note=61 velocity=46 time=0
EXTRACT: note_on channel=10 note=64 velocity=63 time=0
EXTRACT: note_on channel=5 note=56 velocity=77 time=0
EXTRACT: note_on channel=5 note=61 velocity=71 time=0
EXTRACT: note_on channel=5 note=64 velocity=83 time=0
EXTRACT: note_on channel=6 note=56 velocity=55 time=0
EXTRACT: note_on channel=6 note=61 velocity=49 time=0
EXTRACT: note_on channel=6 note=64 velocity=61 time=0
EXTRACT: note_on channel=9 note=36 velocity=126 time=0
EXTRACT: note_on channel=9 note=35 velocity=117 time=0
EXTRACT: note_on channel=9 note=35 velocity=0 time=0.001984125
EXTRACT: note_on channel=9 note=36 velocity=0 time=0
EXTRACT: note_on channel=5 note=64 velocity=0 time=0.061507875000000004
EXTRACT: note_on channel=5 note=61 velocity=0 time=0.017857125
EXTRACT: note_on channel=5 note=56 velocity=0 time=0.001984125
EXTRACT: note_on channel=9 note=69 velocity=84 time=0.057539625000000004
EXTRACT: note_on channel=9 note=69 velocity=0 time=0.001984125
EXTRACT: note_on channel=6 note=64 velocity=0 time=0.029761875000000004
EXTRACT: note_on channel=6 note=61 velocity=0 time=0
EXTRACT: note_on channel=6 note=56 velocity=0 time=0
EXTRACT: note_on channel=3 note=66 velocity=0 time=0.001984125
EXTRACT: note_on channel=1 note=37 velocity=0 time=0.057539625000000004
EXTRACT: note_on channel=9 note=70 velocity=105 time=0.001984125
EXTRACT: note_on channel=1 note=32 velocity=78 time=0.00396825
EXTRACT: note_on channel=3 note=64 velocity=92 time=0
EXTRACT: note_on channel=9 note=70 velocity=0 time=0
EXTRACT: note_on channel=9 note=42 velocity=73 time=0
EXTRACT: note_on channel=9 note=62 velocity=79 time=0
EXTRACT: note_on channel=9 note=62 velocity=0 time=0.001984125
EXTRACT: note_on channel=9 note=42 velocity=0 time=0
EXTRACT: note_on channel=9 note=61 velocity=69 time=0.11706337500000001
EXTRACT: note_on channel=9 note=61 velocity=0 time=0.001984125
EXTRACT: note_on channel=5 note=56 velocity=81 time=0.0079365
EXTRACT: note_on channel=5 note=61 velocity=65 time=0
EXTRACT: note_on channel=5 note=64 velocity=79 time=0
EXTRACT: note_on channel=6 note=56 velocity=59 time=0
EXTRACT: note_on channel=6 note=61 velocity=43 time=0
EXTRACT: note_on channel=6 note=64 velocity=57 time=0
EXTRACT: note_on channel=9 note=42 velocity=66 time=0.011904750000000002
EXTRACT: note_on channel=9 note=69 velocity=68 time=0
EXTRACT: note_on channel=9 note=69 velocity=0 time=0.001984125
EXTRACT: note_on channel=9 note=42 velocity=0 time=0
EXTRACT: note_on channel=5 note=61 velocity=0 time=0.05158725000000001
EXTRACT: note_on channel=5 note=64 velocity=0 time=0.005952375000000001
EXTRACT: note_on channel=5 note=56 velocity=0 time=0.0079365
EXTRACT: note_on channel=1 note=32 velocity=0 time=0.025793625000000004
EXTRACT: note_on channel=1 note=35 velocity=76 time=0.00396825
EXTRACT: note_on channel=9 note=39 velocity=121 time=0
EXTRACT: note_on channel=9 note=36 velocity=126 time=0
EXTRACT: note_on channel=9 note=35 velocity=117 time=0
EXTRACT: note_on channel=9 note=40 velocity=117 time=0
EXTRACT: note_on channel=9 note=44 velocity=81 time=0
EXTRACT: note_on channel=9 note=44 velocity=0 time=0.001984125
EXTRACT: note_on channel=9 note=35 velocity=0 time=0
EXTRACT: note_on channel=9 note=39 velocity=0 time=0
EXTRACT: note_on channel=9 note=36 velocity=0 time=0
EXTRACT: note_on channel=9 note=40 velocity=0 time=0
EXTRACT: note_on channel=6 note=64 velocity=0 time=0.061507875000000004
EXTRACT: note_on channel=6 note=61 velocity=0 time=0
EXTRACT: note_on channel=6 note=56 velocity=0 time=0
EXTRACT: note_on channel=9 note=62 velocity=73 time=0.05555550000000001
EXTRACT: note_on channel=9 note=62 velocity=0 time=0.001984125
EXTRACT: note_on channel=1 note=35 velocity=0 time=0.11309512500000002
EXTRACT: note_on channel=1 note=37 velocity=86 time=0.00396825
EXTRACT: note_on channel=5 note=56 velocity=79 time=0
EXTRACT: note_on channel=5 note=61 velocity=71 time=0
EXTRACT: note_on channel=5 note=64 velocity=75 time=0
EXTRACT: note_on channel=6 note=56 velocity=57 time=0
EXTRACT: note_on channel=6 note=61 velocity=49 time=0
EXTRACT: note_on channel=6 note=64 velocity=53 time=0
EXTRACT: note_on channel=9 note=42 velocity=73 time=0
EXTRACT: note_on channel=9 note=61 velocity=66 time=0
EXTRACT: note_on channel=9 note=61 velocity=0 time=0.001984125
EXTRACT: note_on channel=9 note=42 velocity=0 time=0
EXTRACT: note_on channel=9 note=70 velocity=105 time=0.001984125
EXTRACT: note_on channel=9 note=70 velocity=0 time=0.001984125
EXTRACT: note_on channel=5 note=61 velocity=0 time=0.057539625000000004
EXTRACT: note_on channel=5 note=64 velocity=0 time=0.009920625
EXTRACT: note_on channel=5 note=56 velocity=0 time=0.01984125
EXTRACT: note_on channel=9 note=42 velocity=66 time=0.04761900000000001
EXTRACT: note_on channel=9 note=82 velocity=48 time=0
EXTRACT: note_on channel=9 note=82 velocity=0 time=0.001984125
EXTRACT: note_on channel=9 note=42 velocity=0 time=0
EXTRACT: note_on channel=6 note=64 velocity=0 time=0.029761875000000004
EXTRACT: note_on channel=6 note=61 velocity=0 time=0
EXTRACT: note_on channel=6 note=56 velocity=0 time=0
EXTRACT: note_on channel=1 note=37 velocity=0 time=0.04761900000000001
EXTRACT: note_on channel=3 note=64 velocity=0 time=0.00396825
EXTRACT: note_on channel=9 note=36 velocity=126 time=0.013888875000000002
EXTRACT: note_on channel=9 note=35 velocity=117 time=0
EXTRACT: note_on channel=9 note=44 velocity=81 time=0
EXTRACT: note_on channel=9 note=82 velocity=55 time=0
EXTRACT: note_on channel=9 note=56 velocity=80 time=0
EXTRACT: note_on channel=9 note=56 velocity=0 time=0.001984125
EXTRACT: note_on channel=9 note=44 velocity=0 time=0
EXTRACT: note_on channel=9 note=36 velocity=0 time=0
EXTRACT: note_on channel=9 note=35 velocity=0 time=0
EXTRACT: note_on channel=9 note=82 velocity=0 time=0
EXTRACT: note_on channel=9 note=82 velocity=63 time=0.13888875
EXTRACT: note_on channel=9 note=82 velocity=0 time=0.001984125
EXTRACT: note_on channel=1 note=37 velocity=92 time=0.09523800000000002
EXTRACT: note_on channel=4 note=64 velocity=99 time=0
EXTRACT: note_on channel=5 note=56 velocity=77 time=0
EXTRACT: note_on channel=5 note=61 velocity=71 time=0
EXTRACT: note_on channel=5 note=64 velocity=77 time=0
EXTRACT: note_on channel=6 note=56 velocity=55 time=0
EXTRACT: note_on channel=6 note=61 velocity=49 time=0
EXTRACT: note_on channel=6 note=64 velocity=55 time=0
EXTRACT: note_on channel=9 note=42 velocity=73 time=0
EXTRACT: note_on channel=9 note=82 velocity=59 time=0
EXTRACT: note_on channel=9 note=63 velocity=60 time=0
EXTRACT: note_on channel=9 note=63 velocity=0 time=0.001984125
EXTRACT: note_on channel=9 note=82 velocity=0 time=0
EXTRACT: note_on channel=9 note=42 velocity=0 time=0
EXTRACT: note_on channel=9 note=70 velocity=105 time=0.001984125
EXTRACT: note_on channel=9 note=70 velocity=0 time=0.001984125
EXTRACT: note_on channel=5 note=61 velocity=0 time=0.05952375000000001
EXTRACT: note_on channel=5 note=64 velocity=0 time=0.00396825
EXTRACT: note_on channel=5 note=56 velocity=0 time=0.021825375
EXTRACT: note_on channel=9 note=56 velocity=89 time=0.027777750000000004
EXTRACT: note_on channel=9 note=56 velocity=0 time=0.001984125
EXTRACT: note_on channel=9 note=42 velocity=66 time=0.01984125
EXTRACT: note_on channel=9 note=82 velocity=45 time=0
EXTRACT: note_on channel=9 note=82 velocity=0 time=0.001984125
EXTRACT: note_on channel=9 note=42 velocity=0 time=0
EXTRACT: note_on channel=6 note=64 velocity=0 time=0.029761875000000004
EXTRACT: note_on channel=6 note=61 velocity=0 time=0
EXTRACT: note_on channel=6 note=56 velocity=0 time=0
EXTRACT: note_on channel=1 note=37 velocity=0 time=0.061507875000000004
EXTRACT: note_on channel=4 note=64 velocity=0 time=0
EXTRACT: note_on channel=1 note=32 velocity=79 time=0.00396825
EXTRACT: note_on channel=4 note=66 velocity=85 time=0
EXTRACT: note_on channel=9 note=36 velocity=126 time=0
EXTRACT: note_on channel=9 note=35 velocity=117 time=0
EXTRACT: note_on channel=9 note=39 velocity=121 time=0
EXTRACT: note_on channel=9 note=40 velocity=117 time=0
EXTRACT: note_on channel=9 note=44 velocity=81 time=0
EXTRACT: note_on channel=9 note=82 velocity=60 time=0
EXTRACT: note_on channel=9 note=82 velocity=0 time=0.001984125
EXTRACT: note_on channel=9 note=35 velocity=0 time=0
EXTRACT: note_on channel=9 note=39 velocity=0 time=0
EXTRACT: note_on channel=9 note=36 velocity=0 time=0
EXTRACT: note_on channel=9 note=44 velocity=0 time=0
EXTRACT: note_on channel=9 note=40 velocity=0 time=0
EXTRACT: note_on channel=5 note=56 velocity=80 time=0.126984
EXTRACT: note_on channel=5 note=61 velocity=69 time=0
EXTRACT: note_on channel=5 note=64 velocity=77 time=0
EXTRACT: note_on channel=6 note=56 velocity=58 time=0
EXTRACT: note_on channel=6 note=61 velocity=47 time=0
EXTRACT: note_on channel=6 note=64 velocity=55 time=0
EXTRACT: note_on channel=4 note=66 velocity=0 time=0.05158725000000001
EXTRACT: note_on channel=5 note=61 velocity=0 time=0.013888875000000002
EXTRACT: note_on channel=5 note=64 velocity=0 time=0.0079365
EXTRACT: note_on channel=5 note=56 velocity=0 time=0.015873
EXTRACT: note_on channel=9 note=70 velocity=105 time=0.013888875000000002
EXTRACT: note_on channel=1 note=32 velocity=0 time=0.001984125
EXTRACT: note_on channel=9 note=70 velocity=0 time=0
EXTRACT: note_on channel=1 note=35 velocity=71 time=0.00396825
EXTRACT: note_on channel=4 note=68 velocity=92 time=0
EXTRACT: note_on channel=9 note=42 velocity=75 time=0
EXTRACT: note_on channel=9 note=69 velocity=87 time=0
EXTRACT: note_on channel=9 note=56 velocity=87 time=0
EXTRACT: note_on channel=9 note=56 velocity=0 time=0.001984125
EXTRACT: note_on channel=9 note=69 velocity=0 time=0
EXTRACT: note_on channel=9 note=42 velocity=0 time=0
EXTRACT: note_on channel=6 note=64 velocity=0 time=0.061507875000000004
EXTRACT: note_on channel=6 note=61 velocity=0 time=0
EXTRACT: note_on channel=6 note=56 velocity=0 time=0
EXTRACT: note_on channel=9 note=62 velocity=64 time=0.05555550000000001
EXTRACT: note_on channel=9 note=62 velocity=0 time=0.001984125
EXTRACT: note_on channel=9 note=42 velocity=66 time=0.01984125
EXTRACT: note_on channel=9 note=69 velocity=69 time=0
EXTRACT: note_on channel=9 note=69 velocity=0 time=0.001984125
EXTRACT: note_on channel=9 note=42 velocity=0 time=0
EXTRACT: note_on channel=1 note=35 velocity=0 time=0.09126975000000001
EXTRACT: note_on channel=1 note=37 velocity=95 time=0.00396825
EXTRACT: note_on channel=10 note=76 velocity=64 time=0
EXTRACT: note_on channel=5 note=56 velocity=85 time=0
EXTRACT: note_on channel=5 note=61 velocity=73 time=0
EXTRACT: note_on channel=5 note=64 velocity=79 time=0
EXTRACT: note_on channel=6 note=56 velocity=63 time=0
EXTRACT: note_on channel=6 note=61 velocity=51 time=0
EXTRACT: note_on channel=6 note=64 velocity=57 time=0
EXTRACT: note_on channel=9 note=36 velocity=126 time=0
EXTRACT: note_on channel=9 note=35 velocity=117 time=0
EXTRACT: note_on channel=9 note=44 velocity=81 time=0
EXTRACT: note_on channel=9 note=60 velocity=69 time=0
EXTRACT: note_on channel=9 note=60 velocity=0 time=0.001984125
EXTRACT: note_on channel=9 note=36 velocity=0 time=0
EXTRACT: note_on channel=9 note=35 velocity=0 time=0
EXTRACT: note_on channel=9 note=44 velocity=0 time=0
EXTRACT: note_on channel=5 note=64 velocity=0 time=0.06746025000000001
EXTRACT: note_on channel=5 note=61 velocity=0 time=0
EXTRACT: note_on channel=5 note=56 velocity=0 time=0.01984125
EXTRACT: note_on channel=9 note=69 velocity=93 time=0.05158725000000001
EXTRACT: note_on channel=9 note=69 velocity=0 time=0.001984125
EXTRACT: note_on channel=6 note=64 velocity=0 time=0.029761875000000004
EXTRACT: note_on channel=6 note=61 velocity=0 time=0
EXTRACT: note_on channel=6 note=56 velocity=0 time=0
EXTRACT: note_on channel=4 note=68 velocity=0 time=0.01984125
EXTRACT: note_on channel=1 note=37 velocity=0 time=0.041666625000000006
EXTRACT: note_on channel=1 note=32 velocity=76 time=0.00396825
EXTRACT: note_on channel=4 note=64 velocity=103 time=0
EXTRACT: note_on channel=9 note=42 velocity=73 time=0
EXTRACT: note_on channel=9 note=62 velocity=59 time=0
EXTRACT: note_on channel=9 note=70 velocity=105 time=0
EXTRACT: note_on channel=9 note=70 velocity=0 time=0.001984125
EXTRACT: note_on channel=9 note=62 velocity=0 time=0
EXTRACT: note_on channel=9 note=42 velocity=0 time=0
EXTRACT: note_on channel=9 note=60 velocity=63 time=0.11706337500000001
EXTRACT: note_on channel=9 note=60 velocity=0 time=0.001984125
EXTRACT: note_on channel=5 note=56 velocity=85 time=0.0079365
EXTRACT: note_on channel=5 note=61 velocity=71 time=0
EXTRACT: note_on channel=5 note=64 velocity=79 time=0
EXTRACT: note_on channel=6 note=56 velocity=63 time=0
EXTRACT: note_on channel=6 note=61 velocity=49 time=0
EXTRACT: note_on channel=6 note=64 velocity=57 time=0
EXTRACT: note_on channel=9 note=42 velocity=66 time=0.011904750000000002
EXTRACT: note_on channel=9 note=69 velocity=61 time=0
EXTRACT: note_on channel=9 note=69 velocity=0 time=0.001984125
EXTRACT: note_on channel=9 note=42 velocity=0 time=0
EXTRACT: note_on channel=4 note=64 velocity=0 time=0.029761875000000004
EXTRACT: note_on channel=5 note=61 velocity=0 time=0.015873
EXTRACT: note_on channel=5 note=64 velocity=0 time=0.011904750000000002
EXTRACT: note_on channel=5 note=56 velocity=0 time=0.021825375
EXTRACT: note_on channel=1 note=32 velocity=0 time=0.011904750000000002
EXTRACT: note_on channel=1 note=35 velocity=73 time=0.00396825
EXTRACT: note_on channel=4 note=66 velocity=85 time=0
EXTRACT: note_on channel=9 note=40 velocity=117 time=0
EXTRACT: note_on channel=9 note=36 velocity=126 time=0
EXTRACT: note_on channel=9 note=35 velocity=117 time=0
EXTRACT: note_on channel=9 note=39 velocity=121 time=0
EXTRACT: note_on channel=9 note=44 velocity=81 time=0
EXTRACT: note_on channel=9 note=69 velocity=78 time=0
EXTRACT: note_on channel=9 note=69 velocity=0 time=0.001984125
EXTRACT: note_on channel=9 note=36 velocity=0 time=0
EXTRACT: note_on channel=9 note=35 velocity=0 time=0
EXTRACT: note_on channel=9 note=40 velocity=0 time=0
EXTRACT: note_on channel=9 note=44 velocity=0 time=0
EXTRACT: note_on channel=9 note=39 velocity=0 time=0
EXTRACT: note_on channel=6 note=64 velocity=0 time=0.061507875000000004
EXTRACT: note_on channel=6 note=61 velocity=0 time=0
EXTRACT: note_on channel=6 note=56 velocity=0 time=0
EXTRACT: note_on channel=4 note=66 velocity=0 time=0.025793625000000004
EXTRACT: note_on channel=9 note=61 velocity=73 time=0.029761875000000004
EXTRACT: note_on channel=9 note=61 velocity=0 time=0.001984125
EXTRACT: note_on channel=1 note=35 velocity=0 time=0.097222125
EXTRACT: note_on channel=1 note=37 velocity=92 time=0.01984125
EXTRACT: note_on channel=4 note=68 velocity=91 time=0
EXTRACT: note_on channel=5 note=56 velocity=83 time=0
EXTRACT: note_on channel=5 note=61 velocity=69 time=0
EXTRACT: note_on channel=5 note=64 velocity=73 time=0
EXTRACT: note_on channel=6 note=56 velocity=61 time=0
EXTRACT: note_on channel=6 note=61 velocity=47 time=0
EXTRACT: note_on channel=6 note=64 velocity=51 time=0
EXTRACT: note_on channel=9 note=42 velocity=73 time=0
EXTRACT: note_on channel=9 note=60 velocity=66 time=0
EXTRACT: note_on channel=9 note=60 velocity=0 time=0.001984125
EXTRACT: note_on channel=9 note=42 velocity=0 time=0
EXTRACT: note_on channel=9 note=70 velocity=105 time=0
EXTRACT: note_on channel=9 note=70 velocity=0 time=0.001984125
EXTRACT: note_on channel=5 note=61 velocity=0 time=0.069444375
EXTRACT: note_on channel=5 note=64 velocity=0 time=0.001984125
EXTRACT: note_on channel=5 note=56 velocity=0 time=0.009920625
EXTRACT: note_on channel=9 note=62 velocity=69 time=0.03373012500000001
EXTRACT: note_on channel=9 note=62 velocity=0 time=0.001984125
EXTRACT: note_on channel=9 note=42 velocity=66 time=0.01984125
EXTRACT: note_on channel=9 note=42 velocity=0 time=0.001984125
EXTRACT: note_on channel=6 note=64 velocity=0 time=0.029761875000000004
EXTRACT: note_on channel=6 note=61 velocity=0 time=0
EXTRACT: note_on channel=6 note=56 velocity=0 time=0
EXTRACT: note_on channel=1 note=37 velocity=0 time=0.05952375000000001
EXTRACT: note_on channel=9 note=36 velocity=126 time=0.005952375000000001
EXTRACT: note_on channel=9 note=35 velocity=117 time=0
EXTRACT: note_on channel=9 note=44 velocity=81 time=0
EXTRACT: note_on channel=9 note=82 velocity=69 time=0
EXTRACT: note_on channel=9 note=56 velocity=87 time=0
EXTRACT: note_on channel=9 note=60 velocity=63 time=0
EXTRACT: note_on channel=9 note=60 velocity=0 time=0.001984125
EXTRACT: note_on channel=9 note=35 velocity=0 time=0
EXTRACT: note_on channel=9 note=44 velocity=0 time=0
EXTRACT: note_on channel=9 note=36 velocity=0 time=0
EXTRACT: note_on channel=9 note=56 velocity=0 time=0
EXTRACT: note_on channel=9 note=82 velocity=0 time=0
EXTRACT: note_on channel=9 note=82 velocity=43 time=0.13888875
EXTRACT: note_on channel=9 note=82 velocity=0 time=0.001984125
EXTRACT: note_on channel=9 note=70 velocity=105 time=0.0873015
EXTRACT: note_on channel=9 note=70 velocity=0 time=0.001984125
EXTRACT: note_on channel=4 note=68 velocity=0 time=0.001984125
EXTRACT: note_on channel=1 note=37 velocity=93 time=0.00396825
EXTRACT: note_on channel=4 note=64 velocity=99 time=0
EXTRACT: note_on channel=5 note=56 velocity=85 time=0
EXTRACT: note_on channel=5 note=61 velocity=73 time=0
EXTRACT: note_on channel=5 note=64 velocity=77 time=0
EXTRACT: note_on channel=6 note=56 velocity=63 time=0
EXTRACT: note_on channel=6 note=61 velocity=51 time=0
EXTRACT: note_on channel=6 note=64 velocity=55 time=0
EXTRACT: note_on channel=9 note=42 velocity=73 time=0
EXTRACT: note_on channel=9 note=82 velocity=48 time=0
EXTRACT: note_on channel=9 note=82 velocity=0 time=0.001984125
EXTRACT: note_on channel=9 note=42 velocity=0 time=0
EXTRACT: note_on channel=5 note=61 velocity=0 time=0.063492
EXTRACT: note_on channel=5 note=64 velocity=0 time=0.00396825
EXTRACT: note_on channel=5 note=56 velocity=0 time=0.025793625000000004
EXTRACT: note_on channel=9 note=56 velocity=87 time=0.023809500000000004
EXTRACT: note_on channel=9 note=56 velocity=0 time=0.001984125
EXTRACT: note_on channel=9 note=42 velocity=66 time=0.01984125
EXTRACT: note_on channel=9 note=82 velocity=40 time=0
EXTRACT: note_on channel=9 note=82 velocity=0 time=0.001984125
EXTRACT: note_on channel=9 note=42 velocity=0 time=0
EXTRACT: note_on channel=4 note=64 velocity=0 time=0.027777750000000004
EXTRACT: note_on channel=6 note=64 velocity=0 time=0.001984125
EXTRACT: note_on channel=6 note=61 velocity=0 time=0
EXTRACT: note_on channel=6 note=56 velocity=0 time=0
EXTRACT: note_on channel=1 note=37 velocity=0 time=0.029761875000000004
EXTRACT: note_on channel=4 note=66 velocity=85 time=0.03571425
EXTRACT: note_on channel=9 note=39 velocity=121 time=0
EXTRACT: note_on channel=9 note=40 velocity=117 time=0
EXTRACT: note_on channel=9 note=36 velocity=126 time=0
EXTRACT: note_on channel=9 note=35 velocity=117 time=0
EXTRACT: note_on channel=9 note=44 velocity=81 time=0
EXTRACT: note_on channel=9 note=82 velocity=69 time=0
EXTRACT: note_on channel=9 note=82 velocity=0 time=0.001984125
EXTRACT: note_on channel=9 note=40 velocity=0 time=0
EXTRACT: note_on channel=9 note=36 velocity=0 time=0
EXTRACT: note_on channel=9 note=39 velocity=0 time=0
EXTRACT: note_on channel=9 note=44 velocity=0 time=0
EXTRACT: note_on channel=9 note=35 velocity=0 time=0
EXTRACT: note_on channel=4 note=66 velocity=0 time=0.097222125
EXTRACT: note_on channel=5 note=56 velocity=84 time=0.029761875000000004
EXTRACT: note_on channel=5 note=61 velocity=70 time=0
EXTRACT: note_on channel=5 note=64 velocity=78 time=0
EXTRACT: note_on channel=6 note=56 velocity=62 time=0
EXTRACT: note_on channel=6 note=61 velocity=48 time=0
EXTRACT: note_on channel=6 note=64 velocity=56 time=0
EXTRACT: note_on channel=5 note=64 velocity=0 time=0.0714285
EXTRACT: note_on channel=5 note=61 velocity=0 time=0
EXTRACT: note_on channel=5 note=56 velocity=0 time=0.011904750000000002
EXTRACT: note_on channel=9 note=70 velocity=105 time=0.01984125
EXTRACT: note_on channel=9 note=70 velocity=0 time=0.001984125
EXTRACT: note_on channel=1 note=37 velocity=87 time=0.00396825
EXTRACT: note_on channel=4 note=68 velocity=95 time=0
EXTRACT: note_on channel=9 note=42 velocity=73 time=0
EXTRACT: note_on channel=9 note=69 velocity=78 time=0
EXTRACT: note_on channel=9 note=56 velocity=87 time=0
EXTRACT: note_on channel=9 note=56 velocity=0 time=0.001984125
EXTRACT: note_on channel=9 note=69 velocity=0 time=0
EXTRACT: note_on channel=9 note=42 velocity=0 time=0
EXTRACT: note_on channel=10 note=61 velocity=0 time=0.053571375000000004
EXTRACT: note_on channel=10 note=64 velocity=0 time=0.0079365
EXTRACT: note_on channel=6 note=64 velocity=0 time=0
EXTRACT: note_on channel=6 note=61 velocity=0 time=0
EXTRACT: note_on channel=6 note=56 velocity=0 time=0
EXTRACT: note_on channel=10 note=56 velocity=0 time=0.04761900000000001
EXTRACT: note_on channel=9 note=42 velocity=66 time=0.029761875000000004
EXTRACT: note_on channel=9 note=69 velocity=73 time=0
EXTRACT: note_on channel=9 note=69 velocity=0 time=0.001984125
EXTRACT: note_on channel=9 note=42 velocity=0 time=0
EXTRACT: note_on channel=10 note=76 velocity=0 time=0.06746025000000001
EXTRACT: note_on channel=1 note=37 velocity=0 time=0.023809500000000004
EXTRACT: note_on channel=1 note=30 velocity=87 time=0.00396825
EXTRACT: note_on channel=10 note=57 velocity=65 time=0
EXTRACT: note_on channel=10 note=61 velocity=59 time=0
EXTRACT: note_on channel=10 note=66 velocity=59 time=0
EXTRACT: note_on channel=10 note=78 velocity=61 time=0
EXTRACT: note_on channel=5 note=57 velocity=72 time=0
EXTRACT: note_on channel=5 note=61 velocity=73 time=0
EXTRACT: note_on channel=5 note=66 velocity=76 time=0
EXTRACT: note_on channel=6 note=57 velocity=50 time=0
EXTRACT: note_on channel=6 note=61 velocity=51 time=0
EXTRACT: note_on channel=6 note=66 velocity=54 time=0
EXTRACT: note_on channel=9 note=36 velocity=126 time=0
EXTRACT: note_on channel=9 note=35 velocity=117 time=0
EXTRACT: note_on channel=9 note=35 velocity=0 time=0.001984125
EXTRACT: note_on channel=9 note=36 velocity=0 time=0
EXTRACT: note_on channel=5 note=57 velocity=0 time=0.069444375
EXTRACT: note_on channel=5 note=61 velocity=0 time=0.00396825
EXTRACT: note_on channel=5 note=66 velocity=0 time=0.009920625
EXTRACT: note_on channel=9 note=69 velocity=84 time=0.05555550000000001
EXTRACT: note_on channel=9 note=69 velocity=0 time=0.001984125
EXTRACT: note_on channel=6 note=66 velocity=0 time=0.029761875000000004
EXTRACT: note_on channel=6 note=61 velocity=0 time=0
EXTRACT: note_on channel=6 note=57 velocity=0 time=0
EXTRACT: note_on channel=4 note=68 velocity=0 time=0.017857125
EXTRACT: note_on channel=1 note=30 velocity=0 time=0.04365075
EXTRACT: note_on channel=9 note=70 velocity=105 time=0
EXTRACT: note_on channel=1 note=33 velocity=71 time=0.00396825
EXTRACT: note_on channel=4 note=69 velocity=80 time=0
EXTRACT: note_on channel=9 note=70 velocity=0 time=0
EXTRACT: note_on channel=9 note=42 velocity=73 time=0
EXTRACT: note_on channel=9 note=62 velocity=79 time=0
EXTRACT: note_on channel=9 note=62 velocity=0 time=0.001984125
EXTRACT: note_on channel=9 note=42 velocity=0 time=0
EXTRACT: note_on channel=4 note=69 velocity=0 time=0.10119037500000001
EXTRACT: note_on channel=9 note=61 velocity=69 time=0.015873
EXTRACT: note_on channel=9 note=61 velocity=0 time=0.001984125
EXTRACT: note_on channel=5 note=57 velocity=73 time=0.0079365
EXTRACT: note_on channel=5 note=61 velocity=73 time=0
EXTRACT: note_on channel=5 note=66 velocity=76 time=0
EXTRACT: note_on channel=6 note=57 velocity=51 time=0
EXTRACT: note_on channel=6 note=61 velocity=51 time=0
EXTRACT: note_on channel=6 note=66 velocity=54 time=0
EXTRACT: note_on channel=9 note=42 velocity=66 time=0.011904750000000002
EXTRACT: note_on channel=9 note=69 velocity=68 time=0
EXTRACT: note_on channel=9 note=69 velocity=0 time=0.001984125
EXTRACT: note_on channel=9 note=42 velocity=0 time=0
EXTRACT: note_on channel=5 note=61 velocity=0 time=0.049603125000000005
EXTRACT: note_on channel=1 note=33 velocity=0 time=0.011904750000000002
EXTRACT: note_on channel=5 note=57 velocity=0 time=0.00396825
EXTRACT: note_on channel=5 note=66 velocity=0 time=0.01984125
EXTRACT: note_on channel=1 note=35 velocity=82 time=0.009920625
EXTRACT: note_on channel=4 note=68 velocity=85 time=0
EXTRACT: note_on channel=9 note=39 velocity=121 time=0
EXTRACT: note_on channel=9 note=36 velocity=126 time=0
EXTRACT: note_on channel=9 note=35 velocity=117 time=0
EXTRACT: note_on channel=9 note=40 velocity=117 time=0
EXTRACT: note_on channel=9 note=44 velocity=81 time=0
EXTRACT: note_on channel=9 note=44 velocity=0 time=0.001984125
EXTRACT: note_on channel=9 note=35 velocity=0 time=0
EXTRACT: note_on channel=9 note=39 velocity=0 time=0
EXTRACT: note_on channel=9 note=36 velocity=0 time=0
EXTRACT: note_on channel=9 note=40 velocity=0 time=0
EXTRACT: note_on channel=6 note=66 velocity=0 time=0.061507875000000004
EXTRACT: note_on channel=6 note=61 velocity=0 time=0
EXTRACT: note_on channel=6 note=57 velocity=0 time=0
EXTRACT: note_on channel=4 note=68 velocity=0 time=0.025793625000000004
EXTRACT: note_on channel=9 note=62 velocity=73 time=0.029761875000000004
EXTRACT: note_on channel=9 note=62 velocity=0 time=0.001984125
EXTRACT: note_on channel=1 note=35 velocity=0 time=0.04365075
EXTRACT: note_on channel=1 note=37 velocity=91 time=0.07341262500000001
EXTRACT: note_on channel=4 note=66 velocity=93 time=0
EXTRACT: note_on channel=5 note=57 velocity=75 time=0
EXTRACT: note_on channel=5 note=61 velocity=72 time=0
EXTRACT: note_on channel=5 note=66 velocity=76 time=0
EXTRACT: note_on channel=6 note=57 velocity=53 time=0
EXTRACT: note_on channel=6 note=61 velocity=50 time=0
EXTRACT: note_on channel=6 note=66 velocity=54 time=0
EXTRACT: note_on channel=9 note=42 velocity=73 time=0
EXTRACT: note_on channel=9 note=61 velocity=66 time=0
EXTRACT: note_on channel=9 note=61 velocity=0 time=0.001984125
EXTRACT: note_on channel=9 note=42 velocity=0 time=0
EXTRACT: note_on channel=9 note=70 velocity=105 time=0.001984125
EXTRACT: note_on channel=9 note=70 velocity=0 time=0.001984125
EXTRACT: note_on channel=5 note=61 velocity=0 time=0.063492
EXTRACT: note_on channel=5 note=57 velocity=0 time=0
EXTRACT: note_on channel=5 note=66 velocity=0 time=0.01984125
EXTRACT: note_on channel=9 note=42 velocity=66 time=0.05158725000000001
EXTRACT: note_on channel=9 note=82 velocity=48 time=0
EXTRACT: note_on channel=9 note=82 velocity=0 time=0.001984125
EXTRACT: note_on channel=9 note=42 velocity=0 time=0
EXTRACT: note_on channel=6 note=66 velocity=0 time=0.029761875000000004
EXTRACT: note_on channel=6 note=61 velocity=0 time=0
EXTRACT: note_on channel=6 note=57 velocity=0 time=0
EXTRACT: note_on channel=9 note=36 velocity=126 time=0.06547612500000001
EXTRACT: note_on channel=9 note=35 velocity=117 time=0
EXTRACT: note_on channel=9 note=44 velocity=81 time=0
EXTRACT: note_on channel=9 note=82 velocity=55 time=0
EXTRACT: note_on channel=9 note=56 velocity=80 time=0
EXTRACT: note_on channel=9 note=56 velocity=0 time=0.001984125
EXTRACT: note_on channel=9 note=44 velocity=0 time=0
EXTRACT: note_on channel=9 note=36 velocity=0 time=0
EXTRACT: note_on channel=9 note=35 velocity=0 time=0
EXTRACT: note_on channel=9 note=82 velocity=0 time=0
EXTRACT: note_on channel=1 note=37 velocity=0 time=0.013888875000000002
EXTRACT: note_on channel=9 note=82 velocity=63 time=0.12499987500000001
EXTRACT: note_on channel=9 note=82 velocity=0 time=0.001984125
EXTRACT: note_on channel=4 note=66 velocity=0 time=0.09126975000000001
EXTRACT: note_on channel=1 note=30 velocity=87 time=0.00396825
EXTRACT: note_on channel=4 note=63 velocity=95 time=0
EXTRACT: note_on channel=5 note=57 velocity=74 time=0
EXTRACT: note_on channel=5 note=61 velocity=74 time=0
EXTRACT: note_on channel=5 note=66 velocity=76 time=0
EXTRACT: note_on channel=6 note=57 velocity=52 time=0
EXTRACT: note_on channel=6 note=61 velocity=52 time=0
EXTRACT: note_on channel=6 note=66 velocity=54 time=0
EXTRACT: note_on channel=9 note=42 velocity=73 time=0
EXTRACT: note_on channel=9 note=82 velocity=59 time=0
EXTRACT: note_on channel=9 note=63 velocity=60 time=0
EXTRACT: note_on channel=9 note=63 velocity=0 time=0.001984125
EXTRACT: note_on channel=9 note=82 velocity=0 time=0
EXTRACT: note_on channel=9 note=42 velocity=0 time=0
EXTRACT: note_on channel=9 note=70 velocity=105 time=0.001984125
EXTRACT: note_on channel=9 note=70 velocity=0 time=0.001984125
EXTRACT: note_on channel=5 note=61 velocity=0 time=0.063492
EXTRACT: note_on channel=5 note=66 velocity=0 time=0.011904750000000002
EXTRACT: note_on channel=5 note=57 velocity=0 time=0
EXTRACT: note_on channel=9 note=56 velocity=89 time=0.037698375000000006
EXTRACT: note_on channel=9 note=56 velocity=0 time=0.001984125
EXTRACT: note_on channel=9 note=42 velocity=66 time=0.01984125
EXTRACT: note_on channel=9 note=82 velocity=45 time=0
EXTRACT: note_on channel=9 note=82 velocity=0 time=0.001984125
EXTRACT: note_on channel=9 note=42 velocity=0 time=0
EXTRACT: note_on channel=6 note=66 velocity=0 time=0.029761875000000004
EXTRACT: note_on channel=6 note=61 velocity=0 time=0
EXTRACT: note_on channel=6 note=57 velocity=0 time=0
EXTRACT: note_on channel=4 note=63 velocity=0 time=0.031746
EXTRACT: note_on channel=4 note=64 velocity=96 time=0.03373012500000001
EXTRACT: note_on channel=9 note=36 velocity=126 time=0
EXTRACT: note_on channel=9 note=35 velocity=117 time=0
EXTRACT: note_on channel=9 note=39 velocity=121 time=0
EXTRACT: note_on channel=9 note=40 velocity=117 time=0
EXTRACT: note_on channel=9 note=44 velocity=81 time=0
EXTRACT: note_on channel=9 note=82 velocity=60 time=0
EXTRACT: note_on channel=9 note=82 velocity=0 time=0.001984125
EXTRACT: note_on channel=9 note=35 velocity=0 time=0
EXTRACT: note_on channel=9 note=39 velocity=0 time=0
EXTRACT: note_on channel=9 note=36 velocity=0 time=0
EXTRACT: note_on channel=9 note=44 velocity=0 time=0
EXTRACT: note_on channel=9 note=40 velocity=0 time=0
EXTRACT: note_on channel=1 note=30 velocity=0 time=0.011904750000000002
EXTRACT: note_on channel=4 note=64 velocity=0 time=0.097222125
EXTRACT: note_on channel=5 note=57 velocity=80 time=0.017857125
EXTRACT: note_on channel=5 note=61 velocity=71 time=0
EXTRACT: note_on channel=5 note=66 velocity=74 time=0
EXTRACT: note_on channel=6 note=57 velocity=58 time=0
EXTRACT: note_on channel=6 note=61 velocity=49 time=0
EXTRACT: note_on channel=6 note=66 velocity=52 time=0
EXTRACT: note_on channel=5 note=61 velocity=0 time=0.063492
EXTRACT: note_on channel=5 note=57 velocity=0 time=0.0079365
EXTRACT: note_on channel=5 note=66 velocity=0 time=0.017857125
EXTRACT: note_on channel=9 note=70 velocity=105 time=0.013888875000000002
EXTRACT: note_on channel=9 note=70 velocity=0 time=0.001984125
EXTRACT: note_on channel=1 note=30 velocity=83 time=0.00396825
EXTRACT: note_on channel=4 note=66 velocity=93 time=0
EXTRACT: note_on channel=9 note=42 velocity=75 time=0
EXTRACT: note_on channel=9 note=69 velocity=87 time=0
EXTRACT: note_on channel=9 note=56 velocity=87 time=0
EXTRACT: note_on channel=9 note=56 velocity=0 time=0.001984125
EXTRACT: note_on channel=9 note=69 velocity=0 time=0
EXTRACT: note_on channel=9 note=42 velocity=0 time=0
EXTRACT: note_on channel=6 note=66 velocity=0 time=0.061507875000000004
EXTRACT: note_on channel=6 note=61 velocity=0 time=0
EXTRACT: note_on channel=6 note=57 velocity=0 time=0
EXTRACT: note_on channel=10 note=61 velocity=0 time=0.041666625000000006
EXTRACT: note_on channel=10 note=66 velocity=0 time=0.005952375000000001
EXTRACT: note_on channel=9 note=62 velocity=64 time=0.0079365
EXTRACT: note_on channel=9 note=62 velocity=0 time=0.001984125
EXTRACT: note_on channel=9 note=42 velocity=66 time=0.01984125
EXTRACT: note_on channel=9 note=69 velocity=69 time=0
EXTRACT: note_on channel=9 note=69 velocity=0 time=0.001984125
EXTRACT: note_on channel=9 note=42 velocity=0 time=0
EXTRACT: note_on channel=10 note=57 velocity=0 time=0.009920625
EXTRACT: note_on channel=1 note=30 velocity=0 time=0.08134912500000001
EXTRACT: note_on channel=1 note=35 velocity=84 time=0.00396825
EXTRACT: note_on channel=10 note=59 velocity=69 time=0
EXTRACT: note_on channel=10 note=63 velocity=39 time=0
EXTRACT: note_on channel=10 note=66 velocity=56 time=0
EXTRACT: note_on channel=5 note=59 velocity=82 time=0
EXTRACT: note_on channel=5 note=63 velocity=79 time=0
EXTRACT: note_on channel=5 note=66 velocity=79 time=0
EXTRACT: note_on channel=6 note=59 velocity=60 time=0
EXTRACT: note_on channel=6 note=63 velocity=57 time=0
EXTRACT: note_on channel=6 note=66 velocity=57 time=0
EXTRACT: note_on channel=9 note=36 velocity=126 time=0
EXTRACT: note_on channel=9 note=35 velocity=117 time=0
EXTRACT: note_on channel=9 note=44 velocity=81 time=0
EXTRACT: note_on channel=9 note=60 velocity=69 time=0
EXTRACT: note_on channel=9 note=60 velocity=0 time=0.001984125
EXTRACT: note_on channel=9 note=36 velocity=0 time=0
EXTRACT: note_on channel=9 note=35 velocity=0 time=0
EXTRACT: note_on channel=9 note=44 velocity=0 time=0
EXTRACT: note_on channel=5 note=63 velocity=0 time=0.06746025000000001
EXTRACT: note_on channel=5 note=66 velocity=0 time=0.021825375
EXTRACT: note_on channel=5 note=59 velocity=0 time=0.0079365
EXTRACT: note_on channel=9 note=69 velocity=93 time=0.041666625000000006
EXTRACT: note_on channel=9 note=69 velocity=0 time=0.001984125
EXTRACT: note_on channel=6 note=66 velocity=0 time=0.029761875000000004
EXTRACT: note_on channel=6 note=63 velocity=0 time=0
EXTRACT: note_on channel=6 note=59 velocity=0 time=0
EXTRACT: note_on channel=1 note=35 velocity=0 time=0.057539625000000004
EXTRACT: note_on channel=4 note=66 velocity=0 time=0
EXTRACT: note_on channel=1 note=30 velocity=71 time=0.0079365
EXTRACT: note_on channel=4 note=63 velocity=99 time=0
EXTRACT: note_on channel=9 note=42 velocity=73 time=0
EXTRACT: note_on channel=9 note=62 velocity=59 time=0
EXTRACT: note_on channel=9 note=70 velocity=105 time=0
EXTRACT: note_on channel=9 note=70 velocity=0 time=0.001984125
EXTRACT: note_on channel=9 note=62 velocity=0 time=0
EXTRACT: note_on channel=9 note=42 velocity=0 time=0
EXTRACT: note_on channel=9 note=60 velocity=63 time=0.11706337500000001
EXTRACT: note_on channel=9 note=60 velocity=0 time=0.001984125
EXTRACT: note_on channel=5 note=59 velocity=82 time=0.0079365
EXTRACT: note_on channel=5 note=63 velocity=79 time=0
EXTRACT: note_on channel=5 note=66 velocity=75 time=0
EXTRACT: note_on channel=6 note=59 velocity=60 time=0
EXTRACT: note_on channel=6 note=63 velocity=57 time=0
EXTRACT: note_on channel=6 note=66 velocity=53 time=0
EXTRACT: note_on channel=9 note=42 velocity=66 time=0.011904750000000002
EXTRACT: note_on channel=9 note=69 velocity=61 time=0
EXTRACT: note_on channel=9 note=69 velocity=0 time=0.001984125
EXTRACT: note_on channel=9 note=42 velocity=0 time=0
EXTRACT: note_on channel=5 note=63 velocity=0 time=0.05555550000000001
EXTRACT: note_on channel=4 note=63 velocity=0 time=0.001984125
EXTRACT: note_on channel=5 note=66 velocity=0 time=0.01984125
EXTRACT: note_on channel=5 note=59 velocity=0 time=0.009920625
EXTRACT: note_on channel=1 note=30 velocity=0 time=0.001984125
EXTRACT: note_on channel=1 note=33 velocity=74 time=0.005952375000000001
EXTRACT: note_on channel=4 note=64 velocity=101 time=0
EXTRACT: note_on channel=9 note=40 velocity=117 time=0
EXTRACT: note_on channel=9 note=36 velocity=126 time=0
EXTRACT: note_on channel=9 note=35 velocity=117 time=0
EXTRACT: note_on channel=9 note=39 velocity=121 time=0
EXTRACT: note_on channel=9 note=44 velocity=81 time=0
EXTRACT: note_on channel=9 note=69 velocity=78 time=0
EXTRACT: note_on channel=9 note=69 velocity=0 time=0.001984125
EXTRACT: note_on channel=9 note=36 velocity=0 time=0
EXTRACT: note_on channel=9 note=35 velocity=0 time=0
EXTRACT: note_on channel=9 note=40 velocity=0 time=0
EXTRACT: note_on channel=9 note=44 velocity=0 time=0
EXTRACT: note_on channel=9 note=39 velocity=0 time=0
EXTRACT: note_on channel=6 note=66 velocity=0 time=0.061507875000000004
EXTRACT: note_on channel=6 note=63 velocity=0 time=0
EXTRACT: note_on channel=6 note=59 velocity=0 time=0
EXTRACT: note_on channel=9 note=61 velocity=73 time=0.05555550000000001
EXTRACT: note_on channel=9 note=61 velocity=0 time=0.001984125
EXTRACT: note_on channel=4 note=64 velocity=0 time=0.0873015
EXTRACT: note_on channel=1 note=33 velocity=0 time=0.011904750000000002
EXTRACT: note_on channel=1 note=35 velocity=87 time=0.017857125
EXTRACT: note_on channel=4 note=66 velocity=92 time=0
EXTRACT: note_on channel=5 note=59 velocity=77 time=0
EXTRACT: note_on channel=5 note=63 velocity=85 time=0
EXTRACT: note_on channel=5 note=66 velocity=76 time=0
EXTRACT: note_on channel=6 note=59 velocity=55 time=0
EXTRACT: note_on channel=6 note=63 velocity=63 time=0
EXTRACT: note_on channel=6 note=66 velocity=54 time=0
EXTRACT: note_on channel=9 note=42 velocity=73 time=0
EXTRACT: note_on channel=9 note=60 velocity=66 time=0
EXTRACT: note_on channel=9 note=60 velocity=0 time=0.001984125
EXTRACT: note_on channel=9 note=42 velocity=0 time=0
EXTRACT: note_on channel=9 note=70 velocity=105 time=0
EXTRACT: note_on channel=9 note=70 velocity=0 time=0.001984125
EXTRACT: note_on channel=5 note=63 velocity=0 time=0.061507875000000004
EXTRACT: note_on channel=5 note=66 velocity=0 time=0.015873
EXTRACT: note_on channel=5 note=59 velocity=0 time=0.017857125
EXTRACT: note_on channel=9 note=62 velocity=69 time=0.01984125
EXTRACT: note_on channel=9 note=62 velocity=0 time=0.001984125
EXTRACT: note_on channel=9 note=42 velocity=66 time=0.01984125
EXTRACT: note_on channel=9 note=42 velocity=0 time=0.001984125
EXTRACT: note_on channel=6 note=66 velocity=0 time=0.029761875000000004
EXTRACT: note_on channel=6 note=63 velocity=0 time=0
EXTRACT: note_on channel=6 note=59 velocity=0 time=0
EXTRACT: note_on channel=1 note=35 velocity=0 time=0.0079365
EXTRACT: note_on channel=10 note=75 velocity=57 time=0.057539625000000004
EXTRACT: note_on channel=9 note=36 velocity=126 time=0
EXTRACT: note_on channel=9 note=35 velocity=117 time=0
EXTRACT: note_on channel=9 note=44 velocity=81 time=0
EXTRACT: note_on channel=9 note=82 velocity=69 time=0
EXTRACT: note_on channel=9 note=56 velocity=87 time=0
EXTRACT: note_on channel=9 note=60 velocity=63 time=0
EXTRACT: note_on channel=9 note=60 velocity=0 time=0.001984125
EXTRACT: note_on channel=9 note=35 velocity=0 time=0
EXTRACT: note_on channel=9 note=44 velocity=0 time=0
EXTRACT: note_on channel=9 note=36 velocity=0 time=0
EXTRACT: note_on channel=9 note=56 velocity=0 time=0
EXTRACT: note_on channel=9 note=82 velocity=0 time=0
EXTRACT: note_on channel=10 note=78 velocity=0 time=0.009920625
EXTRACT: note_on channel=4 note=66 velocity=0 time=0.10714275000000001
EXTRACT: note_on channel=9 note=82 velocity=43 time=0.021825375
EXTRACT: note_on channel=9 note=82 velocity=0 time=0.001984125
EXTRACT: note_on channel=9 note=70 velocity=105 time=0.0873015
EXTRACT: note_on channel=9 note=70 velocity=0 time=0.001984125
EXTRACT: note_on channel=1 note=35 velocity=85 time=0.005952375000000001
EXTRACT: note_on channel=4 note=66 velocity=91 time=0
EXTRACT: note_on channel=5 note=59 velocity=71 time=0
EXTRACT: note_on channel=5 note=63 velocity=73 time=0
EXTRACT: note_on channel=5 note=66 velocity=71 time=0
EXTRACT: note_on channel=6 note=59 velocity=49 time=0
EXTRACT: note_on channel=6 note=63 velocity=51 time=0
EXTRACT: note_on channel=6 note=66 velocity=49 time=0
EXTRACT: note_on channel=9 note=42 velocity=73 time=0
EXTRACT: note_on channel=9 note=82 velocity=48 time=0
EXTRACT: note_on channel=9 note=82 velocity=0 time=0.001984125
EXTRACT: note_on channel=9 note=42 velocity=0 time=0
EXTRACT: note_on channel=5 note=63 velocity=0 time=0.05952375000000001
EXTRACT: note_on channel=5 note=66 velocity=0 time=0.023809500000000004
EXTRACT: note_on channel=5 note=59 velocity=0 time=0.013888875000000002
EXTRACT: note_on channel=9 note=56 velocity=87 time=0.01984125
EXTRACT: note_on channel=9 note=56 velocity=0 time=0.001984125
EXTRACT: note_on channel=9 note=42 velocity=66 time=0.01984125
EXTRACT: note_on channel=9 note=82 velocity=40 time=0
EXTRACT: note_on channel=9 note=82 velocity=0 time=0.001984125
EXTRACT: note_on channel=9 note=42 velocity=0 time=0
EXTRACT: note_on channel=6 note=66 velocity=0 time=0.029761875000000004
EXTRACT: note_on channel=6 note=63 velocity=0 time=0
EXTRACT: note_on channel=6 note=59 velocity=0 time=0
EXTRACT: note_on channel=1 note=35 velocity=0 time=0.029761875000000004
EXTRACT: note_on channel=4 note=66 velocity=0 time=0.031746
EXTRACT: note_on channel=4 note=68 velocity=84 time=0.00396825
EXTRACT: note_on channel=9 note=39 velocity=121 time=0
EXTRACT: note_on channel=9 note=40 velocity=117 time=0
EXTRACT: note_on channel=9 note=36 velocity=126 time=0
EXTRACT: note_on channel=9 note=35 velocity=117 time=0
EXTRACT: note_on channel=9 note=44 velocity=81 time=0
EXTRACT: note_on channel=9 note=82 velocity=69 time=0
EXTRACT: note_on channel=9 note=82 velocity=0 time=0.001984125
EXTRACT: note_on channel=9 note=40 velocity=0 time=0
EXTRACT: note_on channel=9 note=36 velocity=0 time=0
EXTRACT: note_on channel=9 note=39 velocity=0 time=0
EXTRACT: note_on channel=9 note=44 velocity=0 time=0
EXTRACT: note_on channel=9 note=35 velocity=0 time=0
EXTRACT: note_on channel=5 note=59 velocity=73 time=0.126984
EXTRACT: note_on channel=5 note=63 velocity=86 time=0
EXTRACT: note_on channel=5 note=66 velocity=76 time=0
EXTRACT: note_on channel=6 note=59 velocity=51 time=0
EXTRACT: note_on channel=6 note=63 velocity=64 time=0
EXTRACT: note_on channel=6 note=66 velocity=54 time=0
EXTRACT: note_on channel=4 note=68 velocity=0 time=0.045634875000000005
EXTRACT: note_on channel=5 note=63 velocity=0 time=0.01984125
EXTRACT: note_on channel=5 note=59 velocity=0 time=0.00396825
EXTRACT: note_on channel=5 note=66 velocity=0 time=0.01984125
EXTRACT: note_on channel=9 note=70 velocity=105 time=0.013888875000000002
EXTRACT: note_on channel=9 note=70 velocity=0 time=0.001984125
EXTRACT: note_on channel=1 note=35 velocity=84 time=0.00396825
EXTRACT: note_on channel=4 note=66 velocity=90 time=0
EXTRACT: note_on channel=9 note=42 velocity=73 time=0
EXTRACT: note_on channel=9 note=69 velocity=78 time=0
EXTRACT: note_on channel=9 note=56 velocity=87 time=0
EXTRACT: note_on channel=9 note=56 velocity=0 time=0.001984125
EXTRACT: note_on channel=9 note=69 velocity=0 time=0
EXTRACT: note_on channel=9 note=42 velocity=0 time=0
EXTRACT: note_on channel=6 note=66 velocity=0 time=0.061507875000000004
EXTRACT: note_on channel=6 note=63 velocity=0 time=0
EXTRACT: note_on channel=6 note=59 velocity=0 time=0
EXTRACT: note_on channel=10 note=63 velocity=0 time=0.0079365
EXTRACT: note_on channel=10 note=66 velocity=0 time=0.069444375
EXTRACT: note_on channel=9 note=42 velocity=66 time=0
EXTRACT: note_on channel=9 note=69 velocity=73 time=0
EXTRACT: note_on channel=9 note=69 velocity=0 time=0.001984125
EXTRACT: note_on channel=9 note=42 velocity=0 time=0
EXTRACT: note_on channel=10 note=59 velocity=0 time=0.001984125
EXTRACT: note_on channel=1 note=35 velocity=0 time=0.08928562500000001
EXTRACT: note_on channel=9 note=36 velocity=101 time=0.00396825
EXTRACT: note_on channel=9 note=44 velocity=88 time=0
EXTRACT: note_on channel=1 note=37 velocity=93 time=0
EXTRACT: note_on channel=10 note=56 velocity=68 time=0
EXTRACT: note_on channel=10 note=61 velocity=29 time=0
EXTRACT: note_on channel=10 note=64 velocity=52 time=0
EXTRACT: note_on channel=10 note=73 velocity=48 time=0
EXTRACT: note_on channel=5 note=56 velocity=82 time=0
EXTRACT: note_on channel=5 note=61 velocity=75 time=0
EXTRACT: note_on channel=5 note=64 velocity=80 time=0
EXTRACT: note_on channel=6 note=56 velocity=60 time=0
EXTRACT: note_on channel=6 note=61 velocity=53 time=0
EXTRACT: note_on channel=6 note=64 velocity=58 time=0
EXTRACT: note_on channel=9 note=36 velocity=126 time=0
EXTRACT: note_on channel=9 note=35 velocity=117 time=0
EXTRACT: note_on channel=9 note=35 velocity=0 time=0.001984125
EXTRACT: note_on channel=9 note=36 velocity=0 time=0
EXTRACT: note_on channel=10 note=75 velocity=0 time=0.029761875000000004
EXTRACT: note_on channel=5 note=64 velocity=0 time=0.037698375000000006
EXTRACT: note_on channel=5 note=61 velocity=0 time=0
EXTRACT: note_on channel=9 note=44 velocity=0 time=0.00396825
EXTRACT: note_on channel=5 note=56 velocity=0 time=0.005952375000000001
EXTRACT: note_on channel=9 note=69 velocity=84 time=0.061507875000000004
EXTRACT: note_on channel=9 note=69 velocity=0 time=0.001984125
EXTRACT: note_on channel=9 note=36 velocity=0 time=0.015873
EXTRACT: note_on channel=6 note=64 velocity=0 time=0.013888875000000002
EXTRACT: note_on channel=6 note=61 velocity=0 time=0
EXTRACT: note_on channel=6 note=56 velocity=0 time=0
EXTRACT: note_on channel=4 note=66 velocity=0 time=0.025793625000000004
EXTRACT: note_on channel=1 note=37 velocity=0 time=0.03571425
EXTRACT: note_on channel=9 note=70 velocity=105 time=0
EXTRACT: note_on channel=9 note=44 velocity=52 time=0.00396825
EXTRACT: note_on channel=1 note=32 velocity=79 time=0
EXTRACT: note_on channel=4 note=64 velocity=105 time=0
EXTRACT: note_on channel=9 note=70 velocity=0 time=0
EXTRACT: note_on channel=9 note=42 velocity=73 time=0
EXTRACT: note_on channel=9 note=62 velocity=79 time=0
EXTRACT: note_on channel=9 note=62 velocity=0 time=0.001984125
EXTRACT: note_on channel=9 note=42 velocity=0 time=0
EXTRACT: note_on channel=9 note=44 velocity=0 time=0.041666625000000006
EXTRACT: note_on channel=9 note=61 velocity=69 time=0.07539675000000001
EXTRACT: note_on channel=9 note=61 velocity=0 time=0.001984125
EXTRACT: note_on channel=5 note=56 velocity=81 time=0.0079365
EXTRACT: note_on channel=5 note=61 velocity=71 time=0
EXTRACT: note_on channel=5 note=64 velocity=73 time=0
EXTRACT: note_on channel=6 note=56 velocity=59 time=0
EXTRACT: note_on channel=6 note=61 velocity=49 time=0
EXTRACT: note_on channel=6 note=64 velocity=51 time=0
EXTRACT: note_on channel=9 note=44 velocity=57 time=0.009920625
EXTRACT: note_on channel=9 note=42 velocity=66 time=0.001984125
EXTRACT: note_on channel=9 note=69 velocity=68 time=0
EXTRACT: note_on channel=9 note=69 velocity=0 time=0.001984125
EXTRACT: note_on channel=9 note=42 velocity=0 time=0
EXTRACT: note_on channel=5 note=64 velocity=0 time=0.04761900000000001
EXTRACT: note_on channel=5 note=61 velocity=0 time=0.001984125
EXTRACT: note_on channel=9 note=44 velocity=0 time=0.009920625
EXTRACT: note_on channel=5 note=56 velocity=0 time=0.01984125
EXTRACT: note_on channel=1 note=32 velocity=0 time=0.011904750000000002
EXTRACT: note_on channel=9 note=28 velocity=76 time=0.00396825
EXTRACT: note_on channel=9 note=36 velocity=101 time=0
EXTRACT: note_on channel=9 note=39 velocity=74 time=0
EXTRACT: note_on channel=9 note=42 velocity=78 time=0
EXTRACT: note_on channel=1 note=35 velocity=75 time=0
EXTRACT: note_on channel=9 note=39 velocity=121 time=0
EXTRACT: note_on channel=9 note=36 velocity=126 time=0
EXTRACT: note_on channel=9 note=35 velocity=117 time=0
EXTRACT: note_on channel=9 note=40 velocity=117 time=0
EXTRACT: note_on channel=9 note=44 velocity=81 time=0
EXTRACT: note_on channel=9 note=44 velocity=0 time=0.001984125
EXTRACT: note_on channel=9 note=35 velocity=0 time=0
EXTRACT: note_on channel=9 note=39 velocity=0 time=0
EXTRACT: note_on channel=9 note=36 velocity=0 time=0
EXTRACT: note_on channel=9 note=40 velocity=0 time=0
EXTRACT: note_on channel=6 note=64 velocity=0 time=0.061507875000000004
EXTRACT: note_on channel=6 note=61 velocity=0 time=0
EXTRACT: note_on channel=6 note=56 velocity=0 time=0
EXTRACT: note_on channel=9 note=28 velocity=0 time=0.017857125
EXTRACT: note_on channel=9 note=39 velocity=0 time=0.013888875000000002
EXTRACT: note_on channel=9 note=62 velocity=73 time=0.023809500000000004
EXTRACT: note_on channel=9 note=62 velocity=0 time=0.001984125
EXTRACT: note_on channel=9 note=42 velocity=0 time=0.0079365
EXTRACT: note_on channel=9 note=36 velocity=0 time=0.015873
EXTRACT: note_on channel=1 note=35 velocity=0 time=0.08928562500000001
EXTRACT: note_on channel=9 note=44 velocity=61 time=0.00396825
EXTRACT: note_on channel=1 note=37 velocity=90 time=0
EXTRACT: note_on channel=5 note=56 velocity=82 time=0
EXTRACT: note_on channel=5 note=61 velocity=70 time=0
EXTRACT: note_on channel=5 note=64 velocity=76 time=0
EXTRACT: note_on channel=6 note=56 velocity=60 time=0
EXTRACT: note_on channel=6 note=61 velocity=48 time=0
EXTRACT: note_on channel=6 note=64 velocity=54 time=0
EXTRACT: note_on channel=9 note=42 velocity=73 time=0
EXTRACT: note_on channel=9 note=61 velocity=66 time=0
EXTRACT: note_on channel=9 note=61 velocity=0 time=0.001984125
EXTRACT: note_on channel=9 note=42 velocity=0 time=0
EXTRACT: note_on channel=9 note=70 velocity=105 time=0.001984125
EXTRACT: note_on channel=9 note=70 velocity=0 time=0.001984125
EXTRACT: note_on channel=9 note=44 velocity=0 time=0.045634875000000005
EXTRACT: note_on channel=5 note=61 velocity=0 time=0.013888875000000002
EXTRACT: note_on channel=5 note=64 velocity=0 time=0.005952375000000001
EXTRACT: note_on channel=5 note=56 velocity=0 time=0.0079365
EXTRACT: note_on channel=9 note=44 velocity=62 time=0.05952375000000001
EXTRACT: note_on channel=9 note=42 velocity=66 time=0.001984125
EXTRACT: note_on channel=9 note=82 velocity=48 time=0
EXTRACT: note_on channel=9 note=82 velocity=0 time=0.001984125
EXTRACT: note_on channel=9 note=42 velocity=0 time=0
EXTRACT: note_on channel=6 note=64 velocity=0 time=0.029761875000000004
EXTRACT: note_on channel=6 note=61 velocity=0 time=0
EXTRACT: note_on channel=6 note=56 velocity=0 time=0
EXTRACT: note_on channel=9 note=44 velocity=0 time=0.027777750000000004
EXTRACT: note_on channel=4 note=64 velocity=0 time=0.031746
EXTRACT: note_on channel=9 note=36 velocity=101 time=0.005952375000000001
EXTRACT: note_on channel=9 note=44 velocity=87 time=0
EXTRACT: note_on channel=9 note=36 velocity=126 time=0
EXTRACT: note_on channel=9 note=35 velocity=117 time=0
EXTRACT: note_on channel=9 note=44 velocity=81 time=0
EXTRACT: note_on channel=9 note=82 velocity=55 time=0
EXTRACT: note_on channel=9 note=56 velocity=80 time=0
EXTRACT: note_on channel=1 note=37 velocity=0 time=0.001984125
EXTRACT: note_on channel=9 note=56 velocity=0 time=0
EXTRACT: note_on channel=9 note=44 velocity=0 time=0
EXTRACT: note_on channel=9 note=36 velocity=0 time=0
EXTRACT: note_on channel=9 note=35 velocity=0 time=0
EXTRACT: note_on channel=9 note=82 velocity=0 time=0
EXTRACT: note_on channel=9 note=44 velocity=0 time=0.079365
EXTRACT: note_on channel=9 note=82 velocity=63 time=0.05952375000000001
EXTRACT: note_on channel=9 note=82 velocity=0 time=0.001984125
EXTRACT: note_on channel=9 note=36 velocity=0 time=0.0079365
EXTRACT: note_on channel=9 note=44 velocity=61 time=0.0873015
EXTRACT: note_on channel=1 note=37 velocity=92 time=0
EXTRACT: note_on channel=3 note=68 velocity=93 time=0
EXTRACT: note_on channel=5 note=56 velocity=83 time=0
EXTRACT: note_on channel=5 note=61 velocity=72 time=0
EXTRACT: note_on channel=5 note=64 velocity=76 time=0
EXTRACT: note_on channel=6 note=56 velocity=61 time=0
EXTRACT: note_on channel=6 note=61 velocity=50 time=0
EXTRACT: note_on channel=6 note=64 velocity=54 time=0
EXTRACT: note_on channel=9 note=42 velocity=73 time=0
EXTRACT: note_on channel=9 note=82 velocity=59 time=0
EXTRACT: note_on channel=9 note=63 velocity=60 time=0
EXTRACT: note_on channel=9 note=63 velocity=0 time=0.001984125
EXTRACT: note_on channel=9 note=82 velocity=0 time=0
EXTRACT: note_on channel=9 note=42 velocity=0 time=0
EXTRACT: note_on channel=9 note=70 velocity=105 time=0.001984125
EXTRACT: note_on channel=9 note=70 velocity=0 time=0.001984125
EXTRACT: note_on channel=9 note=44 velocity=0 time=0.04365075
EXTRACT: note_on channel=5 note=64 velocity=0 time=0.021825375
EXTRACT: note_on channel=5 note=61 velocity=0 time=0.00396825
EXTRACT: note_on channel=5 note=56 velocity=0 time=0.015873
EXTRACT: note_on channel=9 note=56 velocity=89 time=0.027777750000000004
EXTRACT: note_on channel=9 note=56 velocity=0 time=0.001984125
EXTRACT: note_on channel=9 note=44 velocity=65 time=0.017857125
EXTRACT: note_on channel=9 note=42 velocity=66 time=0.001984125
EXTRACT: note_on channel=9 note=82 velocity=45 time=0
EXTRACT: note_on channel=9 note=82 velocity=0 time=0.001984125
EXTRACT: note_on channel=9 note=42 velocity=0 time=0
EXTRACT: note_on channel=6 note=64 velocity=0 time=0.029761875000000004
EXTRACT: note_on channel=6 note=61 velocity=0 time=0
EXTRACT: note_on channel=6 note=56 velocity=0 time=0
EXTRACT: note_on channel=9 note=44 velocity=0 time=0.031746
EXTRACT: note_on channel=1 note=37 velocity=0 time=0.009920625
EXTRACT: note_on channel=3 note=68 velocity=0 time=0.017857125
EXTRACT: note_on channel=9 note=28 velocity=72 time=0.005952375000000001
EXTRACT: note_on channel=9 note=36 velocity=101 time=0
EXTRACT: note_on channel=9 note=39 velocity=77 time=0
EXTRACT: note_on channel=9 note=44 velocity=94 time=0
EXTRACT: note_on channel=1 note=32 velocity=81 time=0
EXTRACT: note_on channel=3 note=69 velocity=89 time=0
EXTRACT: note_on channel=9 note=36 velocity=126 time=0
EXTRACT: note_on channel=9 note=35 velocity=117 time=0
EXTRACT: note_on channel=9 note=39 velocity=121 time=0
EXTRACT: note_on channel=9 note=40 velocity=117 time=0
EXTRACT: note_on channel=9 note=44 velocity=81 time=0
EXTRACT: note_on channel=9 note=82 velocity=60 time=0
EXTRACT: note_on channel=9 note=82 velocity=0 time=0.001984125
EXTRACT: note_on channel=9 note=35 velocity=0 time=0
EXTRACT: note_on channel=9 note=39 velocity=0 time=0
EXTRACT: note_on channel=9 note=36 velocity=0 time=0
EXTRACT: note_on channel=9 note=44 velocity=0 time=0
EXTRACT: note_on channel=9 note=40 velocity=0 time=0
EXTRACT: note_on channel=9 note=28 velocity=0 time=0.063492
EXTRACT: note_on channel=9 note=44 velocity=0 time=0.00396825
EXTRACT: note_on channel=9 note=36 velocity=0 time=0.00396825
EXTRACT: note_on channel=9 note=39 velocity=0 time=0.017857125
EXTRACT: note_on channel=5 note=56 velocity=87 time=0.037698375000000006
EXTRACT: note_on channel=5 note=61 velocity=75 time=0
EXTRACT: note_on channel=5 note=64 velocity=81 time=0
EXTRACT: note_on channel=6 note=56 velocity=65 time=0
EXTRACT: note_on channel=6 note=61 velocity=53 time=0
EXTRACT: note_on channel=6 note=64 velocity=59 time=0
EXTRACT: note_on channel=3 note=69 velocity=0 time=0.05555550000000001
EXTRACT: note_on channel=5 note=61 velocity=0 time=0.009920625
EXTRACT: note_on channel=5 note=64 velocity=0 time=0.005952375000000001
EXTRACT: note_on channel=5 note=56 velocity=0 time=0.011904750000000002
EXTRACT: note_on channel=9 note=70 velocity=105 time=0.01984125
EXTRACT: note_on channel=1 note=32 velocity=0 time=0.001984125
EXTRACT: note_on channel=10 note=61 velocity=0 time=0
EXTRACT: note_on channel=9 note=70 velocity=0 time=0
EXTRACT: note_on channel=9 note=36 velocity=88 time=0.00396825
EXTRACT: note_on channel=9 note=44 velocity=63 time=0
EXTRACT: note_on channel=1 note=35 velocity=78 time=0
EXTRACT: note_on channel=3 note=71 velocity=91 time=0
EXTRACT: note_on channel=9 note=42 velocity=75 time=0
EXTRACT: note_on channel=9 note=69 velocity=87 time=0
EXTRACT: note_on channel=9 note=56 velocity=87 time=0
EXTRACT: note_on channel=9 note=56 velocity=0 time=0.001984125
EXTRACT: note_on channel=9 note=69 velocity=0 time=0
EXTRACT: note_on channel=9 note=42 velocity=0 time=0
EXTRACT: note_on channel=10 note=64 velocity=0 time=0.03373012500000001
EXTRACT: note_on channel=9 note=44 velocity=0 time=0.009920625
EXTRACT: note_on channel=10 note=56 velocity=0 time=0
EXTRACT: note_on channel=6 note=64 velocity=0 time=0.017857125
EXTRACT: note_on channel=6 note=61 velocity=0 time=0
EXTRACT: note_on channel=6 note=56 velocity=0 time=0
EXTRACT: note_on channel=9 note=36 velocity=0 time=0.021825375
EXTRACT: note_on channel=9 note=62 velocity=64 time=0.03373012500000001
EXTRACT: note_on channel=9 note=62 velocity=0 time=0.001984125
EXTRACT: note_on channel=9 note=44 velocity=68 time=0.017857125
EXTRACT: note_on channel=9 note=42 velocity=66 time=0.001984125
EXTRACT: note_on channel=9 note=69 velocity=69 time=0
EXTRACT: note_on channel=9 note=69 velocity=0 time=0.001984125
EXTRACT: note_on channel=9 note=42 velocity=0 time=0
EXTRACT: note_on channel=10 note=73 velocity=0 time=0.005952375000000001
EXTRACT: note_on channel=9 note=44 velocity=0 time=0.053571375000000004
EXTRACT: note_on channel=1 note=35 velocity=0 time=0.031746
EXTRACT: note_on channel=9 note=36 velocity=118 time=0.00396825
EXTRACT: note_on channel=9 note=44 velocity=101 time=0
EXTRACT: note_on channel=9 note=52 velocity=95 time=0
EXTRACT: note_on channel=9 note=57 velocity=76 time=0
EXTRACT: note_on channel=1 note=37 velocity=94 time=0
EXTRACT: note_on channel=10 note=61 velocity=58 time=0
EXTRACT: note_on channel=10 note=64 velocity=63 time=0
EXTRACT: note_on channel=10 note=68 velocity=69 time=0
EXTRACT: note_on channel=10 note=76 velocity=69 time=0
EXTRACT: note_on channel=10 note=80 velocity=56 time=0
EXTRACT: note_on channel=6 note=56 velocity=65 time=0
EXTRACT: note_on channel=6 note=61 velocity=52 time=0
EXTRACT: note_on channel=6 note=64 velocity=55 time=0
EXTRACT: note_on channel=7 note=56 velocity=96 time=0
EXTRACT: note_on channel=7 note=61 velocity=79 time=0
EXTRACT: note_on channel=9 note=36 velocity=126 time=0
EXTRACT: note_on channel=9 note=35 velocity=117 time=0
EXTRACT: note_on channel=9 note=44 velocity=81 time=0
EXTRACT: note_on channel=9 note=60 velocity=69 time=0
EXTRACT: note_on channel=9 note=60 velocity=0 time=0.001984125
EXTRACT: note_on channel=9 note=36 velocity=0 time=0
EXTRACT: note_on channel=9 note=35 velocity=0 time=0
EXTRACT: note_on channel=9 note=44 velocity=0 time=0
EXTRACT: note_on channel=9 note=52 velocity=0 time=0.05158725000000001
EXTRACT: note_on channel=7 note=56 velocity=0 time=0.015873
EXTRACT: note_on channel=9 note=36 velocity=0 time=0.001984125
EXTRACT: note_on channel=7 note=61 velocity=0 time=0.00396825
EXTRACT: note_on channel=9 note=44 velocity=0 time=0.013888875000000002
EXTRACT: note_on channel=9 note=57 velocity=0 time=0.005952375000000001
EXTRACT: note_on channel=9 note=69 velocity=93 time=0.045634875000000005
EXTRACT: note_on channel=9 note=69 velocity=0 time=0.001984125
EXTRACT: note_on channel=6 note=64 velocity=0 time=0.029761875000000004
EXTRACT: note_on channel=6 note=61 velocity=0 time=0
EXTRACT: note_on channel=6 note=56 velocity=0 time=0
EXTRACT: note_on channel=1 note=37 velocity=0 time=0.061507875000000004
EXTRACT: note_on channel=9 note=44 velocity=53 time=0.00396825
EXTRACT: note_on channel=1 note=32 velocity=78 time=0
EXTRACT: note_on channel=9 note=42 velocity=73 time=0
EXTRACT: note_on channel=9 note=62 velocity=59 time=0
EXTRACT: note_on channel=9 note=70 velocity=105 time=0
EXTRACT: note_on channel=9 note=70 velocity=0 time=0.001984125
EXTRACT: note_on channel=9 note=62 velocity=0 time=0
EXTRACT: note_on channel=9 note=42 velocity=0 time=0
EXTRACT: note_on channel=9 note=44 velocity=0 time=0.037698375000000006
EXTRACT: note_on channel=7 note=56 velocity=88 time=0.079365
EXTRACT: note_on channel=7 note=61 velocity=80 time=0
EXTRACT: note_on channel=9 note=60 velocity=63 time=0
EXTRACT: note_on channel=9 note=60 velocity=0 time=0.001984125
EXTRACT: note_on channel=6 note=56 velocity=63 time=0.0079365
EXTRACT: note_on channel=6 note=61 velocity=52 time=0
EXTRACT: note_on channel=6 note=64 velocity=55 time=0
EXTRACT: note_on channel=9 note=44 velocity=64 time=0.009920625
EXTRACT: note_on channel=9 note=42 velocity=66 time=0.001984125
EXTRACT: note_on channel=9 note=69 velocity=61 time=0
EXTRACT: note_on channel=9 note=69 velocity=0 time=0.001984125
EXTRACT: note_on channel=9 note=42 velocity=0 time=0
EXTRACT: note_on channel=9 note=44 velocity=0 time=0.06547612500000001
EXTRACT: note_on channel=7 note=56 velocity=0 time=0.00396825
EXTRACT: note_on channel=1 note=32 velocity=0 time=0.021825375
EXTRACT: note_on channel=9 note=28 velocity=74 time=0.00396825
EXTRACT: note_on channel=9 note=36 velocity=110 time=0
EXTRACT: note_on channel=9 note=39 velocity=77 time=0
EXTRACT: note_on channel=9 note=42 velocity=85 time=0
EXTRACT: note_on channel=1 note=35 velocity=74 time=0
EXTRACT: note_on channel=9 note=40 velocity=117 time=0
EXTRACT: note_on channel=9 note=36 velocity=126 time=0
EXTRACT: note_on channel=9 note=35 velocity=117 time=0
EXTRACT: note_on channel=9 note=39 velocity=121 time=0
EXTRACT: note_on channel=9 note=44 velocity=81 time=0
EXTRACT: note_on channel=9 note=69 velocity=78 time=0
EXTRACT: note_on channel=9 note=69 velocity=0 time=0.001984125
EXTRACT: note_on channel=9 note=36 velocity=0 time=0
EXTRACT: note_on channel=9 note=35 velocity=0 time=0
EXTRACT: note_on channel=9 note=40 velocity=0 time=0
EXTRACT: note_on channel=9 note=44 velocity=0 time=0
EXTRACT: note_on channel=9 note=39 velocity=0 time=0
EXTRACT: note_on channel=7 note=61 velocity=0 time=0.04761900000000001
EXTRACT: note_on channel=6 note=64 velocity=0 time=0.013888875000000002
EXTRACT: note_on channel=6 note=61 velocity=0 time=0
EXTRACT: note_on channel=6 note=56 velocity=0 time=0
EXTRACT: note_on channel=9 note=28 velocity=0 time=0.011904750000000002
EXTRACT: note_on channel=9 note=42 velocity=0 time=0.013888875000000002
EXTRACT: note_on channel=9 note=36 velocity=0 time=0.001984125
EXTRACT: note_on channel=9 note=39 velocity=0 time=0.0079365
EXTRACT: note_on channel=7 note=56 velocity=77 time=0.01984125
EXTRACT: note_on channel=7 note=59 velocity=58 time=0
EXTRACT: note_on channel=9 note=61 velocity=73 time=0
EXTRACT: note_on channel=9 note=61 velocity=0 time=0.001984125
EXTRACT: note_on channel=7 note=59 velocity=0 time=0.029761875000000004
EXTRACT: note_on channel=7 note=56 velocity=0 time=0.023809500000000004
EXTRACT: note_on channel=1 note=35 velocity=0 time=0.025793625000000004
EXTRACT: note_on channel=9 note=44 velocity=46 time=0.037698375000000006
EXTRACT: note_on channel=1 note=37 velocity=92 time=0
EXTRACT: note_on channel=6 note=56 velocity=68 time=0
EXTRACT: note_on channel=6 note=61 velocity=56 time=0
EXTRACT: note_on channel=6 note=64 velocity=61 time=0
EXTRACT: note_on channel=7 note=56 velocity=88 time=0
EXTRACT: note_on channel=7 note=61 velocity=78 time=0
EXTRACT: note_on channel=9 note=42 velocity=73 time=0
EXTRACT: note_on channel=9 note=60 velocity=66 time=0
EXTRACT: note_on channel=9 note=60 velocity=0 time=0.001984125
EXTRACT: note_on channel=9 note=42 velocity=0 time=0
EXTRACT: note_on channel=9 note=70 velocity=105 time=0
EXTRACT: note_on channel=9 note=70 velocity=0 time=0.001984125
EXTRACT: note_on channel=3 note=71 velocity=0 time=0.009920625
EXTRACT: note_on channel=9 note=44 velocity=0 time=0.037698375000000006
EXTRACT: note_on channel=7 note=56 velocity=0 time=0.017857125
EXTRACT: note_on channel=7 note=61 velocity=0 time=0.00396825
EXTRACT: note_on channel=9 note=62 velocity=69 time=0.045634875000000005
EXTRACT: note_on channel=9 note=62 velocity=0 time=0.001984125
EXTRACT: note_on channel=9 note=44 velocity=64 time=0.017857125
EXTRACT: note_on channel=9 note=42 velocity=66 time=0.001984125
EXTRACT: note_on channel=9 note=42 velocity=0 time=0.001984125
EXTRACT: note_on channel=10 note=64 velocity=0 time=0.017857125
EXTRACT: note_on channel=10 note=76 velocity=0 time=0.00396825
EXTRACT: note_on channel=6 note=64 velocity=0 time=0.0079365
EXTRACT: note_on channel=6 note=61 velocity=0 time=0
EXTRACT: note_on channel=6 note=56 velocity=0 time=0
EXTRACT: note_on channel=10 note=61 velocity=0 time=0.005952375000000001
EXTRACT: note_on channel=10 note=68 velocity=0 time=0.013888875000000002
EXTRACT: note_on channel=9 note=44 velocity=0 time=0.017857125
EXTRACT: note_on channel=10 note=80 velocity=0 time=0.0079365
EXTRACT: note_on channel=1 note=37 velocity=0 time=0.015873
EXTRACT: note_on channel=9 note=36 velocity=105 time=0.00396825
EXTRACT: note_on channel=9 note=44 velocity=76 time=0
EXTRACT: note_on channel=1 note=30 velocity=85 time=0
EXTRACT: note_on channel=10 note=61 velocity=69 time=0
EXTRACT: note_on channel=10 note=66 velocity=60 time=0
EXTRACT: note_on channel=10 note=69 velocity=74 time=0
EXTRACT: note_on channel=10 note=78 velocity=56 time=0
EXTRACT: note_on channel=10 note=81 velocity=63 time=0
EXTRACT: note_on channel=9 note=36 velocity=126 time=0
EXTRACT: note_on channel=9 note=35 velocity=117 time=0
EXTRACT: note_on channel=9 note=44 velocity=81 time=0
EXTRACT: note_on channel=9 note=82 velocity=69 time=0
EXTRACT: note_on channel=9 note=56 velocity=87 time=0
EXTRACT: note_on channel=9 note=60 velocity=63 time=0
EXTRACT: note_on channel=9 note=60 velocity=0 time=0.001984125
EXTRACT: note_on channel=9 note=35 velocity=0 time=0
EXTRACT: note_on channel=9 note=44 velocity=0 time=0
EXTRACT: note_on channel=9 note=36 velocity=0 time=0
EXTRACT: note_on channel=9 note=56 velocity=0 time=0
EXTRACT: note_on channel=9 note=82 velocity=0 time=0
EXTRACT: note_on channel=9 note=44 velocity=0 time=0.07341262500000001
EXTRACT: note_on channel=9 note=36 velocity=0 time=0.00396825
EXTRACT: note_on channel=7 note=57 velocity=84 time=0.0396825
EXTRACT: note_on channel=7 note=61 velocity=77 time=0
EXTRACT: note_on channel=9 note=82 velocity=43 time=0.021825375
EXTRACT: note_on channel=9 note=82 velocity=0 time=0.001984125
EXTRACT: note_on channel=1 note=30 velocity=0 time=0.015873
EXTRACT: note_on channel=7 note=57 velocity=0 time=0.013888875000000002
EXTRACT: note_on channel=7 note=61 velocity=0 time=0.005952375000000001
EXTRACT: note_on channel=9 note=70 velocity=105 time=0.05158725000000001
EXTRACT: note_on channel=9 note=70 velocity=0 time=0.001984125
EXTRACT: note_on channel=9 note=44 velocity=64 time=0.005952375000000001
EXTRACT: note_on channel=1 note=30 velocity=82 time=0
EXTRACT: note_on channel=3 note=73 velocity=86 time=0
EXTRACT: note_on channel=6 note=57 velocity=55 time=0
EXTRACT: note_on channel=6 note=61 velocity=61 time=0
EXTRACT: note_on channel=6 note=66 velocity=63 time=0
EXTRACT: note_on channel=7 note=57 velocity=83 time=0
EXTRACT: note_on channel=7 note=61 velocity=77 time=0
EXTRACT: note_on channel=9 note=42 velocity=73 time=0
EXTRACT: note_on channel=9 note=82 velocity=48 time=0
EXTRACT: note_on channel=9 note=82 velocity=0 time=0.001984125
EXTRACT: note_on channel=9 note=42 velocity=0 time=0
EXTRACT: note_on channel=9 note=44 velocity=0 time=0.049603125000000005
EXTRACT: note_on channel=7 note=61 velocity=0 time=0.021825375
EXTRACT: note_on channel=7 note=57 velocity=0 time=0.005952375000000001
EXTRACT: note_on channel=9 note=56 velocity=87 time=0.0396825
EXTRACT: note_on channel=9 note=56 velocity=0 time=0.001984125
EXTRACT: note_on channel=9 note=44 velocity=67 time=0.017857125
EXTRACT: note_on channel=9 note=42 velocity=66 time=0.001984125
EXTRACT: note_on channel=9 note=82 velocity=40 time=0
EXTRACT: note_on channel=9 note=82 velocity=0 time=0.001984125
EXTRACT: note_on channel=9 note=42 velocity=0 time=0
EXTRACT: note_on channel=6 note=66 velocity=0 time=0.029761875000000004
EXTRACT: note_on channel=6 note=61 velocity=0 time=0
EXTRACT: note_on channel=6 note=57 velocity=0 time=0
EXTRACT: note_on channel=9 note=44 velocity=0 time=0.031746
EXTRACT: note_on channel=1 note=30 velocity=0 time=0.027777750000000004
EXTRACT: note_on channel=3 note=73 velocity=0 time=0.001984125
EXTRACT: note_on channel=9 note=28 velocity=74 time=0.00396825
EXTRACT: note_on channel=9 note=36 velocity=101 time=0
EXTRACT: note_on channel=9 note=39 velocity=75 time=0
EXTRACT: note_on channel=9 note=44 velocity=82 time=0
EXTRACT: note_on channel=3 note=69 velocity=90 time=0
EXTRACT: note_on channel=7 note=57 velocity=79 time=0
EXTRACT: note_on channel=7 note=61 velocity=68 time=0
EXTRACT: note_on channel=9 note=39 velocity=121 time=0
EXTRACT: note_on channel=9 note=40 velocity=117 time=0
EXTRACT: note_on channel=9 note=36 velocity=126 time=0
EXTRACT: note_on channel=9 note=35 velocity=117 time=0
EXTRACT: note_on channel=9 note=44 velocity=81 time=0
EXTRACT: note_on channel=9 note=82 velocity=69 time=0
EXTRACT: note_on channel=9 note=82 velocity=0 time=0.001984125
EXTRACT: note_on channel=9 note=40 velocity=0 time=0
EXTRACT: note_on channel=9 note=36 velocity=0 time=0
EXTRACT: note_on channel=9 note=39 velocity=0 time=0
EXTRACT: note_on channel=9 note=44 velocity=0 time=0
EXTRACT: note_on channel=9 note=35 velocity=0 time=0
EXTRACT: note_on channel=7 note=57 velocity=0 time=0.049603125000000005
EXTRACT: note_on channel=9 note=44 velocity=0 time=0.027777750000000004
EXTRACT: note_on channel=9 note=28 velocity=0 time=0.00396825
EXTRACT: note_on channel=9 note=36 velocity=0 time=0.0079365
EXTRACT: note_on channel=9 note=39 velocity=0 time=0.013888875000000002
EXTRACT: note_on channel=7 note=57 velocity=72 time=0.013888875000000002
EXTRACT: note_on channel=7 note=59 velocity=56 time=0
EXTRACT: note_on channel=6 note=57 velocity=57 time=0.009920625
EXTRACT: note_on channel=6 note=61 velocity=58 time=0
EXTRACT: note_on channel=6 note=66 velocity=57 time=0
EXTRACT: note_on channel=7 note=61 velocity=0 time=0.023809500000000004
EXTRACT: note_on channel=7 note=59 velocity=0 time=0.001984125
EXTRACT: note_on channel=7 note=57 velocity=0 time=0.025793625000000004
EXTRACT: note_on channel=3 note=69 velocity=0 time=0.0396825
EXTRACT: note_on channel=9 note=70 velocity=105 time=0.011904750000000002
EXTRACT: note_on channel=9 note=70 velocity=0 time=0.001984125
EXTRACT: note_on channel=9 note=44 velocity=67 time=0.00396825
EXTRACT: note_on channel=1 note=33 velocity=83 time=0
EXTRACT: note_on channel=3 note=71 velocity=92 time=0
EXTRACT: note_on channel=7 note=57 velocity=79 time=0
EXTRACT: note_on channel=7 note=61 velocity=77 time=0
EXTRACT: note_on channel=9 note=42 velocity=73 time=0
EXTRACT: note_on channel=9 note=69 velocity=78 time=0
EXTRACT: note_on channel=9 note=56 velocity=87 time=0
EXTRACT: note_on channel=9 note=56 velocity=0 time=0.001984125
EXTRACT: note_on channel=9 note=69 velocity=0 time=0
EXTRACT: note_on channel=9 note=42 velocity=0 time=0
EXTRACT: note_on channel=9 note=44 velocity=0 time=0.049603125000000005
EXTRACT: note_on channel=7 note=57 velocity=0 time=0
EXTRACT: note_on channel=6 note=66 velocity=0 time=0.011904750000000002
EXTRACT: note_on channel=6 note=61 velocity=0 time=0
EXTRACT: note_on channel=6 note=57 velocity=0 time=0
EXTRACT: note_on channel=7 note=61 velocity=0 time=0
EXTRACT: note_on channel=10 note=66 velocity=0 time=0.027777750000000004
EXTRACT: note_on channel=10 note=69 velocity=0 time=0.009920625
EXTRACT: note_on channel=10 note=78 velocity=0 time=0.021825375
EXTRACT: note_on channel=10 note=81 velocity=0 time=0.001984125
EXTRACT: note_on channel=10 note=61 velocity=0 time=0
EXTRACT: note_on channel=9 note=44 velocity=66 time=0.013888875000000002
EXTRACT: note_on channel=9 note=42 velocity=66 time=0.001984125
EXTRACT: note_on channel=9 note=69 velocity=73 time=0
EXTRACT: note_on channel=9 note=69 velocity=0 time=0.001984125
EXTRACT: note_on channel=9 note=42 velocity=0 time=0
EXTRACT: note_on channel=9 note=44 velocity=0 time=0.05952375000000001
EXTRACT: note_on channel=1 note=33 velocity=0 time=0.005952375000000001
EXTRACT: note_on channel=9 note=36 velocity=101 time=0.029761875000000004
EXTRACT: note_on channel=9 note=44 velocity=88 time=0
EXTRACT: note_on channel=1 note=35 velocity=89 time=0
EXTRACT: note_on channel=10 note=59 velocity=74 time=0
EXTRACT: note_on channel=10 note=63 velocity=67 time=0
EXTRACT: note_on channel=10 note=66 velocity=67 time=0
EXTRACT: note_on channel=10 note=75 velocity=55 time=0
EXTRACT: note_on channel=10 note=78 velocity=52 time=0
EXTRACT: note_on channel=6 note=59 velocity=65 time=0
EXTRACT: note_on channel=6 note=63 velocity=62 time=0
EXTRACT: note_on channel=6 note=66 velocity=57 time=0
EXTRACT: note_on channel=7 note=59 velocity=84 time=0
EXTRACT: note_on channel=7 note=64 velocity=50 time=0
EXTRACT: note_on channel=9 note=36 velocity=126 time=0
EXTRACT: note_on channel=9 note=35 velocity=117 time=0
EXTRACT: note_on channel=9 note=35 velocity=0 time=0.001984125
EXTRACT: note_on channel=9 note=36 velocity=0 time=0
EXTRACT: note_on channel=7 note=64 velocity=0 time=0.029761875000000004
EXTRACT: note_on channel=9 note=44 velocity=0 time=0.04761900000000001
EXTRACT: note_on channel=7 note=59 velocity=0 time=0.013888875000000002
EXTRACT: note_on channel=9 note=69 velocity=84 time=0.04761900000000001
EXTRACT: note_on channel=9 note=36 velocity=0 time=0.001984125
EXTRACT: note_on channel=9 note=69 velocity=0 time=0
EXTRACT: note_on channel=6 note=66 velocity=0 time=0.029761875000000004
EXTRACT: note_on channel=6 note=63 velocity=0 time=0
EXTRACT: note_on channel=6 note=59 velocity=0 time=0
EXTRACT: note_on channel=1 note=35 velocity=0 time=0.005952375000000001
EXTRACT: note_on channel=3 note=71 velocity=0 time=0.021825375
EXTRACT: note_on channel=9 note=70 velocity=105 time=0.03373012500000001
EXTRACT: note_on channel=9 note=44 velocity=65 time=0.00396825
EXTRACT: note_on channel=1 note=35 velocity=79 time=0
EXTRACT: note_on channel=3 note=73 velocity=85 time=0
EXTRACT: note_on channel=9 note=70 velocity=0 time=0
EXTRACT: note_on channel=9 note=42 velocity=73 time=0
EXTRACT: note_on channel=9 note=62 velocity=79 time=0
EXTRACT: note_on channel=9 note=62 velocity=0 time=0.001984125
EXTRACT: note_on channel=9 note=42 velocity=0 time=0
EXTRACT: note_on channel=9 note=44 velocity=0 time=0.04761900000000001
EXTRACT: note_on channel=7 note=59 velocity=86 time=0.069444375
EXTRACT: note_on channel=7 note=63 velocity=81 time=0
EXTRACT: note_on channel=9 note=61 velocity=69 time=0
EXTRACT: note_on channel=9 note=61 velocity=0 time=0.001984125
EXTRACT: note_on channel=6 note=59 velocity=58 time=0.0079365
EXTRACT: note_on channel=6 note=63 velocity=63 time=0
EXTRACT: note_on channel=6 note=66 velocity=57 time=0
EXTRACT: note_on channel=9 note=44 velocity=62 time=0.009920625
EXTRACT: note_on channel=9 note=42 velocity=66 time=0.001984125
EXTRACT: note_on channel=9 note=69 velocity=68 time=0
EXTRACT: note_on channel=9 note=69 velocity=0 time=0.001984125
EXTRACT: note_on channel=9 note=42 velocity=0 time=0
EXTRACT: note_on channel=7 note=63 velocity=0 time=0.057539625000000004
EXTRACT: note_on channel=9 note=44 velocity=0 time=0.001984125
EXTRACT: note_on channel=7 note=59 velocity=0 time=0.001984125
EXTRACT: note_on channel=1 note=35 velocity=0 time=0.025793625000000004
EXTRACT: note_on channel=9 note=28 velocity=76 time=0.0079365
EXTRACT: note_on channel=9 note=36 velocity=103 time=0
EXTRACT: note_on channel=9 note=39 velocity=74 time=0
EXTRACT: note_on channel=9 note=42 velocity=89 time=0
EXTRACT: note_on channel=1 note=27 velocity=84 time=0
EXTRACT: note_on channel=9 note=39 velocity=121 time=0
EXTRACT: note_on channel=9 note=36 velocity=126 time=0
EXTRACT: note_on channel=9 note=35 velocity=117 time=0
EXTRACT: note_on channel=9 note=40 velocity=117 time=0
EXTRACT: note_on channel=9 note=44 velocity=81 time=0
EXTRACT: note_on channel=9 note=44 velocity=0 time=0.001984125
EXTRACT: note_on channel=9 note=35 velocity=0 time=0
EXTRACT: note_on channel=9 note=39 velocity=0 time=0
EXTRACT: note_on channel=9 note=36 velocity=0 time=0
EXTRACT: note_on channel=9 note=40 velocity=0 time=0
EXTRACT: note_on channel=6 note=66 velocity=0 time=0.061507875000000004
EXTRACT: note_on channel=6 note=63 velocity=0 time=0
EXTRACT: note_on channel=6 note=59 velocity=0 time=0
EXTRACT: note_on channel=9 note=28 velocity=0 time=0.017857125
EXTRACT: note_on channel=9 note=36 velocity=0 time=0.00396825
EXTRACT: note_on channel=9 note=39 velocity=0 time=0.009920625
EXTRACT: note_on channel=7 note=59 velocity=78 time=0.023809500000000004
EXTRACT: note_on channel=7 note=61 velocity=44 time=0
EXTRACT: note_on channel=9 note=62 velocity=73 time=0
EXTRACT: note_on channel=9 note=62 velocity=0 time=0.001984125
EXTRACT: note_on channel=9 note=42 velocity=0 time=0.001984125
EXTRACT: note_on channel=7 note=61 velocity=0 time=0.021825375
EXTRACT: note_on channel=3 note=73 velocity=0 time=0.009920625
EXTRACT: note_on channel=7 note=59 velocity=0 time=0.025793625000000004
EXTRACT: note_on channel=9 note=44 velocity=67 time=0.057539625000000004
EXTRACT: note_on channel=6 note=59 velocity=60 time=0
EXTRACT: note_on channel=6 note=63 velocity=67 time=0
EXTRACT: note_on channel=6 note=66 velocity=58 time=0
EXTRACT: note_on channel=7 note=59 velocity=82 time=0
EXTRACT: note_on channel=7 note=63 velocity=88 time=0
EXTRACT: note_on channel=9 note=42 velocity=73 time=0
EXTRACT: note_on channel=9 note=61 velocity=66 time=0
EXTRACT: note_on channel=9 note=61 velocity=0 time=0.001984125
EXTRACT: note_on channel=9 note=42 velocity=0 time=0
EXTRACT: note_on channel=9 note=70 velocity=105 time=0.001984125
EXTRACT: note_on channel=9 note=70 velocity=0 time=0.001984125
EXTRACT: note_on channel=9 note=44 velocity=0 time=0.04761900000000001
EXTRACT: note_on channel=7 note=63 velocity=0 time=0.011904750000000002
EXTRACT: note_on channel=10 note=63 velocity=0 time=0.00396825
EXTRACT: note_on channel=7 note=59 velocity=0 time=0.001984125
EXTRACT: note_on channel=10 note=59 velocity=0 time=0.009920625
EXTRACT: note_on channel=10 note=66 velocity=0 time=0
EXTRACT: note_on channel=9 note=44 velocity=61 time=0.057539625000000004
EXTRACT: note_on channel=9 note=42 velocity=66 time=0.001984125
EXTRACT: note_on channel=9 note=82 velocity=48 time=0
EXTRACT: note_on channel=10 note=75 velocity=0 time=0.001984125
EXTRACT: note_on channel=10 note=78 velocity=0 time=0
EXTRACT: note_on channel=9 note=82 velocity=0 time=0
EXTRACT: note_on channel=9 note=42 velocity=0 time=0
EXTRACT: note_on channel=6 note=66 velocity=0 time=0.029761875000000004
EXTRACT: note_on channel=6 note=63 velocity=0 time=0
EXTRACT: note_on channel=6 note=59 velocity=0 time=0
EXTRACT: note_on channel=1 note=27 velocity=0 time=0.011904750000000002
EXTRACT: note_on channel=9 note=36 velocity=95 time=0.053571375000000004
EXTRACT: note_on channel=1 note=28 velocity=87 time=0
EXTRACT: note_on channel=10 note=59 velocity=71 time=0
EXTRACT: note_on channel=10 note=64 velocity=70 time=0
EXTRACT: note_on channel=10 note=68 velocity=64 time=0
EXTRACT: note_on channel=10 note=76 velocity=59 time=0
EXTRACT: note_on channel=10 note=80 velocity=54 time=0
EXTRACT: note_on channel=9 note=36 velocity=126 time=0
EXTRACT: note_on channel=9 note=35 velocity=117 time=0
EXTRACT: note_on channel=9 note=44 velocity=81 time=0
EXTRACT: note_on channel=9 note=82 velocity=55 time=0
EXTRACT: note_on channel=9 note=56 velocity=80 time=0
EXTRACT: note_on channel=9 note=56 velocity=0 time=0.001984125
EXTRACT: note_on channel=9 note=44 velocity=0 time=0
EXTRACT: note_on channel=9 note=36 velocity=0 time=0
EXTRACT: note_on channel=9 note=35 velocity=0 time=0
EXTRACT: note_on channel=9 note=82 velocity=0 time=0
EXTRACT: note_on channel=9 note=44 velocity=0 time=0.041666625000000006
EXTRACT: note_on channel=9 note=36 velocity=0 time=0.05158725000000001
EXTRACT: note_on channel=7 note=59 velocity=79 time=0.023809500000000004
EXTRACT: note_on channel=7 note=64 velocity=85 time=0
EXTRACT: note_on channel=9 note=82 velocity=63 time=0.021825375
EXTRACT: note_on channel=9 note=82 velocity=0 time=0.001984125
EXTRACT: note_on channel=1 note=28 velocity=0 time=0.005952375000000001
EXTRACT: note_on channel=7 note=64 velocity=0 time=0.021825375
EXTRACT: note_on channel=7 note=59 velocity=0 time=0.011904750000000002
EXTRACT: note_on channel=9 note=44 velocity=75 time=0.05555550000000001
EXTRACT: note_on channel=1 note=28 velocity=82 time=0
EXTRACT: note_on channel=3 note=68 velocity=87 time=0
EXTRACT: note_on channel=6 note=56 velocity=64 time=0
EXTRACT: note_on channel=6 note=59 velocity=44 time=0
EXTRACT: note_on channel=6 note=64 velocity=68 time=0
EXTRACT: note_on channel=7 note=59 velocity=78 time=0
EXTRACT: note_on channel=7 note=64 velocity=83 time=0
EXTRACT: note_on channel=9 note=42 velocity=73 time=0
EXTRACT: note_on channel=9 note=82 velocity=59 time=0
EXTRACT: note_on channel=9 note=63 velocity=60 time=0
EXTRACT: note_on channel=9 note=63 velocity=0 time=0.001984125
EXTRACT: note_on channel=9 note=82 velocity=0 time=0
EXTRACT: note_on channel=9 note=42 velocity=0 time=0
EXTRACT: note_on channel=9 note=70 velocity=105 time=0.001984125
EXTRACT: note_on channel=9 note=70 velocity=0 time=0.001984125
EXTRACT: note_on channel=7 note=64 velocity=0 time=0.04365075
EXTRACT: note_on channel=9 note=44 velocity=0 time=0.00396825
EXTRACT: note_on channel=7 note=59 velocity=0 time=0.001984125
EXTRACT: note_on channel=9 note=56 velocity=89 time=0.063492
EXTRACT: note_on channel=9 note=56 velocity=0 time=0.001984125
EXTRACT: note_on channel=9 note=44 velocity=72 time=0.017857125
EXTRACT: note_on channel=9 note=42 velocity=66 time=0.001984125
EXTRACT: note_on channel=9 note=82 velocity=45 time=0
EXTRACT: note_on channel=9 note=82 velocity=0 time=0.001984125
EXTRACT: note_on channel=9 note=42 velocity=0 time=0
EXTRACT: note_on channel=6 note=64 velocity=0 time=0.029761875000000004
EXTRACT: note_on channel=6 note=59 velocity=0 time=0
EXTRACT: note_on channel=6 note=56 velocity=0 time=0
EXTRACT: note_on channel=9 note=44 velocity=0 time=0.025793625000000004
EXTRACT: note_on channel=1 note=28 velocity=0 time=0.03571425
EXTRACT: note_on channel=3 note=68 velocity=0 time=0
EXTRACT: note_on channel=9 note=28 velocity=72 time=0.00396825
EXTRACT: note_on channel=9 note=36 velocity=99 time=0
EXTRACT: note_on channel=9 note=39 velocity=77 time=0
EXTRACT: note_on channel=9 note=44 velocity=88 time=0
EXTRACT: note_on channel=1 note=30 velocity=84 time=0
EXTRACT: note_on channel=3 note=69 velocity=88 time=0
EXTRACT: note_on channel=7 note=59 velocity=83 time=0
EXTRACT: note_on channel=7 note=64 velocity=79 time=0
EXTRACT: note_on channel=9 note=36 velocity=126 time=0
EXTRACT: note_on channel=9 note=35 velocity=117 time=0
EXTRACT: note_on channel=9 note=39 velocity=121 time=0
EXTRACT: note_on channel=9 note=40 velocity=117 time=0
EXTRACT: note_on channel=9 note=44 velocity=81 time=0
EXTRACT: note_on channel=9 note=82 velocity=60 time=0
EXTRACT: note_on channel=9 note=82 velocity=0 time=0.001984125
EXTRACT: note_on channel=9 note=35 velocity=0 time=0
EXTRACT: note_on channel=9 note=39 velocity=0 time=0
EXTRACT: note_on channel=9 note=36 velocity=0 time=0
EXTRACT: note_on channel=9 note=44 velocity=0 time=0
EXTRACT: note_on channel=9 note=40 velocity=0 time=0
EXTRACT: note_on channel=7 note=59 velocity=0 time=0.05158725000000001
EXTRACT: note_on channel=7 note=64 velocity=0 time=0.001984125
EXTRACT: note_on channel=9 note=44 velocity=0 time=0.009920625
EXTRACT: note_on channel=9 note=28 velocity=0 time=0
EXTRACT: note_on channel=9 note=36 velocity=0 time=0.023809500000000004
EXTRACT: note_on channel=9 note=39 velocity=0 time=0.001984125
EXTRACT: note_on channel=7 note=59 velocity=79 time=0.027777750000000004
EXTRACT: note_on channel=7 note=63 velocity=70 time=0
EXTRACT: note_on channel=7 note=64 velocity=22 time=0
EXTRACT: note_on channel=6 note=56 velocity=65 time=0.009920625
EXTRACT: note_on channel=6 note=59 velocity=38 time=0
EXTRACT: note_on channel=6 note=64 velocity=67 time=0
EXTRACT: note_on channel=7 note=64 velocity=0 time=0.023809500000000004
EXTRACT: note_on channel=7 note=63 velocity=0 time=0.005952375000000001
EXTRACT: note_on channel=7 note=59 velocity=0 time=0.01984125
EXTRACT: note_on channel=3 note=69 velocity=0 time=0.013888875000000002
EXTRACT: note_on channel=9 note=70 velocity=105 time=0.0396825
EXTRACT: note_on channel=1 note=30 velocity=0 time=0.001984125
EXTRACT: note_on channel=9 note=70 velocity=0 time=0
EXTRACT: note_on channel=9 note=44 velocity=71 time=0.00396825
EXTRACT: note_on channel=1 note=32 velocity=81 time=0
EXTRACT: note_on channel=3 note=71 velocity=94 time=0
EXTRACT: note_on channel=7 note=59 velocity=81 time=0
EXTRACT: note_on channel=7 note=64 velocity=83 time=0
EXTRACT: note_on channel=9 note=42 velocity=75 time=0
EXTRACT: note_on channel=9 note=69 velocity=87 time=0
EXTRACT: note_on channel=9 note=56 velocity=87 time=0
EXTRACT: note_on channel=9 note=56 velocity=0 time=0.001984125
EXTRACT: note_on channel=9 note=69 velocity=0 time=0
EXTRACT: note_on channel=9 note=42 velocity=0 time=0
EXTRACT: note_on channel=7 note=59 velocity=0 time=0.04761900000000001
EXTRACT: note_on channel=9 note=44 velocity=0 time=0.001984125
EXTRACT: note_on channel=7 note=64 velocity=0 time=0
EXTRACT: note_on channel=6 note=64 velocity=0 time=0.011904750000000002
EXTRACT: note_on channel=6 note=59 velocity=0 time=0
EXTRACT: note_on channel=6 note=56 velocity=0 time=0
EXTRACT: note_on channel=10 note=64 velocity=0 time=0.021825375
EXTRACT: note_on channel=10 note=76 velocity=0 time=0.027777750000000004
EXTRACT: note_on channel=9 note=62 velocity=64 time=0.005952375000000001
EXTRACT: note_on channel=10 note=80 velocity=0 time=0.001984125
EXTRACT: note_on channel=9 note=62 velocity=0 time=0
EXTRACT: note_on channel=10 note=68 velocity=0 time=0.009920625
EXTRACT: note_on channel=9 note=44 velocity=69 time=0.0079365
EXTRACT: note_on channel=9 note=42 velocity=66 time=0.001984125
EXTRACT: note_on channel=9 note=69 velocity=69 time=0
EXTRACT: note_on channel=9 note=69 velocity=0 time=0.001984125
EXTRACT: note_on channel=9 note=42 velocity=0 time=0
EXTRACT: note_on channel=10 note=59 velocity=0 time=0.011904750000000002
EXTRACT: note_on channel=9 note=44 velocity=0 time=0.0396825
EXTRACT: note_on channel=1 note=32 velocity=0 time=0.03373012500000001
EXTRACT: note_on channel=9 note=36 velocity=103 time=0.009920625
EXTRACT: note_on channel=9 note=44 velocity=101 time=0
EXTRACT: note_on channel=1 note=37 velocity=92 time=0
EXTRACT: note_on channel=10 note=61 velocity=67 time=0
EXTRACT: note_on channel=10 note=64 velocity=63 time=0
EXTRACT: note_on channel=10 note=68 velocity=64 time=0
EXTRACT: note_on channel=10 note=76 velocity=62 time=0
EXTRACT: note_on channel=10 note=80 velocity=56 time=0
EXTRACT: note_on channel=6 note=56 velocity=71 time=0
EXTRACT: note_on channel=6 note=61 velocity=55 time=0
EXTRACT: note_on channel=6 note=64 velocity=62 time=0
EXTRACT: note_on channel=7 note=56 velocity=81 time=0
EXTRACT: note_on channel=7 note=61 velocity=67 time=0
EXTRACT: note_on channel=9 note=36 velocity=126 time=0
EXTRACT: note_on channel=9 note=35 velocity=117 time=0
EXTRACT: note_on channel=9 note=44 velocity=81 time=0
EXTRACT: note_on channel=9 note=60 velocity=69 time=0
EXTRACT: note_on channel=9 note=60 velocity=0 time=0.001984125
EXTRACT: note_on channel=9 note=36 velocity=0 time=0
EXTRACT: note_on channel=9 note=35 velocity=0 time=0
EXTRACT: note_on channel=9 note=44 velocity=0 time=0
EXTRACT: note_on channel=9 note=44 velocity=0 time=0.069444375
EXTRACT: note_on channel=7 note=56 velocity=0 time=0
EXTRACT: note_on channel=7 note=61 velocity=0 time=0.001984125
EXTRACT: note_on channel=9 note=36 velocity=0 time=0.0079365
EXTRACT: note_on channel=9 note=69 velocity=93 time=0.05952375000000001
EXTRACT: note_on channel=9 note=69 velocity=0 time=0.001984125
EXTRACT: note_on channel=1 note=37 velocity=0 time=0.01984125
EXTRACT: note_on channel=6 note=64 velocity=0 time=0.009920625
EXTRACT: note_on channel=6 note=61 velocity=0 time=0
EXTRACT: note_on channel=6 note=56 velocity=0 time=0
EXTRACT: note_on channel=9 note=44 velocity=68 time=0.06547612500000001
EXTRACT: note_on channel=1 note=37 velocity=82 time=0
EXTRACT: note_on channel=9 note=42 velocity=73 time=0
EXTRACT: note_on channel=9 note=62 velocity=59 time=0
EXTRACT: note_on channel=9 note=70 velocity=105 time=0
EXTRACT: note_on channel=9 note=70 velocity=0 time=0.001984125
EXTRACT: note_on channel=9 note=62 velocity=0 time=0
EXTRACT: note_on channel=9 note=42 velocity=0 time=0
EXTRACT: note_on channel=9 note=44 velocity=0 time=0.049603125000000005
EXTRACT: note_on channel=3 note=71 velocity=0 time=0.041666625000000006
EXTRACT: note_on channel=7 note=56 velocity=89 time=0.025793625000000004
EXTRACT: note_on channel=7 note=61 velocity=80 time=0
EXTRACT: note_on channel=9 note=60 velocity=63 time=0
EXTRACT: note_on channel=9 note=60 velocity=0 time=0.001984125
EXTRACT: note_on channel=6 note=56 velocity=67 time=0.0079365
EXTRACT: note_on channel=6 note=61 velocity=51 time=0
EXTRACT: note_on channel=6 note=64 velocity=57 time=0
EXTRACT: note_on channel=9 note=44 velocity=59 time=0.009920625
EXTRACT: note_on channel=9 note=42 velocity=66 time=0.001984125
EXTRACT: note_on channel=9 note=69 velocity=61 time=0
EXTRACT: note_on channel=9 note=69 velocity=0 time=0.001984125
EXTRACT: note_on channel=9 note=42 velocity=0 time=0
EXTRACT: note_on channel=9 note=44 velocity=0 time=0.05158725000000001
EXTRACT: note_on channel=7 note=56 velocity=0 time=0.00396825
EXTRACT: note_on channel=1 note=37 velocity=0 time=0.03571425
EXTRACT: note_on channel=9 note=28 velocity=74 time=0.00396825
EXTRACT: note_on channel=9 note=36 velocity=101 time=0
EXTRACT: note_on channel=9 note=39 velocity=77 time=0
EXTRACT: note_on channel=9 note=42 velocity=80 time=0
EXTRACT: note_on channel=1 note=32 velocity=86 time=0
EXTRACT: note_on channel=3 note=71 velocity=95 time=0
EXTRACT: note_on channel=7 note=61 velocity=0 time=0
EXTRACT: note_on channel=9 note=40 velocity=117 time=0
EXTRACT: note_on channel=9 note=36 velocity=126 time=0
EXTRACT: note_on channel=9 note=35 velocity=117 time=0
EXTRACT: note_on channel=9 note=39 velocity=121 time=0
EXTRACT: note_on channel=9 note=44 velocity=81 time=0
EXTRACT: note_on channel=9 note=69 velocity=78 time=0
EXTRACT: note_on channel=9 note=69 velocity=0 time=0.001984125
EXTRACT: note_on channel=9 note=36 velocity=0 time=0
EXTRACT: note_on channel=9 note=35 velocity=0 time=0
EXTRACT: note_on channel=9 note=40 velocity=0 time=0
EXTRACT: note_on channel=9 note=44 velocity=0 time=0
EXTRACT: note_on channel=9 note=39 velocity=0 time=0
EXTRACT: note_on channel=6 note=64 velocity=0 time=0.061507875000000004
EXTRACT: note_on channel=6 note=61 velocity=0 time=0
EXTRACT: note_on channel=6 note=56 velocity=0 time=0
EXTRACT: note_on channel=9 note=28 velocity=0 time=0.011904750000000002
EXTRACT: note_on channel=9 note=36 velocity=0 time=0.005952375000000001
EXTRACT: note_on channel=9 note=42 velocity=0 time=0.001984125
EXTRACT: note_on channel=9 note=39 velocity=0 time=0.015873
EXTRACT: note_on channel=7 note=56 velocity=79 time=0.01984125
EXTRACT: note_on channel=7 note=59 velocity=66 time=0
EXTRACT: note_on channel=9 note=61 velocity=73 time=0
EXTRACT: note_on channel=9 note=61 velocity=0 time=0.001984125
EXTRACT: note_on channel=7 note=59 velocity=0 time=0.027777750000000004
EXTRACT: note_on channel=7 note=56 velocity=0 time=0.031746
EXTRACT: note_on channel=3 note=71 velocity=0 time=0.001984125
EXTRACT: note_on channel=1 note=32 velocity=0 time=0.05158725000000001
EXTRACT: note_on channel=9 note=44 velocity=61 time=0.00396825
EXTRACT: note_on channel=1 note=35 velocity=76 time=0
EXTRACT: note_on channel=3 note=73 velocity=80 time=0
EXTRACT: note_on channel=6 note=56 velocity=68 time=0
EXTRACT: note_on channel=6 note=61 velocity=48 time=0
EXTRACT: note_on channel=6 note=64 velocity=63 time=0
EXTRACT: note_on channel=7 note=56 velocity=87 time=0
EXTRACT: note_on channel=7 note=61 velocity=77 time=0
EXTRACT: note_on channel=9 note=42 velocity=73 time=0
EXTRACT: note_on channel=9 note=60 velocity=66 time=0
EXTRACT: note_on channel=9 note=60 velocity=0 time=0.001984125
EXTRACT: note_on channel=9 note=42 velocity=0 time=0
EXTRACT: note_on channel=9 note=70 velocity=105 time=0
EXTRACT: note_on channel=9 note=70 velocity=0 time=0.001984125
EXTRACT: note_on channel=9 note=44 velocity=0 time=0.041666625000000006
EXTRACT: note_on channel=7 note=56 velocity=0 time=0.01984125
EXTRACT: note_on channel=7 note=61 velocity=0 time=0.0079365
EXTRACT: note_on channel=10 note=64 velocity=0 time=0.005952375000000001
EXTRACT: note_on channel=10 note=80 velocity=0 time=0.03373012500000001
EXTRACT: note_on channel=10 note=68 velocity=0 time=0.001984125
EXTRACT: note_on channel=9 note=62 velocity=69 time=0.00396825
EXTRACT: note_on channel=10 note=76 velocity=0 time=0.001984125
EXTRACT: note_on channel=9 note=62 velocity=0 time=0
EXTRACT: note_on channel=10 note=61 velocity=0 time=0.00396825
EXTRACT: note_on channel=9 note=44 velocity=62 time=0.013888875000000002
EXTRACT: note_on channel=9 note=42 velocity=66 time=0.001984125
EXTRACT: note_on channel=9 note=42 velocity=0 time=0.001984125
EXTRACT: note_on channel=6 note=64 velocity=0 time=0.029761875000000004
EXTRACT: note_on channel=6 note=61 velocity=0 time=0
EXTRACT: note_on channel=6 note=56 velocity=0 time=0
EXTRACT: note_on channel=9 note=44 velocity=0 time=0.025793625000000004
EXTRACT: note_on channel=1 note=35 velocity=0 time=0.01984125
EXTRACT: note_on channel=9 note=36 velocity=105 time=0.01984125
EXTRACT: note_on channel=9 note=44 velocity=89 time=0
EXTRACT: note_on channel=1 note=30 velocity=85 time=0
EXTRACT: note_on channel=10 note=61 velocity=65 time=0
EXTRACT: note_on channel=10 note=66 velocity=59 time=0
EXTRACT: note_on channel=10 note=69 velocity=80 time=0
EXTRACT: note_on channel=10 note=78 velocity=49 time=0
EXTRACT: note_on channel=10 note=81 velocity=63 time=0
EXTRACT: note_on channel=9 note=36 velocity=126 time=0
EXTRACT: note_on channel=9 note=35 velocity=117 time=0
EXTRACT: note_on channel=9 note=44 velocity=81 time=0
EXTRACT: note_on channel=9 note=82 velocity=69 time=0
EXTRACT: note_on channel=9 note=56 velocity=87 time=0
EXTRACT: note_on channel=9 note=60 velocity=63 time=0
EXTRACT: note_on channel=9 note=60 velocity=0 time=0.001984125
EXTRACT: note_on channel=9 note=35 velocity=0 time=0
EXTRACT: note_on channel=9 note=44 velocity=0 time=0
EXTRACT: note_on channel=9 note=36 velocity=0 time=0
EXTRACT: note_on channel=9 note=56 velocity=0 time=0
EXTRACT: note_on channel=9 note=82 velocity=0 time=0
EXTRACT: note_on channel=9 note=44 velocity=0 time=0.069444375
EXTRACT: note_on channel=9 note=36 velocity=0 time=0.00396825
EXTRACT: note_on channel=7 note=57 velocity=81 time=0.04365075
EXTRACT: note_on channel=7 note=61 velocity=77 time=0
EXTRACT: note_on channel=9 note=82 velocity=43 time=0.021825375
EXTRACT: note_on channel=9 note=82 velocity=0 time=0.001984125
EXTRACT: note_on channel=1 note=30 velocity=0 time=0.0079365
EXTRACT: note_on channel=7 note=61 velocity=0 time=0.0396825
EXTRACT: note_on channel=7 note=57 velocity=0 time=0.00396825
EXTRACT: note_on channel=3 note=73 velocity=0 time=0.013888875000000002
EXTRACT: note_on channel=9 note=70 velocity=105 time=0.021825375
EXTRACT: note_on channel=9 note=70 velocity=0 time=0.001984125
EXTRACT: note_on channel=9 note=44 velocity=74 time=0.005952375000000001
EXTRACT: note_on channel=1 note=30 velocity=83 time=0
EXTRACT: note_on channel=3 note=71 velocity=92 time=0
EXTRACT: note_on channel=6 note=57 velocity=59 time=0
EXTRACT: note_on channel=6 note=61 velocity=61 time=0
EXTRACT: note_on channel=6 note=66 velocity=60 time=0
EXTRACT: note_on channel=7 note=57 velocity=76 time=0
EXTRACT: note_on channel=7 note=61 velocity=77 time=0
EXTRACT: note_on channel=9 note=42 velocity=73 time=0
EXTRACT: note_on channel=9 note=82 velocity=48 time=0
EXTRACT: note_on channel=9 note=82 velocity=0 time=0.001984125
EXTRACT: note_on channel=9 note=42 velocity=0 time=0
EXTRACT: note_on channel=9 note=44 velocity=0 time=0.049603125000000005
EXTRACT: note_on channel=7 note=57 velocity=0 time=0.021825375
EXTRACT: note_on channel=7 note=61 velocity=0 time=0.005952375000000001
EXTRACT: note_on channel=9 note=56 velocity=87 time=0.0396825
EXTRACT: note_on channel=9 note=56 velocity=0 time=0.001984125
EXTRACT: note_on channel=9 note=42 velocity=66 time=0.01984125
EXTRACT: note_on channel=9 note=82 velocity=40 time=0
EXTRACT: note_on channel=9 note=82 velocity=0 time=0.001984125
EXTRACT: note_on channel=9 note=42 velocity=0 time=0
EXTRACT: note_on channel=6 note=66 velocity=0 time=0.029761875000000004
EXTRACT: note_on channel=6 note=61 velocity=0 time=0
EXTRACT: note_on channel=6 note=57 velocity=0 time=0
EXTRACT: note_on channel=9 note=28 velocity=74 time=0.06547612500000001
EXTRACT: note_on channel=9 note=36 velocity=105 time=0
EXTRACT: note_on channel=9 note=39 velocity=75 time=0
EXTRACT: note_on channel=9 note=44 velocity=92 time=0
EXTRACT: note_on channel=7 note=57 velocity=84 time=0
EXTRACT: note_on channel=7 note=61 velocity=75 time=0
EXTRACT: note_on channel=9 note=39 velocity=121 time=0
EXTRACT: note_on channel=9 note=40 velocity=117 time=0
EXTRACT: note_on channel=9 note=36 velocity=126 time=0
EXTRACT: note_on channel=9 note=35 velocity=117 time=0
EXTRACT: note_on channel=9 note=44 velocity=81 time=0
EXTRACT: note_on channel=9 note=82 velocity=69 time=0
EXTRACT: note_on channel=9 note=82 velocity=0 time=0.001984125
EXTRACT: note_on channel=9 note=40 velocity=0 time=0
EXTRACT: note_on channel=9 note=36 velocity=0 time=0
EXTRACT: note_on channel=9 note=39 velocity=0 time=0
EXTRACT: note_on channel=9 note=44 velocity=0 time=0
EXTRACT: note_on channel=9 note=35 velocity=0 time=0
EXTRACT: note_on channel=1 note=30 velocity=0 time=0.023809500000000004
EXTRACT: note_on channel=7 note=57 velocity=0 time=0.023809500000000004
EXTRACT: note_on channel=9 note=44 velocity=0 time=0.025793625000000004
EXTRACT: note_on channel=7 note=61 velocity=0 time=0.00396825
EXTRACT: note_on channel=9 note=36 velocity=0 time=0.001984125
EXTRACT: note_on channel=9 note=28 velocity=0 time=0.001984125
EXTRACT: note_on channel=9 note=39 velocity=0 time=0.021825375
EXTRACT: note_on channel=7 note=57 velocity=74 time=0.013888875000000002
EXTRACT: note_on channel=7 note=59 velocity=64 time=0
EXTRACT: note_on channel=6 note=57 velocity=57 time=0.009920625
EXTRACT: note_on channel=6 note=61 velocity=58 time=0
EXTRACT: note_on channel=6 note=66 velocity=60 time=0
EXTRACT: note_on channel=7 note=59 velocity=0 time=0.029761875000000004
EXTRACT: note_on channel=7 note=57 velocity=0 time=0.011904750000000002
EXTRACT: note_on channel=9 note=70 velocity=105 time=0.061507875000000004
EXTRACT: note_on channel=3 note=71 velocity=0 time=0.001984125
EXTRACT: note_on channel=9 note=70 velocity=0 time=0
EXTRACT: note_on channel=9 note=44 velocity=83 time=0.00396825
EXTRACT: note_on channel=1 note=33 velocity=83 time=0
EXTRACT: note_on channel=3 note=68 velocity=86 time=0
EXTRACT: note_on channel=7 note=57 velocity=89 time=0
EXTRACT: note_on channel=7 note=61 velocity=71 time=0
EXTRACT: note_on channel=9 note=42 velocity=73 time=0
EXTRACT: note_on channel=9 note=69 velocity=78 time=0
EXTRACT: note_on channel=9 note=56 velocity=87 time=0
EXTRACT: note_on channel=9 note=56 velocity=0 time=0.001984125
EXTRACT: note_on channel=9 note=69 velocity=0 time=0
EXTRACT: note_on channel=9 note=42 velocity=0 time=0
EXTRACT: note_on channel=7 note=57 velocity=0 time=0.04365075
EXTRACT: note_on channel=6 note=66 velocity=0 time=0.017857125
EXTRACT: note_on channel=6 note=61 velocity=0 time=0
EXTRACT: note_on channel=6 note=57 velocity=0 time=0
EXTRACT: note_on channel=7 note=61 velocity=0 time=0.001984125
EXTRACT: note_on channel=9 note=44 velocity=0 time=0.00396825
EXTRACT: note_on channel=10 note=66 velocity=0 time=0.031746
EXTRACT: note_on channel=10 note=81 velocity=0 time=0.0079365
EXTRACT: note_on channel=10 note=69 velocity=0 time=0.005952375000000001
EXTRACT: note_on channel=10 note=78 velocity=0 time=0.005952375000000001
EXTRACT: note_on channel=9 note=44 velocity=69 time=0.017857125
EXTRACT: note_on channel=9 note=42 velocity=66 time=0.001984125
EXTRACT: note_on channel=9 note=69 velocity=73 time=0
EXTRACT: note_on channel=9 note=69 velocity=0 time=0.001984125
EXTRACT: note_on channel=9 note=42 velocity=0 time=0
EXTRACT: note_on channel=10 note=61 velocity=0 time=0.005952375000000001
EXTRACT: note_on channel=9 note=44 velocity=0 time=0.049603125000000005
EXTRACT: note_on channel=1 note=33 velocity=0 time=0.00396825
EXTRACT: note_on channel=3 note=68 velocity=0 time=0.029761875000000004
EXTRACT: note_on channel=9 note=36 velocity=113 time=0.005952375000000001
EXTRACT: note_on channel=9 note=42 velocity=83 time=0
EXTRACT: note_on channel=9 note=49 velocity=88 time=0
EXTRACT: note_on channel=9 note=55 velocity=80 time=0
EXTRACT: note_on channel=1 note=35 velocity=89 time=0
EXTRACT: note_on channel=10 note=59 velocity=73 time=0
EXTRACT: note_on channel=10 note=64 velocity=67 time=0
EXTRACT: note_on channel=10 note=66 velocity=69 time=0
EXTRACT: note_on channel=10 note=71 velocity=45 time=0
EXTRACT: note_on channel=10 note=76 velocity=53 time=0
EXTRACT: note_on channel=10 note=78 velocity=41 time=0
EXTRACT: note_on channel=3 note=66 velocity=85 time=0
EXTRACT: note_on channel=6 note=59 velocity=65 time=0
EXTRACT: note_on channel=6 note=64 velocity=63 time=0
EXTRACT: note_on channel=6 note=66 velocity=63 time=0
EXTRACT: note_on channel=7 note=59 velocity=93 time=0
EXTRACT: note_on channel=7 note=64 velocity=88 time=0
EXTRACT: note_on channel=9 note=36 velocity=126 time=0
EXTRACT: note_on channel=9 note=35 velocity=117 time=0
EXTRACT: note_on channel=9 note=35 velocity=0 time=0.001984125
EXTRACT: note_on channel=9 note=36 velocity=0 time=0
EXTRACT: note_on channel=7 note=64 velocity=0 time=0.04365075
EXTRACT: note_on channel=7 note=59 velocity=0 time=0.025793625000000004
EXTRACT: note_on channel=9 note=42 velocity=0 time=0.009920625
EXTRACT: note_on channel=9 note=36 velocity=0 time=0.011904750000000002
EXTRACT: note_on channel=9 note=69 velocity=84 time=0.04761900000000001
EXTRACT: note_on channel=9 note=69 velocity=0 time=0.001984125
EXTRACT: note_on channel=6 note=66 velocity=0 time=0.029761875000000004
EXTRACT: note_on channel=6 note=64 velocity=0 time=0
EXTRACT: note_on channel=6 note=59 velocity=0 time=0
EXTRACT: note_on channel=9 note=70 velocity=105 time=0.061507875000000004
EXTRACT: note_on channel=9 note=44 velocity=57 time=0.00396825
EXTRACT: note_on channel=9 note=70 velocity=0 time=0
EXTRACT: note_on channel=9 note=42 velocity=73 time=0
EXTRACT: note_on channel=9 note=62 velocity=79 time=0
EXTRACT: note_on channel=9 note=62 velocity=0 time=0.001984125
EXTRACT: note_on channel=9 note=42 velocity=0 time=0
EXTRACT: note_on channel=9 note=44 velocity=0 time=0.05158725000000001
EXTRACT: note_on channel=7 note=59 velocity=85 time=0.06547612500000001
EXTRACT: note_on channel=7 note=64 velocity=88 time=0
EXTRACT: note_on channel=9 note=61 velocity=69 time=0
EXTRACT: note_on channel=9 note=61 velocity=0 time=0.001984125
EXTRACT: note_on channel=6 note=59 velocity=63 time=0.0079365
EXTRACT: note_on channel=6 note=64 velocity=63 time=0
EXTRACT: note_on channel=6 note=66 velocity=62 time=0
EXTRACT: note_on channel=9 note=44 velocity=66 time=0.009920625
EXTRACT: note_on channel=9 note=42 velocity=66 time=0.001984125
EXTRACT: note_on channel=9 note=69 velocity=68 time=0
EXTRACT: note_on channel=9 note=69 velocity=0 time=0.001984125
EXTRACT: note_on channel=9 note=42 velocity=0 time=0
EXTRACT: note_on channel=7 note=64 velocity=0 time=0.031746
EXTRACT: note_on channel=9 note=44 velocity=0 time=0.01984125
EXTRACT: note_on channel=7 note=59 velocity=0 time=0.013888875000000002
EXTRACT: note_on channel=9 note=28 velocity=76 time=0.029761875000000004
EXTRACT: note_on channel=9 note=36 velocity=105 time=0
EXTRACT: note_on channel=9 note=39 velocity=74 time=0
EXTRACT: note_on channel=9 note=44 velocity=85 time=0
EXTRACT: note_on channel=9 note=39 velocity=121 time=0
EXTRACT: note_on channel=9 note=36 velocity=126 time=0
EXTRACT: note_on channel=9 note=35 velocity=117 time=0
EXTRACT: note_on channel=9 note=40 velocity=117 time=0
EXTRACT: note_on channel=9 note=44 velocity=81 time=0
EXTRACT: note_on channel=9 note=44 velocity=0 time=0.001984125
EXTRACT: note_on channel=9 note=35 velocity=0 time=0
EXTRACT: note_on channel=9 note=39 velocity=0 time=0
EXTRACT: note_on channel=9 note=36 velocity=0 time=0
EXTRACT: note_on channel=9 note=40 velocity=0 time=0
EXTRACT: note_on channel=6 note=66 velocity=0 time=0.061507875000000004
EXTRACT: note_on channel=6 note=64 velocity=0 time=0
EXTRACT: note_on channel=6 note=59 velocity=0 time=0
EXTRACT: note_on channel=9 note=28 velocity=0 time=0.017857125
EXTRACT: note_on channel=9 note=36 velocity=0 time=0.0079365
EXTRACT: note_on channel=9 note=39 velocity=0 time=0.005952375000000001
EXTRACT: note_on channel=9 note=44 velocity=0 time=0.023809500000000004
EXTRACT: note_on channel=7 note=59 velocity=77 time=0
EXTRACT: note_on channel=7 note=64 velocity=73 time=0
EXTRACT: note_on channel=9 note=62 velocity=73 time=0
EXTRACT: note_on channel=9 note=62 velocity=0 time=0.001984125
EXTRACT: note_on channel=7 note=64 velocity=0 time=0.027777750000000004
EXTRACT: note_on channel=7 note=59 velocity=0 time=0.031746
EXTRACT: note_on channel=1 note=35 velocity=0 time=0.011904750000000002
EXTRACT: note_on channel=9 note=44 velocity=67 time=0.045634875000000005
EXTRACT: note_on channel=9 note=65 velocity=97 time=0
EXTRACT: note_on channel=1 note=35 velocity=91 time=0
EXTRACT: note_on channel=6 note=59 velocity=69 time=0
EXTRACT: note_on channel=6 note=64 velocity=62 time=0
EXTRACT: note_on channel=6 note=66 velocity=61 time=0
EXTRACT: note_on channel=7 note=59 velocity=85 time=0
EXTRACT: note_on channel=7 note=64 velocity=93 time=0
EXTRACT: note_on channel=9 note=42 velocity=73 time=0
EXTRACT: note_on channel=9 note=61 velocity=66 time=0
EXTRACT: note_on channel=9 note=61 velocity=0 time=0.001984125
EXTRACT: note_on channel=9 note=42 velocity=0 time=0
EXTRACT: note_on channel=9 note=70 velocity=105 time=0.001984125
EXTRACT: note_on channel=9 note=70 velocity=0 time=0.001984125
EXTRACT: note_on channel=9 note=44 velocity=0 time=0.045634875000000005
EXTRACT: note_on channel=9 note=65 velocity=0 time=0.001984125
EXTRACT: note_on channel=7 note=64 velocity=0 time=0.0079365
EXTRACT: note_on channel=7 note=59 velocity=0 time=0.021825375
EXTRACT: note_on channel=10 note=64 velocity=0 time=0.015873
EXTRACT: note_on channel=10 note=71 velocity=0 time=0.013888875000000002
EXTRACT: note_on channel=9 note=65 velocity=84 time=0.005952375000000001
EXTRACT: note_on channel=10 note=66 velocity=0 time=0
EXTRACT: note_on channel=10 note=76 velocity=0 time=0.013888875000000002
EXTRACT: note_on channel=9 note=44 velocity=65 time=0.005952375000000001
EXTRACT: note_on channel=9 note=42 velocity=66 time=0.001984125
EXTRACT: note_on channel=9 note=82 velocity=48 time=0
EXTRACT: note_on channel=9 note=82 velocity=0 time=0.001984125
EXTRACT: note_on channel=9 note=42 velocity=0 time=0
EXTRACT: note_on channel=10 note=59 velocity=0 time=0.001984125
EXTRACT: note_on channel=1 note=35 velocity=0 time=0.00396825
EXTRACT: note_on channel=10 note=78 velocity=0 time=0.011904750000000002
EXTRACT: note_on channel=9 note=65 velocity=0 time=0.0079365
EXTRACT: note_on channel=6 note=66 velocity=0 time=0.00396825
EXTRACT: note_on channel=6 note=64 velocity=0 time=0
EXTRACT: note_on channel=6 note=59 velocity=0 time=0
EXTRACT: note_on channel=9 note=44 velocity=0 time=0.031746
EXTRACT: note_on channel=9 note=36 velocity=110 time=0.03373012500000001
EXTRACT: note_on channel=9 note=42 velocity=84 time=0
EXTRACT: note_on channel=9 note=65 velocity=81 time=0
EXTRACT: note_on channel=1 note=35 velocity=99 time=0
EXTRACT: note_on channel=10 note=59 velocity=77 time=0
EXTRACT: note_on channel=10 note=63 velocity=63 time=0
EXTRACT: note_on channel=10 note=66 velocity=65 time=0
EXTRACT: note_on channel=10 note=71 velocity=33 time=0
EXTRACT: note_on channel=10 note=75 velocity=46 time=0
EXTRACT: note_on channel=10 note=78 velocity=48 time=0
EXTRACT: note_on channel=9 note=36 velocity=126 time=0
EXTRACT: note_on channel=9 note=35 velocity=117 time=0
EXTRACT: note_on channel=9 note=44 velocity=81 time=0
EXTRACT: note_on channel=9 note=82 velocity=55 time=0
EXTRACT: note_on channel=9 note=56 velocity=80 time=0
EXTRACT: note_on channel=9 note=56 velocity=0 time=0.001984125
EXTRACT: note_on channel=9 note=44 velocity=0 time=0
EXTRACT: note_on channel=9 note=36 velocity=0 time=0
EXTRACT: note_on channel=9 note=35 velocity=0 time=0
EXTRACT: note_on channel=9 note=82 velocity=0 time=0
EXTRACT: note_on channel=9 note=65 velocity=0 time=0.04365075
EXTRACT: note_on channel=9 note=36 velocity=0 time=0.04761900000000001
EXTRACT: note_on channel=9 note=42 velocity=0 time=0.009920625
EXTRACT: note_on channel=9 note=65 velocity=86 time=0.015873
EXTRACT: note_on channel=7 note=59 velocity=77 time=0
EXTRACT: note_on channel=7 note=63 velocity=76 time=0
EXTRACT: note_on channel=7 note=66 velocity=77 time=0
EXTRACT: note_on channel=1 note=35 velocity=0 time=0.009920625
EXTRACT: note_on channel=9 note=82 velocity=63 time=0.011904750000000002
EXTRACT: note_on channel=9 note=82 velocity=0 time=0.001984125
EXTRACT: note_on channel=7 note=63 velocity=0 time=0.025793625000000004
EXTRACT: note_on channel=3 note=66 velocity=0 time=0.021825375
EXTRACT: note_on channel=9 note=65 velocity=0 time=0.001984125
EXTRACT: note_on channel=7 note=66 velocity=0 time=0.001984125
EXTRACT: note_on channel=7 note=59 velocity=0 time=0.013888875000000002
EXTRACT: note_on channel=9 note=49 velocity=0 time=0.013888875000000002
EXTRACT: note_on channel=9 note=66 velocity=87 time=0.015873
EXTRACT: note_on channel=1 note=35 velocity=95 time=0
EXTRACT: note_on channel=3 note=73 velocity=91 time=0
EXTRACT: note_on channel=6 note=59 velocity=76 time=0
EXTRACT: note_on channel=6 note=63 velocity=66 time=0
EXTRACT: note_on channel=6 note=66 velocity=60 time=0
EXTRACT: note_on channel=7 note=59 velocity=61 time=0
EXTRACT: note_on channel=9 note=42 velocity=73 time=0
EXTRACT: note_on channel=9 note=82 velocity=59 time=0
EXTRACT: note_on channel=9 note=63 velocity=60 time=0
EXTRACT: note_on channel=9 note=63 velocity=0 time=0.001984125
EXTRACT: note_on channel=9 note=82 velocity=0 time=0
EXTRACT: note_on channel=9 note=42 velocity=0 time=0
EXTRACT: note_on channel=9 note=70 velocity=105 time=0.001984125
EXTRACT: note_on channel=9 note=55 velocity=0 time=0.001984125
EXTRACT: note_on channel=9 note=70 velocity=0 time=0
EXTRACT: note_on channel=9 note=66 velocity=0 time=0.07539675000000001
EXTRACT: note_on channel=7 note=59 velocity=0 time=0.013888875000000002
EXTRACT: note_on channel=9 note=56 velocity=89 time=0.023809500000000004
EXTRACT: note_on channel=9 note=56 velocity=0 time=0.001984125
EXTRACT: note_on channel=9 note=42 velocity=66 time=0.01984125
EXTRACT: note_on channel=9 note=82 velocity=45 time=0
EXTRACT: note_on channel=9 note=82 velocity=0 time=0.001984125
EXTRACT: note_on channel=9 note=42 velocity=0 time=0
EXTRACT: note_on channel=6 note=66 velocity=0 time=0.029761875000000004
EXTRACT: note_on channel=6 note=63 velocity=0 time=0
EXTRACT: note_on channel=6 note=59 velocity=0 time=0
EXTRACT: note_on channel=9 note=66 velocity=79 time=0.045634875000000005
EXTRACT: note_on channel=1 note=35 velocity=0 time=0.015873
EXTRACT: note_on channel=3 note=73 velocity=0 time=0
EXTRACT: note_on channel=9 note=28 velocity=72 time=0.00396825
EXTRACT: note_on channel=9 note=39 velocity=77 time=0
EXTRACT: note_on channel=9 note=40 velocity=96 time=0
EXTRACT: note_on channel=9 note=65 velocity=91 time=0
EXTRACT: note_on channel=1 note=27 velocity=88 time=0
EXTRACT: note_on channel=3 note=71 velocity=89 time=0
EXTRACT: note_on channel=7 note=59 velocity=73 time=0
EXTRACT: note_on channel=7 note=63 velocity=81 time=0
EXTRACT: note_on channel=7 note=66 velocity=77 time=0
EXTRACT: note_on channel=9 note=36 velocity=126 time=0
EXTRACT: note_on channel=9 note=35 velocity=117 time=0
EXTRACT: note_on channel=9 note=39 velocity=121 time=0
EXTRACT: note_on channel=9 note=40 velocity=117 time=0
EXTRACT: note_on channel=9 note=44 velocity=81 time=0
EXTRACT: note_on channel=9 note=82 velocity=60 time=0
EXTRACT: note_on channel=9 note=82 velocity=0 time=0.001984125
EXTRACT: note_on channel=9 note=35 velocity=0 time=0
EXTRACT: note_on channel=9 note=39 velocity=0 time=0
EXTRACT: note_on channel=9 note=36 velocity=0 time=0
EXTRACT: note_on channel=9 note=44 velocity=0 time=0
EXTRACT: note_on channel=9 note=40 velocity=0 time=0
EXTRACT: note_on channel=7 note=59 velocity=0 time=0.053571375000000004
EXTRACT: note_on channel=7 note=63 velocity=0 time=0.005952375000000001
EXTRACT: note_on channel=9 note=28 velocity=0 time=0.00396825
EXTRACT: note_on channel=9 note=40 velocity=0 time=0.005952375000000001
EXTRACT: note_on channel=9 note=66 velocity=0 time=0
EXTRACT: note_on channel=7 note=66 velocity=0 time=0.001984125
EXTRACT: note_on channel=9 note=65 velocity=0 time=0.001984125
EXTRACT: note_on channel=9 note=39 velocity=0 time=0.015873
EXTRACT: note_on channel=9 note=40 velocity=96 time=0.027777750000000004
EXTRACT: note_on channel=7 note=59 velocity=75 time=0
EXTRACT: note_on channel=7 note=63 velocity=80 time=0
EXTRACT: note_on channel=7 note=66 velocity=67 time=0
EXTRACT: note_on channel=6 note=59 velocity=75 time=0.009920625
EXTRACT: note_on channel=6 note=63 velocity=65 time=0
EXTRACT: note_on channel=6 note=66 velocity=59 time=0
EXTRACT: note_on channel=7 note=63 velocity=0 time=0.05158725000000001
EXTRACT: note_on channel=7 note=59 velocity=0 time=0.001984125
EXTRACT: note_on channel=7 note=66 velocity=0 time=0.005952375000000001
EXTRACT: note_on channel=10 note=63 velocity=0 time=0.021825375
EXTRACT: note_on channel=1 note=27 velocity=0 time=0.013888875000000002
EXTRACT: note_on channel=9 note=40 velocity=0 time=0.00396825
EXTRACT: note_on channel=10 note=71 velocity=0 time=0.001984125
EXTRACT: note_on channel=10 note=66 velocity=0 time=0.001984125
EXTRACT: note_on channel=9 note=70 velocity=105 time=0
EXTRACT: note_on channel=3 note=71 velocity=0 time=0.001984125
EXTRACT: note_on channel=9 note=70 velocity=0 time=0
EXTRACT: note_on channel=9 note=40 velocity=109 time=0.00396825
EXTRACT: note_on channel=9 note=65 velocity=91 time=0
EXTRACT: note_on channel=1 note=30 velocity=85 time=0
EXTRACT: note_on channel=3 note=73 velocity=87 time=0
EXTRACT: note_on channel=7 note=59 velocity=81 time=0
EXTRACT: note_on channel=7 note=63 velocity=77 time=0
EXTRACT: note_on channel=7 note=66 velocity=78 time=0
EXTRACT: note_on channel=9 note=42 velocity=75 time=0
EXTRACT: note_on channel=9 note=69 velocity=87 time=0
EXTRACT: note_on channel=9 note=56 velocity=87 time=0
EXTRACT: note_on channel=9 note=56 velocity=0 time=0.001984125
EXTRACT: note_on channel=9 note=69 velocity=0 time=0
EXTRACT: note_on channel=9 note=42 velocity=0 time=0
EXTRACT: note_on channel=10 note=59 velocity=0 time=0.013888875000000002
EXTRACT: note_on channel=10 note=75 velocity=0 time=0.023809500000000004
EXTRACT: note_on channel=10 note=78 velocity=0 time=0.015873
EXTRACT: note_on channel=6 note=66 velocity=0 time=0.0079365
EXTRACT: note_on channel=6 note=63 velocity=0 time=0
EXTRACT: note_on channel=6 note=59 velocity=0 time=0
EXTRACT: note_on channel=7 note=63 velocity=0 time=0
EXTRACT: note_on channel=9 note=65 velocity=0 time=0.011904750000000002
EXTRACT: note_on channel=7 note=66 velocity=0 time=0.009920625
EXTRACT: note_on channel=9 note=40 velocity=0 time=0.023809500000000004
EXTRACT: note_on channel=7 note=59 velocity=0 time=0.00396825
EXTRACT: note_on channel=9 note=65 velocity=80 time=0.005952375000000001
EXTRACT: note_on channel=9 note=62 velocity=64 time=0
EXTRACT: note_on channel=9 note=62 velocity=0 time=0.001984125
EXTRACT: note_on channel=9 note=42 velocity=66 time=0.01984125
EXTRACT: note_on channel=9 note=69 velocity=69 time=0
EXTRACT: note_on channel=9 note=69 velocity=0 time=0.001984125
EXTRACT: note_on channel=9 note=42 velocity=0 time=0
EXTRACT: note_on channel=3 note=73 velocity=0 time=0.0079365
EXTRACT: note_on channel=9 note=65 velocity=0 time=0.001984125
EXTRACT: note_on channel=1 note=30 velocity=0 time=0.049603125000000005
EXTRACT: note_on channel=9 note=27 velocity=94 time=0.03571425
EXTRACT: note_on channel=9 note=36 velocity=105 time=0
EXTRACT: note_on channel=9 note=42 velocity=103 time=0
EXTRACT: note_on channel=9 note=44 velocity=107 time=0
EXTRACT: note_on channel=9 note=49 velocity=88 time=0
EXTRACT: note_on channel=9 note=56 velocity=82 time=0
EXTRACT: note_on channel=9 note=57 velocity=74 time=0
EXTRACT: note_on channel=1 note=37 velocity=84 time=0
EXTRACT: note_on channel=10 note=56 velocity=55 time=0
EXTRACT: note_on channel=10 note=61 velocity=44 time=0
EXTRACT: note_on channel=10 note=64 velocity=53 time=0
EXTRACT: note_on channel=3 note=68 velocity=91 time=0
EXTRACT: note_on channel=5 note=61 velocity=81 time=0
EXTRACT: note_on channel=5 note=64 velocity=87 time=0
EXTRACT: note_on channel=5 note=68 velocity=75 time=0
EXTRACT: note_on channel=7 note=49 velocity=81 time=0
EXTRACT: note_on channel=9 note=36 velocity=126 time=0
EXTRACT: note_on channel=9 note=35 velocity=117 time=0
EXTRACT: note_on channel=9 note=57 velocity=84 time=0
EXTRACT: note_on channel=9 note=57 velocity=0 time=0.001984125
EXTRACT: note_on channel=9 note=35 velocity=0 time=0
EXTRACT: note_on channel=9 note=36 velocity=0 time=0
EXTRACT: note_on channel=9 note=44 velocity=0 time=0.061507875000000004
EXTRACT: note_on channel=5 note=64 velocity=0 time=0
EXTRACT: note_on channel=9 note=27 velocity=0 time=0.001984125
EXTRACT: note_on channel=9 note=36 velocity=0 time=0.0079365
EXTRACT: note_on channel=5 note=68 velocity=0 time=0.001984125
EXTRACT: note_on channel=9 note=49 velocity=0 time=0.009920625
EXTRACT: note_on channel=5 note=61 velocity=0 time=0
EXTRACT: note_on channel=9 note=57 velocity=0 time=0.009920625
EXTRACT: note_on channel=1 note=37 velocity=0 time=0.0396825
EXTRACT: note_on channel=9 note=69 velocity=93 time=0.005952375000000001
EXTRACT: note_on channel=9 note=69 velocity=0 time=0.001984125
EXTRACT: note_on channel=9 note=42 velocity=0 time=0.01984125
EXTRACT: note_on channel=7 note=49 velocity=0 time=0.03571425
EXTRACT: note_on channel=3 note=68 velocity=0 time=0.03571425
EXTRACT: note_on channel=9 note=27 velocity=79 time=0.00396825
EXTRACT: note_on channel=9 note=44 velocity=51 time=0
EXTRACT: note_on channel=9 note=67 velocity=35 time=0
EXTRACT: note_on channel=1 note=37 velocity=81 time=0
EXTRACT: note_on channel=3 note=64 velocity=81 time=0
EXTRACT: note_on channel=7 note=56 velocity=74 time=0
EXTRACT: note_on channel=7 note=61 velocity=62 time=0
EXTRACT: note_on channel=9 note=42 velocity=73 time=0
EXTRACT: note_on channel=9 note=70 velocity=105 time=0
EXTRACT: note_on channel=9 note=70 velocity=0 time=0.001984125
EXTRACT: note_on channel=9 note=42 velocity=0 time=0
EXTRACT: note_on channel=9 note=44 velocity=0 time=0.027777750000000004
EXTRACT: note_on channel=9 note=56 velocity=0 time=0.005952375000000001
EXTRACT: note_on channel=9 note=67 velocity=0 time=0.005952375000000001
EXTRACT: note_on channel=7 note=61 velocity=0 time=0.01984125
EXTRACT: note_on channel=7 note=56 velocity=0 time=0
EXTRACT: note_on channel=9 note=27 velocity=0 time=0.009920625
EXTRACT: note_on channel=7 note=56 velocity=82 time=0.04761900000000001
EXTRACT: note_on channel=7 note=61 velocity=71 time=0
EXTRACT: note_on channel=9 note=62 velocity=64 time=0
EXTRACT: note_on channel=9 note=62 velocity=0 time=0.001984125
EXTRACT: note_on channel=9 note=32 velocity=71 time=0.0079365
EXTRACT: note_on channel=9 note=44 velocity=66 time=0
EXTRACT: note_on channel=9 note=67 velocity=43 time=0
EXTRACT: note_on channel=5 note=61 velocity=76 time=0
EXTRACT: note_on channel=5 note=64 velocity=86 time=0
EXTRACT: note_on channel=5 note=68 velocity=77 time=0
EXTRACT: note_on channel=9 note=42 velocity=66 time=0.011904750000000002
EXTRACT: note_on channel=9 note=69 velocity=61 time=0
EXTRACT: note_on channel=9 note=69 velocity=0 time=0.001984125
EXTRACT: note_on channel=9 note=42 velocity=0 time=0
EXTRACT: note_on channel=7 note=61 velocity=0 time=0.037698375000000006
EXTRACT: note_on channel=9 note=44 velocity=0 time=0.001984125
EXTRACT: note_on channel=7 note=56 velocity=0 time=0.001984125
EXTRACT: note_on channel=9 note=67 velocity=0 time=0.015873
EXTRACT: note_on channel=3 note=64 velocity=0 time=0.0079365
EXTRACT: note_on channel=5 note=64 velocity=0 time=0.001984125
EXTRACT: note_on channel=9 note=32 velocity=0 time=0.00396825
EXTRACT: note_on channel=1 note=37 velocity=0 time=0.01984125
EXTRACT: note_on channel=9 note=28 velocity=74 time=0.00396825
EXTRACT: note_on channel=9 note=36 velocity=103 time=0
EXTRACT: note_on channel=9 note=39 velocity=104 time=0
EXTRACT: note_on channel=9 note=42 velocity=74 time=0
EXTRACT: note_on channel=9 note=56 velocity=77 time=0
EXTRACT: note_on channel=1 note=40 velocity=85 time=0
EXTRACT: note_on channel=3 note=68 velocity=79 time=0
EXTRACT: note_on channel=7 note=49 velocity=78 time=0
EXTRACT: note_on channel=9 note=40 velocity=117 time=0
EXTRACT: note_on channel=9 note=36 velocity=126 time=0
EXTRACT: note_on channel=9 note=35 velocity=117 time=0
EXTRACT: note_on channel=9 note=39 velocity=121 time=0
EXTRACT: note_on channel=9 note=44 velocity=81 time=0
EXTRACT: note_on channel=9 note=69 velocity=78 time=0
EXTRACT: note_on channel=9 note=60 velocity=80 time=0
EXTRACT: note_on channel=9 note=60 velocity=0 time=0.001984125
EXTRACT: note_on channel=9 note=44 velocity=0 time=0
EXTRACT: note_on channel=9 note=36 velocity=0 time=0
EXTRACT: note_on channel=9 note=35 velocity=0 time=0
EXTRACT: note_on channel=9 note=40 velocity=0 time=0
EXTRACT: note_on channel=9 note=69 velocity=0 time=0
EXTRACT: note_on channel=9 note=39 velocity=0 time=0
EXTRACT: note_on channel=5 note=68 velocity=0 time=0.017857125
EXTRACT: note_on channel=5 note=61 velocity=0 time=0.00396825
EXTRACT: note_on channel=9 note=39 velocity=0 time=0.037698375000000006
EXTRACT: note_on channel=9 note=42 velocity=0 time=0.00396825
EXTRACT: note_on channel=9 note=36 velocity=0 time=0.0079365
EXTRACT: note_on channel=9 note=28 velocity=0 time=0.017857125
EXTRACT: note_on channel=9 note=62 velocity=63 time=0.027777750000000004
EXTRACT: note_on channel=9 note=62 velocity=0 time=0.001984125
EXTRACT: note_on channel=9 note=32 velocity=59 time=0.0079365
EXTRACT: note_on channel=7 note=49 velocity=0 time=0.029761875000000004
EXTRACT: note_on channel=9 note=32 velocity=0 time=0.023809500000000004
EXTRACT: note_on channel=1 note=40 velocity=0 time=0.031746
EXTRACT: note_on channel=3 note=68 velocity=0 time=0.017857125
EXTRACT: note_on channel=9 note=32 velocity=63 time=0.005952375000000001
EXTRACT: note_on channel=9 note=44 velocity=53 time=0
EXTRACT: note_on channel=9 note=68 velocity=59 time=0
EXTRACT: note_on channel=1 note=44 velocity=91 time=0
EXTRACT: note_on channel=3 note=73 velocity=77 time=0
EXTRACT: note_on channel=5 note=61 velocity=84 time=0
EXTRACT: note_on channel=5 note=64 velocity=85 time=0
EXTRACT: note_on channel=5 note=68 velocity=86 time=0
EXTRACT: note_on channel=7 note=56 velocity=74 time=0
EXTRACT: note_on channel=7 note=61 velocity=57 time=0
EXTRACT: note_on channel=9 note=42 velocity=73 time=0
EXTRACT: note_on channel=9 note=60 velocity=59 time=0
EXTRACT: note_on channel=9 note=60 velocity=0 time=0.001984125
EXTRACT: note_on channel=9 note=42 velocity=0 time=0
EXTRACT: note_on channel=9 note=70 velocity=105 time=0
EXTRACT: note_on channel=9 note=70 velocity=0 time=0.001984125
EXTRACT: note_on channel=9 note=44 velocity=0 time=0.03571425
EXTRACT: note_on channel=9 note=56 velocity=0 time=0.001984125
EXTRACT: note_on channel=7 note=61 velocity=0 time=0.013888875000000002
EXTRACT: note_on channel=9 note=68 velocity=0 time=0.005952375000000001
EXTRACT: note_on channel=5 note=64 velocity=0 time=0.001984125
EXTRACT: note_on channel=7 note=56 velocity=0 time=0.001984125
EXTRACT: note_on channel=9 note=32 velocity=0 time=0.005952375000000001
EXTRACT: note_on channel=5 note=61 velocity=0 time=0.029761875000000004
EXTRACT: note_on channel=5 note=68 velocity=0 time=0.0079365
EXTRACT: note_on channel=10 note=64 velocity=0 time=0.005952375000000001
EXTRACT: note_on channel=7 note=56 velocity=81 time=0.00396825
EXTRACT: note_on channel=7 note=61 velocity=68 time=0
EXTRACT: note_on channel=9 note=61 velocity=69 time=0
EXTRACT: note_on channel=10 note=61 velocity=0 time=0.001984125
EXTRACT: note_on channel=9 note=61 velocity=0 time=0
EXTRACT: note_on channel=9 note=32 velocity=62 time=0.0079365
EXTRACT: note_on channel=9 note=44 velocity=60 time=0
EXTRACT: note_on channel=9 note=68 velocity=36 time=0
EXTRACT: note_on channel=1 note=44 velocity=0 time=0.005952375000000001
EXTRACT: note_on channel=9 note=42 velocity=66 time=0.005952375000000001
EXTRACT: note_on channel=9 note=82 velocity=28 time=0
EXTRACT: note_on channel=9 note=82 velocity=0 time=0.001984125
EXTRACT: note_on channel=9 note=42 velocity=0 time=0
EXTRACT: note_on channel=9 note=68 velocity=0 time=0.045634875000000005
EXTRACT: note_on channel=10 note=56 velocity=0 time=0
EXTRACT: note_on channel=7 note=61 velocity=0 time=0
EXTRACT: note_on channel=9 note=44 velocity=0 time=0.001984125
EXTRACT: note_on channel=7 note=56 velocity=0 time=0
EXTRACT: note_on channel=9 note=32 velocity=0 time=0.011904750000000002
EXTRACT: note_on channel=3 note=73 velocity=0 time=0.031746
EXTRACT: note_on channel=9 note=27 velocity=88 time=0.00396825
EXTRACT: note_on channel=9 note=36 velocity=99 time=0
EXTRACT: note_on channel=9 note=42 velocity=93 time=0
EXTRACT: note_on channel=9 note=44 velocity=90 time=0
EXTRACT: note_on channel=9 note=56 velocity=73 time=0
EXTRACT: note_on channel=10 note=57 velocity=58 time=0
EXTRACT: note_on channel=10 note=61 velocity=58 time=0
EXTRACT: note_on channel=10 note=66 velocity=49 time=0
EXTRACT: note_on channel=3 note=69 velocity=87 time=0
EXTRACT: note_on channel=7 note=54 velocity=83 time=0
EXTRACT: note_on channel=9 note=36 velocity=126 time=0
EXTRACT: note_on channel=9 note=35 velocity=117 time=0
EXTRACT: note_on channel=9 note=44 velocity=81 time=0
EXTRACT: note_on channel=9 note=82 velocity=74 time=0
EXTRACT: note_on channel=9 note=56 velocity=78 time=0
EXTRACT: note_on channel=9 note=56 velocity=0 time=0.001984125
EXTRACT: note_on channel=9 note=44 velocity=0 time=0
EXTRACT: note_on channel=9 note=36 velocity=0 time=0
EXTRACT: note_on channel=9 note=35 velocity=0 time=0
EXTRACT: note_on channel=9 note=82 velocity=0 time=0
EXTRACT: note_on channel=9 note=44 velocity=0 time=0.063492
EXTRACT: note_on channel=9 note=27 velocity=0 time=0.0079365
EXTRACT: note_on channel=9 note=36 velocity=0 time=0.01984125
EXTRACT: note_on channel=9 note=27 velocity=64 time=0.03571425
EXTRACT: note_on channel=5 note=61 velocity=84 time=0
EXTRACT: note_on channel=5 note=66 velocity=86 time=0
EXTRACT: note_on channel=5 note=69 velocity=97 time=0
EXTRACT: note_on channel=9 note=82 velocity=36 time=0.011904750000000002
EXTRACT: note_on channel=9 note=82 velocity=0 time=0.001984125
EXTRACT: note_on channel=9 note=42 velocity=0 time=0.005952375000000001
EXTRACT: note_on channel=9 note=27 velocity=0 time=0.041666625000000006
EXTRACT: note_on channel=5 note=69 velocity=0 time=0.0079365
EXTRACT: note_on channel=7 note=54 velocity=0 time=0
EXTRACT: note_on channel=5 note=66 velocity=0 time=0.00396825
EXTRACT: note_on channel=5 note=61 velocity=0 time=0.0079365
EXTRACT: note_on channel=9 note=70 velocity=105 time=0.01984125
EXTRACT: note_on channel=9 note=70 velocity=0 time=0.001984125
EXTRACT: note_on channel=9 note=27 velocity=69 time=0.005952375000000001
EXTRACT: note_on channel=9 note=44 velocity=53 time=0
EXTRACT: note_on channel=9 note=67 velocity=44 time=0
EXTRACT: note_on channel=1 note=30 velocity=88 time=0
EXTRACT: note_on channel=7 note=57 velocity=64 time=0
EXTRACT: note_on channel=7 note=61 velocity=49 time=0
EXTRACT: note_on channel=9 note=42 velocity=73 time=0
EXTRACT: note_on channel=9 note=82 velocity=59 time=0
EXTRACT: note_on channel=9 note=82 velocity=0 time=0.001984125
EXTRACT: note_on channel=9 note=42 velocity=0 time=0
EXTRACT: note_on channel=9 note=56 velocity=0 time=0.027777750000000004
EXTRACT: note_on channel=7 note=61 velocity=0 time=0.00396825
EXTRACT: note_on channel=7 note=57 velocity=0 time=0
EXTRACT: note_on channel=9 note=44 velocity=0 time=0.001984125
EXTRACT: note_on channel=9 note=67 velocity=0 time=0.005952375000000001
EXTRACT: note_on channel=9 note=27 velocity=0 time=0.037698375000000006
EXTRACT: note_on channel=7 note=57 velocity=71 time=0.0396825
EXTRACT: note_on channel=7 note=61 velocity=56 time=0
EXTRACT: note_on channel=9 note=56 velocity=72 time=0
EXTRACT: note_on channel=9 note=56 velocity=0 time=0.001984125
EXTRACT: note_on channel=9 note=44 velocity=35 time=0.0079365
EXTRACT: note_on channel=9 note=67 velocity=27 time=0
EXTRACT: note_on channel=9 note=42 velocity=66 time=0.011904750000000002
EXTRACT: note_on channel=9 note=82 velocity=49 time=0
EXTRACT: note_on channel=9 note=82 velocity=0 time=0.001984125
EXTRACT: note_on channel=9 note=42 velocity=0 time=0
EXTRACT: note_on channel=9 note=44 velocity=0 time=0.027777750000000004
EXTRACT: note_on channel=9 note=67 velocity=0 time=0.001984125
EXTRACT: note_on channel=7 note=57 velocity=0 time=0.015873
EXTRACT: note_on channel=7 note=61 velocity=0 time=0.00396825
EXTRACT: note_on channel=3 note=69 velocity=0 time=0.001984125
EXTRACT: note_on channel=1 note=30 velocity=0 time=0.0396825
EXTRACT: note_on channel=9 note=28 velocity=79 time=0.00396825
EXTRACT: note_on channel=9 note=32 velocity=78 time=0
EXTRACT: note_on channel=9 note=36 velocity=103 time=0
EXTRACT: note_on channel=9 note=39 velocity=99 time=0
EXTRACT: note_on channel=9 note=42 velocity=64 time=0
EXTRACT: note_on channel=9 note=56 velocity=76 time=0
EXTRACT: note_on channel=1 note=37 velocity=84 time=0
EXTRACT: note_on channel=5 note=61 velocity=82 time=0
EXTRACT: note_on channel=5 note=66 velocity=78 time=0
EXTRACT: note_on channel=5 note=69 velocity=96 time=0
EXTRACT: note_on channel=7 note=54 velocity=85 time=0
EXTRACT: note_on channel=9 note=39 velocity=121 time=0
EXTRACT: note_on channel=9 note=40 velocity=117 time=0
EXTRACT: note_on channel=9 note=36 velocity=126 time=0
EXTRACT: note_on channel=9 note=35 velocity=117 time=0
EXTRACT: note_on channel=9 note=44 velocity=81 time=0
EXTRACT: note_on channel=9 note=82 velocity=66 time=0
EXTRACT: note_on channel=9 note=82 velocity=0 time=0.001984125
EXTRACT: note_on channel=9 note=40 velocity=0 time=0
EXTRACT: note_on channel=9 note=36 velocity=0 time=0
EXTRACT: note_on channel=9 note=39 velocity=0 time=0
EXTRACT: note_on channel=9 note=44 velocity=0 time=0
EXTRACT: note_on channel=9 note=35 velocity=0 time=0
EXTRACT: note_on channel=9 note=39 velocity=0 time=0.063492
EXTRACT: note_on channel=9 note=28 velocity=0 time=0.00396825
EXTRACT: note_on channel=9 note=32 velocity=0 time=0.009920625
EXTRACT: note_on channel=9 note=42 velocity=0 time=0.001984125
EXTRACT: note_on channel=9 note=36 velocity=0 time=0.10317450000000002
EXTRACT: note_on channel=7 note=54 velocity=0 time=0.01984125
EXTRACT: note_on channel=9 note=70 velocity=105 time=0.027777750000000004
EXTRACT: note_on channel=1 note=37 velocity=0 time=0.001984125
EXTRACT: note_on channel=9 note=70 velocity=0 time=0
EXTRACT: note_on channel=9 note=32 velocity=67 time=0.00396825
EXTRACT: note_on channel=9 note=44 velocity=53 time=0
EXTRACT: note_on channel=9 note=68 velocity=40 time=0
EXTRACT: note_on channel=1 note=30 velocity=81 time=0
EXTRACT: note_on channel=7 note=57 velocity=70 time=0
EXTRACT: note_on channel=7 note=61 velocity=63 time=0
EXTRACT: note_on channel=9 note=42 velocity=73 time=0
EXTRACT: note_on channel=9 note=69 velocity=93 time=0
EXTRACT: note_on channel=9 note=56 velocity=72 time=0
EXTRACT: note_on channel=9 note=56 velocity=0 time=0.001984125
EXTRACT: note_on channel=9 note=69 velocity=0 time=0
EXTRACT: note_on channel=9 note=42 velocity=0 time=0
EXTRACT: note_on channel=9 note=68 velocity=0 time=0.027777750000000004
EXTRACT: note_on channel=7 note=57 velocity=0 time=0.011904750000000002
EXTRACT: note_on channel=9 note=32 velocity=0 time=0.009920625
EXTRACT: note_on channel=9 note=44 velocity=0 time=0.001984125
EXTRACT: note_on channel=7 note=61 velocity=0 time=0.011904750000000002
EXTRACT: note_on channel=9 note=56 velocity=0 time=0.005952375000000001
EXTRACT: note_on channel=5 note=66 velocity=0 time=0.027777750000000004
EXTRACT: note_on channel=5 note=69 velocity=0 time=0.00396825
EXTRACT: note_on channel=10 note=66 velocity=0 time=0.005952375000000001
EXTRACT: note_on channel=10 note=61 velocity=0 time=0.001984125
EXTRACT: note_on channel=7 note=57 velocity=74 time=0.0079365
EXTRACT: note_on channel=7 note=61 velocity=59 time=0
EXTRACT: note_on channel=9 note=32 velocity=64 time=0.009920625
EXTRACT: note_on channel=9 note=44 velocity=54 time=0
EXTRACT: note_on channel=9 note=68 velocity=34 time=0
EXTRACT: note_on channel=10 note=57 velocity=0 time=0.011904750000000002
EXTRACT: note_on channel=5 note=61 velocity=0 time=0
EXTRACT: note_on channel=9 note=42 velocity=66 time=0
EXTRACT: note_on channel=9 note=69 velocity=73 time=0
EXTRACT: note_on channel=9 note=69 velocity=0 time=0.001984125
EXTRACT: note_on channel=9 note=42 velocity=0 time=0
EXTRACT: note_on channel=9 note=44 velocity=0 time=0.041666625000000006
EXTRACT: note_on channel=7 note=57 velocity=0 time=0.00396825
EXTRACT: note_on channel=9 note=32 velocity=0 time=0.005952375000000001
EXTRACT: note_on channel=7 note=61 velocity=0 time=0
EXTRACT: note_on channel=9 note=68 velocity=0 time=0.0079365
EXTRACT: note_on channel=1 note=30 velocity=0 time=0.031746
EXTRACT: note_on channel=9 note=27 velocity=92 time=0.00396825
EXTRACT: note_on channel=9 note=36 velocity=99 time=0
EXTRACT: note_on channel=9 note=42 velocity=90 time=0
EXTRACT: note_on channel=9 note=44 velocity=89 time=0
EXTRACT: note_on channel=9 note=56 velocity=74 time=0
EXTRACT: note_on channel=1 note=35 velocity=88 time=0
EXTRACT: note_on channel=10 note=59 velocity=68 time=0
EXTRACT: note_on channel=10 note=63 velocity=46 time=0
EXTRACT: note_on channel=10 note=66 velocity=61 time=0
EXTRACT: note_on channel=3 note=66 velocity=90 time=0
EXTRACT: note_on channel=5 note=59 velocity=83 time=0
EXTRACT: note_on channel=5 note=63 velocity=79 time=0
EXTRACT: note_on channel=5 note=66 velocity=81 time=0
EXTRACT: note_on channel=7 note=51 velocity=94 time=0
EXTRACT: note_on channel=9 note=36 velocity=126 time=0
EXTRACT: note_on channel=9 note=35 velocity=117 time=0
EXTRACT: note_on channel=9 note=35 velocity=0 time=0.001984125
EXTRACT: note_on channel=9 note=36 velocity=0 time=0
EXTRACT: note_on channel=5 note=63 velocity=0 time=0.06746025000000001
EXTRACT: note_on channel=9 note=27 velocity=0 time=0.009920625
EXTRACT: note_on channel=5 note=66 velocity=0 time=0
EXTRACT: note_on channel=9 note=44 velocity=0 time=0.001984125
EXTRACT: note_on channel=9 note=36 velocity=0 time=0.01984125
EXTRACT: note_on channel=5 note=59 velocity=0 time=0.011904750000000002
EXTRACT: note_on channel=7 note=51 velocity=0 time=0.015873
EXTRACT: note_on channel=9 note=69 velocity=84 time=0.011904750000000002
EXTRACT: note_on channel=9 note=69 velocity=0 time=0.001984125
EXTRACT: note_on channel=1 note=35 velocity=0 time=0.017857125
EXTRACT: note_on channel=9 note=42 velocity=0 time=0.031746
EXTRACT: note_on channel=3 note=66 velocity=0 time=0.041666625000000006
EXTRACT: note_on channel=9 note=70 velocity=105 time=0
EXTRACT: note_on channel=9 note=27 velocity=85 time=0.00396825
EXTRACT: note_on channel=9 note=44 velocity=53 time=0
EXTRACT: note_on channel=9 note=67 velocity=38 time=0
EXTRACT: note_on channel=1 note=35 velocity=74 time=0
EXTRACT: note_on channel=3 note=63 velocity=73 time=0
EXTRACT: note_on channel=7 note=54 velocity=69 time=0
EXTRACT: note_on channel=7 note=59 velocity=41 time=0
EXTRACT: note_on channel=9 note=70 velocity=0 time=0
EXTRACT: note_on channel=9 note=42 velocity=73 time=0
EXTRACT: note_on channel=9 note=62 velocity=79 time=0
EXTRACT: note_on channel=9 note=62 velocity=0 time=0.001984125
EXTRACT: note_on channel=9 note=42 velocity=0 time=0
EXTRACT: note_on channel=9 note=44 velocity=0 time=0.031746
EXTRACT: note_on channel=9 note=67 velocity=0 time=0.0079365
EXTRACT: note_on channel=7 note=59 velocity=0 time=0
EXTRACT: note_on channel=9 note=56 velocity=0 time=0.013888875000000002
EXTRACT: note_on channel=7 note=54 velocity=0 time=0.009920625
EXTRACT: note_on channel=9 note=27 velocity=0 time=0.00396825
EXTRACT: note_on channel=7 note=54 velocity=73 time=0.049603125000000005
EXTRACT: note_on channel=7 note=59 velocity=65 time=0
EXTRACT: note_on channel=9 note=61 velocity=69 time=0
EXTRACT: note_on channel=9 note=61 velocity=0 time=0.001984125
EXTRACT: note_on channel=9 note=32 velocity=76 time=0.0079365
EXTRACT: note_on channel=9 note=44 velocity=27 time=0
EXTRACT: note_on channel=9 note=67 velocity=45 time=0
EXTRACT: note_on channel=5 note=59 velocity=67 time=0
EXTRACT: note_on channel=5 note=63 velocity=90 time=0
EXTRACT: note_on channel=5 note=66 velocity=81 time=0
EXTRACT: note_on channel=9 note=42 velocity=66 time=0.011904750000000002
EXTRACT: note_on channel=9 note=69 velocity=68 time=0
EXTRACT: note_on channel=9 note=69 velocity=0 time=0.001984125
EXTRACT: note_on channel=9 note=42 velocity=0 time=0
EXTRACT: note_on channel=9 note=44 velocity=0 time=0.025793625000000004
EXTRACT: note_on channel=9 note=67 velocity=0 time=0.00396825
EXTRACT: note_on channel=9 note=32 velocity=0 time=0.029761875000000004
EXTRACT: note_on channel=5 note=63 velocity=0 time=0
EXTRACT: note_on channel=7 note=54 velocity=0 time=0
EXTRACT: note_on channel=7 note=59 velocity=0 time=0.001984125
EXTRACT: note_on channel=5 note=66 velocity=0 time=0.0079365
EXTRACT: note_on channel=1 note=35 velocity=0 time=0.021825375
EXTRACT: note_on channel=3 note=63 velocity=0 time=0
EXTRACT: note_on channel=9 note=28 velocity=82 time=0.00396825
EXTRACT: note_on channel=9 note=36 velocity=94 time=0
EXTRACT: note_on channel=9 note=39 velocity=99 time=0
EXTRACT: note_on channel=9 note=42 velocity=76 time=0
EXTRACT: note_on channel=9 note=56 velocity=76 time=0
EXTRACT: note_on channel=1 note=39 velocity=91 time=0
EXTRACT: note_on channel=3 note=66 velocity=74 time=0
EXTRACT: note_on channel=7 note=51 velocity=85 time=0
EXTRACT: note_on channel=9 note=39 velocity=121 time=0
EXTRACT: note_on channel=9 note=36 velocity=126 time=0
EXTRACT: note_on channel=9 note=35 velocity=117 time=0
EXTRACT: note_on channel=9 note=40 velocity=117 time=0
EXTRACT: note_on channel=9 note=44 velocity=81 time=0
EXTRACT: note_on channel=9 note=44 velocity=0 time=0.001984125
EXTRACT: note_on channel=9 note=35 velocity=0 time=0
EXTRACT: note_on channel=9 note=39 velocity=0 time=0
EXTRACT: note_on channel=9 note=36 velocity=0 time=0
EXTRACT: note_on channel=9 note=40 velocity=0 time=0
EXTRACT: note_on channel=5 note=59 velocity=0 time=0.0396825
EXTRACT: note_on channel=9 note=39 velocity=0 time=0.027777750000000004
EXTRACT: note_on channel=9 note=28 velocity=0 time=0.005952375000000001
EXTRACT: note_on channel=9 note=36 velocity=0 time=0
EXTRACT: note_on channel=9 note=42 velocity=0 time=0.03373012500000001
EXTRACT: note_on channel=9 note=62 velocity=73 time=0.009920625
EXTRACT: note_on channel=9 note=62 velocity=0 time=0.001984125
EXTRACT: note_on channel=9 note=32 velocity=68 time=0.0079365
EXTRACT: note_on channel=9 note=32 velocity=0 time=0.053571375000000004
EXTRACT: note_on channel=1 note=39 velocity=0 time=0.041666625000000006
EXTRACT: note_on channel=3 note=66 velocity=0 time=0.00396825
EXTRACT: note_on channel=7 note=51 velocity=0 time=0
EXTRACT: note_on channel=9 note=32 velocity=70 time=0.009920625
EXTRACT: note_on channel=9 note=44 velocity=59 time=0
EXTRACT: note_on channel=9 note=68 velocity=43 time=0
EXTRACT: note_on channel=1 note=42 velocity=83 time=0
EXTRACT: note_on channel=3 note=71 velocity=81 time=0
EXTRACT: note_on channel=5 note=59 velocity=87 time=0
EXTRACT: note_on channel=5 note=63 velocity=93 time=0
EXTRACT: note_on channel=5 note=66 velocity=86 time=0
EXTRACT: note_on channel=7 note=54 velocity=75 time=0
EXTRACT: note_on channel=7 note=59 velocity=76 time=0
EXTRACT: note_on channel=9 note=42 velocity=73 time=0
EXTRACT: note_on channel=9 note=61 velocity=66 time=0
EXTRACT: note_on channel=9 note=61 velocity=0 time=0.001984125
EXTRACT: note_on channel=9 note=42 velocity=0 time=0
EXTRACT: note_on channel=9 note=70 velocity=105 time=0.001984125
EXTRACT: note_on channel=9 note=70 velocity=0 time=0.001984125
EXTRACT: note_on channel=9 note=68 velocity=0 time=0.029761875000000004
EXTRACT: note_on channel=9 note=44 velocity=0 time=0.01984125
EXTRACT: note_on channel=9 note=32 velocity=0 time=0.0079365
EXTRACT: note_on channel=9 note=56 velocity=0 time=0.005952375000000001
EXTRACT: note_on channel=7 note=54 velocity=0 time=0
EXTRACT: note_on channel=5 note=63 velocity=0 time=0.00396825
EXTRACT: note_on channel=7 note=59 velocity=0 time=0.005952375000000001
EXTRACT: note_on channel=5 note=66 velocity=0 time=0.00396825
EXTRACT: note_on channel=10 note=63 velocity=0 time=0.025793625000000004
EXTRACT: note_on channel=5 note=59 velocity=0 time=0
EXTRACT: note_on channel=10 note=66 velocity=0 time=0.005952375000000001
EXTRACT: note_on channel=7 note=54 velocity=73 time=0.00396825
EXTRACT: note_on channel=7 note=59 velocity=51 time=0
EXTRACT: note_on channel=9 note=32 velocity=63 time=0.009920625
EXTRACT: note_on channel=9 note=44 velocity=61 time=0
EXTRACT: note_on channel=9 note=68 velocity=25 time=0
EXTRACT: note_on channel=9 note=42 velocity=66 time=0.011904750000000002
EXTRACT: note_on channel=9 note=82 velocity=48 time=0
EXTRACT: note_on channel=10 note=59 velocity=0 time=0.001984125
EXTRACT: note_on channel=9 note=82 velocity=0 time=0
EXTRACT: note_on channel=9 note=42 velocity=0 time=0
EXTRACT: note_on channel=9 note=44 velocity=0 time=0.045634875000000005
EXTRACT: note_on channel=7 note=54 velocity=0 time=0
EXTRACT: note_on channel=7 note=59 velocity=0 time=0.001984125
EXTRACT: note_on channel=9 note=32 velocity=0 time=0.001984125
EXTRACT: note_on channel=1 note=42 velocity=0 time=0.009920625
EXTRACT: note_on channel=9 note=68 velocity=0 time=0.011904750000000002
EXTRACT: note_on channel=3 note=71 velocity=0 time=0.01984125
EXTRACT: note_on channel=9 note=27 velocity=87 time=0.00396825
EXTRACT: note_on channel=9 note=36 velocity=103 time=0
EXTRACT: note_on channel=9 note=42 velocity=87 time=0
EXTRACT: note_on channel=9 note=44 velocity=85 time=0
EXTRACT: note_on channel=9 note=56 velocity=71 time=0
EXTRACT: note_on channel=10 note=59 velocity=60 time=0
EXTRACT: note_on channel=10 note=64 velocity=65 time=0
EXTRACT: note_on channel=10 note=68 velocity=58 time=0
EXTRACT: note_on channel=3 note=68 velocity=88 time=0
EXTRACT: note_on channel=7 note=52 velocity=95 time=0
EXTRACT: note_on channel=9 note=36 velocity=126 time=0
EXTRACT: note_on channel=9 note=35 velocity=117 time=0
EXTRACT: note_on channel=9 note=44 velocity=81 time=0
EXTRACT: note_on channel=9 note=82 velocity=55 time=0
EXTRACT: note_on channel=9 note=56 velocity=80 time=0
EXTRACT: note_on channel=9 note=56 velocity=0 time=0.001984125
EXTRACT: note_on channel=9 note=44 velocity=0 time=0
EXTRACT: note_on channel=9 note=36 velocity=0 time=0
EXTRACT: note_on channel=9 note=35 velocity=0 time=0
EXTRACT: note_on channel=9 note=82 velocity=0 time=0
EXTRACT: note_on channel=9 note=27 velocity=0 time=0.06746025000000001
EXTRACT: note_on channel=9 note=36 velocity=0 time=0.005952375000000001
EXTRACT: note_on channel=9 note=44 velocity=0 time=0.01984125
EXTRACT: note_on channel=9 note=32 velocity=76 time=0.03373012500000001
EXTRACT: note_on channel=5 note=59 velocity=77 time=0
EXTRACT: note_on channel=5 note=64 velocity=96 time=0
EXTRACT: note_on channel=5 note=68 velocity=84 time=0
EXTRACT: note_on channel=9 note=82 velocity=63 time=0.011904750000000002
EXTRACT: note_on channel=9 note=82 velocity=0 time=0.001984125
EXTRACT: note_on channel=9 note=32 velocity=0 time=0.049603125000000005
EXTRACT: note_on channel=5 note=64 velocity=0 time=0
EXTRACT: note_on channel=5 note=68 velocity=0 time=0.017857125
EXTRACT: note_on channel=5 note=59 velocity=0 time=0.017857125
EXTRACT: note_on channel=9 note=42 velocity=0 time=0.005952375000000001
EXTRACT: note_on channel=9 note=27 velocity=58 time=0.00396825
EXTRACT: note_on channel=9 note=44 velocity=56 time=0
EXTRACT: note_on channel=9 note=67 velocity=44 time=0
EXTRACT: note_on channel=1 note=40 velocity=96 time=0
EXTRACT: note_on channel=7 note=56 velocity=70 time=0
EXTRACT: note_on channel=7 note=59 velocity=72 time=0
EXTRACT: note_on channel=9 note=42 velocity=73 time=0
EXTRACT: note_on channel=9 note=82 velocity=59 time=0
EXTRACT: note_on channel=9 note=63 velocity=60 time=0
EXTRACT: note_on channel=9 note=63 velocity=0 time=0.001984125
EXTRACT: note_on channel=9 note=82 velocity=0 time=0
EXTRACT: note_on channel=9 note=42 velocity=0 time=0
EXTRACT: note_on channel=9 note=70 velocity=105 time=0.001984125
EXTRACT: note_on channel=9 note=70 velocity=0 time=0.001984125
EXTRACT: note_on channel=7 note=52 velocity=0 time=0.027777750000000004
EXTRACT: note_on channel=9 note=67 velocity=0 time=0.0079365
EXTRACT: note_on channel=9 note=44 velocity=0 time=0
EXTRACT: note_on channel=7 note=59 velocity=0 time=0
EXTRACT: note_on channel=9 note=27 velocity=0 time=0.00396825
EXTRACT: note_on channel=7 note=56 velocity=0 time=0.015873
EXTRACT: note_on channel=9 note=56 velocity=0 time=0.001984125
EXTRACT: note_on channel=7 note=56 velocity=74 time=0.05555550000000001
EXTRACT: note_on channel=7 note=59 velocity=73 time=0
EXTRACT: note_on channel=9 note=56 velocity=89 time=0
EXTRACT: note_on channel=9 note=56 velocity=0 time=0.001984125
EXTRACT: note_on channel=9 note=44 velocity=51 time=0.0079365
EXTRACT: note_on channel=9 note=67 velocity=35 time=0
EXTRACT: note_on channel=9 note=42 velocity=66 time=0.011904750000000002
EXTRACT: note_on channel=9 note=82 velocity=45 time=0
EXTRACT: note_on channel=9 note=82 velocity=0 time=0.001984125
EXTRACT: note_on channel=9 note=42 velocity=0 time=0
EXTRACT: note_on channel=9 note=44 velocity=0 time=0.045634875000000005
EXTRACT: note_on channel=7 note=56 velocity=0 time=0
EXTRACT: note_on channel=9 note=67 velocity=0 time=0.005952375000000001
EXTRACT: note_on channel=7 note=59 velocity=0 time=0.00396825
EXTRACT: note_on channel=1 note=40 velocity=0 time=0.03571425
EXTRACT: note_on channel=3 note=68 velocity=0 time=0
EXTRACT: note_on channel=9 note=28 velocity=85 time=0.00396825
EXTRACT: note_on channel=9 note=32 velocity=88 time=0
EXTRACT: note_on channel=9 note=36 velocity=103 time=0
EXTRACT: note_on channel=9 note=39 velocity=94 time=0
EXTRACT: note_on channel=9 note=42 velocity=79 time=0
EXTRACT: note_on channel=9 note=56 velocity=70 time=0
EXTRACT: note_on channel=1 note=35 velocity=80 time=0
EXTRACT: note_on channel=3 note=66 velocity=78 time=0
EXTRACT: note_on channel=5 note=59 velocity=89 time=0
EXTRACT: note_on channel=5 note=64 velocity=97 time=0
EXTRACT: note_on channel=5 note=68 velocity=86 time=0
EXTRACT: note_on channel=7 note=52 velocity=91 time=0
EXTRACT: note_on channel=9 note=36 velocity=126 time=0
EXTRACT: note_on channel=9 note=35 velocity=117 time=0
EXTRACT: note_on channel=9 note=39 velocity=121 time=0
EXTRACT: note_on channel=9 note=40 velocity=117 time=0
EXTRACT: note_on channel=9 note=44 velocity=81 time=0
EXTRACT: note_on channel=9 note=82 velocity=60 time=0
EXTRACT: note_on channel=9 note=82 velocity=0 time=0.001984125
EXTRACT: note_on channel=9 note=35 velocity=0 time=0
EXTRACT: note_on channel=9 note=39 velocity=0 time=0
EXTRACT: note_on channel=9 note=36 velocity=0 time=0
EXTRACT: note_on channel=9 note=44 velocity=0 time=0
EXTRACT: note_on channel=9 note=40 velocity=0 time=0
EXTRACT: note_on channel=9 note=39 velocity=0 time=0.06746025000000001
EXTRACT: note_on channel=9 note=32 velocity=0 time=0.001984125
EXTRACT: note_on channel=9 note=28 velocity=0 time=0.001984125
EXTRACT: note_on channel=9 note=36 velocity=0 time=0
EXTRACT: note_on channel=9 note=42 velocity=0 time=0.0714285
EXTRACT: note_on channel=7 note=52 velocity=0 time=0.049603125000000005
EXTRACT: note_on channel=3 note=66 velocity=0 time=0.023809500000000004
EXTRACT: note_on channel=1 note=35 velocity=0 time=0.009920625
EXTRACT: note_on channel=9 note=70 velocity=105 time=0.00396825
EXTRACT: note_on channel=9 note=70 velocity=0 time=0.001984125
EXTRACT: note_on channel=9 note=32 velocity=71 time=0.00396825
EXTRACT: note_on channel=9 note=36 velocity=74 time=0
EXTRACT: note_on channel=9 note=44 velocity=55 time=0
EXTRACT: note_on channel=9 note=68 velocity=53 time=0
EXTRACT: note_on channel=1 note=40 velocity=94 time=0
EXTRACT: note_on channel=3 note=64 velocity=69 time=0
EXTRACT: note_on channel=7 note=56 velocity=77 time=0
EXTRACT: note_on channel=7 note=59 velocity=80 time=0
EXTRACT: note_on channel=9 note=42 velocity=75 time=0
EXTRACT: note_on channel=9 note=69 velocity=87 time=0
EXTRACT: note_on channel=9 note=56 velocity=87 time=0
EXTRACT: note_on channel=9 note=56 velocity=0 time=0.001984125
EXTRACT: note_on channel=9 note=69 velocity=0 time=0
EXTRACT: note_on channel=9 note=42 velocity=0 time=0
EXTRACT: note_on channel=9 note=44 velocity=0 time=0.041666625000000006
EXTRACT: note_on channel=5 note=59 velocity=0 time=0.009920625
EXTRACT: note_on channel=9 note=32 velocity=0 time=0.001984125
EXTRACT: note_on channel=9 note=68 velocity=0 time=0
EXTRACT: note_on channel=9 note=36 velocity=0 time=0.0079365
EXTRACT: note_on channel=10 note=64 velocity=0 time=0
EXTRACT: note_on channel=5 note=64 velocity=0 time=0
EXTRACT: note_on channel=7 note=56 velocity=0 time=0.001984125
EXTRACT: note_on channel=9 note=56 velocity=0 time=0.005952375000000001
EXTRACT: note_on channel=7 note=59 velocity=0 time=0.001984125
EXTRACT: note_on channel=10 note=68 velocity=0 time=0.029761875000000004
EXTRACT: note_on channel=5 note=68 velocity=0 time=0
EXTRACT: note_on channel=7 note=56 velocity=83 time=0.015873
EXTRACT: note_on channel=7 note=59 velocity=53 time=0
EXTRACT: note_on channel=9 note=62 velocity=64 time=0
EXTRACT: note_on channel=9 note=62 velocity=0 time=0.001984125
EXTRACT: note_on channel=9 note=32 velocity=67 time=0.0079365
EXTRACT: note_on channel=9 note=44 velocity=62 time=0
EXTRACT: note_on channel=9 note=68 velocity=35 time=0
EXTRACT: note_on channel=9 note=42 velocity=66 time=0.011904750000000002
EXTRACT: note_on channel=9 note=69 velocity=69 time=0
EXTRACT: note_on channel=9 note=69 velocity=0 time=0.001984125
EXTRACT: note_on channel=9 note=42 velocity=0 time=0
EXTRACT: note_on channel=10 note=59 velocity=0 time=0.0079365
EXTRACT: note_on channel=7 note=59 velocity=0 time=0.03373012500000001
EXTRACT: note_on channel=9 note=44 velocity=0 time=0.0079365
EXTRACT: note_on channel=9 note=32 velocity=0 time=0.005952375000000001
EXTRACT: note_on channel=7 note=56 velocity=0 time=0.001984125
EXTRACT: note_on channel=9 note=68 velocity=0 time=0.001984125
EXTRACT: note_on channel=1 note=40 velocity=0 time=0.0079365
EXTRACT: note_on channel=3 note=64 velocity=0 time=0.00396825
EXTRACT: note_on channel=9 note=27 velocity=90 time=0.023809500000000004
EXTRACT: note_on channel=9 note=36 velocity=101 time=0
EXTRACT: note_on channel=9 note=42 velocity=93 time=0
EXTRACT: note_on channel=9 note=44 velocity=85 time=0
EXTRACT: note_on channel=9 note=56 velocity=73 time=0
EXTRACT: note_on channel=1 note=37 velocity=82 time=0
EXTRACT: note_on channel=10 note=61 velocity=57 time=0
EXTRACT: note_on channel=10 note=64 velocity=65 time=0
EXTRACT: note_on channel=10 note=68 velocity=57 time=0
EXTRACT: note_on channel=5 note=61 velocity=74 time=0
EXTRACT: note_on channel=5 note=64 velocity=91 time=0
EXTRACT: note_on channel=5 note=68 velocity=90 time=0
EXTRACT: note_on channel=7 note=49 velocity=84 time=0
EXTRACT: note_on channel=9 note=36 velocity=126 time=0
EXTRACT: note_on channel=9 note=35 velocity=117 time=0
EXTRACT: note_on channel=9 note=44 velocity=81 time=0
EXTRACT: note_on channel=9 note=60 velocity=69 time=0
EXTRACT: note_on channel=9 note=60 velocity=0 time=0.001984125
EXTRACT: note_on channel=9 note=36 velocity=0 time=0
EXTRACT: note_on channel=9 note=35 velocity=0 time=0
EXTRACT: note_on channel=9 note=44 velocity=0 time=0
EXTRACT: note_on channel=5 note=64 velocity=0 time=0.063492
EXTRACT: note_on channel=9 note=27 velocity=0 time=0.013888875000000002
EXTRACT: note_on channel=5 note=68 velocity=0 time=0.005952375000000001
EXTRACT: note_on channel=5 note=61 velocity=0 time=0.0396825
EXTRACT: note_on channel=9 note=44 velocity=0 time=0.009920625
EXTRACT: note_on channel=9 note=36 velocity=0 time=0.00396825
EXTRACT: note_on channel=9 note=69 velocity=93 time=0.001984125
EXTRACT: note_on channel=9 note=69 velocity=0 time=0.001984125
EXTRACT: note_on channel=1 note=37 velocity=0 time=0.015873
EXTRACT: note_on channel=9 note=42 velocity=0 time=0.07539675000000001
EXTRACT: note_on channel=7 note=49 velocity=0 time=0
EXTRACT: note_on channel=9 note=27 velocity=78 time=0.00396825
EXTRACT: note_on channel=9 note=44 velocity=43 time=0
EXTRACT: note_on channel=9 note=67 velocity=36 time=0
EXTRACT: note_on channel=1 note=37 velocity=79 time=0
EXTRACT: note_on channel=7 note=56 velocity=80 time=0
EXTRACT: note_on channel=7 note=61 velocity=63 time=0
EXTRACT: note_on channel=9 note=42 velocity=73 time=0
EXTRACT: note_on channel=9 note=62 velocity=59 time=0
EXTRACT: note_on channel=9 note=70 velocity=105 time=0
EXTRACT: note_on channel=9 note=70 velocity=0 time=0.001984125
EXTRACT: note_on channel=9 note=62 velocity=0 time=0
EXTRACT: note_on channel=9 note=42 velocity=0 time=0
EXTRACT: note_on channel=9 note=44 velocity=0 time=0.027777750000000004
EXTRACT: note_on channel=9 note=67 velocity=0 time=0.013888875000000002
EXTRACT: note_on channel=7 note=56 velocity=0 time=0.011904750000000002
EXTRACT: note_on channel=7 note=61 velocity=0 time=0.005952375000000001
EXTRACT: note_on channel=9 note=27 velocity=0 time=0.00396825
EXTRACT: note_on channel=9 note=56 velocity=0 time=0.017857125
EXTRACT: note_on channel=7 note=56 velocity=81 time=0.03571425
EXTRACT: note_on channel=7 note=61 velocity=74 time=0
EXTRACT: note_on channel=9 note=60 velocity=63 time=0
EXTRACT: note_on channel=9 note=60 velocity=0 time=0.001984125
EXTRACT: note_on channel=9 note=27 velocity=50 time=0.0079365
EXTRACT: note_on channel=9 note=44 velocity=58 time=0
EXTRACT: note_on channel=9 note=67 velocity=42 time=0
EXTRACT: note_on channel=5 note=61 velocity=81 time=0
EXTRACT: note_on channel=5 note=64 velocity=84 time=0
EXTRACT: note_on channel=5 note=68 velocity=84 time=0
EXTRACT: note_on channel=9 note=42 velocity=66 time=0.011904750000000002
EXTRACT: note_on channel=9 note=69 velocity=61 time=0
EXTRACT: note_on channel=9 note=69 velocity=0 time=0.001984125
EXTRACT: note_on channel=9 note=42 velocity=0 time=0
EXTRACT: note_on channel=7 note=56 velocity=0 time=0.041666625000000006
EXTRACT: note_on channel=9 note=67 velocity=0 time=0.013888875000000002
EXTRACT: note_on channel=9 note=44 velocity=0 time=0
EXTRACT: note_on channel=5 note=64 velocity=0 time=0.001984125
EXTRACT: note_on channel=7 note=61 velocity=0 time=0
EXTRACT: note_on channel=9 note=27 velocity=0 time=0.017857125
EXTRACT: note_on channel=1 note=37 velocity=0 time=0.015873
EXTRACT: note_on channel=5 note=68 velocity=0 time=0
EXTRACT: note_on channel=9 note=28 velocity=74 time=0.00396825
EXTRACT: note_on channel=9 note=32 velocity=78 time=0
EXTRACT: note_on channel=9 note=36 velocity=103 time=0
EXTRACT: note_on channel=9 note=39 velocity=92 time=0
EXTRACT: note_on channel=9 note=42 velocity=79 time=0
EXTRACT: note_on channel=9 note=56 velocity=79 time=0
EXTRACT: note_on channel=1 note=40 velocity=84 time=0
EXTRACT: note_on channel=3 note=64 velocity=90 time=0
EXTRACT: note_on channel=7 note=49 velocity=87 time=0
EXTRACT: note_on channel=9 note=40 velocity=117 time=0
EXTRACT: note_on channel=9 note=36 velocity=126 time=0
EXTRACT: note_on channel=9 note=35 velocity=117 time=0
EXTRACT: note_on channel=9 note=39 velocity=121 time=0
EXTRACT: note_on channel=9 note=44 velocity=81 time=0
EXTRACT: note_on channel=9 note=69 velocity=78 time=0
EXTRACT: note_on channel=9 note=69 velocity=0 time=0.001984125
EXTRACT: note_on channel=9 note=36 velocity=0 time=0
EXTRACT: note_on channel=9 note=35 velocity=0 time=0
EXTRACT: note_on channel=9 note=40 velocity=0 time=0
EXTRACT: note_on channel=9 note=44 velocity=0 time=0
EXTRACT: note_on channel=9 note=39 velocity=0 time=0
EXTRACT: note_on channel=5 note=61 velocity=0 time=0.029761875000000004
EXTRACT: note_on channel=9 note=32 velocity=0 time=0.0396825
EXTRACT: note_on channel=9 note=39 velocity=0 time=0.00396825
EXTRACT: note_on channel=9 note=28 velocity=0 time=0.015873
EXTRACT: note_on channel=9 note=61 velocity=73 time=0.027777750000000004
EXTRACT: note_on channel=9 note=61 velocity=0 time=0.001984125
EXTRACT: note_on channel=9 note=36 velocity=0 time=0.031746
EXTRACT: note_on channel=9 note=42 velocity=0 time=0.06547612500000001
EXTRACT: note_on channel=7 note=49 velocity=0 time=0.009920625
EXTRACT: note_on channel=3 note=64 velocity=0 time=0.00396825
EXTRACT: note_on channel=1 note=40 velocity=0 time=0.001984125
EXTRACT: note_on channel=9 note=32 velocity=69 time=0.00396825
EXTRACT: note_on channel=9 note=44 velocity=55 time=0
EXTRACT: note_on channel=9 note=68 velocity=34 time=0
EXTRACT: note_on channel=1 note=44 velocity=93 time=0
EXTRACT: note_on channel=3 note=61 velocity=59 time=0
EXTRACT: note_on channel=5 note=61 velocity=84 time=0
EXTRACT: note_on channel=5 note=64 velocity=87 time=0
EXTRACT: note_on channel=5 note=68 velocity=89 time=0
EXTRACT: note_on channel=7 note=56 velocity=80 time=0
EXTRACT: note_on channel=7 note=61 velocity=59 time=0
EXTRACT: note_on channel=9 note=42 velocity=73 time=0
EXTRACT: note_on channel=9 note=60 velocity=66 time=0
EXTRACT: note_on channel=9 note=60 velocity=0 time=0.001984125
EXTRACT: note_on channel=9 note=42 velocity=0 time=0
EXTRACT: note_on channel=9 note=70 velocity=105 time=0
EXTRACT: note_on channel=9 note=70 velocity=0 time=0.001984125
EXTRACT: note_on channel=9 note=68 velocity=0 time=0.037698375000000006
EXTRACT: note_on channel=9 note=44 velocity=0 time=0.001984125
EXTRACT: note_on channel=9 note=32 velocity=0 time=0.015873
EXTRACT: note_on channel=7 note=56 velocity=0 time=0.001984125
EXTRACT: note_on channel=7 note=61 velocity=0 time=0.00396825
EXTRACT: note_on channel=5 note=64 velocity=0 time=0.00396825
EXTRACT: note_on channel=10 note=64 velocity=0 time=0.00396825
EXTRACT: note_on channel=9 note=56 velocity=0 time=0.009920625
EXTRACT: note_on channel=5 note=68 velocity=0 time=0.015873
EXTRACT: note_on channel=10 note=68 velocity=0 time=0.013888875000000002
EXTRACT: note_on channel=10 note=61 velocity=0 time=0.001984125
EXTRACT: note_on channel=7 note=56 velocity=81 time=0.00396825
EXTRACT: note_on channel=7 note=61 velocity=71 time=0
EXTRACT: note_on channel=9 note=62 velocity=69 time=0
EXTRACT: note_on channel=9 note=62 velocity=0 time=0.001984125
EXTRACT: note_on channel=5 note=61 velocity=0 time=0.001984125
EXTRACT: note_on channel=9 note=32 velocity=69 time=0.005952375000000001
EXTRACT: note_on channel=9 note=44 velocity=62 time=0
EXTRACT: note_on channel=9 note=68 velocity=36 time=0
EXTRACT: note_on channel=9 note=42 velocity=66 time=0.011904750000000002
EXTRACT: note_on channel=9 note=42 velocity=0 time=0.001984125
EXTRACT: note_on channel=9 note=44 velocity=0 time=0.04761900000000001
EXTRACT: note_on channel=1 note=44 velocity=0 time=0
EXTRACT: note_on channel=7 note=56 velocity=0 time=0.001984125
EXTRACT: note_on channel=9 note=68 velocity=0 time=0.009920625
EXTRACT: note_on channel=9 note=32 velocity=0 time=0
EXTRACT: note_on channel=7 note=61 velocity=0 time=0.001984125
EXTRACT: note_on channel=3 note=61 velocity=0 time=0.029761875000000004
EXTRACT: note_on channel=9 note=27 velocity=88 time=0.00396825
EXTRACT: note_on channel=9 note=36 velocity=103 time=0
EXTRACT: note_on channel=9 note=42 velocity=93 time=0
EXTRACT: note_on channel=9 note=44 velocity=89 time=0
EXTRACT: note_on channel=9 note=56 velocity=73 time=0
EXTRACT: note_on channel=10 note=61 velocity=60 time=0
EXTRACT: note_on channel=10 note=66 velocity=53 time=0
EXTRACT: note_on channel=10 note=69 velocity=69 time=0
EXTRACT: note_on channel=3 note=66 velocity=87 time=0
EXTRACT: note_on channel=7 note=54 velocity=83 time=0
EXTRACT: note_on channel=9 note=36 velocity=126 time=0
EXTRACT: note_on channel=9 note=35 velocity=117 time=0
EXTRACT: note_on channel=9 note=44 velocity=81 time=0
EXTRACT: note_on channel=9 note=82 velocity=69 time=0
EXTRACT: note_on channel=9 note=56 velocity=87 time=0
EXTRACT: note_on channel=9 note=60 velocity=63 time=0
EXTRACT: note_on channel=9 note=60 velocity=0 time=0.001984125
EXTRACT: note_on channel=9 note=35 velocity=0 time=0
EXTRACT: note_on channel=9 note=44 velocity=0 time=0
EXTRACT: note_on channel=9 note=36 velocity=0 time=0
EXTRACT: note_on channel=9 note=56 velocity=0 time=0
EXTRACT: note_on channel=9 note=82 velocity=0 time=0
EXTRACT: note_on channel=9 note=27 velocity=0 time=0.069444375
EXTRACT: note_on channel=9 note=32 velocity=77 time=0.057539625000000004
EXTRACT: note_on channel=5 note=61 velocity=84 time=0
EXTRACT: note_on channel=5 note=66 velocity=86 time=0
EXTRACT: note_on channel=5 note=69 velocity=96 time=0
EXTRACT: note_on channel=9 note=82 velocity=43 time=0.011904750000000002
EXTRACT: note_on channel=9 note=82 velocity=0 time=0.001984125
EXTRACT: note_on channel=9 note=44 velocity=0 time=0.005952375000000001
EXTRACT: note_on channel=9 note=36 velocity=0 time=0
EXTRACT: note_on channel=9 note=32 velocity=0 time=0.03571425
EXTRACT: note_on channel=5 note=69 velocity=0 time=0.0079365
EXTRACT: note_on channel=5 note=66 velocity=0 time=0.0079365
EXTRACT: note_on channel=5 note=61 velocity=0 time=0.013888875000000002
EXTRACT: note_on channel=9 note=70 velocity=105 time=0.015873
EXTRACT: note_on channel=9 note=70 velocity=0 time=0.001984125
EXTRACT: note_on channel=9 note=42 velocity=0 time=0.001984125
EXTRACT: note_on channel=9 note=27 velocity=77 time=0.00396825
EXTRACT: note_on channel=9 note=44 velocity=59 time=0
EXTRACT: note_on channel=9 note=67 velocity=24 time=0
EXTRACT: note_on channel=1 note=30 velocity=82 time=0
EXTRACT: note_on channel=7 note=57 velocity=74 time=0
EXTRACT: note_on channel=7 note=61 velocity=67 time=0
EXTRACT: note_on channel=9 note=42 velocity=73 time=0
EXTRACT: note_on channel=9 note=82 velocity=48 time=0
EXTRACT: note_on channel=9 note=82 velocity=0 time=0.001984125
EXTRACT: note_on channel=9 note=42 velocity=0 time=0
EXTRACT: note_on channel=7 note=54 velocity=0 time=0.027777750000000004
EXTRACT: note_on channel=7 note=57 velocity=0 time=0.009920625
EXTRACT: note_on channel=9 note=67 velocity=0 time=0.005952375000000001
EXTRACT: note_on channel=9 note=44 velocity=0 time=0.00396825
EXTRACT: note_on channel=9 note=27 velocity=0 time=0.013888875000000002
EXTRACT: note_on channel=7 note=61 velocity=0 time=0
EXTRACT: note_on channel=9 note=56 velocity=0 time=0.015873
EXTRACT: note_on channel=7 note=57 velocity=79 time=0.0396825
EXTRACT: note_on channel=7 note=61 velocity=69 time=0
EXTRACT: note_on channel=9 note=56 velocity=87 time=0
EXTRACT: note_on channel=9 note=56 velocity=0 time=0.001984125
EXTRACT: note_on channel=9 note=44 velocity=48 time=0.0079365
EXTRACT: note_on channel=9 note=67 velocity=43 time=0
EXTRACT: note_on channel=9 note=42 velocity=66 time=0.011904750000000002
EXTRACT: note_on channel=9 note=82 velocity=40 time=0
EXTRACT: note_on channel=9 note=82 velocity=0 time=0.001984125
EXTRACT: note_on channel=9 note=42 velocity=0 time=0
EXTRACT: note_on channel=7 note=57 velocity=0 time=0.031746
EXTRACT: note_on channel=9 note=44 velocity=0 time=0.00396825
EXTRACT: note_on channel=9 note=67 velocity=0 time=0.001984125
EXTRACT: note_on channel=7 note=61 velocity=0 time=0.03373012500000001
EXTRACT: note_on channel=1 note=30 velocity=0 time=0.01984125
EXTRACT: note_on channel=3 note=66 velocity=0 time=0
EXTRACT: note_on channel=9 note=28 velocity=79 time=0.00396825
EXTRACT: note_on channel=9 note=32 velocity=83 time=0
EXTRACT: note_on channel=9 note=36 velocity=103 time=0
EXTRACT: note_on channel=9 note=39 velocity=96 time=0
EXTRACT: note_on channel=9 note=42 velocity=75 time=0
EXTRACT: note_on channel=9 note=56 velocity=73 time=0
EXTRACT: note_on channel=1 note=33 velocity=78 time=0
EXTRACT: note_on channel=3 note=61 velocity=69 time=0
EXTRACT: note_on channel=5 note=61 velocity=82 time=0
EXTRACT: note_on channel=5 note=66 velocity=82 time=0
EXTRACT: note_on channel=5 note=69 velocity=99 time=0
EXTRACT: note_on channel=7 note=54 velocity=87 time=0
EXTRACT: note_on channel=9 note=39 velocity=121 time=0
EXTRACT: note_on channel=9 note=40 velocity=117 time=0
EXTRACT: note_on channel=9 note=36 velocity=126 time=0
EXTRACT: note_on channel=9 note=35 velocity=117 time=0
EXTRACT: note_on channel=9 note=44 velocity=81 time=0
EXTRACT: note_on channel=9 note=82 velocity=69 time=0
EXTRACT: note_on channel=9 note=82 velocity=0 time=0.001984125
EXTRACT: note_on channel=9 note=40 velocity=0 time=0
EXTRACT: note_on channel=9 note=36 velocity=0 time=0
EXTRACT: note_on channel=9 note=39 velocity=0 time=0
EXTRACT: note_on channel=9 note=44 velocity=0 time=0
EXTRACT: note_on channel=9 note=35 velocity=0 time=0
EXTRACT: note_on channel=9 note=32 velocity=0 time=0.061507875000000004
EXTRACT: note_on channel=9 note=28 velocity=0 time=0.005952375000000001
EXTRACT: note_on channel=9 note=39 velocity=0 time=0.00396825
EXTRACT: note_on channel=9 note=36 velocity=0 time=0.011904750000000002
EXTRACT: note_on channel=7 note=54 velocity=0 time=0.11904750000000001
EXTRACT: note_on channel=9 note=70 velocity=105 time=0.027777750000000004
EXTRACT: note_on channel=9 note=42 velocity=0 time=0.001984125
EXTRACT: note_on channel=1 note=33 velocity=0 time=0
EXTRACT: note_on channel=9 note=70 velocity=0 time=0
EXTRACT: note_on channel=9 note=32 velocity=79 time=0.00396825
EXTRACT: note_on channel=9 note=44 velocity=62 time=0
EXTRACT: note_on channel=9 note=68 velocity=41 time=0
EXTRACT: note_on channel=1 note=37 velocity=86 time=0
EXTRACT: note_on channel=7 note=57 velocity=80 time=0
EXTRACT: note_on channel=7 note=61 velocity=72 time=0
EXTRACT: note_on channel=9 note=42 velocity=73 time=0
EXTRACT: note_on channel=9 note=69 velocity=78 time=0
EXTRACT: note_on channel=9 note=56 velocity=87 time=0
EXTRACT: note_on channel=9 note=56 velocity=0 time=0.001984125
EXTRACT: note_on channel=9 note=69 velocity=0 time=0
EXTRACT: note_on channel=9 note=42 velocity=0 time=0
EXTRACT: note_on channel=7 note=57 velocity=0 time=0.049603125000000005
EXTRACT: note_on channel=9 note=44 velocity=0 time=0.001984125
EXTRACT: note_on channel=9 note=68 velocity=0 time=0.005952375000000001
EXTRACT: note_on channel=9 note=32 velocity=0 time=0
EXTRACT: note_on channel=9 note=56 velocity=0 time=0.00396825
EXTRACT: note_on channel=7 note=61 velocity=0 time=0.011904750000000002
EXTRACT: note_on channel=5 note=66 velocity=0 time=0.009920625
EXTRACT: note_on channel=5 note=69 velocity=0 time=0.0079365
EXTRACT: note_on channel=10 note=66 velocity=0 time=0.009920625
EXTRACT: note_on channel=10 note=69 velocity=0 time=0.0079365
EXTRACT: note_on channel=5 note=61 velocity=0 time=0
EXTRACT: note_on channel=7 note=57 velocity=78 time=0.0079365
EXTRACT: note_on channel=7 note=61 velocity=68 time=0
EXTRACT: note_on channel=3 note=61 velocity=0 time=0.00396825
EXTRACT: note_on channel=9 note=32 velocity=71 time=0.005952375000000001
EXTRACT: note_on channel=9 note=44 velocity=51 time=0
EXTRACT: note_on channel=9 note=68 velocity=25 time=0
EXTRACT: note_on channel=10 note=61 velocity=0 time=0.009920625
EXTRACT: note_on channel=9 note=42 velocity=66 time=0.001984125
EXTRACT: note_on channel=9 note=69 velocity=73 time=0
EXTRACT: note_on channel=9 note=69 velocity=0 time=0.001984125
EXTRACT: note_on channel=9 note=42 velocity=0 time=0
EXTRACT: note_on channel=7 note=57 velocity=0 time=0.031746
EXTRACT: note_on channel=9 note=44 velocity=0 time=0.0079365
EXTRACT: note_on channel=9 note=32 velocity=0 time=0.009920625
EXTRACT: note_on channel=9 note=68 velocity=0 time=0.0079365
EXTRACT: note_on channel=7 note=61 velocity=0 time=0.00396825
EXTRACT: note_on channel=1 note=37 velocity=0 time=0.005952375000000001
EXTRACT: note_on channel=9 note=27 velocity=86 time=0.027777750000000004
EXTRACT: note_on channel=9 note=36 velocity=105 time=0
EXTRACT: note_on channel=9 note=42 velocity=85 time=0
EXTRACT: note_on channel=9 note=44 velocity=82 time=0
EXTRACT: note_on channel=9 note=56 velocity=75 time=0
EXTRACT: note_on channel=1 note=35 velocity=90 time=0
EXTRACT: note_on channel=10 note=59 velocity=68 time=0
EXTRACT: note_on channel=10 note=64 velocity=62 time=0
EXTRACT: note_on channel=10 note=66 velocity=62 time=0
EXTRACT: note_on channel=5 note=59 velocity=88 time=0
EXTRACT: note_on channel=5 note=64 velocity=85 time=0
EXTRACT: note_on channel=5 note=66 velocity=81 time=0
EXTRACT: note_on channel=7 note=47 velocity=83 time=0
EXTRACT: note_on channel=9 note=36 velocity=126 time=0
EXTRACT: note_on channel=9 note=35 velocity=117 time=0
EXTRACT: note_on channel=9 note=35 velocity=0 time=0.001984125
EXTRACT: note_on channel=9 note=36 velocity=0 time=0
EXTRACT: note_on channel=5 note=64 velocity=0 time=0.069444375
EXTRACT: note_on channel=9 note=27 velocity=0 time=0.0079365
EXTRACT: note_on channel=9 note=36 velocity=0 time=0.009920625
EXTRACT: note_on channel=5 note=66 velocity=0 time=0.001984125
EXTRACT: note_on channel=5 note=59 velocity=0 time=0.021825375
EXTRACT: note_on channel=9 note=69 velocity=85 time=0.027777750000000004
EXTRACT: note_on channel=9 note=69 velocity=0 time=0.001984125
EXTRACT: note_on channel=9 note=44 velocity=0 time=0.06547612500000001
EXTRACT: note_on channel=9 note=42 velocity=0 time=0.025793625000000004
EXTRACT: note_on channel=9 note=70 velocity=105 time=0
EXTRACT: note_on channel=9 note=27 velocity=85 time=0.00396825
EXTRACT: note_on channel=9 note=44 velocity=48 time=0
EXTRACT: note_on channel=9 note=67 velocity=33 time=0
EXTRACT: note_on channel=7 note=52 velocity=92 time=0
EXTRACT: note_on channel=7 note=59 velocity=71 time=0
EXTRACT: note_on channel=9 note=70 velocity=0 time=0
EXTRACT: note_on channel=9 note=42 velocity=73 time=0
EXTRACT: note_on channel=9 note=62 velocity=62 time=0
EXTRACT: note_on channel=9 note=62 velocity=0 time=0.001984125
EXTRACT: note_on channel=9 note=42 velocity=0 time=0
EXTRACT: note_on channel=7 note=59 velocity=0 time=0.023809500000000004
EXTRACT: note_on channel=9 note=44 velocity=0 time=0.00396825
EXTRACT: note_on channel=9 note=67 velocity=0 time=0.011904750000000002
EXTRACT: note_on channel=7 note=52 velocity=0 time=0.00396825
EXTRACT: note_on channel=7 note=47 velocity=0 time=0.023809500000000004
EXTRACT: note_on channel=9 note=27 velocity=0 time=0.005952375000000001
EXTRACT: note_on channel=9 note=56 velocity=0 time=0.009920625
EXTRACT: note_on channel=7 note=52 velocity=96 time=0.03373012500000001
EXTRACT: note_on channel=7 note=59 velocity=75 time=0
EXTRACT: note_on channel=9 note=60 velocity=58 time=0
EXTRACT: note_on channel=9 note=60 velocity=0 time=0.001984125
EXTRACT: note_on channel=9 note=44 velocity=63 time=0.0079365
EXTRACT: note_on channel=9 note=67 velocity=43 time=0
EXTRACT: note_on channel=5 note=59 velocity=81 time=0
EXTRACT: note_on channel=5 note=64 velocity=81 time=0
EXTRACT: note_on channel=5 note=66 velocity=80 time=0
EXTRACT: note_on channel=9 note=42 velocity=66 time=0.011904750000000002
EXTRACT: note_on channel=9 note=69 velocity=71 time=0
EXTRACT: note_on channel=9 note=69 velocity=0 time=0.001984125
EXTRACT: note_on channel=9 note=42 velocity=0 time=0
EXTRACT: note_on channel=7 note=52 velocity=0 time=0.025793625000000004
EXTRACT: note_on channel=9 note=44 velocity=0 time=0.013888875000000002
EXTRACT: note_on channel=9 note=67 velocity=0 time=0.0079365
EXTRACT: note_on channel=7 note=59 velocity=0 time=0.00396825
EXTRACT: note_on channel=5 note=64 velocity=0 time=0.00396825
EXTRACT: note_on channel=1 note=35 velocity=0 time=0.03571425
EXTRACT: note_on channel=9 note=28 velocity=82 time=0.00396825
EXTRACT: note_on channel=9 note=32 velocity=83 time=0
EXTRACT: note_on channel=9 note=36 velocity=105 time=0
EXTRACT: note_on channel=9 note=39 velocity=96 time=0
EXTRACT: note_on channel=9 note=42 velocity=82 time=0
EXTRACT: note_on channel=9 note=56 velocity=78 time=0
EXTRACT: note_on channel=1 note=30 velocity=76 time=0
EXTRACT: note_on channel=3 note=66 velocity=82 time=0
EXTRACT: note_on channel=7 note=47 velocity=82 time=0
EXTRACT: note_on channel=9 note=39 velocity=121 time=0
EXTRACT: note_on channel=9 note=36 velocity=126 time=0
EXTRACT: note_on channel=9 note=35 velocity=117 time=0
EXTRACT: note_on channel=9 note=40 velocity=117 time=0
EXTRACT: note_on channel=9 note=44 velocity=81 time=0
EXTRACT: note_on channel=9 note=62 velocity=70 time=0
EXTRACT: note_on channel=9 note=62 velocity=0 time=0.001984125
EXTRACT: note_on channel=9 note=36 velocity=0 time=0
EXTRACT: note_on channel=9 note=35 velocity=0 time=0
EXTRACT: note_on channel=9 note=39 velocity=0 time=0
EXTRACT: note_on channel=9 note=44 velocity=0 time=0
EXTRACT: note_on channel=9 note=40 velocity=0 time=0
EXTRACT: note_on channel=5 note=66 velocity=0 time=0.001984125
EXTRACT: note_on channel=5 note=59 velocity=0 time=0.05158725000000001
EXTRACT: note_on channel=9 note=39 velocity=0 time=0.013888875000000002
EXTRACT: note_on channel=9 note=32 velocity=0 time=0.001984125
EXTRACT: note_on channel=9 note=28 velocity=0 time=0.00396825
EXTRACT: note_on channel=9 note=36 velocity=0 time=0.00396825
EXTRACT: note_on channel=9 note=60 velocity=65 time=0.0396825
EXTRACT: note_on channel=9 note=60 velocity=0 time=0.001984125
EXTRACT: note_on channel=9 note=42 velocity=0 time=0.11309512500000002
EXTRACT: note_on channel=1 note=30 velocity=0 time=0
EXTRACT: note_on channel=3 note=66 velocity=0 time=0
EXTRACT: note_on channel=9 note=32 velocity=78 time=0.00396825
EXTRACT: note_on channel=9 note=44 velocity=55 time=0
EXTRACT: note_on channel=9 note=68 velocity=37 time=0
EXTRACT: note_on channel=1 note=35 velocity=94 time=0
EXTRACT: note_on channel=3 note=64 velocity=73 time=0
EXTRACT: note_on channel=5 note=59 velocity=90 time=0
EXTRACT: note_on channel=5 note=64 velocity=97 time=0
EXTRACT: note_on channel=5 note=66 velocity=88 time=0
EXTRACT: note_on channel=7 note=52 velocity=82 time=0
EXTRACT: note_on channel=7 note=59 velocity=70 time=0
EXTRACT: note_on channel=9 note=42 velocity=73 time=0
EXTRACT: note_on channel=9 note=61 velocity=80 time=0
EXTRACT: note_on channel=9 note=61 velocity=0 time=0.001984125
EXTRACT: note_on channel=9 note=42 velocity=0 time=0
EXTRACT: note_on channel=9 note=70 velocity=105 time=0.001984125
EXTRACT: note_on channel=9 note=70 velocity=0 time=0.001984125
EXTRACT: note_on channel=7 note=52 velocity=0 time=0.029761875000000004
EXTRACT: note_on channel=9 note=44 velocity=0 time=0.00396825
EXTRACT: note_on channel=9 note=68 velocity=0 time=0.00396825
EXTRACT: note_on channel=10 note=64 velocity=0 time=0.0079365
EXTRACT: note_on channel=5 note=64 velocity=0 time=0.009920625
EXTRACT: note_on channel=9 note=32 velocity=0 time=0.00396825
EXTRACT: note_on channel=7 note=59 velocity=0 time=0.009920625
EXTRACT: note_on channel=10 note=66 velocity=0 time=0.00396825
EXTRACT: note_on channel=5 note=66 velocity=0 time=0
EXTRACT: note_on channel=9 note=56 velocity=0 time=0.013888875000000002
EXTRACT: note_on channel=5 note=59 velocity=0 time=0.011904750000000002
EXTRACT: note_on channel=7 note=47 velocity=0 time=0
EXTRACT: note_on channel=10 note=59 velocity=0 time=0.00396825
EXTRACT: note_on channel=7 note=52 velocity=89 time=0.009920625
EXTRACT: note_on channel=7 note=59 velocity=62 time=0
EXTRACT: note_on channel=9 note=60 velocity=70 time=0
EXTRACT: note_on channel=9 note=60 velocity=0 time=0.001984125
EXTRACT: note_on channel=9 note=32 velocity=55 time=0.0079365
EXTRACT: note_on channel=9 note=44 velocity=55 time=0
EXTRACT: note_on channel=9 note=68 velocity=38 time=0
EXTRACT: note_on channel=9 note=42 velocity=66 time=0.011904750000000002
EXTRACT: note_on channel=9 note=82 velocity=50 time=0
EXTRACT: note_on channel=9 note=82 velocity=0 time=0.001984125
EXTRACT: note_on channel=9 note=42 velocity=0 time=0
EXTRACT: note_on channel=1 note=35 velocity=0 time=0.001984125
EXTRACT: note_on channel=7 note=52 velocity=0 time=0.023809500000000004
EXTRACT: note_on channel=7 note=59 velocity=0 time=0.005952375000000001
EXTRACT: note_on channel=9 note=32 velocity=0 time=0.0079365
EXTRACT: note_on channel=9 note=44 velocity=0 time=0.005952375000000001
EXTRACT: note_on channel=9 note=68 velocity=0 time=0.011904750000000002
EXTRACT: note_on channel=3 note=64 velocity=0 time=0
EXTRACT: note_on channel=9 note=27 velocity=87 time=0.037698375000000006
EXTRACT: note_on channel=9 note=36 velocity=103 time=0
EXTRACT: note_on channel=9 note=42 velocity=90 time=0
EXTRACT: note_on channel=9 note=44 velocity=89 time=0
EXTRACT: note_on channel=9 note=56 velocity=78 time=0
EXTRACT: note_on channel=1 note=35 velocity=90 time=0
EXTRACT: note_on channel=10 note=59 velocity=68 time=0
EXTRACT: note_on channel=10 note=63 velocity=56 time=0
EXTRACT: note_on channel=10 note=66 velocity=56 time=0
EXTRACT: note_on channel=3 note=68 velocity=85 time=0
EXTRACT: note_on channel=7 note=47 velocity=83 time=0
EXTRACT: note_on channel=9 note=36 velocity=126 time=0
EXTRACT: note_on channel=9 note=35 velocity=117 time=0
EXTRACT: note_on channel=9 note=44 velocity=81 time=0
EXTRACT: note_on channel=9 note=82 velocity=57 time=0
EXTRACT: note_on channel=9 note=56 velocity=83 time=0
EXTRACT: note_on channel=9 note=56 velocity=0 time=0.001984125
EXTRACT: note_on channel=9 note=44 velocity=0 time=0
EXTRACT: note_on channel=9 note=36 velocity=0 time=0
EXTRACT: note_on channel=9 note=35 velocity=0 time=0
EXTRACT: note_on channel=9 note=82 velocity=0 time=0
EXTRACT: note_on channel=9 note=36 velocity=0 time=0.077380875
EXTRACT: note_on channel=9 note=27 velocity=0 time=0.005952375000000001
EXTRACT: note_on channel=9 note=63 velocity=60 time=0.03373012500000001
EXTRACT: note_on channel=9 note=63 velocity=0 time=0.001984125
EXTRACT: note_on channel=5 note=59 velocity=87 time=0.0079365
EXTRACT: note_on channel=5 note=63 velocity=89 time=0
EXTRACT: note_on channel=5 note=66 velocity=87 time=0
EXTRACT: note_on channel=9 note=82 velocity=38 time=0.011904750000000002
EXTRACT: note_on channel=9 note=82 velocity=0 time=0.001984125
EXTRACT: note_on channel=9 note=44 velocity=0 time=0.027777750000000004
EXTRACT: note_on channel=5 note=63 velocity=0 time=0.021825375
EXTRACT: note_on channel=5 note=66 velocity=0 time=0.0079365
EXTRACT: note_on channel=5 note=59 velocity=0 time=0.027777750000000004
EXTRACT: note_on channel=9 note=42 velocity=0 time=0.005952375000000001
EXTRACT: note_on channel=1 note=35 velocity=0 time=0
EXTRACT: note_on channel=9 note=65 velocity=87 time=0
EXTRACT: note_on channel=9 note=27 velocity=86 time=0.00396825
EXTRACT: note_on channel=9 note=44 velocity=60 time=0
EXTRACT: note_on channel=9 note=65 velocity=88 time=0
EXTRACT: note_on channel=9 note=67 velocity=51 time=0
EXTRACT: note_on channel=1 note=30 velocity=77 time=0
EXTRACT: note_on channel=7 note=54 velocity=74 time=0
EXTRACT: note_on channel=7 note=59 velocity=71 time=0
EXTRACT: note_on channel=9 note=65 velocity=0 time=0
EXTRACT: note_on channel=9 note=42 velocity=73 time=0
EXTRACT: note_on channel=9 note=82 velocity=60 time=0
EXTRACT: note_on channel=9 note=82 velocity=0 time=0.001984125
EXTRACT: note_on channel=9 note=42 velocity=0 time=0
EXTRACT: note_on channel=9 note=70 velocity=105 time=0.001984125
EXTRACT: note_on channel=9 note=70 velocity=0 time=0.001984125
EXTRACT: note_on channel=9 note=66 velocity=79 time=0.00396825
EXTRACT: note_on channel=9 note=66 velocity=0 time=0.001984125
EXTRACT: note_on channel=9 note=44 velocity=0 time=0.021825375
EXTRACT: note_on channel=7 note=59 velocity=0 time=0.001984125
EXTRACT: note_on channel=9 note=67 velocity=0 time=0.00396825
EXTRACT: note_on channel=7 note=54 velocity=0 time=0.015873
EXTRACT: note_on channel=9 note=65 velocity=0 time=0.009920625
EXTRACT: note_on channel=9 note=56 velocity=0 time=0.005952375000000001
EXTRACT: note_on channel=9 note=27 velocity=0 time=0.011904750000000002
EXTRACT: note_on channel=7 note=47 velocity=0 time=0.009920625
EXTRACT: note_on channel=7 note=54 velocity=79 time=0.025793625000000004
EXTRACT: note_on channel=7 note=59 velocity=60 time=0
EXTRACT: note_on channel=9 note=56 velocity=80 time=0
EXTRACT: note_on channel=9 note=56 velocity=0 time=0.001984125
EXTRACT: note_on channel=9 note=66 velocity=88 time=0.00396825
EXTRACT: note_on channel=9 note=44 velocity=63 time=0.00396825
EXTRACT: note_on channel=9 note=65 velocity=80 time=0
EXTRACT: note_on channel=9 note=67 velocity=36 time=0
EXTRACT: note_on channel=9 note=66 velocity=0 time=0
EXTRACT: note_on channel=9 note=42 velocity=66 time=0.011904750000000002
EXTRACT: note_on channel=9 note=82 velocity=48 time=0
EXTRACT: note_on channel=9 note=82 velocity=0 time=0.001984125
EXTRACT: note_on channel=9 note=42 velocity=0 time=0
EXTRACT: note_on channel=9 note=67 velocity=0 time=0.029761875000000004
EXTRACT: note_on channel=9 note=65 velocity=0 time=0.011904750000000002
EXTRACT: note_on channel=9 note=44 velocity=0 time=0.00396825
EXTRACT: note_on channel=7 note=54 velocity=0 time=0.01984125
EXTRACT: note_on channel=7 note=59 velocity=0 time=0.00396825
EXTRACT: note_on channel=1 note=30 velocity=0 time=0.017857125
EXTRACT: note_on channel=3 note=68 velocity=0 time=0.00396825
EXTRACT: note_on channel=9 note=28 velocity=85 time=0.00396825
EXTRACT: note_on channel=9 note=32 velocity=87 time=0
EXTRACT: note_on channel=9 note=36 velocity=103 time=0
EXTRACT: note_on channel=9 note=39 velocity=99 time=0
EXTRACT: note_on channel=9 note=42 velocity=84 time=0
EXTRACT: note_on channel=9 note=56 velocity=78 time=0
EXTRACT: note_on channel=9 note=66 velocity=83 time=0
EXTRACT: note_on channel=1 note=33 velocity=87 time=0
EXTRACT: note_on channel=3 note=66 velocity=83 time=0
EXTRACT: note_on channel=5 note=59 velocity=90 time=0
EXTRACT: note_on channel=5 note=63 velocity=90 time=0
EXTRACT: note_on channel=5 note=66 velocity=87 time=0
EXTRACT: note_on channel=7 note=47 velocity=88 time=0
EXTRACT: note_on channel=9 note=36 velocity=126 time=0
EXTRACT: note_on channel=9 note=35 velocity=117 time=0
EXTRACT: note_on channel=9 note=39 velocity=121 time=0
EXTRACT: note_on channel=9 note=40 velocity=117 time=0
EXTRACT: note_on channel=9 note=44 velocity=81 time=0
EXTRACT: note_on channel=9 note=82 velocity=61 time=0
EXTRACT: note_on channel=9 note=82 velocity=0 time=0.001984125
EXTRACT: note_on channel=9 note=35 velocity=0 time=0
EXTRACT: note_on channel=9 note=39 velocity=0 time=0
EXTRACT: note_on channel=9 note=36 velocity=0 time=0
EXTRACT: note_on channel=9 note=44 velocity=0 time=0
EXTRACT: note_on channel=9 note=40 velocity=0 time=0
EXTRACT: note_on channel=9 note=32 velocity=0 time=0.063492
EXTRACT: note_on channel=9 note=39 velocity=0 time=0.005952375000000001
EXTRACT: note_on channel=9 note=28 velocity=0 time=0.001984125
EXTRACT: note_on channel=9 note=36 velocity=0 time=0.005952375000000001
EXTRACT: note_on channel=9 note=66 velocity=0 time=0.00396825
EXTRACT: note_on channel=9 note=65 velocity=95 time=0.05158725000000001
EXTRACT: note_on channel=9 note=65 velocity=0 time=0.00396825
EXTRACT: note_on channel=9 note=66 velocity=85 time=0.009920625
EXTRACT: note_on channel=9 note=66 velocity=0 time=0.001984125
EXTRACT: note_on channel=1 note=33 velocity=0 time=0.0396825
EXTRACT: note_on channel=9 note=42 velocity=0 time=0.017857125
EXTRACT: note_on channel=9 note=70 velocity=105 time=0.023809500000000004
EXTRACT: note_on channel=9 note=70 velocity=0 time=0.001984125
EXTRACT: note_on channel=9 note=32 velocity=74 time=0.00396825
EXTRACT: note_on channel=9 note=36 velocity=91 time=0
EXTRACT: note_on channel=9 note=44 velocity=60 time=0
EXTRACT: note_on channel=9 note=66 velocity=71 time=0
EXTRACT: note_on channel=9 note=68 velocity=44 time=0
EXTRACT: note_on channel=1 note=35 velocity=85 time=0
EXTRACT: note_on channel=7 note=54 velocity=83 time=0
EXTRACT: note_on channel=7 note=59 velocity=79 time=0
EXTRACT: note_on channel=9 note=42 velocity=75 time=0
EXTRACT: note_on channel=9 note=69 velocity=87 time=0
EXTRACT: note_on channel=9 note=56 velocity=80 time=0
EXTRACT: note_on channel=7 note=47 velocity=0 time=0.001984125
EXTRACT: note_on channel=9 note=56 velocity=0 time=0
EXTRACT: note_on channel=9 note=69 velocity=0 time=0
EXTRACT: note_on channel=9 note=42 velocity=0 time=0
EXTRACT: note_on channel=9 note=66 velocity=82 time=0.001984125
EXTRACT: note_on channel=9 note=66 velocity=0 time=0.001984125
EXTRACT: note_on channel=9 note=68 velocity=0 time=0.01984125
EXTRACT: note_on channel=9 note=44 velocity=0 time=0.01984125
EXTRACT: note_on channel=9 note=36 velocity=0 time=0.0079365
EXTRACT: note_on channel=9 note=32 velocity=0 time=0.005952375000000001
EXTRACT: note_on channel=9 note=56 velocity=0 time=0.001984125
EXTRACT: note_on channel=9 note=66 velocity=0 time=0.0079365
EXTRACT: note_on channel=7 note=54 velocity=0 time=0.001984125
EXTRACT: note_on channel=7 note=59 velocity=0 time=0.00396825
EXTRACT: note_on channel=5 note=63 velocity=0 time=0.015873
EXTRACT: note_on channel=5 note=66 velocity=0 time=0.0079365
EXTRACT: note_on channel=5 note=59 velocity=0 time=0.009920625
EXTRACT: note_on channel=10 note=63 velocity=0 time=0.005952375000000001
EXTRACT: note_on channel=7 note=54 velocity=84 time=0.00396825
EXTRACT: note_on channel=7 note=59 velocity=66 time=0
EXTRACT: note_on channel=10 note=66 velocity=0 time=0.005952375000000001
EXTRACT: note_on channel=9 note=32 velocity=69 time=0.00396825
EXTRACT: note_on channel=9 note=44 velocity=58 time=0
EXTRACT: note_on channel=9 note=65 velocity=75 time=0
EXTRACT: note_on channel=9 note=68 velocity=50 time=0
EXTRACT: note_on channel=9 note=42 velocity=66 time=0.011904750000000002
EXTRACT: note_on channel=9 note=69 velocity=69 time=0
EXTRACT: note_on channel=9 note=69 velocity=0 time=0.001984125
EXTRACT: note_on channel=9 note=42 velocity=0 time=0
EXTRACT: note_on channel=3 note=66 velocity=0 time=0.005952375000000001
EXTRACT: note_on channel=1 note=35 velocity=0 time=0.001984125
EXTRACT: note_on channel=10 note=59 velocity=0 time=0.011904750000000002
EXTRACT: note_on channel=9 note=68 velocity=0 time=0.027777750000000004
EXTRACT: note_on channel=9 note=44 velocity=0 time=0
EXTRACT: note_on channel=9 note=32 velocity=0 time=0.00396825
EXTRACT: note_on channel=7 note=54 velocity=0 time=0.0079365
EXTRACT: note_on channel=7 note=59 velocity=0 time=0.017857125
EXTRACT: note_on channel=9 note=27 velocity=94 time=0.017857125
EXTRACT: note_on channel=9 note=36 velocity=105 time=0
EXTRACT: note_on channel=9 note=42 velocity=88 time=0
EXTRACT: note_on channel=9 note=49 velocity=94 time=0
EXTRACT: note_on channel=9 note=56 velocity=83 time=0
EXTRACT: note_on channel=1 note=37 velocity=82 time=0
EXTRACT: note_on channel=10 note=61 velocity=60 time=0
EXTRACT: note_on channel=10 note=64 velocity=51 time=0
EXTRACT: note_on channel=10 note=68 velocity=53 time=0
EXTRACT: note_on channel=10 note=76 velocity=79 time=0
EXTRACT: note_on channel=3 note=68 velocity=80 time=0
EXTRACT: note_on channel=5 note=61 velocity=80 time=0
EXTRACT: note_on channel=5 note=64 velocity=87 time=0
EXTRACT: note_on channel=5 note=68 velocity=86 time=0
EXTRACT: note_on channel=7 note=49 velocity=90 time=0
EXTRACT: note_on channel=9 note=36 velocity=126 time=0
EXTRACT: note_on channel=9 note=35 velocity=117 time=0
EXTRACT: note_on channel=9 note=44 velocity=81 time=0
EXTRACT: note_on channel=9 note=44 velocity=0 time=0.001984125
EXTRACT: note_on channel=9 note=35 velocity=0 time=0
EXTRACT: note_on channel=9 note=36 velocity=0 time=0
EXTRACT: note_on channel=9 note=65 velocity=0 time=0.00396825
EXTRACT: note_on channel=9 note=57 velocity=64 time=0
EXTRACT: note_on channel=9 note=57 velocity=0 time=0.00396825
EXTRACT: note_on channel=5 note=64 velocity=0 time=0.05158725000000001
EXTRACT: note_on channel=9 note=27 velocity=0 time=0.00396825
EXTRACT: note_on channel=9 note=36 velocity=0 time=0.005952375000000001
EXTRACT: note_on channel=5 note=68 velocity=0 time=0.017857125
EXTRACT: note_on channel=5 note=61 velocity=0 time=0.045634875000000005
EXTRACT: note_on channel=9 note=69 velocity=93 time=0.005952375000000001
EXTRACT: note_on channel=9 note=69 velocity=0 time=0.001984125
EXTRACT: note_on channel=1 note=37 velocity=0 time=0.03571425
EXTRACT: note_on channel=9 note=42 velocity=0 time=0.05555550000000001
EXTRACT: note_on channel=3 note=68 velocity=0 time=0
EXTRACT: note_on channel=9 note=27 velocity=79 time=0.00396825
EXTRACT: note_on channel=9 note=44 velocity=60 time=0
EXTRACT: note_on channel=9 note=67 velocity=37 time=0
EXTRACT: note_on channel=1 note=37 velocity=83 time=0
EXTRACT: note_on channel=3 note=64 velocity=80 time=0
EXTRACT: note_on channel=7 note=49 velocity=0 time=0
EXTRACT: note_on channel=7 note=56 velocity=77 time=0
EXTRACT: note_on channel=7 note=61 velocity=60 time=0
EXTRACT: note_on channel=9 note=42 velocity=73 time=0
EXTRACT: note_on channel=9 note=70 velocity=105 time=0
EXTRACT: note_on channel=9 note=70 velocity=0 time=0.001984125
EXTRACT: note_on channel=9 note=42 velocity=0 time=0
EXTRACT: note_on channel=9 note=67 velocity=0 time=0.0396825
EXTRACT: note_on channel=7 note=61 velocity=0 time=0.0079365
EXTRACT: note_on channel=9 note=44 velocity=0 time=0.005952375000000001
EXTRACT: note_on channel=7 note=56 velocity=0 time=0
EXTRACT: note_on channel=9 note=56 velocity=0 time=0.0079365
EXTRACT: note_on channel=9 note=27 velocity=0 time=0.0079365
EXTRACT: note_on channel=7 note=56 velocity=88 time=0.04761900000000001
EXTRACT: note_on channel=7 note=61 velocity=73 time=0
EXTRACT: note_on channel=9 note=62 velocity=64 time=0
EXTRACT: note_on channel=9 note=62 velocity=0 time=0.001984125
EXTRACT: note_on channel=9 note=32 velocity=71 time=0.0079365
EXTRACT: note_on channel=9 note=67 velocity=29 time=0
EXTRACT: note_on channel=5 note=61 velocity=82 time=0
EXTRACT: note_on channel=5 note=64 velocity=85 time=0
EXTRACT: note_on channel=5 note=68 velocity=84 time=0
EXTRACT: note_on channel=9 note=44 velocity=69 time=0.009920625
EXTRACT: note_on channel=9 note=42 velocity=66 time=0.001984125
EXTRACT: note_on channel=9 note=69 velocity=61 time=0
EXTRACT: note_on channel=9 note=69 velocity=0 time=0.001984125
EXTRACT: note_on channel=9 note=42 velocity=0 time=0
EXTRACT: note_on channel=9 note=67 velocity=0 time=0.029761875000000004
EXTRACT: note_on channel=7 note=56 velocity=0 time=0.017857125
EXTRACT: note_on channel=5 note=64 velocity=0 time=0.0079365
EXTRACT: note_on channel=7 note=61 velocity=0 time=0.005952375000000001
EXTRACT: note_on channel=9 note=32 velocity=0 time=0.009920625
EXTRACT: note_on channel=9 note=44 velocity=0 time=0.005952375000000001
EXTRACT: note_on channel=3 note=64 velocity=0 time=0.00396825
EXTRACT: note_on channel=5 note=68 velocity=0 time=0.00396825
EXTRACT: note_on channel=1 note=37 velocity=0 time=0.005952375000000001
EXTRACT: note_on channel=9 note=28 velocity=74 time=0.00396825
EXTRACT: note_on channel=9 note=36 velocity=99 time=0
EXTRACT: note_on channel=9 note=39 velocity=101 time=0
EXTRACT: note_on channel=9 note=42 velocity=90 time=0
EXTRACT: note_on channel=9 note=56 velocity=80 time=0
EXTRACT: note_on channel=1 note=40 velocity=84 time=0
EXTRACT: note_on channel=3 note=68 velocity=74 time=0
EXTRACT: note_on channel=7 note=52 velocity=99 time=0
EXTRACT: note_on channel=9 note=40 velocity=117 time=0
EXTRACT: note_on channel=9 note=36 velocity=126 time=0
EXTRACT: note_on channel=9 note=35 velocity=117 time=0
EXTRACT: note_on channel=9 note=39 velocity=121 time=0
EXTRACT: note_on channel=9 note=44 velocity=81 time=0
EXTRACT: note_on channel=9 note=69 velocity=78 time=0
EXTRACT: note_on channel=9 note=60 velocity=80 time=0
EXTRACT: note_on channel=9 note=60 velocity=0 time=0.001984125
EXTRACT: note_on channel=9 note=44 velocity=0 time=0
EXTRACT: note_on channel=9 note=36 velocity=0 time=0
EXTRACT: note_on channel=9 note=35 velocity=0 time=0
EXTRACT: note_on channel=9 note=40 velocity=0 time=0
EXTRACT: note_on channel=9 note=69 velocity=0 time=0
EXTRACT: note_on channel=9 note=39 velocity=0 time=0
EXTRACT: note_on channel=5 note=61 velocity=0 time=0.029761875000000004
EXTRACT: note_on channel=9 note=39 velocity=0 time=0.0396825
EXTRACT: note_on channel=9 note=36 velocity=0 time=0.00396825
EXTRACT: note_on channel=9 note=28 velocity=0 time=0.015873
EXTRACT: note_on channel=9 note=62 velocity=63 time=0.027777750000000004
EXTRACT: note_on channel=9 note=62 velocity=0 time=0.001984125
EXTRACT: note_on channel=9 note=32 velocity=59 time=0.0079365
EXTRACT: note_on channel=9 note=32 velocity=0 time=0.053571375000000004
EXTRACT: note_on channel=9 note=42 velocity=0 time=0.05158725000000001
EXTRACT: note_on channel=1 note=40 velocity=0 time=0
EXTRACT: note_on channel=3 note=68 velocity=0 time=0
EXTRACT: note_on channel=9 note=32 velocity=63 time=0.00396825
EXTRACT: note_on channel=9 note=44 velocity=44 time=0
EXTRACT: note_on channel=9 note=68 velocity=62 time=0
EXTRACT: note_on channel=1 note=44 velocity=92 time=0
EXTRACT: note_on channel=3 note=73 velocity=76 time=0
EXTRACT: note_on channel=5 note=61 velocity=87 time=0
EXTRACT: note_on channel=5 note=64 velocity=91 time=0
EXTRACT: note_on channel=5 note=68 velocity=89 time=0
EXTRACT: note_on channel=7 note=56 velocity=77 time=0
EXTRACT: note_on channel=7 note=61 velocity=57 time=0
EXTRACT: note_on channel=9 note=42 velocity=73 time=0
EXTRACT: note_on channel=9 note=60 velocity=59 time=0
EXTRACT: note_on channel=9 note=60 velocity=0 time=0.001984125
EXTRACT: note_on channel=9 note=42 velocity=0 time=0
EXTRACT: note_on channel=9 note=70 velocity=105 time=0
EXTRACT: note_on channel=9 note=70 velocity=0 time=0.001984125
EXTRACT: note_on channel=5 note=64 velocity=0 time=0.05555550000000001
EXTRACT: note_on channel=7 note=56 velocity=0 time=0.001984125
EXTRACT: note_on channel=9 note=68 velocity=0 time=0.00396825
EXTRACT: note_on channel=9 note=44 velocity=0 time=0
EXTRACT: note_on channel=10 note=64 velocity=0 time=0
EXTRACT: note_on channel=7 note=61 velocity=0 time=0
EXTRACT: note_on channel=9 note=32 velocity=0 time=0.005952375000000001
EXTRACT: note_on channel=7 note=52 velocity=0 time=0.0079365
EXTRACT: note_on channel=10 note=68 velocity=0 time=0.001984125
EXTRACT: note_on channel=9 note=56 velocity=0 time=0.001984125
EXTRACT: note_on channel=5 note=68 velocity=0 time=0.021825375
EXTRACT: note_on channel=7 note=56 velocity=83 time=0.013888875000000002
EXTRACT: note_on channel=7 note=61 velocity=72 time=0
EXTRACT: note_on channel=9 note=61 velocity=69 time=0
EXTRACT: note_on channel=10 note=61 velocity=0 time=0.001984125
EXTRACT: note_on channel=5 note=61 velocity=0 time=0
EXTRACT: note_on channel=9 note=61 velocity=0 time=0
EXTRACT: note_on channel=9 note=49 velocity=0 time=0.00396825
EXTRACT: note_on channel=9 note=32 velocity=62 time=0.00396825
EXTRACT: note_on channel=9 note=56 velocity=79 time=0
EXTRACT: note_on channel=9 note=68 velocity=36 time=0
EXTRACT: note_on channel=9 note=44 velocity=59 time=0.009920625
EXTRACT: note_on channel=9 note=42 velocity=66 time=0.001984125
EXTRACT: note_on channel=9 note=82 velocity=28 time=0
EXTRACT: note_on channel=9 note=82 velocity=0 time=0.001984125
EXTRACT: note_on channel=9 note=42 velocity=0 time=0
EXTRACT: note_on channel=9 note=68 velocity=0 time=0.021825375
EXTRACT: note_on channel=1 note=44 velocity=0 time=0.013888875000000002
EXTRACT: note_on channel=7 note=56 velocity=0 time=0.013888875000000002
EXTRACT: note_on channel=7 note=61 velocity=0 time=0.005952375000000001
EXTRACT: note_on channel=9 note=32 velocity=0 time=0.00396825
EXTRACT: note_on channel=9 note=44 velocity=0 time=0.01984125
EXTRACT: note_on channel=10 note=76 velocity=0 time=0.001984125
EXTRACT: note_on channel=3 note=73 velocity=0 time=0.009920625
EXTRACT: note_on channel=9 note=27 velocity=88 time=0.00396825
EXTRACT: note_on channel=9 note=36 velocity=101 time=0
EXTRACT: note_on channel=9 note=42 velocity=93 time=0
EXTRACT: note_on channel=10 note=57 velocity=38 time=0
EXTRACT: note_on channel=10 note=61 velocity=55 time=0
EXTRACT: note_on channel=10 note=66 velocity=59 time=0
EXTRACT: note_on channel=10 note=78 velocity=67 time=0
EXTRACT: note_on channel=3 note=69 velocity=85 time=0
EXTRACT: note_on channel=7 note=54 velocity=88 time=0
EXTRACT: note_on channel=9 note=36 velocity=126 time=0
EXTRACT: note_on channel=9 note=35 velocity=117 time=0
EXTRACT: note_on channel=9 note=44 velocity=81 time=0
EXTRACT: note_on channel=9 note=82 velocity=74 time=0
EXTRACT: note_on channel=9 note=56 velocity=78 time=0
EXTRACT: note_on channel=9 note=56 velocity=0 time=0.001984125
EXTRACT: note_on channel=9 note=44 velocity=0 time=0
EXTRACT: note_on channel=9 note=36 velocity=0 time=0
EXTRACT: note_on channel=9 note=35 velocity=0 time=0
EXTRACT: note_on channel=9 note=82 velocity=0 time=0
EXTRACT: note_on channel=9 note=27 velocity=0 time=0.0714285
EXTRACT: note_on channel=9 note=36 velocity=0 time=0.005952375000000001
EXTRACT: note_on channel=9 note=27 velocity=64 time=0.049603125000000005
EXTRACT: note_on channel=5 note=61 velocity=84 time=0
EXTRACT: note_on channel=5 note=66 velocity=84 time=0
EXTRACT: note_on channel=5 note=69 velocity=98 time=0
EXTRACT: note_on channel=9 note=82 velocity=36 time=0.011904750000000002
EXTRACT: note_on channel=9 note=82 velocity=0 time=0.001984125
EXTRACT: note_on channel=9 note=56 velocity=0 time=0.0396825
EXTRACT: note_on channel=9 note=27 velocity=0 time=0.0079365
EXTRACT: note_on channel=5 note=69 velocity=0 time=0.001984125
EXTRACT: note_on channel=5 note=66 velocity=0 time=0.001984125
EXTRACT: note_on channel=5 note=61 velocity=0 time=0.01984125
EXTRACT: note_on channel=9 note=70 velocity=105 time=0.015873
EXTRACT: note_on channel=9 note=70 velocity=0 time=0.001984125
EXTRACT: note_on channel=9 note=42 velocity=0 time=0.001984125
EXTRACT: note_on channel=9 note=27 velocity=69 time=0.00396825
EXTRACT: note_on channel=9 note=44 velocity=67 time=0
EXTRACT: note_on channel=9 note=67 velocity=28 time=0
EXTRACT: note_on channel=1 note=30 velocity=83 time=0
EXTRACT: note_on channel=7 note=57 velocity=64 time=0
EXTRACT: note_on channel=7 note=61 velocity=47 time=0
EXTRACT: note_on channel=9 note=42 velocity=73 time=0
EXTRACT: note_on channel=9 note=82 velocity=59 time=0
EXTRACT: note_on channel=9 note=82 velocity=0 time=0.001984125
EXTRACT: note_on channel=9 note=42 velocity=0 time=0
EXTRACT: note_on channel=7 note=57 velocity=0 time=0.023809500000000004
EXTRACT: note_on channel=9 note=67 velocity=0 time=0.015873
EXTRACT: note_on channel=7 note=61 velocity=0 time=0
EXTRACT: note_on channel=9 note=44 velocity=0 time=0.017857125
EXTRACT: note_on channel=9 note=27 velocity=0 time=0.01984125
EXTRACT: note_on channel=7 note=54 velocity=0 time=0.029761875000000004
EXTRACT: note_on channel=7 note=57 velocity=76 time=0.009920625
EXTRACT: note_on channel=7 note=61 velocity=64 time=0
EXTRACT: note_on channel=9 note=56 velocity=72 time=0
EXTRACT: note_on channel=9 note=56 velocity=0 time=0.001984125
EXTRACT: note_on channel=9 note=67 velocity=42 time=0.0079365
EXTRACT: note_on channel=9 note=44 velocity=67 time=0.009920625
EXTRACT: note_on channel=9 note=42 velocity=66 time=0.001984125
EXTRACT: note_on channel=9 note=82 velocity=49 time=0
EXTRACT: note_on channel=9 note=82 velocity=0 time=0.001984125
EXTRACT: note_on channel=9 note=42 velocity=0 time=0
EXTRACT: note_on channel=9 note=67 velocity=0 time=0.029761875000000004
EXTRACT: note_on channel=3 note=69 velocity=0 time=0.0079365
EXTRACT: note_on channel=7 note=57 velocity=0 time=0.00396825
EXTRACT: note_on channel=7 note=61 velocity=0 time=0.01984125
EXTRACT: note_on channel=9 note=44 velocity=0 time=0.023809500000000004
EXTRACT: note_on channel=1 note=30 velocity=0 time=0.005952375000000001
EXTRACT: note_on channel=9 note=28 velocity=79 time=0.00396825
EXTRACT: note_on channel=9 note=32 velocity=78 time=0
EXTRACT: note_on channel=9 note=36 velocity=101 time=0
EXTRACT: note_on channel=9 note=39 velocity=96 time=0
EXTRACT: note_on channel=9 note=42 velocity=88 time=0
EXTRACT: note_on channel=9 note=56 velocity=80 time=0
EXTRACT: note_on channel=1 note=37 velocity=85 time=0
EXTRACT: note_on channel=5 note=61 velocity=86 time=0
EXTRACT: note_on channel=5 note=66 velocity=83 time=0
EXTRACT: note_on channel=5 note=69 velocity=98 time=0
EXTRACT: note_on channel=7 note=54 velocity=85 time=0
EXTRACT: note_on channel=9 note=39 velocity=121 time=0
EXTRACT: note_on channel=9 note=40 velocity=117 time=0
EXTRACT: note_on channel=9 note=36 velocity=126 time=0
EXTRACT: note_on channel=9 note=35 velocity=117 time=0
EXTRACT: note_on channel=9 note=44 velocity=81 time=0
EXTRACT: note_on channel=9 note=82 velocity=66 time=0
EXTRACT: note_on channel=9 note=82 velocity=0 time=0.001984125
EXTRACT: note_on channel=9 note=40 velocity=0 time=0
EXTRACT: note_on channel=9 note=36 velocity=0 time=0
EXTRACT: note_on channel=9 note=39 velocity=0 time=0
EXTRACT: note_on channel=9 note=44 velocity=0 time=0
EXTRACT: note_on channel=9 note=35 velocity=0 time=0
EXTRACT: note_on channel=9 note=28 velocity=0 time=0.06746025000000001
EXTRACT: note_on channel=9 note=39 velocity=0 time=0.00396825
EXTRACT: note_on channel=9 note=32 velocity=0 time=0.005952375000000001
EXTRACT: note_on channel=9 note=36 velocity=0 time=0
EXTRACT: note_on channel=9 note=70 velocity=105 time=0.15277762500000003
EXTRACT: note_on channel=9 note=42 velocity=0 time=0.001984125
EXTRACT: note_on channel=1 note=37 velocity=0 time=0
EXTRACT: note_on channel=9 note=70 velocity=0 time=0
EXTRACT: note_on channel=9 note=32 velocity=67 time=0.00396825
EXTRACT: note_on channel=9 note=44 velocity=70 time=0
EXTRACT: note_on channel=9 note=68 velocity=26 time=0
EXTRACT: note_on channel=1 note=30 velocity=79 time=0
EXTRACT: note_on channel=7 note=57 velocity=75 time=0
EXTRACT: note_on channel=7 note=61 velocity=63 time=0
EXTRACT: note_on channel=9 note=42 velocity=73 time=0
EXTRACT: note_on channel=9 note=69 velocity=93 time=0
EXTRACT: note_on channel=9 note=56 velocity=72 time=0
EXTRACT: note_on channel=9 note=56 velocity=0 time=0.001984125
EXTRACT: note_on channel=9 note=69 velocity=0 time=0
EXTRACT: note_on channel=9 note=42 velocity=0 time=0
EXTRACT: note_on channel=9 note=68 velocity=0 time=0.03373012500000001
EXTRACT: note_on channel=7 note=54 velocity=0 time=0
EXTRACT: note_on channel=9 note=32 velocity=0 time=0.015873
EXTRACT: note_on channel=7 note=57 velocity=0 time=0.001984125
EXTRACT: note_on channel=9 note=56 velocity=0 time=0.001984125
EXTRACT: note_on channel=9 note=44 velocity=0 time=0.0079365
EXTRACT: note_on channel=7 note=61 velocity=0 time=0.001984125
EXTRACT: note_on channel=10 note=61 velocity=0 time=0.027777750000000004
EXTRACT: note_on channel=5 note=66 velocity=0 time=0.005952375000000001
EXTRACT: note_on channel=10 note=66 velocity=0 time=0.00396825
EXTRACT: note_on channel=5 note=69 velocity=0 time=0
EXTRACT: note_on channel=7 note=57 velocity=78 time=0.015873
EXTRACT: note_on channel=7 note=61 velocity=62 time=0
EXTRACT: note_on channel=9 note=32 velocity=64 time=0.009920625
EXTRACT: note_on channel=9 note=68 velocity=51 time=0
EXTRACT: note_on channel=10 note=57 velocity=0 time=0.001984125
EXTRACT: note_on channel=5 note=61 velocity=0 time=0
EXTRACT: note_on channel=9 note=44 velocity=68 time=0.0079365
EXTRACT: note_on channel=9 note=42 velocity=66 time=0.001984125
EXTRACT: note_on channel=9 note=69 velocity=73 time=0
EXTRACT: note_on channel=9 note=69 velocity=0 time=0.001984125
EXTRACT: note_on channel=9 note=42 velocity=0 time=0
EXTRACT: note_on channel=7 note=57 velocity=0 time=0.037698375000000006
EXTRACT: note_on channel=9 note=32 velocity=0 time=0.013888875000000002
EXTRACT: note_on channel=9 note=68 velocity=0 time=0.005952375000000001
EXTRACT: note_on channel=7 note=61 velocity=0 time=0.011904750000000002
EXTRACT: note_on channel=1 note=30 velocity=0 time=0.011904750000000002
EXTRACT: note_on channel=9 note=44 velocity=0 time=0.00396825
EXTRACT: note_on channel=10 note=78 velocity=0 time=0.005952375000000001
EXTRACT: note_on channel=9 note=27 velocity=92 time=0.00396825
EXTRACT: note_on channel=9 note=36 velocity=101 time=0
EXTRACT: note_on channel=9 note=42 velocity=93 time=0
EXTRACT: note_on channel=9 note=56 velocity=76 time=0
EXTRACT: note_on channel=1 note=35 velocity=80 time=0
EXTRACT: note_on channel=10 note=59 velocity=68 time=0
EXTRACT: note_on channel=10 note=63 velocity=56 time=0
EXTRACT: note_on channel=10 note=66 velocity=53 time=0
EXTRACT: note_on channel=10 note=75 velocity=60 time=0
EXTRACT: note_on channel=3 note=66 velocity=82 time=0
EXTRACT: note_on channel=5 note=59 velocity=88 time=0
EXTRACT: note_on channel=5 note=63 velocity=86 time=0
EXTRACT: note_on channel=5 note=66 velocity=84 time=0
EXTRACT: note_on channel=7 note=51 velocity=91 time=0
EXTRACT: note_on channel=9 note=36 velocity=126 time=0
EXTRACT: note_on channel=9 note=35 velocity=117 time=0
EXTRACT: note_on channel=9 note=35 velocity=0 time=0.001984125
EXTRACT: note_on channel=9 note=36 velocity=0 time=0
EXTRACT: note_on channel=5 note=63 velocity=0 time=0.069444375
EXTRACT: note_on channel=5 note=66 velocity=0 time=0.00396825
EXTRACT: note_on channel=9 note=27 velocity=0 time=0.00396825
EXTRACT: note_on channel=9 note=36 velocity=0 time=0.00396825
EXTRACT: note_on channel=9 note=69 velocity=84 time=0.057539625000000004
EXTRACT: note_on channel=9 note=69 velocity=0 time=0.001984125
EXTRACT: note_on channel=1 note=35 velocity=0 time=0.015873
EXTRACT: note_on channel=5 note=59 velocity=0 time=0.013888875000000002
EXTRACT: note_on channel=9 note=42 velocity=0 time=0.061507875000000004
EXTRACT: note_on channel=3 note=66 velocity=0 time=0
EXTRACT: note_on channel=9 note=70 velocity=105 time=0
EXTRACT: note_on channel=9 note=27 velocity=85 time=0.00396825
EXTRACT: note_on channel=9 note=44 velocity=62 time=0
EXTRACT: note_on channel=9 note=67 velocity=36 time=0
EXTRACT: note_on channel=1 note=35 velocity=80 time=0
EXTRACT: note_on channel=3 note=63 velocity=65 time=0
EXTRACT: note_on channel=7 note=54 velocity=73 time=0
EXTRACT: note_on channel=7 note=59 velocity=58 time=0
EXTRACT: note_on channel=9 note=70 velocity=0 time=0
EXTRACT: note_on channel=9 note=42 velocity=73 time=0
EXTRACT: note_on channel=9 note=62 velocity=79 time=0
EXTRACT: note_on channel=9 note=62 velocity=0 time=0.001984125
EXTRACT: note_on channel=9 note=42 velocity=0 time=0
EXTRACT: note_on channel=9 note=67 velocity=0 time=0.037698375000000006
EXTRACT: note_on channel=7 note=59 velocity=0 time=0
EXTRACT: note_on channel=9 note=56 velocity=0 time=0.001984125
EXTRACT: note_on channel=9 note=44 velocity=0 time=0.01984125
EXTRACT: note_on channel=7 note=54 velocity=0 time=0.001984125
EXTRACT: note_on channel=9 note=27 velocity=0 time=0.005952375000000001
EXTRACT: note_on channel=7 note=54 velocity=78 time=0.049603125000000005
EXTRACT: note_on channel=7 note=59 velocity=78 time=0
EXTRACT: note_on channel=9 note=61 velocity=69 time=0
EXTRACT: note_on channel=9 note=61 velocity=0 time=0.001984125
EXTRACT: note_on channel=9 note=32 velocity=76 time=0.0079365
EXTRACT: note_on channel=9 note=67 velocity=46 time=0
EXTRACT: note_on channel=5 note=59 velocity=78 time=0
EXTRACT: note_on channel=5 note=63 velocity=87 time=0
EXTRACT: note_on channel=5 note=66 velocity=85 time=0
EXTRACT: note_on channel=7 note=51 velocity=0 time=0.001984125
EXTRACT: note_on channel=9 note=44 velocity=71 time=0.0079365
EXTRACT: note_on channel=9 note=42 velocity=66 time=0.001984125
EXTRACT: note_on channel=9 note=69 velocity=68 time=0
EXTRACT: note_on channel=9 note=69 velocity=0 time=0.001984125
EXTRACT: note_on channel=9 note=42 velocity=0 time=0
EXTRACT: note_on channel=5 note=63 velocity=0 time=0.05555550000000001
EXTRACT: note_on channel=9 note=67 velocity=0 time=0.001984125
EXTRACT: note_on channel=7 note=59 velocity=0 time=0
EXTRACT: note_on channel=9 note=32 velocity=0 time=0.001984125
EXTRACT: note_on channel=7 note=54 velocity=0 time=0
EXTRACT: note_on channel=5 note=66 velocity=0 time=0.0079365
EXTRACT: note_on channel=9 note=44 velocity=0 time=0.009920625
EXTRACT: note_on channel=1 note=35 velocity=0 time=0.013888875000000002
EXTRACT: note_on channel=3 note=63 velocity=0 time=0
EXTRACT: note_on channel=9 note=28 velocity=82 time=0.00396825
EXTRACT: note_on channel=9 note=36 velocity=101 time=0
EXTRACT: note_on channel=9 note=39 velocity=99 time=0
EXTRACT: note_on channel=9 note=42 velocity=92 time=0
EXTRACT: note_on channel=9 note=56 velocity=73 time=0
EXTRACT: note_on channel=1 note=39 velocity=91 time=0
EXTRACT: note_on channel=3 note=66 velocity=79 time=0
EXTRACT: note_on channel=7 note=51 velocity=91 time=0
EXTRACT: note_on channel=9 note=39 velocity=121 time=0
EXTRACT: note_on channel=9 note=36 velocity=126 time=0
EXTRACT: note_on channel=9 note=35 velocity=117 time=0
EXTRACT: note_on channel=9 note=40 velocity=117 time=0
EXTRACT: note_on channel=9 note=44 velocity=81 time=0
EXTRACT: note_on channel=9 note=44 velocity=0 time=0.001984125
EXTRACT: note_on channel=9 note=35 velocity=0 time=0
EXTRACT: note_on channel=9 note=39 velocity=0 time=0
EXTRACT: note_on channel=9 note=36 velocity=0 time=0
EXTRACT: note_on channel=9 note=40 velocity=0 time=0
EXTRACT: note_on channel=5 note=59 velocity=0 time=0.05158725000000001
EXTRACT: note_on channel=9 note=39 velocity=0 time=0.01984125
EXTRACT: note_on channel=9 note=28 velocity=0 time=0.001984125
EXTRACT: note_on channel=9 note=36 velocity=0 time=0.0079365
EXTRACT: note_on channel=9 note=62 velocity=73 time=0.03571425
EXTRACT: note_on channel=9 note=62 velocity=0 time=0.001984125
EXTRACT: note_on channel=9 note=32 velocity=68 time=0.0079365
EXTRACT: note_on channel=9 note=32 velocity=0 time=0.053571375000000004
EXTRACT: note_on channel=3 note=66 velocity=0 time=0.04761900000000001
EXTRACT: note_on channel=9 note=42 velocity=0 time=0.00396825
EXTRACT: note_on channel=1 note=39 velocity=0 time=0
EXTRACT: note_on channel=9 note=32 velocity=70 time=0.00396825
EXTRACT: note_on channel=9 note=44 velocity=65 time=0
EXTRACT: note_on channel=9 note=68 velocity=59 time=0
EXTRACT: note_on channel=1 note=42 velocity=85 time=0
EXTRACT: note_on channel=3 note=71 velocity=77 time=0
EXTRACT: note_on channel=5 note=59 velocity=90 time=0
EXTRACT: note_on channel=5 note=63 velocity=94 time=0
EXTRACT: note_on channel=5 note=66 velocity=87 time=0
EXTRACT: note_on channel=7 note=54 velocity=79 time=0
EXTRACT: note_on channel=7 note=59 velocity=75 time=0
EXTRACT: note_on channel=9 note=42 velocity=73 time=0
EXTRACT: note_on channel=9 note=61 velocity=66 time=0
EXTRACT: note_on channel=9 note=61 velocity=0 time=0.001984125
EXTRACT: note_on channel=9 note=42 velocity=0 time=0
EXTRACT: note_on channel=9 note=70 velocity=105 time=0.001984125
EXTRACT: note_on channel=9 note=70 velocity=0 time=0.001984125
EXTRACT: note_on channel=9 note=68 velocity=0 time=0.0396825
EXTRACT: note_on channel=9 note=56 velocity=0 time=0.00396825
EXTRACT: note_on channel=9 note=44 velocity=0 time=0.005952375000000001
EXTRACT: note_on channel=9 note=32 velocity=0 time=0.0079365
EXTRACT: note_on channel=7 note=59 velocity=0 time=0.001984125
EXTRACT: note_on channel=7 note=54 velocity=0 time=0
EXTRACT: note_on channel=5 note=63 velocity=0 time=0.015873
EXTRACT: note_on channel=5 note=66 velocity=0 time=0.00396825
EXTRACT: note_on channel=7 note=54 velocity=77 time=0.03373012500000001
EXTRACT: note_on channel=7 note=59 velocity=47 time=0
EXTRACT: note_on channel=9 note=32 velocity=63 time=0.009920625
EXTRACT: note_on channel=9 note=68 velocity=54 time=0
EXTRACT: note_on channel=5 note=59 velocity=0 time=0
EXTRACT: note_on channel=10 note=63 velocity=0 time=0.00396825
EXTRACT: note_on channel=9 note=44 velocity=65 time=0.005952375000000001
EXTRACT: note_on channel=10 note=59 velocity=0 time=0.001984125
EXTRACT: note_on channel=9 note=42 velocity=66 time=0
EXTRACT: note_on channel=9 note=82 velocity=48 time=0
EXTRACT: note_on channel=9 note=82 velocity=0 time=0.001984125
EXTRACT: note_on channel=9 note=42 velocity=0 time=0
EXTRACT: note_on channel=7 note=51 velocity=0 time=0.0079365
EXTRACT: note_on channel=10 note=66 velocity=0 time=0.013888875000000002
EXTRACT: note_on channel=7 note=54 velocity=0 time=0.025793625000000004
EXTRACT: note_on channel=9 note=32 velocity=0 time=0.001984125
EXTRACT: note_on channel=9 note=68 velocity=0 time=0.001984125
EXTRACT: note_on channel=7 note=59 velocity=0 time=0.005952375000000001
EXTRACT: note_on channel=9 note=44 velocity=0 time=0.013888875000000002
EXTRACT: note_on channel=1 note=42 velocity=0 time=0.00396825
EXTRACT: note_on channel=10 note=75 velocity=0 time=0.009920625
EXTRACT: note_on channel=3 note=71 velocity=0 time=0.005952375000000001
EXTRACT: note_on channel=9 note=27 velocity=87 time=0.00396825
EXTRACT: note_on channel=9 note=36 velocity=101 time=0
EXTRACT: note_on channel=9 note=42 velocity=93 time=0
EXTRACT: note_on channel=9 note=56 velocity=70 time=0
EXTRACT: note_on channel=10 note=56 velocity=57 time=0
EXTRACT: note_on channel=10 note=59 velocity=49 time=0
EXTRACT: note_on channel=10 note=64 velocity=69 time=0
EXTRACT: note_on channel=10 note=76 velocity=65 time=0
EXTRACT: note_on channel=3 note=68 velocity=84 time=0
EXTRACT: note_on channel=7 note=52 velocity=91 time=0
EXTRACT: note_on channel=9 note=36 velocity=126 time=0
EXTRACT: note_on channel=9 note=35 velocity=117 time=0
EXTRACT: note_on channel=9 note=44 velocity=81 time=0
EXTRACT: note_on channel=9 note=82 velocity=55 time=0
EXTRACT: note_on channel=9 note=56 velocity=80 time=0
EXTRACT: note_on channel=9 note=56 velocity=0 time=0.001984125
EXTRACT: note_on channel=9 note=44 velocity=0 time=0
EXTRACT: note_on channel=9 note=36 velocity=0 time=0
EXTRACT: note_on channel=9 note=35 velocity=0 time=0
EXTRACT: note_on channel=9 note=82 velocity=0 time=0
EXTRACT: note_on channel=9 note=27 velocity=0 time=0.06746025000000001
EXTRACT: note_on channel=9 note=36 velocity=0 time=0.013888875000000002
EXTRACT: note_on channel=9 note=32 velocity=76 time=0.045634875000000005
EXTRACT: note_on channel=5 note=59 velocity=81 time=0
EXTRACT: note_on channel=5 note=64 velocity=99 time=0
EXTRACT: note_on channel=5 note=68 velocity=90 time=0
EXTRACT: note_on channel=9 note=82 velocity=63 time=0.011904750000000002
EXTRACT: note_on channel=9 note=82 velocity=0 time=0.001984125
EXTRACT: note_on channel=5 note=64 velocity=0 time=0.045634875000000005
EXTRACT: note_on channel=9 note=32 velocity=0 time=0.00396825
EXTRACT: note_on channel=5 note=59 velocity=0 time=0.001984125
EXTRACT: note_on channel=5 note=68 velocity=0 time=0.013888875000000002
EXTRACT: note_on channel=9 note=42 velocity=0 time=0.025793625000000004
EXTRACT: note_on channel=9 note=27 velocity=58 time=0.00396825
EXTRACT: note_on channel=9 note=44 velocity=66 time=0
EXTRACT: note_on channel=9 note=67 velocity=43 time=0
EXTRACT: note_on channel=1 note=40 velocity=95 time=0
EXTRACT: note_on channel=7 note=56 velocity=74 time=0
EXTRACT: note_on channel=7 note=59 velocity=79 time=0
EXTRACT: note_on channel=9 note=42 velocity=73 time=0
EXTRACT: note_on channel=9 note=82 velocity=59 time=0
EXTRACT: note_on channel=9 note=63 velocity=60 time=0
EXTRACT: note_on channel=9 note=63 velocity=0 time=0.001984125
EXTRACT: note_on channel=9 note=82 velocity=0 time=0
EXTRACT: note_on channel=9 note=42 velocity=0 time=0
EXTRACT: note_on channel=9 note=70 velocity=105 time=0.001984125
EXTRACT: note_on channel=9 note=70 velocity=0 time=0.001984125
EXTRACT: note_on channel=9 note=67 velocity=0 time=0.029761875000000004
EXTRACT: note_on channel=9 note=27 velocity=0 time=0.009920625
EXTRACT: note_on channel=7 note=59 velocity=0 time=0.0079365
EXTRACT: note_on channel=9 note=56 velocity=0 time=0.001984125
EXTRACT: note_on channel=9 note=44 velocity=0 time=0.00396825
EXTRACT: note_on channel=7 note=56 velocity=0 time=0.00396825
EXTRACT: note_on channel=7 note=52 velocity=0 time=0.027777750000000004
EXTRACT: note_on channel=7 note=56 velocity=79 time=0.027777750000000004
EXTRACT: note_on channel=7 note=59 velocity=61 time=0
EXTRACT: note_on channel=9 note=56 velocity=89 time=0
EXTRACT: note_on channel=9 note=56 velocity=0 time=0.001984125
EXTRACT: note_on channel=9 note=67 velocity=40 time=0.0079365
EXTRACT: note_on channel=9 note=44 velocity=69 time=0.009920625
EXTRACT: note_on channel=9 note=42 velocity=66 time=0.001984125
EXTRACT: note_on channel=9 note=82 velocity=45 time=0
EXTRACT: note_on channel=9 note=82 velocity=0 time=0.001984125
EXTRACT: note_on channel=9 note=42 velocity=0 time=0
EXTRACT: note_on channel=9 note=67 velocity=0 time=0.04761900000000001
EXTRACT: note_on channel=7 note=59 velocity=0 time=0.001984125
EXTRACT: note_on channel=7 note=56 velocity=0 time=0.011904750000000002
EXTRACT: note_on channel=9 note=44 velocity=0 time=0.013888875000000002
EXTRACT: note_on channel=1 note=40 velocity=0 time=0.009920625
EXTRACT: note_on channel=3 note=68 velocity=0 time=0.005952375000000001
EXTRACT: note_on channel=9 note=28 velocity=85 time=0.00396825
EXTRACT: note_on channel=9 note=32 velocity=88 time=0
EXTRACT: note_on channel=9 note=36 velocity=101 time=0
EXTRACT: note_on channel=9 note=39 velocity=99 time=0
EXTRACT: note_on channel=9 note=42 velocity=90 time=0
EXTRACT: note_on channel=9 note=56 velocity=70 time=0
EXTRACT: note_on channel=1 note=35 velocity=84 time=0
EXTRACT: note_on channel=3 note=66 velocity=77 time=0
EXTRACT: note_on channel=5 note=59 velocity=92 time=0
EXTRACT: note_on channel=5 note=64 velocity=99 time=0
EXTRACT: note_on channel=5 note=68 velocity=92 time=0
EXTRACT: note_on channel=7 note=52 velocity=95 time=0
EXTRACT: note_on channel=9 note=36 velocity=126 time=0
EXTRACT: note_on channel=9 note=35 velocity=117 time=0
EXTRACT: note_on channel=9 note=39 velocity=121 time=0
EXTRACT: note_on channel=9 note=40 velocity=117 time=0
EXTRACT: note_on channel=9 note=44 velocity=81 time=0
EXTRACT: note_on channel=9 note=82 velocity=60 time=0
EXTRACT: note_on channel=5 note=64 velocity=0 time=0.001984125
EXTRACT: note_on channel=9 note=82 velocity=0 time=0
EXTRACT: note_on channel=9 note=35 velocity=0 time=0
EXTRACT: note_on channel=9 note=39 velocity=0 time=0
EXTRACT: note_on channel=9 note=36 velocity=0 time=0
EXTRACT: note_on channel=9 note=44 velocity=0 time=0
EXTRACT: note_on channel=9 note=40 velocity=0 time=0
EXTRACT: note_on channel=9 note=32 velocity=0 time=0.069444375
EXTRACT: note_on channel=9 note=28 velocity=0 time=0.001984125
EXTRACT: note_on channel=9 note=39 velocity=0 time=0.005952375000000001
EXTRACT: note_on channel=9 note=36 velocity=0 time=0.00396825
EXTRACT: note_on channel=5 note=64 velocity=35 time=0.045634875000000005
EXTRACT: note_on channel=1 note=35 velocity=0 time=0.08928562500000001
EXTRACT: note_on channel=3 note=66 velocity=0 time=0.011904750000000002
EXTRACT: note_on channel=9 note=70 velocity=105 time=0.001984125
EXTRACT: note_on channel=9 note=42 velocity=0 time=0.001984125
EXTRACT: note_on channel=9 note=70 velocity=0 time=0
EXTRACT: note_on channel=9 note=32 velocity=71 time=0.00396825
EXTRACT: note_on channel=9 note=44 velocity=69 time=0
EXTRACT: note_on channel=9 note=68 velocity=50 time=0
EXTRACT: note_on channel=1 note=40 velocity=91 time=0
EXTRACT: note_on channel=3 note=64 velocity=71 time=0
EXTRACT: note_on channel=7 note=56 velocity=75 time=0
EXTRACT: note_on channel=7 note=59 velocity=73 time=0
EXTRACT: note_on channel=9 note=42 velocity=75 time=0
EXTRACT: note_on channel=9 note=69 velocity=87 time=0
EXTRACT: note_on channel=9 note=56 velocity=87 time=0
EXTRACT: note_on channel=9 note=56 velocity=0 time=0.001984125
EXTRACT: note_on channel=9 note=69 velocity=0 time=0
EXTRACT: note_on channel=9 note=42 velocity=0 time=0
EXTRACT: note_on channel=9 note=68 velocity=0 time=0.031746
EXTRACT: note_on channel=5 note=59 velocity=0 time=0.0079365
EXTRACT: note_on channel=9 note=44 velocity=0 time=0.013888875000000002
EXTRACT: note_on channel=9 note=32 velocity=0 time=0
EXTRACT: note_on channel=7 note=56 velocity=0 time=0.009920625
EXTRACT: note_on channel=10 note=64 velocity=0 time=0.009920625
EXTRACT: note_on channel=7 note=59 velocity=0 time=0
EXTRACT: note_on channel=5 note=64 velocity=0 time=0.009920625
EXTRACT: note_on channel=5 note=68 velocity=0 time=0.00396825
EXTRACT: note_on channel=9 note=56 velocity=0 time=0.001984125
EXTRACT: note_on channel=10 note=56 velocity=0 time=0.0079365
EXTRACT: note_on channel=10 note=59 velocity=0 time=0
EXTRACT: note_on channel=7 note=56 velocity=81 time=0.01984125
EXTRACT: note_on channel=7 note=59 velocity=56 time=0
EXTRACT: note_on channel=9 note=62 velocity=64 time=0
EXTRACT: note_on channel=9 note=62 velocity=0 time=0.001984125
EXTRACT: note_on channel=9 note=32 velocity=67 time=0.0079365
EXTRACT: note_on channel=9 note=68 velocity=52 time=0
EXTRACT: note_on channel=7 note=52 velocity=0 time=0.005952375000000001
EXTRACT: note_on channel=9 note=44 velocity=68 time=0.00396825
EXTRACT: note_on channel=9 note=42 velocity=66 time=0.001984125
EXTRACT: note_on channel=9 note=69 velocity=69 time=0
EXTRACT: note_on channel=9 note=69 velocity=0 time=0.001984125
EXTRACT: note_on channel=9 note=42 velocity=0 time=0
EXTRACT: note_on channel=7 note=59 velocity=0 time=0.041666625000000006
EXTRACT: note_on channel=3 note=64 velocity=0 time=0.00396825
EXTRACT: note_on channel=7 note=56 velocity=0 time=0.001984125
EXTRACT: note_on channel=9 note=68 velocity=0 time=0.001984125
EXTRACT: note_on channel=9 note=32 velocity=0 time=0.005952375000000001
EXTRACT: note_on channel=1 note=40 velocity=0 time=0.013888875000000002
EXTRACT: note_on channel=9 note=44 velocity=0 time=0.005952375000000001
EXTRACT: note_on channel=10 note=76 velocity=0 time=0.015873
EXTRACT: note_on channel=9 note=27 velocity=90 time=0.00396825
EXTRACT: note_on channel=9 note=36 velocity=101 time=0
EXTRACT: note_on channel=9 note=42 velocity=93 time=0
EXTRACT: note_on channel=9 note=56 velocity=70 time=0
EXTRACT: note_on channel=1 note=37 velocity=83 time=0
EXTRACT: note_on channel=10 note=56 velocity=60 time=0
EXTRACT: note_on channel=10 note=61 velocity=57 time=0
EXTRACT: note_on channel=10 note=64 velocity=60 time=0
EXTRACT: note_on channel=10 note=80 velocity=70 time=0
EXTRACT: note_on channel=5 note=61 velocity=79 time=0
EXTRACT: note_on channel=5 note=64 velocity=98 time=0
EXTRACT: note_on channel=5 note=68 velocity=92 time=0
EXTRACT: note_on channel=7 note=49 velocity=85 time=0
EXTRACT: note_on channel=9 note=36 velocity=126 time=0
EXTRACT: note_on channel=9 note=35 velocity=117 time=0
EXTRACT: note_on channel=9 note=44 velocity=81 time=0
EXTRACT: note_on channel=9 note=60 velocity=69 time=0
EXTRACT: note_on channel=9 note=60 velocity=0 time=0.001984125
EXTRACT: note_on channel=9 note=36 velocity=0 time=0
EXTRACT: note_on channel=9 note=35 velocity=0 time=0
EXTRACT: note_on channel=9 note=44 velocity=0 time=0
EXTRACT: note_on channel=5 note=64 velocity=0 time=0.063492
EXTRACT: note_on channel=9 note=27 velocity=0 time=0.013888875000000002
EXTRACT: note_on channel=9 note=36 velocity=0 time=0.00396825
EXTRACT: note_on channel=5 note=68 velocity=0 time=0.001984125
EXTRACT: note_on channel=5 note=61 velocity=0 time=0.03373012500000001
EXTRACT: note_on channel=9 note=69 velocity=93 time=0.021825375
EXTRACT: note_on channel=9 note=69 velocity=0 time=0.001984125
EXTRACT: note_on channel=1 note=37 velocity=0 time=0.031746
EXTRACT: note_on channel=9 note=42 velocity=0 time=0.05952375000000001
EXTRACT: note_on channel=9 note=27 velocity=78 time=0.00396825
EXTRACT: note_on channel=9 note=44 velocity=60 time=0
EXTRACT: note_on channel=9 note=67 velocity=40 time=0
EXTRACT: note_on channel=1 note=37 velocity=78 time=0
EXTRACT: note_on channel=3 note=64 velocity=85 time=0
EXTRACT: note_on channel=7 note=56 velocity=81 time=0
EXTRACT: note_on channel=7 note=61 velocity=69 time=0
EXTRACT: note_on channel=9 note=42 velocity=73 time=0
EXTRACT: note_on channel=9 note=62 velocity=59 time=0
EXTRACT: note_on channel=9 note=70 velocity=105 time=0
EXTRACT: note_on channel=9 note=70 velocity=0 time=0.001984125
EXTRACT: note_on channel=9 note=62 velocity=0 time=0
EXTRACT: note_on channel=9 note=42 velocity=0 time=0
EXTRACT: note_on channel=9 note=56 velocity=0 time=0.027777750000000004
EXTRACT: note_on channel=9 note=67 velocity=0 time=0.009920625
EXTRACT: note_on channel=9 note=44 velocity=0 time=0.005952375000000001
EXTRACT: note_on channel=7 note=56 velocity=0 time=0.015873
EXTRACT: note_on channel=7 note=61 velocity=0 time=0.001984125
EXTRACT: note_on channel=9 note=27 velocity=0 time=0.001984125
EXTRACT: note_on channel=3 note=64 velocity=0 time=0.023809500000000004
EXTRACT: note_on channel=7 note=49 velocity=0 time=0.029761875000000004
EXTRACT: note_on channel=7 note=56 velocity=78 time=0
EXTRACT: note_on channel=7 note=61 velocity=61 time=0
EXTRACT: note_on channel=9 note=60 velocity=63 time=0
EXTRACT: note_on channel=9 note=60 velocity=0 time=0.001984125
EXTRACT: note_on channel=9 note=27 velocity=50 time=0.0079365
EXTRACT: note_on channel=9 note=67 velocity=41 time=0
EXTRACT: note_on channel=5 note=61 velocity=84 time=0
EXTRACT: note_on channel=5 note=64 velocity=88 time=0
EXTRACT: note_on channel=5 note=68 velocity=84 time=0
EXTRACT: note_on channel=9 note=44 velocity=63 time=0.009920625
EXTRACT: note_on channel=9 note=42 velocity=66 time=0.001984125
EXTRACT: note_on channel=9 note=69 velocity=61 time=0
EXTRACT: note_on channel=9 note=69 velocity=0 time=0.001984125
EXTRACT: note_on channel=9 note=42 velocity=0 time=0
EXTRACT: note_on channel=7 note=56 velocity=0 time=0.04761900000000001
EXTRACT: note_on channel=5 note=64 velocity=0 time=0.00396825
EXTRACT: note_on channel=7 note=61 velocity=0 time=0.005952375000000001
EXTRACT: note_on channel=9 note=67 velocity=0 time=0.001984125
EXTRACT: note_on channel=9 note=44 velocity=0 time=0.015873
EXTRACT: note_on channel=9 note=27 velocity=0 time=0
EXTRACT: note_on channel=1 note=37 velocity=0 time=0.015873
EXTRACT: note_on channel=9 note=28 velocity=74 time=0.00396825
EXTRACT: note_on channel=9 note=32 velocity=78 time=0
EXTRACT: note_on channel=9 note=36 velocity=99 time=0
EXTRACT: note_on channel=9 note=39 velocity=96 time=0
EXTRACT: note_on channel=9 note=42 velocity=93 time=0
EXTRACT: note_on channel=9 note=56 velocity=67 time=0
EXTRACT: note_on channel=1 note=40 velocity=91 time=0
EXTRACT: note_on channel=3 note=64 velocity=85 time=0
EXTRACT: note_on channel=5 note=68 velocity=0 time=0
EXTRACT: note_on channel=7 note=49 velocity=88 time=0
EXTRACT: note_on channel=9 note=40 velocity=117 time=0
EXTRACT: note_on channel=9 note=36 velocity=126 time=0
EXTRACT: note_on channel=9 note=35 velocity=117 time=0
EXTRACT: note_on channel=9 note=39 velocity=121 time=0
EXTRACT: note_on channel=9 note=44 velocity=81 time=0
EXTRACT: note_on channel=9 note=69 velocity=78 time=0
EXTRACT: note_on channel=9 note=69 velocity=0 time=0.001984125
EXTRACT: note_on channel=9 note=36 velocity=0 time=0
EXTRACT: note_on channel=9 note=35 velocity=0 time=0
EXTRACT: note_on channel=9 note=40 velocity=0 time=0
EXTRACT: note_on channel=9 note=44 velocity=0 time=0
EXTRACT: note_on channel=9 note=39 velocity=0 time=0
EXTRACT: note_on channel=5 note=61 velocity=0 time=0.027777750000000004
EXTRACT: note_on channel=9 note=32 velocity=0 time=0.041666625000000006
EXTRACT: note_on channel=9 note=39 velocity=0 time=0.0079365
EXTRACT: note_on channel=9 note=36 velocity=0 time=0
EXTRACT: note_on channel=9 note=28 velocity=0 time=0.011904750000000002
EXTRACT: note_on channel=9 note=61 velocity=73 time=0.027777750000000004
EXTRACT: note_on channel=9 note=61 velocity=0 time=0.001984125
EXTRACT: note_on channel=1 note=40 velocity=0 time=0.097222125
EXTRACT: note_on channel=9 note=42 velocity=0 time=0.015873
EXTRACT: note_on channel=3 note=64 velocity=0 time=0
EXTRACT: note_on channel=9 note=32 velocity=69 time=0.00396825
EXTRACT: note_on channel=9 note=44 velocity=69 time=0
EXTRACT: note_on channel=9 note=68 velocity=39 time=0
EXTRACT: note_on channel=1 note=44 velocity=91 time=0
EXTRACT: note_on channel=3 note=61 velocity=71 time=0
EXTRACT: note_on channel=5 note=61 velocity=87 time=0
EXTRACT: note_on channel=5 note=64 velocity=87 time=0
EXTRACT: note_on channel=5 note=68 velocity=89 time=0
EXTRACT: note_on channel=7 note=56 velocity=87 time=0
EXTRACT: note_on channel=7 note=61 velocity=74 time=0
EXTRACT: note_on channel=9 note=42 velocity=73 time=0
EXTRACT: note_on channel=9 note=60 velocity=66 time=0
EXTRACT: note_on channel=9 note=60 velocity=0 time=0.001984125
EXTRACT: note_on channel=9 note=42 velocity=0 time=0
EXTRACT: note_on channel=9 note=70 velocity=105 time=0
EXTRACT: note_on channel=9 note=70 velocity=0 time=0.001984125
EXTRACT: note_on channel=9 note=68 velocity=0 time=0.031746
EXTRACT: note_on channel=9 note=56 velocity=0 time=0.015873
EXTRACT: note_on channel=9 note=32 velocity=0 time=0.0079365
EXTRACT: note_on channel=9 note=44 velocity=0 time=0.005952375000000001
EXTRACT: note_on channel=7 note=56 velocity=0 time=0
EXTRACT: note_on channel=5 note=64 velocity=0 time=0.00396825
EXTRACT: note_on channel=7 note=61 velocity=0 time=0.00396825
EXTRACT: note_on channel=10 note=61 velocity=0 time=0.011904750000000002
EXTRACT: note_on channel=10 note=64 velocity=0 time=0.0079365
EXTRACT: note_on channel=5 note=61 velocity=0 time=0.001984125
EXTRACT: note_on channel=5 note=68 velocity=0 time=0.005952375000000001
EXTRACT: note_on channel=10 note=56 velocity=0 time=0.013888875000000002
EXTRACT: note_on channel=7 note=56 velocity=81 time=0.00396825
EXTRACT: note_on channel=7 note=61 velocity=68 time=0
EXTRACT: note_on channel=9 note=62 velocity=69 time=0
EXTRACT: note_on channel=9 note=62 velocity=0 time=0.001984125
EXTRACT: note_on channel=9 note=32 velocity=69 time=0.0079365
EXTRACT: note_on channel=9 note=68 velocity=56 time=0
EXTRACT: note_on channel=7 note=49 velocity=0 time=0.00396825
EXTRACT: note_on channel=9 note=44 velocity=64 time=0.005952375000000001
EXTRACT: note_on channel=9 note=42 velocity=66 time=0.001984125
EXTRACT: note_on channel=9 note=42 velocity=0 time=0.001984125
EXTRACT: note_on channel=9 note=68 velocity=0 time=0.04761900000000001
EXTRACT: note_on channel=7 note=56 velocity=0 time=0
EXTRACT: note_on channel=9 note=32 velocity=0 time=0.011904750000000002
EXTRACT: note_on channel=7 note=61 velocity=0 time=0.0079365
EXTRACT: note_on channel=1 note=44 velocity=0 time=0.00396825
EXTRACT: note_on channel=9 note=44 velocity=0 time=0.00396825
EXTRACT: note_on channel=10 note=80 velocity=0 time=0.015873
EXTRACT: note_on channel=3 note=61 velocity=0 time=0
EXTRACT: note_on channel=9 note=27 velocity=88 time=0.00396825
EXTRACT: note_on channel=9 note=36 velocity=103 time=0
EXTRACT: note_on channel=9 note=42 velocity=92 time=0
EXTRACT: note_on channel=9 note=56 velocity=69 time=0
EXTRACT: note_on channel=10 note=57 velocity=58 time=0
EXTRACT: note_on channel=10 note=61 velocity=59 time=0
EXTRACT: note_on channel=10 note=66 velocity=60 time=0
EXTRACT: note_on channel=10 note=78 velocity=71 time=0
EXTRACT: note_on channel=3 note=66 velocity=84 time=0
EXTRACT: note_on channel=7 note=54 velocity=83 time=0
EXTRACT: note_on channel=9 note=36 velocity=126 time=0
EXTRACT: note_on channel=9 note=35 velocity=117 time=0
EXTRACT: note_on channel=9 note=44 velocity=81 time=0
EXTRACT: note_on channel=9 note=82 velocity=69 time=0
EXTRACT: note_on channel=9 note=56 velocity=87 time=0
EXTRACT: note_on channel=9 note=60 velocity=63 time=0
EXTRACT: note_on channel=9 note=60 velocity=0 time=0.001984125
EXTRACT: note_on channel=9 note=35 velocity=0 time=0
EXTRACT: note_on channel=9 note=44 velocity=0 time=0
EXTRACT: note_on channel=9 note=36 velocity=0 time=0
EXTRACT: note_on channel=9 note=56 velocity=0 time=0
EXTRACT: note_on channel=9 note=82 velocity=0 time=0
EXTRACT: note_on channel=9 note=27 velocity=0 time=0.069444375
EXTRACT: note_on channel=9 note=36 velocity=0 time=0.009920625
EXTRACT: note_on channel=9 note=32 velocity=77 time=0.04761900000000001
EXTRACT: note_on channel=5 note=61 velocity=89 time=0
EXTRACT: note_on channel=5 note=66 velocity=90 time=0
EXTRACT: note_on channel=5 note=69 velocity=94 time=0
EXTRACT: note_on channel=9 note=82 velocity=43 time=0.011904750000000002
EXTRACT: note_on channel=9 note=82 velocity=0 time=0.001984125
EXTRACT: note_on channel=9 note=32 velocity=0 time=0.041666625000000006
EXTRACT: note_on channel=5 note=69 velocity=0 time=0.015873
EXTRACT: note_on channel=5 note=66 velocity=0 time=0.001984125
EXTRACT: note_on channel=5 note=61 velocity=0 time=0.017857125
EXTRACT: note_on channel=9 note=70 velocity=105 time=0.009920625
EXTRACT: note_on channel=9 note=70 velocity=0 time=0.001984125
EXTRACT: note_on channel=9 note=42 velocity=0 time=0.001984125
EXTRACT: note_on channel=9 note=27 velocity=77 time=0.00396825
EXTRACT: note_on channel=9 note=44 velocity=70 time=0
EXTRACT: note_on channel=1 note=30 velocity=83 time=0
EXTRACT: note_on channel=7 note=57 velocity=80 time=0
EXTRACT: note_on channel=7 note=61 velocity=71 time=0
EXTRACT: note_on channel=9 note=42 velocity=73 time=0
EXTRACT: note_on channel=9 note=82 velocity=48 time=0
EXTRACT: note_on channel=9 note=82 velocity=0 time=0.001984125
EXTRACT: note_on channel=9 note=42 velocity=0 time=0
EXTRACT: note_on channel=9 note=56 velocity=0 time=0.05158725000000001
EXTRACT: note_on channel=9 note=44 velocity=0 time=0.001984125
EXTRACT: note_on channel=7 note=57 velocity=0 time=0
EXTRACT: note_on channel=9 note=27 velocity=0 time=0.0079365
EXTRACT: note_on channel=7 note=61 velocity=0 time=0
EXTRACT: note_on channel=7 note=57 velocity=77 time=0.05555550000000001
EXTRACT: note_on channel=7 note=61 velocity=64 time=0
EXTRACT: note_on channel=9 note=56 velocity=87 time=0
EXTRACT: note_on channel=9 note=56 velocity=0 time=0.001984125
EXTRACT: note_on channel=9 note=67 velocity=49 time=0.0079365
EXTRACT: note_on channel=7 note=54 velocity=0 time=0
EXTRACT: note_on channel=9 note=44 velocity=72 time=0.009920625
EXTRACT: note_on channel=9 note=42 velocity=66 time=0.001984125
EXTRACT: note_on channel=9 note=82 velocity=40 time=0
EXTRACT: note_on channel=9 note=82 velocity=0 time=0.001984125
EXTRACT: note_on channel=9 note=42 velocity=0 time=0
EXTRACT: note_on channel=7 note=57 velocity=0 time=0.0396825
EXTRACT: note_on channel=9 note=67 velocity=0 time=0.017857125
EXTRACT: note_on channel=9 note=44 velocity=0 time=0.013888875000000002
EXTRACT: note_on channel=7 note=61 velocity=0 time=0.00396825
EXTRACT: note_on channel=1 note=30 velocity=0 time=0.015873
EXTRACT: note_on channel=3 note=66 velocity=0 time=0
EXTRACT: note_on channel=9 note=28 velocity=79 time=0.00396825
EXTRACT: note_on channel=9 note=32 velocity=83 time=0
EXTRACT: note_on channel=9 note=36 velocity=95 time=0
EXTRACT: note_on channel=9 note=39 velocity=99 time=0
EXTRACT: note_on channel=9 note=42 velocity=94 time=0
EXTRACT: note_on channel=9 note=56 velocity=70 time=0
EXTRACT: note_on channel=1 note=37 velocity=87 time=0
EXTRACT: note_on channel=3 note=61 velocity=74 time=0
EXTRACT: note_on channel=5 note=61 velocity=90 time=0
EXTRACT: note_on channel=5 note=66 velocity=85 time=0
EXTRACT: note_on channel=5 note=69 velocity=101 time=0
EXTRACT: note_on channel=7 note=54 velocity=88 time=0
EXTRACT: note_on channel=9 note=39 velocity=121 time=0
EXTRACT: note_on channel=9 note=40 velocity=117 time=0
EXTRACT: note_on channel=9 note=36 velocity=126 time=0
EXTRACT: note_on channel=9 note=35 velocity=117 time=0
EXTRACT: note_on channel=9 note=44 velocity=81 time=0
EXTRACT: note_on channel=9 note=82 velocity=69 time=0
EXTRACT: note_on channel=9 note=82 velocity=0 time=0.001984125
EXTRACT: note_on channel=9 note=40 velocity=0 time=0
EXTRACT: note_on channel=9 note=36 velocity=0 time=0
EXTRACT: note_on channel=9 note=39 velocity=0 time=0
EXTRACT: note_on channel=9 note=44 velocity=0 time=0
EXTRACT: note_on channel=9 note=35 velocity=0 time=0
EXTRACT: note_on channel=9 note=32 velocity=0 time=0.061507875000000004
EXTRACT: note_on channel=9 note=28 velocity=0 time=0.005952375000000001
EXTRACT: note_on channel=9 note=36 velocity=0 time=0.009920625
EXTRACT: note_on channel=9 note=39 velocity=0 time=0.013888875000000002
EXTRACT: note_on channel=9 note=70 velocity=105 time=0.13888875
EXTRACT: note_on channel=9 note=42 velocity=0 time=0.001984125
EXTRACT: note_on channel=1 note=37 velocity=0 time=0
EXTRACT: note_on channel=9 note=70 velocity=0 time=0
EXTRACT: note_on channel=9 note=32 velocity=79 time=0.00396825
EXTRACT: note_on channel=9 note=44 velocity=70 time=0
EXTRACT: note_on channel=9 note=68 velocity=47 time=0
EXTRACT: note_on channel=1 note=30 velocity=81 time=0
EXTRACT: note_on channel=7 note=57 velocity=78 time=0
EXTRACT: note_on channel=7 note=61 velocity=67 time=0
EXTRACT: note_on channel=9 note=42 velocity=73 time=0
EXTRACT: note_on channel=9 note=69 velocity=78 time=0
EXTRACT: note_on channel=9 note=56 velocity=87 time=0
EXTRACT: note_on channel=9 note=56 velocity=0 time=0.001984125
EXTRACT: note_on channel=9 note=69 velocity=0 time=0
EXTRACT: note_on channel=9 note=42 velocity=0 time=0
EXTRACT: note_on channel=9 note=68 velocity=0 time=0.03373012500000001
EXTRACT: note_on channel=5 note=69 velocity=0 time=0.0079365
EXTRACT: note_on channel=5 note=66 velocity=0 time=0.005952375000000001
EXTRACT: note_on channel=5 note=61 velocity=0 time=0.005952375000000001
EXTRACT: note_on channel=9 note=44 velocity=0 time=0.00396825
EXTRACT: note_on channel=9 note=32 velocity=0 time=0
EXTRACT: note_on channel=7 note=57 velocity=0 time=0.00396825
EXTRACT: note_on channel=7 note=61 velocity=0 time=0.001984125
EXTRACT: note_on channel=9 note=56 velocity=0 time=0.015873
EXTRACT: note_on channel=10 note=61 velocity=0 time=0.0079365
EXTRACT: note_on channel=10 note=66 velocity=0 time=0.00396825
EXTRACT: note_on channel=7 note=54 velocity=0 time=0.025793625000000004
EXTRACT: note_on channel=7 note=57 velocity=80 time=0
EXTRACT: note_on channel=7 note=61 velocity=62 time=0
EXTRACT: note_on channel=9 note=32 velocity=71 time=0.009920625
EXTRACT: note_on channel=9 note=68 velocity=56 time=0
EXTRACT: note_on channel=10 note=57 velocity=0 time=0.00396825
EXTRACT: note_on channel=9 note=44 velocity=68 time=0.005952375000000001
EXTRACT: note_on channel=9 note=42 velocity=66 time=0.001984125
EXTRACT: note_on channel=9 note=69 velocity=73 time=0
EXTRACT: note_on channel=9 note=69 velocity=0 time=0.001984125
EXTRACT: note_on channel=9 note=42 velocity=0 time=0
EXTRACT: note_on channel=7 note=57 velocity=0 time=0.029761875000000004
EXTRACT: note_on channel=3 note=61 velocity=0 time=0.001984125
EXTRACT: note_on channel=9 note=32 velocity=0 time=0.017857125
EXTRACT: note_on channel=9 note=68 velocity=0 time=0.011904750000000002
EXTRACT: note_on channel=7 note=61 velocity=0 time=0
EXTRACT: note_on channel=9 note=44 velocity=0 time=0.0079365
EXTRACT: note_on channel=1 note=30 velocity=0 time=0.005952375000000001
EXTRACT: note_on channel=10 note=78 velocity=0 time=0.005952375000000001
EXTRACT: note_on channel=9 note=27 velocity=86 time=0.013888875000000002
EXTRACT: note_on channel=9 note=36 velocity=99 time=0
EXTRACT: note_on channel=9 note=42 velocity=92 time=0
EXTRACT: note_on channel=9 note=56 velocity=69 time=0
EXTRACT: note_on channel=1 note=35 velocity=81 time=0
EXTRACT: note_on channel=10 note=59 velocity=68 time=0
EXTRACT: note_on channel=10 note=64 velocity=61 time=0
EXTRACT: note_on channel=10 note=66 velocity=62 time=0
EXTRACT: note_on channel=10 note=71 velocity=70 time=0
EXTRACT: note_on channel=3 note=66 velocity=84 time=0
EXTRACT: note_on channel=5 note=59 velocity=89 time=0
EXTRACT: note_on channel=5 note=64 velocity=87 time=0
EXTRACT: note_on channel=5 note=66 velocity=89 time=0
EXTRACT: note_on channel=7 note=47 velocity=80 time=0
EXTRACT: note_on channel=9 note=36 velocity=126 time=0
EXTRACT: note_on channel=9 note=35 velocity=117 time=0
EXTRACT: note_on channel=9 note=35 velocity=0 time=0.001984125
EXTRACT: note_on channel=9 note=36 velocity=0 time=0
EXTRACT: note_on channel=5 note=64 velocity=0 time=0.061507875000000004
EXTRACT: note_on channel=9 note=27 velocity=0 time=0.015873
EXTRACT: note_on channel=9 note=36 velocity=0 time=0.00396825
EXTRACT: note_on channel=5 note=66 velocity=0 time=0.001984125
EXTRACT: note_on channel=3 note=66 velocity=0 time=0.0079365
EXTRACT: note_on channel=5 note=59 velocity=0 time=0.04761900000000001
EXTRACT: note_on channel=9 note=69 velocity=85 time=0
EXTRACT: note_on channel=9 note=69 velocity=0 time=0.001984125
EXTRACT: note_on channel=9 note=42 velocity=0 time=0.09126975000000001
EXTRACT: note_on channel=9 note=70 velocity=105 time=0
EXTRACT: note_on channel=9 note=27 velocity=85 time=0.00396825
EXTRACT: note_on channel=9 note=44 velocity=64 time=0
EXTRACT: note_on channel=9 note=67 velocity=36 time=0
EXTRACT: note_on channel=3 note=66 velocity=83 time=0
EXTRACT: note_on channel=7 note=52 velocity=89 time=0
EXTRACT: note_on channel=7 note=59 velocity=73 time=0
EXTRACT: note_on channel=9 note=70 velocity=0 time=0
EXTRACT: note_on channel=9 note=42 velocity=73 time=0
EXTRACT: note_on channel=9 note=62 velocity=62 time=0
EXTRACT: note_on channel=9 note=62 velocity=0 time=0.001984125
EXTRACT: note_on channel=9 note=42 velocity=0 time=0
EXTRACT: note_on channel=7 note=59 velocity=0 time=0.027777750000000004
EXTRACT: note_on channel=7 note=52 velocity=0 time=0
EXTRACT: note_on channel=9 note=67 velocity=0 time=0.011904750000000002
EXTRACT: note_on channel=9 note=44 velocity=0 time=0.001984125
EXTRACT: note_on channel=9 note=56 velocity=0 time=0.01984125
EXTRACT: note_on channel=9 note=27 velocity=0 time=0.011904750000000002
EXTRACT: note_on channel=3 note=66 velocity=0 time=0.009920625
EXTRACT: note_on channel=7 note=47 velocity=0 time=0.01984125
EXTRACT: note_on channel=9 note=65 velocity=89 time=0
EXTRACT: note_on channel=9 note=65 velocity=0 time=0.00396825
EXTRACT: note_on channel=7 note=52 velocity=99 time=0.009920625
EXTRACT: note_on channel=7 note=59 velocity=78 time=0
EXTRACT: note_on channel=9 note=60 velocity=58 time=0
EXTRACT: note_on channel=9 note=60 velocity=0 time=0.001984125
EXTRACT: note_on channel=9 note=67 velocity=51 time=0.0079365
EXTRACT: note_on channel=5 note=59 velocity=86 time=0
EXTRACT: note_on channel=5 note=64 velocity=94 time=0
EXTRACT: note_on channel=5 note=66 velocity=88 time=0
EXTRACT: note_on channel=9 note=44 velocity=75 time=0.009920625
EXTRACT: note_on channel=9 note=42 velocity=66 time=0.001984125
EXTRACT: note_on channel=9 note=69 velocity=71 time=0
EXTRACT: note_on channel=9 note=69 velocity=0 time=0.001984125
EXTRACT: note_on channel=9 note=42 velocity=0 time=0
EXTRACT: note_on channel=7 note=52 velocity=0 time=0.029761875000000004
EXTRACT: note_on channel=5 note=64 velocity=0 time=0.017857125
EXTRACT: note_on channel=9 note=67 velocity=0 time=0.011904750000000002
EXTRACT: note_on channel=7 note=59 velocity=0 time=0.001984125
EXTRACT: note_on channel=5 note=66 velocity=0 time=0.00396825
EXTRACT: note_on channel=9 note=44 velocity=0 time=0.005952375000000001
EXTRACT: note_on channel=9 note=28 velocity=82 time=0.023809500000000004
EXTRACT: note_on channel=9 note=32 velocity=83 time=0
EXTRACT: note_on channel=9 note=36 velocity=101 time=0
EXTRACT: note_on channel=9 note=39 velocity=104 time=0
EXTRACT: note_on channel=9 note=42 velocity=94 time=0
EXTRACT: note_on channel=9 note=56 velocity=73 time=0
EXTRACT: note_on channel=3 note=66 velocity=83 time=0
EXTRACT: note_on channel=7 note=47 velocity=83 time=0
EXTRACT: note_on channel=9 note=39 velocity=121 time=0
EXTRACT: note_on channel=9 note=36 velocity=126 time=0
EXTRACT: note_on channel=9 note=35 velocity=117 time=0
EXTRACT: note_on channel=9 note=40 velocity=117 time=0
EXTRACT: note_on channel=9 note=44 velocity=81 time=0
EXTRACT: note_on channel=9 note=62 velocity=70 time=0
EXTRACT: note_on channel=9 note=62 velocity=0 time=0.001984125
EXTRACT: note_on channel=9 note=36 velocity=0 time=0
EXTRACT: note_on channel=9 note=35 velocity=0 time=0
EXTRACT: note_on channel=9 note=39 velocity=0 time=0
EXTRACT: note_on channel=9 note=44 velocity=0 time=0
EXTRACT: note_on channel=9 note=40 velocity=0 time=0
EXTRACT: note_on channel=9 note=65 velocity=101 time=0.0079365
EXTRACT: note_on channel=9 note=65 velocity=0 time=0.001984125
EXTRACT: note_on channel=5 note=59 velocity=0 time=0.027777750000000004
EXTRACT: note_on channel=9 note=32 velocity=0 time=0.031746
EXTRACT: note_on channel=9 note=28 velocity=0 time=0.00396825
EXTRACT: note_on channel=9 note=36 velocity=0 time=0.00396825
EXTRACT: note_on channel=9 note=60 velocity=65 time=0.0396825
EXTRACT: note_on channel=9 note=60 velocity=0 time=0.001984125
EXTRACT: note_on channel=9 note=39 velocity=0 time=0.031746
EXTRACT: note_on channel=1 note=35 velocity=0 time=0.0396825
EXTRACT: note_on channel=9 note=42 velocity=0 time=0.041666625000000006
EXTRACT: note_on channel=3 note=66 velocity=0 time=0
EXTRACT: note_on channel=9 note=32 velocity=78 time=0.00396825
EXTRACT: note_on channel=9 note=44 velocity=77 time=0
EXTRACT: note_on channel=9 note=68 velocity=48 time=0
EXTRACT: note_on channel=1 note=35 velocity=92 time=0
EXTRACT: note_on channel=3 note=64 velocity=73 time=0
EXTRACT: note_on channel=5 note=59 velocity=91 time=0
EXTRACT: note_on channel=5 note=64 velocity=91 time=0
EXTRACT: note_on channel=5 note=66 velocity=89 time=0
EXTRACT: note_on channel=7 note=52 velocity=99 time=0
EXTRACT: note_on channel=7 note=59 velocity=83 time=0
EXTRACT: note_on channel=9 note=42 velocity=73 time=0
EXTRACT: note_on channel=9 note=61 velocity=80 time=0
EXTRACT: note_on channel=9 note=61 velocity=0 time=0.001984125
EXTRACT: note_on channel=9 note=42 velocity=0 time=0
EXTRACT: note_on channel=9 note=70 velocity=105 time=0.001984125
EXTRACT: note_on channel=9 note=70 velocity=0 time=0.001984125
EXTRACT: note_on channel=9 note=68 velocity=0 time=0.027777750000000004
EXTRACT: note_on channel=9 note=56 velocity=0 time=0.009920625
EXTRACT: note_on channel=9 note=44 velocity=0 time=0.009920625
EXTRACT: note_on channel=7 note=52 velocity=0 time=0
EXTRACT: note_on channel=5 note=64 velocity=0 time=0.001984125
EXTRACT: note_on channel=7 note=59 velocity=0 time=0.0079365
EXTRACT: note_on channel=9 note=32 velocity=0 time=0.001984125
EXTRACT: note_on channel=5 note=66 velocity=0 time=0.013888875000000002
EXTRACT: note_on channel=5 note=59 velocity=0 time=0.011904750000000002
EXTRACT: note_on channel=10 note=64 velocity=0 time=0.0079365
EXTRACT: note_on channel=9 note=66 velocity=80 time=0
EXTRACT: note_on channel=9 note=66 velocity=0 time=0.001984125
EXTRACT: note_on channel=10 note=66 velocity=0 time=0.009920625
EXTRACT: note_on channel=7 note=52 velocity=89 time=0.0079365
EXTRACT: note_on channel=7 note=59 velocity=74 time=0
EXTRACT: note_on channel=9 note=60 velocity=70 time=0
EXTRACT: note_on channel=3 note=64 velocity=0 time=0.001984125
EXTRACT: note_on channel=9 note=60 velocity=0 time=0
EXTRACT: note_on channel=9 note=32 velocity=55 time=0.0079365
EXTRACT: note_on channel=9 note=68 velocity=57 time=0
EXTRACT: note_on channel=9 note=44 velocity=74 time=0.009920625
EXTRACT: note_on channel=9 note=42 velocity=66 time=0.001984125
EXTRACT: note_on channel=9 note=82 velocity=50 time=0
EXTRACT: note_on channel=9 note=82 velocity=0 time=0.001984125
EXTRACT: note_on channel=9 note=42 velocity=0 time=0
EXTRACT: note_on channel=10 note=59 velocity=0 time=0.005952375000000001
EXTRACT: note_on channel=7 note=47 velocity=0 time=0.00396825
EXTRACT: note_on channel=7 note=52 velocity=0 time=0.021825375
EXTRACT: note_on channel=9 note=32 velocity=0 time=0.0079365
EXTRACT: note_on channel=9 note=68 velocity=0 time=0.015873
EXTRACT: note_on channel=7 note=59 velocity=0 time=0.005952375000000001
EXTRACT: note_on channel=9 note=44 velocity=0 time=0.005952375000000001
EXTRACT: note_on channel=9 note=27 velocity=87 time=0.027777750000000004
EXTRACT: note_on channel=9 note=36 velocity=103 time=0
EXTRACT: note_on channel=9 note=42 velocity=99 time=0
EXTRACT: note_on channel=9 note=56 velocity=72 time=0
EXTRACT: note_on channel=10 note=59 velocity=63 time=0
EXTRACT: note_on channel=10 note=63 velocity=65 time=0
EXTRACT: note_on channel=10 note=66 velocity=59 time=0
EXTRACT: note_on channel=3 note=68 velocity=85 time=0
EXTRACT: note_on channel=7 note=47 velocity=84 time=0
EXTRACT: note_on channel=9 note=36 velocity=126 time=0
EXTRACT: note_on channel=9 note=35 velocity=117 time=0
EXTRACT: note_on channel=9 note=44 velocity=81 time=0
EXTRACT: note_on channel=9 note=82 velocity=57 time=0
EXTRACT: note_on channel=9 note=56 velocity=83 time=0
EXTRACT: note_on channel=9 note=56 velocity=0 time=0.001984125
EXTRACT: note_on channel=9 note=44 velocity=0 time=0
EXTRACT: note_on channel=9 note=36 velocity=0 time=0
EXTRACT: note_on channel=9 note=35 velocity=0 time=0
EXTRACT: note_on channel=9 note=82 velocity=0 time=0
EXTRACT: note_on channel=9 note=66 velocity=87 time=0.001984125
EXTRACT: note_on channel=9 note=66 velocity=0 time=0.001984125
EXTRACT: note_on channel=9 note=36 velocity=0 time=0.07341262500000001
EXTRACT: note_on channel=9 note=27 velocity=0 time=0.005952375000000001
EXTRACT: note_on channel=9 note=63 velocity=60 time=0.03373012500000001
EXTRACT: note_on channel=9 note=63 velocity=0 time=0.001984125
EXTRACT: note_on channel=9 note=66 velocity=75 time=0.001984125
EXTRACT: note_on channel=9 note=66 velocity=0 time=0.001984125
EXTRACT: note_on channel=5 note=59 velocity=85 time=0.00396825
EXTRACT: note_on channel=5 note=63 velocity=91 time=0
EXTRACT: note_on channel=5 note=66 velocity=90 time=0
EXTRACT: note_on channel=9 note=82 velocity=38 time=0.011904750000000002
EXTRACT: note_on channel=9 note=82 velocity=0 time=0.001984125
EXTRACT: note_on channel=1 note=35 velocity=0 time=0.01984125
EXTRACT: note_on channel=5 note=63 velocity=0 time=0.037698375000000006
EXTRACT: note_on channel=5 note=66 velocity=0 time=0.001984125
EXTRACT: note_on channel=5 note=59 velocity=0 time=0.027777750000000004
EXTRACT: note_on channel=9 note=42 velocity=0 time=0.00396825
EXTRACT: note_on channel=9 note=27 velocity=86 time=0.00396825
EXTRACT: note_on channel=9 note=44 velocity=78 time=0
EXTRACT: note_on channel=9 note=66 velocity=75 time=0
EXTRACT: note_on channel=9 note=67 velocity=53 time=0
EXTRACT: note_on channel=1 note=35 velocity=82 time=0
EXTRACT: note_on channel=7 note=54 velocity=83 time=0
EXTRACT: note_on channel=7 note=59 velocity=79 time=0
EXTRACT: note_on channel=9 note=42 velocity=73 time=0
EXTRACT: note_on channel=9 note=82 velocity=60 time=0
EXTRACT: note_on channel=9 note=82 velocity=0 time=0.001984125
EXTRACT: note_on channel=9 note=42 velocity=0 time=0
EXTRACT: note_on channel=9 note=70 velocity=105 time=0.001984125
EXTRACT: note_on channel=9 note=70 velocity=0 time=0.001984125
EXTRACT: note_on channel=9 note=66 velocity=100 time=0
EXTRACT: note_on channel=9 note=66 velocity=0 time=0.00396825
EXTRACT: note_on channel=9 note=67 velocity=0 time=0.029761875000000004
EXTRACT: note_on channel=9 note=44 velocity=0 time=0.013888875000000002
EXTRACT: note_on channel=7 note=59 velocity=0 time=0.011904750000000002
EXTRACT: note_on channel=7 note=54 velocity=0 time=0.0079365
EXTRACT: note_on channel=9 note=66 velocity=0 time=0.001984125
EXTRACT: note_on channel=9 note=56 velocity=0 time=0.005952375000000001
EXTRACT: note_on channel=9 note=27 velocity=0 time=0.001984125
EXTRACT: note_on channel=9 note=65 velocity=99 time=0.027777750000000004
EXTRACT: note_on channel=7 note=47 velocity=0 time=0.001984125
EXTRACT: note_on channel=9 note=65 velocity=0 time=0
EXTRACT: note_on channel=7 note=54 velocity=83 time=0.005952375000000001
EXTRACT: note_on channel=7 note=59 velocity=82 time=0
EXTRACT: note_on channel=9 note=56 velocity=80 time=0
EXTRACT: note_on channel=9 note=56 velocity=0 time=0.001984125
EXTRACT: note_on channel=9 note=67 velocity=45 time=0.0079365
EXTRACT: note_on channel=9 note=44 velocity=75 time=0.009920625
EXTRACT: note_on channel=9 note=42 velocity=66 time=0.001984125
EXTRACT: note_on channel=9 note=82 velocity=48 time=0
EXTRACT: note_on channel=9 note=82 velocity=0 time=0.001984125
EXTRACT: note_on channel=9 note=42 velocity=0 time=0
EXTRACT: note_on channel=9 note=44 velocity=0 time=0.061507875000000004
EXTRACT: note_on channel=9 note=67 velocity=0 time=0
EXTRACT: note_on channel=7 note=54 velocity=0 time=0.013888875000000002
EXTRACT: note_on channel=7 note=59 velocity=0 time=0.005952375000000001
EXTRACT: note_on channel=1 note=35 velocity=0 time=0.009920625
EXTRACT: note_on channel=3 note=68 velocity=0 time=0
EXTRACT: note_on channel=9 note=65 velocity=115 time=0
EXTRACT: note_on channel=9 note=28 velocity=85 time=0.00396825
EXTRACT: note_on channel=9 note=32 velocity=87 time=0
EXTRACT: note_on channel=9 note=36 velocity=103 time=0
EXTRACT: note_on channel=9 note=39 velocity=104 time=0
EXTRACT: note_on channel=9 note=42 velocity=99 time=0
EXTRACT: note_on channel=9 note=56 velocity=75 time=0
EXTRACT: note_on channel=9 note=65 velocity=73 time=0
EXTRACT: note_on channel=1 note=30 velocity=83 time=0
EXTRACT: note_on channel=3 note=66 velocity=84 time=0
EXTRACT: note_on channel=5 note=59 velocity=89 time=0
EXTRACT: note_on channel=5 note=63 velocity=94 time=0
EXTRACT: note_on channel=5 note=66 velocity=91 time=0
EXTRACT: note_on channel=7 note=47 velocity=81 time=0
EXTRACT: note_on channel=9 note=65 velocity=0 time=0
EXTRACT: note_on channel=9 note=36 velocity=126 time=0
EXTRACT: note_on channel=9 note=35 velocity=117 time=0
EXTRACT: note_on channel=9 note=39 velocity=121 time=0
EXTRACT: note_on channel=9 note=40 velocity=117 time=0
EXTRACT: note_on channel=9 note=44 velocity=81 time=0
EXTRACT: note_on channel=9 note=82 velocity=61 time=0
EXTRACT: note_on channel=9 note=82 velocity=0 time=0.001984125
EXTRACT: note_on channel=9 note=35 velocity=0 time=0
EXTRACT: note_on channel=9 note=39 velocity=0 time=0
EXTRACT: note_on channel=9 note=36 velocity=0 time=0
EXTRACT: note_on channel=9 note=44 velocity=0 time=0
EXTRACT: note_on channel=9 note=40 velocity=0 time=0
EXTRACT: note_on channel=9 note=65 velocity=0 time=0.03373012500000001
EXTRACT: note_on channel=9 note=32 velocity=0 time=0.029761875000000004
EXTRACT: note_on channel=9 note=28 velocity=0 time=0.0079365
EXTRACT: note_on channel=9 note=36 velocity=0 time=0.001984125
EXTRACT: note_on channel=9 note=39 velocity=0 time=0.0079365
EXTRACT: note_on channel=10 note=71 velocity=0 time=0.105158625
EXTRACT: note_on channel=9 note=42 velocity=0 time=0.025793625000000004
EXTRACT: note_on channel=9 note=70 velocity=105 time=0.017857125
EXTRACT: note_on channel=1 note=30 velocity=0 time=0.001984125
EXTRACT: note_on channel=9 note=70 velocity=0 time=0
EXTRACT: note_on channel=9 note=32 velocity=74 time=0.00396825
EXTRACT: note_on channel=9 note=44 velocity=81 time=0
EXTRACT: note_on channel=9 note=65 velocity=68 time=0
EXTRACT: note_on channel=9 note=68 velocity=53 time=0
EXTRACT: note_on channel=1 note=35 velocity=81 time=0
EXTRACT: note_on channel=7 note=54 velocity=79 time=0
EXTRACT: note_on channel=7 note=59 velocity=76 time=0
EXTRACT: note_on channel=9 note=42 velocity=75 time=0
EXTRACT: note_on channel=9 note=69 velocity=87 time=0
EXTRACT: note_on channel=9 note=56 velocity=80 time=0
EXTRACT: note_on channel=9 note=56 velocity=0 time=0.001984125
EXTRACT: note_on channel=9 note=69 velocity=0 time=0
EXTRACT: note_on channel=9 note=42 velocity=0 time=0
EXTRACT: note_on channel=9 note=65 velocity=0 time=0.027777750000000004
EXTRACT: note_on channel=9 note=68 velocity=0 time=0.01984125
EXTRACT: note_on channel=9 note=44 velocity=0 time=0.005952375000000001
EXTRACT: note_on channel=9 note=32 velocity=0 time=0.00396825
EXTRACT: note_on channel=7 note=59 velocity=0 time=0.00396825
EXTRACT: note_on channel=7 note=54 velocity=0 time=0.001984125
EXTRACT: note_on channel=10 note=63 velocity=0 time=0.015873
EXTRACT: note_on channel=5 note=63 velocity=0 time=0
EXTRACT: note_on channel=5 note=66 velocity=0 time=0.009920625
EXTRACT: note_on channel=9 note=56 velocity=0 time=0.0079365
EXTRACT: note_on channel=5 note=59 velocity=0 time=0.015873
EXTRACT: note_on channel=7 note=54 velocity=84 time=0.00396825
EXTRACT: note_on channel=7 note=59 velocity=62 time=0
EXTRACT: note_on channel=9 note=32 velocity=69 time=0.009920625
EXTRACT: note_on channel=9 note=65 velocity=70 time=0
EXTRACT: note_on channel=9 note=68 velocity=52 time=0
EXTRACT: note_on channel=10 note=66 velocity=0 time=0.001984125
EXTRACT: note_on channel=10 note=59 velocity=0 time=0.001984125
EXTRACT: note_on channel=9 note=44 velocity=62 time=0.005952375000000001
EXTRACT: note_on channel=9 note=42 velocity=66 time=0.001984125
EXTRACT: note_on channel=9 note=69 velocity=69 time=0
EXTRACT: note_on channel=9 note=69 velocity=0 time=0.001984125
EXTRACT: note_on channel=9 note=42 velocity=0 time=0
EXTRACT: note_on channel=1 note=35 velocity=0 time=0.001984125
EXTRACT: note_on channel=7 note=47 velocity=0 time=0.029761875000000004
EXTRACT: note_on channel=9 note=65 velocity=0 time=0.005952375000000001
EXTRACT: note_on channel=9 note=68 velocity=0 time=0.011904750000000002
EXTRACT: note_on channel=9 note=32 velocity=0 time=0.001984125
EXTRACT: note_on channel=7 note=59 velocity=0 time=0.00396825
EXTRACT: note_on channel=7 note=54 velocity=0 time=0
EXTRACT: note_on channel=9 note=44 velocity=0 time=0.005952375000000001
EXTRACT: note_on channel=3 note=66 velocity=0 time=0.029761875000000004
EXTRACT: note_on channel=9 note=27 velocity=94 time=0.00396825
EXTRACT: note_on channel=9 note=36 velocity=109 time=0
EXTRACT: note_on channel=9 note=42 velocity=107 time=0
EXTRACT: note_on channel=9 note=44 velocity=111 time=0
EXTRACT: note_on channel=9 note=49 velocity=92 time=0
EXTRACT: note_on channel=9 note=56 velocity=86 time=0
EXTRACT: note_on channel=9 note=57 velocity=78 time=0
EXTRACT: note_on channel=1 note=33 velocity=83 time=0
EXTRACT: note_on channel=10 note=52 velocity=76 time=0
EXTRACT: note_on channel=10 note=57 velocity=50 time=0
EXTRACT: note_on channel=10 note=61 velocity=54 time=0
EXTRACT: note_on channel=10 note=69 velocity=68 time=0
EXTRACT: note_on channel=10 note=73 velocity=55 time=0
EXTRACT: note_on channel=4 note=64 velocity=113 time=0
EXTRACT: note_on channel=5 note=61 velocity=77 time=0
EXTRACT: note_on channel=5 note=64 velocity=88 time=0
EXTRACT: note_on channel=5 note=68 velocity=77 time=0
EXTRACT: note_on channel=6 note=61 velocity=55 time=0
EXTRACT: note_on channel=6 note=64 velocity=66 time=0
EXTRACT: note_on channel=6 note=68 velocity=55 time=0
EXTRACT: note_on channel=7 note=52 velocity=109 time=0
EXTRACT: note_on channel=9 note=36 velocity=126 time=0
EXTRACT: note_on channel=9 note=35 velocity=117 time=0
EXTRACT: note_on channel=9 note=44 velocity=81 time=0
EXTRACT: note_on channel=9 note=60 velocity=69 time=0
EXTRACT: note_on channel=9 note=60 velocity=0 time=0.001984125
EXTRACT: note_on channel=9 note=36 velocity=0 time=0
EXTRACT: note_on channel=9 note=35 velocity=0 time=0
EXTRACT: note_on channel=9 note=44 velocity=0 time=0
EXTRACT: note_on channel=9 note=44 velocity=0 time=0.061507875000000004
EXTRACT: note_on channel=5 note=64 velocity=0 time=0
EXTRACT: note_on channel=9 note=27 velocity=0 time=0.001984125
EXTRACT: note_on channel=5 note=61 velocity=0 time=0.00396825
EXTRACT: note_on channel=9 note=36 velocity=0 time=0.00396825
EXTRACT: note_on channel=9 note=49 velocity=0 time=0.011904750000000002
EXTRACT: note_on channel=4 note=64 velocity=0 time=0.00396825
EXTRACT: note_on channel=9 note=57 velocity=0 time=0.005952375000000001
EXTRACT: note_on channel=5 note=68 velocity=0 time=0.00396825
EXTRACT: note_on channel=9 note=69 velocity=93 time=0.041666625000000006
EXTRACT: note_on channel=9 note=69 velocity=0 time=0.001984125
EXTRACT: note_on channel=9 note=42 velocity=0 time=0.01984125
EXTRACT: note_on channel=7 note=52 velocity=0 time=0.001984125
EXTRACT: note_on channel=6 note=68 velocity=0 time=0.0079365
EXTRACT: note_on channel=6 note=64 velocity=0 time=0
EXTRACT: note_on channel=6 note=61 velocity=0 time=0
EXTRACT: note_on channel=9 note=27 velocity=79 time=0.06547612500000001
EXTRACT: note_on channel=9 note=44 velocity=55 time=0
EXTRACT: note_on channel=9 note=67 velocity=39 time=0
EXTRACT: note_on channel=4 note=64 velocity=110 time=0
EXTRACT: note_on channel=7 note=57 velocity=56 time=0
EXTRACT: note_on channel=7 note=61 velocity=49 time=0
EXTRACT: note_on channel=9 note=42 velocity=73 time=0
EXTRACT: note_on channel=9 note=62 velocity=59 time=0
EXTRACT: note_on channel=9 note=70 velocity=105 time=0
EXTRACT: note_on channel=9 note=70 velocity=0 time=0.001984125
EXTRACT: note_on channel=9 note=62 velocity=0 time=0
EXTRACT: note_on channel=9 note=42 velocity=0 time=0
EXTRACT: note_on channel=9 note=44 velocity=0 time=0.027777750000000004
EXTRACT: note_on channel=9 note=56 velocity=0 time=0.005952375000000001
EXTRACT: note_on channel=9 note=67 velocity=0 time=0.005952375000000001
EXTRACT: note_on channel=7 note=61 velocity=0 time=0.021825375
EXTRACT: note_on channel=7 note=57 velocity=0 time=0
EXTRACT: note_on channel=9 note=27 velocity=0 time=0.0079365
EXTRACT: note_on channel=9 note=60 velocity=63 time=0.04761900000000001
EXTRACT: note_on channel=9 note=60 velocity=0 time=0.001984125
EXTRACT: note_on channel=9 note=32 velocity=71 time=0.0079365
EXTRACT: note_on channel=9 note=44 velocity=70 time=0
EXTRACT: note_on channel=9 note=67 velocity=47 time=0
EXTRACT: note_on channel=5 note=61 velocity=78 time=0
EXTRACT: note_on channel=5 note=64 velocity=82 time=0
EXTRACT: note_on channel=5 note=68 velocity=73 time=0
EXTRACT: note_on channel=6 note=61 velocity=56 time=0
EXTRACT: note_on channel=6 note=64 velocity=60 time=0
EXTRACT: note_on channel=6 note=68 velocity=51 time=0
EXTRACT: note_on channel=7 note=57 velocity=68 time=0
EXTRACT: note_on channel=7 note=61 velocity=56 time=0
EXTRACT: note_on channel=9 note=42 velocity=66 time=0.011904750000000002
EXTRACT: note_on channel=9 note=69 velocity=61 time=0
EXTRACT: note_on channel=9 note=69 velocity=0 time=0.001984125
EXTRACT: note_on channel=9 note=42 velocity=0 time=0
EXTRACT: note_on channel=9 note=44 velocity=0 time=0.0396825
EXTRACT: note_on channel=1 note=33 velocity=0 time=0
EXTRACT: note_on channel=7 note=57 velocity=0 time=0.009920625
EXTRACT: note_on channel=5 note=64 velocity=0 time=0.005952375000000001
EXTRACT: note_on channel=9 note=67 velocity=0 time=0.001984125
EXTRACT: note_on channel=5 note=61 velocity=0 time=0
EXTRACT: note_on channel=7 note=61 velocity=0 time=0.0079365
EXTRACT: note_on channel=9 note=32 velocity=0 time=0.005952375000000001
EXTRACT: note_on channel=5 note=68 velocity=0 time=0.005952375000000001
EXTRACT: note_on channel=4 note=64 velocity=0 time=0.013888875000000002
EXTRACT: note_on channel=9 note=36 velocity=107 time=0.00396825
EXTRACT: note_on channel=9 note=39 velocity=108 time=0
EXTRACT: note_on channel=9 note=42 velocity=78 time=0
EXTRACT: note_on channel=9 note=56 velocity=81 time=0
EXTRACT: note_on channel=1 note=37 velocity=87 time=0
EXTRACT: note_on channel=4 note=61 velocity=87 time=0
EXTRACT: note_on channel=7 note=52 velocity=97 time=0
EXTRACT: note_on channel=9 note=40 velocity=117 time=0
EXTRACT: note_on channel=9 note=36 velocity=126 time=0
EXTRACT: note_on channel=9 note=35 velocity=117 time=0
EXTRACT: note_on channel=9 note=39 velocity=121 time=0
EXTRACT: note_on channel=9 note=44 velocity=81 time=0
EXTRACT: note_on channel=9 note=69 velocity=78 time=0
EXTRACT: note_on channel=9 note=69 velocity=0 time=0.001984125
EXTRACT: note_on channel=9 note=36 velocity=0 time=0
EXTRACT: note_on channel=9 note=35 velocity=0 time=0
EXTRACT: note_on channel=9 note=40 velocity=0 time=0
EXTRACT: note_on channel=9 note=44 velocity=0 time=0
EXTRACT: note_on channel=9 note=39 velocity=0 time=0
EXTRACT: note_on channel=9 note=39 velocity=0 time=0.05952375000000001
EXTRACT: note_on channel=6 note=68 velocity=0 time=0.001984125
EXTRACT: note_on channel=6 note=64 velocity=0 time=0
EXTRACT: note_on channel=6 note=61 velocity=0 time=0
EXTRACT: note_on channel=9 note=42 velocity=0 time=0.001984125
EXTRACT: note_on channel=9 note=36 velocity=0 time=0.0079365
EXTRACT: note_on channel=7 note=52 velocity=0 time=0.031746
EXTRACT: note_on channel=9 note=61 velocity=73 time=0.013888875000000002
EXTRACT: note_on channel=9 note=61 velocity=0 time=0.001984125
EXTRACT: note_on channel=9 note=32 velocity=59 time=0.0079365
EXTRACT: note_on channel=9 note=32 velocity=0 time=0.053571375000000004
EXTRACT: note_on channel=4 note=61 velocity=0 time=0.001984125
EXTRACT: note_on channel=9 note=32 velocity=63 time=0.053571375000000004
EXTRACT: note_on channel=9 note=44 velocity=57 time=0
EXTRACT: note_on channel=9 note=68 velocity=63 time=0
EXTRACT: note_on channel=1 note=40 velocity=80 time=0
EXTRACT: note_on channel=4 note=59 velocity=84 time=0
EXTRACT: note_on channel=5 note=61 velocity=80 time=0
EXTRACT: note_on channel=5 note=64 velocity=78 time=0
EXTRACT: note_on channel=5 note=68 velocity=73 time=0
EXTRACT: note_on channel=6 note=61 velocity=58 time=0
EXTRACT: note_on channel=6 note=64 velocity=56 time=0
EXTRACT: note_on channel=6 note=68 velocity=51 time=0
EXTRACT: note_on channel=7 note=57 velocity=68 time=0
EXTRACT: note_on channel=7 note=61 velocity=49 time=0
EXTRACT: note_on channel=9 note=42 velocity=73 time=0
EXTRACT: note_on channel=9 note=60 velocity=66 time=0
EXTRACT: note_on channel=9 note=60 velocity=0 time=0.001984125
EXTRACT: note_on channel=9 note=42 velocity=0 time=0
EXTRACT: note_on channel=9 note=70 velocity=105 time=0
EXTRACT: note_on channel=9 note=70 velocity=0 time=0.001984125
EXTRACT: note_on channel=1 note=37 velocity=0 time=0.0079365
EXTRACT: note_on channel=9 note=44 velocity=0 time=0.027777750000000004
EXTRACT: note_on channel=9 note=56 velocity=0 time=0.001984125
EXTRACT: note_on channel=9 note=68 velocity=0 time=0.01984125
EXTRACT: note_on channel=7 note=61 velocity=0 time=0.001984125
EXTRACT: note_on channel=7 note=57 velocity=0 time=0
EXTRACT: note_on channel=5 note=64 velocity=0 time=0.005952375000000001
EXTRACT: note_on channel=5 note=61 velocity=0 time=0
EXTRACT: note_on channel=9 note=32 velocity=0 time=0.001984125
EXTRACT: note_on channel=5 note=68 velocity=0 time=0.013888875000000002
EXTRACT: note_on channel=9 note=62 velocity=69 time=0.03373012500000001
EXTRACT: note_on channel=9 note=62 velocity=0 time=0.001984125
EXTRACT: note_on channel=9 note=32 velocity=62 time=0.0079365
EXTRACT: note_on channel=9 note=44 velocity=64 time=0
EXTRACT: note_on channel=9 note=68 velocity=40 time=0
EXTRACT: note_on channel=7 note=57 velocity=71 time=0
EXTRACT: note_on channel=7 note=61 velocity=56 time=0
EXTRACT: note_on channel=10 note=69 velocity=0 time=0.00396825
EXTRACT: note_on channel=9 note=42 velocity=66 time=0.0079365
EXTRACT: note_on channel=9 note=42 velocity=0 time=0.001984125
EXTRACT: note_on channel=10 note=57 velocity=0 time=0.005952375000000001
EXTRACT: note_on channel=10 note=73 velocity=0 time=0.011904750000000002
EXTRACT: note_on channel=10 note=61 velocity=0 time=0
EXTRACT: note_on channel=6 note=68 velocity=0 time=0.011904750000000002
EXTRACT: note_on channel=6 note=64 velocity=0 time=0
EXTRACT: note_on channel=6 note=61 velocity=0 time=0
EXTRACT: note_on channel=10 note=52 velocity=0 time=0.009920625
EXTRACT: note_on channel=9 note=68 velocity=0 time=0.005952375000000001
EXTRACT: note_on channel=9 note=44 velocity=0 time=0.001984125
EXTRACT: note_on channel=1 note=40 velocity=0 time=0.001984125
EXTRACT: note_on channel=7 note=57 velocity=0 time=0
EXTRACT: note_on channel=9 note=32 velocity=0 time=0.009920625
EXTRACT: note_on channel=4 note=59 velocity=0 time=0.005952375000000001
EXTRACT: note_on channel=7 note=61 velocity=0 time=0.00396825
EXTRACT: note_on channel=9 note=27 velocity=88 time=0.025793625000000004
EXTRACT: note_on channel=9 note=36 velocity=103 time=0
EXTRACT: note_on channel=9 note=42 velocity=97 time=0
EXTRACT: note_on channel=9 note=44 velocity=94 time=0
EXTRACT: note_on channel=9 note=56 velocity=77 time=0
EXTRACT: note_on channel=1 note=35 velocity=84 time=0
EXTRACT: note_on channel=10 note=54 velocity=65 time=0
EXTRACT: note_on channel=10 note=59 velocity=68 time=0
EXTRACT: note_on channel=10 note=66 velocity=62 time=0
EXTRACT: note_on channel=10 note=71 velocity=64 time=0
EXTRACT: note_on channel=4 note=64 velocity=101 time=0
EXTRACT: note_on channel=7 note=54 velocity=89 time=0
EXTRACT: note_on channel=9 note=36 velocity=126 time=0
EXTRACT: note_on channel=9 note=35 velocity=117 time=0
EXTRACT: note_on channel=9 note=44 velocity=81 time=0
EXTRACT: note_on channel=9 note=82 velocity=69 time=0
EXTRACT: note_on channel=9 note=56 velocity=87 time=0
EXTRACT: note_on channel=9 note=60 velocity=63 time=0
EXTRACT: note_on channel=9 note=60 velocity=0 time=0.001984125
EXTRACT: note_on channel=9 note=35 velocity=0 time=0
EXTRACT: note_on channel=9 note=44 velocity=0 time=0
EXTRACT: note_on channel=9 note=36 velocity=0 time=0
EXTRACT: note_on channel=9 note=56 velocity=0 time=0
EXTRACT: note_on channel=9 note=82 velocity=0 time=0
EXTRACT: note_on channel=9 note=44 velocity=0 time=0.063492
EXTRACT: note_on channel=9 note=27 velocity=0 time=0.0079365
EXTRACT: note_on channel=9 note=36 velocity=0 time=0.01984125
EXTRACT: note_on channel=4 note=64 velocity=0 time=0.001984125
EXTRACT: note_on channel=7 note=54 velocity=0 time=0
EXTRACT: note_on channel=9 note=27 velocity=64 time=0.03373012500000001
EXTRACT: note_on channel=5 note=59 velocity=73 time=0
EXTRACT: note_on channel=5 note=64 velocity=85 time=0
EXTRACT: note_on channel=5 note=66 velocity=77 time=0
EXTRACT: note_on channel=6 note=59 velocity=51 time=0
EXTRACT: note_on channel=6 note=64 velocity=63 time=0
EXTRACT: note_on channel=6 note=66 velocity=55 time=0
EXTRACT: note_on channel=1 note=35 velocity=0 time=0.011904750000000002
EXTRACT: note_on channel=9 note=82 velocity=43 time=0
EXTRACT: note_on channel=9 note=82 velocity=0 time=0.001984125
EXTRACT: note_on channel=9 note=42 velocity=0 time=0.005952375000000001
EXTRACT: note_on channel=9 note=27 velocity=0 time=0.041666625000000006
EXTRACT: note_on channel=5 note=64 velocity=0 time=0.009920625
EXTRACT: note_on channel=5 note=59 velocity=0 time=0.00396825
EXTRACT: note_on channel=5 note=66 velocity=0 time=0.0079365
EXTRACT: note_on channel=9 note=70 velocity=105 time=0.017857125
EXTRACT: note_on channel=9 note=70 velocity=0 time=0.001984125
EXTRACT: note_on channel=9 note=27 velocity=69 time=0.005952375000000001
EXTRACT: note_on channel=9 note=44 velocity=57 time=0
EXTRACT: note_on channel=9 note=67 velocity=48 time=0
EXTRACT: note_on channel=1 note=35 velocity=71 time=0
EXTRACT: note_on channel=4 note=64 velocity=103 time=0
EXTRACT: note_on channel=7 note=57 velocity=42 time=0
EXTRACT: note_on channel=7 note=59 velocity=50 time=0
EXTRACT: note_on channel=9 note=42 velocity=73 time=0
EXTRACT: note_on channel=9 note=82 velocity=48 time=0
EXTRACT: note_on channel=9 note=82 velocity=0 time=0.001984125
EXTRACT: note_on channel=9 note=42 velocity=0 time=0
EXTRACT: note_on channel=9 note=56 velocity=0 time=0.027777750000000004
EXTRACT: note_on channel=9 note=44 velocity=0 time=0.005952375000000001
EXTRACT: note_on channel=9 note=67 velocity=0 time=0.005952375000000001
EXTRACT: note_on channel=6 note=66 velocity=0 time=0.021825375
EXTRACT: note_on channel=6 note=64 velocity=0 time=0
EXTRACT: note_on channel=6 note=59 velocity=0 time=0
EXTRACT: note_on channel=7 note=59 velocity=0 time=0
EXTRACT: note_on channel=7 note=57 velocity=0 time=0
EXTRACT: note_on channel=9 note=27 velocity=0 time=0.015873
EXTRACT: note_on channel=9 note=56 velocity=87 time=0.0396825
EXTRACT: note_on channel=9 note=56 velocity=0 time=0.001984125
EXTRACT: note_on channel=9 note=44 velocity=39 time=0.0079365
EXTRACT: note_on channel=9 note=67 velocity=31 time=0
EXTRACT: note_on channel=7 note=57 velocity=62 time=0
EXTRACT: note_on channel=7 note=59 velocity=70 time=0
EXTRACT: note_on channel=9 note=42 velocity=66 time=0.011904750000000002
EXTRACT: note_on channel=9 note=82 velocity=40 time=0
EXTRACT: note_on channel=9 note=82 velocity=0 time=0.001984125
EXTRACT: note_on channel=9 note=42 velocity=0 time=0
EXTRACT: note_on channel=9 note=44 velocity=0 time=0.027777750000000004
EXTRACT: note_on channel=9 note=67 velocity=0 time=0.001984125
EXTRACT: note_on channel=7 note=59 velocity=0 time=0.01984125
EXTRACT: note_on channel=7 note=57 velocity=0 time=0.009920625
EXTRACT: note_on channel=4 note=64 velocity=0 time=0.005952375000000001
EXTRACT: note_on channel=9 note=32 velocity=78 time=0.029761875000000004
EXTRACT: note_on channel=9 note=36 velocity=107 time=0
EXTRACT: note_on channel=9 note=39 velocity=103 time=0
EXTRACT: note_on channel=9 note=42 velocity=68 time=0
EXTRACT: note_on channel=9 note=56 velocity=80 time=0
EXTRACT: note_on channel=1 note=39 velocity=85 time=0
EXTRACT: note_on channel=4 note=61 velocity=90 time=0
EXTRACT: note_on channel=5 note=59 velocity=45 time=0
EXTRACT: note_on channel=5 note=64 velocity=78 time=0
EXTRACT: note_on channel=5 note=66 velocity=71 time=0
EXTRACT: note_on channel=6 note=59 velocity=23 time=0
EXTRACT: note_on channel=6 note=64 velocity=56 time=0
EXTRACT: note_on channel=6 note=66 velocity=49 time=0
EXTRACT: note_on channel=7 note=54 velocity=90 time=0
EXTRACT: note_on channel=9 note=39 velocity=121 time=0
EXTRACT: note_on channel=9 note=40 velocity=117 time=0
EXTRACT: note_on channel=9 note=36 velocity=126 time=0
EXTRACT: note_on channel=9 note=35 velocity=117 time=0
EXTRACT: note_on channel=9 note=44 velocity=81 time=0
EXTRACT: note_on channel=9 note=82 velocity=69 time=0
EXTRACT: note_on channel=9 note=82 velocity=0 time=0.001984125
EXTRACT: note_on channel=9 note=40 velocity=0 time=0
EXTRACT: note_on channel=9 note=36 velocity=0 time=0
EXTRACT: note_on channel=9 note=39 velocity=0 time=0
EXTRACT: note_on channel=9 note=44 velocity=0 time=0
EXTRACT: note_on channel=9 note=35 velocity=0 time=0
EXTRACT: note_on channel=1 note=35 velocity=0 time=0.013888875000000002
EXTRACT: note_on channel=5 note=59 velocity=0 time=0.023809500000000004
EXTRACT: note_on channel=9 note=39 velocity=0 time=0.025793625000000004
EXTRACT: note_on channel=5 note=64 velocity=0 time=0.009920625
EXTRACT: note_on channel=9 note=32 velocity=0 time=0.00396825
EXTRACT: note_on channel=9 note=42 velocity=0 time=0.001984125
EXTRACT: note_on channel=5 note=66 velocity=0 time=0.013888875000000002
EXTRACT: note_on channel=7 note=54 velocity=0 time=0.03373012500000001
EXTRACT: note_on channel=6 note=66 velocity=0 time=0.04365075
EXTRACT: note_on channel=6 note=64 velocity=0 time=0
EXTRACT: note_on channel=6 note=59 velocity=0 time=0
EXTRACT: note_on channel=9 note=36 velocity=0 time=0.011904750000000002
EXTRACT: note_on channel=4 note=61 velocity=0 time=0.005952375000000001
EXTRACT: note_on channel=1 note=39 velocity=0 time=0.037698375000000006
EXTRACT: note_on channel=9 note=70 velocity=105 time=0.00396825
EXTRACT: note_on channel=9 note=70 velocity=0 time=0.001984125
EXTRACT: note_on channel=9 note=32 velocity=67 time=0.00396825
EXTRACT: note_on channel=9 note=44 velocity=57 time=0
EXTRACT: note_on channel=9 note=68 velocity=44 time=0
EXTRACT: note_on channel=1 note=42 velocity=79 time=0
EXTRACT: note_on channel=4 note=59 velocity=84 time=0
EXTRACT: note_on channel=5 note=59 velocity=78 time=0
EXTRACT: note_on channel=5 note=63 velocity=83 time=0
EXTRACT: note_on channel=5 note=66 velocity=82 time=0
EXTRACT: note_on channel=6 note=59 velocity=56 time=0
EXTRACT: note_on channel=6 note=63 velocity=61 time=0
EXTRACT: note_on channel=6 note=66 velocity=60 time=0
EXTRACT: note_on channel=7 note=57 velocity=53 time=0
EXTRACT: note_on channel=7 note=59 velocity=62 time=0
EXTRACT: note_on channel=9 note=42 velocity=73 time=0
EXTRACT: note_on channel=9 note=69 velocity=78 time=0
EXTRACT: note_on channel=9 note=56 velocity=87 time=0
EXTRACT: note_on channel=9 note=56 velocity=0 time=0.001984125
EXTRACT: note_on channel=9 note=69 velocity=0 time=0
EXTRACT: note_on channel=9 note=42 velocity=0 time=0
EXTRACT: note_on channel=9 note=68 velocity=0 time=0.027777750000000004
EXTRACT: note_on channel=5 note=59 velocity=0 time=0.001984125
EXTRACT: note_on channel=9 note=32 velocity=0 time=0.01984125
EXTRACT: note_on channel=9 note=44 velocity=0 time=0.001984125
EXTRACT: note_on channel=10 note=71 velocity=0 time=0
EXTRACT: note_on channel=5 note=63 velocity=0 time=0.0079365
EXTRACT: note_on channel=7 note=59 velocity=0 time=0.001984125
EXTRACT: note_on channel=7 note=57 velocity=0 time=0
EXTRACT: note_on channel=9 note=56 velocity=0 time=0.0079365
EXTRACT: note_on channel=10 note=66 velocity=0 time=0.0079365
EXTRACT: note_on channel=5 note=66 velocity=0 time=0
EXTRACT: note_on channel=10 note=59 velocity=0 time=0.04365075
EXTRACT: note_on channel=9 note=32 velocity=64 time=0.005952375000000001
EXTRACT: note_on channel=9 note=44 velocity=58 time=0
EXTRACT: note_on channel=9 note=68 velocity=38 time=0
EXTRACT: note_on channel=7 note=57 velocity=60 time=0
EXTRACT: note_on channel=7 note=59 velocity=67 time=0
EXTRACT: note_on channel=9 note=42 velocity=66 time=0.011904750000000002
EXTRACT: note_on channel=9 note=69 velocity=73 time=0
EXTRACT: note_on channel=9 note=69 velocity=0 time=0.001984125
EXTRACT: note_on channel=9 note=42 velocity=0 time=0
EXTRACT: note_on channel=10 note=54 velocity=0 time=0.027777750000000004
EXTRACT: note_on channel=6 note=66 velocity=0 time=0.001984125
EXTRACT: note_on channel=6 note=63 velocity=0 time=0
EXTRACT: note_on channel=6 note=59 velocity=0 time=0
EXTRACT: note_on channel=9 note=44 velocity=0 time=0.011904750000000002
EXTRACT: note_on channel=7 note=57 velocity=0 time=0.0079365
EXTRACT: note_on channel=9 note=32 velocity=0 time=0.001984125
EXTRACT: note_on channel=9 note=68 velocity=0 time=0.0079365
EXTRACT: note_on channel=4 note=59 velocity=0 time=0.001984125
EXTRACT: note_on channel=7 note=59 velocity=0 time=0
EXTRACT: note_on channel=1 note=42 velocity=0 time=0.005952375000000001
EXTRACT: note_on channel=9 note=27 velocity=92 time=0.027777750000000004
EXTRACT: note_on channel=9 note=36 velocity=103 time=0
EXTRACT: note_on channel=9 note=42 velocity=94 time=0
EXTRACT: note_on channel=9 note=44 velocity=93 time=0
EXTRACT: note_on channel=9 note=56 velocity=78 time=0
EXTRACT: note_on channel=10 note=56 velocity=74 time=0
EXTRACT: note_on channel=10 note=59 velocity=54 time=0
EXTRACT: note_on channel=10 note=63 velocity=59 time=0
EXTRACT: note_on channel=10 note=68 velocity=61 time=0
EXTRACT: note_on channel=10 note=71 velocity=60 time=0
EXTRACT: note_on channel=3 note=71 velocity=94 time=0
EXTRACT: note_on channel=5 note=59 velocity=68 time=0
EXTRACT: note_on channel=5 note=63 velocity=85 time=0
EXTRACT: note_on channel=5 note=68 velocity=85 time=0
EXTRACT: note_on channel=6 note=59 velocity=46 time=0
EXTRACT: note_on channel=6 note=63 velocity=63 time=0
EXTRACT: note_on channel=6 note=68 velocity=63 time=0
EXTRACT: note_on channel=7 note=56 velocity=90 time=0
EXTRACT: note_on channel=9 note=36 velocity=126 time=0
EXTRACT: note_on channel=9 note=35 velocity=117 time=0
EXTRACT: note_on channel=9 note=35 velocity=0 time=0.001984125
EXTRACT: note_on channel=9 note=36 velocity=0 time=0
EXTRACT: note_on channel=5 note=59 velocity=0 time=0.027777750000000004
EXTRACT: note_on channel=5 note=63 velocity=0 time=0.021825375
EXTRACT: note_on channel=9 note=27 velocity=0 time=0.027777750000000004
EXTRACT: note_on channel=9 note=44 velocity=0 time=0.001984125
EXTRACT: note_on channel=5 note=68 velocity=0 time=0.001984125
EXTRACT: note_on channel=9 note=36 velocity=0 time=0.017857125
EXTRACT: note_on channel=9 note=69 velocity=84 time=0.0396825
EXTRACT: note_on channel=9 note=69 velocity=0 time=0.001984125
EXTRACT: note_on channel=7 note=56 velocity=0 time=0.009920625
EXTRACT: note_on channel=6 note=68 velocity=0 time=0.01984125
EXTRACT: note_on channel=6 note=63 velocity=0 time=0
EXTRACT: note_on channel=6 note=59 velocity=0 time=0
EXTRACT: note_on channel=9 note=42 velocity=0 time=0.01984125
EXTRACT: note_on channel=9 note=70 velocity=105 time=0.041666625000000006
EXTRACT: note_on channel=9 note=27 velocity=85 time=0.00396825
EXTRACT: note_on channel=9 note=44 velocity=57 time=0
EXTRACT: note_on channel=9 note=67 velocity=42 time=0
EXTRACT: note_on channel=1 note=32 velocity=88 time=0
EXTRACT: note_on channel=7 note=59 velocity=53 time=0
EXTRACT: note_on channel=7 note=63 velocity=49 time=0
EXTRACT: note_on channel=9 note=70 velocity=0 time=0
EXTRACT: note_on channel=9 note=42 velocity=73 time=0
EXTRACT: note_on channel=9 note=62 velocity=79 time=0
EXTRACT: note_on channel=9 note=62 velocity=0 time=0.001984125
EXTRACT: note_on channel=9 note=42 velocity=0 time=0
EXTRACT: note_on channel=9 note=44 velocity=0 time=0.031746
EXTRACT: note_on channel=9 note=67 velocity=0 time=0.0079365
EXTRACT: note_on channel=9 note=56 velocity=0 time=0.013888875000000002
EXTRACT: note_on channel=7 note=63 velocity=0 time=0.0079365
EXTRACT: note_on channel=7 note=59 velocity=0 time=0
EXTRACT: note_on channel=9 note=27 velocity=0 time=0.005952375000000001
EXTRACT: note_on channel=9 note=61 velocity=69 time=0.049603125000000005
EXTRACT: note_on channel=9 note=61 velocity=0 time=0.001984125
EXTRACT: note_on channel=9 note=32 velocity=76 time=0.0079365
EXTRACT: note_on channel=9 note=44 velocity=31 time=0
EXTRACT: note_on channel=9 note=67 velocity=49 time=0
EXTRACT: note_on channel=5 note=59 velocity=74 time=0
EXTRACT: note_on channel=5 note=63 velocity=87 time=0
EXTRACT: note_on channel=5 note=68 velocity=82 time=0
EXTRACT: note_on channel=6 note=59 velocity=52 time=0
EXTRACT: note_on channel=6 note=63 velocity=65 time=0
EXTRACT: note_on channel=6 note=68 velocity=60 time=0
EXTRACT: note_on channel=7 note=59 velocity=62 time=0
EXTRACT: note_on channel=7 note=63 velocity=68 time=0
EXTRACT: note_on channel=9 note=42 velocity=66 time=0.011904750000000002
EXTRACT: note_on channel=9 note=69 velocity=68 time=0
EXTRACT: note_on channel=9 note=69 velocity=0 time=0.001984125
EXTRACT: note_on channel=9 note=42 velocity=0 time=0
EXTRACT: note_on channel=5 note=59 velocity=0 time=0.017857125
EXTRACT: note_on channel=9 note=44 velocity=0 time=0.0079365
EXTRACT: note_on channel=9 note=67 velocity=0 time=0.00396825
EXTRACT: note_on channel=5 note=63 velocity=0 time=0.009920625
EXTRACT: note_on channel=3 note=71 velocity=0 time=0.015873
EXTRACT: note_on channel=9 note=32 velocity=0 time=0.00396825
EXTRACT: note_on channel=7 note=63 velocity=0 time=0.001984125
EXTRACT: note_on channel=7 note=59 velocity=0 time=0
EXTRACT: note_on channel=5 note=68 velocity=0 time=0.013888875000000002
EXTRACT: note_on channel=9 note=36 velocity=98 time=0.01984125
EXTRACT: note_on channel=9 note=39 velocity=103 time=0
EXTRACT: note_on channel=9 note=42 velocity=80 time=0
EXTRACT: note_on channel=9 note=56 velocity=80 time=0
EXTRACT: note_on channel=1 note=35 velocity=74 time=0
EXTRACT: note_on channel=3 note=68 velocity=91 time=0
EXTRACT: note_on channel=7 note=56 velocity=90 time=0
EXTRACT: note_on channel=9 note=39 velocity=121 time=0
EXTRACT: note_on channel=9 note=36 velocity=126 time=0
EXTRACT: note_on channel=9 note=35 velocity=117 time=0
EXTRACT: note_on channel=9 note=40 velocity=117 time=0
EXTRACT: note_on channel=9 note=44 velocity=81 time=0
EXTRACT: note_on channel=9 note=44 velocity=0 time=0.001984125
EXTRACT: note_on channel=9 note=35 velocity=0 time=0
EXTRACT: note_on channel=9 note=39 velocity=0 time=0
EXTRACT: note_on channel=9 note=36 velocity=0 time=0
EXTRACT: note_on channel=9 note=40 velocity=0 time=0
EXTRACT: note_on channel=1 note=32 velocity=0 time=0.013888875000000002
EXTRACT: note_on channel=6 note=68 velocity=0 time=0.04761900000000001
EXTRACT: note_on channel=6 note=63 velocity=0 time=0
EXTRACT: note_on channel=6 note=59 velocity=0 time=0
EXTRACT: note_on channel=9 note=39 velocity=0 time=0.005952375000000001
EXTRACT: note_on channel=9 note=36 velocity=0 time=0.005952375000000001
EXTRACT: note_on channel=9 note=42 velocity=0 time=0.03373012500000001
EXTRACT: note_on channel=7 note=56 velocity=0 time=0.005952375000000001
EXTRACT: note_on channel=9 note=62 velocity=73 time=0.00396825
EXTRACT: note_on channel=9 note=62 velocity=0 time=0.001984125
EXTRACT: note_on channel=9 note=32 velocity=68 time=0.0079365
EXTRACT: note_on channel=9 note=32 velocity=0 time=0.053571375000000004
EXTRACT: note_on channel=1 note=35 velocity=0 time=0.049603125000000005
EXTRACT: note_on channel=9 note=32 velocity=70 time=0.005952375000000001
EXTRACT: note_on channel=9 note=44 velocity=63 time=0
EXTRACT: note_on channel=9 note=68 velocity=47 time=0
EXTRACT: note_on channel=1 note=39 velocity=94 time=0
EXTRACT: note_on channel=5 note=59 velocity=78 time=0
EXTRACT: note_on channel=5 note=63 velocity=91 time=0
EXTRACT: note_on channel=5 note=68 velocity=86 time=0
EXTRACT: note_on channel=6 note=59 velocity=56 time=0
EXTRACT: note_on channel=6 note=63 velocity=69 time=0
EXTRACT: note_on channel=6 note=68 velocity=64 time=0
EXTRACT: note_on channel=7 note=59 velocity=59 time=0
EXTRACT: note_on channel=7 note=63 velocity=63 time=0
EXTRACT: note_on channel=9 note=42 velocity=73 time=0
EXTRACT: note_on channel=9 note=61 velocity=66 time=0
EXTRACT: note_on channel=9 note=61 velocity=0 time=0.001984125
EXTRACT: note_on channel=9 note=42 velocity=0 time=0
EXTRACT: note_on channel=9 note=70 velocity=105 time=0.001984125
EXTRACT: note_on channel=9 note=70 velocity=0 time=0.001984125
EXTRACT: note_on channel=9 note=68 velocity=0 time=0.029761875000000004
EXTRACT: note_on channel=5 note=59 velocity=0 time=0.013888875000000002
EXTRACT: note_on channel=9 note=44 velocity=0 time=0.005952375000000001
EXTRACT: note_on channel=5 note=63 velocity=0 time=0
EXTRACT: note_on channel=9 note=32 velocity=0 time=0.0079365
EXTRACT: note_on channel=7 note=63 velocity=0 time=0
EXTRACT: note_on channel=7 note=59 velocity=0 time=0
EXTRACT: note_on channel=9 note=56 velocity=0 time=0.005952375000000001
EXTRACT: note_on channel=5 note=68 velocity=0 time=0.01984125
EXTRACT: note_on channel=10 note=71 velocity=0 time=0.03571425
EXTRACT: note_on channel=9 note=32 velocity=63 time=0.00396825
EXTRACT: note_on channel=9 note=44 velocity=65 time=0
EXTRACT: note_on channel=9 note=68 velocity=29 time=0
EXTRACT: note_on channel=10 note=68 velocity=0 time=0
EXTRACT: note_on channel=7 note=59 velocity=72 time=0
EXTRACT: note_on channel=7 note=63 velocity=72 time=0
EXTRACT: note_on channel=10 note=63 velocity=0 time=0.00396825
EXTRACT: note_on channel=10 note=56 velocity=0 time=0.0079365
EXTRACT: note_on channel=9 note=42 velocity=66 time=0
EXTRACT: note_on channel=9 note=82 velocity=48 time=0
EXTRACT: note_on channel=9 note=82 velocity=0 time=0.001984125
EXTRACT: note_on channel=9 note=42 velocity=0 time=0
EXTRACT: note_on channel=1 note=39 velocity=0 time=0.015873
EXTRACT: note_on channel=6 note=68 velocity=0 time=0.013888875000000002
EXTRACT: note_on channel=6 note=63 velocity=0 time=0
EXTRACT: note_on channel=6 note=59 velocity=0 time=0
EXTRACT: note_on channel=9 note=44 velocity=0 time=0.015873
EXTRACT: note_on channel=10 note=59 velocity=0 time=0.001984125
EXTRACT: note_on channel=9 note=32 velocity=0 time=0.001984125
EXTRACT: note_on channel=7 note=59 velocity=0 time=0
EXTRACT: note_on channel=7 note=63 velocity=0 time=0.009920625
EXTRACT: note_on channel=3 note=68 velocity=0 time=0.001984125
EXTRACT: note_on channel=9 note=68 velocity=0 time=0.009920625
EXTRACT: note_on channel=9 note=27 velocity=87 time=0.023809500000000004
EXTRACT: note_on channel=9 note=36 velocity=107 time=0
EXTRACT: note_on channel=9 note=42 velocity=91 time=0
EXTRACT: note_on channel=9 note=44 velocity=89 time=0
EXTRACT: note_on channel=9 note=56 velocity=75 time=0
EXTRACT: note_on channel=1 note=37 velocity=88 time=0
EXTRACT: note_on channel=10 note=56 velocity=75 time=0
EXTRACT: note_on channel=10 note=61 velocity=44 time=0
EXTRACT: note_on channel=10 note=64 velocity=55 time=0
EXTRACT: note_on channel=10 note=68 velocity=67 time=0
EXTRACT: note_on channel=10 note=73 velocity=55 time=0
EXTRACT: note_on channel=3 note=64 velocity=90 time=0
EXTRACT: note_on channel=7 note=56 velocity=90 time=0
EXTRACT: note_on channel=9 note=36 velocity=126 time=0
EXTRACT: note_on channel=9 note=35 velocity=117 time=0
EXTRACT: note_on channel=9 note=44 velocity=81 time=0
EXTRACT: note_on channel=9 note=82 velocity=55 time=0
EXTRACT: note_on channel=9 note=56 velocity=80 time=0
EXTRACT: note_on channel=9 note=56 velocity=0 time=0.001984125
EXTRACT: note_on channel=9 note=44 velocity=0 time=0
EXTRACT: note_on channel=9 note=36 velocity=0 time=0
EXTRACT: note_on channel=9 note=35 velocity=0 time=0
EXTRACT: note_on channel=9 note=82 velocity=0 time=0
EXTRACT: note_on channel=9 note=27 velocity=0 time=0.06746025000000001
EXTRACT: note_on channel=9 note=36 velocity=0 time=0.005952375000000001
EXTRACT: note_on channel=9 note=44 velocity=0 time=0.01984125
EXTRACT: note_on channel=9 note=32 velocity=76 time=0.03373012500000001
EXTRACT: note_on channel=5 note=61 velocity=71 time=0
EXTRACT: note_on channel=5 note=64 velocity=85 time=0
EXTRACT: note_on channel=5 note=68 velocity=79 time=0
EXTRACT: note_on channel=6 note=61 velocity=49 time=0
EXTRACT: note_on channel=6 note=64 velocity=63 time=0
EXTRACT: note_on channel=6 note=68 velocity=57 time=0
EXTRACT: note_on channel=9 note=82 velocity=63 time=0.011904750000000002
EXTRACT: note_on channel=9 note=82 velocity=0 time=0.001984125
EXTRACT: note_on channel=7 note=56 velocity=0 time=0.011904750000000002
EXTRACT: note_on channel=1 note=37 velocity=0 time=0.017857125
EXTRACT: note_on channel=5 note=61 velocity=0 time=0.017857125
EXTRACT: note_on channel=9 note=32 velocity=0 time=0.001984125
EXTRACT: note_on channel=5 note=64 velocity=0 time=0.001984125
EXTRACT: note_on channel=5 note=68 velocity=0 time=0.005952375000000001
EXTRACT: note_on channel=9 note=42 velocity=0 time=0.03373012500000001
EXTRACT: note_on channel=9 note=27 velocity=58 time=0.00396825
EXTRACT: note_on channel=9 note=44 velocity=60 time=0
EXTRACT: note_on channel=9 note=67 velocity=48 time=0
EXTRACT: note_on channel=1 note=37 velocity=82 time=0
EXTRACT: note_on channel=7 note=61 velocity=54 time=0
EXTRACT: note_on channel=7 note=64 velocity=65 time=0
EXTRACT: note_on channel=9 note=42 velocity=73 time=0
EXTRACT: note_on channel=9 note=82 velocity=59 time=0
EXTRACT: note_on channel=9 note=63 velocity=60 time=0
EXTRACT: note_on channel=9 note=63 velocity=0 time=0.001984125
EXTRACT: note_on channel=9 note=82 velocity=0 time=0
EXTRACT: note_on channel=9 note=42 velocity=0 time=0
EXTRACT: note_on channel=9 note=70 velocity=105 time=0.001984125
EXTRACT: note_on channel=9 note=70 velocity=0 time=0.001984125
EXTRACT: note_on channel=9 note=67 velocity=0 time=0.03571425
EXTRACT: note_on channel=9 note=44 velocity=0 time=0
EXTRACT: note_on channel=9 note=27 velocity=0 time=0.00396825
EXTRACT: note_on channel=9 note=56 velocity=0 time=0.017857125
EXTRACT: note_on channel=6 note=68 velocity=0 time=0
EXTRACT: note_on channel=6 note=64 velocity=0 time=0
EXTRACT: note_on channel=6 note=61 velocity=0 time=0
EXTRACT: note_on channel=7 note=64 velocity=0 time=0
EXTRACT: note_on channel=7 note=61 velocity=0 time=0
EXTRACT: note_on channel=9 note=56 velocity=89 time=0.05555550000000001
EXTRACT: note_on channel=9 note=56 velocity=0 time=0.001984125
EXTRACT: note_on channel=9 note=44 velocity=55 time=0.0079365
EXTRACT: note_on channel=9 note=67 velocity=39 time=0
EXTRACT: note_on channel=7 note=61 velocity=65 time=0
EXTRACT: note_on channel=7 note=64 velocity=68 time=0
EXTRACT: note_on channel=9 note=42 velocity=66 time=0.011904750000000002
EXTRACT: note_on channel=9 note=82 velocity=45 time=0
EXTRACT: note_on channel=9 note=82 velocity=0 time=0.001984125
EXTRACT: note_on channel=9 note=42 velocity=0 time=0
EXTRACT: note_on channel=9 note=44 velocity=0 time=0.045634875000000005
EXTRACT: note_on channel=7 note=64 velocity=0 time=0.00396825
EXTRACT: note_on channel=9 note=67 velocity=0 time=0.001984125
EXTRACT: note_on channel=7 note=61 velocity=0 time=0
EXTRACT: note_on channel=3 note=64 velocity=0 time=0.023809500000000004
EXTRACT: note_on channel=9 note=32 velocity=88 time=0.01984125
EXTRACT: note_on channel=9 note=36 velocity=107 time=0
EXTRACT: note_on channel=9 note=39 velocity=98 time=0
EXTRACT: note_on channel=9 note=42 velocity=83 time=0
EXTRACT: note_on channel=9 note=56 velocity=74 time=0
EXTRACT: note_on channel=1 note=32 velocity=86 time=0
EXTRACT: note_on channel=3 note=61 velocity=80 time=0
EXTRACT: note_on channel=5 note=61 velocity=68 time=0
EXTRACT: note_on channel=5 note=64 velocity=80 time=0
EXTRACT: note_on channel=5 note=68 velocity=82 time=0
EXTRACT: note_on channel=6 note=61 velocity=46 time=0
EXTRACT: note_on channel=6 note=64 velocity=58 time=0
EXTRACT: note_on channel=6 note=68 velocity=60 time=0
EXTRACT: note_on channel=7 note=56 velocity=90 time=0
EXTRACT: note_on channel=9 note=36 velocity=126 time=0
EXTRACT: note_on channel=9 note=35 velocity=117 time=0
EXTRACT: note_on channel=9 note=39 velocity=121 time=0
EXTRACT: note_on channel=9 note=40 velocity=117 time=0
EXTRACT: note_on channel=9 note=44 velocity=81 time=0
EXTRACT: note_on channel=9 note=82 velocity=60 time=0
EXTRACT: note_on channel=9 note=82 velocity=0 time=0.001984125
EXTRACT: note_on channel=9 note=35 velocity=0 time=0
EXTRACT: note_on channel=9 note=39 velocity=0 time=0
EXTRACT: note_on channel=9 note=36 velocity=0 time=0
EXTRACT: note_on channel=9 note=44 velocity=0 time=0
EXTRACT: note_on channel=9 note=40 velocity=0 time=0
EXTRACT: note_on channel=1 note=37 velocity=0 time=0.013888875000000002
EXTRACT: note_on channel=5 note=64 velocity=0 time=0.049603125000000005
EXTRACT: note_on channel=9 note=39 velocity=0 time=0.00396825
EXTRACT: note_on channel=9 note=32 velocity=0 time=0.001984125
EXTRACT: note_on channel=9 note=36 velocity=0 time=0.001984125
EXTRACT: note_on channel=5 note=61 velocity=0 time=0.001984125
EXTRACT: note_on channel=5 note=68 velocity=0 time=0.023809500000000004
EXTRACT: note_on channel=7 note=56 velocity=0 time=0.009920625
EXTRACT: note_on channel=9 note=42 velocity=0 time=0.03571425
EXTRACT: note_on channel=6 note=68 velocity=0 time=0.027777750000000004
EXTRACT: note_on channel=6 note=64 velocity=0 time=0
EXTRACT: note_on channel=6 note=61 velocity=0 time=0
EXTRACT: note_on channel=3 note=61 velocity=0 time=0.057539625000000004
EXTRACT: note_on channel=1 note=32 velocity=0 time=0.001984125
EXTRACT: note_on channel=9 note=70 velocity=105 time=0
EXTRACT: note_on channel=9 note=70 velocity=0 time=0.001984125
EXTRACT: note_on channel=9 note=32 velocity=71 time=0.00396825
EXTRACT: note_on channel=9 note=36 velocity=78 time=0
EXTRACT: note_on channel=9 note=44 velocity=59 time=0
EXTRACT: note_on channel=9 note=68 velocity=57 time=0
EXTRACT: note_on channel=1 note=35 velocity=80 time=0
EXTRACT: note_on channel=3 note=59 velocity=80 time=0
EXTRACT: note_on channel=5 note=61 velocity=78 time=0
EXTRACT: note_on channel=5 note=64 velocity=80 time=0
EXTRACT: note_on channel=5 note=68 velocity=85 time=0
EXTRACT: note_on channel=6 note=61 velocity=56 time=0
EXTRACT: note_on channel=6 note=64 velocity=58 time=0
EXTRACT: note_on channel=6 note=68 velocity=63 time=0
EXTRACT: note_on channel=7 note=61 velocity=56 time=0
EXTRACT: note_on channel=7 note=64 velocity=62 time=0
EXTRACT: note_on channel=9 note=42 velocity=75 time=0
EXTRACT: note_on channel=9 note=69 velocity=87 time=0
EXTRACT: note_on channel=9 note=56 velocity=87 time=0
EXTRACT: note_on channel=9 note=56 velocity=0 time=0.001984125
EXTRACT: note_on channel=9 note=69 velocity=0 time=0
EXTRACT: note_on channel=9 note=42 velocity=0 time=0
EXTRACT: note_on channel=9 note=44 velocity=0 time=0.041666625000000006
EXTRACT: note_on channel=9 note=32 velocity=0 time=0.011904750000000002
EXTRACT: note_on channel=9 note=68 velocity=0 time=0
EXTRACT: note_on channel=5 note=61 velocity=0 time=0.00396825
EXTRACT: note_on channel=5 note=64 velocity=0 time=0.001984125
EXTRACT: note_on channel=9 note=36 velocity=0 time=0.001984125
EXTRACT: note_on channel=7 note=64 velocity=0 time=0
EXTRACT: note_on channel=7 note=61 velocity=0 time=0
EXTRACT: note_on channel=9 note=56 velocity=0 time=0.0079365
EXTRACT: note_on channel=10 note=73 velocity=0 time=0.001984125
EXTRACT: note_on channel=5 note=68 velocity=0 time=0
EXTRACT: note_on channel=10 note=64 velocity=0 time=0.005952375000000001
EXTRACT: note_on channel=10 note=68 velocity=0 time=0.005952375000000001
EXTRACT: note_on channel=10 note=61 velocity=0 time=0.023809500000000004
EXTRACT: note_on channel=9 note=62 velocity=64 time=0.009920625
EXTRACT: note_on channel=9 note=62 velocity=0 time=0.001984125
EXTRACT: note_on channel=10 note=56 velocity=0 time=0.001984125
EXTRACT: note_on channel=9 note=32 velocity=67 time=0.005952375000000001
EXTRACT: note_on channel=9 note=44 velocity=66 time=0
EXTRACT: note_on channel=9 note=68 velocity=39 time=0
EXTRACT: note_on channel=7 note=61 velocity=67 time=0
EXTRACT: note_on channel=7 note=64 velocity=65 time=0
EXTRACT: note_on channel=9 note=42 velocity=66 time=0.011904750000000002
EXTRACT: note_on channel=9 note=69 velocity=69 time=0
EXTRACT: note_on channel=9 note=69 velocity=0 time=0.001984125
EXTRACT: note_on channel=9 note=42 velocity=0 time=0
EXTRACT: note_on channel=6 note=68 velocity=0 time=0.029761875000000004
EXTRACT: note_on channel=6 note=64 velocity=0 time=0
EXTRACT: note_on channel=6 note=61 velocity=0 time=0
EXTRACT: note_on channel=9 note=44 velocity=0 time=0.01984125
EXTRACT: note_on channel=7 note=64 velocity=0 time=0
EXTRACT: note_on channel=9 note=32 velocity=0 time=0.005952375000000001
EXTRACT: note_on channel=7 note=61 velocity=0 time=0.001984125
EXTRACT: note_on channel=9 note=68 velocity=0 time=0.001984125
EXTRACT: note_on channel=3 note=59 velocity=0 time=0.005952375000000001
EXTRACT: note_on channel=1 note=35 velocity=0 time=0.005952375000000001
EXTRACT: note_on channel=9 note=27 velocity=90 time=0.023809500000000004
EXTRACT: note_on channel=9 note=36 velocity=105 time=0
EXTRACT: note_on channel=9 note=42 velocity=97 time=0
EXTRACT: note_on channel=9 note=44 velocity=89 time=0
EXTRACT: note_on channel=9 note=56 velocity=77 time=0
EXTRACT: note_on channel=1 note=33 velocity=80 time=0
EXTRACT: note_on channel=10 note=52 velocity=70 time=0
EXTRACT: note_on channel=10 note=57 velocity=56 time=0
EXTRACT: note_on channel=10 note=61 velocity=49 time=0
EXTRACT: note_on channel=10 note=69 velocity=74 time=0
EXTRACT: note_on channel=10 note=73 velocity=54 time=0
EXTRACT: note_on channel=4 note=64 velocity=110 time=0
EXTRACT: note_on channel=5 note=61 velocity=76 time=0
EXTRACT: note_on channel=5 note=64 velocity=77 time=0
EXTRACT: note_on channel=5 note=69 velocity=85 time=0
EXTRACT: note_on channel=6 note=61 velocity=54 time=0
EXTRACT: note_on channel=6 note=64 velocity=55 time=0
EXTRACT: note_on channel=6 note=69 velocity=63 time=0
EXTRACT: note_on channel=7 note=52 velocity=95 time=0
EXTRACT: note_on channel=9 note=36 velocity=126 time=0
EXTRACT: note_on channel=9 note=35 velocity=117 time=0
EXTRACT: note_on channel=9 note=44 velocity=81 time=0
EXTRACT: note_on channel=9 note=60 velocity=69 time=0
EXTRACT: note_on channel=9 note=60 velocity=0 time=0.001984125
EXTRACT: note_on channel=9 note=36 velocity=0 time=0
EXTRACT: note_on channel=9 note=35 velocity=0 time=0
EXTRACT: note_on channel=9 note=44 velocity=0 time=0
EXTRACT: note_on channel=5 note=64 velocity=0 time=0.029761875000000004
EXTRACT: note_on channel=5 note=69 velocity=0 time=0.027777750000000004
EXTRACT: note_on channel=5 note=61 velocity=0 time=0.009920625
EXTRACT: note_on channel=9 note=27 velocity=0 time=0.009920625
EXTRACT: note_on channel=4 note=64 velocity=0 time=0.005952375000000001
EXTRACT: note_on channel=7 note=52 velocity=0 time=0.00396825
EXTRACT: note_on channel=9 note=44 velocity=0 time=0.045634875000000005
EXTRACT: note_on channel=9 note=36 velocity=0 time=0.00396825
EXTRACT: note_on channel=9 note=69 velocity=93 time=0.001984125
EXTRACT: note_on channel=1 note=33 velocity=0 time=0.001984125
EXTRACT: note_on channel=9 note=69 velocity=0 time=0
EXTRACT: note_on channel=6 note=69 velocity=0 time=0.029761875000000004
EXTRACT: note_on channel=6 note=64 velocity=0 time=0
EXTRACT: note_on channel=6 note=61 velocity=0 time=0
EXTRACT: note_on channel=9 note=42 velocity=0 time=0.061507875000000004
EXTRACT: note_on channel=9 note=27 velocity=78 time=0.00396825
EXTRACT: note_on channel=9 note=44 velocity=47 time=0
EXTRACT: note_on channel=9 note=67 velocity=40 time=0
EXTRACT: note_on channel=1 note=33 velocity=76 time=0
EXTRACT: note_on channel=4 note=64 velocity=103 time=0
EXTRACT: note_on channel=7 note=57 velocity=48 time=0
EXTRACT: note_on channel=7 note=61 velocity=56 time=0
EXTRACT: note_on channel=9 note=42 velocity=73 time=0
EXTRACT: note_on channel=9 note=62 velocity=59 time=0
EXTRACT: note_on channel=9 note=70 velocity=105 time=0
EXTRACT: note_on channel=9 note=70 velocity=0 time=0.001984125
EXTRACT: note_on channel=9 note=62 velocity=0 time=0
EXTRACT: note_on channel=9 note=42 velocity=0 time=0
EXTRACT: note_on channel=9 note=44 velocity=0 time=0.027777750000000004
EXTRACT: note_on channel=9 note=67 velocity=0 time=0.013888875000000002
EXTRACT: note_on channel=7 note=61 velocity=0 time=0.01984125
EXTRACT: note_on channel=7 note=57 velocity=0 time=0
EXTRACT: note_on channel=9 note=27 velocity=0 time=0.001984125
EXTRACT: note_on channel=9 note=56 velocity=0 time=0.017857125
EXTRACT: note_on channel=9 note=60 velocity=63 time=0.03571425
EXTRACT: note_on channel=9 note=60 velocity=0 time=0.001984125
EXTRACT: note_on channel=9 note=27 velocity=50 time=0.0079365
EXTRACT: note_on channel=9 note=44 velocity=62 time=0
EXTRACT: note_on channel=9 note=67 velocity=46 time=0
EXTRACT: note_on channel=5 note=61 velocity=66 time=0
EXTRACT: note_on channel=5 note=64 velocity=78 time=0
EXTRACT: note_on channel=5 note=69 velocity=80 time=0
EXTRACT: note_on channel=6 note=61 velocity=44 time=0
EXTRACT: note_on channel=6 note=64 velocity=56 time=0
EXTRACT: note_on channel=6 note=69 velocity=58 time=0
EXTRACT: note_on channel=7 note=57 velocity=66 time=0
EXTRACT: note_on channel=7 note=61 velocity=65 time=0
EXTRACT: note_on channel=9 note=42 velocity=66 time=0.011904750000000002
EXTRACT: note_on channel=9 note=69 velocity=61 time=0
EXTRACT: note_on channel=9 note=69 velocity=0 time=0.001984125
EXTRACT: note_on channel=9 note=42 velocity=0 time=0
EXTRACT: note_on channel=5 note=64 velocity=0 time=0.041666625000000006
EXTRACT: note_on channel=5 note=61 velocity=0 time=0.005952375000000001
EXTRACT: note_on channel=9 note=67 velocity=0 time=0.0079365
EXTRACT: note_on channel=9 note=44 velocity=0 time=0
EXTRACT: note_on channel=7 note=57 velocity=0 time=0.00396825
EXTRACT: note_on channel=5 note=69 velocity=0 time=0.009920625
EXTRACT: note_on channel=9 note=27 velocity=0 time=0.005952375000000001
EXTRACT: note_on channel=7 note=61 velocity=0 time=0
EXTRACT: note_on channel=4 note=64 velocity=0 time=0.015873
EXTRACT: note_on channel=9 note=32 velocity=78 time=0.00396825
EXTRACT: note_on channel=9 note=36 velocity=107 time=0
EXTRACT: note_on channel=9 note=39 velocity=96 time=0
EXTRACT: note_on channel=9 note=42 velocity=83 time=0
EXTRACT: note_on channel=9 note=56 velocity=83 time=0
EXTRACT: note_on channel=1 note=37 velocity=77 time=0
EXTRACT: note_on channel=4 note=61 velocity=87 time=0
EXTRACT: note_on channel=7 note=52 velocity=88 time=0
EXTRACT: note_on channel=9 note=40 velocity=117 time=0
EXTRACT: note_on channel=9 note=36 velocity=126 time=0
EXTRACT: note_on channel=9 note=35 velocity=117 time=0
EXTRACT: note_on channel=9 note=39 velocity=121 time=0
EXTRACT: note_on channel=9 note=44 velocity=81 time=0
EXTRACT: note_on channel=9 note=69 velocity=78 time=0
EXTRACT: note_on channel=9 note=69 velocity=0 time=0.001984125
EXTRACT: note_on channel=9 note=36 velocity=0 time=0
EXTRACT: note_on channel=9 note=35 velocity=0 time=0
EXTRACT: note_on channel=9 note=40 velocity=0 time=0
EXTRACT: note_on channel=9 note=44 velocity=0 time=0
EXTRACT: note_on channel=9 note=39 velocity=0 time=0
EXTRACT: note_on channel=1 note=33 velocity=0 time=0.021825375
EXTRACT: note_on channel=6 note=69 velocity=0 time=0.0396825
EXTRACT: note_on channel=6 note=64 velocity=0 time=0
EXTRACT: note_on channel=6 note=61 velocity=0 time=0
EXTRACT: note_on channel=9 note=32 velocity=0 time=0.0079365
EXTRACT: note_on channel=9 note=39 velocity=0 time=0.00396825
EXTRACT: note_on channel=9 note=61 velocity=73 time=0.04365075
EXTRACT: note_on channel=9 note=61 velocity=0 time=0.001984125
EXTRACT: note_on channel=9 note=36 velocity=0 time=0.031746
EXTRACT: note_on channel=7 note=52 velocity=0 time=0.0079365
EXTRACT: note_on channel=4 note=61 velocity=0 time=0.03373012500000001
EXTRACT: note_on channel=9 note=42 velocity=0 time=0.023809500000000004
EXTRACT: note_on channel=9 note=32 velocity=69 time=0.01984125
EXTRACT: note_on channel=9 note=44 velocity=59 time=0
EXTRACT: note_on channel=9 note=68 velocity=38 time=0
EXTRACT: note_on channel=1 note=37 velocity=0 time=0
EXTRACT: note_on channel=1 note=40 velocity=81 time=0
EXTRACT: note_on channel=4 note=59 velocity=84 time=0
EXTRACT: note_on channel=5 note=61 velocity=71 time=0
EXTRACT: note_on channel=5 note=64 velocity=81 time=0
EXTRACT: note_on channel=5 note=69 velocity=93 time=0
EXTRACT: note_on channel=6 note=61 velocity=49 time=0
EXTRACT: note_on channel=6 note=64 velocity=59 time=0
EXTRACT: note_on channel=6 note=69 velocity=71 time=0
EXTRACT: note_on channel=7 note=57 velocity=64 time=0
EXTRACT: note_on channel=7 note=61 velocity=65 time=0
EXTRACT: note_on channel=9 note=42 velocity=73 time=0
EXTRACT: note_on channel=9 note=60 velocity=66 time=0
EXTRACT: note_on channel=9 note=60 velocity=0 time=0.001984125
EXTRACT: note_on channel=9 note=42 velocity=0 time=0
EXTRACT: note_on channel=9 note=70 velocity=105 time=0
EXTRACT: note_on channel=9 note=70 velocity=0 time=0.001984125
EXTRACT: note_on channel=9 note=68 velocity=0 time=0.037698375000000006
EXTRACT: note_on channel=9 note=44 velocity=0 time=0.001984125
EXTRACT: note_on channel=9 note=32 velocity=0 time=0.015873
EXTRACT: note_on channel=7 note=57 velocity=0 time=0.00396825
EXTRACT: note_on channel=5 note=64 velocity=0 time=0.005952375000000001
EXTRACT: note_on channel=5 note=61 velocity=0 time=0.00396825
EXTRACT: note_on channel=7 note=61 velocity=0 time=0
EXTRACT: note_on channel=5 note=69 velocity=0 time=0.005952375000000001
EXTRACT: note_on channel=9 note=56 velocity=0 time=0.00396825
EXTRACT: note_on channel=10 note=57 velocity=0 time=0.017857125
EXTRACT: note_on channel=10 note=69 velocity=0 time=0.011904750000000002
EXTRACT: note_on channel=9 note=62 velocity=69 time=0.005952375000000001
EXTRACT: note_on channel=10 note=52 velocity=0 time=0.001984125
EXTRACT: note_on channel=9 note=62 velocity=0 time=0
EXTRACT: note_on channel=9 note=32 velocity=69 time=0.0079365
EXTRACT: note_on channel=9 note=44 velocity=66 time=0
EXTRACT: note_on channel=9 note=68 velocity=40 time=0
EXTRACT: note_on channel=7 note=57 velocity=73 time=0
EXTRACT: note_on channel=7 note=61 velocity=60 time=0
EXTRACT: note_on channel=10 note=61 velocity=0 time=0.005952375000000001
EXTRACT: note_on channel=9 note=42 velocity=66 time=0.005952375000000001
EXTRACT: note_on channel=9 note=42 velocity=0 time=0.001984125
EXTRACT: note_on channel=10 note=73 velocity=0 time=0.0079365
EXTRACT: note_on channel=6 note=69 velocity=0 time=0.021825375
EXTRACT: note_on channel=6 note=64 velocity=0 time=0
EXTRACT: note_on channel=6 note=61 velocity=0 time=0
EXTRACT: note_on channel=9 note=44 velocity=0 time=0.017857125
EXTRACT: note_on channel=7 note=57 velocity=0 time=0.001984125
EXTRACT: note_on channel=9 note=68 velocity=0 time=0.009920625
EXTRACT: note_on channel=9 note=32 velocity=0 time=0
EXTRACT: note_on channel=7 note=61 velocity=0 time=0.005952375000000001
EXTRACT: note_on channel=4 note=59 velocity=0 time=0.025793625000000004
EXTRACT: note_on channel=9 note=27 velocity=88 time=0.00396825
EXTRACT: note_on channel=9 note=36 velocity=107 time=0
EXTRACT: note_on channel=9 note=42 velocity=97 time=0
EXTRACT: note_on channel=9 note=44 velocity=93 time=0
EXTRACT: note_on channel=9 note=56 velocity=77 time=0
EXTRACT: note_on channel=1 note=35 velocity=84 time=0
EXTRACT: note_on channel=10 note=54 velocity=67 time=0
EXTRACT: note_on channel=10 note=59 velocity=68 time=0
EXTRACT: note_on channel=10 note=66 velocity=57 time=0
EXTRACT: note_on channel=10 note=71 velocity=62 time=0
EXTRACT: note_on channel=4 note=64 velocity=103 time=0
EXTRACT: note_on channel=7 note=54 velocity=83 time=0
EXTRACT: note_on channel=9 note=36 velocity=126 time=0
EXTRACT: note_on channel=9 note=35 velocity=117 time=0
EXTRACT: note_on channel=9 note=44 velocity=81 time=0
EXTRACT: note_on channel=9 note=82 velocity=69 time=0
EXTRACT: note_on channel=9 note=56 velocity=87 time=0
EXTRACT: note_on channel=9 note=60 velocity=63 time=0
EXTRACT: note_on channel=1 note=40 velocity=0 time=0.001984125
EXTRACT: note_on channel=9 note=60 velocity=0 time=0
EXTRACT: note_on channel=9 note=35 velocity=0 time=0
EXTRACT: note_on channel=9 note=44 velocity=0 time=0
EXTRACT: note_on channel=9 note=36 velocity=0 time=0
EXTRACT: note_on channel=9 note=56 velocity=0 time=0
EXTRACT: note_on channel=9 note=82 velocity=0 time=0
EXTRACT: note_on channel=9 note=27 velocity=0 time=0.069444375
EXTRACT: note_on channel=4 note=64 velocity=0 time=0.037698375000000006
EXTRACT: note_on channel=7 note=54 velocity=0 time=0.005952375000000001
EXTRACT: note_on channel=9 note=32 velocity=77 time=0.013888875000000002
EXTRACT: note_on channel=5 note=59 velocity=75 time=0
EXTRACT: note_on channel=5 note=64 velocity=79 time=0
EXTRACT: note_on channel=5 note=66 velocity=75 time=0
EXTRACT: note_on channel=6 note=59 velocity=53 time=0
EXTRACT: note_on channel=6 note=64 velocity=57 time=0
EXTRACT: note_on channel=6 note=66 velocity=53 time=0
EXTRACT: note_on channel=9 note=82 velocity=43 time=0.011904750000000002
EXTRACT: note_on channel=9 note=82 velocity=0 time=0.001984125
EXTRACT: note_on channel=9 note=44 velocity=0 time=0.005952375000000001
EXTRACT: note_on channel=9 note=36 velocity=0 time=0
EXTRACT: note_on channel=5 note=64 velocity=0 time=0.009920625
EXTRACT: note_on channel=5 note=59 velocity=0 time=0.001984125
EXTRACT: note_on channel=9 note=32 velocity=0 time=0.023809500000000004
EXTRACT: note_on channel=5 note=66 velocity=0 time=0.017857125
EXTRACT: note_on channel=9 note=70 velocity=105 time=0.027777750000000004
EXTRACT: note_on channel=9 note=70 velocity=0 time=0.001984125
EXTRACT: note_on channel=9 note=42 velocity=0 time=0.001984125
EXTRACT: note_on channel=9 note=27 velocity=77 time=0.00396825
EXTRACT: note_on channel=9 note=44 velocity=63 time=0
EXTRACT: note_on channel=9 note=67 velocity=28 time=0
EXTRACT: note_on channel=4 note=64 velocity=99 time=0
EXTRACT: note_on channel=7 note=57 velocity=55 time=0
EXTRACT: note_on channel=7 note=59 velocity=64 time=0
EXTRACT: note_on channel=9 note=42 velocity=73 time=0
EXTRACT: note_on channel=9 note=82 velocity=48 time=0
EXTRACT: note_on channel=9 note=82 velocity=0 time=0.001984125
EXTRACT: note_on channel=9 note=42 velocity=0 time=0
EXTRACT: note_on channel=9 note=67 velocity=0 time=0.04365075
EXTRACT: note_on channel=9 note=44 velocity=0 time=0.00396825
EXTRACT: note_on channel=9 note=27 velocity=0 time=0.013888875000000002
EXTRACT: note_on channel=6 note=66 velocity=0 time=0
EXTRACT: note_on channel=6 note=64 velocity=0 time=0
EXTRACT: note_on channel=6 note=59 velocity=0 time=0
EXTRACT: note_on channel=7 note=59 velocity=0 time=0
EXTRACT: note_on channel=7 note=57 velocity=0 time=0
EXTRACT: note_on channel=9 note=56 velocity=0 time=0.015873
EXTRACT: note_on channel=9 note=56 velocity=87 time=0.0396825
EXTRACT: note_on channel=9 note=56 velocity=0 time=0.001984125
EXTRACT: note_on channel=9 note=44 velocity=52 time=0.0079365
EXTRACT: note_on channel=9 note=67 velocity=47 time=0
EXTRACT: note_on channel=7 note=57 velocity=66 time=0
EXTRACT: note_on channel=7 note=59 velocity=76 time=0
EXTRACT: note_on channel=9 note=42 velocity=66 time=0.011904750000000002
EXTRACT: note_on channel=9 note=82 velocity=40 time=0
EXTRACT: note_on channel=9 note=82 velocity=0 time=0.001984125
EXTRACT: note_on channel=9 note=42 velocity=0 time=0
EXTRACT: note_on channel=9 note=44 velocity=0 time=0.03571425
EXTRACT: note_on channel=9 note=67 velocity=0 time=0.001984125
EXTRACT: note_on channel=7 note=57 velocity=0 time=0.01984125
EXTRACT: note_on channel=7 note=59 velocity=0 time=0.0079365
EXTRACT: note_on channel=4 note=64 velocity=0 time=0.025793625000000004
EXTRACT: note_on channel=9 note=32 velocity=83 time=0.00396825
EXTRACT: note_on channel=9 note=36 velocity=107 time=0
EXTRACT: note_on channel=9 note=39 velocity=100 time=0
EXTRACT: note_on channel=9 note=42 velocity=79 time=0
EXTRACT: note_on channel=9 note=56 velocity=77 time=0
EXTRACT: note_on channel=1 note=39 velocity=90 time=0
EXTRACT: note_on channel=4 note=61 velocity=87 time=0
EXTRACT: note_on channel=5 note=59 velocity=72 time=0
EXTRACT: note_on channel=5 note=64 velocity=81 time=0
EXTRACT: note_on channel=5 note=66 velocity=76 time=0
EXTRACT: note_on channel=6 note=59 velocity=50 time=0
EXTRACT: note_on channel=6 note=64 velocity=59 time=0
EXTRACT: note_on channel=6 note=66 velocity=54 time=0
EXTRACT: note_on channel=7 note=54 velocity=84 time=0
EXTRACT: note_on channel=9 note=39 velocity=121 time=0
EXTRACT: note_on channel=9 note=40 velocity=117 time=0
EXTRACT: note_on channel=9 note=36 velocity=126 time=0
EXTRACT: note_on channel=9 note=35 velocity=117 time=0
EXTRACT: note_on channel=9 note=44 velocity=81 time=0
EXTRACT: note_on channel=9 note=82 velocity=69 time=0
EXTRACT: note_on channel=9 note=82 velocity=0 time=0.001984125
EXTRACT: note_on channel=9 note=40 velocity=0 time=0
EXTRACT: note_on channel=9 note=36 velocity=0 time=0
EXTRACT: note_on channel=9 note=39 velocity=0 time=0
EXTRACT: note_on channel=9 note=44 velocity=0 time=0
EXTRACT: note_on channel=9 note=35 velocity=0 time=0
EXTRACT: note_on channel=1 note=35 velocity=0 time=0.013888875000000002
EXTRACT: note_on channel=5 note=59 velocity=0 time=0.009920625
EXTRACT: note_on channel=9 note=32 velocity=0 time=0.037698375000000006
EXTRACT: note_on channel=5 note=64 velocity=0 time=0
EXTRACT: note_on channel=9 note=39 velocity=0 time=0.009920625
EXTRACT: note_on channel=5 note=66 velocity=0 time=0
EXTRACT: note_on channel=9 note=36 velocity=0 time=0.011904750000000002
EXTRACT: note_on channel=7 note=54 velocity=0 time=0.053571375000000004
EXTRACT: note_on channel=6 note=66 velocity=0 time=0.03373012500000001
EXTRACT: note_on channel=6 note=64 velocity=0 time=0
EXTRACT: note_on channel=6 note=59 velocity=0 time=0
EXTRACT: note_on channel=4 note=61 velocity=0 time=0.015873
EXTRACT: note_on channel=1 note=39 velocity=0 time=0.03373012500000001
EXTRACT: note_on channel=9 note=70 velocity=105 time=0.009920625
EXTRACT: note_on channel=9 note=42 velocity=0 time=0.001984125
EXTRACT: note_on channel=9 note=70 velocity=0 time=0
EXTRACT: note_on channel=9 note=32 velocity=79 time=0.00396825
EXTRACT: note_on channel=9 note=44 velocity=66 time=0
EXTRACT: note_on channel=9 note=68 velocity=45 time=0
EXTRACT: note_on channel=1 note=42 velocity=86 time=0
EXTRACT: note_on channel=4 note=59 velocity=89 time=0
EXTRACT: note_on channel=5 note=59 velocity=81 time=0
EXTRACT: note_on channel=5 note=63 velocity=78 time=0
EXTRACT: note_on channel=5 note=66 velocity=78 time=0
EXTRACT: note_on channel=6 note=59 velocity=59 time=0
EXTRACT: note_on channel=6 note=63 velocity=56 time=0
EXTRACT: note_on channel=6 note=66 velocity=56 time=0
EXTRACT: note_on channel=7 note=57 velocity=64 time=0
EXTRACT: note_on channel=7 note=59 velocity=70 time=0
EXTRACT: note_on channel=9 note=42 velocity=73 time=0
EXTRACT: note_on channel=9 note=69 velocity=78 time=0
EXTRACT: note_on channel=9 note=56 velocity=87 time=0
EXTRACT: note_on channel=9 note=56 velocity=0 time=0.001984125
EXTRACT: note_on channel=9 note=69 velocity=0 time=0
EXTRACT: note_on channel=9 note=42 velocity=0 time=0
EXTRACT: note_on channel=9 note=44 velocity=0 time=0.05158725000000001
EXTRACT: note_on channel=9 note=68 velocity=0 time=0.005952375000000001
EXTRACT: note_on channel=9 note=32 velocity=0 time=0
EXTRACT: note_on channel=10 note=71 velocity=0 time=0.001984125
EXTRACT: note_on channel=9 note=56 velocity=0 time=0.001984125
EXTRACT: note_on channel=5 note=63 velocity=0 time=0
EXTRACT: note_on channel=7 note=59 velocity=0 time=0
EXTRACT: note_on channel=7 note=57 velocity=0 time=0
EXTRACT: note_on channel=5 note=59 velocity=0 time=0.009920625
EXTRACT: note_on channel=5 note=66 velocity=0 time=0.005952375000000001
EXTRACT: note_on channel=10 note=66 velocity=0 time=0.005952375000000001
EXTRACT: note_on channel=10 note=59 velocity=0 time=0.01984125
EXTRACT: note_on channel=9 note=32 velocity=71 time=0.023809500000000004
EXTRACT: note_on channel=9 note=44 velocity=55 time=0
EXTRACT: note_on channel=9 note=68 velocity=29 time=0
EXTRACT: note_on channel=7 note=57 velocity=69 time=0
EXTRACT: note_on channel=7 note=59 velocity=57 time=0
EXTRACT: note_on channel=10 note=54 velocity=0 time=0.011904750000000002
EXTRACT: note_on channel=9 note=42 velocity=66 time=0
EXTRACT: note_on channel=9 note=69 velocity=73 time=0
EXTRACT: note_on channel=9 note=69 velocity=0 time=0.001984125
EXTRACT: note_on channel=9 note=42 velocity=0 time=0
EXTRACT: note_on channel=6 note=66 velocity=0 time=0.029761875000000004
EXTRACT: note_on channel=6 note=63 velocity=0 time=0
EXTRACT: note_on channel=6 note=59 velocity=0 time=0
EXTRACT: note_on channel=9 note=44 velocity=0 time=0.009920625
EXTRACT: note_on channel=9 note=32 velocity=0 time=0.009920625
EXTRACT: note_on channel=7 note=59 velocity=0 time=0
EXTRACT: note_on channel=7 note=57 velocity=0 time=0.005952375000000001
EXTRACT: note_on channel=9 note=68 velocity=0 time=0.001984125
EXTRACT: note_on channel=4 note=59 velocity=0 time=0.013888875000000002
EXTRACT: note_on channel=9 note=27 velocity=86 time=0.023809500000000004
EXTRACT: note_on channel=9 note=36 velocity=109 time=0
EXTRACT: note_on channel=9 note=42 velocity=89 time=0
EXTRACT: note_on channel=9 note=44 velocity=86 time=0
EXTRACT: note_on channel=9 note=56 velocity=79 time=0
EXTRACT: note_on channel=10 note=56 velocity=74 time=0
EXTRACT: note_on channel=10 note=59 velocity=68 time=0
EXTRACT: note_on channel=10 note=63 velocity=64 time=0
EXTRACT: note_on channel=10 note=68 velocity=74 time=0
EXTRACT: note_on channel=10 note=71 velocity=69 time=0
EXTRACT: note_on channel=5 note=59 velocity=78 time=0
EXTRACT: note_on channel=5 note=63 velocity=92 time=0
EXTRACT: note_on channel=5 note=68 velocity=86 time=0
EXTRACT: note_on channel=6 note=59 velocity=56 time=0
EXTRACT: note_on channel=6 note=63 velocity=70 time=0
EXTRACT: note_on channel=6 note=68 velocity=64 time=0
EXTRACT: note_on channel=7 note=56 velocity=91 time=0
EXTRACT: note_on channel=9 note=36 velocity=126 time=0
EXTRACT: note_on channel=9 note=35 velocity=117 time=0
EXTRACT: note_on channel=9 note=35 velocity=0 time=0.001984125
EXTRACT: note_on channel=9 note=36 velocity=0 time=0
EXTRACT: note_on channel=1 note=42 velocity=0 time=0.011904750000000002
EXTRACT: note_on channel=5 note=59 velocity=0 time=0.015873
EXTRACT: note_on channel=5 note=63 velocity=0 time=0.021825375
EXTRACT: note_on channel=9 note=27 velocity=0 time=0.027777750000000004
EXTRACT: note_on channel=5 note=68 velocity=0 time=0.005952375000000001
EXTRACT: note_on channel=9 note=36 velocity=0 time=0.00396825
EXTRACT: note_on channel=7 note=56 velocity=0 time=0.04365075
EXTRACT: note_on channel=9 note=69 velocity=84 time=0.0079365
EXTRACT: note_on channel=9 note=69 velocity=0 time=0.001984125
EXTRACT: note_on channel=6 note=68 velocity=0 time=0.029761875000000004
EXTRACT: note_on channel=6 note=63 velocity=0 time=0
EXTRACT: note_on channel=6 note=59 velocity=0 time=0
EXTRACT: note_on channel=9 note=44 velocity=0 time=0.03571425
EXTRACT: note_on channel=9 note=42 velocity=0 time=0.025793625000000004
EXTRACT: note_on channel=9 note=70 velocity=105 time=0
EXTRACT: note_on channel=9 note=27 velocity=85 time=0.00396825
EXTRACT: note_on channel=9 note=44 velocity=52 time=0
EXTRACT: note_on channel=9 note=67 velocity=37 time=0
EXTRACT: note_on channel=1 note=32 velocity=90 time=0
EXTRACT: note_on channel=3 note=73 velocity=91 time=0
EXTRACT: note_on channel=7 note=59 velocity=70 time=0
EXTRACT: note_on channel=7 note=63 velocity=70 time=0
EXTRACT: note_on channel=9 note=70 velocity=0 time=0
EXTRACT: note_on channel=9 note=42 velocity=73 time=0
EXTRACT: note_on channel=9 note=62 velocity=79 time=0
EXTRACT: note_on channel=9 note=62 velocity=0 time=0.001984125
EXTRACT: note_on channel=9 note=42 velocity=0 time=0
EXTRACT: note_on channel=9 note=44 velocity=0 time=0.027777750000000004
EXTRACT: note_on channel=9 note=67 velocity=0 time=0.011904750000000002
EXTRACT: note_on channel=7 note=63 velocity=0 time=0.021825375
EXTRACT: note_on channel=7 note=59 velocity=0 time=0
EXTRACT: note_on channel=9 note=27 velocity=0 time=0.011904750000000002
EXTRACT: note_on channel=9 note=56 velocity=0 time=0.009920625
EXTRACT: note_on channel=9 note=61 velocity=69 time=0.03373012500000001
EXTRACT: note_on channel=9 note=61 velocity=0 time=0.001984125
EXTRACT: note_on channel=9 note=44 velocity=67 time=0.0079365
EXTRACT: note_on channel=9 note=67 velocity=47 time=0
EXTRACT: note_on channel=5 note=59 velocity=77 time=0
EXTRACT: note_on channel=5 note=63 velocity=87 time=0
EXTRACT: note_on channel=5 note=68 velocity=87 time=0
EXTRACT: note_on channel=6 note=59 velocity=55 time=0
EXTRACT: note_on channel=6 note=63 velocity=65 time=0
EXTRACT: note_on channel=6 note=68 velocity=65 time=0
EXTRACT: note_on channel=7 note=59 velocity=51 time=0
EXTRACT: note_on channel=7 note=63 velocity=77 time=0
EXTRACT: note_on channel=9 note=42 velocity=66 time=0.011904750000000002
EXTRACT: note_on channel=9 note=69 velocity=68 time=0
EXTRACT: note_on channel=9 note=69 velocity=0 time=0.001984125
EXTRACT: note_on channel=9 note=42 velocity=0 time=0
EXTRACT: note_on channel=5 note=59 velocity=0 time=0.015873
EXTRACT: note_on channel=5 note=63 velocity=0 time=0.01984125
EXTRACT: note_on channel=9 note=44 velocity=0 time=0.00396825
EXTRACT: note_on channel=9 note=67 velocity=0 time=0.0079365
EXTRACT: note_on channel=7 note=63 velocity=0 time=0.0079365
EXTRACT: note_on channel=7 note=59 velocity=0 time=0.00396825
EXTRACT: note_on channel=5 note=68 velocity=0 time=0.011904750000000002
EXTRACT: note_on channel=3 note=73 velocity=0 time=0.01984125
EXTRACT: note_on channel=9 note=32 velocity=83 time=0.00396825
EXTRACT: note_on channel=9 note=36 velocity=109 time=0
EXTRACT: note_on channel=9 note=39 velocity=100 time=0
EXTRACT: note_on channel=9 note=42 velocity=86 time=0
EXTRACT: note_on channel=9 note=56 velocity=82 time=0
EXTRACT: note_on channel=1 note=35 velocity=80 time=0
EXTRACT: note_on channel=3 note=71 velocity=94 time=0
EXTRACT: note_on channel=7 note=56 velocity=87 time=0
EXTRACT: note_on channel=9 note=39 velocity=121 time=0
EXTRACT: note_on channel=9 note=36 velocity=126 time=0
EXTRACT: note_on channel=9 note=35 velocity=117 time=0
EXTRACT: note_on channel=9 note=40 velocity=117 time=0
EXTRACT: note_on channel=9 note=44 velocity=81 time=0
EXTRACT: note_on channel=9 note=44 velocity=0 time=0.001984125
EXTRACT: note_on channel=9 note=35 velocity=0 time=0
EXTRACT: note_on channel=9 note=39 velocity=0 time=0
EXTRACT: note_on channel=9 note=36 velocity=0 time=0
EXTRACT: note_on channel=9 note=40 velocity=0 time=0
EXTRACT: note_on channel=1 note=32 velocity=0 time=0.01984125
EXTRACT: note_on channel=6 note=68 velocity=0 time=0.041666625000000006
EXTRACT: note_on channel=6 note=63 velocity=0 time=0
EXTRACT: note_on channel=6 note=59 velocity=0 time=0
EXTRACT: note_on channel=9 note=39 velocity=0 time=0.005952375000000001
EXTRACT: note_on channel=9 note=32 velocity=0 time=0.001984125
EXTRACT: note_on channel=9 note=36 velocity=0 time=0.0079365
EXTRACT: note_on channel=9 note=62 velocity=73 time=0.0396825
EXTRACT: note_on channel=9 note=62 velocity=0 time=0.001984125
EXTRACT: note_on channel=7 note=56 velocity=0 time=0.001984125
EXTRACT: note_on channel=9 note=42 velocity=0 time=0.11111100000000002
EXTRACT: note_on channel=3 note=71 velocity=0 time=0
EXTRACT: note_on channel=9 note=32 velocity=78 time=0.00396825
EXTRACT: note_on channel=9 note=44 velocity=59 time=0
EXTRACT: note_on channel=9 note=68 velocity=41 time=0
EXTRACT: note_on channel=1 note=39 velocity=84 time=0
EXTRACT: note_on channel=3 note=73 velocity=87 time=0
EXTRACT: note_on channel=5 note=59 velocity=82 time=0
EXTRACT: note_on channel=5 note=63 velocity=96 time=0
EXTRACT: note_on channel=5 note=68 velocity=89 time=0
EXTRACT: note_on channel=6 note=59 velocity=60 time=0
EXTRACT: note_on channel=6 note=63 velocity=74 time=0
EXTRACT: note_on channel=6 note=68 velocity=67 time=0
EXTRACT: note_on channel=7 note=59 velocity=74 time=0
EXTRACT: note_on channel=7 note=63 velocity=79 time=0
EXTRACT: note_on channel=9 note=42 velocity=73 time=0
EXTRACT: note_on channel=9 note=61 velocity=66 time=0
EXTRACT: note_on channel=9 note=61 velocity=0 time=0.001984125
EXTRACT: note_on channel=9 note=42 velocity=0 time=0
EXTRACT: note_on channel=9 note=70 velocity=105 time=0.001984125
EXTRACT: note_on channel=1 note=35 velocity=0 time=0.001984125
EXTRACT: note_on channel=9 note=70 velocity=0 time=0
EXTRACT: note_on channel=9 note=44 velocity=0 time=0.03373012500000001
EXTRACT: note_on channel=9 note=68 velocity=0 time=0.00396825
EXTRACT: note_on channel=5 note=59 velocity=0 time=0.011904750000000002
EXTRACT: note_on channel=5 note=63 velocity=0 time=0.005952375000000001
EXTRACT: note_on channel=7 note=59 velocity=0 time=0.001984125
EXTRACT: note_on channel=9 note=32 velocity=0 time=0.001984125
EXTRACT: note_on channel=7 note=63 velocity=0 time=0
EXTRACT: note_on channel=9 note=56 velocity=0 time=0.027777750000000004
EXTRACT: note_on channel=10 note=68 velocity=0 time=0
EXTRACT: note_on channel=10 note=71 velocity=0 time=0.001984125
EXTRACT: note_on channel=5 note=68 velocity=0 time=0
EXTRACT: note_on channel=9 note=32 velocity=55 time=0.03373012500000001
EXTRACT: note_on channel=9 note=44 velocity=59 time=0
EXTRACT: note_on channel=9 note=68 velocity=42 time=0
EXTRACT: note_on channel=7 note=59 velocity=62 time=0
EXTRACT: note_on channel=7 note=63 velocity=75 time=0
EXTRACT: note_on channel=10 note=63 velocity=0 time=0.005952375000000001
EXTRACT: note_on channel=9 note=42 velocity=66 time=0.005952375000000001
EXTRACT: note_on channel=9 note=82 velocity=48 time=0
EXTRACT: note_on channel=9 note=82 velocity=0 time=0.001984125
EXTRACT: note_on channel=9 note=42 velocity=0 time=0
EXTRACT: note_on channel=3 note=73 velocity=0 time=0.015873
EXTRACT: note_on channel=1 note=39 velocity=0 time=0.005952375000000001
EXTRACT: note_on channel=6 note=68 velocity=0 time=0.0079365
EXTRACT: note_on channel=6 note=63 velocity=0 time=0
EXTRACT: note_on channel=6 note=59 velocity=0 time=0
EXTRACT: note_on channel=9 note=32 velocity=0 time=0.009920625
EXTRACT: note_on channel=9 note=44 velocity=0 time=0.005952375000000001
EXTRACT: note_on channel=10 note=56 velocity=0 time=0.00396825
EXTRACT: note_on channel=7 note=63 velocity=0 time=0
EXTRACT: note_on channel=10 note=59 velocity=0 time=0.001984125
EXTRACT: note_on channel=9 note=68 velocity=0 time=0.005952375000000001
EXTRACT: note_on channel=7 note=59 velocity=0 time=0.001984125
EXTRACT: note_on channel=9 note=27 velocity=87 time=0.03571425
EXTRACT: note_on channel=9 note=36 velocity=107 time=0
EXTRACT: note_on channel=9 note=42 velocity=94 time=0
EXTRACT: note_on channel=9 note=44 velocity=93 time=0
EXTRACT: note_on channel=9 note=56 velocity=82 time=0
EXTRACT: note_on channel=1 note=37 velocity=87 time=0
EXTRACT: note_on channel=10 note=56 velocity=73 time=0
EXTRACT: note_on channel=10 note=61 velocity=43 time=0
EXTRACT: note_on channel=10 note=64 velocity=58 time=0
EXTRACT: note_on channel=10 note=68 velocity=75 time=0
EXTRACT: note_on channel=10 note=73 velocity=64 time=0
EXTRACT: note_on channel=7 note=56 velocity=89 time=0
EXTRACT: note_on channel=9 note=36 velocity=126 time=0
EXTRACT: note_on channel=9 note=35 velocity=117 time=0
EXTRACT: note_on channel=9 note=44 velocity=81 time=0
EXTRACT: note_on channel=9 note=82 velocity=55 time=0
EXTRACT: note_on channel=9 note=56 velocity=80 time=0
EXTRACT: note_on channel=9 note=56 velocity=0 time=0.001984125
EXTRACT: note_on channel=9 note=44 velocity=0 time=0
EXTRACT: note_on channel=9 note=36 velocity=0 time=0
EXTRACT: note_on channel=9 note=35 velocity=0 time=0
EXTRACT: note_on channel=9 note=82 velocity=0 time=0
EXTRACT: note_on channel=9 note=36 velocity=0 time=0.077380875
EXTRACT: note_on channel=9 note=27 velocity=0 time=0.005952375000000001
EXTRACT: note_on channel=5 note=61 velocity=76 time=0.04365075
EXTRACT: note_on channel=5 note=64 velocity=94 time=0
EXTRACT: note_on channel=5 note=68 velocity=87 time=0
EXTRACT: note_on channel=6 note=61 velocity=54 time=0
EXTRACT: note_on channel=6 note=64 velocity=72 time=0
EXTRACT: note_on channel=6 note=68 velocity=65 time=0
EXTRACT: note_on channel=9 note=82 velocity=63 time=0.011904750000000002
EXTRACT: note_on channel=9 note=82 velocity=0 time=0.001984125
EXTRACT: note_on channel=7 note=56 velocity=0 time=0.017857125
EXTRACT: note_on channel=1 note=37 velocity=0 time=0.0079365
EXTRACT: note_on channel=9 note=44 velocity=0 time=0.001984125
EXTRACT: note_on channel=5 note=61 velocity=0 time=0.01984125
EXTRACT: note_on channel=5 note=64 velocity=0 time=0.001984125
EXTRACT: note_on channel=5 note=68 velocity=0 time=0.0079365
EXTRACT: note_on channel=9 note=42 velocity=0 time=0.03373012500000001
EXTRACT: note_on channel=9 note=27 velocity=86 time=0.00396825
EXTRACT: note_on channel=9 note=44 velocity=64 time=0
EXTRACT: note_on channel=9 note=65 velocity=92 time=0
EXTRACT: note_on channel=9 note=67 velocity=55 time=0
EXTRACT: note_on channel=1 note=37 velocity=91 time=0
EXTRACT: note_on channel=3 note=73 velocity=85 time=0
EXTRACT: note_on channel=7 note=61 velocity=61 time=0
EXTRACT: note_on channel=7 note=64 velocity=69 time=0
EXTRACT: note_on channel=9 note=42 velocity=73 time=0
EXTRACT: note_on channel=9 note=82 velocity=59 time=0
EXTRACT: note_on channel=9 note=63 velocity=60 time=0
EXTRACT: note_on channel=9 note=63 velocity=0 time=0.001984125
EXTRACT: note_on channel=9 note=82 velocity=0 time=0
EXTRACT: note_on channel=9 note=42 velocity=0 time=0
EXTRACT: note_on channel=9 note=70 velocity=105 time=0.001984125
EXTRACT: note_on channel=9 note=70 velocity=0 time=0.001984125
EXTRACT: note_on channel=9 note=44 velocity=0 time=0.027777750000000004
EXTRACT: note_on channel=9 note=67 velocity=0 time=0.005952375000000001
EXTRACT: note_on channel=6 note=68 velocity=0 time=0.023809500000000004
EXTRACT: note_on channel=6 note=64 velocity=0 time=0
EXTRACT: note_on channel=6 note=61 velocity=0 time=0
EXTRACT: note_on channel=7 note=64 velocity=0 time=0
EXTRACT: note_on channel=7 note=61 velocity=0 time=0
EXTRACT: note_on channel=9 note=65 velocity=0 time=0.001984125
EXTRACT: note_on channel=9 note=56 velocity=0 time=0.005952375000000001
EXTRACT: note_on channel=9 note=27 velocity=0 time=0.011904750000000002
EXTRACT: note_on channel=9 note=56 velocity=89 time=0.03571425
EXTRACT: note_on channel=9 note=56 velocity=0 time=0.001984125
EXTRACT: note_on channel=9 note=44 velocity=67 time=0.0079365
EXTRACT: note_on channel=9 note=65 velocity=84 time=0
EXTRACT: note_on channel=9 note=67 velocity=40 time=0
EXTRACT: note_on channel=7 note=61 velocity=69 time=0
EXTRACT: note_on channel=7 note=64 velocity=67 time=0
EXTRACT: note_on channel=9 note=42 velocity=66 time=0.011904750000000002
EXTRACT: note_on channel=9 note=82 velocity=45 time=0
EXTRACT: note_on channel=9 note=82 velocity=0 time=0.001984125
EXTRACT: note_on channel=9 note=42 velocity=0 time=0
EXTRACT: note_on channel=9 note=67 velocity=0 time=0.029761875000000004
EXTRACT: note_on channel=9 note=65 velocity=0 time=0.011904750000000002
EXTRACT: note_on channel=9 note=44 velocity=0 time=0.00396825
EXTRACT: note_on channel=7 note=64 velocity=0 time=0.013888875000000002
EXTRACT: note_on channel=7 note=61 velocity=0 time=0.005952375000000001
EXTRACT: note_on channel=1 note=37 velocity=0 time=0.00396825
EXTRACT: note_on channel=3 note=73 velocity=0 time=0.021825375
EXTRACT: note_on channel=9 note=32 velocity=87 time=0.00396825
EXTRACT: note_on channel=9 note=36 velocity=107 time=0
EXTRACT: note_on channel=9 note=39 velocity=103 time=0
EXTRACT: note_on channel=9 note=42 velocity=88 time=0
EXTRACT: note_on channel=9 note=56 velocity=82 time=0
EXTRACT: note_on channel=9 note=66 velocity=87 time=0
EXTRACT: note_on channel=1 note=35 velocity=82 time=0
EXTRACT: note_on channel=3 note=71 velocity=91 time=0
EXTRACT: note_on channel=5 note=61 velocity=71 time=0
EXTRACT: note_on channel=5 note=64 velocity=85 time=0
EXTRACT: note_on channel=5 note=68 velocity=80 time=0
EXTRACT: note_on channel=6 note=61 velocity=49 time=0
EXTRACT: note_on channel=6 note=64 velocity=63 time=0
EXTRACT: note_on channel=6 note=68 velocity=58 time=0
EXTRACT: note_on channel=7 note=56 velocity=86 time=0
EXTRACT: note_on channel=9 note=36 velocity=126 time=0
EXTRACT: note_on channel=9 note=35 velocity=117 time=0
EXTRACT: note_on channel=9 note=39 velocity=121 time=0
EXTRACT: note_on channel=9 note=40 velocity=117 time=0
EXTRACT: note_on channel=9 note=44 velocity=81 time=0
EXTRACT: note_on channel=9 note=82 velocity=60 time=0
EXTRACT: note_on channel=9 note=82 velocity=0 time=0.001984125
EXTRACT: note_on channel=9 note=35 velocity=0 time=0
EXTRACT: note_on channel=9 note=39 velocity=0 time=0
EXTRACT: note_on channel=9 note=36 velocity=0 time=0
EXTRACT: note_on channel=9 note=44 velocity=0 time=0
EXTRACT: note_on channel=9 note=40 velocity=0 time=0
EXTRACT: note_on channel=9 note=32 velocity=0 time=0.063492
EXTRACT: note_on channel=5 note=64 velocity=0 time=0
EXTRACT: note_on channel=5 note=61 velocity=0 time=0.00396825
EXTRACT: note_on channel=9 note=39 velocity=0 time=0.001984125
EXTRACT: note_on channel=9 note=36 velocity=0 time=0.0079365
EXTRACT: note_on channel=5 note=68 velocity=0 time=0.001984125
EXTRACT: note_on channel=9 note=66 velocity=0 time=0.001984125
EXTRACT: note_on channel=7 note=56 velocity=0 time=0.0396825
EXTRACT: note_on channel=6 note=68 velocity=0 time=0.049603125000000005
EXTRACT: note_on channel=6 note=64 velocity=0 time=0
EXTRACT: note_on channel=6 note=61 velocity=0 time=0
EXTRACT: note_on channel=9 note=42 velocity=0 time=0.03571425
EXTRACT: note_on channel=3 note=71 velocity=0 time=0.005952375000000001
EXTRACT: note_on channel=9 note=70 velocity=105 time=0.017857125
EXTRACT: note_on channel=9 note=70 velocity=0 time=0.001984125
EXTRACT: note_on channel=9 note=32 velocity=74 time=0.00396825
EXTRACT: note_on channel=9 note=36 velocity=95 time=0
EXTRACT: note_on channel=9 note=44 velocity=64 time=0
EXTRACT: note_on channel=9 note=66 velocity=75 time=0
EXTRACT: note_on channel=9 note=68 velocity=48 time=0
EXTRACT: note_on channel=1 note=35 velocity=0 time=0
EXTRACT: note_on channel=1 note=37 velocity=88 time=0
EXTRACT: note_on channel=3 note=73 velocity=83 time=0
EXTRACT: note_on channel=5 note=61 velocity=80 time=0
EXTRACT: note_on channel=5 note=64 velocity=87 time=0
EXTRACT: note_on channel=5 note=68 velocity=88 time=0
EXTRACT: note_on channel=6 note=61 velocity=58 time=0
EXTRACT: note_on channel=6 note=64 velocity=65 time=0
EXTRACT: note_on channel=6 note=68 velocity=66 time=0
EXTRACT: note_on channel=7 note=61 velocity=71 time=0
EXTRACT: note_on channel=7 note=64 velocity=76 time=0
EXTRACT: note_on channel=9 note=42 velocity=75 time=0
EXTRACT: note_on channel=9 note=69 velocity=87 time=0
EXTRACT: note_on channel=9 note=56 velocity=87 time=0
EXTRACT: note_on channel=9 note=56 velocity=0 time=0.001984125
EXTRACT: note_on channel=9 note=69 velocity=0 time=0
EXTRACT: note_on channel=9 note=42 velocity=0 time=0
EXTRACT: note_on channel=9 note=68 velocity=0 time=0.023809500000000004
EXTRACT: note_on channel=9 note=44 velocity=0 time=0.01984125
EXTRACT: note_on channel=9 note=36 velocity=0 time=0.0079365
EXTRACT: note_on channel=10 note=64 velocity=0 time=0.001984125
EXTRACT: note_on channel=9 note=32 velocity=0 time=0.00396825
EXTRACT: note_on channel=9 note=56 velocity=0 time=0.001984125
EXTRACT: note_on channel=5 note=64 velocity=0 time=0.00396825
EXTRACT: note_on channel=5 note=61 velocity=0 time=0
EXTRACT: note_on channel=9 note=66 velocity=0 time=0.00396825
EXTRACT: note_on channel=5 note=68 velocity=0 time=0
EXTRACT: note_on channel=7 note=64 velocity=0 time=0
EXTRACT: note_on channel=7 note=61 velocity=0 time=0.005952375000000001
EXTRACT: note_on channel=10 note=61 velocity=0 time=0.00396825
EXTRACT: note_on channel=10 note=56 velocity=0 time=0.015873
EXTRACT: note_on channel=10 note=73 velocity=0 time=0.009920625
EXTRACT: note_on channel=10 note=68 velocity=0 time=0.00396825
EXTRACT: note_on channel=9 note=62 velocity=64 time=0.009920625
EXTRACT: note_on channel=9 note=62 velocity=0 time=0.001984125
EXTRACT: note_on channel=9 note=32 velocity=69 time=0.0079365
EXTRACT: note_on channel=9 note=44 velocity=62 time=0
EXTRACT: note_on channel=9 note=65 velocity=79 time=0
EXTRACT: note_on channel=9 note=68 velocity=54 time=0
EXTRACT: note_on channel=7 note=61 velocity=66 time=0
EXTRACT: note_on channel=7 note=64 velocity=72 time=0
EXTRACT: note_on channel=9 note=42 velocity=66 time=0.011904750000000002
EXTRACT: note_on channel=9 note=69 velocity=69 time=0
EXTRACT: note_on channel=9 note=69 velocity=0 time=0.001984125
EXTRACT: note_on channel=9 note=42 velocity=0 time=0
EXTRACT: note_on channel=3 note=73 velocity=0 time=0.029761875000000004
EXTRACT: note_on channel=6 note=68 velocity=0 time=0
EXTRACT: note_on channel=6 note=64 velocity=0 time=0
EXTRACT: note_on channel=6 note=61 velocity=0 time=0
EXTRACT: note_on channel=1 note=37 velocity=0 time=0.0079365
EXTRACT: note_on channel=9 note=68 velocity=0 time=0.009920625
EXTRACT: note_on channel=9 note=44 velocity=0 time=0
EXTRACT: note_on channel=7 note=64 velocity=0 time=0.001984125
EXTRACT: note_on channel=9 note=32 velocity=0 time=0.001984125
EXTRACT: note_on channel=7 note=61 velocity=0 time=0.013888875000000002
EXTRACT: note_on channel=9 note=27 velocity=94 time=0.029761875000000004
EXTRACT: note_on channel=9 note=36 velocity=109 time=0
EXTRACT: note_on channel=9 note=42 velocity=92 time=0
EXTRACT: note_on channel=9 note=49 velocity=98 time=0
EXTRACT: note_on channel=9 note=56 velocity=87 time=0
EXTRACT: note_on channel=1 note=33 velocity=85 time=0
EXTRACT: note_on channel=10 note=52 velocity=79 time=0
EXTRACT: note_on channel=10 note=57 velocity=51 time=0
EXTRACT: note_on channel=10 note=61 velocity=61 time=0
EXTRACT: note_on channel=10 note=69 velocity=80 time=0
EXTRACT: note_on channel=10 note=73 velocity=61 time=0
EXTRACT: note_on channel=10 note=76 velocity=79 time=0
EXTRACT: note_on channel=4 note=64 velocity=118 time=0
EXTRACT: note_on channel=5 note=61 velocity=84 time=0
EXTRACT: note_on channel=5 note=64 velocity=83 time=0
EXTRACT: note_on channel=5 note=69 velocity=78 time=0
EXTRACT: note_on channel=6 note=61 velocity=62 time=0
EXTRACT: note_on channel=6 note=64 velocity=61 time=0
EXTRACT: note_on channel=6 note=69 velocity=56 time=0
EXTRACT: note_on channel=7 note=52 velocity=91 time=0
EXTRACT: note_on channel=9 note=36 velocity=126 time=0
EXTRACT: note_on channel=9 note=35 velocity=117 time=0
EXTRACT: note_on channel=9 note=44 velocity=81 time=0
EXTRACT: note_on channel=9 note=60 velocity=69 time=0
EXTRACT: note_on channel=9 note=60 velocity=0 time=0.001984125
EXTRACT: note_on channel=9 note=36 velocity=0 time=0
EXTRACT: note_on channel=9 note=35 velocity=0 time=0
EXTRACT: note_on channel=9 note=44 velocity=0 time=0
EXTRACT: note_on channel=9 note=65 velocity=0 time=0.00396825
EXTRACT: note_on channel=5 note=64 velocity=0 time=0.04761900000000001
EXTRACT: note_on channel=9 note=27 velocity=0 time=0.011904750000000002
EXTRACT: note_on channel=5 note=69 velocity=0 time=0.00396825
EXTRACT: note_on channel=5 note=61 velocity=0 time=0
EXTRACT: note_on channel=9 note=36 velocity=0 time=0.001984125
EXTRACT: note_on channel=7 note=52 velocity=0 time=0.031746
EXTRACT: note_on channel=4 note=64 velocity=0 time=0.005952375000000001
EXTRACT: note_on channel=9 note=69 velocity=93 time=0.031746
EXTRACT: note_on channel=9 note=69 velocity=0 time=0.001984125
EXTRACT: note_on channel=1 note=33 velocity=0 time=0.017857125
EXTRACT: note_on channel=6 note=69 velocity=0 time=0.011904750000000002
EXTRACT: note_on channel=6 note=64 velocity=0 time=0
EXTRACT: note_on channel=6 note=61 velocity=0 time=0
EXTRACT: note_on channel=9 note=42 velocity=0 time=0.061507875000000004
EXTRACT: note_on channel=9 note=27 velocity=79 time=0.00396825
EXTRACT: note_on channel=9 note=44 velocity=64 time=0
EXTRACT: note_on channel=9 note=67 velocity=41 time=0
EXTRACT: note_on channel=1 note=33 velocity=80 time=0
EXTRACT: note_on channel=4 note=64 velocity=101 time=0
EXTRACT: note_on channel=7 note=57 velocity=51 time=0
EXTRACT: note_on channel=7 note=61 velocity=56 time=0
EXTRACT: note_on channel=9 note=42 velocity=73 time=0
EXTRACT: note_on channel=9 note=62 velocity=59 time=0
EXTRACT: note_on channel=9 note=70 velocity=105 time=0
EXTRACT: note_on channel=9 note=70 velocity=0 time=0.001984125
EXTRACT: note_on channel=9 note=62 velocity=0 time=0
EXTRACT: note_on channel=9 note=42 velocity=0 time=0
EXTRACT: note_on channel=9 note=67 velocity=0 time=0.0396825
EXTRACT: note_on channel=9 note=44 velocity=0 time=0.013888875000000002
EXTRACT: note_on channel=9 note=56 velocity=0 time=0.0079365
EXTRACT: note_on channel=7 note=61 velocity=0 time=0
EXTRACT: note_on channel=7 note=57 velocity=0 time=0
EXTRACT: note_on channel=9 note=27 velocity=0 time=0.0079365
EXTRACT: note_on channel=9 note=60 velocity=63 time=0.04761900000000001
EXTRACT: note_on channel=9 note=60 velocity=0 time=0.001984125
EXTRACT: note_on channel=9 note=32 velocity=71 time=0.0079365
EXTRACT: note_on channel=9 note=67 velocity=33 time=0
EXTRACT: note_on channel=5 note=61 velocity=74 time=0
EXTRACT: note_on channel=5 note=64 velocity=83 time=0
EXTRACT: note_on channel=5 note=69 velocity=87 time=0
EXTRACT: note_on channel=6 note=61 velocity=52 time=0
EXTRACT: note_on channel=6 note=64 velocity=61 time=0
EXTRACT: note_on channel=6 note=69 velocity=65 time=0
EXTRACT: note_on channel=7 note=57 velocity=75 time=0
EXTRACT: note_on channel=7 note=61 velocity=60 time=0
EXTRACT: note_on channel=9 note=44 velocity=73 time=0.009920625
EXTRACT: note_on channel=9 note=42 velocity=66 time=0.001984125
EXTRACT: note_on channel=9 note=69 velocity=61 time=0
EXTRACT: note_on channel=9 note=69 velocity=0 time=0.001984125
EXTRACT: note_on channel=9 note=42 velocity=0 time=0
EXTRACT: note_on channel=9 note=67 velocity=0 time=0.029761875000000004
EXTRACT: note_on channel=5 note=64 velocity=0 time=0.01984125
EXTRACT: note_on channel=7 note=57 velocity=0 time=0
EXTRACT: note_on channel=5 note=61 velocity=0 time=0.005952375000000001
EXTRACT: note_on channel=5 note=69 velocity=0 time=0.011904750000000002
EXTRACT: note_on channel=1 note=33 velocity=0 time=0.001984125
EXTRACT: note_on channel=9 note=32 velocity=0 time=0.001984125
EXTRACT: note_on channel=9 note=44 velocity=0 time=0.005952375000000001
EXTRACT: note_on channel=7 note=61 velocity=0 time=0.0079365
EXTRACT: note_on channel=4 note=64 velocity=0 time=0.001984125
EXTRACT: note_on channel=9 note=36 velocity=103 time=0.0079365
EXTRACT: note_on channel=9 note=39 velocity=105 time=0
EXTRACT: note_on channel=9 note=42 velocity=94 time=0
EXTRACT: note_on channel=9 note=56 velocity=84 time=0
EXTRACT: note_on channel=1 note=37 velocity=78 time=0
EXTRACT: note_on channel=4 note=61 velocity=87 time=0
EXTRACT: note_on channel=7 note=52 velocity=95 time=0
EXTRACT: note_on channel=9 note=40 velocity=117 time=0
EXTRACT: note_on channel=9 note=36 velocity=126 time=0
EXTRACT: note_on channel=9 note=35 velocity=117 time=0
EXTRACT: note_on channel=9 note=39 velocity=121 time=0
EXTRACT: note_on channel=9 note=44 velocity=81 time=0
EXTRACT: note_on channel=9 note=69 velocity=78 time=0
EXTRACT: note_on channel=9 note=69 velocity=0 time=0.001984125
EXTRACT: note_on channel=9 note=36 velocity=0 time=0
EXTRACT: note_on channel=9 note=35 velocity=0 time=0
EXTRACT: note_on channel=9 note=40 velocity=0 time=0
EXTRACT: note_on channel=9 note=44 velocity=0 time=0
EXTRACT: note_on channel=9 note=39 velocity=0 time=0
EXTRACT: note_on channel=6 note=69 velocity=0 time=0.061507875000000004
EXTRACT: note_on channel=6 note=64 velocity=0 time=0
EXTRACT: note_on channel=6 note=61 velocity=0 time=0
EXTRACT: note_on channel=9 note=39 velocity=0 time=0.0079365
EXTRACT: note_on channel=9 note=36 velocity=0 time=0.00396825
EXTRACT: note_on channel=9 note=61 velocity=73 time=0.04365075
EXTRACT: note_on channel=9 note=61 velocity=0 time=0.001984125
EXTRACT: note_on channel=9 note=32 velocity=59 time=0.0079365
EXTRACT: note_on channel=7 note=52 velocity=0 time=0.045634875000000005
EXTRACT: note_on channel=9 note=32 velocity=0 time=0.0079365
EXTRACT: note_on channel=4 note=61 velocity=0 time=0.009920625
EXTRACT: note_on channel=1 note=37 velocity=0 time=0.021825375
EXTRACT: note_on channel=9 note=42 velocity=0 time=0.01984125
EXTRACT: note_on channel=9 note=32 velocity=63 time=0.00396825
EXTRACT: note_on channel=9 note=44 velocity=48 time=0
EXTRACT: note_on channel=9 note=68 velocity=66 time=0
EXTRACT: note_on channel=1 note=40 velocity=90 time=0
EXTRACT: note_on channel=4 note=59 velocity=83 time=0
EXTRACT: note_on channel=5 note=61 velocity=81 time=0
EXTRACT: note_on channel=5 note=64 velocity=87 time=0
EXTRACT: note_on channel=5 note=69 velocity=92 time=0
EXTRACT: note_on channel=6 note=61 velocity=59 time=0
EXTRACT: note_on channel=6 note=64 velocity=65 time=0
EXTRACT: note_on channel=6 note=69 velocity=70 time=0
EXTRACT: note_on channel=7 note=57 velocity=62 time=0
EXTRACT: note_on channel=7 note=61 velocity=65 time=0
EXTRACT: note_on channel=9 note=42 velocity=73 time=0
EXTRACT: note_on channel=9 note=60 velocity=66 time=0
EXTRACT: note_on channel=9 note=60 velocity=0 time=0.001984125
EXTRACT: note_on channel=9 note=42 velocity=0 time=0
EXTRACT: note_on channel=9 note=70 velocity=105 time=0
EXTRACT: note_on channel=9 note=70 velocity=0 time=0.001984125
EXTRACT: note_on channel=5 note=61 velocity=0 time=0.05952375000000001
EXTRACT: note_on channel=7 note=57 velocity=0 time=0
EXTRACT: note_on channel=9 note=68 velocity=0 time=0.001984125
EXTRACT: note_on channel=9 note=44 velocity=0 time=0
EXTRACT: note_on channel=5 note=64 velocity=0 time=0.00396825
EXTRACT: note_on channel=9 note=32 velocity=0 time=0.001984125
EXTRACT: note_on channel=7 note=61 velocity=0 time=0
EXTRACT: note_on channel=5 note=69 velocity=0 time=0.0079365
EXTRACT: note_on channel=10 note=57 velocity=0 time=0.001984125
EXTRACT: note_on channel=9 note=56 velocity=0 time=0.001984125
EXTRACT: note_on channel=10 note=52 velocity=0 time=0.021825375
EXTRACT: note_on channel=10 note=73 velocity=0 time=0.00396825
EXTRACT: note_on channel=10 note=69 velocity=0 time=0.005952375000000001
EXTRACT: note_on channel=10 note=76 velocity=0 time=0.00396825
EXTRACT: note_on channel=9 note=62 velocity=69 time=0
EXTRACT: note_on channel=9 note=62 velocity=0 time=0.001984125
EXTRACT: note_on channel=9 note=49 velocity=0 time=0.00396825
EXTRACT: note_on channel=9 note=32 velocity=62 time=0.00396825
EXTRACT: note_on channel=9 note=56 velocity=83 time=0
EXTRACT: note_on channel=9 note=68 velocity=40 time=0
EXTRACT: note_on channel=7 note=57 velocity=69 time=0
EXTRACT: note_on channel=7 note=61 velocity=68 time=0
EXTRACT: note_on channel=10 note=61 velocity=0 time=0.00396825
EXTRACT: note_on channel=9 note=44 velocity=63 time=0.005952375000000001
EXTRACT: note_on channel=9 note=42 velocity=66 time=0.001984125
EXTRACT: note_on channel=9 note=42 velocity=0 time=0.001984125
EXTRACT: note_on channel=9 note=68 velocity=0 time=0.021825375
EXTRACT: note_on channel=6 note=69 velocity=0 time=0.0079365
EXTRACT: note_on channel=6 note=64 velocity=0 time=0
EXTRACT: note_on channel=6 note=61 velocity=0 time=0
EXTRACT: note_on channel=7 note=57 velocity=0 time=0.01984125
EXTRACT: note_on channel=9 note=32 velocity=0 time=0.009920625
EXTRACT: note_on channel=7 note=61 velocity=0 time=0.005952375000000001
EXTRACT: note_on channel=9 note=44 velocity=0 time=0.013888875000000002
EXTRACT: note_on channel=4 note=59 velocity=0 time=0.005952375000000001
EXTRACT: note_on channel=1 note=40 velocity=0 time=0.005952375000000001
EXTRACT: note_on channel=9 note=27 velocity=88 time=0.00396825
EXTRACT: note_on channel=9 note=36 velocity=105 time=0
EXTRACT: note_on channel=9 note=42 velocity=97 time=0
EXTRACT: note_on channel=1 note=35 velocity=85 time=0
EXTRACT: note_on channel=10 note=54 velocity=67 time=0
EXTRACT: note_on channel=10 note=59 velocity=64 time=0
EXTRACT: note_on channel=10 note=66 velocity=61 time=0
EXTRACT: note_on channel=10 note=71 velocity=69 time=0
EXTRACT: note_on channel=10 note=75 velocity=52 time=0
EXTRACT: note_on channel=10 note=78 velocity=67 time=0
EXTRACT: note_on channel=4 note=64 velocity=99 time=0
EXTRACT: note_on channel=7 note=54 velocity=87 time=0
EXTRACT: note_on channel=9 note=36 velocity=126 time=0
EXTRACT: note_on channel=9 note=35 velocity=117 time=0
EXTRACT: note_on channel=9 note=44 velocity=81 time=0
EXTRACT: note_on channel=9 note=82 velocity=69 time=0
EXTRACT: note_on channel=9 note=56 velocity=87 time=0
EXTRACT: note_on channel=9 note=60 velocity=63 time=0
EXTRACT: note_on channel=9 note=60 velocity=0 time=0.001984125
EXTRACT: note_on channel=9 note=35 velocity=0 time=0
EXTRACT: note_on channel=9 note=44 velocity=0 time=0
EXTRACT: note_on channel=9 note=36 velocity=0 time=0
EXTRACT: note_on channel=9 note=56 velocity=0 time=0
EXTRACT: note_on channel=9 note=82 velocity=0 time=0
EXTRACT: note_on channel=9 note=27 velocity=0 time=0.0714285
EXTRACT: note_on channel=9 note=36 velocity=0 time=0.005952375000000001
EXTRACT: note_on channel=4 note=64 velocity=0 time=0.029761875000000004
EXTRACT: note_on channel=9 note=27 velocity=64 time=0.01984125
EXTRACT: note_on channel=5 note=59 velocity=75 time=0
EXTRACT: note_on channel=5 note=64 velocity=82 time=0
EXTRACT: note_on channel=5 note=66 velocity=76 time=0
EXTRACT: note_on channel=6 note=59 velocity=53 time=0
EXTRACT: note_on channel=6 note=64 velocity=60 time=0
EXTRACT: note_on channel=6 note=66 velocity=54 time=0
EXTRACT: note_on channel=9 note=82 velocity=43 time=0.011904750000000002
EXTRACT: note_on channel=9 note=82 velocity=0 time=0.001984125
EXTRACT: note_on channel=5 note=59 velocity=0 time=0.021825375
EXTRACT: note_on channel=9 note=56 velocity=0 time=0.017857125
EXTRACT: note_on channel=5 note=64 velocity=0 time=0.005952375000000001
EXTRACT: note_on channel=9 note=27 velocity=0 time=0.001984125
EXTRACT: note_on channel=5 note=66 velocity=0 time=0.01984125
EXTRACT: note_on channel=7 note=54 velocity=0 time=0.013888875000000002
EXTRACT: note_on channel=9 note=70 velocity=105 time=0.005952375000000001
EXTRACT: note_on channel=9 note=70 velocity=0 time=0.001984125
EXTRACT: note_on channel=9 note=42 velocity=0 time=0.001984125
EXTRACT: note_on channel=9 note=27 velocity=69 time=0.00396825
EXTRACT: note_on channel=9 note=44 velocity=71 time=0
EXTRACT: note_on channel=9 note=67 velocity=32 time=0
EXTRACT: note_on channel=4 note=64 velocity=95 time=0
EXTRACT: note_on channel=7 note=57 velocity=60 time=0
EXTRACT: note_on channel=7 note=59 velocity=68 time=0
EXTRACT: note_on channel=9 note=42 velocity=73 time=0
EXTRACT: note_on channel=9 note=82 velocity=48 time=0
EXTRACT: note_on channel=9 note=82 velocity=0 time=0.001984125
EXTRACT: note_on channel=9 note=42 velocity=0 time=0
EXTRACT: note_on channel=9 note=67 velocity=0 time=0.0396825
EXTRACT: note_on channel=9 note=44 velocity=0 time=0.017857125
EXTRACT: note_on channel=6 note=66 velocity=0 time=0.00396825
EXTRACT: note_on channel=6 note=64 velocity=0 time=0
EXTRACT: note_on channel=6 note=59 velocity=0 time=0
EXTRACT: note_on channel=7 note=59 velocity=0 time=0
EXTRACT: note_on channel=7 note=57 velocity=0 time=0
EXTRACT: note_on channel=9 note=27 velocity=0 time=0.015873
EXTRACT: note_on channel=9 note=56 velocity=87 time=0.0396825
EXTRACT: note_on channel=9 note=56 velocity=0 time=0.001984125
EXTRACT: note_on channel=9 note=67 velocity=46 time=0.0079365
EXTRACT: note_on channel=7 note=57 velocity=64 time=0
EXTRACT: note_on channel=7 note=59 velocity=67 time=0
EXTRACT: note_on channel=9 note=44 velocity=71 time=0.009920625
EXTRACT: note_on channel=9 note=42 velocity=66 time=0.001984125
EXTRACT: note_on channel=9 note=82 velocity=40 time=0
EXTRACT: note_on channel=9 note=82 velocity=0 time=0.001984125
EXTRACT: note_on channel=9 note=42 velocity=0 time=0
EXTRACT: note_on channel=9 note=67 velocity=0 time=0.029761875000000004
EXTRACT: note_on channel=7 note=59 velocity=0 time=0.027777750000000004
EXTRACT: note_on channel=7 note=57 velocity=0 time=0
EXTRACT: note_on channel=4 note=64 velocity=0 time=0.00396825
EXTRACT: note_on channel=1 note=35 velocity=0 time=0.013888875000000002
EXTRACT: note_on channel=9 note=44 velocity=0 time=0.009920625
EXTRACT: note_on channel=9 note=32 velocity=78 time=0.009920625
EXTRACT: note_on channel=9 note=36 velocity=105 time=0
EXTRACT: note_on channel=9 note=39 velocity=100 time=0
EXTRACT: note_on channel=9 note=42 velocity=92 time=0
EXTRACT: note_on channel=9 note=56 velocity=84 time=0
EXTRACT: note_on channel=1 note=39 velocity=86 time=0
EXTRACT: note_on channel=4 note=61 velocity=86 time=0
EXTRACT: note_on channel=5 note=59 velocity=77 time=0
EXTRACT: note_on channel=5 note=64 velocity=84 time=0
EXTRACT: note_on channel=5 note=66 velocity=76 time=0
EXTRACT: note_on channel=6 note=59 velocity=55 time=0
EXTRACT: note_on channel=6 note=64 velocity=62 time=0
EXTRACT: note_on channel=6 note=66 velocity=54 time=0
EXTRACT: note_on channel=7 note=54 velocity=86 time=0
EXTRACT: note_on channel=9 note=39 velocity=121 time=0
EXTRACT: note_on channel=9 note=40 velocity=117 time=0
EXTRACT: note_on channel=9 note=36 velocity=126 time=0
EXTRACT: note_on channel=9 note=35 velocity=117 time=0
EXTRACT: note_on channel=9 note=44 velocity=81 time=0
EXTRACT: note_on channel=9 note=82 velocity=69 time=0
EXTRACT: note_on channel=9 note=82 velocity=0 time=0.001984125
EXTRACT: note_on channel=9 note=40 velocity=0 time=0
EXTRACT: note_on channel=9 note=36 velocity=0 time=0
EXTRACT: note_on channel=9 note=39 velocity=0 time=0
EXTRACT: note_on channel=9 note=44 velocity=0 time=0
EXTRACT: note_on channel=9 note=35 velocity=0 time=0
EXTRACT: note_on channel=5 note=59 velocity=0 time=0.029761875000000004
EXTRACT: note_on channel=5 note=64 velocity=0 time=0.037698375000000006
EXTRACT: note_on channel=9 note=39 velocity=0 time=0.00396825
EXTRACT: note_on channel=9 note=32 velocity=0 time=0.005952375000000001
EXTRACT: note_on channel=9 note=36 velocity=0 time=0
EXTRACT: note_on channel=5 note=66 velocity=0 time=0.005952375000000001
EXTRACT: note_on channel=6 note=66 velocity=0 time=0.0873015
EXTRACT: note_on channel=6 note=64 velocity=0 time=0
EXTRACT: note_on channel=6 note=59 velocity=0 time=0
EXTRACT: note_on channel=7 note=54 velocity=0 time=0.0079365
EXTRACT: note_on channel=4 note=61 velocity=0 time=0.013888875000000002
EXTRACT: note_on channel=1 note=39 velocity=0 time=0.03373012500000001
EXTRACT: note_on channel=9 note=70 velocity=105 time=0.00396825
EXTRACT: note_on channel=9 note=42 velocity=0 time=0.001984125
EXTRACT: note_on channel=9 note=70 velocity=0 time=0
EXTRACT: note_on channel=9 note=32 velocity=67 time=0.00396825
EXTRACT: note_on channel=9 note=44 velocity=74 time=0
EXTRACT: note_on channel=9 note=68 velocity=30 time=0
EXTRACT: note_on channel=1 note=42 velocity=86 time=0
EXTRACT: note_on channel=4 note=59 velocity=91 time=0
EXTRACT: note_on channel=5 note=59 velocity=82 time=0
EXTRACT: note_on channel=5 note=63 velocity=83 time=0
EXTRACT: note_on channel=5 note=66 velocity=84 time=0
EXTRACT: note_on channel=6 note=59 velocity=60 time=0
EXTRACT: note_on channel=6 note=63 velocity=61 time=0
EXTRACT: note_on channel=6 note=66 velocity=62 time=0
EXTRACT: note_on channel=7 note=57 velocity=61 time=0
EXTRACT: note_on channel=7 note=59 velocity=67 time=0
EXTRACT: note_on channel=9 note=42 velocity=73 time=0
EXTRACT: note_on channel=9 note=69 velocity=78 time=0
EXTRACT: note_on channel=9 note=56 velocity=87 time=0
EXTRACT: note_on channel=9 note=56 velocity=0 time=0.001984125
EXTRACT: note_on channel=9 note=69 velocity=0 time=0
EXTRACT: note_on channel=9 note=42 velocity=0 time=0
EXTRACT: note_on channel=9 note=68 velocity=0 time=0.03373012500000001
EXTRACT: note_on channel=5 note=59 velocity=0 time=0.005952375000000001
EXTRACT: note_on channel=9 note=32 velocity=0 time=0.009920625
EXTRACT: note_on channel=5 note=63 velocity=0 time=0.001984125
EXTRACT: note_on channel=9 note=56 velocity=0 time=0.001984125
EXTRACT: note_on channel=9 note=44 velocity=0 time=0.0079365
EXTRACT: note_on channel=7 note=59 velocity=0 time=0
EXTRACT: note_on channel=7 note=57 velocity=0 time=0
EXTRACT: note_on channel=10 note=71 velocity=0 time=0.001984125
EXTRACT: note_on channel=5 note=66 velocity=0 time=0.009920625
EXTRACT: note_on channel=10 note=66 velocity=0 time=0.015873
EXTRACT: note_on channel=10 note=75 velocity=0 time=0.021825375
EXTRACT: note_on channel=9 note=32 velocity=64 time=0.015873
EXTRACT: note_on channel=9 note=68 velocity=55 time=0
EXTRACT: note_on channel=7 note=57 velocity=71 time=0
EXTRACT: note_on channel=7 note=59 velocity=67 time=0
EXTRACT: note_on channel=10 note=78 velocity=0 time=0.005952375000000001
EXTRACT: note_on channel=9 note=44 velocity=72 time=0.00396825
EXTRACT: note_on channel=9 note=42 velocity=66 time=0.001984125
EXTRACT: note_on channel=9 note=69 velocity=73 time=0
EXTRACT: note_on channel=9 note=69 velocity=0 time=0.001984125
EXTRACT: note_on channel=9 note=42 velocity=0 time=0
EXTRACT: note_on channel=10 note=54 velocity=0 time=0.009920625
EXTRACT: note_on channel=10 note=59 velocity=0 time=0.017857125
EXTRACT: note_on channel=6 note=66 velocity=0 time=0.001984125
EXTRACT: note_on channel=6 note=63 velocity=0 time=0
EXTRACT: note_on channel=6 note=59 velocity=0 time=0
EXTRACT: note_on channel=7 note=57 velocity=0 time=0.01984125
EXTRACT: note_on channel=9 note=32 velocity=0 time=0.001984125
EXTRACT: note_on channel=9 note=68 velocity=0 time=0.005952375000000001
EXTRACT: note_on channel=1 note=42 velocity=0 time=0.001984125
EXTRACT: note_on channel=7 note=59 velocity=0 time=0.001984125
EXTRACT: note_on channel=4 note=59 velocity=0 time=0.005952375000000001
EXTRACT: note_on channel=9 note=44 velocity=0 time=0.017857125
EXTRACT: note_on channel=9 note=27 velocity=92 time=0.009920625
EXTRACT: note_on channel=9 note=36 velocity=105 time=0
EXTRACT: note_on channel=9 note=42 velocity=97 time=0
EXTRACT: note_on channel=9 note=56 velocity=80 time=0
EXTRACT: note_on channel=10 note=56 velocity=74 time=0
EXTRACT: note_on channel=10 note=59 velocity=38 time=0
EXTRACT: note_on channel=10 note=63 velocity=72 time=0
EXTRACT: note_on channel=10 note=68 velocity=67 time=0
EXTRACT: note_on channel=10 note=71 velocity=71 time=0
EXTRACT: note_on channel=10 note=75 velocity=60 time=0
EXTRACT: note_on channel=10 note=80 velocity=66 time=0
EXTRACT: note_on channel=3 note=71 velocity=94 time=0
EXTRACT: note_on channel=5 note=59 velocity=80 time=0
EXTRACT: note_on channel=5 note=63 velocity=97 time=0
EXTRACT: note_on channel=5 note=68 velocity=88 time=0
EXTRACT: note_on channel=6 note=59 velocity=58 time=0
EXTRACT: note_on channel=6 note=63 velocity=75 time=0
EXTRACT: note_on channel=6 note=68 velocity=66 time=0
EXTRACT: note_on channel=7 note=56 velocity=88 time=0
EXTRACT: note_on channel=9 note=36 velocity=126 time=0
EXTRACT: note_on channel=9 note=35 velocity=117 time=0
EXTRACT: note_on channel=9 note=35 velocity=0 time=0.001984125
EXTRACT: note_on channel=9 note=36 velocity=0 time=0
EXTRACT: note_on channel=5 note=59 velocity=0 time=0.04761900000000001
EXTRACT: note_on channel=5 note=63 velocity=0 time=0.009920625
EXTRACT: note_on channel=9 note=27 velocity=0 time=0.01984125
EXTRACT: note_on channel=9 note=36 velocity=0 time=0.00396825
EXTRACT: note_on channel=5 note=68 velocity=0 time=0.0079365
EXTRACT: note_on channel=9 note=69 velocity=84 time=0.049603125000000005
EXTRACT: note_on channel=9 note=69 velocity=0 time=0.001984125
EXTRACT: note_on channel=6 note=68 velocity=0 time=0.029761875000000004
EXTRACT: note_on channel=6 note=63 velocity=0 time=0
EXTRACT: note_on channel=6 note=59 velocity=0 time=0
EXTRACT: note_on channel=7 note=56 velocity=0 time=0.009920625
EXTRACT: note_on channel=9 note=42 velocity=0 time=0.05158725000000001
EXTRACT: note_on channel=9 note=70 velocity=105 time=0
EXTRACT: note_on channel=9 note=27 velocity=85 time=0.00396825
EXTRACT: note_on channel=9 note=44 velocity=66 time=0
EXTRACT: note_on channel=9 note=67 velocity=40 time=0
EXTRACT: note_on channel=1 note=32 velocity=88 time=0
EXTRACT: note_on channel=7 note=59 velocity=71 time=0
EXTRACT: note_on channel=7 note=63 velocity=70 time=0
EXTRACT: note_on channel=9 note=70 velocity=0 time=0
EXTRACT: note_on channel=9 note=42 velocity=73 time=0
EXTRACT: note_on channel=9 note=62 velocity=79 time=0
EXTRACT: note_on channel=9 note=62 velocity=0 time=0.001984125
EXTRACT: note_on channel=9 note=42 velocity=0 time=0
EXTRACT: note_on channel=9 note=67 velocity=0 time=0.037698375000000006
EXTRACT: note_on channel=9 note=56 velocity=0 time=0.001984125
EXTRACT: note_on channel=9 note=44 velocity=0 time=0.01984125
EXTRACT: note_on channel=7 note=63 velocity=0 time=0.001984125
EXTRACT: note_on channel=7 note=59 velocity=0 time=0
EXTRACT: note_on channel=9 note=27 velocity=0 time=0.005952375000000001
EXTRACT: note_on channel=9 note=61 velocity=69 time=0.049603125000000005
EXTRACT: note_on channel=9 note=61 velocity=0 time=0.001984125
EXTRACT: note_on channel=9 note=32 velocity=76 time=0.0079365
EXTRACT: note_on channel=9 note=67 velocity=50 time=0
EXTRACT: note_on channel=5 note=59 velocity=81 time=0
EXTRACT: note_on channel=5 note=63 velocity=92 time=0
EXTRACT: note_on channel=5 note=68 velocity=87 time=0
EXTRACT: note_on channel=6 note=59 velocity=59 time=0
EXTRACT: note_on channel=6 note=63 velocity=70 time=0
EXTRACT: note_on channel=6 note=68 velocity=65 time=0
EXTRACT: note_on channel=7 note=59 velocity=69 time=0
EXTRACT: note_on channel=7 note=63 velocity=78 time=0
EXTRACT: note_on channel=9 note=44 velocity=75 time=0.009920625
EXTRACT: note_on channel=9 note=42 velocity=66 time=0.001984125
EXTRACT: note_on channel=9 note=69 velocity=68 time=0
EXTRACT: note_on channel=9 note=69 velocity=0 time=0.001984125
EXTRACT: note_on channel=9 note=42 velocity=0 time=0
EXTRACT: note_on channel=5 note=59 velocity=0 time=0.021825375
EXTRACT: note_on channel=3 note=71 velocity=0 time=0.0079365
EXTRACT: note_on channel=5 note=63 velocity=0 time=0.0079365
EXTRACT: note_on channel=7 note=59 velocity=0 time=0.011904750000000002
EXTRACT: note_on channel=9 note=67 velocity=0 time=0.0079365
EXTRACT: note_on channel=9 note=32 velocity=0 time=0.001984125
EXTRACT: note_on channel=7 note=63 velocity=0 time=0.001984125
EXTRACT: note_on channel=5 note=68 velocity=0 time=0.005952375000000001
EXTRACT: note_on channel=9 note=44 velocity=0 time=0.009920625
EXTRACT: note_on channel=9 note=36 velocity=105 time=0.017857125
EXTRACT: note_on channel=9 note=39 velocity=103 time=0
EXTRACT: note_on channel=9 note=42 velocity=96 time=0
EXTRACT: note_on channel=9 note=56 velocity=77 time=0
EXTRACT: note_on channel=1 note=35 velocity=79 time=0
EXTRACT: note_on channel=3 note=68 velocity=90 time=0
EXTRACT: note_on channel=7 note=56 velocity=81 time=0
EXTRACT: note_on channel=9 note=39 velocity=121 time=0
EXTRACT: note_on channel=9 note=36 velocity=126 time=0
EXTRACT: note_on channel=9 note=35 velocity=117 time=0
EXTRACT: note_on channel=9 note=40 velocity=117 time=0
EXTRACT: note_on channel=9 note=44 velocity=81 time=0
EXTRACT: note_on channel=9 note=44 velocity=0 time=0.001984125
EXTRACT: note_on channel=9 note=35 velocity=0 time=0
EXTRACT: note_on channel=9 note=39 velocity=0 time=0
EXTRACT: note_on channel=9 note=36 velocity=0 time=0
EXTRACT: note_on channel=9 note=40 velocity=0 time=0
EXTRACT: note_on channel=1 note=32 velocity=0 time=0.01984125
EXTRACT: note_on channel=6 note=68 velocity=0 time=0.041666625000000006
EXTRACT: note_on channel=6 note=63 velocity=0 time=0
EXTRACT: note_on channel=6 note=59 velocity=0 time=0
EXTRACT: note_on channel=9 note=39 velocity=0 time=0.009920625
EXTRACT: note_on channel=9 note=36 velocity=0 time=0.009920625
EXTRACT: note_on channel=9 note=62 velocity=73 time=0.03571425
EXTRACT: note_on channel=9 note=62 velocity=0 time=0.001984125
EXTRACT: note_on channel=9 note=32 velocity=68 time=0.0079365
EXTRACT: note_on channel=9 note=32 velocity=0 time=0.053571375000000004
EXTRACT: note_on channel=7 note=56 velocity=0 time=0.027777750000000004
EXTRACT: note_on channel=1 note=35 velocity=0 time=0.011904750000000002
EXTRACT: note_on channel=9 note=42 velocity=0 time=0.011904750000000002
EXTRACT: note_on channel=9 note=32 velocity=70 time=0.00396825
EXTRACT: note_on channel=9 note=44 velocity=69 time=0
EXTRACT: note_on channel=9 note=68 velocity=63 time=0
EXTRACT: note_on channel=1 note=39 velocity=95 time=0
EXTRACT: note_on channel=5 note=59 velocity=84 time=0
EXTRACT: note_on channel=5 note=63 velocity=97 time=0
EXTRACT: note_on channel=5 note=68 velocity=92 time=0
EXTRACT: note_on channel=6 note=59 velocity=62 time=0
EXTRACT: note_on channel=6 note=63 velocity=75 time=0
EXTRACT: note_on channel=6 note=68 velocity=70 time=0
EXTRACT: note_on channel=7 note=59 velocity=68 time=0
EXTRACT: note_on channel=7 note=63 velocity=77 time=0
EXTRACT: note_on channel=9 note=42 velocity=73 time=0
EXTRACT: note_on channel=9 note=61 velocity=66 time=0
EXTRACT: note_on channel=9 note=61 velocity=0 time=0.001984125
EXTRACT: note_on channel=9 note=42 velocity=0 time=0
EXTRACT: note_on channel=9 note=70 velocity=105 time=0.001984125
EXTRACT: note_on channel=9 note=70 velocity=0 time=0.001984125
EXTRACT: note_on channel=5 note=59 velocity=0 time=0.023809500000000004
EXTRACT: note_on channel=9 note=68 velocity=0 time=0.015873
EXTRACT: note_on channel=9 note=56 velocity=0 time=0.00396825
EXTRACT: note_on channel=5 note=63 velocity=0 time=0
EXTRACT: note_on channel=9 note=44 velocity=0 time=0.005952375000000001
EXTRACT: note_on channel=9 note=32 velocity=0 time=0.0079365
EXTRACT: note_on channel=7 note=63 velocity=0 time=0
EXTRACT: note_on channel=7 note=59 velocity=0 time=0
EXTRACT: note_on channel=10 note=75 velocity=0 time=0.0079365
EXTRACT: note_on channel=10 note=80 velocity=0 time=0.0079365
EXTRACT: note_on channel=5 note=68 velocity=0 time=0.005952375000000001
EXTRACT: note_on channel=10 note=63 velocity=0 time=0.009920625
EXTRACT: note_on channel=10 note=56 velocity=0 time=0.005952375000000001
EXTRACT: note_on channel=10 note=71 velocity=0 time=0.0079365
EXTRACT: note_on channel=10 note=68 velocity=0 time=0.001984125
EXTRACT: note_on channel=10 note=59 velocity=0 time=0.013888875000000002
EXTRACT: note_on channel=9 note=32 velocity=63 time=0.00396825
EXTRACT: note_on channel=9 note=68 velocity=58 time=0
EXTRACT: note_on channel=7 note=59 velocity=74 time=0
EXTRACT: note_on channel=7 note=63 velocity=73 time=0
EXTRACT: note_on channel=9 note=44 velocity=69 time=0.009920625
EXTRACT: note_on channel=9 note=42 velocity=66 time=0.001984125
EXTRACT: note_on channel=9 note=82 velocity=48 time=0
EXTRACT: note_on channel=9 note=82 velocity=0 time=0.001984125
EXTRACT: note_on channel=9 note=42 velocity=0 time=0
EXTRACT: note_on channel=3 note=68 velocity=0 time=0.021825375
EXTRACT: note_on channel=6 note=68 velocity=0 time=0.0079365
EXTRACT: note_on channel=6 note=63 velocity=0 time=0
EXTRACT: note_on channel=6 note=59 velocity=0 time=0
EXTRACT: note_on channel=1 note=39 velocity=0 time=0.011904750000000002
EXTRACT: note_on channel=9 note=32 velocity=0 time=0.0079365
EXTRACT: note_on channel=7 note=59 velocity=0 time=0
EXTRACT: note_on channel=9 note=68 velocity=0 time=0.001984125
EXTRACT: note_on channel=7 note=63 velocity=0 time=0.0079365
EXTRACT: note_on channel=9 note=44 velocity=0 time=0.011904750000000002
EXTRACT: note_on channel=9 note=27 velocity=87 time=0.023809500000000004
EXTRACT: note_on channel=9 note=36 velocity=105 time=0
EXTRACT: note_on channel=9 note=42 velocity=97 time=0
EXTRACT: note_on channel=9 note=56 velocity=74 time=0
EXTRACT: note_on channel=1 note=37 velocity=90 time=0
EXTRACT: note_on channel=10 note=56 velocity=75 time=0
EXTRACT: note_on channel=10 note=61 velocity=48 time=0
EXTRACT: note_on channel=10 note=64 velocity=60 time=0
EXTRACT: note_on channel=10 note=68 velocity=73 time=0
EXTRACT: note_on channel=10 note=73 velocity=58 time=0
EXTRACT: note_on channel=10 note=76 velocity=68 time=0
EXTRACT: note_on channel=10 note=80 velocity=64 time=0
EXTRACT: note_on channel=3 note=64 velocity=95 time=0
EXTRACT: note_on channel=7 note=56 velocity=84 time=0
EXTRACT: note_on channel=9 note=36 velocity=126 time=0
EXTRACT: note_on channel=9 note=35 velocity=117 time=0
EXTRACT: note_on channel=9 note=44 velocity=81 time=0
EXTRACT: note_on channel=9 note=82 velocity=55 time=0
EXTRACT: note_on channel=9 note=56 velocity=80 time=0
EXTRACT: note_on channel=9 note=56 velocity=0 time=0.001984125
EXTRACT: note_on channel=9 note=44 velocity=0 time=0
EXTRACT: note_on channel=9 note=36 velocity=0 time=0
EXTRACT: note_on channel=9 note=35 velocity=0 time=0
EXTRACT: note_on channel=9 note=82 velocity=0 time=0
EXTRACT: note_on channel=9 note=27 velocity=0 time=0.06746025000000001
EXTRACT: note_on channel=9 note=36 velocity=0 time=0.013888875000000002
EXTRACT: note_on channel=9 note=32 velocity=76 time=0.045634875000000005
EXTRACT: note_on channel=5 note=61 velocity=68 time=0
EXTRACT: note_on channel=5 note=64 velocity=95 time=0
EXTRACT: note_on channel=5 note=68 velocity=84 time=0
EXTRACT: note_on channel=6 note=61 velocity=46 time=0
EXTRACT: note_on channel=6 note=64 velocity=73 time=0
EXTRACT: note_on channel=6 note=68 velocity=62 time=0
EXTRACT: note_on channel=9 note=82 velocity=63 time=0.011904750000000002
EXTRACT: note_on channel=9 note=82 velocity=0 time=0.001984125
EXTRACT: note_on channel=1 note=37 velocity=0 time=0.01984125
EXTRACT: note_on channel=5 note=64 velocity=0 time=0.021825375
EXTRACT: note_on channel=9 note=32 velocity=0 time=0.0079365
EXTRACT: note_on channel=5 note=61 velocity=0 time=0.005952375000000001
EXTRACT: note_on channel=5 note=68 velocity=0 time=0.001984125
EXTRACT: note_on channel=9 note=42 velocity=0 time=0.03373012500000001
EXTRACT: note_on channel=9 note=27 velocity=58 time=0.00396825
EXTRACT: note_on channel=9 note=44 velocity=70 time=0
EXTRACT: note_on channel=9 note=67 velocity=47 time=0
EXTRACT: note_on channel=1 note=37 velocity=83 time=0
EXTRACT: note_on channel=7 note=61 velocity=54 time=0
EXTRACT: note_on channel=7 note=64 velocity=69 time=0
EXTRACT: note_on channel=9 note=42 velocity=73 time=0
EXTRACT: note_on channel=9 note=82 velocity=59 time=0
EXTRACT: note_on channel=9 note=63 velocity=60 time=0
EXTRACT: note_on channel=9 note=63 velocity=0 time=0.001984125
EXTRACT: note_on channel=9 note=82 velocity=0 time=0
EXTRACT: note_on channel=9 note=42 velocity=0 time=0
EXTRACT: note_on channel=9 note=70 velocity=105 time=0.001984125
EXTRACT: note_on channel=9 note=70 velocity=0 time=0.001984125
EXTRACT: note_on channel=9 note=67 velocity=0 time=0.029761875000000004
EXTRACT: note_on channel=9 note=27 velocity=0 time=0.009920625
EXTRACT: note_on channel=9 note=56 velocity=0 time=0.009920625
EXTRACT: note_on channel=7 note=56 velocity=0 time=0
EXTRACT: note_on channel=9 note=44 velocity=0 time=0.00396825
EXTRACT: note_on channel=6 note=68 velocity=0 time=0.00396825
EXTRACT: note_on channel=6 note=64 velocity=0 time=0
EXTRACT: note_on channel=6 note=61 velocity=0 time=0
EXTRACT: note_on channel=7 note=61 velocity=0 time=0
EXTRACT: note_on channel=7 note=64 velocity=0 time=0.0079365
EXTRACT: note_on channel=9 note=56 velocity=89 time=0.04761900000000001
EXTRACT: note_on channel=9 note=56 velocity=0 time=0.001984125
EXTRACT: note_on channel=9 note=67 velocity=44 time=0.0079365
EXTRACT: note_on channel=7 note=61 velocity=63 time=0
EXTRACT: note_on channel=7 note=64 velocity=71 time=0
EXTRACT: note_on channel=9 note=44 velocity=73 time=0.009920625
EXTRACT: note_on channel=9 note=42 velocity=66 time=0.001984125
EXTRACT: note_on channel=9 note=82 velocity=45 time=0
EXTRACT: note_on channel=9 note=82 velocity=0 time=0.001984125
EXTRACT: note_on channel=9 note=42 velocity=0 time=0
EXTRACT: note_on channel=9 note=67 velocity=0 time=0.04761900000000001
EXTRACT: note_on channel=3 note=64 velocity=0 time=0.011904750000000002
EXTRACT: note_on channel=7 note=64 velocity=0 time=0
EXTRACT: note_on channel=7 note=61 velocity=0 time=0.009920625
EXTRACT: note_on channel=9 note=44 velocity=0 time=0.005952375000000001
EXTRACT: note_on channel=9 note=32 velocity=88 time=0.01984125
EXTRACT: note_on channel=9 note=36 velocity=105 time=0
EXTRACT: note_on channel=9 note=39 velocity=103 time=0
EXTRACT: note_on channel=9 note=42 velocity=94 time=0
EXTRACT: note_on channel=9 note=56 velocity=74 time=0
EXTRACT: note_on channel=1 note=32 velocity=86 time=0
EXTRACT: note_on channel=3 note=61 velocity=82 time=0
EXTRACT: note_on channel=5 note=61 velocity=73 time=0
EXTRACT: note_on channel=5 note=64 velocity=85 time=0
EXTRACT: note_on channel=5 note=68 velocity=81 time=0
EXTRACT: note_on channel=6 note=61 velocity=51 time=0
EXTRACT: note_on channel=6 note=64 velocity=63 time=0
EXTRACT: note_on channel=6 note=68 velocity=59 time=0
EXTRACT: note_on channel=7 note=56 velocity=86 time=0
EXTRACT: note_on channel=9 note=36 velocity=126 time=0
EXTRACT: note_on channel=9 note=35 velocity=117 time=0
EXTRACT: note_on channel=9 note=39 velocity=121 time=0
EXTRACT: note_on channel=9 note=40 velocity=117 time=0
EXTRACT: note_on channel=9 note=44 velocity=81 time=0
EXTRACT: note_on channel=9 note=82 velocity=60 time=0
EXTRACT: note_on channel=9 note=82 velocity=0 time=0.001984125
EXTRACT: note_on channel=9 note=35 velocity=0 time=0
EXTRACT: note_on channel=9 note=39 velocity=0 time=0
EXTRACT: note_on channel=9 note=36 velocity=0 time=0
EXTRACT: note_on channel=9 note=44 velocity=0 time=0
EXTRACT: note_on channel=9 note=40 velocity=0 time=0
EXTRACT: note_on channel=1 note=37 velocity=0 time=0.0396825
EXTRACT: note_on channel=5 note=64 velocity=0 time=0.023809500000000004
EXTRACT: note_on channel=9 note=32 velocity=0 time=0.005952375000000001
EXTRACT: note_on channel=9 note=39 velocity=0 time=0.0079365
EXTRACT: note_on channel=9 note=36 velocity=0 time=0.00396825
EXTRACT: note_on channel=5 note=61 velocity=0 time=0.005952375000000001
EXTRACT: note_on channel=5 note=68 velocity=0 time=0.021825375
EXTRACT: note_on channel=7 note=56 velocity=0 time=0.029761875000000004
EXTRACT: note_on channel=6 note=68 velocity=0 time=0.031746
EXTRACT: note_on channel=6 note=64 velocity=0 time=0
EXTRACT: note_on channel=6 note=61 velocity=0 time=0
EXTRACT: note_on channel=1 note=32 velocity=0 time=0.05158725000000001
EXTRACT: note_on channel=9 note=70 velocity=105 time=0.0079365
EXTRACT: note_on channel=9 note=42 velocity=0 time=0.001984125
EXTRACT: note_on channel=3 note=61 velocity=0 time=0
EXTRACT: note_on channel=9 note=70 velocity=0 time=0
EXTRACT: note_on channel=9 note=32 velocity=71 time=0.00396825
EXTRACT: note_on channel=9 note=44 velocity=73 time=0
EXTRACT: note_on channel=9 note=68 velocity=54 time=0
EXTRACT: note_on channel=1 note=37 velocity=91 time=0
EXTRACT: note_on channel=3 note=59 velocity=85 time=0
EXTRACT: note_on channel=5 note=61 velocity=71 time=0
EXTRACT: note_on channel=5 note=64 velocity=84 time=0
EXTRACT: note_on channel=5 note=68 velocity=81 time=0
EXTRACT: note_on channel=6 note=61 velocity=49 time=0
EXTRACT: note_on channel=6 note=64 velocity=62 time=0
EXTRACT: note_on channel=6 note=68 velocity=59 time=0
EXTRACT: note_on channel=7 note=61 velocity=69 time=0
EXTRACT: note_on channel=7 note=64 velocity=71 time=0
EXTRACT: note_on channel=9 note=42 velocity=75 time=0
EXTRACT: note_on channel=9 note=69 velocity=87 time=0
EXTRACT: note_on channel=9 note=56 velocity=87 time=0
EXTRACT: note_on channel=9 note=56 velocity=0 time=0.001984125
EXTRACT: note_on channel=9 note=69 velocity=0 time=0
EXTRACT: note_on channel=9 note=42 velocity=0 time=0
EXTRACT: note_on channel=9 note=68 velocity=0 time=0.031746
EXTRACT: note_on channel=9 note=44 velocity=0 time=0.021825375
EXTRACT: note_on channel=9 note=32 velocity=0 time=0
EXTRACT: note_on channel=10 note=76 velocity=0 time=0.00396825
EXTRACT: note_on channel=7 note=64 velocity=0 time=0.00396825
EXTRACT: note_on channel=7 note=61 velocity=0 time=0
EXTRACT: note_on channel=10 note=73 velocity=0 time=0.005952375000000001
EXTRACT: note_on channel=5 note=61 velocity=0 time=0.001984125
EXTRACT: note_on channel=5 note=64 velocity=0 time=0.001984125
EXTRACT: note_on channel=10 note=64 velocity=0 time=0.005952375000000001
EXTRACT: note_on channel=10 note=80 velocity=0 time=0.001984125
EXTRACT: note_on channel=5 note=68 velocity=0 time=0
EXTRACT: note_on channel=10 note=68 velocity=0 time=0.001984125
EXTRACT: note_on channel=9 note=56 velocity=0 time=0.0079365
EXTRACT: note_on channel=10 note=61 velocity=0 time=0.027777750000000004
EXTRACT: note_on channel=9 note=62 velocity=64 time=0
EXTRACT: note_on channel=9 note=62 velocity=0 time=0.001984125
EXTRACT: note_on channel=9 note=32 velocity=67 time=0.0079365
EXTRACT: note_on channel=9 note=68 velocity=56 time=0
EXTRACT: note_on channel=7 note=61 velocity=65 time=0
EXTRACT: note_on channel=7 note=64 velocity=71 time=0
EXTRACT: note_on channel=9 note=44 velocity=72 time=0.009920625
EXTRACT: note_on channel=9 note=42 velocity=66 time=0.001984125
EXTRACT: note_on channel=9 note=69 velocity=69 time=0
EXTRACT: note_on channel=9 note=69 velocity=0 time=0.001984125
EXTRACT: note_on channel=9 note=42 velocity=0 time=0
EXTRACT: note_on channel=10 note=56 velocity=0 time=0.005952375000000001
EXTRACT: note_on channel=6 note=68 velocity=0 time=0.023809500000000004
EXTRACT: note_on channel=6 note=64 velocity=0 time=0
EXTRACT: note_on channel=6 note=61 velocity=0 time=0
EXTRACT: note_on channel=1 note=37 velocity=0 time=0.009920625
EXTRACT: note_on channel=3 note=59 velocity=0 time=0
EXTRACT: note_on channel=9 note=68 velocity=0 time=0.009920625
EXTRACT: note_on channel=9 note=32 velocity=0 time=0.005952375000000001
EXTRACT: note_on channel=7 note=64 velocity=0 time=0.001984125
EXTRACT: note_on channel=7 note=61 velocity=0 time=0.00396825
EXTRACT: note_on channel=9 note=44 velocity=0 time=0.013888875000000002
EXTRACT: note_on channel=9 note=27 velocity=90 time=0.01984125
EXTRACT: note_on channel=9 note=36 velocity=105 time=0
EXTRACT: note_on channel=9 note=42 velocity=97 time=0
EXTRACT: note_on channel=9 note=56 velocity=74 time=0
EXTRACT: note_on channel=1 note=33 velocity=82 time=0
EXTRACT: note_on channel=10 note=52 velocity=69 time=0
EXTRACT: note_on channel=10 note=57 velocity=54 time=0
EXTRACT: note_on channel=10 note=61 velocity=57 time=0
EXTRACT: note_on channel=10 note=69 velocity=76 time=0
EXTRACT: note_on channel=10 note=73 velocity=59 time=0
EXTRACT: note_on channel=10 note=81 velocity=66 time=0
EXTRACT: note_on channel=4 note=64 velocity=108 time=0
EXTRACT: note_on channel=5 note=61 velocity=82 time=0
EXTRACT: note_on channel=5 note=64 velocity=85 time=0
EXTRACT: note_on channel=5 note=69 velocity=84 time=0
EXTRACT: note_on channel=6 note=61 velocity=60 time=0
EXTRACT: note_on channel=6 note=64 velocity=63 time=0
EXTRACT: note_on channel=6 note=69 velocity=62 time=0
EXTRACT: note_on channel=7 note=52 velocity=84 time=0
EXTRACT: note_on channel=9 note=36 velocity=126 time=0
EXTRACT: note_on channel=9 note=35 velocity=117 time=0
EXTRACT: note_on channel=9 note=44 velocity=81 time=0
EXTRACT: note_on channel=9 note=60 velocity=69 time=0
EXTRACT: note_on channel=9 note=60 velocity=0 time=0.001984125
EXTRACT: note_on channel=9 note=36 velocity=0 time=0
EXTRACT: note_on channel=9 note=35 velocity=0 time=0
EXTRACT: note_on channel=9 note=44 velocity=0 time=0
EXTRACT: note_on channel=5 note=64 velocity=0 time=0.057539625000000004
EXTRACT: note_on channel=5 note=69 velocity=0 time=0.00396825
EXTRACT: note_on channel=5 note=61 velocity=0 time=0
EXTRACT: note_on channel=9 note=27 velocity=0 time=0.015873
EXTRACT: note_on channel=9 note=36 velocity=0 time=0.00396825
EXTRACT: note_on channel=4 note=64 velocity=0 time=0.05158725000000001
EXTRACT: note_on channel=7 note=52 velocity=0 time=0
EXTRACT: note_on channel=9 note=69 velocity=93 time=0.005952375000000001
EXTRACT: note_on channel=9 note=69 velocity=0 time=0.001984125
EXTRACT: note_on channel=1 note=33 velocity=0 time=0.021825375
EXTRACT: note_on channel=6 note=69 velocity=0 time=0.0079365
EXTRACT: note_on channel=6 note=64 velocity=0 time=0
EXTRACT: note_on channel=6 note=61 velocity=0 time=0
EXTRACT: note_on channel=9 note=42 velocity=0 time=0.061507875000000004
EXTRACT: note_on channel=9 note=27 velocity=78 time=0.00396825
EXTRACT: note_on channel=9 note=44 velocity=64 time=0
EXTRACT: note_on channel=9 note=67 velocity=44 time=0
EXTRACT: note_on channel=1 note=33 velocity=79 time=0
EXTRACT: note_on channel=4 note=64 velocity=101 time=0
EXTRACT: note_on channel=7 note=57 velocity=67 time=0
EXTRACT: note_on channel=7 note=61 velocity=60 time=0
EXTRACT: note_on channel=9 note=42 velocity=73 time=0
EXTRACT: note_on channel=9 note=62 velocity=59 time=0
EXTRACT: note_on channel=9 note=70 velocity=105 time=0
EXTRACT: note_on channel=9 note=70 velocity=0 time=0.001984125
EXTRACT: note_on channel=9 note=62 velocity=0 time=0
EXTRACT: note_on channel=9 note=42 velocity=0 time=0
EXTRACT: note_on channel=9 note=56 velocity=0 time=0.027777750000000004
EXTRACT: note_on channel=9 note=67 velocity=0 time=0.009920625
EXTRACT: note_on channel=9 note=44 velocity=0 time=0.005952375000000001
EXTRACT: note_on channel=7 note=57 velocity=0 time=0.017857125
EXTRACT: note_on channel=9 note=27 velocity=0 time=0.001984125
EXTRACT: note_on channel=7 note=61 velocity=0 time=0.015873
EXTRACT: note_on channel=9 note=60 velocity=63 time=0.037698375000000006
EXTRACT: note_on channel=9 note=60 velocity=0 time=0.001984125
EXTRACT: note_on channel=9 note=27 velocity=50 time=0.0079365
EXTRACT: note_on channel=9 note=67 velocity=45 time=0
EXTRACT: note_on channel=5 note=61 velocity=65 time=0
EXTRACT: note_on channel=5 note=64 velocity=80 time=0
EXTRACT: note_on channel=5 note=69 velocity=84 time=0
EXTRACT: note_on channel=6 note=61 velocity=43 time=0
EXTRACT: note_on channel=6 note=64 velocity=58 time=0
EXTRACT: note_on channel=6 note=69 velocity=62 time=0
EXTRACT: note_on channel=7 note=57 velocity=76 time=0
EXTRACT: note_on channel=7 note=61 velocity=67 time=0
EXTRACT: note_on channel=9 note=44 velocity=67 time=0.009920625
EXTRACT: note_on channel=9 note=42 velocity=66 time=0.001984125
EXTRACT: note_on channel=9 note=69 velocity=61 time=0
EXTRACT: note_on channel=9 note=69 velocity=0 time=0.001984125
EXTRACT: note_on channel=9 note=42 velocity=0 time=0
EXTRACT: note_on channel=5 note=64 velocity=0 time=0.0396825
EXTRACT: note_on channel=5 note=61 velocity=0 time=0.0079365
EXTRACT: note_on channel=7 note=57 velocity=0 time=0.001984125
EXTRACT: note_on channel=9 note=67 velocity=0 time=0.009920625
EXTRACT: note_on channel=4 note=64 velocity=0 time=0
EXTRACT: note_on channel=5 note=69 velocity=0 time=0.005952375000000001
EXTRACT: note_on channel=1 note=33 velocity=0 time=0.005952375000000001
EXTRACT: note_on channel=9 note=44 velocity=0 time=0.00396825
EXTRACT: note_on channel=9 note=27 velocity=0 time=0
EXTRACT: note_on channel=7 note=61 velocity=0 time=0
EXTRACT: note_on channel=9 note=32 velocity=78 time=0.01984125
EXTRACT: note_on channel=9 note=36 velocity=103 time=0
EXTRACT: note_on channel=9 note=39 velocity=100 time=0
EXTRACT: note_on channel=9 note=42 velocity=97 time=0
EXTRACT: note_on channel=9 note=56 velocity=71 time=0
EXTRACT: note_on channel=1 note=37 velocity=80 time=0
EXTRACT: note_on channel=4 note=61 velocity=83 time=0
EXTRACT: note_on channel=7 note=52 velocity=92 time=0
EXTRACT: note_on channel=9 note=40 velocity=117 time=0
EXTRACT: note_on channel=9 note=36 velocity=126 time=0
EXTRACT: note_on channel=9 note=35 velocity=117 time=0
EXTRACT: note_on channel=9 note=39 velocity=121 time=0
EXTRACT: note_on channel=9 note=44 velocity=81 time=0
EXTRACT: note_on channel=9 note=69 velocity=78 time=0
EXTRACT: note_on channel=9 note=69 velocity=0 time=0.001984125
EXTRACT: note_on channel=9 note=36 velocity=0 time=0
EXTRACT: note_on channel=9 note=35 velocity=0 time=0
EXTRACT: note_on channel=9 note=40 velocity=0 time=0
EXTRACT: note_on channel=9 note=44 velocity=0 time=0
EXTRACT: note_on channel=9 note=39 velocity=0 time=0
EXTRACT: note_on channel=6 note=69 velocity=0 time=0.061507875000000004
EXTRACT: note_on channel=6 note=64 velocity=0 time=0
EXTRACT: note_on channel=6 note=61 velocity=0 time=0
EXTRACT: note_on channel=9 note=32 velocity=0 time=0.0079365
EXTRACT: note_on channel=9 note=36 velocity=0 time=0.0079365
EXTRACT: note_on channel=9 note=39 velocity=0 time=0
EXTRACT: note_on channel=9 note=61 velocity=73 time=0.0396825
EXTRACT: note_on channel=9 note=61 velocity=0 time=0.001984125
EXTRACT: note_on channel=7 note=52 velocity=0 time=0.0714285
EXTRACT: note_on channel=4 note=61 velocity=0 time=0.005952375000000001
EXTRACT: note_on channel=9 note=42 velocity=0 time=0.03571425
EXTRACT: note_on channel=9 note=32 velocity=69 time=0.00396825
EXTRACT: note_on channel=9 note=44 velocity=73 time=0
EXTRACT: note_on channel=9 note=68 velocity=43 time=0
EXTRACT: note_on channel=1 note=40 velocity=82 time=0
EXTRACT: note_on channel=4 note=59 velocity=83 time=0
EXTRACT: note_on channel=5 note=61 velocity=75 time=0
EXTRACT: note_on channel=5 note=64 velocity=84 time=0
EXTRACT: note_on channel=5 note=69 velocity=98 time=0
EXTRACT: note_on channel=6 note=61 velocity=53 time=0
EXTRACT: note_on channel=6 note=64 velocity=62 time=0
EXTRACT: note_on channel=6 note=69 velocity=76 time=0
EXTRACT: note_on channel=7 note=57 velocity=70 time=0
EXTRACT: note_on channel=7 note=61 velocity=65 time=0
EXTRACT: note_on channel=9 note=42 velocity=73 time=0
EXTRACT: note_on channel=9 note=60 velocity=66 time=0
EXTRACT: note_on channel=9 note=60 velocity=0 time=0.001984125
EXTRACT: note_on channel=9 note=42 velocity=0 time=0
EXTRACT: note_on channel=9 note=70 velocity=105 time=0
EXTRACT: note_on channel=9 note=70 velocity=0 time=0.001984125
EXTRACT: note_on channel=1 note=37 velocity=0 time=0.015873
EXTRACT: note_on channel=9 note=68 velocity=0 time=0.015873
EXTRACT: note_on channel=9 note=56 velocity=0 time=0.015873
EXTRACT: note_on channel=9 note=32 velocity=0 time=0.0079365
EXTRACT: note_on channel=5 note=61 velocity=0 time=0.00396825
EXTRACT: note_on channel=7 note=57 velocity=0 time=0
EXTRACT: note_on channel=9 note=44 velocity=0 time=0.001984125
EXTRACT: note_on channel=5 note=64 velocity=0 time=0
EXTRACT: note_on channel=7 note=61 velocity=0 time=0.00396825
EXTRACT: note_on channel=5 note=69 velocity=0 time=0.01984125
EXTRACT: note_on channel=10 note=73 velocity=0 time=0.005952375000000001
EXTRACT: note_on channel=10 note=57 velocity=0 time=0.005952375000000001
EXTRACT: note_on channel=10 note=81 velocity=0 time=0.011904750000000002
EXTRACT: note_on channel=10 note=69 velocity=0 time=0.001984125
EXTRACT: note_on channel=9 note=62 velocity=69 time=0.00396825
EXTRACT: note_on channel=9 note=62 velocity=0 time=0.001984125
EXTRACT: note_on channel=9 note=32 velocity=69 time=0.0079365
EXTRACT: note_on channel=9 note=68 velocity=60 time=0
EXTRACT: note_on channel=10 note=52 velocity=0 time=0
EXTRACT: note_on channel=7 note=57 velocity=67 time=0
EXTRACT: note_on channel=7 note=61 velocity=67 time=0
EXTRACT: note_on channel=9 note=44 velocity=68 time=0.009920625
EXTRACT: note_on channel=9 note=42 velocity=66 time=0.001984125
EXTRACT: note_on channel=9 note=42 velocity=0 time=0.001984125
EXTRACT: note_on channel=10 note=61 velocity=0 time=0.011904750000000002
EXTRACT: note_on channel=6 note=69 velocity=0 time=0.017857125
EXTRACT: note_on channel=6 note=64 velocity=0 time=0
EXTRACT: note_on channel=6 note=61 velocity=0 time=0
EXTRACT: note_on channel=9 note=68 velocity=0 time=0.017857125
EXTRACT: note_on channel=7 note=57 velocity=0 time=0.001984125
EXTRACT: note_on channel=9 note=32 velocity=0 time=0.009920625
EXTRACT: note_on channel=7 note=61 velocity=0 time=0.011904750000000002
EXTRACT: note_on channel=9 note=44 velocity=0 time=0.00396825
EXTRACT: note_on channel=4 note=59 velocity=0 time=0.00396825
EXTRACT: note_on channel=1 note=40 velocity=0 time=0.0079365
EXTRACT: note_on channel=9 note=27 velocity=88 time=0.0079365
EXTRACT: note_on channel=9 note=36 velocity=107 time=0
EXTRACT: note_on channel=9 note=42 velocity=96 time=0
EXTRACT: note_on channel=9 note=56 velocity=73 time=0
EXTRACT: note_on channel=1 note=35 velocity=88 time=0
EXTRACT: note_on channel=10 note=54 velocity=69 time=0
EXTRACT: note_on channel=10 note=59 velocity=65 time=0
EXTRACT: note_on channel=10 note=66 velocity=64 time=0
EXTRACT: note_on channel=10 note=71 velocity=68 time=0
EXTRACT: note_on channel=10 note=75 velocity=72 time=0
EXTRACT: note_on channel=10 note=78 velocity=67 time=0
EXTRACT: note_on channel=4 note=64 velocity=103 time=0
EXTRACT: note_on channel=7 note=54 velocity=83 time=0
EXTRACT: note_on channel=9 note=36 velocity=126 time=0
EXTRACT: note_on channel=9 note=35 velocity=117 time=0
EXTRACT: note_on channel=9 note=44 velocity=81 time=0
EXTRACT: note_on channel=9 note=82 velocity=69 time=0
EXTRACT: note_on channel=9 note=56 velocity=87 time=0
EXTRACT: note_on channel=9 note=60 velocity=63 time=0
EXTRACT: note_on channel=9 note=60 velocity=0 time=0.001984125
EXTRACT: note_on channel=9 note=35 velocity=0 time=0
EXTRACT: note_on channel=9 note=44 velocity=0 time=0
EXTRACT: note_on channel=9 note=36 velocity=0 time=0
EXTRACT: note_on channel=9 note=56 velocity=0 time=0
EXTRACT: note_on channel=9 note=82 velocity=0 time=0
EXTRACT: note_on channel=9 note=27 velocity=0 time=0.069444375
EXTRACT: note_on channel=9 note=36 velocity=0 time=0.009920625
EXTRACT: note_on channel=9 note=32 velocity=77 time=0.04761900000000001
EXTRACT: note_on channel=5 note=59 velocity=79 time=0
EXTRACT: note_on channel=5 note=64 velocity=84 time=0
EXTRACT: note_on channel=5 note=66 velocity=78 time=0
EXTRACT: note_on channel=6 note=59 velocity=57 time=0
EXTRACT: note_on channel=6 note=64 velocity=62 time=0
EXTRACT: note_on channel=6 note=66 velocity=56 time=0
EXTRACT: note_on channel=4 note=64 velocity=0 time=0.001984125
EXTRACT: note_on channel=9 note=82 velocity=43 time=0.009920625
EXTRACT: note_on channel=9 note=82 velocity=0 time=0.001984125
EXTRACT: note_on channel=5 note=59 velocity=0 time=0.017857125
EXTRACT: note_on channel=9 note=32 velocity=0 time=0.023809500000000004
EXTRACT: note_on channel=5 note=64 velocity=0 time=0.00396825
EXTRACT: note_on channel=5 note=66 velocity=0 time=0.00396825
EXTRACT: note_on channel=7 note=54 velocity=0 time=0.021825375
EXTRACT: note_on channel=9 note=70 velocity=105 time=0.015873
EXTRACT: note_on channel=9 note=70 velocity=0 time=0.001984125
EXTRACT: note_on channel=9 note=42 velocity=0 time=0.001984125
EXTRACT: note_on channel=9 note=27 velocity=77 time=0.00396825
EXTRACT: note_on channel=9 note=44 velocity=74 time=0
EXTRACT: note_on channel=4 note=64 velocity=96 time=0
EXTRACT: note_on channel=7 note=57 velocity=44 time=0
EXTRACT: note_on channel=7 note=59 velocity=61 time=0
EXTRACT: note_on channel=9 note=42 velocity=73 time=0
EXTRACT: note_on channel=9 note=82 velocity=48 time=0
EXTRACT: note_on channel=9 note=82 velocity=0 time=0.001984125
EXTRACT: note_on channel=9 note=42 velocity=0 time=0
EXTRACT: note_on channel=9 note=56 velocity=0 time=0.05158725000000001
EXTRACT: note_on channel=9 note=44 velocity=0 time=0.001984125
EXTRACT: note_on channel=9 note=27 velocity=0 time=0.0079365
EXTRACT: note_on channel=6 note=66 velocity=0 time=0
EXTRACT: note_on channel=6 note=64 velocity=0 time=0
EXTRACT: note_on channel=6 note=59 velocity=0 time=0
EXTRACT: note_on channel=7 note=59 velocity=0 time=0
EXTRACT: note_on channel=7 note=57 velocity=0 time=0
EXTRACT: note_on channel=9 note=56 velocity=87 time=0.05555550000000001
EXTRACT: note_on channel=9 note=56 velocity=0 time=0.001984125
EXTRACT: note_on channel=9 note=67 velocity=53 time=0.0079365
EXTRACT: note_on channel=7 note=57 velocity=64 time=0
EXTRACT: note_on channel=7 note=59 velocity=74 time=0
EXTRACT: note_on channel=9 note=44 velocity=76 time=0.009920625
EXTRACT: note_on channel=9 note=42 velocity=66 time=0.001984125
EXTRACT: note_on channel=9 note=82 velocity=40 time=0
EXTRACT: note_on channel=9 note=82 velocity=0 time=0.001984125
EXTRACT: note_on channel=9 note=42 velocity=0 time=0
EXTRACT: note_on channel=7 note=59 velocity=0 time=0.049603125000000005
EXTRACT: note_on channel=7 note=57 velocity=0 time=0
EXTRACT: note_on channel=4 note=64 velocity=0 time=0.001984125
EXTRACT: note_on channel=9 note=67 velocity=0 time=0.005952375000000001
EXTRACT: note_on channel=1 note=35 velocity=0 time=0.009920625
EXTRACT: note_on channel=9 note=44 velocity=0 time=0.00396825
EXTRACT: note_on channel=9 note=32 velocity=83 time=0.023809500000000004
EXTRACT: note_on channel=9 note=36 velocity=99 time=0
EXTRACT: note_on channel=9 note=39 velocity=103 time=0
EXTRACT: note_on channel=9 note=42 velocity=98 time=0
EXTRACT: note_on channel=9 note=56 velocity=74 time=0
EXTRACT: note_on channel=1 note=39 velocity=86 time=0
EXTRACT: note_on channel=4 note=61 velocity=85 time=0
EXTRACT: note_on channel=5 note=59 velocity=78 time=0
EXTRACT: note_on channel=5 note=64 velocity=84 time=0
EXTRACT: note_on channel=5 note=66 velocity=75 time=0
EXTRACT: note_on channel=6 note=59 velocity=56 time=0
EXTRACT: note_on channel=6 note=64 velocity=62 time=0
EXTRACT: note_on channel=6 note=66 velocity=53 time=0
EXTRACT: note_on channel=7 note=54 velocity=86 time=0
EXTRACT: note_on channel=9 note=39 velocity=121 time=0
EXTRACT: note_on channel=9 note=40 velocity=117 time=0
EXTRACT: note_on channel=9 note=36 velocity=126 time=0
EXTRACT: note_on channel=9 note=35 velocity=117 time=0
EXTRACT: note_on channel=9 note=44 velocity=81 time=0
EXTRACT: note_on channel=9 note=82 velocity=69 time=0
EXTRACT: note_on channel=9 note=82 velocity=0 time=0.001984125
EXTRACT: note_on channel=9 note=40 velocity=0 time=0
EXTRACT: note_on channel=9 note=36 velocity=0 time=0
EXTRACT: note_on channel=9 note=39 velocity=0 time=0
EXTRACT: note_on channel=9 note=44 velocity=0 time=0
EXTRACT: note_on channel=9 note=35 velocity=0 time=0
EXTRACT: note_on channel=5 note=59 velocity=0 time=0.031746
EXTRACT: note_on channel=9 note=32 velocity=0 time=0.029761875000000004
EXTRACT: note_on channel=5 note=64 velocity=0 time=0
EXTRACT: note_on channel=5 note=66 velocity=0 time=0.001984125
EXTRACT: note_on channel=9 note=36 velocity=0 time=0.013888875000000002
EXTRACT: note_on channel=9 note=39 velocity=0 time=0.013888875000000002
EXTRACT: note_on channel=6 note=66 velocity=0 time=0.079365
EXTRACT: note_on channel=6 note=64 velocity=0 time=0
EXTRACT: note_on channel=6 note=59 velocity=0 time=0
EXTRACT: note_on channel=4 note=61 velocity=0 time=0.029761875000000004
EXTRACT: note_on channel=7 note=54 velocity=0 time=0.009920625
EXTRACT: note_on channel=9 note=70 velocity=105 time=0.01984125
EXTRACT: note_on channel=9 note=42 velocity=0 time=0.001984125
EXTRACT: note_on channel=9 note=70 velocity=0 time=0
EXTRACT: note_on channel=9 note=32 velocity=79 time=0.00396825
EXTRACT: note_on channel=9 note=44 velocity=74 time=0
EXTRACT: note_on channel=9 note=68 velocity=51 time=0
EXTRACT: note_on channel=1 note=42 velocity=84 time=0
EXTRACT: note_on channel=4 note=59 velocity=87 time=0
EXTRACT: note_on channel=5 note=59 velocity=78 time=0
EXTRACT: note_on channel=5 note=63 velocity=85 time=0
EXTRACT: note_on channel=5 note=66 velocity=78 time=0
EXTRACT: note_on channel=6 note=59 velocity=56 time=0
EXTRACT: note_on channel=6 note=63 velocity=63 time=0
EXTRACT: note_on channel=6 note=66 velocity=56 time=0
EXTRACT: note_on channel=7 note=57 velocity=62 time=0
EXTRACT: note_on channel=7 note=59 velocity=70 time=0
EXTRACT: note_on channel=9 note=42 velocity=73 time=0
EXTRACT: note_on channel=9 note=69 velocity=78 time=0
EXTRACT: note_on channel=9 note=56 velocity=87 time=0
EXTRACT: note_on channel=9 note=56 velocity=0 time=0.001984125
EXTRACT: note_on channel=9 note=69 velocity=0 time=0
EXTRACT: note_on channel=9 note=42 velocity=0 time=0
EXTRACT: note_on channel=1 note=39 velocity=0 time=0.009920625
EXTRACT: note_on channel=5 note=59 velocity=0 time=0.017857125
EXTRACT: note_on channel=10 note=59 velocity=0 time=0.00396825
EXTRACT: note_on channel=9 note=68 velocity=0 time=0.001984125
EXTRACT: note_on channel=9 note=44 velocity=0 time=0.023809500000000004
EXTRACT: note_on channel=9 note=32 velocity=0 time=0
EXTRACT: note_on channel=5 note=63 velocity=0 time=0
EXTRACT: note_on channel=7 note=57 velocity=0 time=0.00396825
EXTRACT: note_on channel=5 note=66 velocity=0 time=0.005952375000000001
EXTRACT: note_on channel=7 note=59 velocity=0 time=0.009920625
EXTRACT: note_on channel=9 note=56 velocity=0 time=0.001984125
EXTRACT: note_on channel=10 note=71 velocity=0 time=0.011904750000000002
EXTRACT: note_on channel=10 note=54 velocity=0 time=0.011904750000000002
EXTRACT: note_on channel=10 note=66 velocity=0 time=0
EXTRACT: note_on channel=9 note=32 velocity=71 time=0.023809500000000004
EXTRACT: note_on channel=9 note=68 velocity=60 time=0
EXTRACT: note_on channel=10 note=75 velocity=0 time=0
EXTRACT: note_on channel=7 note=57 velocity=62 time=0
EXTRACT: note_on channel=7 note=59 velocity=36 time=0
EXTRACT: note_on channel=9 note=44 velocity=72 time=0.009920625
EXTRACT: note_on channel=10 note=78 velocity=0 time=0.001984125
EXTRACT: note_on channel=9 note=42 velocity=66 time=0
EXTRACT: note_on channel=9 note=69 velocity=73 time=0
EXTRACT: note_on channel=9 note=69 velocity=0 time=0.001984125
EXTRACT: note_on channel=9 note=42 velocity=0 time=0
EXTRACT: note_on channel=6 note=66 velocity=0 time=0.029761875000000004
EXTRACT: note_on channel=6 note=63 velocity=0 time=0
EXTRACT: note_on channel=6 note=59 velocity=0 time=0
EXTRACT: note_on channel=9 note=32 velocity=0 time=0.01984125
EXTRACT: note_on channel=7 note=57 velocity=0 time=0
EXTRACT: note_on channel=7 note=59 velocity=0 time=0.0079365
EXTRACT: note_on channel=9 note=68 velocity=0 time=0.00396825
EXTRACT: note_on channel=9 note=44 velocity=0 time=0.0079365
EXTRACT: note_on channel=4 note=59 velocity=0 time=0.0079365
EXTRACT: note_on channel=9 note=27 velocity=91 time=0.017857125
EXTRACT: note_on channel=9 note=36 velocity=108 time=0
EXTRACT: note_on channel=9 note=42 velocity=101 time=0
EXTRACT: note_on channel=9 note=56 velocity=78 time=0
EXTRACT: note_on channel=1 note=32 velocity=88 time=0
EXTRACT: note_on channel=10 note=56 velocity=79 time=0
EXTRACT: note_on channel=10 note=59 velocity=60 time=0
EXTRACT: note_on channel=10 note=63 velocity=67 time=0
EXTRACT: note_on channel=10 note=68 velocity=72 time=0
EXTRACT: note_on channel=10 note=71 velocity=72 time=0
EXTRACT: note_on channel=10 note=75 velocity=67 time=0
EXTRACT: note_on channel=10 note=83 velocity=66 time=0
EXTRACT: note_on channel=5 note=59 velocity=73 time=0
EXTRACT: note_on channel=5 note=63 velocity=94 time=0
EXTRACT: note_on channel=5 note=68 velocity=86 time=0
EXTRACT: note_on channel=6 note=59 velocity=51 time=0
EXTRACT: note_on channel=6 note=63 velocity=72 time=0
EXTRACT: note_on channel=6 note=68 velocity=64 time=0
EXTRACT: note_on channel=7 note=56 velocity=86 time=0
EXTRACT: note_on channel=9 note=36 velocity=126 time=0
EXTRACT: note_on channel=9 note=35 velocity=117 time=0
EXTRACT: note_on channel=9 note=35 velocity=0 time=0.001984125
EXTRACT: note_on channel=9 note=36 velocity=0 time=0
EXTRACT: note_on channel=1 note=42 velocity=0 time=0.00396825
EXTRACT: note_on channel=5 note=59 velocity=0 time=0.023809500000000004
EXTRACT: note_on channel=5 note=63 velocity=0 time=0.029761875000000004
EXTRACT: note_on channel=9 note=27 velocity=0 time=0.01984125
EXTRACT: note_on channel=9 note=36 velocity=0 time=0.00396825
EXTRACT: note_on channel=5 note=68 velocity=0 time=0.0079365
EXTRACT: note_on channel=9 note=69 velocity=84 time=0.049603125000000005
EXTRACT: note_on channel=9 note=69 velocity=0 time=0.001984125
EXTRACT: note_on channel=1 note=32 velocity=0 time=0.001984125
EXTRACT: note_on channel=6 note=68 velocity=0 time=0.027777750000000004
EXTRACT: note_on channel=6 note=63 velocity=0 time=0
EXTRACT: note_on channel=6 note=59 velocity=0 time=0
EXTRACT: note_on channel=9 note=42 velocity=0 time=0.061507875000000004
EXTRACT: note_on channel=9 note=70 velocity=105 time=0
EXTRACT: note_on channel=9 note=27 velocity=90 time=0.00396825
EXTRACT: note_on channel=9 note=44 velocity=73 time=0
EXTRACT: note_on channel=9 note=67 velocity=45 time=0
EXTRACT: note_on channel=1 note=32 velocity=83 time=0
EXTRACT: note_on channel=3 note=73 velocity=93 time=0
EXTRACT: note_on channel=7 note=59 velocity=75 time=0
EXTRACT: note_on channel=7 note=63 velocity=66 time=0
EXTRACT: note_on channel=9 note=70 velocity=0 time=0
EXTRACT: note_on channel=9 note=42 velocity=73 time=0
EXTRACT: note_on channel=9 note=62 velocity=79 time=0
EXTRACT: note_on channel=9 note=62 velocity=0 time=0.001984125
EXTRACT: note_on channel=9 note=42 velocity=0 time=0
EXTRACT: note_on channel=7 note=56 velocity=0 time=0.027777750000000004
EXTRACT: note_on channel=9 note=67 velocity=0 time=0.011904750000000002
EXTRACT: note_on channel=9 note=44 velocity=0 time=0.001984125
EXTRACT: note_on channel=9 note=56 velocity=0 time=0.01984125
EXTRACT: note_on channel=7 note=63 velocity=0 time=0
EXTRACT: note_on channel=7 note=59 velocity=0 time=0
EXTRACT: note_on channel=9 note=27 velocity=0 time=0.011904750000000002
EXTRACT: note_on channel=9 note=61 velocity=69 time=0.04365075
EXTRACT: note_on channel=9 note=61 velocity=0 time=0.001984125
EXTRACT: note_on channel=9 note=67 velocity=60 time=0.0079365
EXTRACT: note_on channel=5 note=59 velocity=79 time=0
EXTRACT: note_on channel=5 note=63 velocity=94 time=0
EXTRACT: note_on channel=5 note=68 velocity=89 time=0
EXTRACT: note_on channel=6 note=59 velocity=57 time=0
EXTRACT: note_on channel=6 note=63 velocity=72 time=0
EXTRACT: note_on channel=6 note=68 velocity=67 time=0
EXTRACT: note_on channel=7 note=59 velocity=60 time=0
EXTRACT: note_on channel=7 note=63 velocity=79 time=0
EXTRACT: note_on channel=9 note=44 velocity=84 time=0.009920625
EXTRACT: note_on channel=9 note=42 velocity=66 time=0.001984125
EXTRACT: note_on channel=9 note=69 velocity=68 time=0
EXTRACT: note_on channel=9 note=69 velocity=0 time=0.001984125
EXTRACT: note_on channel=9 note=42 velocity=0 time=0
EXTRACT: note_on channel=5 note=59 velocity=0 time=0.015873
EXTRACT: note_on channel=5 note=63 velocity=0 time=0.01984125
EXTRACT: note_on channel=7 note=59 velocity=0 time=0.013888875000000002
EXTRACT: note_on channel=9 note=67 velocity=0 time=0.009920625
EXTRACT: note_on channel=7 note=63 velocity=0 time=0
EXTRACT: note_on channel=9 note=44 velocity=0 time=0.011904750000000002
EXTRACT: note_on channel=5 note=68 velocity=0 time=0
EXTRACT: note_on channel=3 note=73 velocity=0 time=0.01984125
EXTRACT: note_on channel=9 note=32 velocity=88 time=0.00396825
EXTRACT: note_on channel=9 note=36 velocity=110 time=0
EXTRACT: note_on channel=9 note=39 velocity=113 time=0
EXTRACT: note_on channel=9 note=42 velocity=103 time=0
EXTRACT: note_on channel=9 note=56 velocity=82 time=0
EXTRACT: note_on channel=1 note=35 velocity=83 time=0
EXTRACT: note_on channel=3 note=71 velocity=89 time=0
EXTRACT: note_on channel=7 note=56 velocity=83 time=0
EXTRACT: note_on channel=9 note=39 velocity=121 time=0
EXTRACT: note_on channel=9 note=36 velocity=126 time=0
EXTRACT: note_on channel=9 note=35 velocity=117 time=0
EXTRACT: note_on channel=9 note=40 velocity=117 time=0
EXTRACT: note_on channel=9 note=44 velocity=81 time=0
EXTRACT: note_on channel=9 note=44 velocity=0 time=0.001984125
EXTRACT: note_on channel=9 note=35 velocity=0 time=0
EXTRACT: note_on channel=9 note=39 velocity=0 time=0
EXTRACT: note_on channel=9 note=36 velocity=0 time=0
EXTRACT: note_on channel=9 note=40 velocity=0 time=0
EXTRACT: note_on channel=1 note=32 velocity=0 time=0.017857125
EXTRACT: note_on channel=6 note=68 velocity=0 time=0.04365075
EXTRACT: note_on channel=6 note=63 velocity=0 time=0
EXTRACT: note_on channel=6 note=59 velocity=0 time=0
EXTRACT: note_on channel=9 note=32 velocity=0 time=0.0079365
EXTRACT: note_on channel=9 note=36 velocity=0 time=0.0079365
EXTRACT: note_on channel=9 note=62 velocity=73 time=0.0396825
EXTRACT: note_on channel=9 note=62 velocity=0 time=0.001984125
EXTRACT: note_on channel=9 note=39 velocity=0 time=0.031746
EXTRACT: note_on channel=3 note=71 velocity=0 time=0.05952375000000001
EXTRACT: note_on channel=9 note=42 velocity=0 time=0.021825375
EXTRACT: note_on channel=9 note=32 velocity=83 time=0.00396825
EXTRACT: note_on channel=9 note=44 velocity=86 time=0
EXTRACT: note_on channel=9 note=68 velocity=57 time=0
EXTRACT: note_on channel=1 note=39 velocity=91 time=0
EXTRACT: note_on channel=3 note=73 velocity=85 time=0
EXTRACT: note_on channel=5 note=59 velocity=85 time=0
EXTRACT: note_on channel=5 note=63 velocity=99 time=0
EXTRACT: note_on channel=5 note=68 velocity=94 time=0
EXTRACT: note_on channel=6 note=59 velocity=63 time=0
EXTRACT: note_on channel=6 note=63 velocity=77 time=0
EXTRACT: note_on channel=6 note=68 velocity=72 time=0
EXTRACT: note_on channel=7 note=59 velocity=72 time=0
EXTRACT: note_on channel=7 note=63 velocity=74 time=0
EXTRACT: note_on channel=9 note=42 velocity=73 time=0
EXTRACT: note_on channel=9 note=61 velocity=66 time=0
EXTRACT: note_on channel=9 note=61 velocity=0 time=0.001984125
EXTRACT: note_on channel=9 note=42 velocity=0 time=0
EXTRACT: note_on channel=1 note=35 velocity=0 time=0.001984125
EXTRACT: note_on channel=9 note=70 velocity=105 time=0
EXTRACT: note_on channel=9 note=70 velocity=0 time=0.001984125
EXTRACT: note_on channel=9 note=68 velocity=0 time=0.027777750000000004
EXTRACT: note_on channel=9 note=56 velocity=0 time=0.009920625
EXTRACT: note_on channel=9 note=44 velocity=0 time=0.009920625
EXTRACT: note_on channel=5 note=63 velocity=0 time=0.001984125
EXTRACT: note_on channel=5 note=59 velocity=0 time=0.0079365
EXTRACT: note_on channel=7 note=63 velocity=0 time=0
EXTRACT: note_on channel=7 note=59 velocity=0 time=0
EXTRACT: note_on channel=9 note=32 velocity=0 time=0.001984125
EXTRACT: note_on channel=5 note=68 velocity=0 time=0.013888875000000002
EXTRACT: note_on channel=10 note=75 velocity=0 time=0.001984125
EXTRACT: note_on channel=10 note=83 velocity=0 time=0.001984125
EXTRACT: note_on channel=7 note=56 velocity=0 time=0
EXTRACT: note_on channel=10 note=68 velocity=0 time=0.009920625
EXTRACT: note_on channel=10 note=63 velocity=0 time=0.005952375000000001
EXTRACT: note_on channel=10 note=71 velocity=0 time=0.001984125
EXTRACT: note_on channel=10 note=56 velocity=0 time=0.001984125
EXTRACT: note_on channel=10 note=59 velocity=0 time=0.001984125
EXTRACT: note_on channel=9 note=32 velocity=60 time=0.023809500000000004
EXTRACT: note_on channel=9 note=68 velocity=66 time=0
EXTRACT: note_on channel=7 note=59 velocity=60 time=0
EXTRACT: note_on channel=7 note=63 velocity=80 time=0
EXTRACT: note_on channel=9 note=44 velocity=83 time=0.009920625
EXTRACT: note_on channel=9 note=42 velocity=66 time=0.001984125
EXTRACT: note_on channel=9 note=82 velocity=48 time=0
EXTRACT: note_on channel=9 note=82 velocity=0 time=0.001984125
EXTRACT: note_on channel=9 note=42 velocity=0 time=0
EXTRACT: note_on channel=3 note=73 velocity=0 time=0.001984125
EXTRACT: note_on channel=6 note=68 velocity=0 time=0.027777750000000004
EXTRACT: note_on channel=6 note=63 velocity=0 time=0
EXTRACT: note_on channel=6 note=59 velocity=0 time=0
EXTRACT: note_on channel=9 note=32 velocity=0 time=0.009920625
EXTRACT: note_on channel=7 note=59 velocity=0 time=0.009920625
EXTRACT: note_on channel=1 note=39 velocity=0 time=0.001984125
EXTRACT: note_on channel=9 note=68 velocity=0 time=0.00396825
EXTRACT: note_on channel=7 note=63 velocity=0 time=0
EXTRACT: note_on channel=9 note=44 velocity=0 time=0.011904750000000002
EXTRACT: note_on channel=9 note=27 velocity=92 time=0.027777750000000004
EXTRACT: note_on channel=9 note=36 velocity=112 time=0
EXTRACT: note_on channel=9 note=42 velocity=108 time=0
EXTRACT: note_on channel=9 note=56 velocity=81 time=0
EXTRACT: note_on channel=1 note=37 velocity=90 time=0
EXTRACT: note_on channel=10 note=56 velocity=77 time=0
EXTRACT: note_on channel=10 note=61 velocity=51 time=0
EXTRACT: note_on channel=10 note=64 velocity=62 time=0
EXTRACT: note_on channel=10 note=68 velocity=74 time=0
EXTRACT: note_on channel=10 note=73 velocity=62 time=0
EXTRACT: note_on channel=10 note=76 velocity=73 time=0
EXTRACT: note_on channel=10 note=85 velocity=63 time=0
EXTRACT: note_on channel=7 note=56 velocity=87 time=0
EXTRACT: note_on channel=9 note=36 velocity=126 time=0
EXTRACT: note_on channel=9 note=35 velocity=117 time=0
EXTRACT: note_on channel=9 note=44 velocity=81 time=0
EXTRACT: note_on channel=9 note=82 velocity=55 time=0
EXTRACT: note_on channel=9 note=56 velocity=80 time=0
EXTRACT: note_on channel=9 note=56 velocity=0 time=0.001984125
EXTRACT: note_on channel=9 note=44 velocity=0 time=0
EXTRACT: note_on channel=9 note=36 velocity=0 time=0
EXTRACT: note_on channel=9 note=35 velocity=0 time=0
EXTRACT: note_on channel=9 note=82 velocity=0 time=0
EXTRACT: note_on channel=9 note=36 velocity=0 time=0.077380875
EXTRACT: note_on channel=9 note=27 velocity=0 time=0.005952375000000001
EXTRACT: note_on channel=5 note=61 velocity=56 time=0.04365075
EXTRACT: note_on channel=5 note=64 velocity=94 time=0
EXTRACT: note_on channel=5 note=68 velocity=85 time=0
EXTRACT: note_on channel=6 note=61 velocity=34 time=0
EXTRACT: note_on channel=6 note=64 velocity=72 time=0
EXTRACT: note_on channel=6 note=68 velocity=63 time=0
EXTRACT: note_on channel=9 note=82 velocity=63 time=0.011904750000000002
EXTRACT: note_on channel=9 note=82 velocity=0 time=0.001984125
EXTRACT: note_on channel=5 note=61 velocity=0 time=0.017857125
EXTRACT: note_on channel=5 note=64 velocity=0 time=0.021825375
EXTRACT: note_on channel=5 note=68 velocity=0 time=0.009920625
EXTRACT: note_on channel=9 note=42 velocity=0 time=0.041666625000000006
EXTRACT: note_on channel=9 note=27 velocity=91 time=0.00396825
EXTRACT: note_on channel=9 note=44 velocity=87 time=0
EXTRACT: note_on channel=9 note=66 velocity=84 time=0
EXTRACT: note_on channel=9 note=67 velocity=62 time=0
EXTRACT: note_on channel=3 note=73 velocity=90 time=0
EXTRACT: note_on channel=7 note=61 velocity=55 time=0
EXTRACT: note_on channel=7 note=64 velocity=70 time=0
EXTRACT: note_on channel=9 note=42 velocity=73 time=0
EXTRACT: note_on channel=9 note=82 velocity=59 time=0
EXTRACT: note_on channel=9 note=63 velocity=60 time=0
EXTRACT: note_on channel=9 note=63 velocity=0 time=0.001984125
EXTRACT: note_on channel=9 note=82 velocity=0 time=0
EXTRACT: note_on channel=9 note=42 velocity=0 time=0
EXTRACT: note_on channel=9 note=70 velocity=105 time=0.001984125
EXTRACT: note_on channel=9 note=70 velocity=0 time=0.001984125
EXTRACT: note_on channel=9 note=67 velocity=0 time=0.03373012500000001
EXTRACT: note_on channel=9 note=44 velocity=0 time=0.013888875000000002
EXTRACT: note_on channel=6 note=68 velocity=0 time=0.009920625
EXTRACT: note_on channel=6 note=64 velocity=0 time=0
EXTRACT: note_on channel=6 note=61 velocity=0 time=0
EXTRACT: note_on channel=7 note=64 velocity=0 time=0
EXTRACT: note_on channel=7 note=61 velocity=0 time=0
EXTRACT: note_on channel=7 note=56 velocity=0 time=0.005952375000000001
EXTRACT: note_on channel=9 note=66 velocity=0 time=0.005952375000000001
EXTRACT: note_on channel=9 note=56 velocity=0 time=0.005952375000000001
EXTRACT: note_on channel=9 note=27 velocity=0 time=0.001984125
EXTRACT: note_on channel=9 note=56 velocity=89 time=0.03571425
EXTRACT: note_on channel=9 note=56 velocity=0 time=0.001984125
EXTRACT: note_on channel=9 note=67 velocity=54 time=0.0079365
EXTRACT: note_on channel=7 note=61 velocity=64 time=0
EXTRACT: note_on channel=7 note=64 velocity=70 time=0
EXTRACT: note_on channel=9 note=44 velocity=84 time=0.009920625
EXTRACT: note_on channel=9 note=42 velocity=66 time=0.001984125
EXTRACT: note_on channel=9 note=82 velocity=45 time=0
EXTRACT: note_on channel=9 note=82 velocity=0 time=0.001984125
EXTRACT: note_on channel=9 note=42 velocity=0 time=0
EXTRACT: note_on channel=7 note=64 velocity=0 time=0.05158725000000001
EXTRACT: note_on channel=9 note=44 velocity=0 time=0.009920625
EXTRACT: note_on channel=9 note=67 velocity=0 time=0
EXTRACT: note_on channel=7 note=61 velocity=0 time=0.0079365
EXTRACT: note_on channel=1 note=37 velocity=0 time=0.011904750000000002
EXTRACT: note_on channel=3 note=73 velocity=0 time=0.009920625
EXTRACT: note_on channel=9 note=32 velocity=92 time=0.00396825
EXTRACT: note_on channel=9 note=36 velocity=112 time=0
EXTRACT: note_on channel=9 note=39 velocity=113 time=0
EXTRACT: note_on channel=9 note=42 velocity=108 time=0
EXTRACT: note_on channel=9 note=56 velocity=84 time=0
EXTRACT: note_on channel=9 note=65 velocity=82 time=0
EXTRACT: note_on channel=1 note=35 velocity=83 time=0
EXTRACT: note_on channel=3 note=71 velocity=92 time=0
EXTRACT: note_on channel=5 note=61 velocity=78 time=0
EXTRACT: note_on channel=5 note=64 velocity=88 time=0
EXTRACT: note_on channel=5 note=68 velocity=88 time=0
EXTRACT: note_on channel=6 note=61 velocity=56 time=0
EXTRACT: note_on channel=6 note=64 velocity=66 time=0
EXTRACT: note_on channel=6 note=68 velocity=66 time=0
EXTRACT: note_on channel=7 note=56 velocity=86 time=0
EXTRACT: note_on channel=9 note=36 velocity=126 time=0
EXTRACT: note_on channel=9 note=35 velocity=117 time=0
EXTRACT: note_on channel=9 note=39 velocity=121 time=0
EXTRACT: note_on channel=9 note=40 velocity=117 time=0
EXTRACT: note_on channel=9 note=44 velocity=81 time=0
EXTRACT: note_on channel=9 note=82 velocity=60 time=0
EXTRACT: note_on channel=9 note=82 velocity=0 time=0.001984125
EXTRACT: note_on channel=9 note=35 velocity=0 time=0
EXTRACT: note_on channel=9 note=39 velocity=0 time=0
EXTRACT: note_on channel=9 note=36 velocity=0 time=0
EXTRACT: note_on channel=9 note=44 velocity=0 time=0
EXTRACT: note_on channel=9 note=40 velocity=0 time=0
EXTRACT: note_on channel=9 note=65 velocity=0 time=0.03373012500000001
EXTRACT: note_on channel=9 note=32 velocity=0 time=0.029761875000000004
EXTRACT: note_on channel=9 note=36 velocity=0 time=0.009920625
EXTRACT: note_on channel=9 note=39 velocity=0 time=0.0079365
EXTRACT: note_on channel=1 note=35 velocity=0 time=0.10912687500000001
EXTRACT: note_on channel=3 note=71 velocity=0 time=0.01984125
EXTRACT: note_on channel=9 note=42 velocity=0 time=0.001984125
EXTRACT: note_on channel=10 note=76 velocity=0 time=0.0079365
EXTRACT: note_on channel=9 note=70 velocity=105 time=0.009920625
EXTRACT: note_on channel=9 note=70 velocity=0 time=0.001984125
EXTRACT: note_on channel=9 note=32 velocity=79 time=0.00396825
EXTRACT: note_on channel=9 note=44 velocity=90 time=0
EXTRACT: note_on channel=9 note=65 velocity=77 time=0
EXTRACT: note_on channel=9 note=68 velocity=62 time=0
EXTRACT: note_on channel=1 note=36 velocity=92 time=0
EXTRACT: note_on channel=3 note=73 velocity=83 time=0
EXTRACT: note_on channel=7 note=61 velocity=67 time=0
EXTRACT: note_on channel=7 note=64 velocity=76 time=0
EXTRACT: note_on channel=9 note=42 velocity=75 time=0
EXTRACT: note_on channel=9 note=69 velocity=87 time=0
EXTRACT: note_on channel=9 note=56 velocity=87 time=0
EXTRACT: note_on channel=10 note=85 velocity=0 time=0.001984125
EXTRACT: note_on channel=9 note=56 velocity=0 time=0
EXTRACT: note_on channel=9 note=69 velocity=0 time=0
EXTRACT: note_on channel=9 note=42 velocity=0 time=0
EXTRACT: note_on channel=9 note=65 velocity=0 time=0.027777750000000004
EXTRACT: note_on channel=7 note=56 velocity=0 time=0.005952375000000001
EXTRACT: note_on channel=10 note=68 velocity=0 time=0.00396825
EXTRACT: note_on channel=5 note=64 velocity=0 time=0
EXTRACT: note_on channel=5 note=61 velocity=0 time=0
EXTRACT: note_on channel=6 note=64 velocity=0 time=0
EXTRACT: note_on channel=6 note=61 velocity=0 time=0
EXTRACT: note_on channel=9 note=68 velocity=0 time=0.009920625
EXTRACT: note_on channel=10 note=73 velocity=0 time=0.001984125
EXTRACT: note_on channel=5 note=68 velocity=0 time=0.001984125
EXTRACT: note_on channel=6 note=68 velocity=0 time=0
EXTRACT: note_on channel=9 note=44 velocity=0 time=0.001984125
EXTRACT: note_on channel=9 note=32 velocity=0 time=0.00396825
EXTRACT: note_on channel=7 note=64 velocity=0 time=0.005952375000000001
EXTRACT: note_on channel=7 note=61 velocity=0 time=0
EXTRACT: note_on channel=9 note=56 velocity=0 time=0.03373012500000001
EXTRACT: note_on channel=3 note=73 velocity=0 time=0.013888875000000002
EXTRACT: note_on channel=9 note=62 velocity=64 time=0.005952375000000001
EXTRACT: note_on channel=9 note=62 velocity=0 time=0.001984125
EXTRACT: note_on channel=9 note=32 velocity=74 time=0.0079365
EXTRACT: note_on channel=9 note=65 velocity=79 time=0
EXTRACT: note_on channel=9 note=68 velocity=61 time=0
EXTRACT: note_on channel=7 note=61 velocity=74 time=0
EXTRACT: note_on channel=7 note=64 velocity=80 time=0
EXTRACT: note_on channel=9 note=44 velocity=71 time=0.009920625
EXTRACT: note_on channel=9 note=42 velocity=66 time=0.001984125
EXTRACT: note_on channel=9 note=69 velocity=69 time=0
EXTRACT: note_on channel=9 note=69 velocity=0 time=0.001984125
EXTRACT: note_on channel=9 note=42 velocity=0 time=0
EXTRACT: note_on channel=10 note=56 velocity=0 time=0.027777750000000004
EXTRACT: note_on channel=10 note=61 velocity=0 time=0.00396825
EXTRACT: note_on channel=10 note=64 velocity=0 time=0.00396825
EXTRACT: note_on channel=9 note=65 velocity=0 time=0.001984125
EXTRACT: note_on channel=9 note=68 velocity=0 time=0.011904750000000002
EXTRACT: note_on channel=9 note=32 velocity=0 time=0.001984125
EXTRACT: note_on channel=7 note=64 velocity=0 time=0.00396825
EXTRACT: note_on channel=9 note=44 velocity=0 time=0.005952375000000001
EXTRACT: note_on channel=7 note=61 velocity=0 time=0.00396825
EXTRACT: note_on channel=1 note=36 velocity=0 time=0.013888875000000002
EXTRACT: note_on channel=9 note=27 velocity=111 time=0.015873
EXTRACT: note_on channel=9 note=36 velocity=122 time=0
EXTRACT: note_on channel=9 note=46 velocity=106 time=0
EXTRACT: note_on channel=9 note=49 velocity=97 time=0
EXTRACT: note_on channel=9 note=56 velocity=92 time=0
EXTRACT: note_on channel=9 note=57 velocity=86 time=0
EXTRACT: note_on channel=1 note=37 velocity=88 time=0
EXTRACT: note_on channel=9 note=27 velocity=111 time=0
EXTRACT: note_on channel=9 note=36 velocity=122 time=0
EXTRACT: note_on channel=9 note=46 velocity=106 time=0
EXTRACT: note_on channel=9 note=49 velocity=97 time=0
EXTRACT: note_on channel=9 note=56 velocity=92 time=0
EXTRACT: note_on channel=9 note=57 velocity=86 time=0
EXTRACT: note_on channel=9 note=46 velocity=0 time=0.05952375000000001
EXTRACT: note_on channel=9 note=46 velocity=0 time=0
EXTRACT: note_on channel=9 note=36 velocity=0 time=0.005952375000000001
EXTRACT: note_on channel=9 note=36 velocity=0 time=0
EXTRACT: note_on channel=9 note=49 velocity=0 time=0.009920625
EXTRACT: note_on channel=9 note=49 velocity=0 time=0
EXTRACT: note_on channel=9 note=57 velocity=0 time=0.023809500000000004
EXTRACT: note_on channel=9 note=57 velocity=0 time=0
EXTRACT: note_on channel=9 note=27 velocity=0 time=0.01984125
EXTRACT: note_on channel=9 note=27 velocity=0 time=0
EXTRACT: note_on channel=9 note=50 velocity=85 time=0.8333325000000001
EXTRACT: note_on channel=9 note=50 velocity=85 time=0
EXTRACT: note_on channel=9 note=50 velocity=0 time=0.23412675000000002
EXTRACT: note_on channel=9 note=50 velocity=0 time=0
EXTRACT: note_on channel=3 note=64 velocity=95 time=0.00396825
EXTRACT: note_on channel=9 note=56 velocity=0 time=0.07539675000000001
EXTRACT: note_on channel=9 note=56 velocity=0 time=0
EXTRACT: note_on channel=3 note=64 velocity=0 time=0.15277762500000003
EXTRACT: note_on channel=9 note=48 velocity=95 time=0.009920625
EXTRACT: note_on channel=3 note=66 velocity=88 time=0
EXTRACT: note_on channel=9 note=48 velocity=95 time=0
EXTRACT: note_on channel=9 note=48 velocity=0 time=0.07341262500000001
EXTRACT: note_on channel=9 note=48 velocity=0 time=0
EXTRACT: note_on channel=9 note=50 velocity=76 time=0.045634875000000005
EXTRACT: note_on channel=9 note=50 velocity=76 time=0
EXTRACT: note_on channel=3 note=66 velocity=0 time=0.053571375000000004
EXTRACT: note_on channel=9 note=43 velocity=85 time=0.06547612500000001
EXTRACT: note_on channel=3 note=68 velocity=93 time=0
EXTRACT: note_on channel=9 note=43 velocity=85 time=0
EXTRACT: note_on channel=9 note=50 velocity=0 time=0.11507925000000001
EXTRACT: note_on channel=9 note=50 velocity=0 time=0
EXTRACT: note_on channel=9 note=43 velocity=0 time=0.11904750000000001
EXTRACT: note_on channel=1 note=37 velocity=0 time=0
EXTRACT: note_on channel=9 note=43 velocity=0 time=0
EXTRACT: note_on channel=9 note=36 velocity=110 time=0.00396825
EXTRACT: note_on channel=9 note=44 velocity=108 time=0
EXTRACT: note_on channel=9 note=49 velocity=88 time=0
EXTRACT: note_on channel=9 note=57 velocity=71 time=0
EXTRACT: note_on channel=1 note=37 velocity=95 time=0
EXTRACT: note_on channel=10 note=56 velocity=77 time=0
EXTRACT: note_on channel=10 note=61 velocity=57 time=0
EXTRACT: note_on channel=10 note=64 velocity=64 time=0
EXTRACT: note_on channel=5 note=56 velocity=87 time=0
EXTRACT: note_on channel=5 note=61 velocity=73 time=0
EXTRACT: note_on channel=5 note=64 velocity=78 time=0
EXTRACT: note_on channel=6 note=56 velocity=65 time=0
EXTRACT: note_on channel=6 note=61 velocity=51 time=0
EXTRACT: note_on channel=6 note=64 velocity=56 time=0
EXTRACT: note_on channel=9 note=36 velocity=126 time=0
EXTRACT: note_on channel=9 note=35 velocity=117 time=0
EXTRACT: note_on channel=9 note=35 velocity=0 time=0.001984125
EXTRACT: note_on channel=9 note=36 velocity=0 time=0
EXTRACT: note_on channel=9 note=57 velocity=0 time=0.05952375000000001
EXTRACT: note_on channel=9 note=49 velocity=0 time=0.001984125
EXTRACT: note_on channel=9 note=44 velocity=0 time=0
EXTRACT: note_on channel=9 note=36 velocity=0 time=0.009920625
EXTRACT: note_on channel=5 note=64 velocity=0 time=0
EXTRACT: note_on channel=5 note=56 velocity=0 time=0.0079365
EXTRACT: note_on channel=5 note=61 velocity=0 time=0.011904750000000002
EXTRACT: note_on channel=9 note=69 velocity=84 time=0.04761900000000001
EXTRACT: note_on channel=9 note=69 velocity=0 time=0.001984125
EXTRACT: note_on channel=3 note=68 velocity=0 time=0.01984125
EXTRACT: note_on channel=6 note=64 velocity=0 time=0.009920625
EXTRACT: note_on channel=6 note=61 velocity=0 time=0
EXTRACT: note_on channel=6 note=56 velocity=0 time=0
EXTRACT: note_on channel=1 note=37 velocity=0 time=0.049603125000000005
EXTRACT: note_on channel=9 note=70 velocity=105 time=0.011904750000000002
EXTRACT: note_on channel=9 note=44 velocity=38 time=0.00396825
EXTRACT: note_on channel=1 note=32 velocity=77 time=0
EXTRACT: note_on channel=3 note=64 velocity=99 time=0
EXTRACT: note_on channel=9 note=70 velocity=0 time=0
EXTRACT: note_on channel=9 note=42 velocity=73 time=0
EXTRACT: note_on channel=9 note=62 velocity=79 time=0
EXTRACT: note_on channel=9 note=62 velocity=0 time=0.001984125
EXTRACT: note_on channel=9 note=42 velocity=0 time=0
EXTRACT: note_on channel=9 note=44 velocity=0 time=0.027777750000000004
EXTRACT: note_on channel=9 note=61 velocity=69 time=0.08928562500000001
EXTRACT: note_on channel=9 note=61 velocity=0 time=0.001984125
EXTRACT: note_on channel=5 note=56 velocity=80 time=0.0079365
EXTRACT: note_on channel=5 note=61 velocity=71 time=0
EXTRACT: note_on channel=5 note=64 velocity=76 time=0
EXTRACT: note_on channel=6 note=56 velocity=58 time=0
EXTRACT: note_on channel=6 note=61 velocity=49 time=0
EXTRACT: note_on channel=6 note=64 velocity=54 time=0
EXTRACT: note_on channel=9 note=44 velocity=58 time=0.009920625
EXTRACT: note_on channel=9 note=42 velocity=66 time=0.001984125
EXTRACT: note_on channel=9 note=69 velocity=68 time=0
EXTRACT: note_on channel=9 note=69 velocity=0 time=0.001984125
EXTRACT: note_on channel=9 note=42 velocity=0 time=0
EXTRACT: note_on channel=3 note=64 velocity=0 time=0.05555550000000001
EXTRACT: note_on channel=9 note=44 velocity=0 time=0.005952375000000001
EXTRACT: note_on channel=5 note=64 velocity=0 time=0
EXTRACT: note_on channel=5 note=61 velocity=0 time=0
EXTRACT: note_on channel=5 note=56 velocity=0 time=0.017857125
EXTRACT: note_on channel=1 note=32 velocity=0 time=0.0079365
EXTRACT: note_on channel=9 note=28 velocity=69 time=0.0079365
EXTRACT: note_on channel=9 note=36 velocity=103 time=0
EXTRACT: note_on channel=9 note=39 velocity=83 time=0
EXTRACT: note_on channel=9 note=42 velocity=61 time=0
EXTRACT: note_on channel=1 note=35 velocity=69 time=0
EXTRACT: note_on channel=3 note=66 velocity=78 time=0
EXTRACT: note_on channel=9 note=39 velocity=121 time=0
EXTRACT: note_on channel=9 note=36 velocity=126 time=0
EXTRACT: note_on channel=9 note=35 velocity=117 time=0
EXTRACT: note_on channel=9 note=40 velocity=117 time=0
EXTRACT: note_on channel=9 note=44 velocity=81 time=0
EXTRACT: note_on channel=9 note=44 velocity=0 time=0.001984125
EXTRACT: note_on channel=9 note=35 velocity=0 time=0
EXTRACT: note_on channel=9 note=39 velocity=0 time=0
EXTRACT: note_on channel=9 note=36 velocity=0 time=0
EXTRACT: note_on channel=9 note=40 velocity=0 time=0
EXTRACT: note_on channel=9 note=42 velocity=0 time=0.049603125000000005
EXTRACT: note_on channel=6 note=64 velocity=0 time=0.011904750000000002
EXTRACT: note_on channel=6 note=61 velocity=0 time=0
EXTRACT: note_on channel=6 note=56 velocity=0 time=0
EXTRACT: note_on channel=9 note=39 velocity=0 time=0.009920625
EXTRACT: note_on channel=9 note=36 velocity=0 time=0
EXTRACT: note_on channel=9 note=28 velocity=0 time=0.005952375000000001
EXTRACT: note_on channel=9 note=62 velocity=73 time=0.0396825
EXTRACT: note_on channel=9 note=62 velocity=0 time=0.001984125
EXTRACT: note_on channel=3 note=66 velocity=0 time=0.061507875000000004
EXTRACT: note_on channel=1 note=35 velocity=0 time=0.05158725000000001
EXTRACT: note_on channel=9 note=44 velocity=42 time=0.00396825
EXTRACT: note_on channel=1 note=37 velocity=92 time=0
EXTRACT: note_on channel=3 note=68 velocity=87 time=0
EXTRACT: note_on channel=5 note=56 velocity=87 time=0
EXTRACT: note_on channel=5 note=61 velocity=75 time=0
EXTRACT: note_on channel=5 note=64 velocity=78 time=0
EXTRACT: note_on channel=6 note=56 velocity=65 time=0
EXTRACT: note_on channel=6 note=61 velocity=53 time=0
EXTRACT: note_on channel=6 note=64 velocity=56 time=0
EXTRACT: note_on channel=9 note=42 velocity=73 time=0
EXTRACT: note_on channel=9 note=61 velocity=66 time=0
EXTRACT: note_on channel=9 note=61 velocity=0 time=0.001984125
EXTRACT: note_on channel=9 note=42 velocity=0 time=0
EXTRACT: note_on channel=9 note=70 velocity=105 time=0.001984125
EXTRACT: note_on channel=9 note=70 velocity=0 time=0.001984125
EXTRACT: note_on channel=9 note=44 velocity=0 time=0.025793625000000004
EXTRACT: note_on channel=5 note=64 velocity=0 time=0.037698375000000006
EXTRACT: note_on channel=5 note=61 velocity=0 time=0.005952375000000001
EXTRACT: note_on channel=5 note=56 velocity=0 time=0.015873
EXTRACT: note_on channel=9 note=44 velocity=62 time=0.04761900000000001
EXTRACT: note_on channel=9 note=42 velocity=66 time=0.001984125
EXTRACT: note_on channel=9 note=82 velocity=48 time=0
EXTRACT: note_on channel=9 note=82 velocity=0 time=0.001984125
EXTRACT: note_on channel=9 note=42 velocity=0 time=0
EXTRACT: note_on channel=6 note=64 velocity=0 time=0.029761875000000004
EXTRACT: note_on channel=6 note=61 velocity=0 time=0
EXTRACT: note_on channel=6 note=56 velocity=0 time=0
EXTRACT: note_on channel=9 note=44 velocity=0 time=0.037698375000000006
EXTRACT: note_on channel=1 note=37 velocity=0 time=0.023809500000000004
EXTRACT: note_on channel=9 note=36 velocity=95 time=0.00396825
EXTRACT: note_on channel=9 note=44 velocity=89 time=0
EXTRACT: note_on channel=9 note=36 velocity=126 time=0
EXTRACT: note_on channel=9 note=35 velocity=117 time=0
EXTRACT: note_on channel=9 note=44 velocity=81 time=0
EXTRACT: note_on channel=9 note=82 velocity=55 time=0
EXTRACT: note_on channel=9 note=56 velocity=80 time=0
EXTRACT: note_on channel=9 note=56 velocity=0 time=0.001984125
EXTRACT: note_on channel=9 note=44 velocity=0 time=0
EXTRACT: note_on channel=9 note=36 velocity=0 time=0
EXTRACT: note_on channel=9 note=35 velocity=0 time=0
EXTRACT: note_on channel=9 note=82 velocity=0 time=0
EXTRACT: note_on channel=9 note=44 velocity=0 time=0.06746025000000001
EXTRACT: note_on channel=9 note=36 velocity=0 time=0.013888875000000002
EXTRACT: note_on channel=9 note=82 velocity=63 time=0.057539625000000004
EXTRACT: note_on channel=9 note=82 velocity=0 time=0.001984125
EXTRACT: note_on channel=3 note=68 velocity=0 time=0.0873015
EXTRACT: note_on channel=9 note=44 velocity=37 time=0.0079365
EXTRACT: note_on channel=1 note=37 velocity=91 time=0
EXTRACT: note_on channel=3 note=64 velocity=84 time=0
EXTRACT: note_on channel=5 note=56 velocity=82 time=0
EXTRACT: note_on channel=5 note=61 velocity=76 time=0
EXTRACT: note_on channel=5 note=64 velocity=78 time=0
EXTRACT: note_on channel=6 note=56 velocity=60 time=0
EXTRACT: note_on channel=6 note=61 velocity=54 time=0
EXTRACT: note_on channel=6 note=64 velocity=56 time=0
EXTRACT: note_on channel=9 note=42 velocity=73 time=0
EXTRACT: note_on channel=9 note=82 velocity=59 time=0
EXTRACT: note_on channel=9 note=63 velocity=60 time=0
EXTRACT: note_on channel=9 note=63 velocity=0 time=0.001984125
EXTRACT: note_on channel=9 note=82 velocity=0 time=0
EXTRACT: note_on channel=9 note=42 velocity=0 time=0
EXTRACT: note_on channel=9 note=70 velocity=105 time=0.001984125
EXTRACT: note_on channel=9 note=70 velocity=0 time=0.001984125
EXTRACT: note_on channel=9 note=44 velocity=0 time=0.023809500000000004
EXTRACT: note_on channel=5 note=64 velocity=0 time=0.041666625000000006
EXTRACT: note_on channel=5 note=61 velocity=0 time=0.001984125
EXTRACT: note_on channel=5 note=56 velocity=0 time=0.015873
EXTRACT: note_on channel=9 note=56 velocity=89 time=0.029761875000000004
EXTRACT: note_on channel=9 note=56 velocity=0 time=0.001984125
EXTRACT: note_on channel=9 note=44 velocity=48 time=0.017857125
EXTRACT: note_on channel=9 note=42 velocity=66 time=0.001984125
EXTRACT: note_on channel=9 note=82 velocity=45 time=0
EXTRACT: note_on channel=9 note=82 velocity=0 time=0.001984125
EXTRACT: note_on channel=9 note=42 velocity=0 time=0
EXTRACT: note_on channel=6 note=64 velocity=0 time=0.029761875000000004
EXTRACT: note_on channel=6 note=61 velocity=0 time=0
EXTRACT: note_on channel=6 note=56 velocity=0 time=0
EXTRACT: note_on channel=1 note=37 velocity=0 time=0.015873
EXTRACT: note_on channel=9 note=44 velocity=0 time=0.005952375000000001
EXTRACT: note_on channel=3 note=64 velocity=0 time=0.03373012500000001
EXTRACT: note_on channel=9 note=28 velocity=75 time=0.009920625
EXTRACT: note_on channel=9 note=36 velocity=99 time=0
EXTRACT: note_on channel=9 note=39 velocity=80 time=0
EXTRACT: note_on channel=9 note=44 velocity=88 time=0
EXTRACT: note_on channel=3 note=66 velocity=82 time=0
EXTRACT: note_on channel=9 note=36 velocity=126 time=0
EXTRACT: note_on channel=9 note=35 velocity=117 time=0
EXTRACT: note_on channel=9 note=39 velocity=121 time=0
EXTRACT: note_on channel=9 note=40 velocity=117 time=0
EXTRACT: note_on channel=9 note=44 velocity=81 time=0
EXTRACT: note_on channel=9 note=82 velocity=60 time=0
EXTRACT: note_on channel=9 note=82 velocity=0 time=0.001984125
EXTRACT: note_on channel=9 note=35 velocity=0 time=0
EXTRACT: note_on channel=9 note=39 velocity=0 time=0
EXTRACT: note_on channel=9 note=36 velocity=0 time=0
EXTRACT: note_on channel=9 note=44 velocity=0 time=0
EXTRACT: note_on channel=9 note=40 velocity=0 time=0
EXTRACT: note_on channel=9 note=44 velocity=0 time=0.06746025000000001
EXTRACT: note_on channel=9 note=39 velocity=0 time=0.00396825
EXTRACT: note_on channel=9 note=36 velocity=0 time=0.005952375000000001
EXTRACT: note_on channel=9 note=28 velocity=0 time=0.001984125
EXTRACT: note_on channel=5 note=56 velocity=84 time=0.04761900000000001
EXTRACT: note_on channel=5 note=61 velocity=73 time=0
EXTRACT: note_on channel=5 note=64 velocity=77 time=0
EXTRACT: note_on channel=6 note=56 velocity=62 time=0
EXTRACT: note_on channel=6 note=61 velocity=51 time=0
EXTRACT: note_on channel=6 note=64 velocity=55 time=0
EXTRACT: note_on channel=3 note=66 velocity=0 time=0.063492
EXTRACT: note_on channel=5 note=64 velocity=0 time=0.0079365
EXTRACT: note_on channel=5 note=61 velocity=0 time=0.009920625
EXTRACT: note_on channel=5 note=56 velocity=0 time=0.00396825
EXTRACT: note_on channel=9 note=70 velocity=105 time=0.017857125
EXTRACT: note_on channel=9 note=70 velocity=0 time=0.001984125
EXTRACT: note_on channel=9 note=44 velocity=52 time=0.00396825
EXTRACT: note_on channel=1 note=37 velocity=91 time=0
EXTRACT: note_on channel=3 note=68 velocity=90 time=0
EXTRACT: note_on channel=9 note=42 velocity=75 time=0
EXTRACT: note_on channel=9 note=69 velocity=87 time=0
EXTRACT: note_on channel=9 note=56 velocity=87 time=0
EXTRACT: note_on channel=9 note=56 velocity=0 time=0.001984125
EXTRACT: note_on channel=9 note=69 velocity=0 time=0
EXTRACT: note_on channel=9 note=42 velocity=0 time=0
EXTRACT: note_on channel=9 note=44 velocity=0 time=0.027777750000000004
EXTRACT: note_on channel=6 note=64 velocity=0 time=0.03373012500000001
EXTRACT: note_on channel=6 note=61 velocity=0 time=0
EXTRACT: note_on channel=6 note=56 velocity=0 time=0
EXTRACT: note_on channel=10 note=64 velocity=0 time=0.01984125
EXTRACT: note_on channel=10 note=61 velocity=0 time=0.005952375000000001
EXTRACT: note_on channel=9 note=62 velocity=64 time=0.029761875000000004
EXTRACT: note_on channel=9 note=62 velocity=0 time=0.001984125
EXTRACT: note_on channel=10 note=56 velocity=0 time=0.011904750000000002
EXTRACT: note_on channel=9 note=44 velocity=51 time=0.005952375000000001
EXTRACT: note_on channel=9 note=42 velocity=66 time=0.001984125
EXTRACT: note_on channel=9 note=69 velocity=69 time=0
EXTRACT: note_on channel=9 note=69 velocity=0 time=0.001984125
EXTRACT: note_on channel=9 note=42 velocity=0 time=0
EXTRACT: note_on channel=9 note=44 velocity=0 time=0.05952375000000001
EXTRACT: note_on channel=1 note=37 velocity=0 time=0.031746
EXTRACT: note_on channel=9 note=36 velocity=96 time=0.00396825
EXTRACT: note_on channel=9 note=44 velocity=83 time=0
EXTRACT: note_on channel=1 note=30 velocity=79 time=0
EXTRACT: note_on channel=10 note=57 velocity=62 time=0
EXTRACT: note_on channel=10 note=61 velocity=48 time=0
EXTRACT: note_on channel=10 note=66 velocity=51 time=0
EXTRACT: note_on channel=5 note=57 velocity=76 time=0
EXTRACT: note_on channel=5 note=61 velocity=73 time=0
EXTRACT: note_on channel=5 note=66 velocity=75 time=0
EXTRACT: note_on channel=6 note=57 velocity=54 time=0
EXTRACT: note_on channel=6 note=61 velocity=51 time=0
EXTRACT: note_on channel=6 note=66 velocity=53 time=0
EXTRACT: note_on channel=9 note=36 velocity=126 time=0
EXTRACT: note_on channel=9 note=35 velocity=117 time=0
EXTRACT: note_on channel=9 note=44 velocity=81 time=0
EXTRACT: note_on channel=9 note=60 velocity=69 time=0
EXTRACT: note_on channel=9 note=60 velocity=0 time=0.001984125
EXTRACT: note_on channel=9 note=36 velocity=0 time=0
EXTRACT: note_on channel=9 note=35 velocity=0 time=0
EXTRACT: note_on channel=9 note=44 velocity=0 time=0
EXTRACT: note_on channel=5 note=61 velocity=0 time=0.0714285
EXTRACT: note_on channel=9 note=44 velocity=0 time=0.001984125
EXTRACT: note_on channel=5 note=57 velocity=0 time=0.00396825
EXTRACT: note_on channel=5 note=66 velocity=0 time=0.009920625
EXTRACT: note_on channel=9 note=36 velocity=0 time=0.01984125
EXTRACT: note_on channel=9 note=69 velocity=93 time=0.031746
EXTRACT: note_on channel=9 note=69 velocity=0 time=0.001984125
EXTRACT: note_on channel=6 note=66 velocity=0 time=0.029761875000000004
EXTRACT: note_on channel=6 note=61 velocity=0 time=0
EXTRACT: note_on channel=6 note=57 velocity=0 time=0
EXTRACT: note_on channel=3 note=68 velocity=0 time=0.009920625
EXTRACT: note_on channel=1 note=30 velocity=0 time=0.05158725000000001
EXTRACT: note_on channel=9 note=44 velocity=37 time=0.00396825
EXTRACT: note_on channel=1 note=33 velocity=68 time=0
EXTRACT: note_on channel=3 note=69 velocity=94 time=0
EXTRACT: note_on channel=9 note=42 velocity=73 time=0
EXTRACT: note_on channel=9 note=62 velocity=59 time=0
EXTRACT: note_on channel=9 note=70 velocity=105 time=0
EXTRACT: note_on channel=9 note=70 velocity=0 time=0.001984125
EXTRACT: note_on channel=9 note=62 velocity=0 time=0
EXTRACT: note_on channel=9 note=42 velocity=0 time=0
EXTRACT: note_on channel=9 note=44 velocity=0 time=0.029761875000000004
EXTRACT: note_on channel=9 note=60 velocity=63 time=0.0873015
EXTRACT: note_on channel=9 note=60 velocity=0 time=0.001984125
EXTRACT: note_on channel=5 note=57 velocity=67 time=0.0079365
EXTRACT: note_on channel=5 note=61 velocity=71 time=0
EXTRACT: note_on channel=5 note=66 velocity=76 time=0
EXTRACT: note_on channel=6 note=57 velocity=45 time=0
EXTRACT: note_on channel=6 note=61 velocity=49 time=0
EXTRACT: note_on channel=6 note=66 velocity=54 time=0
EXTRACT: note_on channel=9 note=44 velocity=57 time=0.009920625
EXTRACT: note_on channel=9 note=42 velocity=66 time=0.001984125
EXTRACT: note_on channel=9 note=69 velocity=61 time=0
EXTRACT: note_on channel=9 note=69 velocity=0 time=0.001984125
EXTRACT: note_on channel=9 note=42 velocity=0 time=0
EXTRACT: note_on channel=5 note=57 velocity=0 time=0.05158725000000001
EXTRACT: note_on channel=5 note=61 velocity=0 time=0.00396825
EXTRACT: note_on channel=9 note=44 velocity=0 time=0.001984125
EXTRACT: note_on channel=5 note=66 velocity=0 time=0.01984125
EXTRACT: note_on channel=1 note=33 velocity=0 time=0.011904750000000002
EXTRACT: note_on channel=3 note=69 velocity=0 time=0.001984125
EXTRACT: note_on channel=9 note=28 velocity=69 time=0.00396825
EXTRACT: note_on channel=9 note=36 velocity=101 time=0
EXTRACT: note_on channel=9 note=39 velocity=83 time=0
EXTRACT: note_on channel=9 note=42 velocity=69 time=0
EXTRACT: note_on channel=1 note=35 velocity=74 time=0
EXTRACT: note_on channel=3 note=68 velocity=84 time=0
EXTRACT: note_on channel=9 note=40 velocity=117 time=0
EXTRACT: note_on channel=9 note=36 velocity=126 time=0
EXTRACT: note_on channel=9 note=35 velocity=117 time=0
EXTRACT: note_on channel=9 note=39 velocity=121 time=0
EXTRACT: note_on channel=9 note=44 velocity=81 time=0
EXTRACT: note_on channel=9 note=69 velocity=78 time=0
EXTRACT: note_on channel=9 note=69 velocity=0 time=0.001984125
EXTRACT: note_on channel=9 note=36 velocity=0 time=0
EXTRACT: note_on channel=9 note=35 velocity=0 time=0
EXTRACT: note_on channel=9 note=40 velocity=0 time=0
EXTRACT: note_on channel=9 note=44 velocity=0 time=0
EXTRACT: note_on channel=9 note=39 velocity=0 time=0
EXTRACT: note_on channel=6 note=66 velocity=0 time=0.061507875000000004
EXTRACT: note_on channel=6 note=61 velocity=0 time=0
EXTRACT: note_on channel=6 note=57 velocity=0 time=0
EXTRACT: note_on channel=9 note=42 velocity=0 time=0.0079365
EXTRACT: note_on channel=9 note=39 velocity=0 time=0.001984125
EXTRACT: note_on channel=9 note=28 velocity=0 time=0.005952375000000001
EXTRACT: note_on channel=9 note=61 velocity=73 time=0.0396825
EXTRACT: note_on channel=9 note=61 velocity=0 time=0.001984125
EXTRACT: note_on channel=9 note=36 velocity=0 time=0.04761900000000001
EXTRACT: note_on channel=1 note=35 velocity=0 time=0.06547612500000001
EXTRACT: note_on channel=3 note=68 velocity=0 time=0
EXTRACT: note_on channel=9 note=44 velocity=47 time=0.00396825
EXTRACT: note_on channel=1 note=37 velocity=92 time=0
EXTRACT: note_on channel=3 note=66 velocity=85 time=0
EXTRACT: note_on channel=5 note=57 velocity=74 time=0
EXTRACT: note_on channel=5 note=61 velocity=70 time=0
EXTRACT: note_on channel=5 note=66 velocity=73 time=0
EXTRACT: note_on channel=6 note=57 velocity=52 time=0
EXTRACT: note_on channel=6 note=61 velocity=48 time=0
EXTRACT: note_on channel=6 note=66 velocity=51 time=0
EXTRACT: note_on channel=9 note=42 velocity=73 time=0
EXTRACT: note_on channel=9 note=60 velocity=66 time=0
EXTRACT: note_on channel=9 note=60 velocity=0 time=0.001984125
EXTRACT: note_on channel=9 note=42 velocity=0 time=0
EXTRACT: note_on channel=9 note=70 velocity=105 time=0
EXTRACT: note_on channel=9 note=70 velocity=0 time=0.001984125
EXTRACT: note_on channel=9 note=44 velocity=0 time=0.037698375000000006
EXTRACT: note_on channel=5 note=61 velocity=0 time=0.021825375
EXTRACT: note_on channel=5 note=57 velocity=0 time=0.005952375000000001
EXTRACT: note_on channel=5 note=66 velocity=0 time=0.015873
EXTRACT: note_on channel=9 note=62 velocity=69 time=0.03373012500000001
EXTRACT: note_on channel=9 note=62 velocity=0 time=0.001984125
EXTRACT: note_on channel=9 note=44 velocity=59 time=0.017857125
EXTRACT: note_on channel=9 note=42 velocity=66 time=0.001984125
EXTRACT: note_on channel=9 note=42 velocity=0 time=0.001984125
EXTRACT: note_on channel=6 note=66 velocity=0 time=0.029761875000000004
EXTRACT: note_on channel=6 note=61 velocity=0 time=0
EXTRACT: note_on channel=6 note=57 velocity=0 time=0
EXTRACT: note_on channel=1 note=37 velocity=0 time=0.015873
EXTRACT: note_on channel=9 note=44 velocity=0 time=0.013888875000000002
EXTRACT: note_on channel=9 note=36 velocity=95 time=0.03571425
EXTRACT: note_on channel=9 note=44 velocity=84 time=0
EXTRACT: note_on channel=9 note=36 velocity=126 time=0
EXTRACT: note_on channel=9 note=35 velocity=117 time=0
EXTRACT: note_on channel=9 note=44 velocity=81 time=0
EXTRACT: note_on channel=9 note=82 velocity=69 time=0
EXTRACT: note_on channel=9 note=56 velocity=87 time=0
EXTRACT: note_on channel=9 note=60 velocity=63 time=0
EXTRACT: note_on channel=9 note=60 velocity=0 time=0.001984125
EXTRACT: note_on channel=9 note=35 velocity=0 time=0
EXTRACT: note_on channel=9 note=44 velocity=0 time=0
EXTRACT: note_on channel=9 note=36 velocity=0 time=0
EXTRACT: note_on channel=9 note=56 velocity=0 time=0
EXTRACT: note_on channel=9 note=82 velocity=0 time=0
EXTRACT: note_on channel=9 note=44 velocity=0 time=0.08134912500000001
EXTRACT: note_on channel=9 note=82 velocity=43 time=0.057539625000000004
EXTRACT: note_on channel=9 note=82 velocity=0 time=0.001984125
EXTRACT: note_on channel=9 note=36 velocity=0 time=0.017857125
EXTRACT: note_on channel=9 note=70 velocity=105 time=0.069444375
EXTRACT: note_on channel=9 note=70 velocity=0 time=0.001984125
EXTRACT: note_on channel=3 note=66 velocity=0 time=0.001984125
EXTRACT: note_on channel=9 note=44 velocity=50 time=0.00396825
EXTRACT: note_on channel=1 note=30 velocity=86 time=0
EXTRACT: note_on channel=3 note=63 velocity=82 time=0
EXTRACT: note_on channel=5 note=57 velocity=75 time=0
EXTRACT: note_on channel=5 note=61 velocity=72 time=0
EXTRACT: note_on channel=5 note=66 velocity=78 time=0
EXTRACT: note_on channel=6 note=57 velocity=53 time=0
EXTRACT: note_on channel=6 note=61 velocity=50 time=0
EXTRACT: note_on channel=6 note=66 velocity=56 time=0
EXTRACT: note_on channel=9 note=42 velocity=73 time=0
EXTRACT: note_on channel=9 note=82 velocity=48 time=0
EXTRACT: note_on channel=9 note=82 velocity=0 time=0.001984125
EXTRACT: note_on channel=9 note=42 velocity=0 time=0
EXTRACT: note_on channel=9 note=44 velocity=0 time=0.031746
EXTRACT: note_on channel=5 note=57 velocity=0 time=0.027777750000000004
EXTRACT: note_on channel=5 note=61 velocity=0 time=0.001984125
EXTRACT: note_on channel=5 note=66 velocity=0 time=0.01984125
EXTRACT: note_on channel=9 note=56 velocity=87 time=0.03571425
EXTRACT: note_on channel=9 note=56 velocity=0 time=0.001984125
EXTRACT: note_on channel=9 note=44 velocity=60 time=0.017857125
EXTRACT: note_on channel=9 note=42 velocity=66 time=0.001984125
EXTRACT: note_on channel=9 note=82 velocity=40 time=0
EXTRACT: note_on channel=9 note=82 velocity=0 time=0.001984125
EXTRACT: note_on channel=9 note=42 velocity=0 time=0
EXTRACT: note_on channel=6 note=66 velocity=0 time=0.029761875000000004
EXTRACT: note_on channel=6 note=61 velocity=0 time=0
EXTRACT: note_on channel=6 note=57 velocity=0 time=0
EXTRACT: note_on channel=9 note=44 velocity=0 time=0.01984125
EXTRACT: note_on channel=1 note=30 velocity=0 time=0.009920625
EXTRACT: note_on channel=3 note=63 velocity=0 time=0.017857125
EXTRACT: note_on channel=9 note=28 velocity=75 time=0.017857125
EXTRACT: note_on channel=9 note=36 velocity=99 time=0
EXTRACT: note_on channel=9 note=39 velocity=80 time=0
EXTRACT: note_on channel=9 note=44 velocity=89 time=0
EXTRACT: note_on channel=3 note=64 velocity=70 time=0
EXTRACT: note_on channel=9 note=39 velocity=121 time=0
EXTRACT: note_on channel=9 note=40 velocity=117 time=0
EXTRACT: note_on channel=9 note=36 velocity=126 time=0
EXTRACT: note_on channel=9 note=35 velocity=117 time=0
EXTRACT: note_on channel=9 note=44 velocity=81 time=0
EXTRACT: note_on channel=9 note=82 velocity=69 time=0
EXTRACT: note_on channel=9 note=82 velocity=0 time=0.001984125
EXTRACT: note_on channel=9 note=40 velocity=0 time=0
EXTRACT: note_on channel=9 note=36 velocity=0 time=0
EXTRACT: note_on channel=9 note=39 velocity=0 time=0
EXTRACT: note_on channel=9 note=44 velocity=0 time=0
EXTRACT: note_on channel=9 note=35 velocity=0 time=0
EXTRACT: note_on channel=9 note=44 velocity=0 time=0.0714285
EXTRACT: note_on channel=9 note=39 velocity=0 time=0
EXTRACT: note_on channel=9 note=28 velocity=0 time=0.0079365
EXTRACT: note_on channel=5 note=57 velocity=77 time=0.04761900000000001
EXTRACT: note_on channel=5 note=61 velocity=72 time=0
EXTRACT: note_on channel=5 note=66 velocity=78 time=0
EXTRACT: note_on channel=6 note=57 velocity=55 time=0
EXTRACT: note_on channel=6 note=61 velocity=50 time=0
EXTRACT: note_on channel=6 note=66 velocity=56 time=0
EXTRACT: note_on channel=9 note=36 velocity=0 time=0.031746
EXTRACT: note_on channel=5 note=61 velocity=0 time=0.029761875000000004
EXTRACT: note_on channel=5 note=57 velocity=0 time=0
EXTRACT: note_on channel=5 note=66 velocity=0 time=0.023809500000000004
EXTRACT: note_on channel=3 note=64 velocity=0 time=0.015873
EXTRACT: note_on channel=9 note=70 velocity=105 time=0.001984125
EXTRACT: note_on channel=9 note=70 velocity=0 time=0.001984125
EXTRACT: note_on channel=9 note=44 velocity=45 time=0.00396825
EXTRACT: note_on channel=1 note=30 velocity=81 time=0
EXTRACT: note_on channel=3 note=66 velocity=86 time=0
EXTRACT: note_on channel=9 note=42 velocity=73 time=0
EXTRACT: note_on channel=9 note=69 velocity=78 time=0
EXTRACT: note_on channel=9 note=56 velocity=87 time=0
EXTRACT: note_on channel=9 note=56 velocity=0 time=0.001984125
EXTRACT: note_on channel=9 note=69 velocity=0 time=0
EXTRACT: note_on channel=9 note=42 velocity=0 time=0
EXTRACT: note_on channel=9 note=44 velocity=0 time=0.027777750000000004
EXTRACT: note_on channel=6 note=66 velocity=0 time=0.03373012500000001
EXTRACT: note_on channel=6 note=61 velocity=0 time=0
EXTRACT: note_on channel=6 note=57 velocity=0 time=0
EXTRACT: note_on channel=10 note=66 velocity=0 time=0.03571425
EXTRACT: note_on channel=10 note=61 velocity=0 time=0.005952375000000001
EXTRACT: note_on channel=9 note=44 velocity=53 time=0.03373012500000001
EXTRACT: note_on channel=9 note=42 velocity=66 time=0.001984125
EXTRACT: note_on channel=9 note=69 velocity=73 time=0
EXTRACT: note_on channel=9 note=69 velocity=0 time=0.001984125
EXTRACT: note_on channel=9 note=42 velocity=0 time=0
EXTRACT: note_on channel=10 note=57 velocity=0 time=0.0079365
EXTRACT: note_on channel=9 note=44 velocity=0 time=0.057539625000000004
EXTRACT: note_on channel=1 note=30 velocity=0 time=0.025793625000000004
EXTRACT: note_on channel=9 note=36 velocity=101 time=0.00396825
EXTRACT: note_on channel=9 note=44 velocity=92 time=0
EXTRACT: note_on channel=1 note=35 velocity=85 time=0
EXTRACT: note_on channel=10 note=59 velocity=67 time=0
EXTRACT: note_on channel=10 note=63 velocity=65 time=0
EXTRACT: note_on channel=10 note=66 velocity=62 time=0
EXTRACT: note_on channel=5 note=59 velocity=82 time=0
EXTRACT: note_on channel=5 note=63 velocity=73 time=0
EXTRACT: note_on channel=5 note=66 velocity=65 time=0
EXTRACT: note_on channel=6 note=59 velocity=60 time=0
EXTRACT: note_on channel=6 note=63 velocity=51 time=0
EXTRACT: note_on channel=6 note=66 velocity=43 time=0
EXTRACT: note_on channel=9 note=36 velocity=126 time=0
EXTRACT: note_on channel=9 note=35 velocity=117 time=0
EXTRACT: note_on channel=9 note=35 velocity=0 time=0.001984125
EXTRACT: note_on channel=9 note=36 velocity=0 time=0
EXTRACT: note_on channel=5 note=63 velocity=0 time=0.053571375000000004
EXTRACT: note_on channel=9 note=44 velocity=0 time=0.017857125
EXTRACT: note_on channel=5 note=59 velocity=0 time=0.005952375000000001
EXTRACT: note_on channel=5 note=66 velocity=0 time=0.005952375000000001
EXTRACT: note_on channel=9 note=69 velocity=84 time=0.05555550000000001
EXTRACT: note_on channel=9 note=69 velocity=0 time=0.001984125
EXTRACT: note_on channel=9 note=36 velocity=0 time=0.027777750000000004
EXTRACT: note_on channel=6 note=66 velocity=0 time=0.001984125
EXTRACT: note_on channel=6 note=63 velocity=0 time=0
EXTRACT: note_on channel=6 note=59 velocity=0 time=0
EXTRACT: note_on channel=1 note=35 velocity=0 time=0.045634875000000005
EXTRACT: note_on channel=3 note=66 velocity=0 time=0.015873
EXTRACT: note_on channel=9 note=70 velocity=105 time=0
EXTRACT: note_on channel=9 note=44 velocity=25 time=0.00396825
EXTRACT: note_on channel=1 note=30 velocity=76 time=0
EXTRACT: note_on channel=3 note=63 velocity=79 time=0
EXTRACT: note_on channel=9 note=70 velocity=0 time=0
EXTRACT: note_on channel=9 note=42 velocity=73 time=0
EXTRACT: note_on channel=9 note=62 velocity=79 time=0
EXTRACT: note_on channel=9 note=62 velocity=0 time=0.001984125
EXTRACT: note_on channel=9 note=42 velocity=0 time=0
EXTRACT: note_on channel=9 note=44 velocity=0 time=0.027777750000000004
EXTRACT: note_on channel=9 note=61 velocity=69 time=0.08928562500000001
EXTRACT: note_on channel=9 note=61 velocity=0 time=0.001984125
EXTRACT: note_on channel=5 note=59 velocity=75 time=0.0079365
EXTRACT: note_on channel=5 note=63 velocity=76 time=0
EXTRACT: note_on channel=5 note=66 velocity=72 time=0
EXTRACT: note_on channel=6 note=59 velocity=53 time=0
EXTRACT: note_on channel=6 note=63 velocity=54 time=0
EXTRACT: note_on channel=6 note=66 velocity=50 time=0
EXTRACT: note_on channel=9 note=44 velocity=48 time=0.009920625
EXTRACT: note_on channel=9 note=42 velocity=66 time=0.001984125
EXTRACT: note_on channel=9 note=69 velocity=68 time=0
EXTRACT: note_on channel=9 note=69 velocity=0 time=0.001984125
EXTRACT: note_on channel=9 note=42 velocity=0 time=0
EXTRACT: note_on channel=5 note=63 velocity=0 time=0.04761900000000001
EXTRACT: note_on channel=9 note=44 velocity=0 time=0.013888875000000002
EXTRACT: note_on channel=3 note=63 velocity=0 time=0.005952375000000001
EXTRACT: note_on channel=5 note=66 velocity=0 time=0.0079365
EXTRACT: note_on channel=5 note=59 velocity=0 time=0.001984125
EXTRACT: note_on channel=1 note=30 velocity=0 time=0.013888875000000002
EXTRACT: note_on channel=9 note=28 velocity=69 time=0.00396825
EXTRACT: note_on channel=9 note=36 velocity=96 time=0
EXTRACT: note_on channel=9 note=39 velocity=83 time=0
EXTRACT: note_on channel=9 note=42 velocity=73 time=0
EXTRACT: note_on channel=1 note=33 velocity=74 time=0
EXTRACT: note_on channel=3 note=64 velocity=73 time=0
EXTRACT: note_on channel=9 note=39 velocity=121 time=0
EXTRACT: note_on channel=9 note=36 velocity=126 time=0
EXTRACT: note_on channel=9 note=35 velocity=117 time=0
EXTRACT: note_on channel=9 note=40 velocity=117 time=0
EXTRACT: note_on channel=9 note=44 velocity=81 time=0
EXTRACT: note_on channel=9 note=44 velocity=0 time=0.001984125
EXTRACT: note_on channel=9 note=35 velocity=0 time=0
EXTRACT: note_on channel=9 note=39 velocity=0 time=0
EXTRACT: note_on channel=9 note=36 velocity=0 time=0
EXTRACT: note_on channel=9 note=40 velocity=0 time=0
EXTRACT: note_on channel=6 note=66 velocity=0 time=0.061507875000000004
EXTRACT: note_on channel=6 note=63 velocity=0 time=0
EXTRACT: note_on channel=6 note=59 velocity=0 time=0
EXTRACT: note_on channel=9 note=39 velocity=0 time=0.009920625
EXTRACT: note_on channel=9 note=28 velocity=0 time=0.005952375000000001
EXTRACT: note_on channel=9 note=42 velocity=0 time=0.011904750000000002
EXTRACT: note_on channel=9 note=62 velocity=73 time=0.027777750000000004
EXTRACT: note_on channel=9 note=62 velocity=0 time=0.001984125
EXTRACT: note_on channel=9 note=36 velocity=0 time=0.057539625000000004
EXTRACT: note_on channel=1 note=33 velocity=0 time=0.045634875000000005
EXTRACT: note_on channel=3 note=64 velocity=0 time=0
EXTRACT: note_on channel=9 note=44 velocity=58 time=0.013888875000000002
EXTRACT: note_on channel=1 note=35 velocity=87 time=0
EXTRACT: note_on channel=3 note=66 velocity=85 time=0
EXTRACT: note_on channel=5 note=59 velocity=78 time=0
EXTRACT: note_on channel=5 note=63 velocity=80 time=0
EXTRACT: note_on channel=5 note=66 velocity=73 time=0
EXTRACT: note_on channel=6 note=59 velocity=56 time=0
EXTRACT: note_on channel=6 note=63 velocity=58 time=0
EXTRACT: note_on channel=6 note=66 velocity=51 time=0
EXTRACT: note_on channel=9 note=42 velocity=73 time=0
EXTRACT: note_on channel=9 note=61 velocity=66 time=0
EXTRACT: note_on channel=9 note=61 velocity=0 time=0.001984125
EXTRACT: note_on channel=9 note=42 velocity=0 time=0
EXTRACT: note_on channel=9 note=70 velocity=105 time=0.001984125
EXTRACT: note_on channel=9 note=70 velocity=0 time=0.001984125
EXTRACT: note_on channel=9 note=44 velocity=0 time=0.037698375000000006
EXTRACT: note_on channel=5 note=63 velocity=0 time=0.017857125
EXTRACT: note_on channel=5 note=66 velocity=0 time=0.01984125
EXTRACT: note_on channel=5 note=59 velocity=0 time=0.013888875000000002
EXTRACT: note_on channel=9 note=44 velocity=64 time=0.04365075
EXTRACT: note_on channel=9 note=42 velocity=66 time=0.001984125
EXTRACT: note_on channel=9 note=82 velocity=48 time=0
EXTRACT: note_on channel=9 note=82 velocity=0 time=0.001984125
EXTRACT: note_on channel=9 note=42 velocity=0 time=0
EXTRACT: note_on channel=6 note=66 velocity=0 time=0.029761875000000004
EXTRACT: note_on channel=6 note=63 velocity=0 time=0
EXTRACT: note_on channel=6 note=59 velocity=0 time=0
EXTRACT: note_on channel=1 note=35 velocity=0 time=0.0079365
EXTRACT: note_on channel=9 note=44 velocity=0 time=0.023809500000000004
EXTRACT: note_on channel=9 note=36 velocity=96 time=0.03373012500000001
EXTRACT: note_on channel=9 note=44 velocity=80 time=0
EXTRACT: note_on channel=9 note=36 velocity=126 time=0
EXTRACT: note_on channel=9 note=35 velocity=117 time=0
EXTRACT: note_on channel=9 note=44 velocity=81 time=0
EXTRACT: note_on channel=9 note=82 velocity=55 time=0
EXTRACT: note_on channel=9 note=56 velocity=80 time=0
EXTRACT: note_on channel=9 note=56 velocity=0 time=0.001984125
EXTRACT: note_on channel=9 note=44 velocity=0 time=0
EXTRACT: note_on channel=9 note=36 velocity=0 time=0
EXTRACT: note_on channel=9 note=35 velocity=0 time=0
EXTRACT: note_on channel=9 note=82 velocity=0 time=0
EXTRACT: note_on channel=9 note=44 velocity=0 time=0.077380875
EXTRACT: note_on channel=3 note=66 velocity=0 time=0.0396825
EXTRACT: note_on channel=9 note=82 velocity=63 time=0.021825375
EXTRACT: note_on channel=9 note=82 velocity=0 time=0.001984125
EXTRACT: note_on channel=9 note=36 velocity=0 time=0.001984125
EXTRACT: note_on channel=9 note=44 velocity=59 time=0.09325387500000001
EXTRACT: note_on channel=1 note=35 velocity=84 time=0
EXTRACT: note_on channel=3 note=66 velocity=91 time=0
EXTRACT: note_on channel=5 note=59 velocity=77 time=0
EXTRACT: note_on channel=5 note=63 velocity=81 time=0
EXTRACT: note_on channel=5 note=66 velocity=79 time=0
EXTRACT: note_on channel=6 note=59 velocity=55 time=0
EXTRACT: note_on channel=6 note=63 velocity=59 time=0
EXTRACT: note_on channel=6 note=66 velocity=57 time=0
EXTRACT: note_on channel=9 note=42 velocity=73 time=0
EXTRACT: note_on channel=9 note=82 velocity=59 time=0
EXTRACT: note_on channel=9 note=63 velocity=60 time=0
EXTRACT: note_on channel=9 note=63 velocity=0 time=0.001984125
EXTRACT: note_on channel=9 note=82 velocity=0 time=0
EXTRACT: note_on channel=9 note=42 velocity=0 time=0
EXTRACT: note_on channel=9 note=70 velocity=105 time=0.001984125
EXTRACT: note_on channel=9 note=70 velocity=0 time=0.001984125
EXTRACT: note_on channel=9 note=44 velocity=0 time=0.029761875000000004
EXTRACT: note_on channel=5 note=63 velocity=0 time=0.025793625000000004
EXTRACT: note_on channel=5 note=66 velocity=0 time=0.01984125
EXTRACT: note_on channel=5 note=59 velocity=0 time=0
EXTRACT: note_on channel=9 note=56 velocity=89 time=0.037698375000000006
EXTRACT: note_on channel=9 note=56 velocity=0 time=0.001984125
EXTRACT: note_on channel=9 note=44 velocity=58 time=0.017857125
EXTRACT: note_on channel=9 note=42 velocity=66 time=0.001984125
EXTRACT: note_on channel=9 note=82 velocity=45 time=0
EXTRACT: note_on channel=9 note=82 velocity=0 time=0.001984125
EXTRACT: note_on channel=9 note=42 velocity=0 time=0
EXTRACT: note_on channel=6 note=66 velocity=0 time=0.029761875000000004
EXTRACT: note_on channel=6 note=63 velocity=0 time=0
EXTRACT: note_on channel=6 note=59 velocity=0 time=0
EXTRACT: note_on channel=1 note=35 velocity=0 time=0.009920625
EXTRACT: note_on channel=9 note=44 velocity=0 time=0.027777750000000004
EXTRACT: note_on channel=3 note=66 velocity=0 time=0.023809500000000004
EXTRACT: note_on channel=9 note=28 velocity=75 time=0.00396825
EXTRACT: note_on channel=9 note=36 velocity=99 time=0
EXTRACT: note_on channel=9 note=39 velocity=80 time=0
EXTRACT: note_on channel=9 note=44 velocity=87 time=0
EXTRACT: note_on channel=3 note=68 velocity=82 time=0
EXTRACT: note_on channel=9 note=36 velocity=126 time=0
EXTRACT: note_on channel=9 note=35 velocity=117 time=0
EXTRACT: note_on channel=9 note=39 velocity=121 time=0
EXTRACT: note_on channel=9 note=40 velocity=117 time=0
EXTRACT: note_on channel=9 note=44 velocity=81 time=0
EXTRACT: note_on channel=9 note=82 velocity=60 time=0
EXTRACT: note_on channel=9 note=82 velocity=0 time=0.001984125
EXTRACT: note_on channel=9 note=35 velocity=0 time=0
EXTRACT: note_on channel=9 note=39 velocity=0 time=0
EXTRACT: note_on channel=9 note=36 velocity=0 time=0
EXTRACT: note_on channel=9 note=44 velocity=0 time=0
EXTRACT: note_on channel=9 note=40 velocity=0 time=0
EXTRACT: note_on channel=9 note=39 velocity=0 time=0.0714285
EXTRACT: note_on channel=9 note=44 velocity=0 time=0.001984125
EXTRACT: note_on channel=9 note=28 velocity=0 time=0.005952375000000001
EXTRACT: note_on channel=5 note=59 velocity=75 time=0.04761900000000001
EXTRACT: note_on channel=5 note=63 velocity=72 time=0
EXTRACT: note_on channel=5 note=66 velocity=76 time=0
EXTRACT: note_on channel=6 note=59 velocity=53 time=0
EXTRACT: note_on channel=6 note=63 velocity=50 time=0
EXTRACT: note_on channel=6 note=66 velocity=54 time=0
EXTRACT: note_on channel=9 note=36 velocity=0 time=0.009920625
EXTRACT: note_on channel=5 note=63 velocity=0 time=0.04365075
EXTRACT: note_on channel=5 note=59 velocity=0 time=0.0079365
EXTRACT: note_on channel=3 note=68 velocity=0 time=0.013888875000000002
EXTRACT: note_on channel=5 note=66 velocity=0 time=0.013888875000000002
EXTRACT: note_on channel=9 note=70 velocity=105 time=0.013888875000000002
EXTRACT: note_on channel=9 note=70 velocity=0 time=0.001984125
EXTRACT: note_on channel=9 note=44 velocity=61 time=0.00396825
EXTRACT: note_on channel=1 note=35 velocity=87 time=0
EXTRACT: note_on channel=3 note=66 velocity=85 time=0
EXTRACT: note_on channel=9 note=42 velocity=75 time=0
EXTRACT: note_on channel=9 note=69 velocity=87 time=0
EXTRACT: note_on channel=9 note=56 velocity=87 time=0
EXTRACT: note_on channel=9 note=56 velocity=0 time=0.001984125
EXTRACT: note_on channel=9 note=69 velocity=0 time=0
EXTRACT: note_on channel=9 note=42 velocity=0 time=0
EXTRACT: note_on channel=9 note=44 velocity=0 time=0.049603125000000005
EXTRACT: note_on channel=10 note=63 velocity=0 time=0.011904750000000002
EXTRACT: note_on channel=6 note=66 velocity=0 time=0
EXTRACT: note_on channel=6 note=63 velocity=0 time=0
EXTRACT: note_on channel=6 note=59 velocity=0 time=0
EXTRACT: note_on channel=10 note=66 velocity=0 time=0.017857125
EXTRACT: note_on channel=9 note=62 velocity=64 time=0.037698375000000006
EXTRACT: note_on channel=9 note=62 velocity=0 time=0.001984125
EXTRACT: note_on channel=10 note=59 velocity=0 time=0.013888875000000002
EXTRACT: note_on channel=9 note=44 velocity=55 time=0.00396825
EXTRACT: note_on channel=9 note=42 velocity=66 time=0.001984125
EXTRACT: note_on channel=9 note=69 velocity=69 time=0
EXTRACT: note_on channel=9 note=69 velocity=0 time=0.001984125
EXTRACT: note_on channel=9 note=42 velocity=0 time=0
EXTRACT: note_on channel=1 note=35 velocity=0 time=0.05158725000000001
EXTRACT: note_on channel=9 note=44 velocity=0 time=0.00396825
EXTRACT: note_on channel=9 note=36 velocity=99 time=0.0396825
EXTRACT: note_on channel=9 note=44 velocity=94 time=0
EXTRACT: note_on channel=1 note=37 velocity=88 time=0
EXTRACT: note_on channel=10 note=56 velocity=71 time=0
EXTRACT: note_on channel=10 note=61 velocity=46 time=0
EXTRACT: note_on channel=10 note=64 velocity=63 time=0
EXTRACT: note_on channel=5 note=56 velocity=77 time=0
EXTRACT: note_on channel=5 note=61 velocity=71 time=0
EXTRACT: note_on channel=5 note=64 velocity=83 time=0
EXTRACT: note_on channel=6 note=56 velocity=55 time=0
EXTRACT: note_on channel=6 note=61 velocity=49 time=0
EXTRACT: note_on channel=6 note=64 velocity=61 time=0
EXTRACT: note_on channel=9 note=36 velocity=126 time=0
EXTRACT: note_on channel=9 note=35 velocity=117 time=0
EXTRACT: note_on channel=9 note=44 velocity=81 time=0
EXTRACT: note_on channel=9 note=60 velocity=69 time=0
EXTRACT: note_on channel=9 note=60 velocity=0 time=0.001984125
EXTRACT: note_on channel=9 note=36 velocity=0 time=0
EXTRACT: note_on channel=9 note=35 velocity=0 time=0
EXTRACT: note_on channel=9 note=44 velocity=0 time=0
EXTRACT: note_on channel=5 note=64 velocity=0 time=0.061507875000000004
EXTRACT: note_on channel=5 note=61 velocity=0 time=0.017857125
EXTRACT: note_on channel=5 note=56 velocity=0 time=0.001984125
EXTRACT: note_on channel=9 note=44 velocity=0 time=0.015873
EXTRACT: note_on channel=9 note=36 velocity=0 time=0.025793625000000004
EXTRACT: note_on channel=9 note=69 velocity=93 time=0.015873
EXTRACT: note_on channel=9 note=69 velocity=0 time=0.001984125
EXTRACT: note_on channel=6 note=64 velocity=0 time=0.029761875000000004
EXTRACT: note_on channel=6 note=61 velocity=0 time=0
EXTRACT: note_on channel=6 note=56 velocity=0 time=0
EXTRACT: note_on channel=3 note=66 velocity=0 time=0.001984125
EXTRACT: note_on channel=1 note=37 velocity=0 time=0.057539625000000004
EXTRACT: note_on channel=9 note=44 velocity=50 time=0.005952375000000001
EXTRACT: note_on channel=1 note=32 velocity=78 time=0
EXTRACT: note_on channel=3 note=64 velocity=92 time=0
EXTRACT: note_on channel=9 note=42 velocity=73 time=0
EXTRACT: note_on channel=9 note=62 velocity=59 time=0
EXTRACT: note_on channel=9 note=70 velocity=105 time=0
EXTRACT: note_on channel=9 note=70 velocity=0 time=0.001984125
EXTRACT: note_on channel=9 note=62 velocity=0 time=0
EXTRACT: note_on channel=9 note=42 velocity=0 time=0
EXTRACT: note_on channel=9 note=44 velocity=0 time=0.037698375000000006
EXTRACT: note_on channel=9 note=60 velocity=63 time=0.079365
EXTRACT: note_on channel=9 note=60 velocity=0 time=0.001984125
EXTRACT: note_on channel=5 note=56 velocity=81 time=0.0079365
EXTRACT: note_on channel=5 note=61 velocity=65 time=0
EXTRACT: note_on channel=5 note=64 velocity=79 time=0
EXTRACT: note_on channel=6 note=56 velocity=59 time=0
EXTRACT: note_on channel=6 note=61 velocity=43 time=0
EXTRACT: note_on channel=6 note=64 velocity=57 time=0
EXTRACT: note_on channel=9 note=44 velocity=61 time=0.009920625
EXTRACT: note_on channel=9 note=42 velocity=66 time=0.001984125
EXTRACT: note_on channel=9 note=69 velocity=61 time=0
EXTRACT: note_on channel=9 note=69 velocity=0 time=0.001984125
EXTRACT: note_on channel=9 note=42 velocity=0 time=0
EXTRACT: note_on channel=5 note=61 velocity=0 time=0.05158725000000001
EXTRACT: note_on channel=5 note=64 velocity=0 time=0.005952375000000001
EXTRACT: note_on channel=9 note=44 velocity=0 time=0.001984125
EXTRACT: note_on channel=5 note=56 velocity=0 time=0.005952375000000001
EXTRACT: note_on channel=1 note=32 velocity=0 time=0.025793625000000004
EXTRACT: note_on channel=9 note=28 velocity=69 time=0.00396825
EXTRACT: note_on channel=9 note=36 velocity=95 time=0
EXTRACT: note_on channel=9 note=39 velocity=83 time=0
EXTRACT: note_on channel=9 note=42 velocity=78 time=0
EXTRACT: note_on channel=1 note=35 velocity=76 time=0
EXTRACT: note_on channel=9 note=40 velocity=117 time=0
EXTRACT: note_on channel=9 note=36 velocity=126 time=0
EXTRACT: note_on channel=9 note=35 velocity=117 time=0
EXTRACT: note_on channel=9 note=39 velocity=121 time=0
EXTRACT: note_on channel=9 note=44 velocity=81 time=0
EXTRACT: note_on channel=9 note=69 velocity=78 time=0
EXTRACT: note_on channel=9 note=69 velocity=0 time=0.001984125
EXTRACT: note_on channel=9 note=36 velocity=0 time=0
EXTRACT: note_on channel=9 note=35 velocity=0 time=0
EXTRACT: note_on channel=9 note=40 velocity=0 time=0
EXTRACT: note_on channel=9 note=44 velocity=0 time=0
EXTRACT: note_on channel=9 note=39 velocity=0 time=0
EXTRACT: note_on channel=6 note=64 velocity=0 time=0.061507875000000004
EXTRACT: note_on channel=6 note=61 velocity=0 time=0
EXTRACT: note_on channel=6 note=56 velocity=0 time=0
EXTRACT: note_on channel=9 note=39 velocity=0 time=0.009920625
EXTRACT: note_on channel=9 note=28 velocity=0 time=0.005952375000000001
EXTRACT: note_on channel=9 note=61 velocity=73 time=0.0396825
EXTRACT: note_on channel=9 note=61 velocity=0 time=0.001984125
EXTRACT: note_on channel=9 note=36 velocity=0 time=0.011904750000000002
EXTRACT: note_on channel=9 note=42 velocity=0 time=0.0079365
EXTRACT: note_on channel=1 note=35 velocity=0 time=0.09325387500000001
EXTRACT: note_on channel=9 note=44 velocity=52 time=0.00396825
EXTRACT: note_on channel=1 note=37 velocity=86 time=0
EXTRACT: note_on channel=5 note=56 velocity=79 time=0
EXTRACT: note_on channel=5 note=61 velocity=71 time=0
EXTRACT: note_on channel=5 note=64 velocity=75 time=0
EXTRACT: note_on channel=6 note=56 velocity=57 time=0
EXTRACT: note_on channel=6 note=61 velocity=49 time=0
EXTRACT: note_on channel=6 note=64 velocity=53 time=0
EXTRACT: note_on channel=9 note=42 velocity=73 time=0
EXTRACT: note_on channel=9 note=60 velocity=66 time=0
EXTRACT: note_on channel=9 note=60 velocity=0 time=0.001984125
EXTRACT: note_on channel=9 note=42 velocity=0 time=0
EXTRACT: note_on channel=9 note=70 velocity=105 time=0
EXTRACT: note_on channel=9 note=70 velocity=0 time=0.001984125
EXTRACT: note_on channel=9 note=44 velocity=0 time=0.037698375000000006
EXTRACT: note_on channel=5 note=61 velocity=0 time=0.021825375
EXTRACT: note_on channel=5 note=64 velocity=0 time=0.009920625
EXTRACT: note_on channel=5 note=56 velocity=0 time=0.01984125
EXTRACT: note_on channel=9 note=62 velocity=69 time=0.025793625000000004
EXTRACT: note_on channel=9 note=62 velocity=0 time=0.001984125
EXTRACT: note_on channel=9 note=44 velocity=64 time=0.017857125
EXTRACT: note_on channel=9 note=42 velocity=66 time=0.001984125
EXTRACT: note_on channel=9 note=42 velocity=0 time=0.001984125
EXTRACT: note_on channel=6 note=64 velocity=0 time=0.029761875000000004
EXTRACT: note_on channel=6 note=61 velocity=0 time=0
EXTRACT: note_on channel=6 note=56 velocity=0 time=0
EXTRACT: note_on channel=9 note=44 velocity=0 time=0.029761875000000004
EXTRACT: note_on channel=1 note=37 velocity=0 time=0.017857125
EXTRACT: note_on channel=3 note=64 velocity=0 time=0.00396825
EXTRACT: note_on channel=9 note=36 velocity=96 time=0.013888875000000002
EXTRACT: note_on channel=9 note=44 velocity=78 time=0
EXTRACT: note_on channel=9 note=36 velocity=126 time=0
EXTRACT: note_on channel=9 note=35 velocity=117 time=0
EXTRACT: note_on channel=9 note=44 velocity=81 time=0
EXTRACT: note_on channel=9 note=82 velocity=69 time=0
EXTRACT: note_on channel=9 note=56 velocity=87 time=0
EXTRACT: note_on channel=9 note=60 velocity=63 time=0
EXTRACT: note_on channel=9 note=60 velocity=0 time=0.001984125
EXTRACT: note_on channel=9 note=35 velocity=0 time=0
EXTRACT: note_on channel=9 note=44 velocity=0 time=0
EXTRACT: note_on channel=9 note=36 velocity=0 time=0
EXTRACT: note_on channel=9 note=56 velocity=0 time=0
EXTRACT: note_on channel=9 note=82 velocity=0 time=0
EXTRACT: note_on channel=9 note=44 velocity=0 time=0.11904750000000001
EXTRACT: note_on channel=9 note=82 velocity=43 time=0.01984125
EXTRACT: note_on channel=9 note=82 velocity=0 time=0.001984125
EXTRACT: note_on channel=9 note=36 velocity=0 time=0.025793625000000004
EXTRACT: note_on channel=9 note=70 velocity=105 time=0.061507875000000004
EXTRACT: note_on channel=9 note=70 velocity=0 time=0.001984125
EXTRACT: note_on channel=9 note=44 velocity=55 time=0.005952375000000001
EXTRACT: note_on channel=1 note=37 velocity=92 time=0
EXTRACT: note_on channel=4 note=64 velocity=99 time=0
EXTRACT: note_on channel=5 note=56 velocity=77 time=0
EXTRACT: note_on channel=5 note=61 velocity=71 time=0
EXTRACT: note_on channel=5 note=64 velocity=77 time=0
EXTRACT: note_on channel=6 note=56 velocity=55 time=0
EXTRACT: note_on channel=6 note=61 velocity=49 time=0
EXTRACT: note_on channel=6 note=64 velocity=55 time=0
EXTRACT: note_on channel=9 note=42 velocity=73 time=0
EXTRACT: note_on channel=9 note=82 velocity=48 time=0
EXTRACT: note_on channel=9 note=82 velocity=0 time=0.001984125
EXTRACT: note_on channel=9 note=42 velocity=0 time=0
EXTRACT: note_on channel=9 note=44 velocity=0 time=0.05158725000000001
EXTRACT: note_on channel=5 note=61 velocity=0 time=0.011904750000000002
EXTRACT: note_on channel=5 note=64 velocity=0 time=0.00396825
EXTRACT: note_on channel=5 note=56 velocity=0 time=0.021825375
EXTRACT: note_on channel=9 note=56 velocity=87 time=0.027777750000000004
EXTRACT: note_on channel=9 note=56 velocity=0 time=0.001984125
EXTRACT: note_on channel=9 note=44 velocity=64 time=0.017857125
EXTRACT: note_on channel=9 note=42 velocity=66 time=0.001984125
EXTRACT: note_on channel=9 note=82 velocity=40 time=0
EXTRACT: note_on channel=9 note=82 velocity=0 time=0.001984125
EXTRACT: note_on channel=9 note=42 velocity=0 time=0
EXTRACT: note_on channel=6 note=64 velocity=0 time=0.029761875000000004
EXTRACT: note_on channel=6 note=61 velocity=0 time=0
EXTRACT: note_on channel=6 note=56 velocity=0 time=0
EXTRACT: note_on channel=9 note=44 velocity=0 time=0.029761875000000004
EXTRACT: note_on channel=1 note=37 velocity=0 time=0.031746
EXTRACT: note_on channel=4 note=64 velocity=0 time=0
EXTRACT: note_on channel=9 note=28 velocity=75 time=0.00396825
EXTRACT: note_on channel=9 note=36 velocity=95 time=0
EXTRACT: note_on channel=9 note=39 velocity=80 time=0
EXTRACT: note_on channel=9 note=44 velocity=96 time=0
EXTRACT: note_on channel=1 note=32 velocity=79 time=0
EXTRACT: note_on channel=4 note=66 velocity=85 time=0
EXTRACT: note_on channel=9 note=39 velocity=121 time=0
EXTRACT: note_on channel=9 note=40 velocity=117 time=0
EXTRACT: note_on channel=9 note=36 velocity=126 time=0
EXTRACT: note_on channel=9 note=35 velocity=117 time=0
EXTRACT: note_on channel=9 note=44 velocity=81 time=0
EXTRACT: note_on channel=9 note=82 velocity=69 time=0
EXTRACT: note_on channel=9 note=82 velocity=0 time=0.001984125
EXTRACT: note_on channel=9 note=40 velocity=0 time=0
EXTRACT: note_on channel=9 note=36 velocity=0 time=0
EXTRACT: note_on channel=9 note=39 velocity=0 time=0
EXTRACT: note_on channel=9 note=44 velocity=0 time=0
EXTRACT: note_on channel=9 note=35 velocity=0 time=0
EXTRACT: note_on channel=9 note=39 velocity=0 time=0.0714285
EXTRACT: note_on channel=9 note=28 velocity=0 time=0.0079365
EXTRACT: note_on channel=9 note=44 velocity=0 time=0.04761900000000001
EXTRACT: note_on channel=5 note=56 velocity=80 time=0
EXTRACT: note_on channel=5 note=61 velocity=69 time=0
EXTRACT: note_on channel=5 note=64 velocity=77 time=0
EXTRACT: note_on channel=6 note=56 velocity=58 time=0
EXTRACT: note_on channel=6 note=61 velocity=47 time=0
EXTRACT: note_on channel=6 note=64 velocity=55 time=0
EXTRACT: note_on channel=9 note=36 velocity=0 time=0.025793625000000004
EXTRACT: note_on channel=4 note=66 velocity=0 time=0.025793625000000004
EXTRACT: note_on channel=5 note=61 velocity=0 time=0.013888875000000002
EXTRACT: note_on channel=5 note=64 velocity=0 time=0.0079365
EXTRACT: note_on channel=5 note=56 velocity=0 time=0.015873
EXTRACT: note_on channel=9 note=70 velocity=105 time=0.013888875000000002
EXTRACT: note_on channel=1 note=32 velocity=0 time=0.001984125
EXTRACT: note_on channel=9 note=70 velocity=0 time=0
EXTRACT: note_on channel=9 note=44 velocity=51 time=0.00396825
EXTRACT: note_on channel=1 note=35 velocity=71 time=0
EXTRACT: note_on channel=4 note=68 velocity=92 time=0
EXTRACT: note_on channel=9 note=42 velocity=73 time=0
EXTRACT: note_on channel=9 note=69 velocity=78 time=0
EXTRACT: note_on channel=9 note=56 velocity=87 time=0
EXTRACT: note_on channel=9 note=56 velocity=0 time=0.001984125
EXTRACT: note_on channel=9 note=69 velocity=0 time=0
EXTRACT: note_on channel=9 note=42 velocity=0 time=0
EXTRACT: note_on channel=9 note=44 velocity=0 time=0.03373012500000001
EXTRACT: note_on channel=6 note=64 velocity=0 time=0.027777750000000004
EXTRACT: note_on channel=6 note=61 velocity=0 time=0
EXTRACT: note_on channel=6 note=56 velocity=0 time=0
EXTRACT: note_on channel=9 note=44 velocity=63 time=0.07539675000000001
EXTRACT: note_on channel=9 note=42 velocity=66 time=0.001984125
EXTRACT: note_on channel=9 note=69 velocity=73 time=0
EXTRACT: note_on channel=9 note=69 velocity=0 time=0.001984125
EXTRACT: note_on channel=9 note=42 velocity=0 time=0
EXTRACT: note_on channel=9 note=44 velocity=0 time=0.05555550000000001
EXTRACT: note_on channel=1 note=35 velocity=0 time=0.03571425
EXTRACT: note_on channel=9 note=36 velocity=99 time=0.00396825
EXTRACT: note_on channel=9 note=44 velocity=94 time=0
EXTRACT: note_on channel=1 note=37 velocity=95 time=0
EXTRACT: note_on channel=10 note=49 velocity=67 time=0
EXTRACT: note_on channel=10 note=52 velocity=68 time=0
EXTRACT: note_on channel=10 note=76 velocity=64 time=0
EXTRACT: note_on channel=5 note=56 velocity=85 time=0
EXTRACT: note_on channel=5 note=61 velocity=73 time=0
EXTRACT: note_on channel=5 note=64 velocity=79 time=0
EXTRACT: note_on channel=6 note=56 velocity=63 time=0
EXTRACT: note_on channel=6 note=61 velocity=51 time=0
EXTRACT: note_on channel=6 note=64 velocity=57 time=0
EXTRACT: note_on channel=9 note=36 velocity=126 time=0
EXTRACT: note_on channel=9 note=35 velocity=117 time=0
EXTRACT: note_on channel=9 note=35 velocity=0 time=0.001984125
EXTRACT: note_on channel=9 note=36 velocity=0 time=0
EXTRACT: note_on channel=5 note=64 velocity=0 time=0.06746025000000001
EXTRACT: note_on channel=5 note=61 velocity=0 time=0
EXTRACT: note_on channel=9 note=44 velocity=0 time=0.013888875000000002
EXTRACT: note_on channel=5 note=56 velocity=0 time=0.005952375000000001
EXTRACT: note_on channel=9 note=36 velocity=0 time=0.0396825
EXTRACT: note_on channel=9 note=69 velocity=84 time=0.011904750000000002
EXTRACT: note_on channel=9 note=69 velocity=0 time=0.001984125
EXTRACT: note_on channel=6 note=64 velocity=0 time=0.029761875000000004
EXTRACT: note_on channel=6 note=61 velocity=0 time=0
EXTRACT: note_on channel=6 note=56 velocity=0 time=0
EXTRACT: note_on channel=4 note=68 velocity=0 time=0.01984125
EXTRACT: note_on channel=1 note=37 velocity=0 time=0.041666625000000006
EXTRACT: note_on channel=9 note=70 velocity=105 time=0
EXTRACT: note_on channel=9 note=44 velocity=46 time=0.00396825
EXTRACT: note_on channel=1 note=32 velocity=76 time=0
EXTRACT: note_on channel=4 note=64 velocity=103 time=0
EXTRACT: note_on channel=9 note=70 velocity=0 time=0
EXTRACT: note_on channel=9 note=42 velocity=73 time=0
EXTRACT: note_on channel=9 note=62 velocity=79 time=0
EXTRACT: note_on channel=9 note=62 velocity=0 time=0.001984125
EXTRACT: note_on channel=9 note=42 velocity=0 time=0
EXTRACT: note_on channel=9 note=44 velocity=0 time=0.031746
EXTRACT: note_on channel=9 note=61 velocity=69 time=0.08531737500000001
EXTRACT: note_on channel=9 note=61 velocity=0 time=0.001984125
EXTRACT: note_on channel=5 note=56 velocity=85 time=0.0079365
EXTRACT: note_on channel=5 note=61 velocity=71 time=0
EXTRACT: note_on channel=5 note=64 velocity=79 time=0
EXTRACT: note_on channel=6 note=56 velocity=63 time=0
EXTRACT: note_on channel=6 note=61 velocity=49 time=0
EXTRACT: note_on channel=6 note=64 velocity=57 time=0
EXTRACT: note_on channel=9 note=44 velocity=61 time=0.009920625
EXTRACT: note_on channel=9 note=42 velocity=66 time=0.001984125
EXTRACT: note_on channel=9 note=69 velocity=68 time=0
EXTRACT: note_on channel=9 note=69 velocity=0 time=0.001984125
EXTRACT: note_on channel=9 note=42 velocity=0 time=0
EXTRACT: note_on channel=4 note=64 velocity=0 time=0.029761875000000004
EXTRACT: note_on channel=5 note=61 velocity=0 time=0.015873
EXTRACT: note_on channel=9 note=44 velocity=0 time=0.009920625
EXTRACT: note_on channel=5 note=64 velocity=0 time=0.001984125
EXTRACT: note_on channel=5 note=56 velocity=0 time=0.021825375
EXTRACT: note_on channel=1 note=32 velocity=0 time=0.011904750000000002
EXTRACT: note_on channel=9 note=28 velocity=69 time=0.00396825
EXTRACT: note_on channel=9 note=36 velocity=95 time=0
EXTRACT: note_on channel=9 note=39 velocity=83 time=0
EXTRACT: note_on channel=9 note=42 velocity=74 time=0
EXTRACT: note_on channel=1 note=35 velocity=73 time=0
EXTRACT: note_on channel=4 note=66 velocity=85 time=0
EXTRACT: note_on channel=9 note=39 velocity=121 time=0
EXTRACT: note_on channel=9 note=36 velocity=126 time=0
EXTRACT: note_on channel=9 note=35 velocity=117 time=0
EXTRACT: note_on channel=9 note=40 velocity=117 time=0
EXTRACT: note_on channel=9 note=44 velocity=81 time=0
EXTRACT: note_on channel=9 note=44 velocity=0 time=0.001984125
EXTRACT: note_on channel=9 note=35 velocity=0 time=0
EXTRACT: note_on channel=9 note=39 velocity=0 time=0
EXTRACT: note_on channel=9 note=36 velocity=0 time=0
EXTRACT: note_on channel=9 note=40 velocity=0 time=0
EXTRACT: note_on channel=6 note=64 velocity=0 time=0.061507875000000004
EXTRACT: note_on channel=6 note=61 velocity=0 time=0
EXTRACT: note_on channel=6 note=56 velocity=0 time=0
EXTRACT: note_on channel=9 note=42 velocity=0 time=0.005952375000000001
EXTRACT: note_on channel=9 note=39 velocity=0 time=0.00396825
EXTRACT: note_on channel=9 note=28 velocity=0 time=0.005952375000000001
EXTRACT: note_on channel=4 note=66 velocity=0 time=0.009920625
EXTRACT: note_on channel=9 note=62 velocity=73 time=0.029761875000000004
EXTRACT: note_on channel=9 note=62 velocity=0 time=0.001984125
EXTRACT: note_on channel=9 note=36 velocity=0 time=0.029761875000000004
EXTRACT: note_on channel=1 note=35 velocity=0 time=0.06746025000000001
EXTRACT: note_on channel=9 note=44 velocity=59 time=0.01984125
EXTRACT: note_on channel=1 note=37 velocity=92 time=0
EXTRACT: note_on channel=4 note=68 velocity=91 time=0
EXTRACT: note_on channel=5 note=56 velocity=83 time=0
EXTRACT: note_on channel=5 note=61 velocity=69 time=0
EXTRACT: note_on channel=5 note=64 velocity=73 time=0
EXTRACT: note_on channel=6 note=56 velocity=61 time=0
EXTRACT: note_on channel=6 note=61 velocity=47 time=0
EXTRACT: note_on channel=6 note=64 velocity=51 time=0
EXTRACT: note_on channel=9 note=42 velocity=73 time=0
EXTRACT: note_on channel=9 note=61 velocity=66 time=0
EXTRACT: note_on channel=9 note=61 velocity=0 time=0.001984125
EXTRACT: note_on channel=9 note=42 velocity=0 time=0
EXTRACT: note_on channel=9 note=70 velocity=105 time=0.001984125
EXTRACT: note_on channel=9 note=70 velocity=0 time=0.001984125
EXTRACT: note_on channel=9 note=44 velocity=0 time=0.04365075
EXTRACT: note_on channel=5 note=61 velocity=0 time=0.023809500000000004
EXTRACT: note_on channel=5 note=64 velocity=0 time=0.001984125
EXTRACT: note_on channel=5 note=56 velocity=0 time=0.009920625
EXTRACT: note_on channel=9 note=44 velocity=70 time=0.053571375000000004
EXTRACT: note_on channel=9 note=42 velocity=66 time=0.001984125
EXTRACT: note_on channel=9 note=82 velocity=48 time=0
EXTRACT: note_on channel=9 note=82 velocity=0 time=0.001984125
EXTRACT: note_on channel=9 note=42 velocity=0 time=0
EXTRACT: note_on channel=6 note=64 velocity=0 time=0.029761875000000004
EXTRACT: note_on channel=6 note=61 velocity=0 time=0
EXTRACT: note_on channel=6 note=56 velocity=0 time=0
EXTRACT: note_on channel=9 note=44 velocity=0 time=0.029761875000000004
EXTRACT: note_on channel=1 note=37 velocity=0 time=0.029761875000000004
EXTRACT: note_on channel=9 note=36 velocity=95 time=0.005952375000000001
EXTRACT: note_on channel=9 note=44 velocity=87 time=0
EXTRACT: note_on channel=9 note=36 velocity=126 time=0
EXTRACT: note_on channel=9 note=35 velocity=117 time=0
EXTRACT: note_on channel=9 note=44 velocity=81 time=0
EXTRACT: note_on channel=9 note=82 velocity=55 time=0
EXTRACT: note_on channel=9 note=56 velocity=80 time=0
EXTRACT: note_on channel=9 note=56 velocity=0 time=0.001984125
EXTRACT: note_on channel=9 note=44 velocity=0 time=0
EXTRACT: note_on channel=9 note=36 velocity=0 time=0
EXTRACT: note_on channel=9 note=35 velocity=0 time=0
EXTRACT: note_on channel=9 note=82 velocity=0 time=0
EXTRACT: note_on channel=9 note=44 velocity=0 time=0.08333325000000001
EXTRACT: note_on channel=9 note=82 velocity=63 time=0.05555550000000001
EXTRACT: note_on channel=9 note=82 velocity=0 time=0.001984125
EXTRACT: note_on channel=9 note=36 velocity=0 time=0.009920625
EXTRACT: note_on channel=4 note=68 velocity=0 time=0.08134912500000001
EXTRACT: note_on channel=9 note=44 velocity=60 time=0.00396825
EXTRACT: note_on channel=1 note=37 velocity=93 time=0
EXTRACT: note_on channel=4 note=64 velocity=99 time=0
EXTRACT: note_on channel=5 note=56 velocity=85 time=0
EXTRACT: note_on channel=5 note=61 velocity=73 time=0
EXTRACT: note_on channel=5 note=64 velocity=77 time=0
EXTRACT: note_on channel=6 note=56 velocity=63 time=0
EXTRACT: note_on channel=6 note=61 velocity=51 time=0
EXTRACT: note_on channel=6 note=64 velocity=55 time=0
EXTRACT: note_on channel=9 note=42 velocity=73 time=0
EXTRACT: note_on channel=9 note=82 velocity=59 time=0
EXTRACT: note_on channel=9 note=63 velocity=60 time=0
EXTRACT: note_on channel=9 note=63 velocity=0 time=0.001984125
EXTRACT: note_on channel=9 note=82 velocity=0 time=0
EXTRACT: note_on channel=9 note=42 velocity=0 time=0
EXTRACT: note_on channel=9 note=70 velocity=105 time=0.001984125
EXTRACT: note_on channel=9 note=70 velocity=0 time=0.001984125
EXTRACT: note_on channel=9 note=44 velocity=0 time=0.027777750000000004
EXTRACT: note_on channel=5 note=61 velocity=0 time=0.031746
EXTRACT: note_on channel=5 note=64 velocity=0 time=0.00396825
EXTRACT: note_on channel=5 note=56 velocity=0 time=0.025793625000000004
EXTRACT: note_on channel=9 note=56 velocity=89 time=0.023809500000000004
EXTRACT: note_on channel=9 note=56 velocity=0 time=0.001984125
EXTRACT: note_on channel=9 note=44 velocity=67 time=0.017857125
EXTRACT: note_on channel=9 note=42 velocity=66 time=0.001984125
EXTRACT: note_on channel=9 note=82 velocity=45 time=0
EXTRACT: note_on channel=9 note=82 velocity=0 time=0.001984125
EXTRACT: note_on channel=9 note=42 velocity=0 time=0
EXTRACT: note_on channel=4 note=64 velocity=0 time=0.027777750000000004
EXTRACT: note_on channel=6 note=64 velocity=0 time=0.001984125
EXTRACT: note_on channel=6 note=61 velocity=0 time=0
EXTRACT: note_on channel=6 note=56 velocity=0 time=0
EXTRACT: note_on channel=9 note=44 velocity=0 time=0.025793625000000004
EXTRACT: note_on channel=1 note=37 velocity=0 time=0.00396825
EXTRACT: note_on channel=9 note=28 velocity=75 time=0.03571425
EXTRACT: note_on channel=9 note=36 velocity=99 time=0
EXTRACT: note_on channel=9 note=39 velocity=80 time=0
EXTRACT: note_on channel=9 note=44 velocity=87 time=0
EXTRACT: note_on channel=4 note=66 velocity=85 time=0
EXTRACT: note_on channel=9 note=36 velocity=126 time=0
EXTRACT: note_on channel=9 note=35 velocity=117 time=0
EXTRACT: note_on channel=9 note=39 velocity=121 time=0
EXTRACT: note_on channel=9 note=40 velocity=117 time=0
EXTRACT: note_on channel=9 note=44 velocity=81 time=0
EXTRACT: note_on channel=9 note=82 velocity=60 time=0
EXTRACT: note_on channel=9 note=82 velocity=0 time=0.001984125
EXTRACT: note_on channel=9 note=35 velocity=0 time=0
EXTRACT: note_on channel=9 note=39 velocity=0 time=0
EXTRACT: note_on channel=9 note=36 velocity=0 time=0
EXTRACT: note_on channel=9 note=44 velocity=0 time=0
EXTRACT: note_on channel=9 note=40 velocity=0 time=0
EXTRACT: note_on channel=9 note=39 velocity=0 time=0.0714285
EXTRACT: note_on channel=9 note=28 velocity=0 time=0.0079365
EXTRACT: note_on channel=4 note=66 velocity=0 time=0.017857125
EXTRACT: note_on channel=5 note=56 velocity=84 time=0.029761875000000004
EXTRACT: note_on channel=5 note=61 velocity=70 time=0
EXTRACT: note_on channel=5 note=64 velocity=78 time=0
EXTRACT: note_on channel=6 note=56 velocity=62 time=0
EXTRACT: note_on channel=6 note=61 velocity=48 time=0
EXTRACT: note_on channel=6 note=64 velocity=56 time=0
EXTRACT: note_on channel=9 note=36 velocity=0 time=0.001984125
EXTRACT: note_on channel=9 note=44 velocity=0 time=0.011904750000000002
EXTRACT: note_on channel=5 note=64 velocity=0 time=0.057539625000000004
EXTRACT: note_on channel=5 note=61 velocity=0 time=0
EXTRACT: note_on channel=5 note=56 velocity=0 time=0.011904750000000002
EXTRACT: note_on channel=9 note=70 velocity=105 time=0.01984125
EXTRACT: note_on channel=9 note=70 velocity=0 time=0.001984125
EXTRACT: note_on channel=9 note=44 velocity=63 time=0.00396825
EXTRACT: note_on channel=1 note=37 velocity=87 time=0
EXTRACT: note_on channel=4 note=68 velocity=95 time=0
EXTRACT: note_on channel=9 note=42 velocity=75 time=0
EXTRACT: note_on channel=9 note=69 velocity=87 time=0
EXTRACT: note_on channel=9 note=56 velocity=87 time=0
EXTRACT: note_on channel=9 note=56 velocity=0 time=0.001984125
EXTRACT: note_on channel=9 note=69 velocity=0 time=0
EXTRACT: note_on channel=9 note=42 velocity=0 time=0
EXTRACT: note_on channel=9 note=44 velocity=0 time=0.049603125000000005
EXTRACT: note_on channel=10 note=61 velocity=0 time=0.00396825
EXTRACT: note_on channel=10 note=64 velocity=0 time=0.0079365
EXTRACT: note_on channel=6 note=64 velocity=0 time=0
EXTRACT: note_on channel=6 note=61 velocity=0 time=0
EXTRACT: note_on channel=6 note=56 velocity=0 time=0
EXTRACT: note_on channel=10 note=56 velocity=0 time=0.04761900000000001
EXTRACT: note_on channel=9 note=62 velocity=64 time=0.0079365
EXTRACT: note_on channel=9 note=62 velocity=0 time=0.001984125
EXTRACT: note_on channel=9 note=44 velocity=67 time=0.017857125
EXTRACT: note_on channel=9 note=42 velocity=66 time=0.001984125
EXTRACT: note_on channel=9 note=69 velocity=69 time=0
EXTRACT: note_on channel=9 note=69 velocity=0 time=0.001984125
EXTRACT: note_on channel=9 note=42 velocity=0 time=0
EXTRACT: note_on channel=10 note=52 velocity=0 time=0.009920625
EXTRACT: note_on channel=10 note=49 velocity=0 time=0.015873
EXTRACT: note_on channel=9 note=44 velocity=0 time=0.025793625000000004
EXTRACT: note_on channel=10 note=76 velocity=0 time=0.015873
EXTRACT: note_on channel=1 note=37 velocity=0 time=0.023809500000000004
EXTRACT: note_on channel=9 note=36 velocity=95 time=0.00396825
EXTRACT: note_on channel=9 note=44 velocity=87 time=0
EXTRACT: note_on channel=1 note=30 velocity=87 time=0
EXTRACT: note_on channel=10 note=54 velocity=76 time=0
EXTRACT: note_on channel=10 note=57 velocity=71 time=0
EXTRACT: note_on channel=10 note=61 velocity=59 time=0
EXTRACT: note_on channel=10 note=66 velocity=59 time=0
EXTRACT: note_on channel=10 note=78 velocity=61 time=0
EXTRACT: note_on channel=5 note=57 velocity=72 time=0
EXTRACT: note_on channel=5 note=61 velocity=73 time=0
EXTRACT: note_on channel=5 note=66 velocity=76 time=0
EXTRACT: note_on channel=6 note=57 velocity=50 time=0
EXTRACT: note_on channel=6 note=61 velocity=51 time=0
EXTRACT: note_on channel=6 note=66 velocity=54 time=0
EXTRACT: note_on channel=9 note=36 velocity=126 time=0
EXTRACT: note_on channel=9 note=35 velocity=117 time=0
EXTRACT: note_on channel=9 note=44 velocity=81 time=0
EXTRACT: note_on channel=9 note=60 velocity=69 time=0
EXTRACT: note_on channel=9 note=60 velocity=0 time=0.001984125
EXTRACT: note_on channel=9 note=36 velocity=0 time=0
EXTRACT: note_on channel=9 note=35 velocity=0 time=0
EXTRACT: note_on channel=9 note=44 velocity=0 time=0
EXTRACT: note_on channel=5 note=57 velocity=0 time=0.069444375
EXTRACT: note_on channel=5 note=61 velocity=0 time=0.00396825
EXTRACT: note_on channel=9 note=44 velocity=0 time=0.0079365
EXTRACT: note_on channel=5 note=66 velocity=0 time=0.001984125
EXTRACT: note_on channel=9 note=69 velocity=93 time=0.05555550000000001
EXTRACT: note_on channel=9 note=69 velocity=0 time=0.001984125
EXTRACT: note_on channel=9 note=36 velocity=0 time=0.025793625000000004
EXTRACT: note_on channel=6 note=66 velocity=0 time=0.00396825
EXTRACT: note_on channel=6 note=61 velocity=0 time=0
EXTRACT: note_on channel=6 note=57 velocity=0 time=0
EXTRACT: note_on channel=4 note=68 velocity=0 time=0.017857125
EXTRACT: note_on channel=1 note=30 velocity=0 time=0.04365075
EXTRACT: note_on channel=9 note=44 velocity=32 time=0.00396825
EXTRACT: note_on channel=1 note=33 velocity=71 time=0
EXTRACT: note_on channel=4 note=69 velocity=80 time=0
EXTRACT: note_on channel=9 note=42 velocity=73 time=0
EXTRACT: note_on channel=9 note=62 velocity=59 time=0
EXTRACT: note_on channel=9 note=70 velocity=105 time=0
EXTRACT: note_on channel=9 note=70 velocity=0 time=0.001984125
EXTRACT: note_on channel=9 note=62 velocity=0 time=0
EXTRACT: note_on channel=9 note=42 velocity=0 time=0
EXTRACT: note_on channel=9 note=44 velocity=0 time=0.027777750000000004
EXTRACT: note_on channel=4 note=69 velocity=0 time=0.07341262500000001
EXTRACT: note_on channel=9 note=60 velocity=63 time=0.015873
EXTRACT: note_on channel=9 note=60 velocity=0 time=0.001984125
EXTRACT: note_on channel=5 note=57 velocity=73 time=0.0079365
EXTRACT: note_on channel=5 note=61 velocity=73 time=0
EXTRACT: note_on channel=5 note=66 velocity=76 time=0
EXTRACT: note_on channel=6 note=57 velocity=51 time=0
EXTRACT: note_on channel=6 note=61 velocity=51 time=0
EXTRACT: note_on channel=6 note=66 velocity=54 time=0
EXTRACT: note_on channel=9 note=44 velocity=57 time=0.009920625
EXTRACT: note_on channel=9 note=42 velocity=66 time=0.001984125
EXTRACT: note_on channel=9 note=69 velocity=61 time=0
EXTRACT: note_on channel=9 note=69 velocity=0 time=0.001984125
EXTRACT: note_on channel=9 note=42 velocity=0 time=0
EXTRACT: note_on channel=5 note=61 velocity=0 time=0.049603125000000005
EXTRACT: note_on channel=9 note=44 velocity=0 time=0.009920625
EXTRACT: note_on channel=1 note=33 velocity=0 time=0.001984125
EXTRACT: note_on channel=5 note=57 velocity=0 time=0.00396825
EXTRACT: note_on channel=5 note=66 velocity=0 time=0.01984125
EXTRACT: note_on channel=9 note=28 velocity=69 time=0.009920625
EXTRACT: note_on channel=9 note=36 velocity=99 time=0
EXTRACT: note_on channel=9 note=39 velocity=83 time=0
EXTRACT: note_on channel=9 note=42 velocity=68 time=0
EXTRACT: note_on channel=1 note=35 velocity=82 time=0
EXTRACT: note_on channel=4 note=68 velocity=85 time=0
EXTRACT: note_on channel=9 note=40 velocity=117 time=0
EXTRACT: note_on channel=9 note=36 velocity=126 time=0
EXTRACT: note_on channel=9 note=35 velocity=117 time=0
EXTRACT: note_on channel=9 note=39 velocity=121 time=0
EXTRACT: note_on channel=9 note=44 velocity=81 time=0
EXTRACT: note_on channel=9 note=69 velocity=78 time=0
EXTRACT: note_on channel=9 note=69 velocity=0 time=0.001984125
EXTRACT: note_on channel=9 note=36 velocity=0 time=0
EXTRACT: note_on channel=9 note=35 velocity=0 time=0
EXTRACT: note_on channel=9 note=40 velocity=0 time=0
EXTRACT: note_on channel=9 note=44 velocity=0 time=0
EXTRACT: note_on channel=9 note=39 velocity=0 time=0
EXTRACT: note_on channel=6 note=66 velocity=0 time=0.061507875000000004
EXTRACT: note_on channel=6 note=61 velocity=0 time=0
EXTRACT: note_on channel=6 note=57 velocity=0 time=0
EXTRACT: note_on channel=9 note=42 velocity=0 time=0.009920625
EXTRACT: note_on channel=9 note=39 velocity=0 time=0
EXTRACT: note_on channel=9 note=28 velocity=0 time=0.005952375000000001
EXTRACT: note_on channel=4 note=68 velocity=0 time=0.009920625
EXTRACT: note_on channel=9 note=61 velocity=73 time=0.029761875000000004
EXTRACT: note_on channel=9 note=61 velocity=0 time=0.001984125
EXTRACT: note_on channel=9 note=36 velocity=0 time=0.029761875000000004
EXTRACT: note_on channel=1 note=35 velocity=0 time=0.013888875000000002
EXTRACT: note_on channel=9 note=44 velocity=57 time=0.07341262500000001
EXTRACT: note_on channel=1 note=37 velocity=91 time=0
EXTRACT: note_on channel=4 note=66 velocity=93 time=0
EXTRACT: note_on channel=5 note=57 velocity=75 time=0
EXTRACT: note_on channel=5 note=61 velocity=72 time=0
EXTRACT: note_on channel=5 note=66 velocity=76 time=0
EXTRACT: note_on channel=6 note=57 velocity=53 time=0
EXTRACT: note_on channel=6 note=61 velocity=50 time=0
EXTRACT: note_on channel=6 note=66 velocity=54 time=0
EXTRACT: note_on channel=9 note=42 velocity=73 time=0
EXTRACT: note_on channel=9 note=60 velocity=66 time=0
EXTRACT: note_on channel=9 note=60 velocity=0 time=0.001984125
EXTRACT: note_on channel=9 note=42 velocity=0 time=0
EXTRACT: note_on channel=9 note=70 velocity=105 time=0
EXTRACT: note_on channel=9 note=70 velocity=0 time=0.001984125
EXTRACT: note_on channel=9 note=44 velocity=0 time=0.04761900000000001
EXTRACT: note_on channel=5 note=61 velocity=0 time=0.017857125
EXTRACT: note_on channel=5 note=57 velocity=0 time=0
EXTRACT: note_on channel=5 note=66 velocity=0 time=0.01984125
EXTRACT: note_on channel=9 note=62 velocity=69 time=0.029761875000000004
EXTRACT: note_on channel=9 note=62 velocity=0 time=0.001984125
EXTRACT: note_on channel=9 note=44 velocity=61 time=0.017857125
EXTRACT: note_on channel=9 note=42 velocity=66 time=0.001984125
EXTRACT: note_on channel=9 note=42 velocity=0 time=0.001984125
EXTRACT: note_on channel=6 note=66 velocity=0 time=0.029761875000000004
EXTRACT: note_on channel=6 note=61 velocity=0 time=0
EXTRACT: note_on channel=6 note=57 velocity=0 time=0
EXTRACT: note_on channel=9 note=44 velocity=0 time=0.025793625000000004
EXTRACT: note_on channel=9 note=36 velocity=96 time=0.0396825
EXTRACT: note_on channel=9 note=44 velocity=89 time=0
EXTRACT: note_on channel=9 note=36 velocity=126 time=0
EXTRACT: note_on channel=9 note=35 velocity=117 time=0
EXTRACT: note_on channel=9 note=44 velocity=81 time=0
EXTRACT: note_on channel=9 note=82 velocity=69 time=0
EXTRACT: note_on channel=9 note=56 velocity=87 time=0
EXTRACT: note_on channel=9 note=60 velocity=63 time=0
EXTRACT: note_on channel=9 note=60 velocity=0 time=0.001984125
EXTRACT: note_on channel=9 note=35 velocity=0 time=0
EXTRACT: note_on channel=9 note=44 velocity=0 time=0
EXTRACT: note_on channel=9 note=36 velocity=0 time=0
EXTRACT: note_on channel=9 note=56 velocity=0 time=0
EXTRACT: note_on channel=9 note=82 velocity=0 time=0
EXTRACT: note_on channel=1 note=37 velocity=0 time=0.013888875000000002
EXTRACT: note_on channel=9 note=44 velocity=0 time=0.069444375
EXTRACT: note_on channel=9 note=82 velocity=43 time=0.05555550000000001
EXTRACT: note_on channel=9 note=82 velocity=0 time=0.001984125
EXTRACT: note_on channel=9 note=36 velocity=0 time=0.021825375
EXTRACT: note_on channel=9 note=70 velocity=105 time=0.06547612500000001
EXTRACT: note_on channel=9 note=70 velocity=0 time=0.001984125
EXTRACT: note_on channel=4 note=66 velocity=0 time=0.001984125
EXTRACT: note_on channel=9 note=44 velocity=54 time=0.00396825
EXTRACT: note_on channel=1 note=30 velocity=87 time=0
EXTRACT: note_on channel=4 note=63 velocity=95 time=0
EXTRACT: note_on channel=5 note=57 velocity=74 time=0
EXTRACT: note_on channel=5 note=61 velocity=74 time=0
EXTRACT: note_on channel=5 note=66 velocity=76 time=0
EXTRACT: note_on channel=6 note=57 velocity=52 time=0
EXTRACT: note_on channel=6 note=61 velocity=52 time=0
EXTRACT: note_on channel=6 note=66 velocity=54 time=0
EXTRACT: note_on channel=9 note=42 velocity=73 time=0
EXTRACT: note_on channel=9 note=82 velocity=48 time=0
EXTRACT: note_on channel=9 note=82 velocity=0 time=0.001984125
EXTRACT: note_on channel=9 note=42 velocity=0 time=0
EXTRACT: note_on channel=9 note=44 velocity=0 time=0.031746
EXTRACT: note_on channel=5 note=61 velocity=0 time=0.03571425
EXTRACT: note_on channel=5 note=66 velocity=0 time=0.011904750000000002
EXTRACT: note_on channel=5 note=57 velocity=0 time=0
EXTRACT: note_on channel=9 note=56 velocity=87 time=0.037698375000000006
EXTRACT: note_on channel=9 note=56 velocity=0 time=0.001984125
EXTRACT: note_on channel=9 note=44 velocity=61 time=0.017857125
EXTRACT: note_on channel=9 note=42 velocity=66 time=0.001984125
EXTRACT: note_on channel=9 note=82 velocity=40 time=0
EXTRACT: note_on channel=9 note=82 velocity=0 time=0.001984125
EXTRACT: note_on channel=9 note=42 velocity=0 time=0
EXTRACT: note_on channel=6 note=66 velocity=0 time=0.029761875000000004
EXTRACT: note_on channel=6 note=61 velocity=0 time=0
EXTRACT: note_on channel=6 note=57 velocity=0 time=0
EXTRACT: note_on channel=9 note=44 velocity=0 time=0.017857125
EXTRACT: note_on channel=4 note=63 velocity=0 time=0.013888875000000002
EXTRACT: note_on channel=9 note=28 velocity=75 time=0.03373012500000001
EXTRACT: note_on channel=9 note=36 velocity=96 time=0
EXTRACT: note_on channel=9 note=39 velocity=80 time=0
EXTRACT: note_on channel=9 note=44 velocity=88 time=0
EXTRACT: note_on channel=4 note=64 velocity=96 time=0
EXTRACT: note_on channel=9 note=39 velocity=121 time=0
EXTRACT: note_on channel=9 note=40 velocity=117 time=0
EXTRACT: note_on channel=9 note=36 velocity=126 time=0
EXTRACT: note_on channel=9 note=35 velocity=117 time=0
EXTRACT: note_on channel=9 note=44 velocity=81 time=0
EXTRACT: note_on channel=9 note=82 velocity=69 time=0
EXTRACT: note_on channel=9 note=82 velocity=0 time=0.001984125
EXTRACT: note_on channel=9 note=40 velocity=0 time=0
EXTRACT: note_on channel=9 note=36 velocity=0 time=0
EXTRACT: note_on channel=9 note=39 velocity=0 time=0
EXTRACT: note_on channel=9 note=44 velocity=0 time=0
EXTRACT: note_on channel=9 note=35 velocity=0 time=0
EXTRACT: note_on channel=1 note=30 velocity=0 time=0.011904750000000002
EXTRACT: note_on channel=9 note=39 velocity=0 time=0.05952375000000001
EXTRACT: note_on channel=9 note=44 velocity=0 time=0.001984125
EXTRACT: note_on channel=9 note=28 velocity=0 time=0.005952375000000001
EXTRACT: note_on channel=4 note=64 velocity=0 time=0.029761875000000004
EXTRACT: note_on channel=9 note=36 velocity=0 time=0.00396825
EXTRACT: note_on channel=5 note=57 velocity=80 time=0.013888875000000002
EXTRACT: note_on channel=5 note=61 velocity=71 time=0
EXTRACT: note_on channel=5 note=66 velocity=74 time=0
EXTRACT: note_on channel=6 note=57 velocity=58 time=0
EXTRACT: note_on channel=6 note=61 velocity=49 time=0
EXTRACT: note_on channel=6 note=66 velocity=52 time=0
EXTRACT: note_on channel=5 note=61 velocity=0 time=0.063492
EXTRACT: note_on channel=5 note=57 velocity=0 time=0.0079365
EXTRACT: note_on channel=5 note=66 velocity=0 time=0.017857125
EXTRACT: note_on channel=9 note=70 velocity=105 time=0.013888875000000002
EXTRACT: note_on channel=9 note=70 velocity=0 time=0.001984125
EXTRACT: note_on channel=9 note=44 velocity=45 time=0.00396825
EXTRACT: note_on channel=1 note=30 velocity=83 time=0
EXTRACT: note_on channel=4 note=66 velocity=93 time=0
EXTRACT: note_on channel=9 note=42 velocity=73 time=0
EXTRACT: note_on channel=9 note=69 velocity=78 time=0
EXTRACT: note_on channel=9 note=56 velocity=87 time=0
EXTRACT: note_on channel=9 note=56 velocity=0 time=0.001984125
EXTRACT: note_on channel=9 note=69 velocity=0 time=0
EXTRACT: note_on channel=9 note=42 velocity=0 time=0
EXTRACT: note_on channel=9 note=44 velocity=0 time=0.027777750000000004
EXTRACT: note_on channel=6 note=66 velocity=0 time=0.03373012500000001
EXTRACT: note_on channel=6 note=61 velocity=0 time=0
EXTRACT: note_on channel=6 note=57 velocity=0 time=0
EXTRACT: note_on channel=10 note=57 velocity=0 time=0.025793625000000004
EXTRACT: note_on channel=10 note=61 velocity=0 time=0.015873
EXTRACT: note_on channel=10 note=66 velocity=0 time=0.005952375000000001
EXTRACT: note_on channel=10 note=54 velocity=0 time=0.013888875000000002
EXTRACT: note_on channel=9 note=44 velocity=50 time=0.013888875000000002
EXTRACT: note_on channel=9 note=42 velocity=66 time=0.001984125
EXTRACT: note_on channel=9 note=69 velocity=73 time=0
EXTRACT: note_on channel=9 note=69 velocity=0 time=0.001984125
EXTRACT: note_on channel=9 note=42 velocity=0 time=0
EXTRACT: note_on channel=9 note=44 velocity=0 time=0.061507875000000004
EXTRACT: note_on channel=1 note=30 velocity=0 time=0.029761875000000004
EXTRACT: note_on channel=9 note=36 velocity=99 time=0.00396825
EXTRACT: note_on channel=9 note=44 velocity=89 time=0
EXTRACT: note_on channel=1 note=35 velocity=84 time=0
EXTRACT: note_on channel=10 note=51 velocity=85 time=0
EXTRACT: note_on channel=10 note=54 velocity=71 time=0
EXTRACT: note_on channel=10 note=59 velocity=69 time=0
EXTRACT: note_on channel=10 note=63 velocity=39 time=0
EXTRACT: note_on channel=10 note=66 velocity=56 time=0
EXTRACT: note_on channel=5 note=59 velocity=82 time=0
EXTRACT: note_on channel=5 note=63 velocity=79 time=0
EXTRACT: note_on channel=5 note=66 velocity=79 time=0
EXTRACT: note_on channel=6 note=59 velocity=60 time=0
EXTRACT: note_on channel=6 note=63 velocity=57 time=0
EXTRACT: note_on channel=6 note=66 velocity=57 time=0
EXTRACT: note_on channel=9 note=36 velocity=126 time=0
EXTRACT: note_on channel=9 note=35 velocity=117 time=0
EXTRACT: note_on channel=9 note=35 velocity=0 time=0.001984125
EXTRACT: note_on channel=9 note=36 velocity=0 time=0
EXTRACT: note_on channel=5 note=63 velocity=0 time=0.06746025000000001
EXTRACT: note_on channel=5 note=66 velocity=0 time=0.021825375
EXTRACT: note_on channel=5 note=59 velocity=0 time=0.0079365
EXTRACT: note_on channel=9 note=36 velocity=0 time=0.005952375000000001
EXTRACT: note_on channel=9 note=44 velocity=0 time=0.0079365
EXTRACT: note_on channel=9 note=69 velocity=84 time=0.027777750000000004
EXTRACT: note_on channel=9 note=69 velocity=0 time=0.001984125
EXTRACT: note_on channel=6 note=66 velocity=0 time=0.029761875000000004
EXTRACT: note_on channel=6 note=63 velocity=0 time=0
EXTRACT: note_on channel=6 note=59 velocity=0 time=0
EXTRACT: note_on channel=1 note=35 velocity=0 time=0.057539625000000004
EXTRACT: note_on channel=4 note=66 velocity=0 time=0
EXTRACT: note_on channel=9 note=70 velocity=105 time=0.00396825
EXTRACT: note_on channel=1 note=30 velocity=71 time=0.00396825
EXTRACT: note_on channel=4 note=63 velocity=99 time=0
EXTRACT: note_on channel=9 note=70 velocity=0 time=0
EXTRACT: note_on channel=9 note=42 velocity=73 time=0
EXTRACT: note_on channel=9 note=62 velocity=79 time=0
EXTRACT: note_on channel=9 note=62 velocity=0 time=0.001984125
EXTRACT: note_on channel=9 note=42 velocity=0 time=0
EXTRACT: note_on channel=9 note=61 velocity=69 time=0.11706337500000001
EXTRACT: note_on channel=9 note=61 velocity=0 time=0.001984125
EXTRACT: note_on channel=5 note=59 velocity=82 time=0.0079365
EXTRACT: note_on channel=5 note=63 velocity=79 time=0
EXTRACT: note_on channel=5 note=66 velocity=75 time=0
EXTRACT: note_on channel=6 note=59 velocity=60 time=0
EXTRACT: note_on channel=6 note=63 velocity=57 time=0
EXTRACT: note_on channel=6 note=66 velocity=53 time=0
EXTRACT: note_on channel=9 note=44 velocity=59 time=0.009920625
EXTRACT: note_on channel=9 note=42 velocity=66 time=0.001984125
EXTRACT: note_on channel=9 note=69 velocity=68 time=0
EXTRACT: note_on channel=9 note=69 velocity=0 time=0.001984125
EXTRACT: note_on channel=9 note=42 velocity=0 time=0
EXTRACT: note_on channel=5 note=63 velocity=0 time=0.05555550000000001
EXTRACT: note_on channel=4 note=63 velocity=0 time=0.001984125
EXTRACT: note_on channel=9 note=44 velocity=0 time=0.00396825
EXTRACT: note_on channel=5 note=66 velocity=0 time=0.015873
EXTRACT: note_on channel=5 note=59 velocity=0 time=0.009920625
EXTRACT: note_on channel=1 note=30 velocity=0 time=0.001984125
EXTRACT: note_on channel=9 note=28 velocity=69 time=0.005952375000000001
EXTRACT: note_on channel=9 note=36 velocity=96 time=0
EXTRACT: note_on channel=9 note=39 velocity=83 time=0
EXTRACT: note_on channel=9 note=42 velocity=71 time=0
EXTRACT: note_on channel=1 note=33 velocity=74 time=0
EXTRACT: note_on channel=4 note=64 velocity=101 time=0
EXTRACT: note_on channel=9 note=39 velocity=121 time=0
EXTRACT: note_on channel=9 note=36 velocity=126 time=0
EXTRACT: note_on channel=9 note=35 velocity=117 time=0
EXTRACT: note_on channel=9 note=40 velocity=117 time=0
EXTRACT: note_on channel=9 note=44 velocity=81 time=0
EXTRACT: note_on channel=9 note=44 velocity=0 time=0.001984125
EXTRACT: note_on channel=9 note=35 velocity=0 time=0
EXTRACT: note_on channel=9 note=39 velocity=0 time=0
EXTRACT: note_on channel=9 note=36 velocity=0 time=0
EXTRACT: note_on channel=9 note=40 velocity=0 time=0
EXTRACT: note_on channel=6 note=66 velocity=0 time=0.061507875000000004
EXTRACT: note_on channel=6 note=63 velocity=0 time=0
EXTRACT: note_on channel=6 note=59 velocity=0 time=0
EXTRACT: note_on channel=9 note=42 velocity=0 time=0.005952375000000001
EXTRACT: note_on channel=9 note=39 velocity=0 time=0.00396825
EXTRACT: note_on channel=9 note=28 velocity=0 time=0.005952375000000001
EXTRACT: note_on channel=9 note=62 velocity=73 time=0.0396825
EXTRACT: note_on channel=9 note=62 velocity=0 time=0.001984125
EXTRACT: note_on channel=9 note=36 velocity=0 time=0.03373012500000001
EXTRACT: note_on channel=4 note=64 velocity=0 time=0.053571375000000004
EXTRACT: note_on channel=1 note=33 velocity=0 time=0.011904750000000002
EXTRACT: note_on channel=9 note=44 velocity=58 time=0.017857125
EXTRACT: note_on channel=1 note=35 velocity=87 time=0
EXTRACT: note_on channel=4 note=66 velocity=92 time=0
EXTRACT: note_on channel=5 note=59 velocity=77 time=0
EXTRACT: note_on channel=5 note=63 velocity=85 time=0
EXTRACT: note_on channel=5 note=66 velocity=76 time=0
EXTRACT: note_on channel=6 note=59 velocity=55 time=0
EXTRACT: note_on channel=6 note=63 velocity=63 time=0
EXTRACT: note_on channel=6 note=66 velocity=54 time=0
EXTRACT: note_on channel=9 note=42 velocity=73 time=0
EXTRACT: note_on channel=9 note=61 velocity=66 time=0
EXTRACT: note_on channel=9 note=61 velocity=0 time=0.001984125
EXTRACT: note_on channel=9 note=42 velocity=0 time=0
EXTRACT: note_on channel=9 note=70 velocity=105 time=0.001984125
EXTRACT: note_on channel=9 note=70 velocity=0 time=0.001984125
EXTRACT: note_on channel=9 note=44 velocity=0 time=0.04365075
EXTRACT: note_on channel=5 note=63 velocity=0 time=0.015873
EXTRACT: note_on channel=5 note=66 velocity=0 time=0.015873
EXTRACT: note_on channel=5 note=59 velocity=0 time=0.017857125
EXTRACT: note_on channel=9 note=44 velocity=57 time=0.0396825
EXTRACT: note_on channel=9 note=42 velocity=66 time=0.001984125
EXTRACT: note_on channel=9 note=82 velocity=48 time=0
EXTRACT: note_on channel=9 note=82 velocity=0 time=0.001984125
EXTRACT: note_on channel=9 note=42 velocity=0 time=0
EXTRACT: note_on channel=6 note=66 velocity=0 time=0.029761875000000004
EXTRACT: note_on channel=6 note=63 velocity=0 time=0
EXTRACT: note_on channel=6 note=59 velocity=0 time=0
EXTRACT: note_on channel=1 note=35 velocity=0 time=0.0079365
EXTRACT: note_on channel=9 note=44 velocity=0 time=0.01984125
EXTRACT: note_on channel=9 note=36 velocity=96 time=0.037698375000000006
EXTRACT: note_on channel=9 note=44 velocity=83 time=0
EXTRACT: note_on channel=10 note=75 velocity=57 time=0
EXTRACT: note_on channel=9 note=36 velocity=126 time=0
EXTRACT: note_on channel=9 note=35 velocity=117 time=0
EXTRACT: note_on channel=9 note=44 velocity=81 time=0
EXTRACT: note_on channel=9 note=82 velocity=55 time=0
EXTRACT: note_on channel=9 note=56 velocity=80 time=0
EXTRACT: note_on channel=9 note=56 velocity=0 time=0.001984125
EXTRACT: note_on channel=9 note=44 velocity=0 time=0
EXTRACT: note_on channel=9 note=36 velocity=0 time=0
EXTRACT: note_on channel=9 note=35 velocity=0 time=0
EXTRACT: note_on channel=9 note=82 velocity=0 time=0
EXTRACT: note_on channel=10 note=78 velocity=0 time=0.009920625
EXTRACT: note_on channel=9 note=44 velocity=0 time=0.061507875000000004
EXTRACT: note_on channel=4 note=66 velocity=0 time=0.045634875000000005
EXTRACT: note_on channel=9 note=82 velocity=63 time=0.021825375
EXTRACT: note_on channel=9 note=82 velocity=0 time=0.001984125
EXTRACT: note_on channel=9 note=36 velocity=0 time=0.011904750000000002
EXTRACT: note_on channel=9 note=44 velocity=57 time=0.08333325000000001
EXTRACT: note_on channel=1 note=35 velocity=85 time=0
EXTRACT: note_on channel=4 note=66 velocity=91 time=0
EXTRACT: note_on channel=5 note=59 velocity=71 time=0
EXTRACT: note_on channel=5 note=63 velocity=73 time=0
EXTRACT: note_on channel=5 note=66 velocity=71 time=0
EXTRACT: note_on channel=6 note=59 velocity=49 time=0
EXTRACT: note_on channel=6 note=63 velocity=51 time=0
EXTRACT: note_on channel=6 note=66 velocity=49 time=0
EXTRACT: note_on channel=9 note=42 velocity=73 time=0
EXTRACT: note_on channel=9 note=82 velocity=59 time=0
EXTRACT: note_on channel=9 note=63 velocity=60 time=0
EXTRACT: note_on channel=9 note=63 velocity=0 time=0.001984125
EXTRACT: note_on channel=9 note=82 velocity=0 time=0
EXTRACT: note_on channel=9 note=42 velocity=0 time=0
EXTRACT: note_on channel=9 note=70 velocity=105 time=0.001984125
EXTRACT: note_on channel=9 note=70 velocity=0 time=0.001984125
EXTRACT: note_on channel=9 note=44 velocity=0 time=0.0396825
EXTRACT: note_on channel=5 note=63 velocity=0 time=0.015873
EXTRACT: note_on channel=5 note=66 velocity=0 time=0.023809500000000004
EXTRACT: note_on channel=5 note=59 velocity=0 time=0.013888875000000002
EXTRACT: note_on channel=9 note=56 velocity=89 time=0.01984125
EXTRACT: note_on channel=9 note=56 velocity=0 time=0.001984125
EXTRACT: note_on channel=9 note=44 velocity=59 time=0.017857125
EXTRACT: note_on channel=9 note=42 velocity=66 time=0.001984125
EXTRACT: note_on channel=9 note=82 velocity=45 time=0
EXTRACT: note_on channel=9 note=82 velocity=0 time=0.001984125
EXTRACT: note_on channel=9 note=42 velocity=0 time=0
EXTRACT: note_on channel=6 note=66 velocity=0 time=0.029761875000000004
EXTRACT: note_on channel=6 note=63 velocity=0 time=0
EXTRACT: note_on channel=6 note=59 velocity=0 time=0
EXTRACT: note_on channel=9 note=44 velocity=0 time=0.027777750000000004
EXTRACT: note_on channel=1 note=35 velocity=0 time=0.001984125
EXTRACT: note_on channel=4 note=66 velocity=0 time=0.031746
EXTRACT: note_on channel=9 note=28 velocity=75 time=0.00396825
EXTRACT: note_on channel=9 note=36 velocity=95 time=0
EXTRACT: note_on channel=9 note=39 velocity=80 time=0
EXTRACT: note_on channel=9 note=44 velocity=82 time=0
EXTRACT: note_on channel=4 note=68 velocity=84 time=0
EXTRACT: note_on channel=9 note=36 velocity=126 time=0
EXTRACT: note_on channel=9 note=35 velocity=117 time=0
EXTRACT: note_on channel=9 note=39 velocity=121 time=0
EXTRACT: note_on channel=9 note=40 velocity=117 time=0
EXTRACT: note_on channel=9 note=44 velocity=81 time=0
EXTRACT: note_on channel=9 note=82 velocity=60 time=0
EXTRACT: note_on channel=9 note=82 velocity=0 time=0.001984125
EXTRACT: note_on channel=9 note=35 velocity=0 time=0
EXTRACT: note_on channel=9 note=39 velocity=0 time=0
EXTRACT: note_on channel=9 note=36 velocity=0 time=0
EXTRACT: note_on channel=9 note=44 velocity=0 time=0
EXTRACT: note_on channel=9 note=40 velocity=0 time=0
EXTRACT: note_on channel=9 note=39 velocity=0 time=0.0714285
EXTRACT: note_on channel=9 note=28 velocity=0 time=0.0079365
EXTRACT: note_on channel=9 note=44 velocity=0 time=0.00396825
EXTRACT: note_on channel=5 note=59 velocity=73 time=0.04365075
EXTRACT: note_on channel=5 note=63 velocity=86 time=0
EXTRACT: note_on channel=5 note=66 velocity=76 time=0
EXTRACT: note_on channel=6 note=59 velocity=51 time=0
EXTRACT: note_on channel=6 note=63 velocity=64 time=0
EXTRACT: note_on channel=6 note=66 velocity=54 time=0
EXTRACT: note_on channel=9 note=36 velocity=0 time=0.013888875000000002
EXTRACT: note_on channel=4 note=68 velocity=0 time=0.031746
EXTRACT: note_on channel=5 note=63 velocity=0 time=0.01984125
EXTRACT: note_on channel=5 note=59 velocity=0 time=0.00396825
EXTRACT: note_on channel=5 note=66 velocity=0 time=0.01984125
EXTRACT: note_on channel=9 note=70 velocity=105 time=0.013888875000000002
EXTRACT: note_on channel=9 note=70 velocity=0 time=0.001984125
EXTRACT: note_on channel=9 note=44 velocity=63 time=0.00396825
EXTRACT: note_on channel=1 note=35 velocity=84 time=0
EXTRACT: note_on channel=4 note=66 velocity=90 time=0
EXTRACT: note_on channel=9 note=42 velocity=75 time=0
EXTRACT: note_on channel=9 note=69 velocity=87 time=0
EXTRACT: note_on channel=9 note=56 velocity=87 time=0
EXTRACT: note_on channel=9 note=56 velocity=0 time=0.001984125
EXTRACT: note_on channel=9 note=69 velocity=0 time=0
EXTRACT: note_on channel=9 note=42 velocity=0 time=0
EXTRACT: note_on channel=9 note=44 velocity=0 time=0.05158725000000001
EXTRACT: note_on channel=6 note=66 velocity=0 time=0.009920625
EXTRACT: note_on channel=6 note=63 velocity=0 time=0
EXTRACT: note_on channel=6 note=59 velocity=0 time=0
EXTRACT: note_on channel=10 note=63 velocity=0 time=0.0079365
EXTRACT: note_on channel=10 note=51 velocity=0 time=0.027777750000000004
EXTRACT: note_on channel=9 note=62 velocity=64 time=0.01984125
EXTRACT: note_on channel=9 note=62 velocity=0 time=0.001984125
EXTRACT: note_on channel=10 note=54 velocity=0 time=0.001984125
EXTRACT: note_on channel=9 note=44 velocity=59 time=0.015873
EXTRACT: note_on channel=10 note=66 velocity=0 time=0.001984125
EXTRACT: note_on channel=9 note=42 velocity=66 time=0
EXTRACT: note_on channel=9 note=69 velocity=69 time=0
EXTRACT: note_on channel=9 note=69 velocity=0 time=0.001984125
EXTRACT: note_on channel=9 note=42 velocity=0 time=0
EXTRACT: note_on channel=10 note=59 velocity=0 time=0.001984125
EXTRACT: note_on channel=9 note=44 velocity=0 time=0.04761900000000001
EXTRACT: note_on channel=1 note=35 velocity=0 time=0.041666625000000006
EXTRACT: note_on channel=9 note=36 velocity=101 time=0.00396825
EXTRACT: note_on channel=9 note=44 velocity=88 time=0
EXTRACT: note_on channel=1 note=37 velocity=93 time=0
EXTRACT: note_on channel=10 note=52 velocity=80 time=0
EXTRACT: note_on channel=10 note=56 velocity=75 time=0
EXTRACT: note_on channel=10 note=61 velocity=29 time=0
EXTRACT: note_on channel=10 note=64 velocity=52 time=0
EXTRACT: note_on channel=10 note=73 velocity=48 time=0
EXTRACT: note_on channel=5 note=56 velocity=82 time=0
EXTRACT: note_on channel=5 note=61 velocity=75 time=0
EXTRACT: note_on channel=5 note=64 velocity=80 time=0
EXTRACT: note_on channel=6 note=56 velocity=60 time=0
EXTRACT: note_on channel=6 note=61 velocity=53 time=0
EXTRACT: note_on channel=6 note=64 velocity=58 time=0
EXTRACT: note_on channel=9 note=36 velocity=126 time=0
EXTRACT: note_on channel=9 note=35 velocity=117 time=0
EXTRACT: note_on channel=9 note=44 velocity=81 time=0
EXTRACT: note_on channel=9 note=60 velocity=69 time=0
EXTRACT: note_on channel=9 note=60 velocity=0 time=0.001984125
EXTRACT: note_on channel=9 note=36 velocity=0 time=0
EXTRACT: note_on channel=9 note=35 velocity=0 time=0
EXTRACT: note_on channel=9 note=44 velocity=0 time=0
EXTRACT: note_on channel=10 note=75 velocity=0 time=0.029761875000000004
EXTRACT: note_on channel=5 note=64 velocity=0 time=0.037698375000000006
EXTRACT: note_on channel=5 note=61 velocity=0 time=0
EXTRACT: note_on channel=9 note=44 velocity=0 time=0.00396825
EXTRACT: note_on channel=5 note=56 velocity=0 time=0.005952375000000001
EXTRACT: note_on channel=9 note=69 velocity=93 time=0.061507875000000004
EXTRACT: note_on channel=9 note=69 velocity=0 time=0.001984125
EXTRACT: note_on channel=9 note=36 velocity=0 time=0.015873
EXTRACT: note_on channel=6 note=64 velocity=0 time=0.013888875000000002
EXTRACT: note_on channel=6 note=61 velocity=0 time=0
EXTRACT: note_on channel=6 note=56 velocity=0 time=0
EXTRACT: note_on channel=4 note=66 velocity=0 time=0.025793625000000004
EXTRACT: note_on channel=1 note=37 velocity=0 time=0.03571425
EXTRACT: note_on channel=9 note=44 velocity=52 time=0.00396825
EXTRACT: note_on channel=1 note=32 velocity=79 time=0
EXTRACT: note_on channel=4 note=64 velocity=105 time=0
EXTRACT: note_on channel=9 note=42 velocity=73 time=0
EXTRACT: note_on channel=9 note=62 velocity=59 time=0
EXTRACT: note_on channel=9 note=70 velocity=105 time=0
EXTRACT: note_on channel=9 note=70 velocity=0 time=0.001984125
EXTRACT: note_on channel=9 note=62 velocity=0 time=0
EXTRACT: note_on channel=9 note=42 velocity=0 time=0
EXTRACT: note_on channel=9 note=44 velocity=0 time=0.041666625000000006
EXTRACT: note_on channel=9 note=60 velocity=63 time=0.07539675000000001
EXTRACT: note_on channel=9 note=60 velocity=0 time=0.001984125
EXTRACT: note_on channel=5 note=56 velocity=81 time=0.0079365
EXTRACT: note_on channel=5 note=61 velocity=71 time=0
EXTRACT: note_on channel=5 note=64 velocity=73 time=0
EXTRACT: note_on channel=6 note=56 velocity=59 time=0
EXTRACT: note_on channel=6 note=61 velocity=49 time=0
EXTRACT: note_on channel=6 note=64 velocity=51 time=0
EXTRACT: note_on channel=9 note=44 velocity=57 time=0.009920625
EXTRACT: note_on channel=9 note=42 velocity=66 time=0.001984125
EXTRACT: note_on channel=9 note=69 velocity=61 time=0
EXTRACT: note_on channel=9 note=69 velocity=0 time=0.001984125
EXTRACT: note_on channel=9 note=42 velocity=0 time=0
EXTRACT: note_on channel=5 note=64 velocity=0 time=0.04761900000000001
EXTRACT: note_on channel=5 note=61 velocity=0 time=0.001984125
EXTRACT: note_on channel=9 note=44 velocity=0 time=0.009920625
EXTRACT: note_on channel=5 note=56 velocity=0 time=0.01984125
EXTRACT: note_on channel=1 note=32 velocity=0 time=0.011904750000000002
EXTRACT: note_on channel=9 note=28 velocity=69 time=0.00396825
EXTRACT: note_on channel=9 note=36 velocity=101 time=0
EXTRACT: note_on channel=9 note=39 velocity=83 time=0
EXTRACT: note_on channel=9 note=42 velocity=78 time=0
EXTRACT: note_on channel=1 note=35 velocity=75 time=0
EXTRACT: note_on channel=9 note=40 velocity=117 time=0
EXTRACT: note_on channel=9 note=36 velocity=126 time=0
EXTRACT: note_on channel=9 note=35 velocity=117 time=0
EXTRACT: note_on channel=9 note=39 velocity=121 time=0
EXTRACT: note_on channel=9 note=44 velocity=81 time=0
EXTRACT: note_on channel=9 note=69 velocity=78 time=0
EXTRACT: note_on channel=9 note=69 velocity=0 time=0.001984125
EXTRACT: note_on channel=9 note=36 velocity=0 time=0
EXTRACT: note_on channel=9 note=35 velocity=0 time=0
EXTRACT: note_on channel=9 note=40 velocity=0 time=0
EXTRACT: note_on channel=9 note=44 velocity=0 time=0
EXTRACT: note_on channel=9 note=39 velocity=0 time=0
EXTRACT: note_on channel=6 note=64 velocity=0 time=0.061507875000000004
EXTRACT: note_on channel=6 note=61 velocity=0 time=0
EXTRACT: note_on channel=6 note=56 velocity=0 time=0
EXTRACT: note_on channel=9 note=39 velocity=0 time=0.009920625
EXTRACT: note_on channel=9 note=28 velocity=0 time=0.005952375000000001
EXTRACT: note_on channel=9 note=61 velocity=73 time=0.0396825
EXTRACT: note_on channel=9 note=61 velocity=0 time=0.001984125
EXTRACT: note_on channel=9 note=42 velocity=0 time=0.0079365
EXTRACT: note_on channel=9 note=36 velocity=0 time=0.015873
EXTRACT: note_on channel=1 note=35 velocity=0 time=0.08928562500000001
EXTRACT: note_on channel=9 note=44 velocity=61 time=0.00396825
EXTRACT: note_on channel=1 note=37 velocity=90 time=0
EXTRACT: note_on channel=5 note=56 velocity=82 time=0
EXTRACT: note_on channel=5 note=61 velocity=70 time=0
EXTRACT: note_on channel=5 note=64 velocity=76 time=0
EXTRACT: note_on channel=6 note=56 velocity=60 time=0
EXTRACT: note_on channel=6 note=61 velocity=48 time=0
EXTRACT: note_on channel=6 note=64 velocity=54 time=0
EXTRACT: note_on channel=9 note=42 velocity=73 time=0
EXTRACT: note_on channel=9 note=60 velocity=66 time=0
EXTRACT: note_on channel=9 note=60 velocity=0 time=0.001984125
EXTRACT: note_on channel=9 note=42 velocity=0 time=0
EXTRACT: note_on channel=9 note=70 velocity=105 time=0
EXTRACT: note_on channel=9 note=70 velocity=0 time=0.001984125
EXTRACT: note_on channel=9 note=44 velocity=0 time=0.04761900000000001
EXTRACT: note_on channel=5 note=61 velocity=0 time=0.013888875000000002
EXTRACT: note_on channel=5 note=64 velocity=0 time=0.005952375000000001
EXTRACT: note_on channel=5 note=56 velocity=0 time=0.0079365
EXTRACT: note_on channel=9 note=62 velocity=69 time=0.0396825
EXTRACT: note_on channel=9 note=62 velocity=0 time=0.001984125
EXTRACT: note_on channel=9 note=44 velocity=62 time=0.017857125
EXTRACT: note_on channel=9 note=42 velocity=66 time=0.001984125
EXTRACT: note_on channel=9 note=42 velocity=0 time=0.001984125
EXTRACT: note_on channel=6 note=64 velocity=0 time=0.029761875000000004
EXTRACT: note_on channel=6 note=61 velocity=0 time=0
EXTRACT: note_on channel=6 note=56 velocity=0 time=0
EXTRACT: note_on channel=9 note=44 velocity=0 time=0.027777750000000004
EXTRACT: note_on channel=4 note=64 velocity=0 time=0.031746
EXTRACT: note_on channel=9 note=36 velocity=101 time=0.005952375000000001
EXTRACT: note_on channel=9 note=44 velocity=87 time=0
EXTRACT: note_on channel=9 note=36 velocity=126 time=0
EXTRACT: note_on channel=9 note=35 velocity=117 time=0
EXTRACT: note_on channel=9 note=44 velocity=81 time=0
EXTRACT: note_on channel=9 note=82 velocity=69 time=0
EXTRACT: note_on channel=9 note=56 velocity=87 time=0
EXTRACT: note_on channel=9 note=60 velocity=63 time=0
EXTRACT: note_on channel=1 note=37 velocity=0 time=0.001984125
EXTRACT: note_on channel=9 note=60 velocity=0 time=0
EXTRACT: note_on channel=9 note=35 velocity=0 time=0
EXTRACT: note_on channel=9 note=44 velocity=0 time=0
EXTRACT: note_on channel=9 note=36 velocity=0 time=0
EXTRACT: note_on channel=9 note=56 velocity=0 time=0
EXTRACT: note_on channel=9 note=82 velocity=0 time=0
EXTRACT: note_on channel=9 note=44 velocity=0 time=0.079365
EXTRACT: note_on channel=9 note=82 velocity=43 time=0.05952375000000001
EXTRACT: note_on channel=9 note=82 velocity=0 time=0.001984125
EXTRACT: note_on channel=9 note=36 velocity=0 time=0.0079365
EXTRACT: note_on channel=9 note=70 velocity=105 time=0.079365
EXTRACT: note_on channel=9 note=70 velocity=0 time=0.001984125
EXTRACT: note_on channel=9 note=44 velocity=61 time=0.005952375000000001
EXTRACT: note_on channel=1 note=37 velocity=92 time=0
EXTRACT: note_on channel=3 note=68 velocity=93 time=0
EXTRACT: note_on channel=5 note=56 velocity=83 time=0
EXTRACT: note_on channel=5 note=61 velocity=72 time=0
EXTRACT: note_on channel=5 note=64 velocity=76 time=0
EXTRACT: note_on channel=6 note=56 velocity=61 time=0
EXTRACT: note_on channel=6 note=61 velocity=50 time=0
EXTRACT: note_on channel=6 note=64 velocity=54 time=0
EXTRACT: note_on channel=9 note=42 velocity=73 time=0
EXTRACT: note_on channel=9 note=82 velocity=48 time=0
EXTRACT: note_on channel=9 note=82 velocity=0 time=0.001984125
EXTRACT: note_on channel=9 note=42 velocity=0 time=0
EXTRACT: note_on channel=9 note=44 velocity=0 time=0.04761900000000001
EXTRACT: note_on channel=5 note=64 velocity=0 time=0.021825375
EXTRACT: note_on channel=5 note=61 velocity=0 time=0.00396825
EXTRACT: note_on channel=5 note=56 velocity=0 time=0.015873
EXTRACT: note_on channel=9 note=56 velocity=87 time=0.027777750000000004
EXTRACT: note_on channel=9 note=56 velocity=0 time=0.001984125
EXTRACT: note_on channel=9 note=44 velocity=65 time=0.017857125
EXTRACT: note_on channel=9 note=42 velocity=66 time=0.001984125
EXTRACT: note_on channel=9 note=82 velocity=40 time=0
EXTRACT: note_on channel=9 note=82 velocity=0 time=0.001984125
EXTRACT: note_on channel=9 note=42 velocity=0 time=0
EXTRACT: note_on channel=6 note=64 velocity=0 time=0.029761875000000004
EXTRACT: note_on channel=6 note=61 velocity=0 time=0
EXTRACT: note_on channel=6 note=56 velocity=0 time=0
EXTRACT: note_on channel=9 note=44 velocity=0 time=0.031746
EXTRACT: note_on channel=1 note=37 velocity=0 time=0.009920625
EXTRACT: note_on channel=3 note=68 velocity=0 time=0.017857125
EXTRACT: note_on channel=9 note=28 velocity=75 time=0.005952375000000001
EXTRACT: note_on channel=9 note=36 velocity=101 time=0
EXTRACT: note_on channel=9 note=39 velocity=80 time=0
EXTRACT: note_on channel=9 note=44 velocity=94 time=0
EXTRACT: note_on channel=1 note=32 velocity=81 time=0
EXTRACT: note_on channel=3 note=69 velocity=89 time=0
EXTRACT: note_on channel=9 note=39 velocity=121 time=0
EXTRACT: note_on channel=9 note=40 velocity=117 time=0
EXTRACT: note_on channel=9 note=36 velocity=126 time=0
EXTRACT: note_on channel=9 note=35 velocity=117 time=0
EXTRACT: note_on channel=9 note=44 velocity=81 time=0
EXTRACT: note_on channel=9 note=82 velocity=69 time=0
EXTRACT: note_on channel=9 note=82 velocity=0 time=0.001984125
EXTRACT: note_on channel=9 note=40 velocity=0 time=0
EXTRACT: note_on channel=9 note=36 velocity=0 time=0
EXTRACT: note_on channel=9 note=39 velocity=0 time=0
EXTRACT: note_on channel=9 note=44 velocity=0 time=0
EXTRACT: note_on channel=9 note=35 velocity=0 time=0
EXTRACT: note_on channel=9 note=44 velocity=0 time=0.06746025000000001
EXTRACT: note_on channel=9 note=39 velocity=0 time=0.00396825
EXTRACT: note_on channel=9 note=36 velocity=0 time=0
EXTRACT: note_on channel=9 note=28 velocity=0 time=0.0079365
EXTRACT: note_on channel=10 note=52 velocity=0 time=0.011904750000000002
EXTRACT: note_on channel=10 note=56 velocity=0 time=0.017857125
EXTRACT: note_on channel=5 note=56 velocity=87 time=0.017857125
EXTRACT: note_on channel=5 note=61 velocity=75 time=0
EXTRACT: note_on channel=5 note=64 velocity=81 time=0
EXTRACT: note_on channel=6 note=56 velocity=65 time=0
EXTRACT: note_on channel=6 note=61 velocity=53 time=0
EXTRACT: note_on channel=6 note=64 velocity=59 time=0
EXTRACT: note_on channel=3 note=69 velocity=0 time=0.05555550000000001
EXTRACT: note_on channel=5 note=61 velocity=0 time=0.009920625
EXTRACT: note_on channel=5 note=64 velocity=0 time=0.005952375000000001
EXTRACT: note_on channel=5 note=56 velocity=0 time=0.011904750000000002
EXTRACT: note_on channel=9 note=70 velocity=105 time=0.01984125
EXTRACT: note_on channel=1 note=32 velocity=0 time=0.001984125
EXTRACT: note_on channel=10 note=61 velocity=0 time=0
EXTRACT: note_on channel=9 note=70 velocity=0 time=0
EXTRACT: note_on channel=9 note=36 velocity=88 time=0.00396825
EXTRACT: note_on channel=9 note=44 velocity=63 time=0
EXTRACT: note_on channel=1 note=35 velocity=78 time=0
EXTRACT: note_on channel=3 note=71 velocity=91 time=0
EXTRACT: note_on channel=9 note=42 velocity=73 time=0
EXTRACT: note_on channel=9 note=69 velocity=78 time=0
EXTRACT: note_on channel=9 note=56 velocity=87 time=0
EXTRACT: note_on channel=9 note=56 velocity=0 time=0.001984125
EXTRACT: note_on channel=9 note=69 velocity=0 time=0
EXTRACT: note_on channel=9 note=42 velocity=0 time=0
EXTRACT: note_on channel=10 note=64 velocity=0 time=0.03373012500000001
EXTRACT: note_on channel=9 note=44 velocity=0 time=0.009920625
EXTRACT: note_on channel=6 note=64 velocity=0 time=0.017857125
EXTRACT: note_on channel=6 note=61 velocity=0 time=0
EXTRACT: note_on channel=6 note=56 velocity=0 time=0
EXTRACT: note_on channel=9 note=36 velocity=0 time=0.021825375
EXTRACT: note_on channel=9 note=44 velocity=68 time=0.053571375000000004
EXTRACT: note_on channel=9 note=42 velocity=66 time=0.001984125
EXTRACT: note_on channel=9 note=69 velocity=73 time=0
EXTRACT: note_on channel=9 note=69 velocity=0 time=0.001984125
EXTRACT: note_on channel=9 note=42 velocity=0 time=0
EXTRACT: note_on channel=10 note=73 velocity=0 time=0.005952375000000001
EXTRACT: note_on channel=9 note=44 velocity=0 time=0.053571375000000004
EXTRACT: note_on channel=1 note=35 velocity=0 time=0.031746
EXTRACT: note_on channel=9 note=36 velocity=118 time=0.00396825
EXTRACT: note_on channel=9 note=44 velocity=101 time=0
EXTRACT: note_on channel=9 note=52 velocity=95 time=0
EXTRACT: note_on channel=9 note=57 velocity=76 time=0
EXTRACT: note_on channel=1 note=37 velocity=94 time=0
EXTRACT: note_on channel=10 note=61 velocity=58 time=0
EXTRACT: note_on channel=10 note=64 velocity=63 time=0
EXTRACT: note_on channel=10 note=68 velocity=69 time=0
EXTRACT: note_on channel=10 note=76 velocity=69 time=0
EXTRACT: note_on channel=10 note=80 velocity=56 time=0
EXTRACT: note_on channel=6 note=56 velocity=65 time=0
EXTRACT: note_on channel=6 note=61 velocity=52 time=0
EXTRACT: note_on channel=6 note=64 velocity=55 time=0
EXTRACT: note_on channel=7 note=56 velocity=96 time=0
EXTRACT: note_on channel=7 note=61 velocity=79 time=0
EXTRACT: note_on channel=9 note=36 velocity=126 time=0
EXTRACT: note_on channel=9 note=35 velocity=117 time=0
EXTRACT: note_on channel=9 note=35 velocity=0 time=0.001984125
EXTRACT: note_on channel=9 note=36 velocity=0 time=0
EXTRACT: note_on channel=9 note=52 velocity=0 time=0.05158725000000001
EXTRACT: note_on channel=7 note=56 velocity=0 time=0.015873
EXTRACT: note_on channel=9 note=36 velocity=0 time=0.001984125
EXTRACT: note_on channel=7 note=61 velocity=0 time=0.00396825
EXTRACT: note_on channel=9 note=44 velocity=0 time=0.013888875000000002
EXTRACT: note_on channel=9 note=57 velocity=0 time=0.005952375000000001
EXTRACT: note_on channel=9 note=69 velocity=84 time=0.045634875000000005
EXTRACT: note_on channel=9 note=69 velocity=0 time=0.001984125
EXTRACT: note_on channel=6 note=64 velocity=0 time=0.029761875000000004
EXTRACT: note_on channel=6 note=61 velocity=0 time=0
EXTRACT: note_on channel=6 note=56 velocity=0 time=0
EXTRACT: note_on channel=1 note=37 velocity=0 time=0.061507875000000004
EXTRACT: note_on channel=9 note=70 velocity=105 time=0
EXTRACT: note_on channel=9 note=44 velocity=53 time=0.00396825
EXTRACT: note_on channel=1 note=32 velocity=78 time=0
EXTRACT: note_on channel=9 note=70 velocity=0 time=0
EXTRACT: note_on channel=9 note=42 velocity=73 time=0
EXTRACT: note_on channel=9 note=62 velocity=79 time=0
EXTRACT: note_on channel=9 note=62 velocity=0 time=0.001984125
EXTRACT: note_on channel=9 note=42 velocity=0 time=0
EXTRACT: note_on channel=9 note=44 velocity=0 time=0.037698375000000006
EXTRACT: note_on channel=7 note=56 velocity=88 time=0.079365
EXTRACT: note_on channel=7 note=61 velocity=80 time=0
EXTRACT: note_on channel=9 note=61 velocity=69 time=0
EXTRACT: note_on channel=9 note=61 velocity=0 time=0.001984125
EXTRACT: note_on channel=6 note=56 velocity=63 time=0.0079365
EXTRACT: note_on channel=6 note=61 velocity=52 time=0
EXTRACT: note_on channel=6 note=64 velocity=55 time=0
EXTRACT: note_on channel=9 note=44 velocity=64 time=0.009920625
EXTRACT: note_on channel=9 note=42 velocity=66 time=0.001984125
EXTRACT: note_on channel=9 note=69 velocity=68 time=0
EXTRACT: note_on channel=9 note=69 velocity=0 time=0.001984125
EXTRACT: note_on channel=9 note=42 velocity=0 time=0
EXTRACT: note_on channel=9 note=44 velocity=0 time=0.06547612500000001
EXTRACT: note_on channel=7 note=56 velocity=0 time=0.00396825
EXTRACT: note_on channel=1 note=32 velocity=0 time=0.021825375
EXTRACT: note_on channel=9 note=28 velocity=69 time=0.00396825
EXTRACT: note_on channel=9 note=36 velocity=110 time=0
EXTRACT: note_on channel=9 note=39 velocity=83 time=0
EXTRACT: note_on channel=9 note=42 velocity=85 time=0
EXTRACT: note_on channel=1 note=35 velocity=74 time=0
EXTRACT: note_on channel=9 note=39 velocity=121 time=0
EXTRACT: note_on channel=9 note=36 velocity=126 time=0
EXTRACT: note_on channel=9 note=35 velocity=117 time=0
EXTRACT: note_on channel=9 note=40 velocity=117 time=0
EXTRACT: note_on channel=9 note=44 velocity=81 time=0
EXTRACT: note_on channel=9 note=44 velocity=0 time=0.001984125
EXTRACT: note_on channel=9 note=35 velocity=0 time=0
EXTRACT: note_on channel=9 note=39 velocity=0 time=0
EXTRACT: note_on channel=9 note=36 velocity=0 time=0
EXTRACT: note_on channel=9 note=40 velocity=0 time=0
EXTRACT: note_on channel=7 note=61 velocity=0 time=0.04761900000000001
EXTRACT: note_on channel=6 note=64 velocity=0 time=0.013888875000000002
EXTRACT: note_on channel=6 note=61 velocity=0 time=0
EXTRACT: note_on channel=6 note=56 velocity=0 time=0
EXTRACT: note_on channel=9 note=39 velocity=0 time=0.009920625
EXTRACT: note_on channel=9 note=28 velocity=0 time=0.005952375000000001
EXTRACT: note_on channel=9 note=42 velocity=0 time=0.009920625
EXTRACT: note_on channel=9 note=36 velocity=0 time=0.001984125
EXTRACT: note_on channel=7 note=56 velocity=77 time=0.027777750000000004
EXTRACT: note_on channel=7 note=59 velocity=58 time=0
EXTRACT: note_on channel=9 note=62 velocity=73 time=0
EXTRACT: note_on channel=9 note=62 velocity=0 time=0.001984125
EXTRACT: note_on channel=7 note=59 velocity=0 time=0.029761875000000004
EXTRACT: note_on channel=7 note=56 velocity=0 time=0.023809500000000004
EXTRACT: note_on channel=1 note=35 velocity=0 time=0.025793625000000004
EXTRACT: note_on channel=9 note=44 velocity=46 time=0.037698375000000006
EXTRACT: note_on channel=1 note=37 velocity=92 time=0
EXTRACT: note_on channel=6 note=56 velocity=68 time=0
EXTRACT: note_on channel=6 note=61 velocity=56 time=0
EXTRACT: note_on channel=6 note=64 velocity=61 time=0
EXTRACT: note_on channel=7 note=56 velocity=88 time=0
EXTRACT: note_on channel=7 note=61 velocity=78 time=0
EXTRACT: note_on channel=9 note=42 velocity=73 time=0
EXTRACT: note_on channel=9 note=61 velocity=66 time=0
EXTRACT: note_on channel=9 note=61 velocity=0 time=0.001984125
EXTRACT: note_on channel=9 note=42 velocity=0 time=0
EXTRACT: note_on channel=9 note=70 velocity=105 time=0.001984125
EXTRACT: note_on channel=9 note=70 velocity=0 time=0.001984125
EXTRACT: note_on channel=3 note=71 velocity=0 time=0.0079365
EXTRACT: note_on channel=9 note=44 velocity=0 time=0.037698375000000006
EXTRACT: note_on channel=7 note=56 velocity=0 time=0.017857125
EXTRACT: note_on channel=7 note=61 velocity=0 time=0.00396825
EXTRACT: note_on channel=9 note=44 velocity=64 time=0.06547612500000001
EXTRACT: note_on channel=9 note=42 velocity=66 time=0.001984125
EXTRACT: note_on channel=9 note=82 velocity=48 time=0
EXTRACT: note_on channel=9 note=82 velocity=0 time=0.001984125
EXTRACT: note_on channel=9 note=42 velocity=0 time=0
EXTRACT: note_on channel=10 note=64 velocity=0 time=0.017857125
EXTRACT: note_on channel=10 note=76 velocity=0 time=0.00396825
EXTRACT: note_on channel=6 note=64 velocity=0 time=0.0079365
EXTRACT: note_on channel=6 note=61 velocity=0 time=0
EXTRACT: note_on channel=6 note=56 velocity=0 time=0
EXTRACT: note_on channel=10 note=61 velocity=0 time=0.005952375000000001
EXTRACT: note_on channel=10 note=68 velocity=0 time=0.013888875000000002
EXTRACT: note_on channel=9 note=44 velocity=0 time=0.017857125
EXTRACT: note_on channel=10 note=80 velocity=0 time=0.0079365
EXTRACT: note_on channel=1 note=37 velocity=0 time=0.015873
EXTRACT: note_on channel=9 note=36 velocity=105 time=0.00396825
EXTRACT: note_on channel=9 note=44 velocity=76 time=0
EXTRACT: note_on channel=1 note=30 velocity=85 time=0
EXTRACT: note_on channel=10 note=61 velocity=69 time=0
EXTRACT: note_on channel=10 note=66 velocity=60 time=0
EXTRACT: note_on channel=10 note=69 velocity=74 time=0
EXTRACT: note_on channel=10 note=78 velocity=56 time=0
EXTRACT: note_on channel=10 note=81 velocity=63 time=0
EXTRACT: note_on channel=9 note=36 velocity=126 time=0
EXTRACT: note_on channel=9 note=35 velocity=117 time=0
EXTRACT: note_on channel=9 note=44 velocity=81 time=0
EXTRACT: note_on channel=9 note=82 velocity=55 time=0
EXTRACT: note_on channel=9 note=56 velocity=80 time=0
EXTRACT: note_on channel=9 note=56 velocity=0 time=0.001984125
EXTRACT: note_on channel=9 note=44 velocity=0 time=0
EXTRACT: note_on channel=9 note=36 velocity=0 time=0
EXTRACT: note_on channel=9 note=35 velocity=0 time=0
EXTRACT: note_on channel=9 note=82 velocity=0 time=0
EXTRACT: note_on channel=9 note=44 velocity=0 time=0.07341262500000001
EXTRACT: note_on channel=9 note=36 velocity=0 time=0.00396825
EXTRACT: note_on channel=7 note=57 velocity=84 time=0.0396825
EXTRACT: note_on channel=7 note=61 velocity=77 time=0
EXTRACT: note_on channel=9 note=82 velocity=63 time=0.021825375
EXTRACT: note_on channel=9 note=82 velocity=0 time=0.001984125
EXTRACT: note_on channel=1 note=30 velocity=0 time=0.015873
EXTRACT: note_on channel=7 note=57 velocity=0 time=0.013888875000000002
EXTRACT: note_on channel=7 note=61 velocity=0 time=0.005952375000000001
EXTRACT: note_on channel=9 note=44 velocity=64 time=0.05952375000000001
EXTRACT: note_on channel=1 note=30 velocity=82 time=0
EXTRACT: note_on channel=3 note=73 velocity=86 time=0
EXTRACT: note_on channel=6 note=57 velocity=55 time=0
EXTRACT: note_on channel=6 note=61 velocity=61 time=0
EXTRACT: note_on channel=6 note=66 velocity=63 time=0
EXTRACT: note_on channel=7 note=57 velocity=83 time=0
EXTRACT: note_on channel=7 note=61 velocity=77 time=0
EXTRACT: note_on channel=9 note=42 velocity=73 time=0
EXTRACT: note_on channel=9 note=82 velocity=59 time=0
EXTRACT: note_on channel=9 note=63 velocity=60 time=0
EXTRACT: note_on channel=9 note=63 velocity=0 time=0.001984125
EXTRACT: note_on channel=9 note=82 velocity=0 time=0
EXTRACT: note_on channel=9 note=42 velocity=0 time=0
EXTRACT: note_on channel=9 note=70 velocity=105 time=0.001984125
EXTRACT: note_on channel=9 note=70 velocity=0 time=0.001984125
EXTRACT: note_on channel=9 note=44 velocity=0 time=0.045634875000000005
EXTRACT: note_on channel=7 note=61 velocity=0 time=0.021825375
EXTRACT: note_on channel=7 note=57 velocity=0 time=0.005952375000000001
EXTRACT: note_on channel=9 note=56 velocity=89 time=0.0396825
EXTRACT: note_on channel=9 note=56 velocity=0 time=0.001984125
EXTRACT: note_on channel=9 note=44 velocity=67 time=0.017857125
EXTRACT: note_on channel=9 note=42 velocity=66 time=0.001984125
EXTRACT: note_on channel=9 note=82 velocity=45 time=0
EXTRACT: note_on channel=9 note=82 velocity=0 time=0.001984125
EXTRACT: note_on channel=9 note=42 velocity=0 time=0
EXTRACT: note_on channel=6 note=66 velocity=0 time=0.029761875000000004
EXTRACT: note_on channel=6 note=61 velocity=0 time=0
EXTRACT: note_on channel=6 note=57 velocity=0 time=0
EXTRACT: note_on channel=9 note=44 velocity=0 time=0.031746
EXTRACT: note_on channel=1 note=30 velocity=0 time=0.027777750000000004
EXTRACT: note_on channel=3 note=73 velocity=0 time=0.001984125
EXTRACT: note_on channel=9 note=28 velocity=75 time=0.00396825
EXTRACT: note_on channel=9 note=36 velocity=101 time=0
EXTRACT: note_on channel=9 note=39 velocity=80 time=0
EXTRACT: note_on channel=9 note=44 velocity=82 time=0
EXTRACT: note_on channel=3 note=69 velocity=90 time=0
EXTRACT: note_on channel=7 note=57 velocity=79 time=0
EXTRACT: note_on channel=7 note=61 velocity=68 time=0
EXTRACT: note_on channel=9 note=36 velocity=126 time=0
EXTRACT: note_on channel=9 note=35 velocity=117 time=0
EXTRACT: note_on channel=9 note=39 velocity=121 time=0
EXTRACT: note_on channel=9 note=40 velocity=117 time=0
EXTRACT: note_on channel=9 note=44 velocity=81 time=0
EXTRACT: note_on channel=9 note=82 velocity=60 time=0
EXTRACT: note_on channel=9 note=82 velocity=0 time=0.001984125
EXTRACT: note_on channel=9 note=35 velocity=0 time=0
EXTRACT: note_on channel=9 note=39 velocity=0 time=0
EXTRACT: note_on channel=9 note=36 velocity=0 time=0
EXTRACT: note_on channel=9 note=44 velocity=0 time=0
EXTRACT: note_on channel=9 note=40 velocity=0 time=0
EXTRACT: note_on channel=7 note=57 velocity=0 time=0.049603125000000005
EXTRACT: note_on channel=9 note=39 velocity=0 time=0.021825375
EXTRACT: note_on channel=9 note=44 velocity=0 time=0.005952375000000001
EXTRACT: note_on channel=9 note=28 velocity=0 time=0.001984125
EXTRACT: note_on channel=9 note=36 velocity=0 time=0.009920625
EXTRACT: note_on channel=7 note=57 velocity=72 time=0.027777750000000004
EXTRACT: note_on channel=7 note=59 velocity=56 time=0
EXTRACT: note_on channel=6 note=57 velocity=57 time=0.009920625
EXTRACT: note_on channel=6 note=61 velocity=58 time=0
EXTRACT: note_on channel=6 note=66 velocity=57 time=0
EXTRACT: note_on channel=7 note=61 velocity=0 time=0.023809500000000004
EXTRACT: note_on channel=7 note=59 velocity=0 time=0.001984125
EXTRACT: note_on channel=7 note=57 velocity=0 time=0.025793625000000004
EXTRACT: note_on channel=3 note=69 velocity=0 time=0.0396825
EXTRACT: note_on channel=9 note=70 velocity=105 time=0.011904750000000002
EXTRACT: note_on channel=9 note=70 velocity=0 time=0.001984125
EXTRACT: note_on channel=9 note=44 velocity=67 time=0.00396825
EXTRACT: note_on channel=1 note=33 velocity=83 time=0
EXTRACT: note_on channel=3 note=71 velocity=92 time=0
EXTRACT: note_on channel=7 note=57 velocity=79 time=0
EXTRACT: note_on channel=7 note=61 velocity=77 time=0
EXTRACT: note_on channel=9 note=42 velocity=75 time=0
EXTRACT: note_on channel=9 note=69 velocity=87 time=0
EXTRACT: note_on channel=9 note=56 velocity=87 time=0
EXTRACT: note_on channel=9 note=56 velocity=0 time=0.001984125
EXTRACT: note_on channel=9 note=69 velocity=0 time=0
EXTRACT: note_on channel=9 note=42 velocity=0 time=0
EXTRACT: note_on channel=9 note=44 velocity=0 time=0.049603125000000005
EXTRACT: note_on channel=7 note=57 velocity=0 time=0
EXTRACT: note_on channel=6 note=66 velocity=0 time=0.011904750000000002
EXTRACT: note_on channel=6 note=61 velocity=0 time=0
EXTRACT: note_on channel=6 note=57 velocity=0 time=0
EXTRACT: note_on channel=7 note=61 velocity=0 time=0
EXTRACT: note_on channel=10 note=66 velocity=0 time=0.027777750000000004
EXTRACT: note_on channel=10 note=69 velocity=0 time=0.009920625
EXTRACT: note_on channel=9 note=62 velocity=64 time=0.017857125
EXTRACT: note_on channel=9 note=62 velocity=0 time=0.001984125
EXTRACT: note_on channel=10 note=78 velocity=0 time=0.001984125
EXTRACT: note_on channel=10 note=81 velocity=0 time=0.001984125
EXTRACT: note_on channel=10 note=61 velocity=0 time=0
EXTRACT: note_on channel=9 note=44 velocity=66 time=0.013888875000000002
EXTRACT: note_on channel=9 note=42 velocity=66 time=0.001984125
EXTRACT: note_on channel=9 note=69 velocity=69 time=0
EXTRACT: note_on channel=9 note=69 velocity=0 time=0.001984125
EXTRACT: note_on channel=9 note=42 velocity=0 time=0
EXTRACT: note_on channel=9 note=44 velocity=0 time=0.05952375000000001
EXTRACT: note_on channel=1 note=33 velocity=0 time=0.005952375000000001
EXTRACT: note_on channel=9 note=36 velocity=101 time=0.029761875000000004
EXTRACT: note_on channel=9 note=44 velocity=88 time=0
EXTRACT: note_on channel=1 note=35 velocity=89 time=0
EXTRACT: note_on channel=10 note=59 velocity=74 time=0
EXTRACT: note_on channel=10 note=63 velocity=67 time=0
EXTRACT: note_on channel=10 note=66 velocity=67 time=0
EXTRACT: note_on channel=10 note=75 velocity=55 time=0
EXTRACT: note_on channel=10 note=78 velocity=52 time=0
EXTRACT: note_on channel=6 note=59 velocity=65 time=0
EXTRACT: note_on channel=6 note=63 velocity=62 time=0
EXTRACT: note_on channel=6 note=66 velocity=57 time=0
EXTRACT: note_on channel=7 note=59 velocity=84 time=0
EXTRACT: note_on channel=7 note=64 velocity=50 time=0
EXTRACT: note_on channel=9 note=36 velocity=126 time=0
EXTRACT: note_on channel=9 note=35 velocity=117 time=0
EXTRACT: note_on channel=9 note=44 velocity=81 time=0
EXTRACT: note_on channel=9 note=60 velocity=69 time=0
EXTRACT: note_on channel=9 note=60 velocity=0 time=0.001984125
EXTRACT: note_on channel=9 note=36 velocity=0 time=0
EXTRACT: note_on channel=9 note=35 velocity=0 time=0
EXTRACT: note_on channel=9 note=44 velocity=0 time=0
EXTRACT: note_on channel=7 note=64 velocity=0 time=0.029761875000000004
EXTRACT: note_on channel=9 note=44 velocity=0 time=0.04761900000000001
EXTRACT: note_on channel=7 note=59 velocity=0 time=0.013888875000000002
EXTRACT: note_on channel=9 note=69 velocity=93 time=0.04761900000000001
EXTRACT: note_on channel=9 note=36 velocity=0 time=0.001984125
EXTRACT: note_on channel=9 note=69 velocity=0 time=0
EXTRACT: note_on channel=6 note=66 velocity=0 time=0.029761875000000004
EXTRACT: note_on channel=6 note=63 velocity=0 time=0
EXTRACT: note_on channel=6 note=59 velocity=0 time=0
EXTRACT: note_on channel=1 note=35 velocity=0 time=0.005952375000000001
EXTRACT: note_on channel=3 note=71 velocity=0 time=0.021825375
EXTRACT: note_on channel=9 note=44 velocity=65 time=0.037698375000000006
EXTRACT: note_on channel=1 note=35 velocity=79 time=0
EXTRACT: note_on channel=3 note=73 velocity=85 time=0
EXTRACT: note_on channel=9 note=42 velocity=73 time=0
EXTRACT: note_on channel=9 note=62 velocity=59 time=0
EXTRACT: note_on channel=9 note=70 velocity=105 time=0
EXTRACT: note_on channel=9 note=70 velocity=0 time=0.001984125
EXTRACT: note_on channel=9 note=62 velocity=0 time=0
EXTRACT: note_on channel=9 note=42 velocity=0 time=0
EXTRACT: note_on channel=9 note=44 velocity=0 time=0.04761900000000001
EXTRACT: note_on channel=7 note=59 velocity=86 time=0.069444375
EXTRACT: note_on channel=7 note=63 velocity=81 time=0
EXTRACT: note_on channel=9 note=60 velocity=63 time=0
EXTRACT: note_on channel=9 note=60 velocity=0 time=0.001984125
EXTRACT: note_on channel=6 note=59 velocity=58 time=0.0079365
EXTRACT: note_on channel=6 note=63 velocity=63 time=0
EXTRACT: note_on channel=6 note=66 velocity=57 time=0
EXTRACT: note_on channel=9 note=44 velocity=62 time=0.009920625
EXTRACT: note_on channel=9 note=42 velocity=66 time=0.001984125
EXTRACT: note_on channel=9 note=69 velocity=61 time=0
EXTRACT: note_on channel=9 note=69 velocity=0 time=0.001984125
EXTRACT: note_on channel=9 note=42 velocity=0 time=0
EXTRACT: note_on channel=7 note=63 velocity=0 time=0.057539625000000004
EXTRACT: note_on channel=9 note=44 velocity=0 time=0.001984125
EXTRACT: note_on channel=7 note=59 velocity=0 time=0.001984125
EXTRACT: note_on channel=1 note=35 velocity=0 time=0.025793625000000004
EXTRACT: note_on channel=9 note=28 velocity=69 time=0.0079365
EXTRACT: note_on channel=9 note=36 velocity=103 time=0
EXTRACT: note_on channel=9 note=39 velocity=83 time=0
EXTRACT: note_on channel=9 note=42 velocity=89 time=0
EXTRACT: note_on channel=1 note=27 velocity=84 time=0
EXTRACT: note_on channel=9 note=40 velocity=117 time=0
EXTRACT: note_on channel=9 note=36 velocity=126 time=0
EXTRACT: note_on channel=9 note=35 velocity=117 time=0
EXTRACT: note_on channel=9 note=39 velocity=121 time=0
EXTRACT: note_on channel=9 note=44 velocity=81 time=0
EXTRACT: note_on channel=9 note=69 velocity=78 time=0
EXTRACT: note_on channel=9 note=69 velocity=0 time=0.001984125
EXTRACT: note_on channel=9 note=36 velocity=0 time=0
EXTRACT: note_on channel=9 note=35 velocity=0 time=0
EXTRACT: note_on channel=9 note=40 velocity=0 time=0
EXTRACT: note_on channel=9 note=44 velocity=0 time=0
EXTRACT: note_on channel=9 note=39 velocity=0 time=0
EXTRACT: note_on channel=6 note=66 velocity=0 time=0.061507875000000004
EXTRACT: note_on channel=6 note=63 velocity=0 time=0
EXTRACT: note_on channel=6 note=59 velocity=0 time=0
EXTRACT: note_on channel=9 note=39 velocity=0 time=0.009920625
EXTRACT: note_on channel=9 note=28 velocity=0 time=0.005952375000000001
EXTRACT: note_on channel=9 note=36 velocity=0 time=0.005952375000000001
EXTRACT: note_on channel=7 note=59 velocity=78 time=0.03373012500000001
EXTRACT: note_on channel=7 note=61 velocity=44 time=0
EXTRACT: note_on channel=9 note=61 velocity=73 time=0
EXTRACT: note_on channel=9 note=61 velocity=0 time=0.001984125
EXTRACT: note_on channel=9 note=42 velocity=0 time=0.001984125
EXTRACT: note_on channel=7 note=61 velocity=0 time=0.021825375
EXTRACT: note_on channel=3 note=73 velocity=0 time=0.009920625
EXTRACT: note_on channel=7 note=59 velocity=0 time=0.025793625000000004
EXTRACT: note_on channel=9 note=44 velocity=67 time=0.057539625000000004
EXTRACT: note_on channel=6 note=59 velocity=60 time=0
EXTRACT: note_on channel=6 note=63 velocity=67 time=0
EXTRACT: note_on channel=6 note=66 velocity=58 time=0
EXTRACT: note_on channel=7 note=59 velocity=82 time=0
EXTRACT: note_on channel=7 note=63 velocity=88 time=0
EXTRACT: note_on channel=9 note=42 velocity=73 time=0
EXTRACT: note_on channel=9 note=60 velocity=66 time=0
EXTRACT: note_on channel=9 note=60 velocity=0 time=0.001984125
EXTRACT: note_on channel=9 note=42 velocity=0 time=0
EXTRACT: note_on channel=9 note=70 velocity=105 time=0
EXTRACT: note_on channel=9 note=70 velocity=0 time=0.001984125
EXTRACT: note_on channel=9 note=44 velocity=0 time=0.049603125000000005
EXTRACT: note_on channel=7 note=63 velocity=0 time=0.011904750000000002
EXTRACT: note_on channel=10 note=63 velocity=0 time=0.00396825
EXTRACT: note_on channel=7 note=59 velocity=0 time=0.001984125
EXTRACT: note_on channel=10 note=59 velocity=0 time=0.009920625
EXTRACT: note_on channel=10 note=66 velocity=0 time=0
EXTRACT: note_on channel=9 note=62 velocity=69 time=0.037698375000000006
EXTRACT: note_on channel=9 note=62 velocity=0 time=0.001984125
EXTRACT: note_on channel=9 note=44 velocity=61 time=0.017857125
EXTRACT: note_on channel=9 note=42 velocity=66 time=0.001984125
EXTRACT: note_on channel=10 note=75 velocity=0 time=0.001984125
EXTRACT: note_on channel=10 note=78 velocity=0 time=0
EXTRACT: note_on channel=9 note=42 velocity=0 time=0
EXTRACT: note_on channel=6 note=66 velocity=0 time=0.029761875000000004
EXTRACT: note_on channel=6 note=63 velocity=0 time=0
EXTRACT: note_on channel=6 note=59 velocity=0 time=0
EXTRACT: note_on channel=1 note=27 velocity=0 time=0.011904750000000002
EXTRACT: note_on channel=9 note=36 velocity=95 time=0.053571375000000004
EXTRACT: note_on channel=1 note=28 velocity=87 time=0
EXTRACT: note_on channel=10 note=59 velocity=71 time=0
EXTRACT: note_on channel=10 note=64 velocity=70 time=0
EXTRACT: note_on channel=10 note=68 velocity=64 time=0
EXTRACT: note_on channel=10 note=76 velocity=59 time=0
EXTRACT: note_on channel=10 note=80 velocity=54 time=0
EXTRACT: note_on channel=9 note=36 velocity=126 time=0
EXTRACT: note_on channel=9 note=35 velocity=117 time=0
EXTRACT: note_on channel=9 note=44 velocity=81 time=0
EXTRACT: note_on channel=9 note=82 velocity=69 time=0
EXTRACT: note_on channel=9 note=56 velocity=87 time=0
EXTRACT: note_on channel=9 note=60 velocity=63 time=0
EXTRACT: note_on channel=9 note=60 velocity=0 time=0.001984125
EXTRACT: note_on channel=9 note=35 velocity=0 time=0
EXTRACT: note_on channel=9 note=44 velocity=0 time=0
EXTRACT: note_on channel=9 note=36 velocity=0 time=0
EXTRACT: note_on channel=9 note=56 velocity=0 time=0
EXTRACT: note_on channel=9 note=82 velocity=0 time=0
EXTRACT: note_on channel=9 note=44 velocity=0 time=0.041666625000000006
EXTRACT: note_on channel=9 note=36 velocity=0 time=0.05158725000000001
EXTRACT: note_on channel=7 note=59 velocity=79 time=0.023809500000000004
EXTRACT: note_on channel=7 note=64 velocity=85 time=0
EXTRACT: note_on channel=9 note=82 velocity=43 time=0.021825375
EXTRACT: note_on channel=9 note=82 velocity=0 time=0.001984125
EXTRACT: note_on channel=1 note=28 velocity=0 time=0.005952375000000001
EXTRACT: note_on channel=7 note=64 velocity=0 time=0.021825375
EXTRACT: note_on channel=7 note=59 velocity=0 time=0.011904750000000002
EXTRACT: note_on channel=9 note=70 velocity=105 time=0.04761900000000001
EXTRACT: note_on channel=9 note=70 velocity=0 time=0.001984125
EXTRACT: note_on channel=9 note=44 velocity=75 time=0.005952375000000001
EXTRACT: note_on channel=1 note=28 velocity=82 time=0
EXTRACT: note_on channel=3 note=68 velocity=87 time=0
EXTRACT: note_on channel=6 note=56 velocity=64 time=0
EXTRACT: note_on channel=6 note=59 velocity=44 time=0
EXTRACT: note_on channel=6 note=64 velocity=68 time=0
EXTRACT: note_on channel=7 note=59 velocity=78 time=0
EXTRACT: note_on channel=7 note=64 velocity=83 time=0
EXTRACT: note_on channel=9 note=42 velocity=73 time=0
EXTRACT: note_on channel=9 note=82 velocity=48 time=0
EXTRACT: note_on channel=9 note=82 velocity=0 time=0.001984125
EXTRACT: note_on channel=9 note=42 velocity=0 time=0
EXTRACT: note_on channel=7 note=64 velocity=0 time=0.04761900000000001
EXTRACT: note_on channel=9 note=44 velocity=0 time=0.00396825
EXTRACT: note_on channel=7 note=59 velocity=0 time=0.001984125
EXTRACT: note_on channel=9 note=56 velocity=87 time=0.063492
EXTRACT: note_on channel=9 note=56 velocity=0 time=0.001984125
EXTRACT: note_on channel=9 note=44 velocity=72 time=0.017857125
EXTRACT: note_on channel=9 note=42 velocity=66 time=0.001984125
EXTRACT: note_on channel=9 note=82 velocity=40 time=0
EXTRACT: note_on channel=9 note=82 velocity=0 time=0.001984125
EXTRACT: note_on channel=9 note=42 velocity=0 time=0
EXTRACT: note_on channel=6 note=64 velocity=0 time=0.029761875000000004
EXTRACT: note_on channel=6 note=59 velocity=0 time=0
EXTRACT: note_on channel=6 note=56 velocity=0 time=0
EXTRACT: note_on channel=9 note=44 velocity=0 time=0.025793625000000004
EXTRACT: note_on channel=1 note=28 velocity=0 time=0.03571425
EXTRACT: note_on channel=3 note=68 velocity=0 time=0
EXTRACT: note_on channel=9 note=28 velocity=75 time=0.00396825
EXTRACT: note_on channel=9 note=36 velocity=99 time=0
EXTRACT: note_on channel=9 note=39 velocity=80 time=0
EXTRACT: note_on channel=9 note=44 velocity=88 time=0
EXTRACT: note_on channel=1 note=30 velocity=84 time=0
EXTRACT: note_on channel=3 note=69 velocity=88 time=0
EXTRACT: note_on channel=7 note=59 velocity=83 time=0
EXTRACT: note_on channel=7 note=64 velocity=79 time=0
EXTRACT: note_on channel=9 note=39 velocity=121 time=0
EXTRACT: note_on channel=9 note=40 velocity=117 time=0
EXTRACT: note_on channel=9 note=36 velocity=126 time=0
EXTRACT: note_on channel=9 note=35 velocity=117 time=0
EXTRACT: note_on channel=9 note=44 velocity=81 time=0
EXTRACT: note_on channel=9 note=82 velocity=69 time=0
EXTRACT: note_on channel=9 note=82 velocity=0 time=0.001984125
EXTRACT: note_on channel=9 note=40 velocity=0 time=0
EXTRACT: note_on channel=9 note=36 velocity=0 time=0
EXTRACT: note_on channel=9 note=39 velocity=0 time=0
EXTRACT: note_on channel=9 note=44 velocity=0 time=0
EXTRACT: note_on channel=9 note=35 velocity=0 time=0
EXTRACT: note_on channel=7 note=59 velocity=0 time=0.05158725000000001
EXTRACT: note_on channel=7 note=64 velocity=0 time=0.001984125
EXTRACT: note_on channel=9 note=44 velocity=0 time=0.009920625
EXTRACT: note_on channel=9 note=39 velocity=0 time=0.0079365
EXTRACT: note_on channel=9 note=28 velocity=0 time=0.0079365
EXTRACT: note_on channel=9 note=36 velocity=0 time=0.0079365
EXTRACT: note_on channel=7 note=59 velocity=79 time=0.029761875000000004
EXTRACT: note_on channel=7 note=63 velocity=70 time=0
EXTRACT: note_on channel=7 note=64 velocity=22 time=0
EXTRACT: note_on channel=6 note=56 velocity=65 time=0.009920625
EXTRACT: note_on channel=6 note=59 velocity=38 time=0
EXTRACT: note_on channel=6 note=64 velocity=67 time=0
EXTRACT: note_on channel=7 note=64 velocity=0 time=0.023809500000000004
EXTRACT: note_on channel=7 note=63 velocity=0 time=0.005952375000000001
EXTRACT: note_on channel=7 note=59 velocity=0 time=0.01984125
EXTRACT: note_on channel=3 note=69 velocity=0 time=0.013888875000000002
EXTRACT: note_on channel=9 note=70 velocity=105 time=0.0396825
EXTRACT: note_on channel=1 note=30 velocity=0 time=0.001984125
EXTRACT: note_on channel=9 note=70 velocity=0 time=0
EXTRACT: note_on channel=9 note=44 velocity=71 time=0.00396825
EXTRACT: note_on channel=1 note=32 velocity=81 time=0
EXTRACT: note_on channel=3 note=71 velocity=94 time=0
EXTRACT: note_on channel=7 note=59 velocity=81 time=0
EXTRACT: note_on channel=7 note=64 velocity=83 time=0
EXTRACT: note_on channel=9 note=42 velocity=73 time=0
EXTRACT: note_on channel=9 note=69 velocity=78 time=0
EXTRACT: note_on channel=9 note=56 velocity=87 time=0
EXTRACT: note_on channel=9 note=56 velocity=0 time=0.001984125
EXTRACT: note_on channel=9 note=69 velocity=0 time=0
EXTRACT: note_on channel=9 note=42 velocity=0 time=0
EXTRACT: note_on channel=7 note=59 velocity=0 time=0.04761900000000001
EXTRACT: note_on channel=9 note=44 velocity=0 time=0.001984125
EXTRACT: note_on channel=7 note=64 velocity=0 time=0
EXTRACT: note_on channel=6 note=64 velocity=0 time=0.011904750000000002
EXTRACT: note_on channel=6 note=59 velocity=0 time=0
EXTRACT: note_on channel=6 note=56 velocity=0 time=0
EXTRACT: note_on channel=10 note=64 velocity=0 time=0.021825375
EXTRACT: note_on channel=10 note=76 velocity=0 time=0.027777750000000004
EXTRACT: note_on channel=10 note=80 velocity=0 time=0.0079365
EXTRACT: note_on channel=10 note=68 velocity=0 time=0.009920625
EXTRACT: note_on channel=9 note=44 velocity=69 time=0.0079365
EXTRACT: note_on channel=9 note=42 velocity=66 time=0.001984125
EXTRACT: note_on channel=9 note=69 velocity=73 time=0
EXTRACT: note_on channel=9 note=69 velocity=0 time=0.001984125
EXTRACT: note_on channel=9 note=42 velocity=0 time=0
EXTRACT: note_on channel=10 note=59 velocity=0 time=0.011904750000000002
EXTRACT: note_on channel=9 note=44 velocity=0 time=0.0396825
EXTRACT: note_on channel=1 note=32 velocity=0 time=0.03373012500000001
EXTRACT: note_on channel=9 note=36 velocity=103 time=0.009920625
EXTRACT: note_on channel=9 note=44 velocity=101 time=0
EXTRACT: note_on channel=1 note=37 velocity=92 time=0
EXTRACT: note_on channel=10 note=61 velocity=67 time=0
EXTRACT: note_on channel=10 note=64 velocity=63 time=0
EXTRACT: note_on channel=10 note=68 velocity=64 time=0
EXTRACT: note_on channel=10 note=76 velocity=62 time=0
EXTRACT: note_on channel=10 note=80 velocity=56 time=0
EXTRACT: note_on channel=6 note=56 velocity=71 time=0
EXTRACT: note_on channel=6 note=61 velocity=55 time=0
EXTRACT: note_on channel=6 note=64 velocity=62 time=0
EXTRACT: note_on channel=7 note=56 velocity=81 time=0
EXTRACT: note_on channel=7 note=61 velocity=67 time=0
EXTRACT: note_on channel=9 note=36 velocity=126 time=0
EXTRACT: note_on channel=9 note=35 velocity=117 time=0
EXTRACT: note_on channel=9 note=35 velocity=0 time=0.001984125
EXTRACT: note_on channel=9 note=36 velocity=0 time=0
EXTRACT: note_on channel=9 note=44 velocity=0 time=0.069444375
EXTRACT: note_on channel=7 note=56 velocity=0 time=0
EXTRACT: note_on channel=7 note=61 velocity=0 time=0.001984125
EXTRACT: note_on channel=9 note=36 velocity=0 time=0.0079365
EXTRACT: note_on channel=9 note=69 velocity=84 time=0.05952375000000001
EXTRACT: note_on channel=9 note=69 velocity=0 time=0.001984125
EXTRACT: note_on channel=1 note=37 velocity=0 time=0.01984125
EXTRACT: note_on channel=6 note=64 velocity=0 time=0.009920625
EXTRACT: note_on channel=6 note=61 velocity=0 time=0
EXTRACT: note_on channel=6 note=56 velocity=0 time=0
EXTRACT: note_on channel=9 note=70 velocity=105 time=0.061507875000000004
EXTRACT: note_on channel=9 note=44 velocity=68 time=0.00396825
EXTRACT: note_on channel=1 note=37 velocity=82 time=0
EXTRACT: note_on channel=9 note=70 velocity=0 time=0
EXTRACT: note_on channel=9 note=42 velocity=73 time=0
EXTRACT: note_on channel=9 note=62 velocity=79 time=0
EXTRACT: note_on channel=9 note=62 velocity=0 time=0.001984125
EXTRACT: note_on channel=9 note=42 velocity=0 time=0
EXTRACT: note_on channel=9 note=44 velocity=0 time=0.049603125000000005
EXTRACT: note_on channel=3 note=71 velocity=0 time=0.041666625000000006
EXTRACT: note_on channel=7 note=56 velocity=89 time=0.025793625000000004
EXTRACT: note_on channel=7 note=61 velocity=80 time=0
EXTRACT: note_on channel=9 note=61 velocity=69 time=0
EXTRACT: note_on channel=9 note=61 velocity=0 time=0.001984125
EXTRACT: note_on channel=6 note=56 velocity=67 time=0.0079365
EXTRACT: note_on channel=6 note=61 velocity=51 time=0
EXTRACT: note_on channel=6 note=64 velocity=57 time=0
EXTRACT: note_on channel=9 note=44 velocity=59 time=0.009920625
EXTRACT: note_on channel=9 note=42 velocity=66 time=0.001984125
EXTRACT: note_on channel=9 note=69 velocity=68 time=0
EXTRACT: note_on channel=9 note=69 velocity=0 time=0.001984125
EXTRACT: note_on channel=9 note=42 velocity=0 time=0
EXTRACT: note_on channel=9 note=44 velocity=0 time=0.05158725000000001
EXTRACT: note_on channel=7 note=56 velocity=0 time=0.00396825
EXTRACT: note_on channel=1 note=37 velocity=0 time=0.03571425
EXTRACT: note_on channel=9 note=28 velocity=69 time=0.00396825
EXTRACT: note_on channel=9 note=36 velocity=101 time=0
EXTRACT: note_on channel=9 note=39 velocity=83 time=0
EXTRACT: note_on channel=9 note=42 velocity=80 time=0
EXTRACT: note_on channel=1 note=32 velocity=86 time=0
EXTRACT: note_on channel=3 note=71 velocity=95 time=0
EXTRACT: note_on channel=7 note=61 velocity=0 time=0
EXTRACT: note_on channel=9 note=39 velocity=121 time=0
EXTRACT: note_on channel=9 note=36 velocity=126 time=0
EXTRACT: note_on channel=9 note=35 velocity=117 time=0
EXTRACT: note_on channel=9 note=40 velocity=117 time=0
EXTRACT: note_on channel=9 note=44 velocity=81 time=0
EXTRACT: note_on channel=9 note=44 velocity=0 time=0.001984125
EXTRACT: note_on channel=9 note=35 velocity=0 time=0
EXTRACT: note_on channel=9 note=39 velocity=0 time=0
EXTRACT: note_on channel=9 note=36 velocity=0 time=0
EXTRACT: note_on channel=9 note=40 velocity=0 time=0
EXTRACT: note_on channel=6 note=64 velocity=0 time=0.061507875000000004
EXTRACT: note_on channel=6 note=61 velocity=0 time=0
EXTRACT: note_on channel=6 note=56 velocity=0 time=0
EXTRACT: note_on channel=9 note=39 velocity=0 time=0.009920625
EXTRACT: note_on channel=9 note=28 velocity=0 time=0.005952375000000001
EXTRACT: note_on channel=9 note=36 velocity=0 time=0.001984125
EXTRACT: note_on channel=9 note=42 velocity=0 time=0.001984125
EXTRACT: note_on channel=7 note=56 velocity=79 time=0.03571425
EXTRACT: note_on channel=7 note=59 velocity=66 time=0
EXTRACT: note_on channel=9 note=62 velocity=73 time=0
EXTRACT: note_on channel=9 note=62 velocity=0 time=0.001984125
EXTRACT: note_on channel=7 note=59 velocity=0 time=0.027777750000000004
EXTRACT: note_on channel=7 note=56 velocity=0 time=0.031746
EXTRACT: note_on channel=3 note=71 velocity=0 time=0.001984125
EXTRACT: note_on channel=1 note=32 velocity=0 time=0.05158725000000001
EXTRACT: note_on channel=9 note=44 velocity=61 time=0.00396825
EXTRACT: note_on channel=1 note=35 velocity=76 time=0
EXTRACT: note_on channel=3 note=73 velocity=80 time=0
EXTRACT: note_on channel=6 note=56 velocity=68 time=0
EXTRACT: note_on channel=6 note=61 velocity=48 time=0
EXTRACT: note_on channel=6 note=64 velocity=63 time=0
EXTRACT: note_on channel=7 note=56 velocity=87 time=0
EXTRACT: note_on channel=7 note=61 velocity=77 time=0
EXTRACT: note_on channel=9 note=42 velocity=73 time=0
EXTRACT: note_on channel=9 note=61 velocity=66 time=0
EXTRACT: note_on channel=9 note=61 velocity=0 time=0.001984125
EXTRACT: note_on channel=9 note=42 velocity=0 time=0
EXTRACT: note_on channel=9 note=70 velocity=105 time=0.001984125
EXTRACT: note_on channel=9 note=70 velocity=0 time=0.001984125
EXTRACT: note_on channel=9 note=44 velocity=0 time=0.0396825
EXTRACT: note_on channel=7 note=56 velocity=0 time=0.01984125
EXTRACT: note_on channel=7 note=61 velocity=0 time=0.0079365
EXTRACT: note_on channel=10 note=64 velocity=0 time=0.005952375000000001
EXTRACT: note_on channel=10 note=80 velocity=0 time=0.03373012500000001
EXTRACT: note_on channel=10 note=68 velocity=0 time=0.001984125
EXTRACT: note_on channel=10 note=76 velocity=0 time=0.005952375000000001
EXTRACT: note_on channel=10 note=61 velocity=0 time=0.00396825
EXTRACT: note_on channel=9 note=44 velocity=62 time=0.013888875000000002
EXTRACT: note_on channel=9 note=42 velocity=66 time=0.001984125
EXTRACT: note_on channel=9 note=82 velocity=48 time=0
EXTRACT: note_on channel=9 note=82 velocity=0 time=0.001984125
EXTRACT: note_on channel=9 note=42 velocity=0 time=0
EXTRACT: note_on channel=6 note=64 velocity=0 time=0.029761875000000004
EXTRACT: note_on channel=6 note=61 velocity=0 time=0
EXTRACT: note_on channel=6 note=56 velocity=0 time=0
EXTRACT: note_on channel=9 note=44 velocity=0 time=0.025793625000000004
EXTRACT: note_on channel=1 note=35 velocity=0 time=0.01984125
EXTRACT: note_on channel=9 note=36 velocity=105 time=0.01984125
EXTRACT: note_on channel=9 note=44 velocity=89 time=0
EXTRACT: note_on channel=1 note=30 velocity=85 time=0
EXTRACT: note_on channel=10 note=61 velocity=65 time=0
EXTRACT: note_on channel=10 note=66 velocity=59 time=0
EXTRACT: note_on channel=10 note=69 velocity=80 time=0
EXTRACT: note_on channel=10 note=78 velocity=49 time=0
EXTRACT: note_on channel=10 note=81 velocity=63 time=0
EXTRACT: note_on channel=9 note=36 velocity=126 time=0
EXTRACT: note_on channel=9 note=35 velocity=117 time=0
EXTRACT: note_on channel=9 note=44 velocity=81 time=0
EXTRACT: note_on channel=9 note=82 velocity=55 time=0
EXTRACT: note_on channel=9 note=56 velocity=80 time=0
EXTRACT: note_on channel=9 note=56 velocity=0 time=0.001984125
EXTRACT: note_on channel=9 note=44 velocity=0 time=0
EXTRACT: note_on channel=9 note=36 velocity=0 time=0
EXTRACT: note_on channel=9 note=35 velocity=0 time=0
EXTRACT: note_on channel=9 note=82 velocity=0 time=0
EXTRACT: note_on channel=9 note=44 velocity=0 time=0.069444375
EXTRACT: note_on channel=9 note=36 velocity=0 time=0.00396825
EXTRACT: note_on channel=7 note=57 velocity=81 time=0.04365075
EXTRACT: note_on channel=7 note=61 velocity=77 time=0
EXTRACT: note_on channel=9 note=82 velocity=63 time=0.021825375
EXTRACT: note_on channel=9 note=82 velocity=0 time=0.001984125
EXTRACT: note_on channel=1 note=30 velocity=0 time=0.0079365
EXTRACT: note_on channel=7 note=61 velocity=0 time=0.0396825
EXTRACT: note_on channel=7 note=57 velocity=0 time=0.00396825
EXTRACT: note_on channel=3 note=73 velocity=0 time=0.013888875000000002
EXTRACT: note_on channel=9 note=44 velocity=74 time=0.029761875000000004
EXTRACT: note_on channel=1 note=30 velocity=83 time=0
EXTRACT: note_on channel=3 note=71 velocity=92 time=0
EXTRACT: note_on channel=6 note=57 velocity=59 time=0
EXTRACT: note_on channel=6 note=61 velocity=61 time=0
EXTRACT: note_on channel=6 note=66 velocity=60 time=0
EXTRACT: note_on channel=7 note=57 velocity=76 time=0
EXTRACT: note_on channel=7 note=61 velocity=77 time=0
EXTRACT: note_on channel=9 note=42 velocity=73 time=0
EXTRACT: note_on channel=9 note=82 velocity=59 time=0
EXTRACT: note_on channel=9 note=63 velocity=60 time=0
EXTRACT: note_on channel=9 note=63 velocity=0 time=0.001984125
EXTRACT: note_on channel=9 note=82 velocity=0 time=0
EXTRACT: note_on channel=9 note=42 velocity=0 time=0
EXTRACT: note_on channel=9 note=70 velocity=105 time=0.001984125
EXTRACT: note_on channel=9 note=70 velocity=0 time=0.001984125
EXTRACT: note_on channel=9 note=44 velocity=0 time=0.045634875000000005
EXTRACT: note_on channel=7 note=57 velocity=0 time=0.021825375
EXTRACT: note_on channel=7 note=61 velocity=0 time=0.005952375000000001
EXTRACT: note_on channel=9 note=56 velocity=89 time=0.0396825
EXTRACT: note_on channel=9 note=56 velocity=0 time=0.001984125
EXTRACT: note_on channel=9 note=42 velocity=66 time=0.01984125
EXTRACT: note_on channel=9 note=82 velocity=45 time=0
EXTRACT: note_on channel=9 note=82 velocity=0 time=0.001984125
EXTRACT: note_on channel=9 note=42 velocity=0 time=0
EXTRACT: note_on channel=6 note=66 velocity=0 time=0.029761875000000004
EXTRACT: note_on channel=6 note=61 velocity=0 time=0
EXTRACT: note_on channel=6 note=57 velocity=0 time=0
EXTRACT: note_on channel=9 note=28 velocity=75 time=0.06547612500000001
EXTRACT: note_on channel=9 note=36 velocity=105 time=0
EXTRACT: note_on channel=9 note=39 velocity=80 time=0
EXTRACT: note_on channel=9 note=44 velocity=92 time=0
EXTRACT: note_on channel=7 note=57 velocity=84 time=0
EXTRACT: note_on channel=7 note=61 velocity=75 time=0
EXTRACT: note_on channel=9 note=36 velocity=126 time=0
EXTRACT: note_on channel=9 note=35 velocity=117 time=0
EXTRACT: note_on channel=9 note=39 velocity=121 time=0
EXTRACT: note_on channel=9 note=40 velocity=117 time=0
EXTRACT: note_on channel=9 note=44 velocity=81 time=0
EXTRACT: note_on channel=9 note=82 velocity=60 time=0
EXTRACT: note_on channel=9 note=82 velocity=0 time=0.001984125
EXTRACT: note_on channel=9 note=35 velocity=0 time=0
EXTRACT: note_on channel=9 note=39 velocity=0 time=0
EXTRACT: note_on channel=9 note=36 velocity=0 time=0
EXTRACT: note_on channel=9 note=44 velocity=0 time=0
EXTRACT: note_on channel=9 note=40 velocity=0 time=0
EXTRACT: note_on channel=1 note=30 velocity=0 time=0.023809500000000004
EXTRACT: note_on channel=7 note=57 velocity=0 time=0.023809500000000004
EXTRACT: note_on channel=9 note=39 velocity=0 time=0.023809500000000004
EXTRACT: note_on channel=9 note=44 velocity=0 time=0.001984125
EXTRACT: note_on channel=7 note=61 velocity=0 time=0.00396825
EXTRACT: note_on channel=9 note=36 velocity=0 time=0.001984125
EXTRACT: note_on channel=9 note=28 velocity=0 time=0
EXTRACT: note_on channel=7 note=57 velocity=74 time=0.037698375000000006
EXTRACT: note_on channel=7 note=59 velocity=64 time=0
EXTRACT: note_on channel=6 note=57 velocity=57 time=0.009920625
EXTRACT: note_on channel=6 note=61 velocity=58 time=0
EXTRACT: note_on channel=6 note=66 velocity=60 time=0
EXTRACT: note_on channel=7 note=59 velocity=0 time=0.029761875000000004
EXTRACT: note_on channel=7 note=57 velocity=0 time=0.011904750000000002
EXTRACT: note_on channel=9 note=70 velocity=105 time=0.061507875000000004
EXTRACT: note_on channel=3 note=71 velocity=0 time=0.001984125
EXTRACT: note_on channel=9 note=70 velocity=0 time=0
EXTRACT: note_on channel=9 note=44 velocity=83 time=0.00396825
EXTRACT: note_on channel=1 note=33 velocity=83 time=0
EXTRACT: note_on channel=3 note=68 velocity=86 time=0
EXTRACT: note_on channel=7 note=57 velocity=89 time=0
EXTRACT: note_on channel=7 note=61 velocity=71 time=0
EXTRACT: note_on channel=9 note=42 velocity=75 time=0
EXTRACT: note_on channel=9 note=69 velocity=87 time=0
EXTRACT: note_on channel=9 note=56 velocity=87 time=0
EXTRACT: note_on channel=9 note=56 velocity=0 time=0.001984125
EXTRACT: note_on channel=9 note=69 velocity=0 time=0
EXTRACT: note_on channel=9 note=42 velocity=0 time=0
EXTRACT: note_on channel=7 note=57 velocity=0 time=0.04365075
EXTRACT: note_on channel=6 note=66 velocity=0 time=0.017857125
EXTRACT: note_on channel=6 note=61 velocity=0 time=0
EXTRACT: note_on channel=6 note=57 velocity=0 time=0
EXTRACT: note_on channel=7 note=61 velocity=0 time=0.001984125
EXTRACT: note_on channel=9 note=44 velocity=0 time=0.00396825
EXTRACT: note_on channel=10 note=66 velocity=0 time=0.031746
EXTRACT: note_on channel=10 note=81 velocity=0 time=0.0079365
EXTRACT: note_on channel=10 note=69 velocity=0 time=0.005952375000000001
EXTRACT: note_on channel=9 note=62 velocity=64 time=0.00396825
EXTRACT: note_on channel=10 note=78 velocity=0 time=0.001984125
EXTRACT: note_on channel=9 note=62 velocity=0 time=0
EXTRACT: note_on channel=9 note=44 velocity=69 time=0.017857125
EXTRACT: note_on channel=9 note=42 velocity=66 time=0.001984125
EXTRACT: note_on channel=9 note=69 velocity=69 time=0
EXTRACT: note_on channel=9 note=69 velocity=0 time=0.001984125
EXTRACT: note_on channel=9 note=42 velocity=0 time=0
EXTRACT: note_on channel=10 note=61 velocity=0 time=0.005952375000000001
EXTRACT: note_on channel=9 note=44 velocity=0 time=0.049603125000000005
EXTRACT: note_on channel=1 note=33 velocity=0 time=0.00396825
EXTRACT: note_on channel=3 note=68 velocity=0 time=0.029761875000000004
EXTRACT: note_on channel=9 note=36 velocity=113 time=0.005952375000000001
EXTRACT: note_on channel=9 note=42 velocity=83 time=0
EXTRACT: note_on channel=9 note=49 velocity=88 time=0
EXTRACT: note_on channel=9 note=55 velocity=80 time=0
EXTRACT: note_on channel=1 note=35 velocity=89 time=0
EXTRACT: note_on channel=10 note=59 velocity=73 time=0
EXTRACT: note_on channel=10 note=64 velocity=67 time=0
EXTRACT: note_on channel=10 note=66 velocity=69 time=0
EXTRACT: note_on channel=10 note=71 velocity=45 time=0
EXTRACT: note_on channel=10 note=76 velocity=53 time=0
EXTRACT: note_on channel=10 note=78 velocity=41 time=0
EXTRACT: note_on channel=3 note=66 velocity=85 time=0
EXTRACT: note_on channel=6 note=59 velocity=65 time=0
EXTRACT: note_on channel=6 note=64 velocity=63 time=0
EXTRACT: note_on channel=6 note=66 velocity=63 time=0
EXTRACT: note_on channel=7 note=59 velocity=93 time=0
EXTRACT: note_on channel=7 note=64 velocity=88 time=0
EXTRACT: note_on channel=9 note=36 velocity=126 time=0
EXTRACT: note_on channel=9 note=35 velocity=117 time=0
EXTRACT: note_on channel=9 note=44 velocity=81 time=0
EXTRACT: note_on channel=9 note=60 velocity=69 time=0
EXTRACT: note_on channel=9 note=60 velocity=0 time=0.001984125
EXTRACT: note_on channel=9 note=36 velocity=0 time=0
EXTRACT: note_on channel=9 note=35 velocity=0 time=0
EXTRACT: note_on channel=9 note=44 velocity=0 time=0
EXTRACT: note_on channel=7 note=64 velocity=0 time=0.04365075
EXTRACT: note_on channel=7 note=59 velocity=0 time=0.025793625000000004
EXTRACT: note_on channel=9 note=42 velocity=0 time=0.009920625
EXTRACT: note_on channel=9 note=36 velocity=0 time=0.011904750000000002
EXTRACT: note_on channel=9 note=69 velocity=93 time=0.04761900000000001
EXTRACT: note_on channel=9 note=69 velocity=0 time=0.001984125
EXTRACT: note_on channel=6 note=66 velocity=0 time=0.029761875000000004
EXTRACT: note_on channel=6 note=64 velocity=0 time=0
EXTRACT: note_on channel=6 note=59 velocity=0 time=0
EXTRACT: note_on channel=9 note=44 velocity=57 time=0.06547612500000001
EXTRACT: note_on channel=9 note=42 velocity=73 time=0
EXTRACT: note_on channel=9 note=62 velocity=59 time=0
EXTRACT: note_on channel=9 note=70 velocity=105 time=0
EXTRACT: note_on channel=9 note=70 velocity=0 time=0.001984125
EXTRACT: note_on channel=9 note=62 velocity=0 time=0
EXTRACT: note_on channel=9 note=42 velocity=0 time=0
EXTRACT: note_on channel=9 note=44 velocity=0 time=0.05158725000000001
EXTRACT: note_on channel=7 note=59 velocity=85 time=0.06547612500000001
EXTRACT: note_on channel=7 note=64 velocity=88 time=0
EXTRACT: note_on channel=9 note=60 velocity=63 time=0
EXTRACT: note_on channel=9 note=60 velocity=0 time=0.001984125
EXTRACT: note_on channel=6 note=59 velocity=63 time=0.0079365
EXTRACT: note_on channel=6 note=64 velocity=63 time=0
EXTRACT: note_on channel=6 note=66 velocity=62 time=0
EXTRACT: note_on channel=9 note=44 velocity=66 time=0.009920625
EXTRACT: note_on channel=9 note=42 velocity=66 time=0.001984125
EXTRACT: note_on channel=9 note=69 velocity=61 time=0
EXTRACT: note_on channel=9 note=69 velocity=0 time=0.001984125
EXTRACT: note_on channel=9 note=42 velocity=0 time=0
EXTRACT: note_on channel=7 note=64 velocity=0 time=0.031746
EXTRACT: note_on channel=9 note=44 velocity=0 time=0.01984125
EXTRACT: note_on channel=7 note=59 velocity=0 time=0.013888875000000002
EXTRACT: note_on channel=9 note=36 velocity=105 time=0.029761875000000004
EXTRACT: note_on channel=9 note=44 velocity=85 time=0
EXTRACT: note_on channel=9 note=40 velocity=117 time=0
EXTRACT: note_on channel=9 note=36 velocity=126 time=0
EXTRACT: note_on channel=9 note=35 velocity=117 time=0
EXTRACT: note_on channel=9 note=39 velocity=121 time=0
EXTRACT: note_on channel=9 note=44 velocity=81 time=0
EXTRACT: note_on channel=9 note=69 velocity=78 time=0
EXTRACT: note_on channel=9 note=69 velocity=0 time=0.001984125
EXTRACT: note_on channel=9 note=36 velocity=0 time=0
EXTRACT: note_on channel=9 note=35 velocity=0 time=0
EXTRACT: note_on channel=9 note=40 velocity=0 time=0
EXTRACT: note_on channel=9 note=44 velocity=0 time=0
EXTRACT: note_on channel=9 note=39 velocity=0 time=0
EXTRACT: note_on channel=6 note=66 velocity=0 time=0.061507875000000004
EXTRACT: note_on channel=6 note=64 velocity=0 time=0
EXTRACT: note_on channel=6 note=59 velocity=0 time=0
EXTRACT: note_on channel=9 note=36 velocity=0 time=0.025793625000000004
EXTRACT: note_on channel=9 note=44 velocity=0 time=0.029761875000000004
EXTRACT: note_on channel=7 note=59 velocity=77 time=0
EXTRACT: note_on channel=7 note=64 velocity=73 time=0
EXTRACT: note_on channel=9 note=61 velocity=73 time=0
EXTRACT: note_on channel=9 note=61 velocity=0 time=0.001984125
EXTRACT: note_on channel=7 note=64 velocity=0 time=0.027777750000000004
EXTRACT: note_on channel=7 note=59 velocity=0 time=0.031746
EXTRACT: note_on channel=1 note=35 velocity=0 time=0.011904750000000002
EXTRACT: note_on channel=9 note=44 velocity=67 time=0.045634875000000005
EXTRACT: note_on channel=9 note=65 velocity=97 time=0
EXTRACT: note_on channel=1 note=35 velocity=91 time=0
EXTRACT: note_on channel=6 note=59 velocity=69 time=0
EXTRACT: note_on channel=6 note=64 velocity=62 time=0
EXTRACT: note_on channel=6 note=66 velocity=61 time=0
EXTRACT: note_on channel=7 note=59 velocity=85 time=0
EXTRACT: note_on channel=7 note=64 velocity=93 time=0
EXTRACT: note_on channel=9 note=42 velocity=73 time=0
EXTRACT: note_on channel=9 note=60 velocity=66 time=0
EXTRACT: note_on channel=9 note=60 velocity=0 time=0.001984125
EXTRACT: note_on channel=9 note=42 velocity=0 time=0
EXTRACT: note_on channel=9 note=70 velocity=105 time=0
EXTRACT: note_on channel=9 note=70 velocity=0 time=0.001984125
EXTRACT: note_on channel=9 note=44 velocity=0 time=0.04761900000000001
EXTRACT: note_on channel=9 note=65 velocity=0 time=0.001984125
EXTRACT: note_on channel=7 note=64 velocity=0 time=0.0079365
EXTRACT: note_on channel=7 note=59 velocity=0 time=0.021825375
EXTRACT: note_on channel=10 note=64 velocity=0 time=0.015873
EXTRACT: note_on channel=10 note=71 velocity=0 time=0.013888875000000002
EXTRACT: note_on channel=9 note=65 velocity=84 time=0.005952375000000001
EXTRACT: note_on channel=10 note=66 velocity=0 time=0
EXTRACT: note_on channel=9 note=62 velocity=69 time=0
EXTRACT: note_on channel=9 note=62 velocity=0 time=0.001984125
EXTRACT: note_on channel=10 note=76 velocity=0 time=0.011904750000000002
EXTRACT: note_on channel=9 note=44 velocity=65 time=0.005952375000000001
EXTRACT: note_on channel=9 note=42 velocity=66 time=0.001984125
EXTRACT: note_on channel=9 note=42 velocity=0 time=0.001984125
EXTRACT: note_on channel=10 note=59 velocity=0 time=0.001984125
EXTRACT: note_on channel=1 note=35 velocity=0 time=0.00396825
EXTRACT: note_on channel=10 note=78 velocity=0 time=0.011904750000000002
EXTRACT: note_on channel=9 note=65 velocity=0 time=0.0079365
EXTRACT: note_on channel=6 note=66 velocity=0 time=0.00396825
EXTRACT: note_on channel=6 note=64 velocity=0 time=0
EXTRACT: note_on channel=6 note=59 velocity=0 time=0
EXTRACT: note_on channel=9 note=44 velocity=0 time=0.031746
EXTRACT: note_on channel=9 note=36 velocity=110 time=0.03373012500000001
EXTRACT: note_on channel=9 note=42 velocity=84 time=0
EXTRACT: note_on channel=9 note=65 velocity=81 time=0
EXTRACT: note_on channel=1 note=35 velocity=99 time=0
EXTRACT: note_on channel=10 note=59 velocity=77 time=0
EXTRACT: note_on channel=10 note=63 velocity=63 time=0
EXTRACT: note_on channel=10 note=66 velocity=65 time=0
EXTRACT: note_on channel=10 note=71 velocity=33 time=0
EXTRACT: note_on channel=10 note=75 velocity=46 time=0
EXTRACT: note_on channel=10 note=78 velocity=48 time=0
EXTRACT: note_on channel=9 note=36 velocity=126 time=0
EXTRACT: note_on channel=9 note=35 velocity=117 time=0
EXTRACT: note_on channel=9 note=44 velocity=81 time=0
EXTRACT: note_on channel=9 note=82 velocity=69 time=0
EXTRACT: note_on channel=9 note=56 velocity=87 time=0
EXTRACT: note_on channel=9 note=60 velocity=63 time=0
EXTRACT: note_on channel=9 note=60 velocity=0 time=0.001984125
EXTRACT: note_on channel=9 note=35 velocity=0 time=0
EXTRACT: note_on channel=9 note=44 velocity=0 time=0
EXTRACT: note_on channel=9 note=36 velocity=0 time=0
EXTRACT: note_on channel=9 note=56 velocity=0 time=0
EXTRACT: note_on channel=9 note=82 velocity=0 time=0
EXTRACT: note_on channel=9 note=65 velocity=0 time=0.04365075
EXTRACT: note_on channel=9 note=36 velocity=0 time=0.04761900000000001
EXTRACT: note_on channel=9 note=42 velocity=0 time=0.009920625
EXTRACT: note_on channel=9 note=65 velocity=86 time=0.015873
EXTRACT: note_on channel=7 note=59 velocity=77 time=0
EXTRACT: note_on channel=7 note=63 velocity=76 time=0
EXTRACT: note_on channel=7 note=66 velocity=77 time=0
EXTRACT: note_on channel=1 note=35 velocity=0 time=0.009920625
EXTRACT: note_on channel=9 note=82 velocity=43 time=0.011904750000000002
EXTRACT: note_on channel=9 note=82 velocity=0 time=0.001984125
EXTRACT: note_on channel=7 note=63 velocity=0 time=0.025793625000000004
EXTRACT: note_on channel=3 note=66 velocity=0 time=0.021825375
EXTRACT: note_on channel=9 note=65 velocity=0 time=0.001984125
EXTRACT: note_on channel=7 note=66 velocity=0 time=0.001984125
EXTRACT: note_on channel=7 note=59 velocity=0 time=0.013888875000000002
EXTRACT: note_on channel=9 note=49 velocity=0 time=0.013888875000000002
EXTRACT: note_on channel=9 note=70 velocity=105 time=0.0079365
EXTRACT: note_on channel=9 note=70 velocity=0 time=0.001984125
EXTRACT: note_on channel=9 note=66 velocity=87 time=0.005952375000000001
EXTRACT: note_on channel=1 note=35 velocity=95 time=0
EXTRACT: note_on channel=3 note=73 velocity=91 time=0
EXTRACT: note_on channel=6 note=59 velocity=76 time=0
EXTRACT: note_on channel=6 note=63 velocity=66 time=0
EXTRACT: note_on channel=6 note=66 velocity=60 time=0
EXTRACT: note_on channel=7 note=59 velocity=61 time=0
EXTRACT: note_on channel=9 note=42 velocity=73 time=0
EXTRACT: note_on channel=9 note=82 velocity=48 time=0
EXTRACT: note_on channel=9 note=82 velocity=0 time=0.001984125
EXTRACT: note_on channel=9 note=42 velocity=0 time=0
EXTRACT: note_on channel=9 note=55 velocity=0 time=0.00396825
EXTRACT: note_on channel=9 note=66 velocity=0 time=0.07539675000000001
EXTRACT: note_on channel=7 note=59 velocity=0 time=0.013888875000000002
EXTRACT: note_on channel=9 note=56 velocity=87 time=0.023809500000000004
EXTRACT: note_on channel=9 note=56 velocity=0 time=0.001984125
EXTRACT: note_on channel=9 note=42 velocity=66 time=0.01984125
EXTRACT: note_on channel=9 note=82 velocity=40 time=0
EXTRACT: note_on channel=9 note=82 velocity=0 time=0.001984125
EXTRACT: note_on channel=9 note=42 velocity=0 time=0
EXTRACT: note_on channel=6 note=66 velocity=0 time=0.029761875000000004
EXTRACT: note_on channel=6 note=63 velocity=0 time=0
EXTRACT: note_on channel=6 note=59 velocity=0 time=0
EXTRACT: note_on channel=9 note=66 velocity=79 time=0.045634875000000005
EXTRACT: note_on channel=1 note=35 velocity=0 time=0.015873
EXTRACT: note_on channel=3 note=73 velocity=0 time=0
EXTRACT: note_on channel=9 note=40 velocity=96 time=0.00396825
EXTRACT: note_on channel=9 note=65 velocity=91 time=0
EXTRACT: note_on channel=1 note=27 velocity=88 time=0
EXTRACT: note_on channel=3 note=71 velocity=89 time=0
EXTRACT: note_on channel=7 note=59 velocity=73 time=0
EXTRACT: note_on channel=7 note=63 velocity=81 time=0
EXTRACT: note_on channel=7 note=66 velocity=77 time=0
EXTRACT: note_on channel=9 note=39 velocity=121 time=0
EXTRACT: note_on channel=9 note=40 velocity=117 time=0
EXTRACT: note_on channel=9 note=36 velocity=126 time=0
EXTRACT: note_on channel=9 note=35 velocity=117 time=0
EXTRACT: note_on channel=9 note=44 velocity=81 time=0
EXTRACT: note_on channel=9 note=82 velocity=69 time=0
EXTRACT: note_on channel=9 note=82 velocity=0 time=0.001984125
EXTRACT: note_on channel=9 note=40 velocity=0 time=0
EXTRACT: note_on channel=9 note=36 velocity=0 time=0
EXTRACT: note_on channel=9 note=39 velocity=0 time=0
EXTRACT: note_on channel=9 note=44 velocity=0 time=0
EXTRACT: note_on channel=9 note=35 velocity=0 time=0
EXTRACT: note_on channel=7 note=59 velocity=0 time=0.053571375000000004
EXTRACT: note_on channel=7 note=63 velocity=0 time=0.005952375000000001
EXTRACT: note_on channel=9 note=40 velocity=0 time=0.009920625
EXTRACT: note_on channel=9 note=66 velocity=0 time=0
EXTRACT: note_on channel=7 note=66 velocity=0 time=0.001984125
EXTRACT: note_on channel=9 note=65 velocity=0 time=0.001984125
EXTRACT: note_on channel=9 note=40 velocity=96 time=0.04365075
EXTRACT: note_on channel=7 note=59 velocity=75 time=0
EXTRACT: note_on channel=7 note=63 velocity=80 time=0
EXTRACT: note_on channel=7 note=66 velocity=67 time=0
EXTRACT: note_on channel=6 note=59 velocity=75 time=0.009920625
EXTRACT: note_on channel=6 note=63 velocity=65 time=0
EXTRACT: note_on channel=6 note=66 velocity=59 time=0
EXTRACT: note_on channel=7 note=63 velocity=0 time=0.05158725000000001
EXTRACT: note_on channel=7 note=59 velocity=0 time=0.001984125
EXTRACT: note_on channel=7 note=66 velocity=0 time=0.005952375000000001
EXTRACT: note_on channel=10 note=63 velocity=0 time=0.021825375
EXTRACT: note_on channel=1 note=27 velocity=0 time=0.013888875000000002
EXTRACT: note_on channel=9 note=40 velocity=0 time=0.00396825
EXTRACT: note_on channel=10 note=71 velocity=0 time=0.001984125
EXTRACT: note_on channel=10 note=66 velocity=0 time=0.001984125
EXTRACT: note_on channel=9 note=70 velocity=105 time=0
EXTRACT: note_on channel=3 note=71 velocity=0 time=0.001984125
EXTRACT: note_on channel=9 note=70 velocity=0 time=0
EXTRACT: note_on channel=9 note=40 velocity=109 time=0.00396825
EXTRACT: note_on channel=9 note=65 velocity=91 time=0
EXTRACT: note_on channel=1 note=30 velocity=85 time=0
EXTRACT: note_on channel=3 note=73 velocity=87 time=0
EXTRACT: note_on channel=7 note=59 velocity=81 time=0
EXTRACT: note_on channel=7 note=63 velocity=77 time=0
EXTRACT: note_on channel=7 note=66 velocity=78 time=0
EXTRACT: note_on channel=9 note=42 velocity=73 time=0
EXTRACT: note_on channel=9 note=69 velocity=78 time=0
EXTRACT: note_on channel=9 note=56 velocity=87 time=0
EXTRACT: note_on channel=9 note=56 velocity=0 time=0.001984125
EXTRACT: note_on channel=9 note=69 velocity=0 time=0
EXTRACT: note_on channel=9 note=42 velocity=0 time=0
EXTRACT: note_on channel=10 note=59 velocity=0 time=0.013888875000000002
EXTRACT: note_on channel=10 note=75 velocity=0 time=0.023809500000000004
EXTRACT: note_on channel=10 note=78 velocity=0 time=0.015873
EXTRACT: note_on channel=6 note=66 velocity=0 time=0.0079365
EXTRACT: note_on channel=6 note=63 velocity=0 time=0
EXTRACT: note_on channel=6 note=59 velocity=0 time=0
EXTRACT: note_on channel=7 note=63 velocity=0 time=0
EXTRACT: note_on channel=9 note=65 velocity=0 time=0.011904750000000002
EXTRACT: note_on channel=7 note=66 velocity=0 time=0.009920625
EXTRACT: note_on channel=9 note=40 velocity=0 time=0.023809500000000004
EXTRACT: note_on channel=7 note=59 velocity=0 time=0.00396825
EXTRACT: note_on channel=9 note=65 velocity=80 time=0.005952375000000001
EXTRACT: note_on channel=9 note=42 velocity=66 time=0.021825375
EXTRACT: note_on channel=9 note=69 velocity=73 time=0
EXTRACT: note_on channel=9 note=69 velocity=0 time=0.001984125
EXTRACT: note_on channel=9 note=42 velocity=0 time=0
EXTRACT: note_on channel=3 note=73 velocity=0 time=0.0079365
EXTRACT: note_on channel=9 note=65 velocity=0 time=0.001984125
EXTRACT: note_on channel=1 note=30 velocity=0 time=0.049603125000000005
EXTRACT: note_on channel=9 note=36 velocity=99 time=0.03571425
EXTRACT: note_on channel=9 note=49 velocity=84 time=0
EXTRACT: note_on channel=9 note=52 velocity=101 time=0
EXTRACT: note_on channel=9 note=57 velocity=78 time=0
EXTRACT: note_on channel=1 note=33 velocity=83 time=0
EXTRACT: note_on channel=10 note=45 velocity=55 time=0
EXTRACT: note_on channel=10 note=52 velocity=76 time=0
EXTRACT: note_on channel=10 note=57 velocity=50 time=0
EXTRACT: note_on channel=10 note=61 velocity=54 time=0
EXTRACT: note_on channel=10 note=69 velocity=68 time=0
EXTRACT: note_on channel=10 note=73 velocity=55 time=0
EXTRACT: note_on channel=4 note=64 velocity=113 time=0
EXTRACT: note_on channel=5 note=61 velocity=77 time=0
EXTRACT: note_on channel=5 note=64 velocity=88 time=0
EXTRACT: note_on channel=5 note=68 velocity=77 time=0
EXTRACT: note_on channel=6 note=61 velocity=55 time=0
EXTRACT: note_on channel=6 note=64 velocity=66 time=0
EXTRACT: note_on channel=6 note=68 velocity=55 time=0
EXTRACT: note_on channel=7 note=52 velocity=109 time=0
EXTRACT: note_on channel=9 note=36 velocity=99 time=0
EXTRACT: note_on channel=9 note=49 velocity=84 time=0
EXTRACT: note_on channel=9 note=52 velocity=101 time=0
EXTRACT: note_on channel=9 note=57 velocity=78 time=0
EXTRACT: note_on channel=5 note=64 velocity=0 time=0.063492
EXTRACT: note_on channel=5 note=61 velocity=0 time=0.005952375000000001
EXTRACT: note_on channel=9 note=49 velocity=0 time=0.001984125
EXTRACT: note_on channel=9 note=49 velocity=0 time=0
EXTRACT: note_on channel=9 note=36 velocity=0 time=0.00396825
EXTRACT: note_on channel=9 note=36 velocity=0 time=0
EXTRACT: note_on channel=4 note=64 velocity=0 time=0.013888875000000002
EXTRACT: note_on channel=5 note=68 velocity=0 time=0.009920625
EXTRACT: note_on channel=7 note=52 velocity=0 time=0.06547612500000001
EXTRACT: note_on channel=6 note=68 velocity=0 time=0.0079365
EXTRACT: note_on channel=6 note=64 velocity=0 time=0
EXTRACT: note_on channel=6 note=61 velocity=0 time=0
EXTRACT: note_on channel=9 note=67 velocity=39 time=0.06547612500000001
EXTRACT: note_on channel=4 note=64 velocity=110 time=0
EXTRACT: note_on channel=7 note=57 velocity=56 time=0
EXTRACT: note_on channel=7 note=61 velocity=49 time=0
EXTRACT: note_on channel=9 note=67 velocity=39 time=0
EXTRACT: note_on channel=9 note=67 velocity=0 time=0.041666625000000006
EXTRACT: note_on channel=9 note=67 velocity=0 time=0
EXTRACT: note_on channel=7 note=61 velocity=0 time=0.021825375
EXTRACT: note_on channel=7 note=57 velocity=0 time=0
EXTRACT: note_on channel=9 note=67 velocity=47 time=0.06547612500000001
EXTRACT: note_on channel=5 note=61 velocity=78 time=0
EXTRACT: note_on channel=5 note=64 velocity=82 time=0
EXTRACT: note_on channel=5 note=68 velocity=73 time=0
EXTRACT: note_on channel=6 note=61 velocity=56 time=0
EXTRACT: note_on channel=6 note=64 velocity=60 time=0
EXTRACT: note_on channel=6 note=68 velocity=51 time=0
EXTRACT: note_on channel=7 note=57 velocity=68 time=0
EXTRACT: note_on channel=7 note=61 velocity=56 time=0
EXTRACT: note_on channel=9 note=67 velocity=47 time=0
EXTRACT: note_on channel=1 note=33 velocity=0 time=0.053571375000000004
EXTRACT: note_on channel=7 note=57 velocity=0 time=0.009920625
EXTRACT: note_on channel=5 note=64 velocity=0 time=0.005952375000000001
EXTRACT: note_on channel=9 note=67 velocity=0 time=0.001984125
EXTRACT: note_on channel=5 note=61 velocity=0 time=0
EXTRACT: note_on channel=9 note=67 velocity=0 time=0
EXTRACT: note_on channel=7 note=61 velocity=0 time=0.0079365
EXTRACT: note_on channel=5 note=68 velocity=0 time=0.011904750000000002
EXTRACT: note_on channel=4 note=64 velocity=0 time=0.013888875000000002
EXTRACT: note_on channel=1 note=37 velocity=87 time=0.00396825
EXTRACT: note_on channel=4 note=61 velocity=87 time=0
EXTRACT: note_on channel=7 note=52 velocity=97 time=0
EXTRACT: note_on channel=9 note=52 velocity=0 time=0.053571375000000004
EXTRACT: note_on channel=9 note=52 velocity=0 time=0
EXTRACT: note_on channel=6 note=68 velocity=0 time=0.009920625
EXTRACT: note_on channel=6 note=64 velocity=0 time=0
EXTRACT: note_on channel=6 note=61 velocity=0 time=0
EXTRACT: note_on channel=9 note=57 velocity=0 time=0.0396825
EXTRACT: note_on channel=9 note=57 velocity=0 time=0
EXTRACT: note_on channel=7 note=52 velocity=0 time=0.001984125
EXTRACT: note_on channel=10 note=45 velocity=0 time=0.005952375000000001
EXTRACT: note_on channel=10 note=52 velocity=0 time=0.011904750000000002
EXTRACT: note_on channel=4 note=61 velocity=0 time=0.061507875000000004
EXTRACT: note_on channel=9 note=68 velocity=63 time=0.053571375000000004
EXTRACT: note_on channel=1 note=40 velocity=80 time=0
EXTRACT: note_on channel=4 note=59 velocity=84 time=0
EXTRACT: note_on channel=5 note=61 velocity=80 time=0
EXTRACT: note_on channel=5 note=64 velocity=78 time=0
EXTRACT: note_on channel=5 note=68 velocity=73 time=0
EXTRACT: note_on channel=6 note=61 velocity=58 time=0
EXTRACT: note_on channel=6 note=64 velocity=56 time=0
EXTRACT: note_on channel=6 note=68 velocity=51 time=0
EXTRACT: note_on channel=7 note=57 velocity=68 time=0
EXTRACT: note_on channel=7 note=61 velocity=49 time=0
EXTRACT: note_on channel=9 note=68 velocity=63 time=0
EXTRACT: note_on channel=1 note=37 velocity=0 time=0.011904750000000002
EXTRACT: note_on channel=9 note=68 velocity=0 time=0.049603125000000005
EXTRACT: note_on channel=9 note=68 velocity=0 time=0
EXTRACT: note_on channel=7 note=61 velocity=0 time=0.001984125
EXTRACT: note_on channel=7 note=57 velocity=0 time=0
EXTRACT: note_on channel=5 note=64 velocity=0 time=0.005952375000000001
EXTRACT: note_on channel=5 note=61 velocity=0 time=0
EXTRACT: note_on channel=5 note=68 velocity=0 time=0.015873
EXTRACT: note_on channel=9 note=68 velocity=40 time=0.04365075
EXTRACT: note_on channel=7 note=57 velocity=71 time=0
EXTRACT: note_on channel=7 note=61 velocity=56 time=0
EXTRACT: note_on channel=9 note=68 velocity=40 time=0
EXTRACT: note_on channel=10 note=69 velocity=0 time=0.00396825
EXTRACT: note_on channel=10 note=57 velocity=0 time=0.015873
EXTRACT: note_on channel=10 note=61 velocity=0 time=0.011904750000000002
EXTRACT: note_on channel=10 note=73 velocity=0 time=0
EXTRACT: note_on channel=6 note=68 velocity=0 time=0.011904750000000002
EXTRACT: note_on channel=6 note=64 velocity=0 time=0
EXTRACT: note_on channel=6 note=61 velocity=0 time=0
EXTRACT: note_on channel=9 note=68 velocity=0 time=0.015873
EXTRACT: note_on channel=9 note=68 velocity=0 time=0
EXTRACT: note_on channel=1 note=40 velocity=0 time=0.00396825
EXTRACT: note_on channel=7 note=57 velocity=0 time=0
EXTRACT: note_on channel=4 note=59 velocity=0 time=0.015873
EXTRACT: note_on channel=7 note=61 velocity=0 time=0.00396825
EXTRACT: note_on channel=9 note=36 velocity=99 time=0.025793625000000004
EXTRACT: note_on channel=1 note=35 velocity=84 time=0
EXTRACT: note_on channel=10 note=47 velocity=41 time=0
EXTRACT: note_on channel=10 note=54 velocity=65 time=0
EXTRACT: note_on channel=10 note=59 velocity=68 time=0
EXTRACT: note_on channel=10 note=66 velocity=62 time=0
EXTRACT: note_on channel=10 note=71 velocity=64 time=0
EXTRACT: note_on channel=4 note=64 velocity=101 time=0
EXTRACT: note_on channel=7 note=54 velocity=89 time=0
EXTRACT: note_on channel=9 note=36 velocity=99 time=0
EXTRACT: note_on channel=9 note=36 velocity=0 time=0.07341262500000001
EXTRACT: note_on channel=9 note=36 velocity=0 time=0
EXTRACT: note_on channel=4 note=64 velocity=0 time=0.021825375
EXTRACT: note_on channel=7 note=54 velocity=0 time=0
EXTRACT: note_on channel=5 note=59 velocity=73 time=0.03373012500000001
EXTRACT: note_on channel=5 note=64 velocity=85 time=0
EXTRACT: note_on channel=5 note=66 velocity=77 time=0
EXTRACT: note_on channel=6 note=59 velocity=51 time=0
EXTRACT: note_on channel=6 note=64 velocity=63 time=0
EXTRACT: note_on channel=6 note=66 velocity=55 time=0
EXTRACT: note_on channel=1 note=35 velocity=0 time=0.011904750000000002
EXTRACT: note_on channel=5 note=64 velocity=0 time=0.05952375000000001
EXTRACT: note_on channel=5 note=59 velocity=0 time=0.00396825
EXTRACT: note_on channel=5 note=66 velocity=0 time=0.0079365
EXTRACT: note_on channel=9 note=67 velocity=48 time=0.025793625000000004
EXTRACT: note_on channel=1 note=35 velocity=71 time=0
EXTRACT: note_on channel=4 note=64 velocity=103 time=0
EXTRACT: note_on channel=7 note=57 velocity=42 time=0
EXTRACT: note_on channel=7 note=59 velocity=50 time=0
EXTRACT: note_on channel=9 note=67 velocity=48 time=0
EXTRACT: note_on channel=9 note=67 velocity=0 time=0.041666625000000006
EXTRACT: note_on channel=9 note=67 velocity=0 time=0
EXTRACT: note_on channel=6 note=66 velocity=0 time=0.021825375
EXTRACT: note_on channel=6 note=64 velocity=0 time=0
EXTRACT: note_on channel=6 note=59 velocity=0 time=0
EXTRACT: note_on channel=7 note=59 velocity=0 time=0
EXTRACT: note_on channel=7 note=57 velocity=0 time=0
EXTRACT: note_on channel=9 note=67 velocity=31 time=0.06547612500000001
EXTRACT: note_on channel=7 note=57 velocity=62 time=0
EXTRACT: note_on channel=7 note=59 velocity=70 time=0
EXTRACT: note_on channel=9 note=67 velocity=31 time=0
EXTRACT: note_on channel=9 note=67 velocity=0 time=0.04365075
EXTRACT: note_on channel=9 note=67 velocity=0 time=0
EXTRACT: note_on channel=7 note=59 velocity=0 time=0.01984125
EXTRACT: note_on channel=7 note=57 velocity=0 time=0.009920625
EXTRACT: note_on channel=4 note=64 velocity=0 time=0.005952375000000001
EXTRACT: note_on channel=1 note=39 velocity=85 time=0.029761875000000004
EXTRACT: note_on channel=4 note=61 velocity=90 time=0
EXTRACT: note_on channel=5 note=59 velocity=45 time=0
EXTRACT: note_on channel=5 note=64 velocity=78 time=0
EXTRACT: note_on channel=5 note=66 velocity=71 time=0
EXTRACT: note_on channel=6 note=59 velocity=23 time=0
EXTRACT: note_on channel=6 note=64 velocity=56 time=0
EXTRACT: note_on channel=6 note=66 velocity=49 time=0
EXTRACT: note_on channel=7 note=54 velocity=90 time=0
EXTRACT: note_on channel=1 note=35 velocity=0 time=0.015873
EXTRACT: note_on channel=5 note=59 velocity=0 time=0.023809500000000004
EXTRACT: note_on channel=5 note=64 velocity=0 time=0.03571425
EXTRACT: note_on channel=5 note=66 velocity=0 time=0.01984125
EXTRACT: note_on channel=7 note=54 velocity=0 time=0.03373012500000001
EXTRACT: note_on channel=6 note=66 velocity=0 time=0.04365075
EXTRACT: note_on channel=6 note=64 velocity=0 time=0
EXTRACT: note_on channel=6 note=59 velocity=0 time=0
EXTRACT: note_on channel=4 note=61 velocity=0 time=0.017857125
EXTRACT: note_on channel=10 note=47 velocity=0 time=0.017857125
EXTRACT: note_on channel=1 note=39 velocity=0 time=0.01984125
EXTRACT: note_on channel=9 note=68 velocity=44 time=0.009920625
EXTRACT: note_on channel=1 note=42 velocity=79 time=0
EXTRACT: note_on channel=4 note=59 velocity=84 time=0
EXTRACT: note_on channel=5 note=59 velocity=78 time=0
EXTRACT: note_on channel=5 note=63 velocity=83 time=0
EXTRACT: note_on channel=5 note=66 velocity=82 time=0
EXTRACT: note_on channel=6 note=59 velocity=56 time=0
EXTRACT: note_on channel=6 note=63 velocity=61 time=0
EXTRACT: note_on channel=6 note=66 velocity=60 time=0
EXTRACT: note_on channel=7 note=57 velocity=53 time=0
EXTRACT: note_on channel=7 note=59 velocity=62 time=0
EXTRACT: note_on channel=9 note=68 velocity=44 time=0
EXTRACT: note_on channel=9 note=68 velocity=0 time=0.029761875000000004
EXTRACT: note_on channel=9 note=68 velocity=0 time=0
EXTRACT: note_on channel=5 note=59 velocity=0 time=0.001984125
EXTRACT: note_on channel=10 note=54 velocity=0 time=0.001984125
EXTRACT: note_on channel=10 note=71 velocity=0 time=0.01984125
EXTRACT: note_on channel=5 note=63 velocity=0 time=0.0079365
EXTRACT: note_on channel=7 note=59 velocity=0 time=0.001984125
EXTRACT: note_on channel=7 note=57 velocity=0 time=0
EXTRACT: note_on channel=10 note=66 velocity=0 time=0.015873
EXTRACT: note_on channel=5 note=66 velocity=0 time=0
EXTRACT: note_on channel=10 note=59 velocity=0 time=0.04365075
EXTRACT: note_on channel=9 note=68 velocity=38 time=0.005952375000000001
EXTRACT: note_on channel=7 note=57 velocity=60 time=0
EXTRACT: note_on channel=7 note=59 velocity=67 time=0
EXTRACT: note_on channel=9 note=68 velocity=38 time=0
EXTRACT: note_on channel=6 note=66 velocity=0 time=0.04365075
EXTRACT: note_on channel=6 note=63 velocity=0 time=0
EXTRACT: note_on channel=6 note=59 velocity=0 time=0
EXTRACT: note_on channel=7 note=57 velocity=0 time=0.01984125
EXTRACT: note_on channel=9 note=68 velocity=0 time=0.009920625
EXTRACT: note_on channel=9 note=68 velocity=0 time=0
EXTRACT: note_on channel=4 note=59 velocity=0 time=0.001984125
EXTRACT: note_on channel=7 note=59 velocity=0 time=0
EXTRACT: note_on channel=1 note=42 velocity=0 time=0.005952375000000001
EXTRACT: note_on channel=10 note=51 velocity=59 time=0.027777750000000004
EXTRACT: note_on channel=10 note=56 velocity=74 time=0
EXTRACT: note_on channel=10 note=59 velocity=54 time=0
EXTRACT: note_on channel=10 note=63 velocity=59 time=0
EXTRACT: note_on channel=10 note=68 velocity=61 time=0
EXTRACT: note_on channel=10 note=71 velocity=60 time=0
EXTRACT: note_on channel=3 note=71 velocity=94 time=0
EXTRACT: note_on channel=5 note=59 velocity=68 time=0
EXTRACT: note_on channel=5 note=63 velocity=85 time=0
EXTRACT: note_on channel=5 note=68 velocity=85 time=0
EXTRACT: note_on channel=6 note=59 velocity=46 time=0
EXTRACT: note_on channel=6 note=63 velocity=63 time=0
EXTRACT: note_on channel=6 note=68 velocity=63 time=0
EXTRACT: note_on channel=7 note=56 velocity=90 time=0
EXTRACT: note_on channel=5 note=59 velocity=0 time=0.029761875000000004
EXTRACT: note_on channel=5 note=63 velocity=0 time=0.021825375
EXTRACT: note_on channel=5 note=68 velocity=0 time=0.031746
EXTRACT: note_on channel=7 note=56 velocity=0 time=0.069444375
EXTRACT: note_on channel=6 note=68 velocity=0 time=0.01984125
EXTRACT: note_on channel=6 note=63 velocity=0 time=0
EXTRACT: note_on channel=6 note=59 velocity=0 time=0
EXTRACT: note_on channel=9 note=67 velocity=42 time=0.06547612500000001
EXTRACT: note_on channel=1 note=32 velocity=88 time=0
EXTRACT: note_on channel=7 note=59 velocity=53 time=0
EXTRACT: note_on channel=7 note=63 velocity=49 time=0
EXTRACT: note_on channel=9 note=67 velocity=42 time=0
EXTRACT: note_on channel=9 note=67 velocity=0 time=0.041666625000000006
EXTRACT: note_on channel=9 note=67 velocity=0 time=0
EXTRACT: note_on channel=7 note=63 velocity=0 time=0.021825375
EXTRACT: note_on channel=7 note=59 velocity=0 time=0
EXTRACT: note_on channel=9 note=67 velocity=49 time=0.06547612500000001
EXTRACT: note_on channel=5 note=59 velocity=74 time=0
EXTRACT: note_on channel=5 note=63 velocity=87 time=0
EXTRACT: note_on channel=5 note=68 velocity=82 time=0
EXTRACT: note_on channel=6 note=59 velocity=52 time=0
EXTRACT: note_on channel=6 note=63 velocity=65 time=0
EXTRACT: note_on channel=6 note=68 velocity=60 time=0
EXTRACT: note_on channel=7 note=59 velocity=62 time=0
EXTRACT: note_on channel=7 note=63 velocity=68 time=0
EXTRACT: note_on channel=9 note=67 velocity=49 time=0
EXTRACT: note_on channel=5 note=59 velocity=0 time=0.031746
EXTRACT: note_on channel=9 note=67 velocity=0 time=0.011904750000000002
EXTRACT: note_on channel=9 note=67 velocity=0 time=0
EXTRACT: note_on channel=5 note=63 velocity=0 time=0.009920625
EXTRACT: note_on channel=3 note=71 velocity=0 time=0.015873
EXTRACT: note_on channel=7 note=63 velocity=0 time=0.005952375000000001
EXTRACT: note_on channel=7 note=59 velocity=0 time=0
EXTRACT: note_on channel=5 note=68 velocity=0 time=0.013888875000000002
EXTRACT: note_on channel=1 note=35 velocity=74 time=0.01984125
EXTRACT: note_on channel=3 note=68 velocity=91 time=0
EXTRACT: note_on channel=7 note=56 velocity=90 time=0
EXTRACT: note_on channel=1 note=32 velocity=0 time=0.015873
EXTRACT: note_on channel=6 note=68 velocity=0 time=0.04761900000000001
EXTRACT: note_on channel=6 note=63 velocity=0 time=0
EXTRACT: note_on channel=6 note=59 velocity=0 time=0
EXTRACT: note_on channel=7 note=56 velocity=0 time=0.05158725000000001
EXTRACT: note_on channel=1 note=35 velocity=0 time=0.11706337500000001
EXTRACT: note_on channel=9 note=68 velocity=47 time=0.005952375000000001
EXTRACT: note_on channel=1 note=39 velocity=94 time=0
EXTRACT: note_on channel=5 note=59 velocity=78 time=0
EXTRACT: note_on channel=5 note=63 velocity=91 time=0
EXTRACT: note_on channel=5 note=68 velocity=86 time=0
EXTRACT: note_on channel=6 note=59 velocity=56 time=0
EXTRACT: note_on channel=6 note=63 velocity=69 time=0
EXTRACT: note_on channel=6 note=68 velocity=64 time=0
EXTRACT: note_on channel=7 note=59 velocity=59 time=0
EXTRACT: note_on channel=7 note=63 velocity=63 time=0
EXTRACT: note_on channel=9 note=68 velocity=47 time=0
EXTRACT: note_on channel=9 note=68 velocity=0 time=0.03571425
EXTRACT: note_on channel=9 note=68 velocity=0 time=0
EXTRACT: note_on channel=5 note=59 velocity=0 time=0.013888875000000002
EXTRACT: note_on channel=5 note=63 velocity=0 time=0.005952375000000001
EXTRACT: note_on channel=7 note=63 velocity=0 time=0.0079365
EXTRACT: note_on channel=7 note=59 velocity=0 time=0
EXTRACT: note_on channel=10 note=51 velocity=0 time=0.017857125
EXTRACT: note_on channel=5 note=68 velocity=0 time=0.0079365
EXTRACT: note_on channel=10 note=56 velocity=0 time=0.001984125
EXTRACT: note_on channel=10 note=71 velocity=0 time=0.03373012500000001
EXTRACT: note_on channel=9 note=68 velocity=29 time=0.00396825
EXTRACT: note_on channel=10 note=68 velocity=0 time=0
EXTRACT: note_on channel=7 note=59 velocity=72 time=0
EXTRACT: note_on channel=7 note=63 velocity=72 time=0
EXTRACT: note_on channel=9 note=68 velocity=29 time=0
EXTRACT: note_on channel=10 note=63 velocity=0 time=0.00396825
EXTRACT: note_on channel=1 note=39 velocity=0 time=0.025793625000000004
EXTRACT: note_on channel=6 note=68 velocity=0 time=0.013888875000000002
EXTRACT: note_on channel=6 note=63 velocity=0 time=0
EXTRACT: note_on channel=6 note=59 velocity=0 time=0
EXTRACT: note_on channel=10 note=59 velocity=0 time=0.017857125
EXTRACT: note_on channel=7 note=59 velocity=0 time=0.001984125
EXTRACT: note_on channel=7 note=63 velocity=0 time=0.009920625
EXTRACT: note_on channel=3 note=68 velocity=0 time=0.001984125
EXTRACT: note_on channel=9 note=68 velocity=0 time=0.009920625
EXTRACT: note_on channel=9 note=68 velocity=0 time=0
EXTRACT: note_on channel=1 note=37 velocity=88 time=0.023809500000000004
EXTRACT: note_on channel=10 note=49 velocity=44 time=0
EXTRACT: note_on channel=10 note=52 velocity=55 time=0
EXTRACT: note_on channel=10 note=56 velocity=75 time=0
EXTRACT: note_on channel=10 note=61 velocity=44 time=0
EXTRACT: note_on channel=10 note=64 velocity=55 time=0
EXTRACT: note_on channel=10 note=68 velocity=67 time=0
EXTRACT: note_on channel=10 note=73 velocity=55 time=0
EXTRACT: note_on channel=3 note=64 velocity=90 time=0
EXTRACT: note_on channel=7 note=56 velocity=90 time=0
EXTRACT: note_on channel=5 note=61 velocity=71 time=0.12896812500000002
EXTRACT: note_on channel=5 note=64 velocity=85 time=0
EXTRACT: note_on channel=5 note=68 velocity=79 time=0
EXTRACT: note_on channel=6 note=61 velocity=49 time=0
EXTRACT: note_on channel=6 note=64 velocity=63 time=0
EXTRACT: note_on channel=6 note=68 velocity=57 time=0
EXTRACT: note_on channel=7 note=56 velocity=0 time=0.025793625000000004
EXTRACT: note_on channel=1 note=37 velocity=0 time=0.017857125
EXTRACT: note_on channel=5 note=61 velocity=0 time=0.017857125
EXTRACT: note_on channel=5 note=64 velocity=0 time=0.00396825
EXTRACT: note_on channel=5 note=68 velocity=0 time=0.005952375000000001
EXTRACT: note_on channel=9 note=67 velocity=48 time=0.037698375000000006
EXTRACT: note_on channel=1 note=37 velocity=82 time=0
EXTRACT: note_on channel=7 note=61 velocity=54 time=0
EXTRACT: note_on channel=7 note=64 velocity=65 time=0
EXTRACT: note_on channel=9 note=67 velocity=48 time=0
EXTRACT: note_on channel=9 note=67 velocity=0 time=0.041666625000000006
EXTRACT: note_on channel=9 note=67 velocity=0 time=0
EXTRACT: note_on channel=6 note=68 velocity=0 time=0.021825375
EXTRACT: note_on channel=6 note=64 velocity=0 time=0
EXTRACT: note_on channel=6 note=61 velocity=0 time=0
EXTRACT: note_on channel=7 note=64 velocity=0 time=0
EXTRACT: note_on channel=7 note=61 velocity=0 time=0
EXTRACT: note_on channel=9 note=67 velocity=39 time=0.06547612500000001
EXTRACT: note_on channel=7 note=61 velocity=65 time=0
EXTRACT: note_on channel=7 note=64 velocity=68 time=0
EXTRACT: note_on channel=9 note=67 velocity=39 time=0
EXTRACT: note_on channel=7 note=64 velocity=0 time=0.063492
EXTRACT: note_on channel=9 note=67 velocity=0 time=0.001984125
EXTRACT: note_on channel=7 note=61 velocity=0 time=0
EXTRACT: note_on channel=9 note=67 velocity=0 time=0
EXTRACT: note_on channel=3 note=64 velocity=0 time=0.023809500000000004
EXTRACT: note_on channel=1 note=32 velocity=86 time=0.01984125
EXTRACT: note_on channel=3 note=61 velocity=80 time=0
EXTRACT: note_on channel=5 note=61 velocity=68 time=0
EXTRACT: note_on channel=5 note=64 velocity=80 time=0
EXTRACT: note_on channel=5 note=68 velocity=82 time=0
EXTRACT: note_on channel=6 note=61 velocity=46 time=0
EXTRACT: note_on channel=6 note=64 velocity=58 time=0
EXTRACT: note_on channel=6 note=68 velocity=60 time=0
EXTRACT: note_on channel=7 note=56 velocity=90 time=0
EXTRACT: note_on channel=1 note=37 velocity=0 time=0.015873
EXTRACT: note_on channel=5 note=64 velocity=0 time=0.049603125000000005
EXTRACT: note_on channel=5 note=61 velocity=0 time=0.009920625
EXTRACT: note_on channel=5 note=68 velocity=0 time=0.023809500000000004
EXTRACT: note_on channel=7 note=56 velocity=0 time=0.009920625
EXTRACT: note_on channel=6 note=68 velocity=0 time=0.063492
EXTRACT: note_on channel=6 note=64 velocity=0 time=0
EXTRACT: note_on channel=6 note=61 velocity=0 time=0
EXTRACT: note_on channel=3 note=61 velocity=0 time=0.057539625000000004
EXTRACT: note_on channel=1 note=32 velocity=0 time=0.001984125
EXTRACT: note_on channel=9 note=36 velocity=90 time=0.005952375000000001
EXTRACT: note_on channel=9 note=68 velocity=57 time=0
EXTRACT: note_on channel=1 note=35 velocity=80 time=0
EXTRACT: note_on channel=10 note=52 velocity=0 time=0
EXTRACT: note_on channel=3 note=59 velocity=80 time=0
EXTRACT: note_on channel=5 note=61 velocity=78 time=0
EXTRACT: note_on channel=5 note=64 velocity=80 time=0
EXTRACT: note_on channel=5 note=68 velocity=85 time=0
EXTRACT: note_on channel=6 note=61 velocity=56 time=0
EXTRACT: note_on channel=6 note=64 velocity=58 time=0
EXTRACT: note_on channel=6 note=68 velocity=63 time=0
EXTRACT: note_on channel=7 note=61 velocity=56 time=0
EXTRACT: note_on channel=7 note=64 velocity=62 time=0
EXTRACT: note_on channel=9 note=36 velocity=90 time=0
EXTRACT: note_on channel=9 note=68 velocity=57 time=0
EXTRACT: note_on channel=10 note=49 velocity=0 time=0.0396825
EXTRACT: note_on channel=9 note=68 velocity=0 time=0.015873
EXTRACT: note_on channel=9 note=68 velocity=0 time=0
EXTRACT: note_on channel=5 note=61 velocity=0 time=0.00396825
EXTRACT: note_on channel=5 note=64 velocity=0 time=0.001984125
EXTRACT: note_on channel=7 note=64 velocity=0 time=0.001984125
EXTRACT: note_on channel=7 note=61 velocity=0 time=0
EXTRACT: note_on channel=10 note=73 velocity=0 time=0.009920625
EXTRACT: note_on channel=5 note=68 velocity=0 time=0
EXTRACT: note_on channel=10 note=64 velocity=0 time=0.005952375000000001
EXTRACT: note_on channel=9 note=36 velocity=0 time=0.00396825
EXTRACT: note_on channel=9 note=36 velocity=0 time=0
EXTRACT: note_on channel=10 note=68 velocity=0 time=0.001984125
EXTRACT: note_on channel=10 note=61 velocity=0 time=0.023809500000000004
EXTRACT: note_on channel=10 note=56 velocity=0 time=0.013888875000000002
EXTRACT: note_on channel=9 note=68 velocity=39 time=0.005952375000000001
EXTRACT: note_on channel=7 note=61 velocity=67 time=0
EXTRACT: note_on channel=7 note=64 velocity=65 time=0
EXTRACT: note_on channel=9 note=68 velocity=39 time=0
EXTRACT: note_on channel=6 note=68 velocity=0 time=0.04365075
EXTRACT: note_on channel=6 note=64 velocity=0 time=0
EXTRACT: note_on channel=6 note=61 velocity=0 time=0
EXTRACT: note_on channel=7 note=64 velocity=0 time=0.01984125
EXTRACT: note_on channel=7 note=61 velocity=0 time=0.0079365
EXTRACT: note_on channel=9 note=68 velocity=0 time=0.001984125
EXTRACT: note_on channel=9 note=68 velocity=0 time=0
EXTRACT: note_on channel=3 note=59 velocity=0 time=0.005952375000000001
EXTRACT: note_on channel=1 note=35 velocity=0 time=0.005952375000000001
EXTRACT: note_on channel=9 note=36 velocity=93 time=0.023809500000000004
EXTRACT: note_on channel=1 note=33 velocity=80 time=0
EXTRACT: note_on channel=10 note=45 velocity=32 time=0
EXTRACT: note_on channel=10 note=52 velocity=70 time=0
EXTRACT: note_on channel=10 note=57 velocity=56 time=0
EXTRACT: note_on channel=10 note=61 velocity=49 time=0
EXTRACT: note_on channel=10 note=69 velocity=74 time=0
EXTRACT: note_on channel=10 note=73 velocity=54 time=0
EXTRACT: note_on channel=4 note=64 velocity=110 time=0
EXTRACT: note_on channel=5 note=61 velocity=76 time=0
EXTRACT: note_on channel=5 note=64 velocity=77 time=0
EXTRACT: note_on channel=5 note=69 velocity=85 time=0
EXTRACT: note_on channel=6 note=61 velocity=54 time=0
EXTRACT: note_on channel=6 note=64 velocity=55 time=0
EXTRACT: note_on channel=6 note=69 velocity=63 time=0
EXTRACT: note_on channel=7 note=52 velocity=95 time=0
EXTRACT: note_on channel=9 note=36 velocity=93 time=0
EXTRACT: note_on channel=5 note=64 velocity=0 time=0.031746
EXTRACT: note_on channel=5 note=69 velocity=0 time=0.027777750000000004
EXTRACT: note_on channel=5 note=61 velocity=0 time=0.009920625
EXTRACT: note_on channel=9 note=36 velocity=0 time=0.011904750000000002
EXTRACT: note_on channel=9 note=36 velocity=0 time=0
EXTRACT: note_on channel=4 note=64 velocity=0 time=0.00396825
EXTRACT: note_on channel=7 note=52 velocity=0 time=0.00396825
EXTRACT: note_on channel=1 note=33 velocity=0 time=0.053571375000000004
EXTRACT: note_on channel=6 note=69 velocity=0 time=0.029761875000000004
EXTRACT: note_on channel=6 note=64 velocity=0 time=0
EXTRACT: note_on channel=6 note=61 velocity=0 time=0
EXTRACT: note_on channel=9 note=67 velocity=40 time=0.06547612500000001
EXTRACT: note_on channel=1 note=33 velocity=76 time=0
EXTRACT: note_on channel=4 note=64 velocity=103 time=0
EXTRACT: note_on channel=7 note=57 velocity=48 time=0
EXTRACT: note_on channel=7 note=61 velocity=56 time=0
EXTRACT: note_on channel=9 note=67 velocity=40 time=0
EXTRACT: note_on channel=9 note=67 velocity=0 time=0.04365075
EXTRACT: note_on channel=9 note=67 velocity=0 time=0
EXTRACT: note_on channel=7 note=61 velocity=0 time=0.01984125
EXTRACT: note_on channel=7 note=57 velocity=0 time=0
EXTRACT: note_on channel=9 note=67 velocity=46 time=0.06547612500000001
EXTRACT: note_on channel=5 note=61 velocity=66 time=0
EXTRACT: note_on channel=5 note=64 velocity=78 time=0
EXTRACT: note_on channel=5 note=69 velocity=80 time=0
EXTRACT: note_on channel=6 note=61 velocity=44 time=0
EXTRACT: note_on channel=6 note=64 velocity=56 time=0
EXTRACT: note_on channel=6 note=69 velocity=58 time=0
EXTRACT: note_on channel=7 note=57 velocity=66 time=0
EXTRACT: note_on channel=7 note=61 velocity=65 time=0
EXTRACT: note_on channel=9 note=67 velocity=46 time=0
EXTRACT: note_on channel=5 note=64 velocity=0 time=0.05555550000000001
EXTRACT: note_on channel=5 note=61 velocity=0 time=0.005952375000000001
EXTRACT: note_on channel=9 note=67 velocity=0 time=0.0079365
EXTRACT: note_on channel=9 note=67 velocity=0 time=0
EXTRACT: note_on channel=7 note=57 velocity=0 time=0.00396825
EXTRACT: note_on channel=5 note=69 velocity=0 time=0.009920625
EXTRACT: note_on channel=7 note=61 velocity=0 time=0.005952375000000001
EXTRACT: note_on channel=4 note=64 velocity=0 time=0.015873
EXTRACT: note_on channel=1 note=37 velocity=77 time=0.00396825
EXTRACT: note_on channel=4 note=61 velocity=87 time=0
EXTRACT: note_on channel=7 note=52 velocity=88 time=0
EXTRACT: note_on channel=1 note=33 velocity=0 time=0.023809500000000004
EXTRACT: note_on channel=6 note=69 velocity=0 time=0.0396825
EXTRACT: note_on channel=6 note=64 velocity=0 time=0
EXTRACT: note_on channel=6 note=61 velocity=0 time=0
EXTRACT: note_on channel=7 note=52 velocity=0 time=0.097222125
EXTRACT: note_on channel=4 note=61 velocity=0 time=0.03373012500000001
EXTRACT: note_on channel=9 note=68 velocity=38 time=0.04365075
EXTRACT: note_on channel=1 note=37 velocity=0 time=0
EXTRACT: note_on channel=1 note=40 velocity=81 time=0
EXTRACT: note_on channel=4 note=59 velocity=84 time=0
EXTRACT: note_on channel=5 note=61 velocity=71 time=0
EXTRACT: note_on channel=5 note=64 velocity=81 time=0
EXTRACT: note_on channel=5 note=69 velocity=93 time=0
EXTRACT: note_on channel=6 note=61 velocity=49 time=0
EXTRACT: note_on channel=6 note=64 velocity=59 time=0
EXTRACT: note_on channel=6 note=69 velocity=71 time=0
EXTRACT: note_on channel=7 note=57 velocity=64 time=0
EXTRACT: note_on channel=7 note=61 velocity=65 time=0
EXTRACT: note_on channel=9 note=68 velocity=38 time=0
EXTRACT: note_on channel=9 note=68 velocity=0 time=0.041666625000000006
EXTRACT: note_on channel=10 note=45 velocity=0 time=0
EXTRACT: note_on channel=9 note=68 velocity=0 time=0
EXTRACT: note_on channel=10 note=52 velocity=0 time=0.021825375
EXTRACT: note_on channel=7 note=57 velocity=0 time=0
EXTRACT: note_on channel=5 note=64 velocity=0 time=0.005952375000000001
EXTRACT: note_on channel=5 note=61 velocity=0 time=0.00396825
EXTRACT: note_on channel=7 note=61 velocity=0 time=0
EXTRACT: note_on channel=5 note=69 velocity=0 time=0.005952375000000001
EXTRACT: note_on channel=10 note=57 velocity=0 time=0.021825375
EXTRACT: note_on channel=10 note=69 velocity=0 time=0.011904750000000002
EXTRACT: note_on channel=9 note=68 velocity=40 time=0.015873
EXTRACT: note_on channel=7 note=57 velocity=73 time=0
EXTRACT: note_on channel=7 note=61 velocity=60 time=0
EXTRACT: note_on channel=9 note=68 velocity=40 time=0
EXTRACT: note_on channel=10 note=61 velocity=0 time=0.005952375000000001
EXTRACT: note_on channel=10 note=73 velocity=0 time=0.015873
EXTRACT: note_on channel=6 note=69 velocity=0 time=0.021825375
EXTRACT: note_on channel=6 note=64 velocity=0 time=0
EXTRACT: note_on channel=6 note=61 velocity=0 time=0
EXTRACT: note_on channel=7 note=57 velocity=0 time=0.01984125
EXTRACT: note_on channel=9 note=68 velocity=0 time=0.009920625
EXTRACT: note_on channel=9 note=68 velocity=0 time=0
EXTRACT: note_on channel=7 note=61 velocity=0 time=0.005952375000000001
EXTRACT: note_on channel=4 note=59 velocity=0 time=0.025793625000000004
EXTRACT: note_on channel=9 note=36 velocity=93 time=0.00396825
EXTRACT: note_on channel=1 note=35 velocity=84 time=0
EXTRACT: note_on channel=10 note=47 velocity=49 time=0
EXTRACT: note_on channel=10 note=54 velocity=67 time=0
EXTRACT: note_on channel=10 note=59 velocity=68 time=0
EXTRACT: note_on channel=10 note=66 velocity=57 time=0
EXTRACT: note_on channel=10 note=71 velocity=62 time=0
EXTRACT: note_on channel=4 note=64 velocity=103 time=0
EXTRACT: note_on channel=7 note=54 velocity=83 time=0
EXTRACT: note_on channel=9 note=36 velocity=93 time=0
EXTRACT: note_on channel=1 note=40 velocity=0 time=0.001984125
EXTRACT: note_on channel=9 note=36 velocity=0 time=0.077380875
EXTRACT: note_on channel=9 note=36 velocity=0 time=0
EXTRACT: note_on channel=4 note=64 velocity=0 time=0.029761875000000004
EXTRACT: note_on channel=7 note=54 velocity=0 time=0.005952375000000001
EXTRACT: note_on channel=5 note=59 velocity=75 time=0.013888875000000002
EXTRACT: note_on channel=5 note=64 velocity=79 time=0
EXTRACT: note_on channel=5 note=66 velocity=75 time=0
EXTRACT: note_on channel=6 note=59 velocity=53 time=0
EXTRACT: note_on channel=6 note=64 velocity=57 time=0
EXTRACT: note_on channel=6 note=66 velocity=53 time=0
EXTRACT: note_on channel=5 note=64 velocity=0 time=0.029761875000000004
EXTRACT: note_on channel=5 note=59 velocity=0 time=0.001984125
EXTRACT: note_on channel=5 note=66 velocity=0 time=0.041666625000000006
EXTRACT: note_on channel=9 note=67 velocity=28 time=0.03571425
EXTRACT: note_on channel=4 note=64 velocity=99 time=0
EXTRACT: note_on channel=7 note=57 velocity=55 time=0
EXTRACT: note_on channel=7 note=59 velocity=64 time=0
EXTRACT: note_on channel=9 note=67 velocity=28 time=0
EXTRACT: note_on channel=9 note=67 velocity=0 time=0.045634875000000005
EXTRACT: note_on channel=9 note=67 velocity=0 time=0
EXTRACT: note_on channel=6 note=66 velocity=0 time=0.017857125
EXTRACT: note_on channel=6 note=64 velocity=0 time=0
EXTRACT: note_on channel=6 note=59 velocity=0 time=0
EXTRACT: note_on channel=7 note=59 velocity=0 time=0
EXTRACT: note_on channel=7 note=57 velocity=0 time=0
EXTRACT: note_on channel=9 note=67 velocity=47 time=0.06547612500000001
EXTRACT: note_on channel=7 note=57 velocity=66 time=0
EXTRACT: note_on channel=7 note=59 velocity=76 time=0
EXTRACT: note_on channel=9 note=67 velocity=47 time=0
EXTRACT: note_on channel=9 note=67 velocity=0 time=0.05158725000000001
EXTRACT: note_on channel=9 note=67 velocity=0 time=0
EXTRACT: note_on channel=7 note=57 velocity=0 time=0.01984125
EXTRACT: note_on channel=7 note=59 velocity=0 time=0.0079365
EXTRACT: note_on channel=4 note=64 velocity=0 time=0.025793625000000004
EXTRACT: note_on channel=1 note=39 velocity=90 time=0.00396825
EXTRACT: note_on channel=4 note=61 velocity=87 time=0
EXTRACT: note_on channel=5 note=59 velocity=72 time=0
EXTRACT: note_on channel=5 note=64 velocity=81 time=0
EXTRACT: note_on channel=5 note=66 velocity=76 time=0
EXTRACT: note_on channel=6 note=59 velocity=50 time=0
EXTRACT: note_on channel=6 note=64 velocity=59 time=0
EXTRACT: note_on channel=6 note=66 velocity=54 time=0
EXTRACT: note_on channel=7 note=54 velocity=84 time=0
EXTRACT: note_on channel=1 note=35 velocity=0 time=0.015873
EXTRACT: note_on channel=5 note=59 velocity=0 time=0.009920625
EXTRACT: note_on channel=5 note=64 velocity=0 time=0.037698375000000006
EXTRACT: note_on channel=5 note=66 velocity=0 time=0.009920625
EXTRACT: note_on channel=7 note=54 velocity=0 time=0.06547612500000001
EXTRACT: note_on channel=6 note=66 velocity=0 time=0.03373012500000001
EXTRACT: note_on channel=6 note=64 velocity=0 time=0
EXTRACT: note_on channel=6 note=59 velocity=0 time=0
EXTRACT: note_on channel=4 note=61 velocity=0 time=0.015873
EXTRACT: note_on channel=1 note=39 velocity=0 time=0.03373012500000001
EXTRACT: note_on channel=9 note=68 velocity=45 time=0.015873
EXTRACT: note_on channel=1 note=42 velocity=86 time=0
EXTRACT: note_on channel=4 note=59 velocity=89 time=0
EXTRACT: note_on channel=5 note=59 velocity=81 time=0
EXTRACT: note_on channel=5 note=63 velocity=78 time=0
EXTRACT: note_on channel=5 note=66 velocity=78 time=0
EXTRACT: note_on channel=6 note=59 velocity=59 time=0
EXTRACT: note_on channel=6 note=63 velocity=56 time=0
EXTRACT: note_on channel=6 note=66 velocity=56 time=0
EXTRACT: note_on channel=7 note=57 velocity=64 time=0
EXTRACT: note_on channel=7 note=59 velocity=70 time=0
EXTRACT: note_on channel=9 note=68 velocity=45 time=0
EXTRACT: note_on channel=10 note=47 velocity=0 time=0.023809500000000004
EXTRACT: note_on channel=9 note=68 velocity=0 time=0.03571425
EXTRACT: note_on channel=9 note=68 velocity=0 time=0
EXTRACT: note_on channel=10 note=71 velocity=0 time=0.001984125
EXTRACT: note_on channel=5 note=63 velocity=0 time=0.001984125
EXTRACT: note_on channel=7 note=59 velocity=0 time=0
EXTRACT: note_on channel=7 note=57 velocity=0 time=0
EXTRACT: note_on channel=10 note=54 velocity=0 time=0.005952375000000001
EXTRACT: note_on channel=5 note=59 velocity=0 time=0.00396825
EXTRACT: note_on channel=5 note=66 velocity=0 time=0.005952375000000001
EXTRACT: note_on channel=10 note=66 velocity=0 time=0.005952375000000001
EXTRACT: note_on channel=10 note=59 velocity=0 time=0.01984125
EXTRACT: note_on channel=9 note=68 velocity=29 time=0.023809500000000004
EXTRACT: note_on channel=7 note=57 velocity=69 time=0
EXTRACT: note_on channel=7 note=59 velocity=57 time=0
EXTRACT: note_on channel=9 note=68 velocity=29 time=0
EXTRACT: note_on channel=6 note=66 velocity=0 time=0.04365075
EXTRACT: note_on channel=6 note=63 velocity=0 time=0
EXTRACT: note_on channel=6 note=59 velocity=0 time=0
EXTRACT: note_on channel=7 note=59 velocity=0 time=0.01984125
EXTRACT: note_on channel=7 note=57 velocity=0 time=0.005952375000000001
EXTRACT: note_on channel=9 note=68 velocity=0 time=0.001984125
EXTRACT: note_on channel=9 note=68 velocity=0 time=0
EXTRACT: note_on channel=4 note=59 velocity=0 time=0.013888875000000002
EXTRACT: note_on channel=10 note=51 velocity=59 time=0.023809500000000004
EXTRACT: note_on channel=10 note=56 velocity=74 time=0
EXTRACT: note_on channel=10 note=59 velocity=68 time=0
EXTRACT: note_on channel=10 note=63 velocity=64 time=0
EXTRACT: note_on channel=10 note=68 velocity=74 time=0
EXTRACT: note_on channel=10 note=71 velocity=69 time=0
EXTRACT: note_on channel=5 note=59 velocity=78 time=0
EXTRACT: note_on channel=5 note=63 velocity=92 time=0
EXTRACT: note_on channel=5 note=68 velocity=86 time=0
EXTRACT: note_on channel=6 note=59 velocity=56 time=0
EXTRACT: note_on channel=6 note=63 velocity=70 time=0
EXTRACT: note_on channel=6 note=68 velocity=64 time=0
EXTRACT: note_on channel=7 note=56 velocity=91 time=0
EXTRACT: note_on channel=1 note=42 velocity=0 time=0.013888875000000002
EXTRACT: note_on channel=5 note=59 velocity=0 time=0.015873
EXTRACT: note_on channel=5 note=63 velocity=0 time=0.021825375
EXTRACT: note_on channel=5 note=68 velocity=0 time=0.03373012500000001
EXTRACT: note_on channel=7 note=56 velocity=0 time=0.04761900000000001
EXTRACT: note_on channel=6 note=68 velocity=0 time=0.0396825
EXTRACT: note_on channel=6 note=63 velocity=0 time=0
EXTRACT: note_on channel=6 note=59 velocity=0 time=0
EXTRACT: note_on channel=9 note=67 velocity=37 time=0.06547612500000001
EXTRACT: note_on channel=1 note=32 velocity=90 time=0
EXTRACT: note_on channel=3 note=73 velocity=91 time=0
EXTRACT: note_on channel=7 note=59 velocity=70 time=0
EXTRACT: note_on channel=7 note=63 velocity=70 time=0
EXTRACT: note_on channel=9 note=67 velocity=37 time=0
EXTRACT: note_on channel=9 note=67 velocity=0 time=0.041666625000000006
EXTRACT: note_on channel=9 note=67 velocity=0 time=0
EXTRACT: note_on channel=7 note=63 velocity=0 time=0.021825375
EXTRACT: note_on channel=7 note=59 velocity=0 time=0
EXTRACT: note_on channel=9 note=67 velocity=47 time=0.06547612500000001
EXTRACT: note_on channel=5 note=59 velocity=77 time=0
EXTRACT: note_on channel=5 note=63 velocity=87 time=0
EXTRACT: note_on channel=5 note=68 velocity=87 time=0
EXTRACT: note_on channel=6 note=59 velocity=55 time=0
EXTRACT: note_on channel=6 note=63 velocity=65 time=0
EXTRACT: note_on channel=6 note=68 velocity=65 time=0
EXTRACT: note_on channel=7 note=59 velocity=51 time=0
EXTRACT: note_on channel=7 note=63 velocity=77 time=0
EXTRACT: note_on channel=9 note=67 velocity=47 time=0
EXTRACT: note_on channel=5 note=59 velocity=0 time=0.029761875000000004
EXTRACT: note_on channel=5 note=63 velocity=0 time=0.01984125
EXTRACT: note_on channel=9 note=67 velocity=0 time=0.011904750000000002
EXTRACT: note_on channel=9 note=67 velocity=0 time=0
EXTRACT: note_on channel=7 note=63 velocity=0 time=0.0079365
EXTRACT: note_on channel=7 note=59 velocity=0 time=0.00396825
EXTRACT: note_on channel=5 note=68 velocity=0 time=0.011904750000000002
EXTRACT: note_on channel=3 note=73 velocity=0 time=0.01984125
EXTRACT: note_on channel=1 note=35 velocity=80 time=0.00396825
EXTRACT: note_on channel=3 note=71 velocity=94 time=0
EXTRACT: note_on channel=7 note=56 velocity=87 time=0
EXTRACT: note_on channel=1 note=32 velocity=0 time=0.021825375
EXTRACT: note_on channel=6 note=68 velocity=0 time=0.041666625000000006
EXTRACT: note_on channel=6 note=63 velocity=0 time=0
EXTRACT: note_on channel=6 note=59 velocity=0 time=0
EXTRACT: note_on channel=7 note=56 velocity=0 time=0.05952375000000001
EXTRACT: note_on channel=3 note=71 velocity=0 time=0.11111100000000002
EXTRACT: note_on channel=9 note=68 velocity=41 time=0.00396825
EXTRACT: note_on channel=1 note=39 velocity=84 time=0
EXTRACT: note_on channel=3 note=73 velocity=87 time=0
EXTRACT: note_on channel=5 note=59 velocity=82 time=0
EXTRACT: note_on channel=5 note=63 velocity=96 time=0
EXTRACT: note_on channel=5 note=68 velocity=89 time=0
EXTRACT: note_on channel=6 note=59 velocity=60 time=0
EXTRACT: note_on channel=6 note=63 velocity=74 time=0
EXTRACT: note_on channel=6 note=68 velocity=67 time=0
EXTRACT: note_on channel=7 note=59 velocity=74 time=0
EXTRACT: note_on channel=7 note=63 velocity=79 time=0
EXTRACT: note_on channel=9 note=68 velocity=41 time=0
EXTRACT: note_on channel=1 note=35 velocity=0 time=0.005952375000000001
EXTRACT: note_on channel=9 note=68 velocity=0 time=0.037698375000000006
EXTRACT: note_on channel=9 note=68 velocity=0 time=0
EXTRACT: note_on channel=5 note=59 velocity=0 time=0.011904750000000002
EXTRACT: note_on channel=5 note=63 velocity=0 time=0.005952375000000001
EXTRACT: note_on channel=7 note=59 velocity=0 time=0.001984125
EXTRACT: note_on channel=7 note=63 velocity=0 time=0.001984125
EXTRACT: note_on channel=10 note=68 velocity=0 time=0.027777750000000004
EXTRACT: note_on channel=10 note=71 velocity=0 time=0.001984125
EXTRACT: note_on channel=5 note=68 velocity=0 time=0
EXTRACT: note_on channel=10 note=51 velocity=0 time=0.015873
EXTRACT: note_on channel=9 note=68 velocity=42 time=0.017857125
EXTRACT: note_on channel=7 note=59 velocity=62 time=0
EXTRACT: note_on channel=7 note=63 velocity=75 time=0
EXTRACT: note_on channel=9 note=68 velocity=42 time=0
EXTRACT: note_on channel=10 note=63 velocity=0 time=0.005952375000000001
EXTRACT: note_on channel=10 note=56 velocity=0 time=0.015873
EXTRACT: note_on channel=3 note=73 velocity=0 time=0.0079365
EXTRACT: note_on channel=1 note=39 velocity=0 time=0.005952375000000001
EXTRACT: note_on channel=6 note=68 velocity=0 time=0.0079365
EXTRACT: note_on channel=6 note=63 velocity=0 time=0
EXTRACT: note_on channel=6 note=59 velocity=0 time=0
EXTRACT: note_on channel=7 note=63 velocity=0 time=0.01984125
EXTRACT: note_on channel=10 note=59 velocity=0 time=0.001984125
EXTRACT: note_on channel=9 note=68 velocity=0 time=0.005952375000000001
EXTRACT: note_on channel=9 note=68 velocity=0 time=0
EXTRACT: note_on channel=7 note=59 velocity=0 time=0.001984125
EXTRACT: note_on channel=1 note=37 velocity=87 time=0.03571425
EXTRACT: note_on channel=10 note=49 velocity=49 time=0
EXTRACT: note_on channel=10 note=52 velocity=58 time=0
EXTRACT: note_on channel=10 note=56 velocity=73 time=0
EXTRACT: note_on channel=10 note=61 velocity=43 time=0
EXTRACT: note_on channel=10 note=64 velocity=58 time=0
EXTRACT: note_on channel=10 note=68 velocity=75 time=0
EXTRACT: note_on channel=10 note=73 velocity=64 time=0
EXTRACT: note_on channel=7 note=56 velocity=89 time=0
EXTRACT: note_on channel=5 note=61 velocity=76 time=0.12896812500000002
EXTRACT: note_on channel=5 note=64 velocity=94 time=0
EXTRACT: note_on channel=5 note=68 velocity=87 time=0
EXTRACT: note_on channel=6 note=61 velocity=54 time=0
EXTRACT: note_on channel=6 note=64 velocity=72 time=0
EXTRACT: note_on channel=6 note=68 velocity=65 time=0
EXTRACT: note_on channel=7 note=56 velocity=0 time=0.031746
EXTRACT: note_on channel=1 note=37 velocity=0 time=0.0079365
EXTRACT: note_on channel=5 note=61 velocity=0 time=0.021825375
EXTRACT: note_on channel=5 note=64 velocity=0 time=0.001984125
EXTRACT: note_on channel=5 note=68 velocity=0 time=0.0079365
EXTRACT: note_on channel=9 note=65 velocity=92 time=0.037698375000000006
EXTRACT: note_on channel=9 note=67 velocity=55 time=0
EXTRACT: note_on channel=1 note=37 velocity=91 time=0
EXTRACT: note_on channel=3 note=73 velocity=85 time=0
EXTRACT: note_on channel=7 note=61 velocity=61 time=0
EXTRACT: note_on channel=7 note=64 velocity=69 time=0
EXTRACT: note_on channel=9 note=65 velocity=92 time=0
EXTRACT: note_on channel=9 note=67 velocity=55 time=0
EXTRACT: note_on channel=9 note=67 velocity=0 time=0.0396825
EXTRACT: note_on channel=9 note=67 velocity=0 time=0
EXTRACT: note_on channel=6 note=68 velocity=0 time=0.023809500000000004
EXTRACT: note_on channel=6 note=64 velocity=0 time=0
EXTRACT: note_on channel=6 note=61 velocity=0 time=0
EXTRACT: note_on channel=7 note=64 velocity=0 time=0
EXTRACT: note_on channel=7 note=61 velocity=0 time=0
EXTRACT: note_on channel=9 note=65 velocity=0 time=0.001984125
EXTRACT: note_on channel=9 note=65 velocity=0 time=0
EXTRACT: note_on channel=9 note=65 velocity=84 time=0.063492
EXTRACT: note_on channel=9 note=67 velocity=40 time=0
EXTRACT: note_on channel=7 note=61 velocity=69 time=0
EXTRACT: note_on channel=7 note=64 velocity=67 time=0
EXTRACT: note_on channel=9 note=65 velocity=84 time=0
EXTRACT: note_on channel=9 note=67 velocity=40 time=0
EXTRACT: note_on channel=9 note=67 velocity=0 time=0.04365075
EXTRACT: note_on channel=9 note=67 velocity=0 time=0
EXTRACT: note_on channel=9 note=65 velocity=0 time=0.011904750000000002
EXTRACT: note_on channel=9 note=65 velocity=0 time=0
EXTRACT: note_on channel=7 note=64 velocity=0 time=0.017857125
EXTRACT: note_on channel=7 note=61 velocity=0 time=0.005952375000000001
EXTRACT: note_on channel=1 note=37 velocity=0 time=0.00396825
EXTRACT: note_on channel=3 note=73 velocity=0 time=0.021825375
EXTRACT: note_on channel=9 note=66 velocity=87 time=0.00396825
EXTRACT: note_on channel=1 note=35 velocity=82 time=0
EXTRACT: note_on channel=3 note=71 velocity=91 time=0
EXTRACT: note_on channel=5 note=61 velocity=71 time=0
EXTRACT: note_on channel=5 note=64 velocity=85 time=0
EXTRACT: note_on channel=5 note=68 velocity=80 time=0
EXTRACT: note_on channel=6 note=61 velocity=49 time=0
EXTRACT: note_on channel=6 note=64 velocity=63 time=0
EXTRACT: note_on channel=6 note=68 velocity=58 time=0
EXTRACT: note_on channel=7 note=56 velocity=86 time=0
EXTRACT: note_on channel=9 note=66 velocity=87 time=0
EXTRACT: note_on channel=5 note=64 velocity=0 time=0.06547612500000001
EXTRACT: note_on channel=5 note=61 velocity=0 time=0.00396825
EXTRACT: note_on channel=5 note=68 velocity=0 time=0.011904750000000002
EXTRACT: note_on channel=9 note=66 velocity=0 time=0.001984125
EXTRACT: note_on channel=9 note=66 velocity=0 time=0
EXTRACT: note_on channel=7 note=56 velocity=0 time=0.0396825
EXTRACT: note_on channel=6 note=68 velocity=0 time=0.049603125000000005
EXTRACT: note_on channel=6 note=64 velocity=0 time=0
EXTRACT: note_on channel=6 note=61 velocity=0 time=0
EXTRACT: note_on channel=3 note=71 velocity=0 time=0.041666625000000006
EXTRACT: note_on channel=9 note=36 velocity=93 time=0.023809500000000004
EXTRACT: note_on channel=9 note=66 velocity=75 time=0
EXTRACT: note_on channel=9 note=68 velocity=48 time=0
EXTRACT: note_on channel=1 note=35 velocity=0 time=0
EXTRACT: note_on channel=1 note=37 velocity=88 time=0
EXTRACT: note_on channel=3 note=73 velocity=83 time=0
EXTRACT: note_on channel=5 note=61 velocity=80 time=0
EXTRACT: note_on channel=5 note=64 velocity=87 time=0
EXTRACT: note_on channel=5 note=68 velocity=88 time=0
EXTRACT: note_on channel=6 note=61 velocity=58 time=0
EXTRACT: note_on channel=6 note=64 velocity=65 time=0
EXTRACT: note_on channel=6 note=68 velocity=66 time=0
EXTRACT: note_on channel=7 note=61 velocity=71 time=0
EXTRACT: note_on channel=7 note=64 velocity=76 time=0
EXTRACT: note_on channel=9 note=36 velocity=93 time=0
EXTRACT: note_on channel=9 note=66 velocity=75 time=0
EXTRACT: note_on channel=9 note=68 velocity=48 time=0
EXTRACT: note_on channel=10 note=52 velocity=0 time=0.01984125
EXTRACT: note_on channel=9 note=68 velocity=0 time=0.005952375000000001
EXTRACT: note_on channel=9 note=68 velocity=0 time=0
EXTRACT: note_on channel=10 note=64 velocity=0 time=0.029761875000000004
EXTRACT: note_on channel=10 note=49 velocity=0 time=0.0079365
EXTRACT: note_on channel=5 note=64 velocity=0 time=0.001984125
EXTRACT: note_on channel=5 note=61 velocity=0 time=0
EXTRACT: note_on channel=9 note=66 velocity=0 time=0.00396825
EXTRACT: note_on channel=5 note=68 velocity=0 time=0
EXTRACT: note_on channel=7 note=64 velocity=0 time=0
EXTRACT: note_on channel=9 note=66 velocity=0 time=0
EXTRACT: note_on channel=7 note=61 velocity=0 time=0.005952375000000001
EXTRACT: note_on channel=10 note=61 velocity=0 time=0.00396825
EXTRACT: note_on channel=9 note=36 velocity=0 time=0.001984125
EXTRACT: note_on channel=9 note=36 velocity=0 time=0
EXTRACT: note_on channel=10 note=56 velocity=0 time=0.013888875000000002
EXTRACT: note_on channel=10 note=73 velocity=0 time=0.009920625
EXTRACT: note_on channel=10 note=68 velocity=0 time=0.00396825
EXTRACT: note_on channel=9 note=65 velocity=79 time=0.01984125
EXTRACT: note_on channel=9 note=68 velocity=54 time=0
EXTRACT: note_on channel=7 note=61 velocity=66 time=0
EXTRACT: note_on channel=7 note=64 velocity=72 time=0
EXTRACT: note_on channel=9 note=65 velocity=79 time=0
EXTRACT: note_on channel=9 note=68 velocity=54 time=0
EXTRACT: note_on channel=3 note=73 velocity=0 time=0.04365075
EXTRACT: note_on channel=6 note=68 velocity=0 time=0
EXTRACT: note_on channel=6 note=64 velocity=0 time=0
EXTRACT: note_on channel=6 note=61 velocity=0 time=0
EXTRACT: note_on channel=1 note=37 velocity=0 time=0.0079365
EXTRACT: note_on channel=9 note=68 velocity=0 time=0.009920625
EXTRACT: note_on channel=9 note=68 velocity=0 time=0
EXTRACT: note_on channel=7 note=64 velocity=0 time=0.001984125
EXTRACT: note_on channel=7 note=61 velocity=0 time=0.015873
EXTRACT: note_on channel=9 note=36 velocity=111 time=0.029761875000000004
EXTRACT: note_on channel=9 note=49 velocity=92 time=0
EXTRACT: note_on channel=1 note=33 velocity=85 time=0
EXTRACT: note_on channel=10 note=45 velocity=54 time=0
EXTRACT: note_on channel=10 note=52 velocity=79 time=0
EXTRACT: note_on channel=10 note=57 velocity=51 time=0
EXTRACT: note_on channel=10 note=61 velocity=61 time=0
EXTRACT: note_on channel=10 note=69 velocity=80 time=0
EXTRACT: note_on channel=10 note=73 velocity=44 time=0
EXTRACT: note_on channel=10 note=76 velocity=79 time=0
EXTRACT: note_on channel=4 note=64 velocity=118 time=0
EXTRACT: note_on channel=5 note=61 velocity=84 time=0
EXTRACT: note_on channel=5 note=64 velocity=83 time=0
EXTRACT: note_on channel=5 note=69 velocity=78 time=0
EXTRACT: note_on channel=6 note=61 velocity=62 time=0
EXTRACT: note_on channel=6 note=64 velocity=61 time=0
EXTRACT: note_on channel=6 note=69 velocity=56 time=0
EXTRACT: note_on channel=7 note=52 velocity=91 time=0
EXTRACT: note_on channel=9 note=36 velocity=111 time=0
EXTRACT: note_on channel=9 note=49 velocity=92 time=0
EXTRACT: note_on channel=9 note=65 velocity=0 time=0.005952375000000001
EXTRACT: note_on channel=9 note=65 velocity=0 time=0
EXTRACT: note_on channel=5 note=64 velocity=0 time=0.04761900000000001
EXTRACT: note_on channel=9 note=36 velocity=0 time=0.011904750000000002
EXTRACT: note_on channel=9 note=36 velocity=0 time=0
EXTRACT: note_on channel=5 note=69 velocity=0 time=0.00396825
EXTRACT: note_on channel=5 note=61 velocity=0 time=0
EXTRACT: note_on channel=9 note=49 velocity=0 time=0.00396825
EXTRACT: note_on channel=9 note=49 velocity=0 time=0
EXTRACT: note_on channel=7 note=52 velocity=0 time=0.029761875000000004
EXTRACT: note_on channel=4 note=64 velocity=0 time=0.005952375000000001
EXTRACT: note_on channel=1 note=33 velocity=0 time=0.05158725000000001
EXTRACT: note_on channel=6 note=69 velocity=0 time=0.011904750000000002
EXTRACT: note_on channel=6 note=64 velocity=0 time=0
EXTRACT: note_on channel=6 note=61 velocity=0 time=0
EXTRACT: note_on channel=9 note=67 velocity=41 time=0.06547612500000001
EXTRACT: note_on channel=1 note=33 velocity=80 time=0
EXTRACT: note_on channel=4 note=64 velocity=101 time=0
EXTRACT: note_on channel=7 note=57 velocity=51 time=0
EXTRACT: note_on channel=7 note=61 velocity=56 time=0
EXTRACT: note_on channel=9 note=67 velocity=41 time=0
EXTRACT: note_on channel=9 note=67 velocity=0 time=0.041666625000000006
EXTRACT: note_on channel=9 note=67 velocity=0 time=0
EXTRACT: note_on channel=7 note=61 velocity=0 time=0.021825375
EXTRACT: note_on channel=7 note=57 velocity=0 time=0
EXTRACT: note_on channel=9 note=67 velocity=33 time=0.06547612500000001
EXTRACT: note_on channel=5 note=61 velocity=74 time=0
EXTRACT: note_on channel=5 note=64 velocity=83 time=0
EXTRACT: note_on channel=5 note=69 velocity=87 time=0
EXTRACT: note_on channel=6 note=61 velocity=52 time=0
EXTRACT: note_on channel=6 note=64 velocity=61 time=0
EXTRACT: note_on channel=6 note=69 velocity=65 time=0
EXTRACT: note_on channel=7 note=57 velocity=75 time=0
EXTRACT: note_on channel=7 note=61 velocity=60 time=0
EXTRACT: note_on channel=9 note=67 velocity=33 time=0
EXTRACT: note_on channel=9 note=67 velocity=0 time=0.04365075
EXTRACT: note_on channel=9 note=67 velocity=0 time=0
EXTRACT: note_on channel=5 note=64 velocity=0 time=0.01984125
EXTRACT: note_on channel=7 note=57 velocity=0 time=0
EXTRACT: note_on channel=5 note=61 velocity=0 time=0.005952375000000001
EXTRACT: note_on channel=5 note=69 velocity=0 time=0.011904750000000002
EXTRACT: note_on channel=1 note=33 velocity=0 time=0.001984125
EXTRACT: note_on channel=7 note=61 velocity=0 time=0.015873
EXTRACT: note_on channel=4 note=64 velocity=0 time=0.001984125
EXTRACT: note_on channel=1 note=37 velocity=78 time=0.0079365
EXTRACT: note_on channel=4 note=61 velocity=87 time=0
EXTRACT: note_on channel=7 note=52 velocity=95 time=0
EXTRACT: note_on channel=6 note=69 velocity=0 time=0.063492
EXTRACT: note_on channel=6 note=64 velocity=0 time=0
EXTRACT: note_on channel=6 note=61 velocity=0 time=0
EXTRACT: note_on channel=7 note=52 velocity=0 time=0.11111100000000002
EXTRACT: note_on channel=4 note=61 velocity=0 time=0.017857125
EXTRACT: note_on channel=1 note=37 velocity=0 time=0.021825375
EXTRACT: note_on channel=9 note=68 velocity=66 time=0.023809500000000004
EXTRACT: note_on channel=1 note=40 velocity=90 time=0
EXTRACT: note_on channel=4 note=59 velocity=83 time=0
EXTRACT: note_on channel=5 note=61 velocity=81 time=0
EXTRACT: note_on channel=5 note=64 velocity=87 time=0
EXTRACT: note_on channel=5 note=69 velocity=92 time=0
EXTRACT: note_on channel=6 note=61 velocity=59 time=0
EXTRACT: note_on channel=6 note=64 velocity=65 time=0
EXTRACT: note_on channel=6 note=69 velocity=70 time=0
EXTRACT: note_on channel=7 note=57 velocity=62 time=0
EXTRACT: note_on channel=7 note=61 velocity=65 time=0
EXTRACT: note_on channel=9 note=68 velocity=66 time=0
EXTRACT: note_on channel=10 note=45 velocity=0 time=0.023809500000000004
EXTRACT: note_on channel=5 note=61 velocity=0 time=0.0396825
EXTRACT: note_on channel=7 note=57 velocity=0 time=0
EXTRACT: note_on channel=9 note=68 velocity=0 time=0.001984125
EXTRACT: note_on channel=9 note=68 velocity=0 time=0
EXTRACT: note_on channel=10 note=52 velocity=0 time=0.00396825
EXTRACT: note_on channel=5 note=64 velocity=0 time=0
EXTRACT: note_on channel=7 note=61 velocity=0 time=0.001984125
EXTRACT: note_on channel=5 note=69 velocity=0 time=0.0079365
EXTRACT: note_on channel=10 note=57 velocity=0 time=0.001984125
EXTRACT: note_on channel=10 note=73 velocity=0 time=0.027777750000000004
EXTRACT: note_on channel=10 note=69 velocity=0 time=0.005952375000000001
EXTRACT: note_on channel=10 note=76 velocity=0 time=0.00396825
EXTRACT: note_on channel=9 note=68 velocity=40 time=0.009920625
EXTRACT: note_on channel=7 note=57 velocity=69 time=0
EXTRACT: note_on channel=7 note=61 velocity=68 time=0
EXTRACT: note_on channel=9 note=68 velocity=40 time=0
EXTRACT: note_on channel=10 note=61 velocity=0 time=0.00396825
EXTRACT: note_on channel=9 note=68 velocity=0 time=0.031746
EXTRACT: note_on channel=9 note=68 velocity=0 time=0
EXTRACT: note_on channel=6 note=69 velocity=0 time=0.0079365
EXTRACT: note_on channel=6 note=64 velocity=0 time=0
EXTRACT: note_on channel=6 note=61 velocity=0 time=0
EXTRACT: note_on channel=7 note=57 velocity=0 time=0.01984125
EXTRACT: note_on channel=7 note=61 velocity=0 time=0.015873
EXTRACT: note_on channel=4 note=59 velocity=0 time=0.01984125
EXTRACT: note_on channel=1 note=40 velocity=0 time=0.005952375000000001
EXTRACT: note_on channel=9 note=36 velocity=106 time=0.00396825
EXTRACT: note_on channel=1 note=35 velocity=85 time=0
EXTRACT: note_on channel=10 note=47 velocity=47 time=0
EXTRACT: note_on channel=10 note=54 velocity=67 time=0
EXTRACT: note_on channel=10 note=59 velocity=64 time=0
EXTRACT: note_on channel=10 note=66 velocity=61 time=0
EXTRACT: note_on channel=10 note=71 velocity=69 time=0
EXTRACT: note_on channel=10 note=75 velocity=52 time=0
EXTRACT: note_on channel=10 note=78 velocity=67 time=0
EXTRACT: note_on channel=4 note=64 velocity=99 time=0
EXTRACT: note_on channel=7 note=54 velocity=87 time=0
EXTRACT: note_on channel=9 note=36 velocity=106 time=0
EXTRACT: note_on channel=9 note=36 velocity=0 time=0.07341262500000001
EXTRACT: note_on channel=9 note=36 velocity=0 time=0
EXTRACT: note_on channel=4 note=64 velocity=0 time=0.03571425
EXTRACT: note_on channel=5 note=59 velocity=75 time=0.01984125
EXTRACT: note_on channel=5 note=64 velocity=82 time=0
EXTRACT: note_on channel=5 note=66 velocity=76 time=0
EXTRACT: note_on channel=6 note=59 velocity=53 time=0
EXTRACT: note_on channel=6 note=64 velocity=60 time=0
EXTRACT: note_on channel=6 note=66 velocity=54 time=0
EXTRACT: note_on channel=5 note=59 velocity=0 time=0.03571425
EXTRACT: note_on channel=5 note=64 velocity=0 time=0.023809500000000004
EXTRACT: note_on channel=5 note=66 velocity=0 time=0.021825375
EXTRACT: note_on channel=7 note=54 velocity=0 time=0.013888875000000002
EXTRACT: note_on channel=9 note=67 velocity=32 time=0.013888875000000002
EXTRACT: note_on channel=4 note=64 velocity=95 time=0
EXTRACT: note_on channel=7 note=57 velocity=60 time=0
EXTRACT: note_on channel=7 note=59 velocity=68 time=0
EXTRACT: note_on channel=9 note=67 velocity=32 time=0
EXTRACT: note_on channel=9 note=67 velocity=0 time=0.041666625000000006
EXTRACT: note_on channel=9 note=67 velocity=0 time=0
EXTRACT: note_on channel=6 note=66 velocity=0 time=0.021825375
EXTRACT: note_on channel=6 note=64 velocity=0 time=0
EXTRACT: note_on channel=6 note=59 velocity=0 time=0
EXTRACT: note_on channel=7 note=59 velocity=0 time=0
EXTRACT: note_on channel=7 note=57 velocity=0 time=0
EXTRACT: note_on channel=9 note=67 velocity=46 time=0.06547612500000001
EXTRACT: note_on channel=7 note=57 velocity=64 time=0
EXTRACT: note_on channel=7 note=59 velocity=67 time=0
EXTRACT: note_on channel=9 note=67 velocity=46 time=0
EXTRACT: note_on channel=9 note=67 velocity=0 time=0.04365075
EXTRACT: note_on channel=9 note=67 velocity=0 time=0
EXTRACT: note_on channel=7 note=59 velocity=0 time=0.027777750000000004
EXTRACT: note_on channel=7 note=57 velocity=0 time=0
EXTRACT: note_on channel=4 note=64 velocity=0 time=0.00396825
EXTRACT: note_on channel=1 note=35 velocity=0 time=0.013888875000000002
EXTRACT: note_on channel=1 note=39 velocity=86 time=0.01984125
EXTRACT: note_on channel=4 note=61 velocity=86 time=0
EXTRACT: note_on channel=5 note=59 velocity=77 time=0
EXTRACT: note_on channel=5 note=64 velocity=84 time=0
EXTRACT: note_on channel=5 note=66 velocity=76 time=0
EXTRACT: note_on channel=6 note=59 velocity=55 time=0
EXTRACT: note_on channel=6 note=64 velocity=62 time=0
EXTRACT: note_on channel=6 note=66 velocity=54 time=0
EXTRACT: note_on channel=7 note=54 velocity=86 time=0
EXTRACT: note_on channel=5 note=59 velocity=0 time=0.031746
EXTRACT: note_on channel=5 note=64 velocity=0 time=0.037698375000000006
EXTRACT: note_on channel=5 note=66 velocity=0 time=0.015873
EXTRACT: note_on channel=6 note=66 velocity=0 time=0.0873015
EXTRACT: note_on channel=6 note=64 velocity=0 time=0
EXTRACT: note_on channel=6 note=59 velocity=0 time=0
EXTRACT: note_on channel=7 note=54 velocity=0 time=0.0079365
EXTRACT: note_on channel=4 note=61 velocity=0 time=0.013888875000000002
EXTRACT: note_on channel=1 note=39 velocity=0 time=0.03373012500000001
EXTRACT: note_on channel=9 note=68 velocity=30 time=0.009920625
EXTRACT: note_on channel=1 note=42 velocity=86 time=0
EXTRACT: note_on channel=4 note=59 velocity=91 time=0
EXTRACT: note_on channel=5 note=59 velocity=82 time=0
EXTRACT: note_on channel=5 note=63 velocity=83 time=0
EXTRACT: note_on channel=5 note=66 velocity=84 time=0
EXTRACT: note_on channel=6 note=59 velocity=60 time=0
EXTRACT: note_on channel=6 note=63 velocity=61 time=0
EXTRACT: note_on channel=6 note=66 velocity=62 time=0
EXTRACT: note_on channel=7 note=57 velocity=61 time=0
EXTRACT: note_on channel=7 note=59 velocity=67 time=0
EXTRACT: note_on channel=9 note=68 velocity=30 time=0
EXTRACT: note_on channel=10 note=47 velocity=0 time=0.029761875000000004
EXTRACT: note_on channel=9 note=68 velocity=0 time=0.005952375000000001
EXTRACT: note_on channel=9 note=68 velocity=0 time=0
EXTRACT: note_on channel=5 note=59 velocity=0 time=0.005952375000000001
EXTRACT: note_on channel=5 note=63 velocity=0 time=0.011904750000000002
EXTRACT: note_on channel=7 note=59 velocity=0 time=0.009920625
EXTRACT: note_on channel=7 note=57 velocity=0 time=0
EXTRACT: note_on channel=10 note=71 velocity=0 time=0.001984125
EXTRACT: note_on channel=5 note=66 velocity=0 time=0.009920625
EXTRACT: note_on channel=10 note=54 velocity=0 time=0.005952375000000001
EXTRACT: note_on channel=10 note=66 velocity=0 time=0.009920625
EXTRACT: note_on channel=10 note=75 velocity=0 time=0.021825375
EXTRACT: note_on channel=9 note=68 velocity=55 time=0.015873
EXTRACT: note_on channel=7 note=57 velocity=71 time=0
EXTRACT: note_on channel=7 note=59 velocity=67 time=0
EXTRACT: note_on channel=9 note=68 velocity=55 time=0
EXTRACT: note_on channel=10 note=78 velocity=0 time=0.005952375000000001
EXTRACT: note_on channel=10 note=59 velocity=0 time=0.03571425
EXTRACT: note_on channel=6 note=66 velocity=0 time=0.001984125
EXTRACT: note_on channel=6 note=63 velocity=0 time=0
EXTRACT: note_on channel=6 note=59 velocity=0 time=0
EXTRACT: note_on channel=7 note=57 velocity=0 time=0.01984125
EXTRACT: note_on channel=9 note=68 velocity=0 time=0.0079365
EXTRACT: note_on channel=9 note=68 velocity=0 time=0
EXTRACT: note_on channel=1 note=42 velocity=0 time=0.001984125
EXTRACT: note_on channel=7 note=59 velocity=0 time=0.001984125
EXTRACT: note_on channel=4 note=59 velocity=0 time=0.005952375000000001
EXTRACT: note_on channel=10 note=51 velocity=61 time=0.027777750000000004
EXTRACT: note_on channel=10 note=56 velocity=74 time=0
EXTRACT: note_on channel=10 note=59 velocity=38 time=0
EXTRACT: note_on channel=10 note=63 velocity=72 time=0
EXTRACT: note_on channel=10 note=68 velocity=67 time=0
EXTRACT: note_on channel=10 note=71 velocity=71 time=0
EXTRACT: note_on channel=10 note=75 velocity=60 time=0
EXTRACT: note_on channel=10 note=80 velocity=66 time=0
EXTRACT: note_on channel=3 note=71 velocity=94 time=0
EXTRACT: note_on channel=5 note=59 velocity=80 time=0
EXTRACT: note_on channel=5 note=63 velocity=97 time=0
EXTRACT: note_on channel=5 note=68 velocity=88 time=0
EXTRACT: note_on channel=6 note=59 velocity=58 time=0
EXTRACT: note_on channel=6 note=63 velocity=75 time=0
EXTRACT: note_on channel=6 note=68 velocity=66 time=0
EXTRACT: note_on channel=7 note=56 velocity=88 time=0
EXTRACT: note_on channel=5 note=59 velocity=0 time=0.049603125000000005
EXTRACT: note_on channel=5 note=63 velocity=0 time=0.009920625
EXTRACT: note_on channel=5 note=68 velocity=0 time=0.031746
EXTRACT: note_on channel=6 note=68 velocity=0 time=0.08134912500000001
EXTRACT: note_on channel=6 note=63 velocity=0 time=0
EXTRACT: note_on channel=6 note=59 velocity=0 time=0
EXTRACT: note_on channel=7 note=56 velocity=0 time=0.009920625
EXTRACT: note_on channel=9 note=67 velocity=40 time=0.05555550000000001
EXTRACT: note_on channel=1 note=32 velocity=88 time=0
EXTRACT: note_on channel=7 note=59 velocity=71 time=0
EXTRACT: note_on channel=7 note=63 velocity=70 time=0
EXTRACT: note_on channel=9 note=67 velocity=40 time=0
EXTRACT: note_on channel=9 note=67 velocity=0 time=0.0396825
EXTRACT: note_on channel=9 note=67 velocity=0 time=0
EXTRACT: note_on channel=7 note=63 velocity=0 time=0.023809500000000004
EXTRACT: note_on channel=7 note=59 velocity=0 time=0
EXTRACT: note_on channel=9 note=67 velocity=50 time=0.06547612500000001
EXTRACT: note_on channel=5 note=59 velocity=81 time=0
EXTRACT: note_on channel=5 note=63 velocity=92 time=0
EXTRACT: note_on channel=5 note=68 velocity=87 time=0
EXTRACT: note_on channel=6 note=59 velocity=59 time=0
EXTRACT: note_on channel=6 note=63 velocity=70 time=0
EXTRACT: note_on channel=6 note=68 velocity=65 time=0
EXTRACT: note_on channel=7 note=59 velocity=69 time=0
EXTRACT: note_on channel=7 note=63 velocity=78 time=0
EXTRACT: note_on channel=9 note=67 velocity=50 time=0
EXTRACT: note_on channel=5 note=59 velocity=0 time=0.03571425
EXTRACT: note_on channel=3 note=71 velocity=0 time=0.0079365
EXTRACT: note_on channel=5 note=63 velocity=0 time=0.0079365
EXTRACT: note_on channel=7 note=59 velocity=0 time=0.011904750000000002
EXTRACT: note_on channel=9 note=67 velocity=0 time=0.0079365
EXTRACT: note_on channel=9 note=67 velocity=0 time=0
EXTRACT: note_on channel=7 note=63 velocity=0 time=0.00396825
EXTRACT: note_on channel=5 note=68 velocity=0 time=0.005952375000000001
EXTRACT: note_on channel=1 note=35 velocity=79 time=0.027777750000000004
EXTRACT: note_on channel=3 note=68 velocity=90 time=0
EXTRACT: note_on channel=7 note=56 velocity=81 time=0
EXTRACT: note_on channel=1 note=32 velocity=0 time=0.021825375
EXTRACT: note_on channel=6 note=68 velocity=0 time=0.041666625000000006
EXTRACT: note_on channel=6 note=63 velocity=0 time=0
EXTRACT: note_on channel=6 note=59 velocity=0 time=0
EXTRACT: note_on channel=7 note=56 velocity=0 time=0.14682525000000002
EXTRACT: note_on channel=1 note=35 velocity=0 time=0.011904750000000002
EXTRACT: note_on channel=9 note=68 velocity=63 time=0.015873
EXTRACT: note_on channel=1 note=39 velocity=95 time=0
EXTRACT: note_on channel=5 note=59 velocity=84 time=0
EXTRACT: note_on channel=5 note=63 velocity=97 time=0
EXTRACT: note_on channel=5 note=68 velocity=92 time=0
EXTRACT: note_on channel=6 note=59 velocity=62 time=0
EXTRACT: note_on channel=6 note=63 velocity=75 time=0
EXTRACT: note_on channel=6 note=68 velocity=70 time=0
EXTRACT: note_on channel=7 note=59 velocity=68 time=0
EXTRACT: note_on channel=7 note=63 velocity=77 time=0
EXTRACT: note_on channel=9 note=68 velocity=63 time=0
EXTRACT: note_on channel=5 note=59 velocity=0 time=0.029761875000000004
EXTRACT: note_on channel=9 note=68 velocity=0 time=0.015873
EXTRACT: note_on channel=9 note=68 velocity=0 time=0
EXTRACT: note_on channel=5 note=63 velocity=0 time=0.00396825
EXTRACT: note_on channel=7 note=63 velocity=0 time=0.013888875000000002
EXTRACT: note_on channel=7 note=59 velocity=0 time=0
EXTRACT: note_on channel=10 note=75 velocity=0 time=0.0079365
EXTRACT: note_on channel=10 note=51 velocity=0 time=0
EXTRACT: note_on channel=10 note=80 velocity=0 time=0.0079365
EXTRACT: note_on channel=5 note=68 velocity=0 time=0.005952375000000001
EXTRACT: note_on channel=10 note=63 velocity=0 time=0.009920625
EXTRACT: note_on channel=10 note=56 velocity=0 time=0.005952375000000001
EXTRACT: note_on channel=10 note=71 velocity=0 time=0.0079365
EXTRACT: note_on channel=10 note=68 velocity=0 time=0.001984125
EXTRACT: note_on channel=10 note=59 velocity=0 time=0.013888875000000002
EXTRACT: note_on channel=9 note=68 velocity=58 time=0.00396825
EXTRACT: note_on channel=7 note=59 velocity=74 time=0
EXTRACT: note_on channel=7 note=63 velocity=73 time=0
EXTRACT: note_on channel=9 note=68 velocity=58 time=0
EXTRACT: note_on channel=3 note=68 velocity=0 time=0.03571425
EXTRACT: note_on channel=6 note=68 velocity=0 time=0.0079365
EXTRACT: note_on channel=6 note=63 velocity=0 time=0
EXTRACT: note_on channel=6 note=59 velocity=0 time=0
EXTRACT: note_on channel=1 note=39 velocity=0 time=0.011904750000000002
EXTRACT: note_on channel=7 note=59 velocity=0 time=0.0079365
EXTRACT: note_on channel=9 note=68 velocity=0 time=0.001984125
EXTRACT: note_on channel=9 note=68 velocity=0 time=0
EXTRACT: note_on channel=7 note=63 velocity=0 time=0.0079365
EXTRACT: note_on channel=1 note=37 velocity=90 time=0.03571425
EXTRACT: note_on channel=10 note=49 velocity=49 time=0
EXTRACT: note_on channel=10 note=52 velocity=58 time=0
EXTRACT: note_on channel=10 note=56 velocity=75 time=0
EXTRACT: note_on channel=10 note=61 velocity=48 time=0
EXTRACT: note_on channel=10 note=64 velocity=60 time=0
EXTRACT: note_on channel=10 note=68 velocity=73 time=0
EXTRACT: note_on channel=10 note=73 velocity=58 time=0
EXTRACT: note_on channel=10 note=76 velocity=68 time=0
EXTRACT: note_on channel=10 note=80 velocity=64 time=0
EXTRACT: note_on channel=3 note=64 velocity=95 time=0
EXTRACT: note_on channel=7 note=56 velocity=84 time=0
EXTRACT: note_on channel=5 note=61 velocity=68 time=0.12896812500000002
EXTRACT: note_on channel=5 note=64 velocity=95 time=0
EXTRACT: note_on channel=5 note=68 velocity=84 time=0
EXTRACT: note_on channel=6 note=61 velocity=46 time=0
EXTRACT: note_on channel=6 note=64 velocity=73 time=0
EXTRACT: note_on channel=6 note=68 velocity=62 time=0
EXTRACT: note_on channel=1 note=37 velocity=0 time=0.03373012500000001
EXTRACT: note_on channel=5 note=64 velocity=0 time=0.021825375
EXTRACT: note_on channel=5 note=61 velocity=0 time=0.013888875000000002
EXTRACT: note_on channel=5 note=68 velocity=0 time=0.001984125
EXTRACT: note_on channel=9 note=67 velocity=47 time=0.037698375000000006
EXTRACT: note_on channel=1 note=37 velocity=83 time=0
EXTRACT: note_on channel=7 note=61 velocity=54 time=0
EXTRACT: note_on channel=7 note=64 velocity=69 time=0
EXTRACT: note_on channel=9 note=67 velocity=47 time=0
EXTRACT: note_on channel=9 note=67 velocity=0 time=0.03571425
EXTRACT: note_on channel=9 note=67 velocity=0 time=0
EXTRACT: note_on channel=7 note=56 velocity=0 time=0.01984125
EXTRACT: note_on channel=6 note=68 velocity=0 time=0.0079365
EXTRACT: note_on channel=6 note=64 velocity=0 time=0
EXTRACT: note_on channel=6 note=61 velocity=0 time=0
EXTRACT: note_on channel=7 note=61 velocity=0 time=0
EXTRACT: note_on channel=7 note=64 velocity=0 time=0.0079365
EXTRACT: note_on channel=9 note=67 velocity=44 time=0.057539625000000004
EXTRACT: note_on channel=7 note=61 velocity=63 time=0
EXTRACT: note_on channel=7 note=64 velocity=71 time=0
EXTRACT: note_on channel=9 note=67 velocity=44 time=0
EXTRACT: note_on channel=9 note=67 velocity=0 time=0.061507875000000004
EXTRACT: note_on channel=9 note=67 velocity=0 time=0
EXTRACT: note_on channel=3 note=64 velocity=0 time=0.011904750000000002
EXTRACT: note_on channel=7 note=64 velocity=0 time=0
EXTRACT: note_on channel=7 note=61 velocity=0 time=0.009920625
EXTRACT: note_on channel=1 note=32 velocity=86 time=0.025793625000000004
EXTRACT: note_on channel=3 note=61 velocity=82 time=0
EXTRACT: note_on channel=5 note=61 velocity=73 time=0
EXTRACT: note_on channel=5 note=64 velocity=85 time=0
EXTRACT: note_on channel=5 note=68 velocity=81 time=0
EXTRACT: note_on channel=6 note=61 velocity=51 time=0
EXTRACT: note_on channel=6 note=64 velocity=63 time=0
EXTRACT: note_on channel=6 note=68 velocity=59 time=0
EXTRACT: note_on channel=7 note=56 velocity=86 time=0
EXTRACT: note_on channel=1 note=37 velocity=0 time=0.041666625000000006
EXTRACT: note_on channel=5 note=64 velocity=0 time=0.023809500000000004
EXTRACT: note_on channel=5 note=61 velocity=0 time=0.023809500000000004
EXTRACT: note_on channel=5 note=68 velocity=0 time=0.021825375
EXTRACT: note_on channel=7 note=56 velocity=0 time=0.029761875000000004
EXTRACT: note_on channel=6 note=68 velocity=0 time=0.031746
EXTRACT: note_on channel=6 note=64 velocity=0 time=0
EXTRACT: note_on channel=6 note=61 velocity=0 time=0
EXTRACT: note_on channel=1 note=32 velocity=0 time=0.05158725000000001
EXTRACT: note_on channel=3 note=61 velocity=0 time=0.009920625
EXTRACT: note_on channel=9 note=36 velocity=89 time=0.00396825
EXTRACT: note_on channel=9 note=68 velocity=54 time=0
EXTRACT: note_on channel=1 note=37 velocity=91 time=0
EXTRACT: note_on channel=3 note=59 velocity=85 time=0
EXTRACT: note_on channel=5 note=61 velocity=71 time=0
EXTRACT: note_on channel=5 note=64 velocity=84 time=0
EXTRACT: note_on channel=5 note=68 velocity=81 time=0
EXTRACT: note_on channel=6 note=61 velocity=49 time=0
EXTRACT: note_on channel=6 note=64 velocity=62 time=0
EXTRACT: note_on channel=6 note=68 velocity=59 time=0
EXTRACT: note_on channel=7 note=61 velocity=69 time=0
EXTRACT: note_on channel=7 note=64 velocity=71 time=0
EXTRACT: note_on channel=9 note=36 velocity=89 time=0
EXTRACT: note_on channel=9 note=68 velocity=54 time=0
EXTRACT: note_on channel=9 note=68 velocity=0 time=0.03373012500000001
EXTRACT: note_on channel=9 note=68 velocity=0 time=0
EXTRACT: note_on channel=10 note=52 velocity=0 time=0.001984125
EXTRACT: note_on channel=10 note=76 velocity=0 time=0.023809500000000004
EXTRACT: note_on channel=7 note=64 velocity=0 time=0.00396825
EXTRACT: note_on channel=7 note=61 velocity=0 time=0
EXTRACT: note_on channel=10 note=73 velocity=0 time=0.005952375000000001
EXTRACT: note_on channel=5 note=61 velocity=0 time=0.001984125
EXTRACT: note_on channel=5 note=64 velocity=0 time=0.001984125
EXTRACT: note_on channel=10 note=64 velocity=0 time=0.005952375000000001
EXTRACT: note_on channel=9 note=36 velocity=0 time=0.001984125
EXTRACT: note_on channel=10 note=80 velocity=0 time=0
EXTRACT: note_on channel=5 note=68 velocity=0 time=0
EXTRACT: note_on channel=9 note=36 velocity=0 time=0
EXTRACT: note_on channel=10 note=68 velocity=0 time=0.001984125
EXTRACT: note_on channel=10 note=49 velocity=0 time=0.001984125
EXTRACT: note_on channel=10 note=61 velocity=0 time=0.03373012500000001
EXTRACT: note_on channel=9 note=68 velocity=56 time=0.009920625
EXTRACT: note_on channel=7 note=61 velocity=65 time=0
EXTRACT: note_on channel=7 note=64 velocity=71 time=0
EXTRACT: note_on channel=9 note=68 velocity=56 time=0
EXTRACT: note_on channel=10 note=56 velocity=0 time=0.01984125
EXTRACT: note_on channel=6 note=68 velocity=0 time=0.023809500000000004
EXTRACT: note_on channel=6 note=64 velocity=0 time=0
EXTRACT: note_on channel=6 note=61 velocity=0 time=0
EXTRACT: note_on channel=1 note=37 velocity=0 time=0.009920625
EXTRACT: note_on channel=3 note=59 velocity=0 time=0
EXTRACT: note_on channel=9 note=68 velocity=0 time=0.009920625
EXTRACT: note_on channel=9 note=68 velocity=0 time=0
EXTRACT: note_on channel=7 note=64 velocity=0 time=0.0079365
EXTRACT: note_on channel=7 note=61 velocity=0 time=0.00396825
EXTRACT: note_on channel=9 note=36 velocity=108 time=0.03373012500000001
EXTRACT: note_on channel=1 note=33 velocity=82 time=0
EXTRACT: note_on channel=10 note=45 velocity=48 time=0
EXTRACT: note_on channel=10 note=52 velocity=69 time=0
EXTRACT: note_on channel=10 note=57 velocity=54 time=0
EXTRACT: note_on channel=10 note=61 velocity=57 time=0
EXTRACT: note_on channel=10 note=69 velocity=76 time=0
EXTRACT: note_on channel=10 note=73 velocity=49 time=0
EXTRACT: note_on channel=10 note=81 velocity=66 time=0
EXTRACT: note_on channel=4 note=64 velocity=108 time=0
EXTRACT: note_on channel=5 note=61 velocity=82 time=0
EXTRACT: note_on channel=5 note=64 velocity=85 time=0
EXTRACT: note_on channel=5 note=69 velocity=84 time=0
EXTRACT: note_on channel=6 note=61 velocity=60 time=0
EXTRACT: note_on channel=6 note=64 velocity=63 time=0
EXTRACT: note_on channel=6 note=69 velocity=62 time=0
EXTRACT: note_on channel=7 note=52 velocity=84 time=0
EXTRACT: note_on channel=9 note=36 velocity=108 time=0
EXTRACT: note_on channel=5 note=64 velocity=0 time=0.05952375000000001
EXTRACT: note_on channel=5 note=69 velocity=0 time=0.00396825
EXTRACT: note_on channel=5 note=61 velocity=0 time=0
EXTRACT: note_on channel=9 note=36 velocity=0 time=0.009920625
EXTRACT: note_on channel=9 note=36 velocity=0 time=0
EXTRACT: note_on channel=4 note=64 velocity=0 time=0.061507875000000004
EXTRACT: note_on channel=7 note=52 velocity=0 time=0
EXTRACT: note_on channel=1 note=33 velocity=0 time=0.029761875000000004
EXTRACT: note_on channel=6 note=69 velocity=0 time=0.0079365
EXTRACT: note_on channel=6 note=64 velocity=0 time=0
EXTRACT: note_on channel=6 note=61 velocity=0 time=0
EXTRACT: note_on channel=9 note=67 velocity=44 time=0.06547612500000001
EXTRACT: note_on channel=1 note=33 velocity=79 time=0
EXTRACT: note_on channel=4 note=64 velocity=101 time=0
EXTRACT: note_on channel=7 note=57 velocity=67 time=0
EXTRACT: note_on channel=7 note=61 velocity=60 time=0
EXTRACT: note_on channel=9 note=67 velocity=44 time=0
EXTRACT: note_on channel=9 note=67 velocity=0 time=0.0396825
EXTRACT: note_on channel=9 note=67 velocity=0 time=0
EXTRACT: note_on channel=7 note=57 velocity=0 time=0.023809500000000004
EXTRACT: note_on channel=7 note=61 velocity=0 time=0.017857125
EXTRACT: note_on channel=9 note=67 velocity=45 time=0.04761900000000001
EXTRACT: note_on channel=5 note=61 velocity=65 time=0
EXTRACT: note_on channel=5 note=64 velocity=80 time=0
EXTRACT: note_on channel=5 note=69 velocity=84 time=0
EXTRACT: note_on channel=6 note=61 velocity=43 time=0
EXTRACT: note_on channel=6 note=64 velocity=58 time=0
EXTRACT: note_on channel=6 note=69 velocity=62 time=0
EXTRACT: note_on channel=7 note=57 velocity=76 time=0
EXTRACT: note_on channel=7 note=61 velocity=67 time=0
EXTRACT: note_on channel=9 note=67 velocity=45 time=0
EXTRACT: note_on channel=5 note=64 velocity=0 time=0.053571375000000004
EXTRACT: note_on channel=5 note=61 velocity=0 time=0.0079365
EXTRACT: note_on channel=7 note=57 velocity=0 time=0.001984125
EXTRACT: note_on channel=9 note=67 velocity=0 time=0.009920625
EXTRACT: note_on channel=4 note=64 velocity=0 time=0
EXTRACT: note_on channel=9 note=67 velocity=0 time=0
EXTRACT: note_on channel=5 note=69 velocity=0 time=0.005952375000000001
EXTRACT: note_on channel=1 note=33 velocity=0 time=0.005952375000000001
EXTRACT: note_on channel=7 note=61 velocity=0 time=0.00396825
EXTRACT: note_on channel=1 note=37 velocity=80 time=0.01984125
EXTRACT: note_on channel=4 note=61 velocity=83 time=0
EXTRACT: note_on channel=7 note=52 velocity=92 time=0
EXTRACT: note_on channel=6 note=69 velocity=0 time=0.063492
EXTRACT: note_on channel=6 note=64 velocity=0 time=0
EXTRACT: note_on channel=6 note=61 velocity=0 time=0
EXTRACT: note_on channel=7 note=52 velocity=0 time=0.12896812500000002
EXTRACT: note_on channel=4 note=61 velocity=0 time=0.005952375000000001
EXTRACT: note_on channel=9 note=68 velocity=43 time=0.0396825
EXTRACT: note_on channel=1 note=40 velocity=82 time=0
EXTRACT: note_on channel=4 note=59 velocity=83 time=0
EXTRACT: note_on channel=5 note=61 velocity=75 time=0
EXTRACT: note_on channel=5 note=64 velocity=84 time=0
EXTRACT: note_on channel=5 note=69 velocity=98 time=0
EXTRACT: note_on channel=6 note=61 velocity=53 time=0
EXTRACT: note_on channel=6 note=64 velocity=62 time=0
EXTRACT: note_on channel=6 note=69 velocity=76 time=0
EXTRACT: note_on channel=7 note=57 velocity=70 time=0
EXTRACT: note_on channel=7 note=61 velocity=65 time=0
EXTRACT: note_on channel=9 note=68 velocity=43 time=0
EXTRACT: note_on channel=10 note=45 velocity=0 time=0.015873
EXTRACT: note_on channel=1 note=37 velocity=0 time=0.00396825
EXTRACT: note_on channel=9 note=68 velocity=0 time=0.015873
EXTRACT: note_on channel=9 note=68 velocity=0 time=0
EXTRACT: note_on channel=5 note=61 velocity=0 time=0.027777750000000004
EXTRACT: note_on channel=7 note=57 velocity=0 time=0
EXTRACT: note_on channel=5 note=64 velocity=0 time=0.001984125
EXTRACT: note_on channel=7 note=61 velocity=0 time=0.00396825
EXTRACT: note_on channel=10 note=52 velocity=0 time=0.00396825
EXTRACT: note_on channel=5 note=69 velocity=0 time=0.015873
EXTRACT: note_on channel=10 note=73 velocity=0 time=0.005952375000000001
EXTRACT: note_on channel=10 note=57 velocity=0 time=0.005952375000000001
EXTRACT: note_on channel=10 note=81 velocity=0 time=0.011904750000000002
EXTRACT: note_on channel=10 note=69 velocity=0 time=0.001984125
EXTRACT: note_on channel=9 note=68 velocity=60 time=0.013888875000000002
EXTRACT: note_on channel=7 note=57 velocity=67 time=0
EXTRACT: note_on channel=7 note=61 velocity=67 time=0
EXTRACT: note_on channel=9 note=68 velocity=60 time=0
EXTRACT: note_on channel=10 note=61 velocity=0 time=0.025793625000000004
EXTRACT: note_on channel=6 note=69 velocity=0 time=0.017857125
EXTRACT: note_on channel=6 note=64 velocity=0 time=0
EXTRACT: note_on channel=6 note=61 velocity=0 time=0
EXTRACT: note_on channel=9 note=68 velocity=0 time=0.017857125
EXTRACT: note_on channel=9 note=68 velocity=0 time=0
EXTRACT: note_on channel=7 note=57 velocity=0 time=0.001984125
EXTRACT: note_on channel=7 note=61 velocity=0 time=0.021825375
EXTRACT: note_on channel=4 note=59 velocity=0 time=0.0079365
EXTRACT: note_on channel=1 note=40 velocity=0 time=0.0079365
EXTRACT: note_on channel=9 note=36 velocity=99 time=0.0079365
EXTRACT: note_on channel=1 note=35 velocity=88 time=0
EXTRACT: note_on channel=10 note=47 velocity=45 time=0
EXTRACT: note_on channel=10 note=54 velocity=69 time=0
EXTRACT: note_on channel=10 note=59 velocity=65 time=0
EXTRACT: note_on channel=10 note=66 velocity=64 time=0
EXTRACT: note_on channel=10 note=71 velocity=68 time=0
EXTRACT: note_on channel=10 note=75 velocity=72 time=0
EXTRACT: note_on channel=10 note=78 velocity=67 time=0
EXTRACT: note_on channel=4 note=64 velocity=103 time=0
EXTRACT: note_on channel=7 note=54 velocity=83 time=0
EXTRACT: note_on channel=9 note=36 velocity=99 time=0
EXTRACT: note_on channel=9 note=36 velocity=0 time=0.07341262500000001
EXTRACT: note_on channel=9 note=36 velocity=0 time=0
EXTRACT: note_on channel=5 note=59 velocity=79 time=0.05555550000000001
EXTRACT: note_on channel=5 note=64 velocity=84 time=0
EXTRACT: note_on channel=5 note=66 velocity=78 time=0
EXTRACT: note_on channel=6 note=59 velocity=57 time=0
EXTRACT: note_on channel=6 note=64 velocity=62 time=0
EXTRACT: note_on channel=6 note=66 velocity=56 time=0
EXTRACT: note_on channel=4 note=64 velocity=0 time=0.001984125
EXTRACT: note_on channel=5 note=59 velocity=0 time=0.029761875000000004
EXTRACT: note_on channel=5 note=64 velocity=0 time=0.027777750000000004
EXTRACT: note_on channel=5 note=66 velocity=0 time=0.00396825
EXTRACT: note_on channel=7 note=54 velocity=0 time=0.021825375
EXTRACT: note_on channel=4 note=64 velocity=96 time=0.023809500000000004
EXTRACT: note_on channel=7 note=57 velocity=44 time=0
EXTRACT: note_on channel=7 note=59 velocity=61 time=0
EXTRACT: note_on channel=6 note=66 velocity=0 time=0.063492
EXTRACT: note_on channel=6 note=64 velocity=0 time=0
EXTRACT: note_on channel=6 note=59 velocity=0 time=0
EXTRACT: note_on channel=7 note=59 velocity=0 time=0
EXTRACT: note_on channel=7 note=57 velocity=0 time=0
EXTRACT: note_on channel=9 note=67 velocity=53 time=0.06547612500000001
EXTRACT: note_on channel=7 note=57 velocity=64 time=0
EXTRACT: note_on channel=7 note=59 velocity=74 time=0
EXTRACT: note_on channel=9 note=67 velocity=53 time=0
EXTRACT: note_on channel=7 note=59 velocity=0 time=0.063492
EXTRACT: note_on channel=7 note=57 velocity=0 time=0
EXTRACT: note_on channel=4 note=64 velocity=0 time=0.001984125
EXTRACT: note_on channel=9 note=67 velocity=0 time=0.005952375000000001
EXTRACT: note_on channel=9 note=67 velocity=0 time=0
EXTRACT: note_on channel=1 note=35 velocity=0 time=0.009920625
EXTRACT: note_on channel=1 note=39 velocity=86 time=0.027777750000000004
EXTRACT: note_on channel=4 note=61 velocity=85 time=0
EXTRACT: note_on channel=5 note=59 velocity=78 time=0
EXTRACT: note_on channel=5 note=64 velocity=84 time=0
EXTRACT: note_on channel=5 note=66 velocity=75 time=0
EXTRACT: note_on channel=6 note=59 velocity=56 time=0
EXTRACT: note_on channel=6 note=64 velocity=62 time=0
EXTRACT: note_on channel=6 note=66 velocity=53 time=0
EXTRACT: note_on channel=7 note=54 velocity=86 time=0
EXTRACT: note_on channel=5 note=59 velocity=0 time=0.03373012500000001
EXTRACT: note_on channel=5 note=64 velocity=0 time=0.029761875000000004
EXTRACT: note_on channel=5 note=66 velocity=0 time=0.001984125
EXTRACT: note_on channel=6 note=66 velocity=0 time=0.10714275000000001
EXTRACT: note_on channel=6 note=64 velocity=0 time=0
EXTRACT: note_on channel=6 note=59 velocity=0 time=0
EXTRACT: note_on channel=4 note=61 velocity=0 time=0.029761875000000004
EXTRACT: note_on channel=7 note=54 velocity=0 time=0.009920625
EXTRACT: note_on channel=9 note=68 velocity=51 time=0.025793625000000004
EXTRACT: note_on channel=1 note=42 velocity=84 time=0
EXTRACT: note_on channel=4 note=59 velocity=87 time=0
EXTRACT: note_on channel=5 note=59 velocity=78 time=0
EXTRACT: note_on channel=5 note=63 velocity=85 time=0
EXTRACT: note_on channel=5 note=66 velocity=78 time=0
EXTRACT: note_on channel=6 note=59 velocity=56 time=0
EXTRACT: note_on channel=6 note=63 velocity=63 time=0
EXTRACT: note_on channel=6 note=66 velocity=56 time=0
EXTRACT: note_on channel=7 note=57 velocity=62 time=0
EXTRACT: note_on channel=7 note=59 velocity=70 time=0
EXTRACT: note_on channel=9 note=68 velocity=51 time=0
EXTRACT: note_on channel=1 note=39 velocity=0 time=0.011904750000000002
EXTRACT: note_on channel=5 note=59 velocity=0 time=0.017857125
EXTRACT: note_on channel=10 note=59 velocity=0 time=0.00396825
EXTRACT: note_on channel=9 note=68 velocity=0 time=0.001984125
EXTRACT: note_on channel=9 note=68 velocity=0 time=0
EXTRACT: note_on channel=5 note=63 velocity=0 time=0.023809500000000004
EXTRACT: note_on channel=7 note=57 velocity=0 time=0.00396825
EXTRACT: note_on channel=10 note=47 velocity=0 time=0.005952375000000001
EXTRACT: note_on channel=5 note=66 velocity=0 time=0
EXTRACT: note_on channel=7 note=59 velocity=0 time=0.009920625
EXTRACT: note_on channel=10 note=71 velocity=0 time=0.013888875000000002
EXTRACT: note_on channel=10 note=54 velocity=0 time=0.009920625
EXTRACT: note_on channel=10 note=66 velocity=0 time=0.001984125
EXTRACT: note_on channel=9 note=68 velocity=60 time=0.023809500000000004
EXTRACT: note_on channel=10 note=75 velocity=0 time=0
EXTRACT: note_on channel=7 note=57 velocity=62 time=0
EXTRACT: note_on channel=7 note=59 velocity=36 time=0
EXTRACT: note_on channel=9 note=68 velocity=60 time=0
EXTRACT: note_on channel=10 note=78 velocity=0 time=0.011904750000000002
EXTRACT: note_on channel=6 note=66 velocity=0 time=0.031746
EXTRACT: note_on channel=6 note=63 velocity=0 time=0
EXTRACT: note_on channel=6 note=59 velocity=0 time=0
EXTRACT: note_on channel=7 note=57 velocity=0 time=0.01984125
EXTRACT: note_on channel=7 note=59 velocity=0 time=0.0079365
EXTRACT: note_on channel=9 note=68 velocity=0 time=0.00396825
EXTRACT: note_on channel=9 note=68 velocity=0 time=0
EXTRACT: note_on channel=4 note=59 velocity=0 time=0.015873
EXTRACT: note_on channel=1 note=32 velocity=88 time=0.017857125
EXTRACT: note_on channel=10 note=51 velocity=62 time=0
EXTRACT: note_on channel=10 note=56 velocity=79 time=0
EXTRACT: note_on channel=10 note=59 velocity=60 time=0
EXTRACT: note_on channel=10 note=63 velocity=67 time=0
EXTRACT: note_on channel=10 note=68 velocity=72 time=0
EXTRACT: note_on channel=10 note=71 velocity=72 time=0
EXTRACT: note_on channel=10 note=75 velocity=67 time=0
EXTRACT: note_on channel=10 note=83 velocity=66 time=0
EXTRACT: note_on channel=5 note=59 velocity=73 time=0
EXTRACT: note_on channel=5 note=63 velocity=94 time=0
EXTRACT: note_on channel=5 note=68 velocity=86 time=0
EXTRACT: note_on channel=6 note=59 velocity=51 time=0
EXTRACT: note_on channel=6 note=63 velocity=72 time=0
EXTRACT: note_on channel=6 note=68 velocity=64 time=0
EXTRACT: note_on channel=7 note=56 velocity=86 time=0
EXTRACT: note_on channel=1 note=42 velocity=0 time=0.005952375000000001
EXTRACT: note_on channel=5 note=59 velocity=0 time=0.023809500000000004
EXTRACT: note_on channel=5 note=63 velocity=0 time=0.029761875000000004
EXTRACT: note_on channel=5 note=68 velocity=0 time=0.031746
EXTRACT: note_on channel=1 note=32 velocity=0 time=0.053571375000000004
EXTRACT: note_on channel=6 note=68 velocity=0 time=0.027777750000000004
EXTRACT: note_on channel=6 note=63 velocity=0 time=0
EXTRACT: note_on channel=6 note=59 velocity=0 time=0
EXTRACT: note_on channel=9 note=67 velocity=45 time=0.06547612500000001
EXTRACT: note_on channel=1 note=32 velocity=83 time=0
EXTRACT: note_on channel=3 note=73 velocity=93 time=0
EXTRACT: note_on channel=7 note=59 velocity=75 time=0
EXTRACT: note_on channel=7 note=63 velocity=66 time=0
EXTRACT: note_on channel=9 note=67 velocity=45 time=0
EXTRACT: note_on channel=7 note=56 velocity=0 time=0.029761875000000004
EXTRACT: note_on channel=9 note=67 velocity=0 time=0.011904750000000002
EXTRACT: note_on channel=9 note=67 velocity=0 time=0
EXTRACT: note_on channel=7 note=63 velocity=0 time=0.021825375
EXTRACT: note_on channel=7 note=59 velocity=0 time=0
EXTRACT: note_on channel=9 note=67 velocity=60 time=0.06547612500000001
EXTRACT: note_on channel=5 note=59 velocity=79 time=0
EXTRACT: note_on channel=5 note=63 velocity=94 time=0
EXTRACT: note_on channel=5 note=68 velocity=89 time=0
EXTRACT: note_on channel=6 note=59 velocity=57 time=0
EXTRACT: note_on channel=6 note=63 velocity=72 time=0
EXTRACT: note_on channel=6 note=68 velocity=67 time=0
EXTRACT: note_on channel=7 note=59 velocity=60 time=0
EXTRACT: note_on channel=7 note=63 velocity=79 time=0
EXTRACT: note_on channel=9 note=67 velocity=60 time=0
EXTRACT: note_on channel=5 note=59 velocity=0 time=0.029761875000000004
EXTRACT: note_on channel=5 note=63 velocity=0 time=0.01984125
EXTRACT: note_on channel=7 note=59 velocity=0 time=0.013888875000000002
EXTRACT: note_on channel=9 note=67 velocity=0 time=0.009920625
EXTRACT: note_on channel=7 note=63 velocity=0 time=0
EXTRACT: note_on channel=9 note=67 velocity=0 time=0
EXTRACT: note_on channel=5 note=68 velocity=0 time=0.011904750000000002
EXTRACT: note_on channel=3 note=73 velocity=0 time=0.01984125
EXTRACT: note_on channel=1 note=35 velocity=83 time=0.00396825
EXTRACT: note_on channel=3 note=71 velocity=89 time=0
EXTRACT: note_on channel=7 note=56 velocity=83 time=0
EXTRACT: note_on channel=1 note=32 velocity=0 time=0.01984125
EXTRACT: note_on channel=6 note=68 velocity=0 time=0.04365075
EXTRACT: note_on channel=6 note=63 velocity=0 time=0
EXTRACT: note_on channel=6 note=59 velocity=0 time=0
EXTRACT: note_on channel=3 note=71 velocity=0 time=0.14880937500000002
EXTRACT: note_on channel=9 note=66 velocity=89 time=0.025793625000000004
EXTRACT: note_on channel=9 note=68 velocity=57 time=0
EXTRACT: note_on channel=1 note=39 velocity=91 time=0
EXTRACT: note_on channel=3 note=73 velocity=85 time=0
EXTRACT: note_on channel=5 note=59 velocity=85 time=0
EXTRACT: note_on channel=5 note=63 velocity=99 time=0
EXTRACT: note_on channel=5 note=68 velocity=94 time=0
EXTRACT: note_on channel=6 note=59 velocity=63 time=0
EXTRACT: note_on channel=6 note=63 velocity=77 time=0
EXTRACT: note_on channel=6 note=68 velocity=72 time=0
EXTRACT: note_on channel=7 note=59 velocity=72 time=0
EXTRACT: note_on channel=7 note=63 velocity=74 time=0
EXTRACT: note_on channel=9 note=66 velocity=89 time=0
EXTRACT: note_on channel=9 note=68 velocity=57 time=0
EXTRACT: note_on channel=1 note=35 velocity=0 time=0.00396825
EXTRACT: note_on channel=9 note=68 velocity=0 time=0.029761875000000004
EXTRACT: note_on channel=9 note=68 velocity=0 time=0
EXTRACT: note_on channel=5 note=63 velocity=0 time=0.021825375
EXTRACT: note_on channel=5 note=59 velocity=0 time=0.0079365
EXTRACT: note_on channel=7 note=63 velocity=0 time=0
EXTRACT: note_on channel=7 note=59 velocity=0 time=0
EXTRACT: note_on channel=9 note=66 velocity=0 time=0.001984125
EXTRACT: note_on channel=9 note=66 velocity=0 time=0
EXTRACT: note_on channel=5 note=68 velocity=0 time=0.013888875000000002
EXTRACT: note_on channel=10 note=75 velocity=0 time=0.001984125
EXTRACT: note_on channel=10 note=83 velocity=0 time=0.001984125
EXTRACT: note_on channel=7 note=56 velocity=0 time=0
EXTRACT: note_on channel=10 note=68 velocity=0 time=0.009920625
EXTRACT: note_on channel=10 note=63 velocity=0 time=0.005952375000000001
EXTRACT: note_on channel=10 note=71 velocity=0 time=0.001984125
EXTRACT: note_on channel=10 note=56 velocity=0 time=0.001984125
EXTRACT: note_on channel=10 note=59 velocity=0 time=0.001984125
EXTRACT: note_on channel=10 note=51 velocity=0 time=0.005952375000000001
EXTRACT: note_on channel=9 note=68 velocity=66 time=0.017857125
EXTRACT: note_on channel=7 note=59 velocity=60 time=0
EXTRACT: note_on channel=7 note=63 velocity=80 time=0
EXTRACT: note_on channel=9 note=68 velocity=66 time=0
EXTRACT: note_on channel=3 note=73 velocity=0 time=0.015873
EXTRACT: note_on channel=6 note=68 velocity=0 time=0.027777750000000004
EXTRACT: note_on channel=6 note=63 velocity=0 time=0
EXTRACT: note_on channel=6 note=59 velocity=0 time=0
EXTRACT: note_on channel=7 note=59 velocity=0 time=0.01984125
EXTRACT: note_on channel=1 note=39 velocity=0 time=0.001984125
EXTRACT: note_on channel=9 note=68 velocity=0 time=0.00396825
EXTRACT: note_on channel=7 note=63 velocity=0 time=0
EXTRACT: note_on channel=9 note=68 velocity=0 time=0
EXTRACT: note_on channel=9 note=65 velocity=97 time=0.0396825
EXTRACT: note_on channel=1 note=37 velocity=90 time=0
EXTRACT: note_on channel=10 note=49 velocity=54 time=0
EXTRACT: note_on channel=10 note=52 velocity=59 time=0
EXTRACT: note_on channel=10 note=56 velocity=77 time=0
EXTRACT: note_on channel=10 note=61 velocity=51 time=0
EXTRACT: note_on channel=10 note=64 velocity=62 time=0
EXTRACT: note_on channel=10 note=68 velocity=74 time=0
EXTRACT: note_on channel=10 note=73 velocity=62 time=0
EXTRACT: note_on channel=10 note=76 velocity=73 time=0
EXTRACT: note_on channel=10 note=85 velocity=63 time=0
EXTRACT: note_on channel=7 note=56 velocity=87 time=0
EXTRACT: note_on channel=9 note=65 velocity=97 time=0
EXTRACT: note_on channel=9 note=65 velocity=0 time=0.05555550000000001
EXTRACT: note_on channel=9 note=65 velocity=0 time=0
EXTRACT: note_on channel=9 note=65 velocity=85 time=0.063492
EXTRACT: note_on channel=9 note=65 velocity=85 time=0
EXTRACT: note_on channel=9 note=65 velocity=0 time=0.001984125
EXTRACT: note_on channel=9 note=65 velocity=0 time=0
EXTRACT: note_on channel=5 note=61 velocity=56 time=0.0079365
EXTRACT: note_on channel=5 note=64 velocity=94 time=0
EXTRACT: note_on channel=5 note=68 velocity=85 time=0
EXTRACT: note_on channel=6 note=61 velocity=34 time=0
EXTRACT: note_on channel=6 note=64 velocity=72 time=0
EXTRACT: note_on channel=6 note=68 velocity=63 time=0
EXTRACT: note_on channel=5 note=61 velocity=0 time=0.031746
EXTRACT: note_on channel=5 note=64 velocity=0 time=0.021825375
EXTRACT: note_on channel=5 note=68 velocity=0 time=0.009920625
EXTRACT: note_on channel=9 note=65 velocity=88 time=0.045634875000000005
EXTRACT: note_on channel=9 note=66 velocity=84 time=0
EXTRACT: note_on channel=9 note=67 velocity=62 time=0
EXTRACT: note_on channel=3 note=73 velocity=90 time=0
EXTRACT: note_on channel=7 note=61 velocity=55 time=0
EXTRACT: note_on channel=7 note=64 velocity=70 time=0
EXTRACT: note_on channel=9 note=65 velocity=88 time=0
EXTRACT: note_on channel=9 note=66 velocity=84 time=0
EXTRACT: note_on channel=9 note=67 velocity=62 time=0
EXTRACT: note_on channel=9 note=67 velocity=0 time=0.0396825
EXTRACT: note_on channel=9 note=67 velocity=0 time=0
EXTRACT: note_on channel=9 note=65 velocity=0 time=0.013888875000000002
EXTRACT: note_on channel=9 note=65 velocity=0 time=0
EXTRACT: note_on channel=6 note=68 velocity=0 time=0.009920625
EXTRACT: note_on channel=6 note=64 velocity=0 time=0
EXTRACT: note_on channel=6 note=61 velocity=0 time=0
EXTRACT: note_on channel=7 note=64 velocity=0 time=0
EXTRACT: note_on channel=7 note=61 velocity=0 time=0
EXTRACT: note_on channel=7 note=56 velocity=0 time=0.005952375000000001
EXTRACT: note_on channel=9 note=66 velocity=0 time=0.005952375000000001
EXTRACT: note_on channel=9 note=66 velocity=0 time=0
EXTRACT: note_on channel=9 note=67 velocity=54 time=0.053571375000000004
EXTRACT: note_on channel=7 note=61 velocity=64 time=0
EXTRACT: note_on channel=7 note=64 velocity=70 time=0
EXTRACT: note_on channel=9 note=67 velocity=54 time=0
EXTRACT: note_on channel=7 note=64 velocity=0 time=0.06547612500000001
EXTRACT: note_on channel=9 note=67 velocity=0 time=0.009920625
EXTRACT: note_on channel=9 note=67 velocity=0 time=0
EXTRACT: note_on channel=7 note=61 velocity=0 time=0.0079365
EXTRACT: note_on channel=1 note=37 velocity=0 time=0.011904750000000002
EXTRACT: note_on channel=3 note=73 velocity=0 time=0.009920625
EXTRACT: note_on channel=9 note=65 velocity=82 time=0.00396825
EXTRACT: note_on channel=9 note=66 velocity=88 time=0
EXTRACT: note_on channel=1 note=35 velocity=83 time=0
EXTRACT: note_on channel=3 note=71 velocity=92 time=0
EXTRACT: note_on channel=5 note=61 velocity=78 time=0
EXTRACT: note_on channel=5 note=64 velocity=88 time=0
EXTRACT: note_on channel=5 note=68 velocity=88 time=0
EXTRACT: note_on channel=6 note=61 velocity=56 time=0
EXTRACT: note_on channel=6 note=64 velocity=66 time=0
EXTRACT: note_on channel=6 note=68 velocity=66 time=0
EXTRACT: note_on channel=7 note=56 velocity=86 time=0
EXTRACT: note_on channel=9 note=65 velocity=82 time=0
EXTRACT: note_on channel=9 note=66 velocity=88 time=0
EXTRACT: note_on channel=9 note=65 velocity=0 time=0.03571425
EXTRACT: note_on channel=9 note=65 velocity=0 time=0
EXTRACT: note_on channel=9 note=66 velocity=0 time=0.029761875000000004
EXTRACT: note_on channel=9 note=66 velocity=0 time=0
EXTRACT: note_on channel=1 note=35 velocity=0 time=0.126984
EXTRACT: note_on channel=3 note=71 velocity=0 time=0.01984125
EXTRACT: note_on channel=10 note=76 velocity=0 time=0.009920625
EXTRACT: note_on channel=9 note=65 velocity=77 time=0.015873
EXTRACT: note_on channel=9 note=66 velocity=76 time=0
EXTRACT: note_on channel=9 note=68 velocity=62 time=0
EXTRACT: note_on channel=1 note=36 velocity=92 time=0
EXTRACT: note_on channel=3 note=73 velocity=83 time=0
EXTRACT: note_on channel=7 note=61 velocity=67 time=0
EXTRACT: note_on channel=7 note=64 velocity=76 time=0
EXTRACT: note_on channel=9 note=65 velocity=77 time=0
EXTRACT: note_on channel=9 note=66 velocity=76 time=0
EXTRACT: note_on channel=9 note=68 velocity=62 time=0
EXTRACT: note_on channel=10 note=85 velocity=0 time=0.001984125
EXTRACT: note_on channel=10 note=52 velocity=0 time=0.013888875000000002
EXTRACT: note_on channel=10 note=49 velocity=0 time=0.00396825
EXTRACT: note_on channel=9 note=65 velocity=0 time=0.009920625
EXTRACT: note_on channel=9 note=65 velocity=0 time=0
EXTRACT: note_on channel=7 note=56 velocity=0 time=0.005952375000000001
EXTRACT: note_on channel=10 note=68 velocity=0 time=0.00396825
EXTRACT: note_on channel=5 note=64 velocity=0 time=0
EXTRACT: note_on channel=5 note=61 velocity=0 time=0
EXTRACT: note_on channel=6 note=64 velocity=0 time=0
EXTRACT: note_on channel=6 note=61 velocity=0 time=0
EXTRACT: note_on channel=9 note=68 velocity=0 time=0.009920625
EXTRACT: note_on channel=9 note=68 velocity=0 time=0
EXTRACT: note_on channel=10 note=73 velocity=0 time=0.001984125
EXTRACT: note_on channel=5 note=68 velocity=0 time=0.001984125
EXTRACT: note_on channel=6 note=68 velocity=0 time=0
EXTRACT: note_on channel=9 note=66 velocity=0 time=0.001984125
EXTRACT: note_on channel=9 note=66 velocity=0 time=0
EXTRACT: note_on channel=7 note=64 velocity=0 time=0.009920625
EXTRACT: note_on channel=7 note=61 velocity=0 time=0
EXTRACT: note_on channel=3 note=73 velocity=0 time=0.04761900000000001
EXTRACT: note_on channel=9 note=66 velocity=80 time=0.005952375000000001
EXTRACT: note_on channel=9 note=66 velocity=80 time=0
EXTRACT: note_on channel=9 note=65 velocity=79 time=0.009920625
EXTRACT: note_on channel=9 note=68 velocity=61 time=0
EXTRACT: note_on channel=7 note=61 velocity=74 time=0
EXTRACT: note_on channel=7 note=64 velocity=80 time=0
EXTRACT: note_on channel=9 note=65 velocity=79 time=0
EXTRACT: note_on channel=9 note=68 velocity=61 time=0
EXTRACT: note_on channel=10 note=56 velocity=0 time=0.041666625000000006
EXTRACT: note_on channel=9 note=66 velocity=0 time=0.00396825
EXTRACT: note_on channel=10 note=61 velocity=0 time=0
EXTRACT: note_on channel=9 note=66 velocity=0 time=0
EXTRACT: note_on channel=10 note=64 velocity=0 time=0.00396825
EXTRACT: note_on channel=9 note=65 velocity=0 time=0.001984125
EXTRACT: note_on channel=9 note=65 velocity=0 time=0
EXTRACT: note_on channel=9 note=68 velocity=0 time=0.011904750000000002
EXTRACT: note_on channel=9 note=68 velocity=0 time=0
EXTRACT: note_on channel=7 note=64 velocity=0 time=0.005952375000000001
EXTRACT: note_on channel=7 note=61 velocity=0 time=0.009920625
EXTRACT: note_on channel=1 note=36 velocity=0 time=0.013888875000000002
EXTRACT: note_on channel=9 note=27 velocity=94 time=0.015873
EXTRACT: note_on channel=9 note=36 velocity=105 time=0
EXTRACT: note_on channel=9 note=42 velocity=103 time=0
EXTRACT: note_on channel=9 note=44 velocity=107 time=0
EXTRACT: note_on channel=9 note=49 velocity=88 time=0
EXTRACT: note_on channel=9 note=56 velocity=82 time=0
EXTRACT: note_on channel=9 note=57 velocity=74 time=0
EXTRACT: note_on channel=1 note=37 velocity=84 time=0
EXTRACT: note_on channel=10 note=56 velocity=55 time=0
EXTRACT: note_on channel=10 note=61 velocity=44 time=0
EXTRACT: note_on channel=10 note=64 velocity=53 time=0
EXTRACT: note_on channel=10 note=85 velocity=57 time=0
EXTRACT: note_on channel=3 note=68 velocity=91 time=0
EXTRACT: note_on channel=5 note=61 velocity=81 time=0
EXTRACT: note_on channel=5 note=64 velocity=87 time=0
EXTRACT: note_on channel=5 note=68 velocity=75 time=0
EXTRACT: note_on channel=7 note=49 velocity=81 time=0
EXTRACT: note_on channel=9 note=36 velocity=126 time=0
EXTRACT: note_on channel=9 note=35 velocity=117 time=0
EXTRACT: note_on channel=9 note=35 velocity=0 time=0.001984125
EXTRACT: note_on channel=9 note=36 velocity=0 time=0
EXTRACT: note_on channel=9 note=44 velocity=0 time=0.061507875000000004
EXTRACT: note_on channel=5 note=64 velocity=0 time=0
EXTRACT: note_on channel=9 note=27 velocity=0 time=0.001984125
EXTRACT: note_on channel=9 note=36 velocity=0 time=0.0079365
EXTRACT: note_on channel=5 note=68 velocity=0 time=0.001984125
EXTRACT: note_on channel=9 note=49 velocity=0 time=0.009920625
EXTRACT: note_on channel=5 note=61 velocity=0 time=0
EXTRACT: note_on channel=9 note=57 velocity=0 time=0.009920625
EXTRACT: note_on channel=1 note=37 velocity=0 time=0.0396825
EXTRACT: note_on channel=9 note=69 velocity=84 time=0.005952375000000001
EXTRACT: note_on channel=9 note=69 velocity=0 time=0.001984125
EXTRACT: note_on channel=9 note=42 velocity=0 time=0.01984125
EXTRACT: note_on channel=7 note=49 velocity=0 time=0.03571425
EXTRACT: note_on channel=3 note=68 velocity=0 time=0.03571425
EXTRACT: note_on channel=9 note=70 velocity=105 time=0
EXTRACT: note_on channel=9 note=27 velocity=79 time=0.00396825
EXTRACT: note_on channel=9 note=44 velocity=51 time=0
EXTRACT: note_on channel=9 note=67 velocity=35 time=0
EXTRACT: note_on channel=1 note=37 velocity=81 time=0
EXTRACT: note_on channel=3 note=64 velocity=81 time=0
EXTRACT: note_on channel=7 note=56 velocity=74 time=0
EXTRACT: note_on channel=7 note=61 velocity=62 time=0
EXTRACT: note_on channel=9 note=70 velocity=0 time=0
EXTRACT: note_on channel=9 note=42 velocity=73 time=0
EXTRACT: note_on channel=9 note=62 velocity=79 time=0
EXTRACT: note_on channel=9 note=62 velocity=0 time=0.001984125
EXTRACT: note_on channel=9 note=42 velocity=0 time=0
EXTRACT: note_on channel=9 note=44 velocity=0 time=0.027777750000000004
EXTRACT: note_on channel=9 note=56 velocity=0 time=0.005952375000000001
EXTRACT: note_on channel=9 note=67 velocity=0 time=0.005952375000000001
EXTRACT: note_on channel=7 note=61 velocity=0 time=0.01984125
EXTRACT: note_on channel=7 note=56 velocity=0 time=0
EXTRACT: note_on channel=9 note=27 velocity=0 time=0.009920625
EXTRACT: note_on channel=7 note=56 velocity=82 time=0.04761900000000001
EXTRACT: note_on channel=7 note=61 velocity=71 time=0
EXTRACT: note_on channel=9 note=61 velocity=69 time=0
EXTRACT: note_on channel=9 note=61 velocity=0 time=0.001984125
EXTRACT: note_on channel=9 note=32 velocity=71 time=0.0079365
EXTRACT: note_on channel=9 note=44 velocity=66 time=0
EXTRACT: note_on channel=9 note=67 velocity=43 time=0
EXTRACT: note_on channel=5 note=61 velocity=76 time=0
EXTRACT: note_on channel=5 note=64 velocity=86 time=0
EXTRACT: note_on channel=5 note=68 velocity=77 time=0
EXTRACT: note_on channel=9 note=42 velocity=66 time=0.011904750000000002
EXTRACT: note_on channel=9 note=69 velocity=68 time=0
EXTRACT: note_on channel=9 note=69 velocity=0 time=0.001984125
EXTRACT: note_on channel=9 note=42 velocity=0 time=0
EXTRACT: note_on channel=7 note=61 velocity=0 time=0.037698375000000006
EXTRACT: note_on channel=9 note=44 velocity=0 time=0.001984125
EXTRACT: note_on channel=7 note=56 velocity=0 time=0.001984125
EXTRACT: note_on channel=9 note=67 velocity=0 time=0.015873
EXTRACT: note_on channel=3 note=64 velocity=0 time=0.0079365
EXTRACT: note_on channel=5 note=64 velocity=0 time=0.001984125
EXTRACT: note_on channel=9 note=32 velocity=0 time=0.00396825
EXTRACT: note_on channel=1 note=37 velocity=0 time=0.01984125
EXTRACT: note_on channel=9 note=28 velocity=74 time=0.00396825
EXTRACT: note_on channel=9 note=36 velocity=103 time=0
EXTRACT: note_on channel=9 note=39 velocity=104 time=0
EXTRACT: note_on channel=9 note=42 velocity=74 time=0
EXTRACT: note_on channel=9 note=56 velocity=77 time=0
EXTRACT: note_on channel=1 note=40 velocity=85 time=0
EXTRACT: note_on channel=3 note=68 velocity=79 time=0
EXTRACT: note_on channel=7 note=49 velocity=78 time=0
EXTRACT: note_on channel=9 note=39 velocity=121 time=0
EXTRACT: note_on channel=9 note=36 velocity=126 time=0
EXTRACT: note_on channel=9 note=35 velocity=117 time=0
EXTRACT: note_on channel=9 note=40 velocity=117 time=0
EXTRACT: note_on channel=9 note=44 velocity=81 time=0
EXTRACT: note_on channel=9 note=44 velocity=0 time=0.001984125
EXTRACT: note_on channel=9 note=35 velocity=0 time=0
EXTRACT: note_on channel=9 note=39 velocity=0 time=0
EXTRACT: note_on channel=9 note=36 velocity=0 time=0
EXTRACT: note_on channel=9 note=40 velocity=0 time=0
EXTRACT: note_on channel=5 note=68 velocity=0 time=0.017857125
EXTRACT: note_on channel=5 note=61 velocity=0 time=0.00396825
EXTRACT: note_on channel=9 note=39 velocity=0 time=0.037698375000000006
EXTRACT: note_on channel=9 note=42 velocity=0 time=0.00396825
EXTRACT: note_on channel=9 note=36 velocity=0 time=0.0079365
EXTRACT: note_on channel=9 note=28 velocity=0 time=0.017857125
EXTRACT: note_on channel=9 note=62 velocity=73 time=0.027777750000000004
EXTRACT: note_on channel=9 note=62 velocity=0 time=0.001984125
EXTRACT: note_on channel=9 note=32 velocity=59 time=0.0079365
EXTRACT: note_on channel=7 note=49 velocity=0 time=0.029761875000000004
EXTRACT: note_on channel=9 note=32 velocity=0 time=0.023809500000000004
EXTRACT: note_on channel=1 note=40 velocity=0 time=0.031746
EXTRACT: note_on channel=3 note=68 velocity=0 time=0.017857125
EXTRACT: note_on channel=9 note=32 velocity=63 time=0.005952375000000001
EXTRACT: note_on channel=9 note=44 velocity=53 time=0
EXTRACT: note_on channel=9 note=68 velocity=59 time=0
EXTRACT: note_on channel=1 note=44 velocity=91 time=0
EXTRACT: note_on channel=3 note=73 velocity=77 time=0
EXTRACT: note_on channel=5 note=61 velocity=84 time=0
EXTRACT: note_on channel=5 note=64 velocity=85 time=0
EXTRACT: note_on channel=5 note=68 velocity=86 time=0
EXTRACT: note_on channel=7 note=56 velocity=74 time=0
EXTRACT: note_on channel=7 note=61 velocity=57 time=0
EXTRACT: note_on channel=9 note=42 velocity=73 time=0
EXTRACT: note_on channel=9 note=61 velocity=66 time=0
EXTRACT: note_on channel=9 note=61 velocity=0 time=0.001984125
EXTRACT: note_on channel=9 note=42 velocity=0 time=0
EXTRACT: note_on channel=9 note=70 velocity=105 time=0.001984125
EXTRACT: note_on channel=9 note=70 velocity=0 time=0.001984125
EXTRACT: note_on channel=9 note=44 velocity=0 time=0.03373012500000001
EXTRACT: note_on channel=9 note=56 velocity=0 time=0.001984125
EXTRACT: note_on channel=7 note=61 velocity=0 time=0.013888875000000002
EXTRACT: note_on channel=9 note=68 velocity=0 time=0.005952375000000001
EXTRACT: note_on channel=5 note=64 velocity=0 time=0.001984125
EXTRACT: note_on channel=7 note=56 velocity=0 time=0.001984125
EXTRACT: note_on channel=9 note=32 velocity=0 time=0.005952375000000001
EXTRACT: note_on channel=5 note=61 velocity=0 time=0.029761875000000004
EXTRACT: note_on channel=5 note=68 velocity=0 time=0.0079365
EXTRACT: note_on channel=10 note=64 velocity=0 time=0.005952375000000001
EXTRACT: note_on channel=7 note=56 velocity=81 time=0.00396825
EXTRACT: note_on channel=7 note=61 velocity=68 time=0
EXTRACT: note_on channel=10 note=61 velocity=0 time=0.001984125
EXTRACT: note_on channel=9 note=32 velocity=62 time=0.0079365
EXTRACT: note_on channel=9 note=44 velocity=60 time=0
EXTRACT: note_on channel=9 note=68 velocity=36 time=0
EXTRACT: note_on channel=1 note=44 velocity=0 time=0.005952375000000001
EXTRACT: note_on channel=9 note=42 velocity=66 time=0.005952375000000001
EXTRACT: note_on channel=9 note=82 velocity=48 time=0
EXTRACT: note_on channel=9 note=82 velocity=0 time=0.001984125
EXTRACT: note_on channel=9 note=42 velocity=0 time=0
EXTRACT: note_on channel=9 note=68 velocity=0 time=0.045634875000000005
EXTRACT: note_on channel=10 note=56 velocity=0 time=0
EXTRACT: note_on channel=7 note=61 velocity=0 time=0
EXTRACT: note_on channel=9 note=44 velocity=0 time=0.001984125
EXTRACT: note_on channel=7 note=56 velocity=0 time=0
EXTRACT: note_on channel=9 note=32 velocity=0 time=0.011904750000000002
EXTRACT: note_on channel=3 note=73 velocity=0 time=0.031746
EXTRACT: note_on channel=9 note=27 velocity=88 time=0.00396825
EXTRACT: note_on channel=9 note=36 velocity=99 time=0
EXTRACT: note_on channel=9 note=42 velocity=93 time=0
EXTRACT: note_on channel=9 note=44 velocity=90 time=0
EXTRACT: note_on channel=9 note=56 velocity=73 time=0
EXTRACT: note_on channel=10 note=57 velocity=58 time=0
EXTRACT: note_on channel=10 note=61 velocity=58 time=0
EXTRACT: note_on channel=10 note=66 velocity=49 time=0
EXTRACT: note_on channel=10 note=81 velocity=61 time=0
EXTRACT: note_on channel=3 note=69 velocity=87 time=0
EXTRACT: note_on channel=7 note=54 velocity=83 time=0
EXTRACT: note_on channel=9 note=36 velocity=126 time=0
EXTRACT: note_on channel=9 note=35 velocity=117 time=0
EXTRACT: note_on channel=9 note=44 velocity=81 time=0
EXTRACT: note_on channel=9 note=82 velocity=55 time=0
EXTRACT: note_on channel=9 note=56 velocity=80 time=0
EXTRACT: note_on channel=9 note=56 velocity=0 time=0.001984125
EXTRACT: note_on channel=9 note=44 velocity=0 time=0
EXTRACT: note_on channel=9 note=36 velocity=0 time=0
EXTRACT: note_on channel=9 note=35 velocity=0 time=0
EXTRACT: note_on channel=9 note=82 velocity=0 time=0
EXTRACT: note_on channel=10 note=85 velocity=0 time=0.037698375000000006
EXTRACT: note_on channel=9 note=44 velocity=0 time=0.025793625000000004
EXTRACT: note_on channel=9 note=27 velocity=0 time=0.0079365
EXTRACT: note_on channel=9 note=36 velocity=0 time=0.01984125
EXTRACT: note_on channel=9 note=27 velocity=64 time=0.03571425
EXTRACT: note_on channel=5 note=61 velocity=84 time=0
EXTRACT: note_on channel=5 note=66 velocity=86 time=0
EXTRACT: note_on channel=5 note=69 velocity=97 time=0
EXTRACT: note_on channel=9 note=82 velocity=63 time=0.011904750000000002
EXTRACT: note_on channel=9 note=82 velocity=0 time=0.001984125
EXTRACT: note_on channel=9 note=42 velocity=0 time=0.005952375000000001
EXTRACT: note_on channel=9 note=27 velocity=0 time=0.041666625000000006
EXTRACT: note_on channel=5 note=69 velocity=0 time=0.0079365
EXTRACT: note_on channel=7 note=54 velocity=0 time=0
EXTRACT: note_on channel=5 note=66 velocity=0 time=0.00396825
EXTRACT: note_on channel=5 note=61 velocity=0 time=0.0079365
EXTRACT: note_on channel=9 note=27 velocity=69 time=0.027777750000000004
EXTRACT: note_on channel=9 note=44 velocity=53 time=0
EXTRACT: note_on channel=9 note=67 velocity=44 time=0
EXTRACT: note_on channel=1 note=30 velocity=88 time=0
EXTRACT: note_on channel=7 note=57 velocity=64 time=0
EXTRACT: note_on channel=7 note=61 velocity=49 time=0
EXTRACT: note_on channel=9 note=42 velocity=73 time=0
EXTRACT: note_on channel=9 note=82 velocity=59 time=0
EXTRACT: note_on channel=9 note=63 velocity=60 time=0
EXTRACT: note_on channel=9 note=63 velocity=0 time=0.001984125
EXTRACT: note_on channel=9 note=82 velocity=0 time=0
EXTRACT: note_on channel=9 note=42 velocity=0 time=0
EXTRACT: note_on channel=9 note=70 velocity=105 time=0.001984125
EXTRACT: note_on channel=9 note=70 velocity=0 time=0.001984125
EXTRACT: note_on channel=9 note=56 velocity=0 time=0.023809500000000004
EXTRACT: note_on channel=7 note=61 velocity=0 time=0.00396825
EXTRACT: note_on channel=7 note=57 velocity=0 time=0
EXTRACT: note_on channel=9 note=44 velocity=0 time=0.001984125
EXTRACT: note_on channel=9 note=67 velocity=0 time=0.005952375000000001
EXTRACT: note_on channel=9 note=27 velocity=0 time=0.037698375000000006
EXTRACT: note_on channel=7 note=57 velocity=71 time=0.0396825
EXTRACT: note_on channel=7 note=61 velocity=56 time=0
EXTRACT: note_on channel=9 note=56 velocity=89 time=0
EXTRACT: note_on channel=9 note=56 velocity=0 time=0.001984125
EXTRACT: note_on channel=9 note=44 velocity=35 time=0.0079365
EXTRACT: note_on channel=9 note=67 velocity=27 time=0
EXTRACT: note_on channel=9 note=42 velocity=66 time=0.011904750000000002
EXTRACT: note_on channel=9 note=82 velocity=45 time=0
EXTRACT: note_on channel=9 note=82 velocity=0 time=0.001984125
EXTRACT: note_on channel=9 note=42 velocity=0 time=0
EXTRACT: note_on channel=9 note=44 velocity=0 time=0.027777750000000004
EXTRACT: note_on channel=9 note=67 velocity=0 time=0.001984125
EXTRACT: note_on channel=7 note=57 velocity=0 time=0.015873
EXTRACT: note_on channel=7 note=61 velocity=0 time=0.00396825
EXTRACT: note_on channel=3 note=69 velocity=0 time=0.001984125
EXTRACT: note_on channel=1 note=30 velocity=0 time=0.0396825
EXTRACT: note_on channel=9 note=28 velocity=79 time=0.00396825
EXTRACT: note_on channel=9 note=32 velocity=78 time=0
EXTRACT: note_on channel=9 note=36 velocity=103 time=0
EXTRACT: note_on channel=9 note=39 velocity=99 time=0
EXTRACT: note_on channel=9 note=42 velocity=64 time=0
EXTRACT: note_on channel=9 note=56 velocity=76 time=0
EXTRACT: note_on channel=1 note=37 velocity=84 time=0
EXTRACT: note_on channel=5 note=61 velocity=82 time=0
EXTRACT: note_on channel=5 note=66 velocity=78 time=0
EXTRACT: note_on channel=5 note=69 velocity=96 time=0
EXTRACT: note_on channel=7 note=54 velocity=85 time=0
EXTRACT: note_on channel=9 note=36 velocity=126 time=0
EXTRACT: note_on channel=9 note=35 velocity=117 time=0
EXTRACT: note_on channel=9 note=39 velocity=121 time=0
EXTRACT: note_on channel=9 note=40 velocity=117 time=0
EXTRACT: note_on channel=9 note=44 velocity=81 time=0
EXTRACT: note_on channel=9 note=82 velocity=60 time=0
EXTRACT: note_on channel=9 note=82 velocity=0 time=0.001984125
EXTRACT: note_on channel=9 note=35 velocity=0 time=0
EXTRACT: note_on channel=9 note=39 velocity=0 time=0
EXTRACT: note_on channel=9 note=36 velocity=0 time=0
EXTRACT: note_on channel=9 note=44 velocity=0 time=0
EXTRACT: note_on channel=9 note=40 velocity=0 time=0
EXTRACT: note_on channel=9 note=39 velocity=0 time=0.063492
EXTRACT: note_on channel=9 note=28 velocity=0 time=0.00396825
EXTRACT: note_on channel=9 note=32 velocity=0 time=0.009920625
EXTRACT: note_on channel=9 note=42 velocity=0 time=0.001984125
EXTRACT: note_on channel=9 note=36 velocity=0 time=0.10317450000000002
EXTRACT: note_on channel=7 note=54 velocity=0 time=0.01984125
EXTRACT: note_on channel=9 note=70 velocity=105 time=0.027777750000000004
EXTRACT: note_on channel=1 note=37 velocity=0 time=0.001984125
EXTRACT: note_on channel=9 note=70 velocity=0 time=0
EXTRACT: note_on channel=9 note=32 velocity=67 time=0.00396825
EXTRACT: note_on channel=9 note=44 velocity=53 time=0
EXTRACT: note_on channel=9 note=68 velocity=40 time=0
EXTRACT: note_on channel=1 note=30 velocity=81 time=0
EXTRACT: note_on channel=7 note=57 velocity=70 time=0
EXTRACT: note_on channel=7 note=61 velocity=63 time=0
EXTRACT: note_on channel=9 note=42 velocity=75 time=0
EXTRACT: note_on channel=9 note=69 velocity=87 time=0
EXTRACT: note_on channel=9 note=56 velocity=87 time=0
EXTRACT: note_on channel=9 note=56 velocity=0 time=0.001984125
EXTRACT: note_on channel=9 note=69 velocity=0 time=0
EXTRACT: note_on channel=9 note=42 velocity=0 time=0
EXTRACT: note_on channel=9 note=68 velocity=0 time=0.027777750000000004
EXTRACT: note_on channel=7 note=57 velocity=0 time=0.011904750000000002
EXTRACT: note_on channel=9 note=32 velocity=0 time=0.009920625
EXTRACT: note_on channel=9 note=44 velocity=0 time=0.001984125
EXTRACT: note_on channel=7 note=61 velocity=0 time=0.011904750000000002
EXTRACT: note_on channel=9 note=56 velocity=0 time=0.005952375000000001
EXTRACT: note_on channel=5 note=66 velocity=0 time=0.027777750000000004
EXTRACT: note_on channel=5 note=69 velocity=0 time=0.00396825
EXTRACT: note_on channel=10 note=66 velocity=0 time=0.005952375000000001
EXTRACT: note_on channel=10 note=61 velocity=0 time=0.001984125
EXTRACT: note_on channel=7 note=57 velocity=74 time=0.0079365
EXTRACT: note_on channel=7 note=61 velocity=59 time=0
EXTRACT: note_on channel=9 note=62 velocity=64 time=0
EXTRACT: note_on channel=9 note=62 velocity=0 time=0.001984125
EXTRACT: note_on channel=9 note=32 velocity=64 time=0.0079365
EXTRACT: note_on channel=9 note=44 velocity=54 time=0
EXTRACT: note_on channel=9 note=68 velocity=34 time=0
EXTRACT: note_on channel=10 note=57 velocity=0 time=0.011904750000000002
EXTRACT: note_on channel=5 note=61 velocity=0 time=0
EXTRACT: note_on channel=9 note=42 velocity=66 time=0
EXTRACT: note_on channel=9 note=69 velocity=69 time=0
EXTRACT: note_on channel=9 note=69 velocity=0 time=0.001984125
EXTRACT: note_on channel=9 note=42 velocity=0 time=0
EXTRACT: note_on channel=9 note=44 velocity=0 time=0.041666625000000006
EXTRACT: note_on channel=7 note=57 velocity=0 time=0.00396825
EXTRACT: note_on channel=9 note=32 velocity=0 time=0.005952375000000001
EXTRACT: note_on channel=7 note=61 velocity=0 time=0
EXTRACT: note_on channel=9 note=68 velocity=0 time=0.0079365
EXTRACT: note_on channel=10 note=81 velocity=0 time=0.009920625
EXTRACT: note_on channel=1 note=30 velocity=0 time=0.021825375
EXTRACT: note_on channel=9 note=27 velocity=92 time=0.00396825
EXTRACT: note_on channel=9 note=36 velocity=99 time=0
EXTRACT: note_on channel=9 note=42 velocity=90 time=0
EXTRACT: note_on channel=9 note=44 velocity=89 time=0
EXTRACT: note_on channel=9 note=56 velocity=74 time=0
EXTRACT: note_on channel=1 note=35 velocity=88 time=0
EXTRACT: note_on channel=10 note=59 velocity=68 time=0
EXTRACT: note_on channel=10 note=63 velocity=46 time=0
EXTRACT: note_on channel=10 note=66 velocity=61 time=0
EXTRACT: note_on channel=10 note=78 velocity=59 time=0
EXTRACT: note_on channel=3 note=66 velocity=90 time=0
EXTRACT: note_on channel=5 note=59 velocity=83 time=0
EXTRACT: note_on channel=5 note=63 velocity=79 time=0
EXTRACT: note_on channel=5 note=66 velocity=81 time=0
EXTRACT: note_on channel=7 note=51 velocity=94 time=0
EXTRACT: note_on channel=9 note=36 velocity=126 time=0
EXTRACT: note_on channel=9 note=35 velocity=117 time=0
EXTRACT: note_on channel=9 note=44 velocity=81 time=0
EXTRACT: note_on channel=9 note=60 velocity=69 time=0
EXTRACT: note_on channel=9 note=60 velocity=0 time=0.001984125
EXTRACT: note_on channel=9 note=36 velocity=0 time=0
EXTRACT: note_on channel=9 note=35 velocity=0 time=0
EXTRACT: note_on channel=9 note=44 velocity=0 time=0
EXTRACT: note_on channel=5 note=63 velocity=0 time=0.06746025000000001
EXTRACT: note_on channel=9 note=27 velocity=0 time=0.009920625
EXTRACT: note_on channel=5 note=66 velocity=0 time=0
EXTRACT: note_on channel=9 note=44 velocity=0 time=0.001984125
EXTRACT: note_on channel=9 note=36 velocity=0 time=0.01984125
EXTRACT: note_on channel=5 note=59 velocity=0 time=0.011904750000000002
EXTRACT: note_on channel=7 note=51 velocity=0 time=0.015873
EXTRACT: note_on channel=9 note=69 velocity=93 time=0.011904750000000002
EXTRACT: note_on channel=9 note=69 velocity=0 time=0.001984125
EXTRACT: note_on channel=1 note=35 velocity=0 time=0.017857125
EXTRACT: note_on channel=9 note=42 velocity=0 time=0.031746
EXTRACT: note_on channel=3 note=66 velocity=0 time=0.041666625000000006
EXTRACT: note_on channel=9 note=27 velocity=85 time=0.00396825
EXTRACT: note_on channel=9 note=44 velocity=53 time=0
EXTRACT: note_on channel=9 note=67 velocity=38 time=0
EXTRACT: note_on channel=1 note=35 velocity=74 time=0
EXTRACT: note_on channel=3 note=63 velocity=73 time=0
EXTRACT: note_on channel=7 note=54 velocity=69 time=0
EXTRACT: note_on channel=7 note=59 velocity=41 time=0
EXTRACT: note_on channel=9 note=42 velocity=73 time=0
EXTRACT: note_on channel=9 note=62 velocity=59 time=0
EXTRACT: note_on channel=9 note=70 velocity=105 time=0
EXTRACT: note_on channel=9 note=70 velocity=0 time=0.001984125
EXTRACT: note_on channel=9 note=62 velocity=0 time=0
EXTRACT: note_on channel=9 note=42 velocity=0 time=0
EXTRACT: note_on channel=9 note=44 velocity=0 time=0.031746
EXTRACT: note_on channel=9 note=67 velocity=0 time=0.0079365
EXTRACT: note_on channel=7 note=59 velocity=0 time=0
EXTRACT: note_on channel=9 note=56 velocity=0 time=0.013888875000000002
EXTRACT: note_on channel=7 note=54 velocity=0 time=0.009920625
EXTRACT: note_on channel=9 note=27 velocity=0 time=0.00396825
EXTRACT: note_on channel=7 note=54 velocity=73 time=0.049603125000000005
EXTRACT: note_on channel=7 note=59 velocity=65 time=0
EXTRACT: note_on channel=9 note=60 velocity=63 time=0
EXTRACT: note_on channel=9 note=60 velocity=0 time=0.001984125
EXTRACT: note_on channel=9 note=32 velocity=76 time=0.0079365
EXTRACT: note_on channel=9 note=44 velocity=27 time=0
EXTRACT: note_on channel=9 note=67 velocity=45 time=0
EXTRACT: note_on channel=5 note=59 velocity=67 time=0
EXTRACT: note_on channel=5 note=63 velocity=90 time=0
EXTRACT: note_on channel=5 note=66 velocity=81 time=0
EXTRACT: note_on channel=9 note=42 velocity=66 time=0.011904750000000002
EXTRACT: note_on channel=9 note=69 velocity=61 time=0
EXTRACT: note_on channel=9 note=69 velocity=0 time=0.001984125
EXTRACT: note_on channel=9 note=42 velocity=0 time=0
EXTRACT: note_on channel=9 note=44 velocity=0 time=0.025793625000000004
EXTRACT: note_on channel=9 note=67 velocity=0 time=0.00396825
EXTRACT: note_on channel=9 note=32 velocity=0 time=0.029761875000000004
EXTRACT: note_on channel=5 note=63 velocity=0 time=0
EXTRACT: note_on channel=7 note=54 velocity=0 time=0
EXTRACT: note_on channel=7 note=59 velocity=0 time=0.001984125
EXTRACT: note_on channel=5 note=66 velocity=0 time=0.0079365
EXTRACT: note_on channel=1 note=35 velocity=0 time=0.021825375
EXTRACT: note_on channel=3 note=63 velocity=0 time=0
EXTRACT: note_on channel=9 note=28 velocity=82 time=0.00396825
EXTRACT: note_on channel=9 note=36 velocity=94 time=0
EXTRACT: note_on channel=9 note=39 velocity=99 time=0
EXTRACT: note_on channel=9 note=42 velocity=76 time=0
EXTRACT: note_on channel=9 note=56 velocity=76 time=0
EXTRACT: note_on channel=1 note=39 velocity=91 time=0
EXTRACT: note_on channel=3 note=66 velocity=74 time=0
EXTRACT: note_on channel=7 note=51 velocity=85 time=0
EXTRACT: note_on channel=9 note=40 velocity=117 time=0
EXTRACT: note_on channel=9 note=36 velocity=126 time=0
EXTRACT: note_on channel=9 note=35 velocity=117 time=0
EXTRACT: note_on channel=9 note=39 velocity=121 time=0
EXTRACT: note_on channel=9 note=44 velocity=81 time=0
EXTRACT: note_on channel=9 note=69 velocity=78 time=0
EXTRACT: note_on channel=9 note=69 velocity=0 time=0.001984125
EXTRACT: note_on channel=9 note=36 velocity=0 time=0
EXTRACT: note_on channel=9 note=35 velocity=0 time=0
EXTRACT: note_on channel=9 note=40 velocity=0 time=0
EXTRACT: note_on channel=9 note=44 velocity=0 time=0
EXTRACT: note_on channel=9 note=39 velocity=0 time=0
EXTRACT: note_on channel=5 note=59 velocity=0 time=0.0396825
EXTRACT: note_on channel=9 note=39 velocity=0 time=0.027777750000000004
EXTRACT: note_on channel=9 note=28 velocity=0 time=0.005952375000000001
EXTRACT: note_on channel=9 note=36 velocity=0 time=0
EXTRACT: note_on channel=9 note=42 velocity=0 time=0.03373012500000001
EXTRACT: note_on channel=9 note=61 velocity=73 time=0.009920625
EXTRACT: note_on channel=9 note=61 velocity=0 time=0.001984125
EXTRACT: note_on channel=9 note=32 velocity=68 time=0.0079365
EXTRACT: note_on channel=9 note=32 velocity=0 time=0.053571375000000004
EXTRACT: note_on channel=1 note=39 velocity=0 time=0.041666625000000006
EXTRACT: note_on channel=3 note=66 velocity=0 time=0.00396825
EXTRACT: note_on channel=7 note=51 velocity=0 time=0
EXTRACT: note_on channel=9 note=32 velocity=70 time=0.009920625
EXTRACT: note_on channel=9 note=44 velocity=59 time=0
EXTRACT: note_on channel=9 note=68 velocity=43 time=0
EXTRACT: note_on channel=1 note=42 velocity=83 time=0
EXTRACT: note_on channel=3 note=71 velocity=81 time=0
EXTRACT: note_on channel=5 note=59 velocity=87 time=0
EXTRACT: note_on channel=5 note=63 velocity=93 time=0
EXTRACT: note_on channel=5 note=66 velocity=86 time=0
EXTRACT: note_on channel=7 note=54 velocity=75 time=0
EXTRACT: note_on channel=7 note=59 velocity=76 time=0
EXTRACT: note_on channel=9 note=42 velocity=73 time=0
EXTRACT: note_on channel=9 note=60 velocity=66 time=0
EXTRACT: note_on channel=9 note=60 velocity=0 time=0.001984125
EXTRACT: note_on channel=9 note=42 velocity=0 time=0
EXTRACT: note_on channel=9 note=70 velocity=105 time=0
EXTRACT: note_on channel=9 note=70 velocity=0 time=0.001984125
EXTRACT: note_on channel=9 note=68 velocity=0 time=0.031746
EXTRACT: note_on channel=9 note=44 velocity=0 time=0.01984125
EXTRACT: note_on channel=9 note=32 velocity=0 time=0.0079365
EXTRACT: note_on channel=9 note=56 velocity=0 time=0.005952375000000001
EXTRACT: note_on channel=7 note=54 velocity=0 time=0
EXTRACT: note_on channel=5 note=63 velocity=0 time=0.00396825
EXTRACT: note_on channel=7 note=59 velocity=0 time=0.005952375000000001
EXTRACT: note_on channel=5 note=66 velocity=0 time=0.00396825
EXTRACT: note_on channel=10 note=63 velocity=0 time=0.025793625000000004
EXTRACT: note_on channel=5 note=59 velocity=0 time=0
EXTRACT: note_on channel=10 note=66 velocity=0 time=0.005952375000000001
EXTRACT: note_on channel=7 note=54 velocity=73 time=0.00396825
EXTRACT: note_on channel=7 note=59 velocity=51 time=0
EXTRACT: note_on channel=9 note=62 velocity=69 time=0
EXTRACT: note_on channel=9 note=62 velocity=0 time=0.001984125
EXTRACT: note_on channel=9 note=32 velocity=63 time=0.0079365
EXTRACT: note_on channel=9 note=44 velocity=61 time=0
EXTRACT: note_on channel=9 note=68 velocity=25 time=0
EXTRACT: note_on channel=9 note=42 velocity=66 time=0.011904750000000002
EXTRACT: note_on channel=10 note=59 velocity=0 time=0.001984125
EXTRACT: note_on channel=9 note=42 velocity=0 time=0
EXTRACT: note_on channel=9 note=44 velocity=0 time=0.045634875000000005
EXTRACT: note_on channel=7 note=54 velocity=0 time=0
EXTRACT: note_on channel=7 note=59 velocity=0 time=0.001984125
EXTRACT: note_on channel=9 note=32 velocity=0 time=0.001984125
EXTRACT: note_on channel=1 note=42 velocity=0 time=0.009920625
EXTRACT: note_on channel=9 note=68 velocity=0 time=0.011904750000000002
EXTRACT: note_on channel=3 note=71 velocity=0 time=0.01984125
EXTRACT: note_on channel=9 note=27 velocity=87 time=0.00396825
EXTRACT: note_on channel=9 note=36 velocity=103 time=0
EXTRACT: note_on channel=9 note=42 velocity=87 time=0
EXTRACT: note_on channel=9 note=44 velocity=85 time=0
EXTRACT: note_on channel=9 note=56 velocity=71 time=0
EXTRACT: note_on channel=10 note=59 velocity=60 time=0
EXTRACT: note_on channel=10 note=64 velocity=65 time=0
EXTRACT: note_on channel=10 note=68 velocity=58 time=0
EXTRACT: note_on channel=10 note=76 velocity=56 time=0
EXTRACT: note_on channel=3 note=68 velocity=88 time=0
EXTRACT: note_on channel=7 note=52 velocity=95 time=0
EXTRACT: note_on channel=9 note=36 velocity=126 time=0
EXTRACT: note_on channel=9 note=35 velocity=117 time=0
EXTRACT: note_on channel=9 note=44 velocity=81 time=0
EXTRACT: note_on channel=9 note=82 velocity=69 time=0
EXTRACT: note_on channel=9 note=56 velocity=87 time=0
EXTRACT: note_on channel=9 note=60 velocity=63 time=0
EXTRACT: note_on channel=9 note=60 velocity=0 time=0.001984125
EXTRACT: note_on channel=9 note=35 velocity=0 time=0
EXTRACT: note_on channel=9 note=44 velocity=0 time=0
EXTRACT: note_on channel=9 note=36 velocity=0 time=0
EXTRACT: note_on channel=9 note=56 velocity=0 time=0
EXTRACT: note_on channel=9 note=82 velocity=0 time=0
EXTRACT: note_on channel=10 note=78 velocity=0 time=0.023809500000000004
EXTRACT: note_on channel=9 note=27 velocity=0 time=0.04365075
EXTRACT: note_on channel=9 note=36 velocity=0 time=0.005952375000000001
EXTRACT: note_on channel=9 note=44 velocity=0 time=0.01984125
EXTRACT: note_on channel=9 note=32 velocity=76 time=0.03373012500000001
EXTRACT: note_on channel=5 note=59 velocity=77 time=0
EXTRACT: note_on channel=5 note=64 velocity=96 time=0
EXTRACT: note_on channel=5 note=68 velocity=84 time=0
EXTRACT: note_on channel=9 note=82 velocity=43 time=0.011904750000000002
EXTRACT: note_on channel=9 note=82 velocity=0 time=0.001984125
EXTRACT: note_on channel=9 note=32 velocity=0 time=0.049603125000000005
EXTRACT: note_on channel=5 note=64 velocity=0 time=0
EXTRACT: note_on channel=5 note=68 velocity=0 time=0.017857125
EXTRACT: note_on channel=5 note=59 velocity=0 time=0.017857125
EXTRACT: note_on channel=9 note=70 velocity=105 time=0.001984125
EXTRACT: note_on channel=9 note=70 velocity=0 time=0.001984125
EXTRACT: note_on channel=9 note=42 velocity=0 time=0.001984125
EXTRACT: note_on channel=9 note=27 velocity=58 time=0.00396825
EXTRACT: note_on channel=9 note=44 velocity=56 time=0
EXTRACT: note_on channel=9 note=67 velocity=44 time=0
EXTRACT: note_on channel=1 note=40 velocity=96 time=0
EXTRACT: note_on channel=7 note=56 velocity=70 time=0
EXTRACT: note_on channel=7 note=59 velocity=72 time=0
EXTRACT: note_on channel=9 note=42 velocity=73 time=0
EXTRACT: note_on channel=9 note=82 velocity=48 time=0
EXTRACT: note_on channel=9 note=82 velocity=0 time=0.001984125
EXTRACT: note_on channel=9 note=42 velocity=0 time=0
EXTRACT: note_on channel=7 note=52 velocity=0 time=0.031746
EXTRACT: note_on channel=9 note=67 velocity=0 time=0.0079365
EXTRACT: note_on channel=9 note=44 velocity=0 time=0
EXTRACT: note_on channel=7 note=59 velocity=0 time=0
EXTRACT: note_on channel=9 note=27 velocity=0 time=0.00396825
EXTRACT: note_on channel=7 note=56 velocity=0 time=0.015873
EXTRACT: note_on channel=9 note=56 velocity=0 time=0.001984125
EXTRACT: note_on channel=7 note=56 velocity=74 time=0.05555550000000001
EXTRACT: note_on channel=7 note=59 velocity=73 time=0
EXTRACT: note_on channel=9 note=56 velocity=87 time=0
EXTRACT: note_on channel=9 note=56 velocity=0 time=0.001984125
EXTRACT: note_on channel=9 note=44 velocity=51 time=0.0079365
EXTRACT: note_on channel=9 note=67 velocity=35 time=0
EXTRACT: note_on channel=9 note=42 velocity=66 time=0.011904750000000002
EXTRACT: note_on channel=9 note=82 velocity=40 time=0
EXTRACT: note_on channel=9 note=82 velocity=0 time=0.001984125
EXTRACT: note_on channel=9 note=42 velocity=0 time=0
EXTRACT: note_on channel=9 note=44 velocity=0 time=0.045634875000000005
EXTRACT: note_on channel=7 note=56 velocity=0 time=0
EXTRACT: note_on channel=9 note=67 velocity=0 time=0.005952375000000001
EXTRACT: note_on channel=7 note=59 velocity=0 time=0.00396825
EXTRACT: note_on channel=1 note=40 velocity=0 time=0.03571425
EXTRACT: note_on channel=3 note=68 velocity=0 time=0
EXTRACT: note_on channel=9 note=28 velocity=85 time=0.00396825
EXTRACT: note_on channel=9 note=32 velocity=88 time=0
EXTRACT: note_on channel=9 note=36 velocity=103 time=0
EXTRACT: note_on channel=9 note=39 velocity=94 time=0
EXTRACT: note_on channel=9 note=42 velocity=79 time=0
EXTRACT: note_on channel=9 note=56 velocity=70 time=0
EXTRACT: note_on channel=1 note=35 velocity=80 time=0
EXTRACT: note_on channel=3 note=66 velocity=78 time=0
EXTRACT: note_on channel=5 note=59 velocity=89 time=0
EXTRACT: note_on channel=5 note=64 velocity=97 time=0
EXTRACT: note_on channel=5 note=68 velocity=86 time=0
EXTRACT: note_on channel=7 note=52 velocity=91 time=0
EXTRACT: note_on channel=9 note=39 velocity=121 time=0
EXTRACT: note_on channel=9 note=40 velocity=117 time=0
EXTRACT: note_on channel=9 note=36 velocity=126 time=0
EXTRACT: note_on channel=9 note=35 velocity=117 time=0
EXTRACT: note_on channel=9 note=44 velocity=81 time=0
EXTRACT: note_on channel=9 note=82 velocity=69 time=0
EXTRACT: note_on channel=9 note=82 velocity=0 time=0.001984125
EXTRACT: note_on channel=9 note=40 velocity=0 time=0
EXTRACT: note_on channel=9 note=36 velocity=0 time=0
EXTRACT: note_on channel=9 note=39 velocity=0 time=0
EXTRACT: note_on channel=9 note=44 velocity=0 time=0
EXTRACT: note_on channel=9 note=35 velocity=0 time=0
EXTRACT: note_on channel=9 note=39 velocity=0 time=0.06746025000000001
EXTRACT: note_on channel=9 note=32 velocity=0 time=0.001984125
EXTRACT: note_on channel=9 note=28 velocity=0 time=0.001984125
EXTRACT: note_on channel=9 note=36 velocity=0 time=0
EXTRACT: note_on channel=9 note=42 velocity=0 time=0.0714285
EXTRACT: note_on channel=7 note=52 velocity=0 time=0.049603125000000005
EXTRACT: note_on channel=3 note=66 velocity=0 time=0.023809500000000004
EXTRACT: note_on channel=1 note=35 velocity=0 time=0.009920625
EXTRACT: note_on channel=9 note=70 velocity=105 time=0.00396825
EXTRACT: note_on channel=9 note=70 velocity=0 time=0.001984125
EXTRACT: note_on channel=9 note=32 velocity=71 time=0.00396825
EXTRACT: note_on channel=9 note=36 velocity=74 time=0
EXTRACT: note_on channel=9 note=44 velocity=55 time=0
EXTRACT: note_on channel=9 note=68 velocity=53 time=0
EXTRACT: note_on channel=1 note=40 velocity=94 time=0
EXTRACT: note_on channel=3 note=64 velocity=69 time=0
EXTRACT: note_on channel=7 note=56 velocity=77 time=0
EXTRACT: note_on channel=7 note=59 velocity=80 time=0
EXTRACT: note_on channel=9 note=42 velocity=73 time=0
EXTRACT: note_on channel=9 note=69 velocity=78 time=0
EXTRACT: note_on channel=9 note=56 velocity=87 time=0
EXTRACT: note_on channel=9 note=56 velocity=0 time=0.001984125
EXTRACT: note_on channel=9 note=69 velocity=0 time=0
EXTRACT: note_on channel=9 note=42 velocity=0 time=0
EXTRACT: note_on channel=9 note=44 velocity=0 time=0.041666625000000006
EXTRACT: note_on channel=5 note=59 velocity=0 time=0.009920625
EXTRACT: note_on channel=9 note=32 velocity=0 time=0.001984125
EXTRACT: note_on channel=9 note=68 velocity=0 time=0
EXTRACT: note_on channel=9 note=36 velocity=0 time=0.0079365
EXTRACT: note_on channel=10 note=64 velocity=0 time=0
EXTRACT: note_on channel=5 note=64 velocity=0 time=0
EXTRACT: note_on channel=7 note=56 velocity=0 time=0.001984125
EXTRACT: note_on channel=9 note=56 velocity=0 time=0.005952375000000001
EXTRACT: note_on channel=7 note=59 velocity=0 time=0.001984125
EXTRACT: note_on channel=10 note=68 velocity=0 time=0.029761875000000004
EXTRACT: note_on channel=5 note=68 velocity=0 time=0
EXTRACT: note_on channel=7 note=56 velocity=83 time=0.015873
EXTRACT: note_on channel=7 note=59 velocity=53 time=0
EXTRACT: note_on channel=9 note=32 velocity=67 time=0.009920625
EXTRACT: note_on channel=9 note=44 velocity=62 time=0
EXTRACT: note_on channel=9 note=68 velocity=35 time=0
EXTRACT: note_on channel=9 note=42 velocity=66 time=0.011904750000000002
EXTRACT: note_on channel=9 note=69 velocity=73 time=0
EXTRACT: note_on channel=9 note=69 velocity=0 time=0.001984125
EXTRACT: note_on channel=9 note=42 velocity=0 time=0
EXTRACT: note_on channel=10 note=59 velocity=0 time=0.0079365
EXTRACT: note_on channel=7 note=59 velocity=0 time=0.03373012500000001
EXTRACT: note_on channel=9 note=44 velocity=0 time=0.0079365
EXTRACT: note_on channel=9 note=32 velocity=0 time=0.005952375000000001
EXTRACT: note_on channel=7 note=56 velocity=0 time=0.001984125
EXTRACT: note_on channel=9 note=68 velocity=0 time=0.001984125
EXTRACT: note_on channel=1 note=40 velocity=0 time=0.0079365
EXTRACT: note_on channel=3 note=64 velocity=0 time=0.00396825
EXTRACT: note_on channel=9 note=27 velocity=90 time=0.023809500000000004
EXTRACT: note_on channel=9 note=36 velocity=101 time=0
EXTRACT: note_on channel=9 note=42 velocity=93 time=0
EXTRACT: note_on channel=9 note=44 velocity=85 time=0
EXTRACT: note_on channel=9 note=56 velocity=73 time=0
EXTRACT: note_on channel=1 note=37 velocity=82 time=0
EXTRACT: note_on channel=10 note=76 velocity=0 time=0
EXTRACT: note_on channel=10 note=61 velocity=57 time=0
EXTRACT: note_on channel=10 note=64 velocity=65 time=0
EXTRACT: note_on channel=10 note=68 velocity=57 time=0
EXTRACT: note_on channel=10 note=80 velocity=62 time=0
EXTRACT: note_on channel=5 note=61 velocity=74 time=0
EXTRACT: note_on channel=5 note=64 velocity=91 time=0
EXTRACT: note_on channel=5 note=68 velocity=90 time=0
EXTRACT: note_on channel=7 note=49 velocity=84 time=0
EXTRACT: note_on channel=9 note=36 velocity=126 time=0
EXTRACT: note_on channel=9 note=35 velocity=117 time=0
EXTRACT: note_on channel=9 note=35 velocity=0 time=0.001984125
EXTRACT: note_on channel=9 note=36 velocity=0 time=0
EXTRACT: note_on channel=5 note=64 velocity=0 time=0.063492
EXTRACT: note_on channel=9 note=27 velocity=0 time=0.013888875000000002
EXTRACT: note_on channel=5 note=68 velocity=0 time=0.005952375000000001
EXTRACT: note_on channel=5 note=61 velocity=0 time=0.0396825
EXTRACT: note_on channel=9 note=44 velocity=0 time=0.009920625
EXTRACT: note_on channel=9 note=36 velocity=0 time=0.00396825
EXTRACT: note_on channel=9 note=69 velocity=84 time=0.001984125
EXTRACT: note_on channel=9 note=69 velocity=0 time=0.001984125
EXTRACT: note_on channel=1 note=37 velocity=0 time=0.015873
EXTRACT: note_on channel=9 note=42 velocity=0 time=0.07539675000000001
EXTRACT: note_on channel=7 note=49 velocity=0 time=0
EXTRACT: note_on channel=9 note=70 velocity=105 time=0
EXTRACT: note_on channel=9 note=27 velocity=78 time=0.00396825
EXTRACT: note_on channel=9 note=44 velocity=43 time=0
EXTRACT: note_on channel=9 note=67 velocity=36 time=0
EXTRACT: note_on channel=1 note=37 velocity=79 time=0
EXTRACT: note_on channel=7 note=56 velocity=80 time=0
EXTRACT: note_on channel=7 note=61 velocity=63 time=0
EXTRACT: note_on channel=9 note=70 velocity=0 time=0
EXTRACT: note_on channel=9 note=42 velocity=73 time=0
EXTRACT: note_on channel=9 note=62 velocity=79 time=0
EXTRACT: note_on channel=9 note=62 velocity=0 time=0.001984125
EXTRACT: note_on channel=9 note=42 velocity=0 time=0
EXTRACT: note_on channel=9 note=44 velocity=0 time=0.027777750000000004
EXTRACT: note_on channel=9 note=67 velocity=0 time=0.013888875000000002
EXTRACT: note_on channel=7 note=56 velocity=0 time=0.011904750000000002
EXTRACT: note_on channel=7 note=61 velocity=0 time=0.005952375000000001
EXTRACT: note_on channel=9 note=27 velocity=0 time=0.00396825
EXTRACT: note_on channel=9 note=56 velocity=0 time=0.017857125
EXTRACT: note_on channel=7 note=56 velocity=81 time=0.03571425
EXTRACT: note_on channel=7 note=61 velocity=74 time=0
EXTRACT: note_on channel=9 note=61 velocity=69 time=0
EXTRACT: note_on channel=9 note=61 velocity=0 time=0.001984125
EXTRACT: note_on channel=9 note=27 velocity=50 time=0.0079365
EXTRACT: note_on channel=9 note=44 velocity=58 time=0
EXTRACT: note_on channel=9 note=67 velocity=42 time=0
EXTRACT: note_on channel=5 note=61 velocity=81 time=0
EXTRACT: note_on channel=5 note=64 velocity=84 time=0
EXTRACT: note_on channel=5 note=68 velocity=84 time=0
EXTRACT: note_on channel=9 note=42 velocity=66 time=0.011904750000000002
EXTRACT: note_on channel=9 note=69 velocity=68 time=0
EXTRACT: note_on channel=9 note=69 velocity=0 time=0.001984125
EXTRACT: note_on channel=9 note=42 velocity=0 time=0
EXTRACT: note_on channel=7 note=56 velocity=0 time=0.041666625000000006
EXTRACT: note_on channel=9 note=67 velocity=0 time=0.013888875000000002
EXTRACT: note_on channel=9 note=44 velocity=0 time=0
EXTRACT: note_on channel=5 note=64 velocity=0 time=0.001984125
EXTRACT: note_on channel=7 note=61 velocity=0 time=0
EXTRACT: note_on channel=9 note=27 velocity=0 time=0.017857125
EXTRACT: note_on channel=1 note=37 velocity=0 time=0.015873
EXTRACT: note_on channel=5 note=68 velocity=0 time=0
EXTRACT: note_on channel=9 note=28 velocity=74 time=0.00396825
EXTRACT: note_on channel=9 note=32 velocity=78 time=0
EXTRACT: note_on channel=9 note=36 velocity=103 time=0
EXTRACT: note_on channel=9 note=39 velocity=92 time=0
EXTRACT: note_on channel=9 note=42 velocity=79 time=0
EXTRACT: note_on channel=9 note=56 velocity=79 time=0
EXTRACT: note_on channel=1 note=40 velocity=84 time=0
EXTRACT: note_on channel=3 note=64 velocity=90 time=0
EXTRACT: note_on channel=7 note=49 velocity=87 time=0
EXTRACT: note_on channel=9 note=39 velocity=121 time=0
EXTRACT: note_on channel=9 note=36 velocity=126 time=0
EXTRACT: note_on channel=9 note=35 velocity=117 time=0
EXTRACT: note_on channel=9 note=40 velocity=117 time=0
EXTRACT: note_on channel=9 note=44 velocity=81 time=0
EXTRACT: note_on channel=9 note=44 velocity=0 time=0.001984125
EXTRACT: note_on channel=9 note=35 velocity=0 time=0
EXTRACT: note_on channel=9 note=39 velocity=0 time=0
EXTRACT: note_on channel=9 note=36 velocity=0 time=0
EXTRACT: note_on channel=9 note=40 velocity=0 time=0
EXTRACT: note_on channel=5 note=61 velocity=0 time=0.029761875000000004
EXTRACT: note_on channel=9 note=32 velocity=0 time=0.0396825
EXTRACT: note_on channel=9 note=39 velocity=0 time=0.00396825
EXTRACT: note_on channel=9 note=28 velocity=0 time=0.015873
EXTRACT: note_on channel=9 note=62 velocity=73 time=0.027777750000000004
EXTRACT: note_on channel=9 note=62 velocity=0 time=0.001984125
EXTRACT: note_on channel=9 note=36 velocity=0 time=0.031746
EXTRACT: note_on channel=9 note=42 velocity=0 time=0.06547612500000001
EXTRACT: note_on channel=7 note=49 velocity=0 time=0.009920625
EXTRACT: note_on channel=3 note=64 velocity=0 time=0.00396825
EXTRACT: note_on channel=1 note=40 velocity=0 time=0.001984125
EXTRACT: note_on channel=9 note=32 velocity=69 time=0.00396825
EXTRACT: note_on channel=9 note=44 velocity=55 time=0
EXTRACT: note_on channel=9 note=68 velocity=34 time=0
EXTRACT: note_on channel=1 note=44 velocity=93 time=0
EXTRACT: note_on channel=3 note=61 velocity=59 time=0
EXTRACT: note_on channel=5 note=61 velocity=84 time=0
EXTRACT: note_on channel=5 note=64 velocity=87 time=0
EXTRACT: note_on channel=5 note=68 velocity=89 time=0
EXTRACT: note_on channel=7 note=56 velocity=80 time=0
EXTRACT: note_on channel=7 note=61 velocity=59 time=0
EXTRACT: note_on channel=9 note=42 velocity=73 time=0
EXTRACT: note_on channel=9 note=61 velocity=66 time=0
EXTRACT: note_on channel=9 note=61 velocity=0 time=0.001984125
EXTRACT: note_on channel=9 note=42 velocity=0 time=0
EXTRACT: note_on channel=9 note=70 velocity=105 time=0.001984125
EXTRACT: note_on channel=9 note=70 velocity=0 time=0.001984125
EXTRACT: note_on channel=9 note=68 velocity=0 time=0.03571425
EXTRACT: note_on channel=9 note=44 velocity=0 time=0.001984125
EXTRACT: note_on channel=9 note=32 velocity=0 time=0.015873
EXTRACT: note_on channel=7 note=56 velocity=0 time=0.001984125
EXTRACT: note_on channel=7 note=61 velocity=0 time=0.00396825
EXTRACT: note_on channel=5 note=64 velocity=0 time=0.00396825
EXTRACT: note_on channel=10 note=64 velocity=0 time=0.00396825
EXTRACT: note_on channel=9 note=56 velocity=0 time=0.009920625
EXTRACT: note_on channel=5 note=68 velocity=0 time=0.015873
EXTRACT: note_on channel=10 note=68 velocity=0 time=0.013888875000000002
EXTRACT: note_on channel=10 note=61 velocity=0 time=0.001984125
EXTRACT: note_on channel=7 note=56 velocity=81 time=0.00396825
EXTRACT: note_on channel=7 note=61 velocity=71 time=0
EXTRACT: note_on channel=5 note=61 velocity=0 time=0.00396825
EXTRACT: note_on channel=9 note=32 velocity=69 time=0.005952375000000001
EXTRACT: note_on channel=9 note=44 velocity=62 time=0
EXTRACT: note_on channel=9 note=68 velocity=36 time=0
EXTRACT: note_on channel=9 note=42 velocity=66 time=0.011904750000000002
EXTRACT: note_on channel=9 note=82 velocity=48 time=0
EXTRACT: note_on channel=9 note=82 velocity=0 time=0.001984125
EXTRACT: note_on channel=9 note=42 velocity=0 time=0
EXTRACT: note_on channel=9 note=44 velocity=0 time=0.04761900000000001
EXTRACT: note_on channel=1 note=44 velocity=0 time=0
EXTRACT: note_on channel=7 note=56 velocity=0 time=0.001984125
EXTRACT: note_on channel=9 note=68 velocity=0 time=0.009920625
EXTRACT: note_on channel=9 note=32 velocity=0 time=0
EXTRACT: note_on channel=7 note=61 velocity=0 time=0.001984125
EXTRACT: note_on channel=3 note=61 velocity=0 time=0.029761875000000004
EXTRACT: note_on channel=9 note=27 velocity=88 time=0.00396825
EXTRACT: note_on channel=9 note=36 velocity=103 time=0
EXTRACT: note_on channel=9 note=42 velocity=93 time=0
EXTRACT: note_on channel=9 note=44 velocity=89 time=0
EXTRACT: note_on channel=9 note=56 velocity=73 time=0
EXTRACT: note_on channel=10 note=61 velocity=60 time=0
EXTRACT: note_on channel=10 note=66 velocity=53 time=0
EXTRACT: note_on channel=10 note=69 velocity=69 time=0
EXTRACT: note_on channel=10 note=78 velocity=57 time=0
EXTRACT: note_on channel=3 note=66 velocity=87 time=0
EXTRACT: note_on channel=7 note=54 velocity=83 time=0
EXTRACT: note_on channel=9 note=36 velocity=126 time=0
EXTRACT: note_on channel=9 note=35 velocity=117 time=0
EXTRACT: note_on channel=9 note=44 velocity=81 time=0
EXTRACT: note_on channel=9 note=82 velocity=55 time=0
EXTRACT: note_on channel=9 note=56 velocity=80 time=0
EXTRACT: note_on channel=9 note=56 velocity=0 time=0.001984125
EXTRACT: note_on channel=9 note=44 velocity=0 time=0
EXTRACT: note_on channel=9 note=36 velocity=0 time=0
EXTRACT: note_on channel=9 note=35 velocity=0 time=0
EXTRACT: note_on channel=9 note=82 velocity=0 time=0
EXTRACT: note_on channel=10 note=80 velocity=0 time=0.013888875000000002
EXTRACT: note_on channel=9 note=27 velocity=0 time=0.05555550000000001
EXTRACT: note_on channel=9 note=32 velocity=77 time=0.057539625000000004
EXTRACT: note_on channel=5 note=61 velocity=84 time=0
EXTRACT: note_on channel=5 note=66 velocity=86 time=0
EXTRACT: note_on channel=5 note=69 velocity=96 time=0
EXTRACT: note_on channel=9 note=82 velocity=63 time=0.011904750000000002
EXTRACT: note_on channel=9 note=82 velocity=0 time=0.001984125
EXTRACT: note_on channel=9 note=44 velocity=0 time=0.005952375000000001
EXTRACT: note_on channel=9 note=36 velocity=0 time=0
EXTRACT: note_on channel=9 note=32 velocity=0 time=0.03571425
EXTRACT: note_on channel=5 note=69 velocity=0 time=0.0079365
EXTRACT: note_on channel=5 note=66 velocity=0 time=0.0079365
EXTRACT: note_on channel=5 note=61 velocity=0 time=0.013888875000000002
EXTRACT: note_on channel=9 note=42 velocity=0 time=0.01984125
EXTRACT: note_on channel=9 note=27 velocity=77 time=0.00396825
EXTRACT: note_on channel=9 note=44 velocity=59 time=0
EXTRACT: note_on channel=9 note=67 velocity=24 time=0
EXTRACT: note_on channel=1 note=30 velocity=82 time=0
EXTRACT: note_on channel=7 note=57 velocity=74 time=0
EXTRACT: note_on channel=7 note=61 velocity=67 time=0
EXTRACT: note_on channel=9 note=42 velocity=73 time=0
EXTRACT: note_on channel=9 note=82 velocity=59 time=0
EXTRACT: note_on channel=9 note=63 velocity=60 time=0
EXTRACT: note_on channel=9 note=63 velocity=0 time=0.001984125
EXTRACT: note_on channel=9 note=82 velocity=0 time=0
EXTRACT: note_on channel=9 note=42 velocity=0 time=0
EXTRACT: note_on channel=9 note=70 velocity=105 time=0.001984125
EXTRACT: note_on channel=9 note=70 velocity=0 time=0.001984125
EXTRACT: note_on channel=7 note=54 velocity=0 time=0.023809500000000004
EXTRACT: note_on channel=7 note=57 velocity=0 time=0.009920625
EXTRACT: note_on channel=9 note=67 velocity=0 time=0.005952375000000001
EXTRACT: note_on channel=9 note=44 velocity=0 time=0.00396825
EXTRACT: note_on channel=9 note=27 velocity=0 time=0.013888875000000002
EXTRACT: note_on channel=7 note=61 velocity=0 time=0
EXTRACT: note_on channel=9 note=56 velocity=0 time=0.015873
EXTRACT: note_on channel=7 note=57 velocity=79 time=0.0396825
EXTRACT: note_on channel=7 note=61 velocity=69 time=0
EXTRACT: note_on channel=9 note=56 velocity=89 time=0
EXTRACT: note_on channel=9 note=56 velocity=0 time=0.001984125
EXTRACT: note_on channel=9 note=44 velocity=48 time=0.0079365
EXTRACT: note_on channel=9 note=67 velocity=43 time=0
EXTRACT: note_on channel=9 note=42 velocity=66 time=0.011904750000000002
EXTRACT: note_on channel=9 note=82 velocity=45 time=0
EXTRACT: note_on channel=9 note=82 velocity=0 time=0.001984125
EXTRACT: note_on channel=9 note=42 velocity=0 time=0
EXTRACT: note_on channel=7 note=57 velocity=0 time=0.031746
EXTRACT: note_on channel=9 note=44 velocity=0 time=0.00396825
EXTRACT: note_on channel=9 note=67 velocity=0 time=0.001984125
EXTRACT: note_on channel=7 note=61 velocity=0 time=0.03373012500000001
EXTRACT: note_on channel=1 note=30 velocity=0 time=0.01984125
EXTRACT: note_on channel=3 note=66 velocity=0 time=0
EXTRACT: note_on channel=9 note=28 velocity=79 time=0.00396825
EXTRACT: note_on channel=9 note=32 velocity=83 time=0
EXTRACT: note_on channel=9 note=36 velocity=103 time=0
EXTRACT: note_on channel=9 note=39 velocity=96 time=0
EXTRACT: note_on channel=9 note=42 velocity=75 time=0
EXTRACT: note_on channel=9 note=56 velocity=73 time=0
EXTRACT: note_on channel=1 note=33 velocity=78 time=0
EXTRACT: note_on channel=3 note=61 velocity=69 time=0
EXTRACT: note_on channel=5 note=61 velocity=82 time=0
EXTRACT: note_on channel=5 note=66 velocity=82 time=0
EXTRACT: note_on channel=5 note=69 velocity=99 time=0
EXTRACT: note_on channel=7 note=54 velocity=87 time=0
EXTRACT: note_on channel=9 note=36 velocity=126 time=0
EXTRACT: note_on channel=9 note=35 velocity=117 time=0
EXTRACT: note_on channel=9 note=39 velocity=121 time=0
EXTRACT: note_on channel=9 note=40 velocity=117 time=0
EXTRACT: note_on channel=9 note=44 velocity=81 time=0
EXTRACT: note_on channel=9 note=82 velocity=60 time=0
EXTRACT: note_on channel=9 note=82 velocity=0 time=0.001984125
EXTRACT: note_on channel=9 note=35 velocity=0 time=0
EXTRACT: note_on channel=9 note=39 velocity=0 time=0
EXTRACT: note_on channel=9 note=36 velocity=0 time=0
EXTRACT: note_on channel=9 note=44 velocity=0 time=0
EXTRACT: note_on channel=9 note=40 velocity=0 time=0
EXTRACT: note_on channel=9 note=32 velocity=0 time=0.061507875000000004
EXTRACT: note_on channel=9 note=28 velocity=0 time=0.005952375000000001
EXTRACT: note_on channel=9 note=39 velocity=0 time=0.00396825
EXTRACT: note_on channel=9 note=36 velocity=0 time=0.011904750000000002
EXTRACT: note_on channel=7 note=54 velocity=0 time=0.11904750000000001
EXTRACT: note_on channel=9 note=70 velocity=105 time=0.027777750000000004
EXTRACT: note_on channel=9 note=42 velocity=0 time=0.001984125
EXTRACT: note_on channel=1 note=33 velocity=0 time=0
EXTRACT: note_on channel=9 note=70 velocity=0 time=0
EXTRACT: note_on channel=9 note=32 velocity=79 time=0.00396825
EXTRACT: note_on channel=9 note=44 velocity=62 time=0
EXTRACT: note_on channel=9 note=68 velocity=41 time=0
EXTRACT: note_on channel=1 note=37 velocity=86 time=0
EXTRACT: note_on channel=7 note=57 velocity=80 time=0
EXTRACT: note_on channel=7 note=61 velocity=72 time=0
EXTRACT: note_on channel=9 note=42 velocity=75 time=0
EXTRACT: note_on channel=9 note=69 velocity=87 time=0
EXTRACT: note_on channel=9 note=56 velocity=87 time=0
EXTRACT: note_on channel=9 note=56 velocity=0 time=0.001984125
EXTRACT: note_on channel=9 note=69 velocity=0 time=0
EXTRACT: note_on channel=9 note=42 velocity=0 time=0
EXTRACT: note_on channel=7 note=57 velocity=0 time=0.049603125000000005
EXTRACT: note_on channel=9 note=44 velocity=0 time=0.001984125
EXTRACT: note_on channel=9 note=68 velocity=0 time=0.005952375000000001
EXTRACT: note_on channel=9 note=32 velocity=0 time=0
EXTRACT: note_on channel=9 note=56 velocity=0 time=0.00396825
EXTRACT: note_on channel=7 note=61 velocity=0 time=0.011904750000000002
EXTRACT: note_on channel=5 note=66 velocity=0 time=0.009920625
EXTRACT: note_on channel=5 note=69 velocity=0 time=0.0079365
EXTRACT: note_on channel=10 note=66 velocity=0 time=0.009920625
EXTRACT: note_on channel=10 note=69 velocity=0 time=0.0079365
EXTRACT: note_on channel=5 note=61 velocity=0 time=0
EXTRACT: note_on channel=7 note=57 velocity=78 time=0.0079365
EXTRACT: note_on channel=7 note=61 velocity=68 time=0
EXTRACT: note_on channel=9 note=62 velocity=64 time=0
EXTRACT: note_on channel=9 note=62 velocity=0 time=0.001984125
EXTRACT: note_on channel=3 note=61 velocity=0 time=0.001984125
EXTRACT: note_on channel=9 note=32 velocity=71 time=0.005952375000000001
EXTRACT: note_on channel=9 note=44 velocity=51 time=0
EXTRACT: note_on channel=9 note=68 velocity=25 time=0
EXTRACT: note_on channel=10 note=61 velocity=0 time=0.009920625
EXTRACT: note_on channel=9 note=42 velocity=66 time=0.001984125
EXTRACT: note_on channel=9 note=69 velocity=69 time=0
EXTRACT: note_on channel=9 note=69 velocity=0 time=0.001984125
EXTRACT: note_on channel=9 note=42 velocity=0 time=0
EXTRACT: note_on channel=7 note=57 velocity=0 time=0.031746
EXTRACT: note_on channel=9 note=44 velocity=0 time=0.0079365
EXTRACT: note_on channel=9 note=32 velocity=0 time=0.009920625
EXTRACT: note_on channel=9 note=68 velocity=0 time=0.0079365
EXTRACT: note_on channel=7 note=61 velocity=0 time=0.00396825
EXTRACT: note_on channel=1 note=37 velocity=0 time=0.005952375000000001
EXTRACT: note_on channel=9 note=27 velocity=86 time=0.027777750000000004
EXTRACT: note_on channel=9 note=36 velocity=105 time=0
EXTRACT: note_on channel=9 note=42 velocity=85 time=0
EXTRACT: note_on channel=9 note=44 velocity=82 time=0
EXTRACT: note_on channel=9 note=56 velocity=75 time=0
EXTRACT: note_on channel=1 note=35 velocity=90 time=0
EXTRACT: note_on channel=10 note=59 velocity=68 time=0
EXTRACT: note_on channel=10 note=64 velocity=62 time=0
EXTRACT: note_on channel=10 note=66 velocity=62 time=0
EXTRACT: note_on channel=10 note=76 velocity=56 time=0
EXTRACT: note_on channel=5 note=59 velocity=88 time=0
EXTRACT: note_on channel=5 note=64 velocity=85 time=0
EXTRACT: note_on channel=5 note=66 velocity=81 time=0
EXTRACT: note_on channel=7 note=47 velocity=83 time=0
EXTRACT: note_on channel=9 note=36 velocity=126 time=0
EXTRACT: note_on channel=9 note=35 velocity=117 time=0
EXTRACT: note_on channel=9 note=44 velocity=81 time=0
EXTRACT: note_on channel=9 note=60 velocity=69 time=0
EXTRACT: note_on channel=9 note=60 velocity=0 time=0.001984125
EXTRACT: note_on channel=9 note=36 velocity=0 time=0
EXTRACT: note_on channel=9 note=35 velocity=0 time=0
EXTRACT: note_on channel=9 note=44 velocity=0 time=0
EXTRACT: note_on channel=10 note=78 velocity=0 time=0.027777750000000004
EXTRACT: note_on channel=5 note=64 velocity=0 time=0.041666625000000006
EXTRACT: note_on channel=9 note=27 velocity=0 time=0.0079365
EXTRACT: note_on channel=9 note=36 velocity=0 time=0.009920625
EXTRACT: note_on channel=5 note=66 velocity=0 time=0.001984125
EXTRACT: note_on channel=5 note=59 velocity=0 time=0.021825375
EXTRACT: note_on channel=9 note=69 velocity=93 time=0.027777750000000004
EXTRACT: note_on channel=9 note=69 velocity=0 time=0.001984125
EXTRACT: note_on channel=9 note=44 velocity=0 time=0.06547612500000001
EXTRACT: note_on channel=9 note=42 velocity=0 time=0.025793625000000004
EXTRACT: note_on channel=9 note=27 velocity=85 time=0.00396825
EXTRACT: note_on channel=9 note=44 velocity=48 time=0
EXTRACT: note_on channel=9 note=67 velocity=33 time=0
EXTRACT: note_on channel=7 note=52 velocity=92 time=0
EXTRACT: note_on channel=7 note=59 velocity=71 time=0
EXTRACT: note_on channel=9 note=42 velocity=73 time=0
EXTRACT: note_on channel=9 note=62 velocity=59 time=0
EXTRACT: note_on channel=9 note=70 velocity=105 time=0
EXTRACT: note_on channel=9 note=70 velocity=0 time=0.001984125
EXTRACT: note_on channel=9 note=62 velocity=0 time=0
EXTRACT: note_on channel=9 note=42 velocity=0 time=0
EXTRACT: note_on channel=7 note=59 velocity=0 time=0.023809500000000004
EXTRACT: note_on channel=9 note=44 velocity=0 time=0.00396825
EXTRACT: note_on channel=9 note=67 velocity=0 time=0.011904750000000002
EXTRACT: note_on channel=7 note=52 velocity=0 time=0.00396825
EXTRACT: note_on channel=7 note=47 velocity=0 time=0.023809500000000004
EXTRACT: note_on channel=9 note=27 velocity=0 time=0.005952375000000001
EXTRACT: note_on channel=9 note=56 velocity=0 time=0.009920625
EXTRACT: note_on channel=7 note=52 velocity=96 time=0.03373012500000001
EXTRACT: note_on channel=7 note=59 velocity=75 time=0
EXTRACT: note_on channel=9 note=60 velocity=63 time=0
EXTRACT: note_on channel=9 note=60 velocity=0 time=0.001984125
EXTRACT: note_on channel=9 note=44 velocity=63 time=0.0079365
EXTRACT: note_on channel=9 note=67 velocity=43 time=0
EXTRACT: note_on channel=5 note=59 velocity=81 time=0
EXTRACT: note_on channel=5 note=64 velocity=81 time=0
EXTRACT: note_on channel=5 note=66 velocity=80 time=0
EXTRACT: note_on channel=9 note=42 velocity=66 time=0.011904750000000002
EXTRACT: note_on channel=9 note=69 velocity=61 time=0
EXTRACT: note_on channel=9 note=69 velocity=0 time=0.001984125
EXTRACT: note_on channel=9 note=42 velocity=0 time=0
EXTRACT: note_on channel=7 note=52 velocity=0 time=0.025793625000000004
EXTRACT: note_on channel=9 note=44 velocity=0 time=0.013888875000000002
EXTRACT: note_on channel=9 note=67 velocity=0 time=0.0079365
EXTRACT: note_on channel=7 note=59 velocity=0 time=0.00396825
EXTRACT: note_on channel=5 note=64 velocity=0 time=0.00396825
EXTRACT: note_on channel=1 note=35 velocity=0 time=0.03571425
EXTRACT: note_on channel=9 note=28 velocity=82 time=0.00396825
EXTRACT: note_on channel=9 note=32 velocity=83 time=0
EXTRACT: note_on channel=9 note=36 velocity=105 time=0
EXTRACT: note_on channel=9 note=39 velocity=96 time=0
EXTRACT: note_on channel=9 note=42 velocity=82 time=0
EXTRACT: note_on channel=9 note=56 velocity=78 time=0
EXTRACT: note_on channel=1 note=30 velocity=76 time=0
EXTRACT: note_on channel=3 note=66 velocity=82 time=0
EXTRACT: note_on channel=7 note=47 velocity=82 time=0
EXTRACT: note_on channel=9 note=40 velocity=117 time=0
EXTRACT: note_on channel=9 note=36 velocity=126 time=0
EXTRACT: note_on channel=9 note=35 velocity=117 time=0
EXTRACT: note_on channel=9 note=39 velocity=121 time=0
EXTRACT: note_on channel=9 note=44 velocity=81 time=0
EXTRACT: note_on channel=9 note=69 velocity=78 time=0
EXTRACT: note_on channel=9 note=69 velocity=0 time=0.001984125
EXTRACT: note_on channel=9 note=36 velocity=0 time=0
EXTRACT: note_on channel=9 note=35 velocity=0 time=0
EXTRACT: note_on channel=9 note=40 velocity=0 time=0
EXTRACT: note_on channel=9 note=44 velocity=0 time=0
EXTRACT: note_on channel=9 note=39 velocity=0 time=0
EXTRACT: note_on channel=5 note=66 velocity=0 time=0.001984125
EXTRACT: note_on channel=5 note=59 velocity=0 time=0.05158725000000001
EXTRACT: note_on channel=9 note=39 velocity=0 time=0.013888875000000002
EXTRACT: note_on channel=9 note=32 velocity=0 time=0.001984125
EXTRACT: note_on channel=9 note=28 velocity=0 time=0.00396825
EXTRACT: note_on channel=9 note=36 velocity=0 time=0.00396825
EXTRACT: note_on channel=9 note=61 velocity=73 time=0.0396825
EXTRACT: note_on channel=9 note=61 velocity=0 time=0.001984125
EXTRACT: note_on channel=9 note=42 velocity=0 time=0.11309512500000002
EXTRACT: note_on channel=1 note=30 velocity=0 time=0
EXTRACT: note_on channel=3 note=66 velocity=0 time=0
EXTRACT: note_on channel=9 note=32 velocity=78 time=0.00396825
EXTRACT: note_on channel=9 note=44 velocity=55 time=0
EXTRACT: note_on channel=9 note=68 velocity=37 time=0
EXTRACT: note_on channel=1 note=35 velocity=94 time=0
EXTRACT: note_on channel=3 note=64 velocity=73 time=0
EXTRACT: note_on channel=5 note=59 velocity=90 time=0
EXTRACT: note_on channel=5 note=64 velocity=97 time=0
EXTRACT: note_on channel=5 note=66 velocity=88 time=0
EXTRACT: note_on channel=7 note=52 velocity=82 time=0
EXTRACT: note_on channel=7 note=59 velocity=70 time=0
EXTRACT: note_on channel=9 note=42 velocity=73 time=0
EXTRACT: note_on channel=9 note=60 velocity=66 time=0
EXTRACT: note_on channel=9 note=60 velocity=0 time=0.001984125
EXTRACT: note_on channel=9 note=42 velocity=0 time=0
EXTRACT: note_on channel=9 note=70 velocity=105 time=0
EXTRACT: note_on channel=9 note=70 velocity=0 time=0.001984125
EXTRACT: note_on channel=7 note=52 velocity=0 time=0.031746
EXTRACT: note_on channel=9 note=44 velocity=0 time=0.00396825
EXTRACT: note_on channel=9 note=68 velocity=0 time=0.00396825
EXTRACT: note_on channel=10 note=64 velocity=0 time=0.0079365
EXTRACT: note_on channel=5 note=64 velocity=0 time=0.009920625
EXTRACT: note_on channel=9 note=32 velocity=0 time=0.00396825
EXTRACT: note_on channel=7 note=59 velocity=0 time=0.009920625
EXTRACT: note_on channel=10 note=66 velocity=0 time=0.00396825
EXTRACT: note_on channel=5 note=66 velocity=0 time=0
EXTRACT: note_on channel=9 note=56 velocity=0 time=0.013888875000000002
EXTRACT: note_on channel=5 note=59 velocity=0 time=0.011904750000000002
EXTRACT: note_on channel=7 note=47 velocity=0 time=0
EXTRACT: note_on channel=10 note=59 velocity=0 time=0.00396825
EXTRACT: note_on channel=7 note=52 velocity=89 time=0.009920625
EXTRACT: note_on channel=7 note=59 velocity=62 time=0
EXTRACT: note_on channel=9 note=62 velocity=69 time=0
EXTRACT: note_on channel=9 note=62 velocity=0 time=0.001984125
EXTRACT: note_on channel=9 note=32 velocity=55 time=0.0079365
EXTRACT: note_on channel=9 note=44 velocity=55 time=0
EXTRACT: note_on channel=9 note=68 velocity=38 time=0
EXTRACT: note_on channel=9 note=42 velocity=66 time=0.011904750000000002
EXTRACT: note_on channel=9 note=42 velocity=0 time=0.001984125
EXTRACT: note_on channel=1 note=35 velocity=0 time=0.001984125
EXTRACT: note_on channel=7 note=52 velocity=0 time=0.023809500000000004
EXTRACT: note_on channel=7 note=59 velocity=0 time=0.005952375000000001
EXTRACT: note_on channel=9 note=32 velocity=0 time=0.0079365
EXTRACT: note_on channel=9 note=44 velocity=0 time=0.005952375000000001
EXTRACT: note_on channel=9 note=68 velocity=0 time=0.011904750000000002
EXTRACT: note_on channel=3 note=64 velocity=0 time=0
EXTRACT: note_on channel=10 note=76 velocity=0 time=0.029761875000000004
EXTRACT: note_on channel=9 note=27 velocity=87 time=0.0079365
EXTRACT: note_on channel=9 note=36 velocity=103 time=0
EXTRACT: note_on channel=9 note=42 velocity=90 time=0
EXTRACT: note_on channel=9 note=44 velocity=89 time=0
EXTRACT: note_on channel=9 note=56 velocity=78 time=0
EXTRACT: note_on channel=1 note=35 velocity=90 time=0
EXTRACT: note_on channel=10 note=59 velocity=68 time=0
EXTRACT: note_on channel=10 note=63 velocity=56 time=0
EXTRACT: note_on channel=10 note=66 velocity=56 time=0
EXTRACT: note_on channel=10 note=75 velocity=60 time=0
EXTRACT: note_on channel=3 note=68 velocity=85 time=0
EXTRACT: note_on channel=7 note=47 velocity=83 time=0
EXTRACT: note_on channel=9 note=36 velocity=126 time=0
EXTRACT: note_on channel=9 note=35 velocity=117 time=0
EXTRACT: note_on channel=9 note=44 velocity=81 time=0
EXTRACT: note_on channel=9 note=82 velocity=69 time=0
EXTRACT: note_on channel=9 note=56 velocity=87 time=0
EXTRACT: note_on channel=9 note=60 velocity=63 time=0
EXTRACT: note_on channel=9 note=60 velocity=0 time=0.001984125
EXTRACT: note_on channel=9 note=35 velocity=0 time=0
EXTRACT: note_on channel=9 note=44 velocity=0 time=0
EXTRACT: note_on channel=9 note=36 velocity=0 time=0
EXTRACT: note_on channel=9 note=56 velocity=0 time=0
EXTRACT: note_on channel=9 note=82 velocity=0 time=0
EXTRACT: note_on channel=9 note=36 velocity=0 time=0.077380875
EXTRACT: note_on channel=9 note=27 velocity=0 time=0.005952375000000001
EXTRACT: note_on channel=5 note=59 velocity=87 time=0.04365075
EXTRACT: note_on channel=5 note=63 velocity=89 time=0
EXTRACT: note_on channel=5 note=66 velocity=87 time=0
EXTRACT: note_on channel=9 note=82 velocity=43 time=0.011904750000000002
EXTRACT: note_on channel=9 note=82 velocity=0 time=0.001984125
EXTRACT: note_on channel=9 note=44 velocity=0 time=0.027777750000000004
EXTRACT: note_on channel=5 note=63 velocity=0 time=0.021825375
EXTRACT: note_on channel=5 note=66 velocity=0 time=0.0079365
EXTRACT: note_on channel=5 note=59 velocity=0 time=0.027777750000000004
EXTRACT: note_on channel=9 note=70 velocity=105 time=0.001984125
EXTRACT: note_on channel=9 note=70 velocity=0 time=0.001984125
EXTRACT: note_on channel=9 note=42 velocity=0 time=0.001984125
EXTRACT: note_on channel=1 note=35 velocity=0 time=0
EXTRACT: note_on channel=9 note=27 velocity=86 time=0.00396825
EXTRACT: note_on channel=9 note=44 velocity=60 time=0
EXTRACT: note_on channel=9 note=65 velocity=88 time=0
EXTRACT: note_on channel=9 note=67 velocity=51 time=0
EXTRACT: note_on channel=1 note=30 velocity=77 time=0
EXTRACT: note_on channel=7 note=54 velocity=74 time=0
EXTRACT: note_on channel=7 note=59 velocity=71 time=0
EXTRACT: note_on channel=9 note=42 velocity=73 time=0
EXTRACT: note_on channel=9 note=82 velocity=48 time=0
EXTRACT: note_on channel=9 note=82 velocity=0 time=0.001984125
EXTRACT: note_on channel=9 note=42 velocity=0 time=0
EXTRACT: note_on channel=9 note=44 velocity=0 time=0.031746
EXTRACT: note_on channel=7 note=59 velocity=0 time=0.001984125
EXTRACT: note_on channel=9 note=67 velocity=0 time=0.00396825
EXTRACT: note_on channel=7 note=54 velocity=0 time=0.015873
EXTRACT: note_on channel=9 note=65 velocity=0 time=0.009920625
EXTRACT: note_on channel=9 note=56 velocity=0 time=0.005952375000000001
EXTRACT: note_on channel=9 note=27 velocity=0 time=0.011904750000000002
EXTRACT: note_on channel=7 note=47 velocity=0 time=0.009920625
EXTRACT: note_on channel=7 note=54 velocity=79 time=0.025793625000000004
EXTRACT: note_on channel=7 note=59 velocity=60 time=0
EXTRACT: note_on channel=9 note=56 velocity=87 time=0
EXTRACT: note_on channel=9 note=56 velocity=0 time=0.001984125
EXTRACT: note_on channel=9 note=44 velocity=63 time=0.0079365
EXTRACT: note_on channel=9 note=65 velocity=80 time=0
EXTRACT: note_on channel=9 note=67 velocity=36 time=0
EXTRACT: note_on channel=9 note=42 velocity=66 time=0.011904750000000002
EXTRACT: note_on channel=9 note=82 velocity=40 time=0
EXTRACT: note_on channel=9 note=82 velocity=0 time=0.001984125
EXTRACT: note_on channel=9 note=42 velocity=0 time=0
EXTRACT: note_on channel=9 note=67 velocity=0 time=0.029761875000000004
EXTRACT: note_on channel=9 note=65 velocity=0 time=0.011904750000000002
EXTRACT: note_on channel=9 note=44 velocity=0 time=0.00396825
EXTRACT: note_on channel=7 note=54 velocity=0 time=0.01984125
EXTRACT: note_on channel=7 note=59 velocity=0 time=0.00396825
EXTRACT: note_on channel=1 note=30 velocity=0 time=0.017857125
EXTRACT: note_on channel=3 note=68 velocity=0 time=0.00396825
EXTRACT: note_on channel=9 note=28 velocity=85 time=0.00396825
EXTRACT: note_on channel=9 note=32 velocity=87 time=0
EXTRACT: note_on channel=9 note=36 velocity=103 time=0
EXTRACT: note_on channel=9 note=39 velocity=99 time=0
EXTRACT: note_on channel=9 note=42 velocity=84 time=0
EXTRACT: note_on channel=9 note=56 velocity=78 time=0
EXTRACT: note_on channel=9 note=66 velocity=83 time=0
EXTRACT: note_on channel=1 note=33 velocity=87 time=0
EXTRACT: note_on channel=3 note=66 velocity=83 time=0
EXTRACT: note_on channel=5 note=59 velocity=90 time=0
EXTRACT: note_on channel=5 note=63 velocity=90 time=0
EXTRACT: note_on channel=5 note=66 velocity=87 time=0
EXTRACT: note_on channel=7 note=47 velocity=88 time=0
EXTRACT: note_on channel=9 note=39 velocity=121 time=0
EXTRACT: note_on channel=9 note=40 velocity=117 time=0
EXTRACT: note_on channel=9 note=36 velocity=126 time=0
EXTRACT: note_on channel=9 note=35 velocity=117 time=0
EXTRACT: note_on channel=9 note=44 velocity=81 time=0
EXTRACT: note_on channel=9 note=82 velocity=69 time=0
EXTRACT: note_on channel=9 note=82 velocity=0 time=0.001984125
EXTRACT: note_on channel=9 note=40 velocity=0 time=0
EXTRACT: note_on channel=9 note=36 velocity=0 time=0
EXTRACT: note_on channel=9 note=39 velocity=0 time=0
EXTRACT: note_on channel=9 note=44 velocity=0 time=0
EXTRACT: note_on channel=9 note=35 velocity=0 time=0
EXTRACT: note_on channel=9 note=32 velocity=0 time=0.063492
EXTRACT: note_on channel=9 note=39 velocity=0 time=0.005952375000000001
EXTRACT: note_on channel=9 note=28 velocity=0 time=0.001984125
EXTRACT: note_on channel=9 note=36 velocity=0 time=0.005952375000000001
EXTRACT: note_on channel=9 note=66 velocity=0 time=0.00396825
EXTRACT: note_on channel=1 note=33 velocity=0 time=0.10714275000000001
EXTRACT: note_on channel=9 note=42 velocity=0 time=0.017857125
EXTRACT: note_on channel=9 note=70 velocity=105 time=0.023809500000000004
EXTRACT: note_on channel=9 note=70 velocity=0 time=0.001984125
EXTRACT: note_on channel=9 note=32 velocity=74 time=0.00396825
EXTRACT: note_on channel=9 note=36 velocity=91 time=0
EXTRACT: note_on channel=9 note=44 velocity=60 time=0
EXTRACT: note_on channel=9 note=66 velocity=71 time=0
EXTRACT: note_on channel=9 note=68 velocity=44 time=0
EXTRACT: note_on channel=1 note=35 velocity=85 time=0
EXTRACT: note_on channel=7 note=54 velocity=83 time=0
EXTRACT: note_on channel=7 note=59 velocity=79 time=0
EXTRACT: note_on channel=9 note=42 velocity=73 time=0
EXTRACT: note_on channel=9 note=69 velocity=78 time=0
EXTRACT: note_on channel=9 note=56 velocity=87 time=0
EXTRACT: note_on channel=7 note=47 velocity=0 time=0.001984125
EXTRACT: note_on channel=9 note=56 velocity=0 time=0
EXTRACT: note_on channel=9 note=69 velocity=0 time=0
EXTRACT: note_on channel=9 note=42 velocity=0 time=0
EXTRACT: note_on channel=9 note=68 velocity=0 time=0.023809500000000004
EXTRACT: note_on channel=9 note=44 velocity=0 time=0.01984125
EXTRACT: note_on channel=9 note=36 velocity=0 time=0.0079365
EXTRACT: note_on channel=9 note=32 velocity=0 time=0.005952375000000001
EXTRACT: note_on channel=9 note=56 velocity=0 time=0.001984125
EXTRACT: note_on channel=9 note=66 velocity=0 time=0.0079365
EXTRACT: note_on channel=7 note=54 velocity=0 time=0.001984125
EXTRACT: note_on channel=7 note=59 velocity=0 time=0.00396825
EXTRACT: note_on channel=5 note=63 velocity=0 time=0.015873
EXTRACT: note_on channel=5 note=66 velocity=0 time=0.0079365
EXTRACT: note_on channel=5 note=59 velocity=0 time=0.009920625
EXTRACT: note_on channel=10 note=63 velocity=0 time=0.005952375000000001
EXTRACT: note_on channel=7 note=54 velocity=84 time=0.00396825
EXTRACT: note_on channel=7 note=59 velocity=66 time=0
EXTRACT: note_on channel=10 note=66 velocity=0 time=0.005952375000000001
EXTRACT: note_on channel=9 note=32 velocity=69 time=0.00396825
EXTRACT: note_on channel=9 note=44 velocity=58 time=0
EXTRACT: note_on channel=9 note=65 velocity=75 time=0
EXTRACT: note_on channel=9 note=68 velocity=50 time=0
EXTRACT: note_on channel=9 note=42 velocity=66 time=0.011904750000000002
EXTRACT: note_on channel=9 note=69 velocity=73 time=0
EXTRACT: note_on channel=9 note=69 velocity=0 time=0.001984125
EXTRACT: note_on channel=9 note=42 velocity=0 time=0
EXTRACT: note_on channel=3 note=66 velocity=0 time=0.005952375000000001
EXTRACT: note_on channel=1 note=35 velocity=0 time=0.001984125
EXTRACT: note_on channel=10 note=59 velocity=0 time=0.011904750000000002
EXTRACT: note_on channel=9 note=68 velocity=0 time=0.027777750000000004
EXTRACT: note_on channel=9 note=44 velocity=0 time=0
EXTRACT: note_on channel=9 note=32 velocity=0 time=0.00396825
EXTRACT: note_on channel=7 note=54 velocity=0 time=0.0079365
EXTRACT: note_on channel=7 note=59 velocity=0 time=0.017857125
EXTRACT: note_on channel=9 note=27 velocity=94 time=0.017857125
EXTRACT: note_on channel=9 note=36 velocity=105 time=0
EXTRACT: note_on channel=9 note=42 velocity=88 time=0
EXTRACT: note_on channel=9 note=49 velocity=94 time=0
EXTRACT: note_on channel=9 note=56 velocity=83 time=0
EXTRACT: note_on channel=1 note=37 velocity=82 time=0
EXTRACT: note_on channel=10 note=61 velocity=60 time=0
EXTRACT: note_on channel=10 note=64 velocity=51 time=0
EXTRACT: note_on channel=10 note=68 velocity=53 time=0
EXTRACT: note_on channel=10 note=76 velocity=79 time=0
EXTRACT: note_on channel=3 note=68 velocity=80 time=0
EXTRACT: note_on channel=5 note=61 velocity=80 time=0
EXTRACT: note_on channel=5 note=64 velocity=87 time=0
EXTRACT: note_on channel=5 note=68 velocity=86 time=0
EXTRACT: note_on channel=7 note=49 velocity=90 time=0
EXTRACT: note_on channel=9 note=36 velocity=126 time=0
EXTRACT: note_on channel=9 note=35 velocity=117 time=0
EXTRACT: note_on channel=9 note=35 velocity=0 time=0.001984125
EXTRACT: note_on channel=9 note=36 velocity=0 time=0
EXTRACT: note_on channel=9 note=65 velocity=0 time=0.00396825
EXTRACT: note_on channel=10 note=75 velocity=0 time=0
EXTRACT: note_on channel=5 note=64 velocity=0 time=0.05555550000000001
EXTRACT: note_on channel=9 note=27 velocity=0 time=0.00396825
EXTRACT: note_on channel=9 note=36 velocity=0 time=0.005952375000000001
EXTRACT: note_on channel=5 note=68 velocity=0 time=0.017857125
EXTRACT: note_on channel=5 note=61 velocity=0 time=0.045634875000000005
EXTRACT: note_on channel=9 note=69 velocity=84 time=0.005952375000000001
EXTRACT: note_on channel=9 note=69 velocity=0 time=0.001984125
EXTRACT: note_on channel=1 note=37 velocity=0 time=0.03571425
EXTRACT: note_on channel=9 note=42 velocity=0 time=0.05555550000000001
EXTRACT: note_on channel=3 note=68 velocity=0 time=0
EXTRACT: note_on channel=9 note=70 velocity=105 time=0
EXTRACT: note_on channel=9 note=27 velocity=79 time=0.00396825
EXTRACT: note_on channel=9 note=44 velocity=60 time=0
EXTRACT: note_on channel=9 note=67 velocity=37 time=0
EXTRACT: note_on channel=1 note=37 velocity=83 time=0
EXTRACT: note_on channel=3 note=64 velocity=80 time=0
EXTRACT: note_on channel=7 note=49 velocity=0 time=0
EXTRACT: note_on channel=7 note=56 velocity=77 time=0
EXTRACT: note_on channel=7 note=61 velocity=60 time=0
EXTRACT: note_on channel=9 note=70 velocity=0 time=0
EXTRACT: note_on channel=9 note=42 velocity=73 time=0
EXTRACT: note_on channel=9 note=62 velocity=79 time=0
EXTRACT: note_on channel=9 note=62 velocity=0 time=0.001984125
EXTRACT: note_on channel=9 note=42 velocity=0 time=0
EXTRACT: note_on channel=9 note=67 velocity=0 time=0.0396825
EXTRACT: note_on channel=7 note=61 velocity=0 time=0.0079365
EXTRACT: note_on channel=9 note=44 velocity=0 time=0.005952375000000001
EXTRACT: note_on channel=7 note=56 velocity=0 time=0
EXTRACT: note_on channel=9 note=56 velocity=0 time=0.0079365
EXTRACT: note_on channel=9 note=27 velocity=0 time=0.0079365
EXTRACT: note_on channel=7 note=56 velocity=88 time=0.04761900000000001
EXTRACT: note_on channel=7 note=61 velocity=73 time=0
EXTRACT: note_on channel=9 note=61 velocity=69 time=0
EXTRACT: note_on channel=9 note=61 velocity=0 time=0.001984125
EXTRACT: note_on channel=9 note=32 velocity=71 time=0.0079365
EXTRACT: note_on channel=9 note=67 velocity=29 time=0
EXTRACT: note_on channel=5 note=61 velocity=82 time=0
EXTRACT: note_on channel=5 note=64 velocity=85 time=0
EXTRACT: note_on channel=5 note=68 velocity=84 time=0
EXTRACT: note_on channel=9 note=44 velocity=69 time=0.009920625
EXTRACT: note_on channel=9 note=42 velocity=66 time=0.001984125
EXTRACT: note_on channel=9 note=69 velocity=68 time=0
EXTRACT: note_on channel=9 note=69 velocity=0 time=0.001984125
EXTRACT: note_on channel=9 note=42 velocity=0 time=0
EXTRACT: note_on channel=9 note=67 velocity=0 time=0.029761875000000004
EXTRACT: note_on channel=7 note=56 velocity=0 time=0.017857125
EXTRACT: note_on channel=5 note=64 velocity=0 time=0.0079365
EXTRACT: note_on channel=7 note=61 velocity=0 time=0.005952375000000001
EXTRACT: note_on channel=9 note=32 velocity=0 time=0.009920625
EXTRACT: note_on channel=9 note=44 velocity=0 time=0.005952375000000001
EXTRACT: note_on channel=3 note=64 velocity=0 time=0.00396825
EXTRACT: note_on channel=5 note=68 velocity=0 time=0.00396825
EXTRACT: note_on channel=1 note=37 velocity=0 time=0.005952375000000001
EXTRACT: note_on channel=9 note=28 velocity=74 time=0.00396825
EXTRACT: note_on channel=9 note=36 velocity=99 time=0
EXTRACT: note_on channel=9 note=39 velocity=101 time=0
EXTRACT: note_on channel=9 note=42 velocity=90 time=0
EXTRACT: note_on channel=9 note=56 velocity=80 time=0
EXTRACT: note_on channel=1 note=40 velocity=84 time=0
EXTRACT: note_on channel=3 note=68 velocity=74 time=0
EXTRACT: note_on channel=7 note=52 velocity=99 time=0
EXTRACT: note_on channel=9 note=39 velocity=121 time=0
EXTRACT: note_on channel=9 note=36 velocity=126 time=0
EXTRACT: note_on channel=9 note=35 velocity=117 time=0
EXTRACT: note_on channel=9 note=40 velocity=117 time=0
EXTRACT: note_on channel=9 note=44 velocity=81 time=0
EXTRACT: note_on channel=9 note=44 velocity=0 time=0.001984125
EXTRACT: note_on channel=9 note=35 velocity=0 time=0
EXTRACT: note_on channel=9 note=39 velocity=0 time=0
EXTRACT: note_on channel=9 note=36 velocity=0 time=0
EXTRACT: note_on channel=9 note=40 velocity=0 time=0
EXTRACT: note_on channel=5 note=61 velocity=0 time=0.029761875000000004
EXTRACT: note_on channel=9 note=39 velocity=0 time=0.0396825
EXTRACT: note_on channel=9 note=36 velocity=0 time=0.00396825
EXTRACT: note_on channel=9 note=28 velocity=0 time=0.015873
EXTRACT: note_on channel=9 note=62 velocity=73 time=0.027777750000000004
EXTRACT: note_on channel=9 note=62 velocity=0 time=0.001984125
EXTRACT: note_on channel=9 note=32 velocity=59 time=0.0079365
EXTRACT: note_on channel=9 note=32 velocity=0 time=0.053571375000000004
EXTRACT: note_on channel=9 note=42 velocity=0 time=0.05158725000000001
EXTRACT: note_on channel=1 note=40 velocity=0 time=0
EXTRACT: note_on channel=3 note=68 velocity=0 time=0
EXTRACT: note_on channel=9 note=32 velocity=63 time=0.00396825
EXTRACT: note_on channel=9 note=44 velocity=44 time=0
EXTRACT: note_on channel=9 note=68 velocity=62 time=0
EXTRACT: note_on channel=1 note=44 velocity=92 time=0
EXTRACT: note_on channel=3 note=73 velocity=76 time=0
EXTRACT: note_on channel=5 note=61 velocity=87 time=0
EXTRACT: note_on channel=5 note=64 velocity=91 time=0
EXTRACT: note_on channel=5 note=68 velocity=89 time=0
EXTRACT: note_on channel=7 note=56 velocity=77 time=0
EXTRACT: note_on channel=7 note=61 velocity=57 time=0
EXTRACT: note_on channel=9 note=42 velocity=73 time=0
EXTRACT: note_on channel=9 note=61 velocity=66 time=0
EXTRACT: note_on channel=9 note=61 velocity=0 time=0.001984125
EXTRACT: note_on channel=9 note=42 velocity=0 time=0
EXTRACT: note_on channel=9 note=70 velocity=105 time=0.001984125
EXTRACT: note_on channel=9 note=70 velocity=0 time=0.001984125
EXTRACT: note_on channel=5 note=64 velocity=0 time=0.053571375000000004
EXTRACT: note_on channel=7 note=56 velocity=0 time=0.001984125
EXTRACT: note_on channel=9 note=68 velocity=0 time=0.00396825
EXTRACT: note_on channel=9 note=44 velocity=0 time=0
EXTRACT: note_on channel=10 note=64 velocity=0 time=0
EXTRACT: note_on channel=7 note=61 velocity=0 time=0
EXTRACT: note_on channel=9 note=32 velocity=0 time=0.005952375000000001
EXTRACT: note_on channel=7 note=52 velocity=0 time=0.0079365
EXTRACT: note_on channel=10 note=68 velocity=0 time=0.001984125
EXTRACT: note_on channel=9 note=56 velocity=0 time=0.001984125
EXTRACT: note_on channel=5 note=68 velocity=0 time=0.021825375
EXTRACT: note_on channel=7 note=56 velocity=83 time=0.013888875000000002
EXTRACT: note_on channel=7 note=61 velocity=72 time=0
EXTRACT: note_on channel=10 note=61 velocity=0 time=0.001984125
EXTRACT: note_on channel=5 note=61 velocity=0 time=0
EXTRACT: note_on channel=9 note=49 velocity=0 time=0.00396825
EXTRACT: note_on channel=9 note=32 velocity=62 time=0.00396825
EXTRACT: note_on channel=9 note=56 velocity=79 time=0
EXTRACT: note_on channel=9 note=68 velocity=36 time=0
EXTRACT: note_on channel=9 note=44 velocity=59 time=0.009920625
EXTRACT: note_on channel=9 note=42 velocity=66 time=0.001984125
EXTRACT: note_on channel=9 note=82 velocity=48 time=0
EXTRACT: note_on channel=9 note=82 velocity=0 time=0.001984125
EXTRACT: note_on channel=9 note=42 velocity=0 time=0
EXTRACT: note_on channel=9 note=68 velocity=0 time=0.021825375
EXTRACT: note_on channel=1 note=44 velocity=0 time=0.013888875000000002
EXTRACT: note_on channel=7 note=56 velocity=0 time=0.013888875000000002
EXTRACT: note_on channel=7 note=61 velocity=0 time=0.005952375000000001
EXTRACT: note_on channel=9 note=32 velocity=0 time=0.00396825
EXTRACT: note_on channel=9 note=44 velocity=0 time=0.01984125
EXTRACT: note_on channel=10 note=76 velocity=0 time=0.001984125
EXTRACT: note_on channel=3 note=73 velocity=0 time=0.009920625
EXTRACT: note_on channel=9 note=27 velocity=88 time=0.00396825
EXTRACT: note_on channel=9 note=36 velocity=101 time=0
EXTRACT: note_on channel=9 note=42 velocity=93 time=0
EXTRACT: note_on channel=10 note=57 velocity=38 time=0
EXTRACT: note_on channel=10 note=61 velocity=55 time=0
EXTRACT: note_on channel=10 note=66 velocity=59 time=0
EXTRACT: note_on channel=10 note=78 velocity=67 time=0
EXTRACT: note_on channel=3 note=69 velocity=85 time=0
EXTRACT: note_on channel=7 note=54 velocity=88 time=0
EXTRACT: note_on channel=9 note=36 velocity=126 time=0
EXTRACT: note_on channel=9 note=35 velocity=117 time=0
EXTRACT: note_on channel=9 note=44 velocity=81 time=0
EXTRACT: note_on channel=9 note=82 velocity=55 time=0
EXTRACT: note_on channel=9 note=56 velocity=80 time=0
EXTRACT: note_on channel=9 note=56 velocity=0 time=0.001984125
EXTRACT: note_on channel=9 note=44 velocity=0 time=0
EXTRACT: note_on channel=9 note=36 velocity=0 time=0
EXTRACT: note_on channel=9 note=35 velocity=0 time=0
EXTRACT: note_on channel=9 note=82 velocity=0 time=0
EXTRACT: note_on channel=9 note=27 velocity=0 time=0.0714285
EXTRACT: note_on channel=9 note=36 velocity=0 time=0.005952375000000001
EXTRACT: note_on channel=9 note=27 velocity=64 time=0.049603125000000005
EXTRACT: note_on channel=5 note=61 velocity=84 time=0
EXTRACT: note_on channel=5 note=66 velocity=84 time=0
EXTRACT: note_on channel=5 note=69 velocity=98 time=0
EXTRACT: note_on channel=9 note=82 velocity=63 time=0.011904750000000002
EXTRACT: note_on channel=9 note=82 velocity=0 time=0.001984125
EXTRACT: note_on channel=9 note=56 velocity=0 time=0.0396825
EXTRACT: note_on channel=9 note=27 velocity=0 time=0.0079365
EXTRACT: note_on channel=5 note=69 velocity=0 time=0.001984125
EXTRACT: note_on channel=5 note=66 velocity=0 time=0.001984125
EXTRACT: note_on channel=5 note=61 velocity=0 time=0.01984125
EXTRACT: note_on channel=9 note=42 velocity=0 time=0.01984125
EXTRACT: note_on channel=9 note=27 velocity=69 time=0.00396825
EXTRACT: note_on channel=9 note=44 velocity=67 time=0
EXTRACT: note_on channel=9 note=67 velocity=28 time=0
EXTRACT: note_on channel=1 note=30 velocity=83 time=0
EXTRACT: note_on channel=7 note=57 velocity=64 time=0
EXTRACT: note_on channel=7 note=61 velocity=47 time=0
EXTRACT: note_on channel=9 note=42 velocity=73 time=0
EXTRACT: note_on channel=9 note=82 velocity=59 time=0
EXTRACT: note_on channel=9 note=63 velocity=60 time=0
EXTRACT: note_on channel=9 note=63 velocity=0 time=0.001984125
EXTRACT: note_on channel=9 note=82 velocity=0 time=0
EXTRACT: note_on channel=9 note=42 velocity=0 time=0
EXTRACT: note_on channel=9 note=70 velocity=105 time=0.001984125
EXTRACT: note_on channel=9 note=70 velocity=0 time=0.001984125
EXTRACT: note_on channel=7 note=57 velocity=0 time=0.01984125
EXTRACT: note_on channel=9 note=67 velocity=0 time=0.015873
EXTRACT: note_on channel=7 note=61 velocity=0 time=0
EXTRACT: note_on channel=9 note=44 velocity=0 time=0.017857125
EXTRACT: note_on channel=9 note=27 velocity=0 time=0.01984125
EXTRACT: note_on channel=7 note=54 velocity=0 time=0.029761875000000004
EXTRACT: note_on channel=7 note=57 velocity=76 time=0.009920625
EXTRACT: note_on channel=7 note=61 velocity=64 time=0
EXTRACT: note_on channel=9 note=56 velocity=89 time=0
EXTRACT: note_on channel=9 note=56 velocity=0 time=0.001984125
EXTRACT: note_on channel=9 note=67 velocity=42 time=0.0079365
EXTRACT: note_on channel=9 note=44 velocity=67 time=0.009920625
EXTRACT: note_on channel=9 note=42 velocity=66 time=0.001984125
EXTRACT: note_on channel=9 note=82 velocity=45 time=0
EXTRACT: note_on channel=9 note=82 velocity=0 time=0.001984125
EXTRACT: note_on channel=9 note=42 velocity=0 time=0
EXTRACT: note_on channel=9 note=67 velocity=0 time=0.029761875000000004
EXTRACT: note_on channel=3 note=69 velocity=0 time=0.0079365
EXTRACT: note_on channel=7 note=57 velocity=0 time=0.00396825
EXTRACT: note_on channel=7 note=61 velocity=0 time=0.01984125
EXTRACT: note_on channel=9 note=44 velocity=0 time=0.023809500000000004
EXTRACT: note_on channel=1 note=30 velocity=0 time=0.005952375000000001
EXTRACT: note_on channel=9 note=28 velocity=79 time=0.00396825
EXTRACT: note_on channel=9 note=32 velocity=78 time=0
EXTRACT: note_on channel=9 note=36 velocity=101 time=0
EXTRACT: note_on channel=9 note=39 velocity=96 time=0
EXTRACT: note_on channel=9 note=42 velocity=88 time=0
EXTRACT: note_on channel=9 note=56 velocity=80 time=0
EXTRACT: note_on channel=1 note=37 velocity=85 time=0
EXTRACT: note_on channel=5 note=61 velocity=86 time=0
EXTRACT: note_on channel=5 note=66 velocity=83 time=0
EXTRACT: note_on channel=5 note=69 velocity=98 time=0
EXTRACT: note_on channel=7 note=54 velocity=85 time=0
EXTRACT: note_on channel=9 note=36 velocity=126 time=0
EXTRACT: note_on channel=9 note=35 velocity=117 time=0
EXTRACT: note_on channel=9 note=39 velocity=121 time=0
EXTRACT: note_on channel=9 note=40 velocity=117 time=0
EXTRACT: note_on channel=9 note=44 velocity=81 time=0
EXTRACT: note_on channel=9 note=82 velocity=60 time=0
EXTRACT: note_on channel=9 note=82 velocity=0 time=0.001984125
EXTRACT: note_on channel=9 note=35 velocity=0 time=0
EXTRACT: note_on channel=9 note=39 velocity=0 time=0
EXTRACT: note_on channel=9 note=36 velocity=0 time=0
EXTRACT: note_on channel=9 note=44 velocity=0 time=0
EXTRACT: note_on channel=9 note=40 velocity=0 time=0
EXTRACT: note_on channel=9 note=28 velocity=0 time=0.06746025000000001
EXTRACT: note_on channel=9 note=39 velocity=0 time=0.00396825
EXTRACT: note_on channel=9 note=32 velocity=0 time=0.005952375000000001
EXTRACT: note_on channel=9 note=36 velocity=0 time=0
EXTRACT: note_on channel=9 note=70 velocity=105 time=0.15277762500000003
EXTRACT: note_on channel=9 note=42 velocity=0 time=0.001984125
EXTRACT: note_on channel=1 note=37 velocity=0 time=0
EXTRACT: note_on channel=9 note=70 velocity=0 time=0
EXTRACT: note_on channel=9 note=32 velocity=67 time=0.00396825
EXTRACT: note_on channel=9 note=44 velocity=70 time=0
EXTRACT: note_on channel=9 note=68 velocity=26 time=0
EXTRACT: note_on channel=1 note=30 velocity=79 time=0
EXTRACT: note_on channel=7 note=57 velocity=75 time=0
EXTRACT: note_on channel=7 note=61 velocity=63 time=0
EXTRACT: note_on channel=9 note=42 velocity=75 time=0
EXTRACT: note_on channel=9 note=69 velocity=87 time=0
EXTRACT: note_on channel=9 note=56 velocity=87 time=0
EXTRACT: note_on channel=9 note=56 velocity=0 time=0.001984125
EXTRACT: note_on channel=9 note=69 velocity=0 time=0
EXTRACT: note_on channel=9 note=42 velocity=0 time=0
EXTRACT: note_on channel=9 note=68 velocity=0 time=0.03373012500000001
EXTRACT: note_on channel=7 note=54 velocity=0 time=0
EXTRACT: note_on channel=9 note=32 velocity=0 time=0.015873
EXTRACT: note_on channel=7 note=57 velocity=0 time=0.001984125
EXTRACT: note_on channel=9 note=56 velocity=0 time=0.001984125
EXTRACT: note_on channel=9 note=44 velocity=0 time=0.0079365
EXTRACT: note_on channel=7 note=61 velocity=0 time=0.001984125
EXTRACT: note_on channel=10 note=61 velocity=0 time=0.027777750000000004
EXTRACT: note_on channel=5 note=66 velocity=0 time=0.005952375000000001
EXTRACT: note_on channel=10 note=66 velocity=0 time=0.00396825
EXTRACT: note_on channel=5 note=69 velocity=0 time=0
EXTRACT: note_on channel=7 note=57 velocity=78 time=0.015873
EXTRACT: note_on channel=7 note=61 velocity=62 time=0
EXTRACT: note_on channel=9 note=62 velocity=64 time=0
EXTRACT: note_on channel=9 note=62 velocity=0 time=0.001984125
EXTRACT: note_on channel=9 note=32 velocity=64 time=0.0079365
EXTRACT: note_on channel=9 note=68 velocity=51 time=0
EXTRACT: note_on channel=10 note=57 velocity=0 time=0.001984125
EXTRACT: note_on channel=5 note=61 velocity=0 time=0
EXTRACT: note_on channel=9 note=44 velocity=68 time=0.0079365
EXTRACT: note_on channel=9 note=42 velocity=66 time=0.001984125
EXTRACT: note_on channel=9 note=69 velocity=69 time=0
EXTRACT: note_on channel=9 note=69 velocity=0 time=0.001984125
EXTRACT: note_on channel=9 note=42 velocity=0 time=0
EXTRACT: note_on channel=7 note=57 velocity=0 time=0.037698375000000006
EXTRACT: note_on channel=9 note=32 velocity=0 time=0.013888875000000002
EXTRACT: note_on channel=9 note=68 velocity=0 time=0.005952375000000001
EXTRACT: note_on channel=7 note=61 velocity=0 time=0.011904750000000002
EXTRACT: note_on channel=1 note=30 velocity=0 time=0.011904750000000002
EXTRACT: note_on channel=9 note=44 velocity=0 time=0.00396825
EXTRACT: note_on channel=10 note=78 velocity=0 time=0.005952375000000001
EXTRACT: note_on channel=9 note=27 velocity=92 time=0.00396825
EXTRACT: note_on channel=9 note=36 velocity=101 time=0
EXTRACT: note_on channel=9 note=42 velocity=93 time=0
EXTRACT: note_on channel=9 note=56 velocity=76 time=0
EXTRACT: note_on channel=1 note=35 velocity=80 time=0
EXTRACT: note_on channel=10 note=59 velocity=68 time=0
EXTRACT: note_on channel=10 note=63 velocity=56 time=0
EXTRACT: note_on channel=10 note=66 velocity=53 time=0
EXTRACT: note_on channel=10 note=83 velocity=60 time=0
EXTRACT: note_on channel=3 note=66 velocity=82 time=0
EXTRACT: note_on channel=5 note=59 velocity=88 time=0
EXTRACT: note_on channel=5 note=63 velocity=86 time=0
EXTRACT: note_on channel=5 note=66 velocity=84 time=0
EXTRACT: note_on channel=7 note=51 velocity=91 time=0
EXTRACT: note_on channel=9 note=36 velocity=126 time=0
EXTRACT: note_on channel=9 note=35 velocity=117 time=0
EXTRACT: note_on channel=9 note=44 velocity=81 time=0
EXTRACT: note_on channel=9 note=60 velocity=69 time=0
EXTRACT: note_on channel=9 note=60 velocity=0 time=0.001984125
EXTRACT: note_on channel=9 note=36 velocity=0 time=0
EXTRACT: note_on channel=9 note=35 velocity=0 time=0
EXTRACT: note_on channel=9 note=44 velocity=0 time=0
EXTRACT: note_on channel=5 note=63 velocity=0 time=0.069444375
EXTRACT: note_on channel=5 note=66 velocity=0 time=0.00396825
EXTRACT: note_on channel=9 note=27 velocity=0 time=0.00396825
EXTRACT: note_on channel=9 note=36 velocity=0 time=0.00396825
EXTRACT: note_on channel=9 note=69 velocity=93 time=0.057539625000000004
EXTRACT: note_on channel=9 note=69 velocity=0 time=0.001984125
EXTRACT: note_on channel=1 note=35 velocity=0 time=0.015873
EXTRACT: note_on channel=5 note=59 velocity=0 time=0.013888875000000002
EXTRACT: note_on channel=9 note=42 velocity=0 time=0.061507875000000004
EXTRACT: note_on channel=3 note=66 velocity=0 time=0
EXTRACT: note_on channel=9 note=27 velocity=85 time=0.00396825
EXTRACT: note_on channel=9 note=44 velocity=62 time=0
EXTRACT: note_on channel=9 note=67 velocity=36 time=0
EXTRACT: note_on channel=1 note=35 velocity=80 time=0
EXTRACT: note_on channel=3 note=63 velocity=65 time=0
EXTRACT: note_on channel=7 note=54 velocity=73 time=0
EXTRACT: note_on channel=7 note=59 velocity=58 time=0
EXTRACT: note_on channel=9 note=42 velocity=73 time=0
EXTRACT: note_on channel=9 note=62 velocity=59 time=0
EXTRACT: note_on channel=9 note=70 velocity=105 time=0
EXTRACT: note_on channel=9 note=70 velocity=0 time=0.001984125
EXTRACT: note_on channel=9 note=62 velocity=0 time=0
EXTRACT: note_on channel=9 note=42 velocity=0 time=0
EXTRACT: note_on channel=9 note=67 velocity=0 time=0.037698375000000006
EXTRACT: note_on channel=7 note=59 velocity=0 time=0
EXTRACT: note_on channel=9 note=56 velocity=0 time=0.001984125
EXTRACT: note_on channel=9 note=44 velocity=0 time=0.01984125
EXTRACT: note_on channel=7 note=54 velocity=0 time=0.001984125
EXTRACT: note_on channel=9 note=27 velocity=0 time=0.005952375000000001
EXTRACT: note_on channel=7 note=54 velocity=78 time=0.049603125000000005
EXTRACT: note_on channel=7 note=59 velocity=78 time=0
EXTRACT: note_on channel=9 note=60 velocity=63 time=0
EXTRACT: note_on channel=9 note=60 velocity=0 time=0.001984125
EXTRACT: note_on channel=9 note=32 velocity=76 time=0.0079365
EXTRACT: note_on channel=9 note=67 velocity=46 time=0
EXTRACT: note_on channel=5 note=59 velocity=78 time=0
EXTRACT: note_on channel=5 note=63 velocity=87 time=0
EXTRACT: note_on channel=5 note=66 velocity=85 time=0
EXTRACT: note_on channel=7 note=51 velocity=0 time=0.001984125
EXTRACT: note_on channel=9 note=44 velocity=71 time=0.0079365
EXTRACT: note_on channel=9 note=42 velocity=66 time=0.001984125
EXTRACT: note_on channel=9 note=69 velocity=61 time=0
EXTRACT: note_on channel=9 note=69 velocity=0 time=0.001984125
EXTRACT: note_on channel=9 note=42 velocity=0 time=0
EXTRACT: note_on channel=5 note=63 velocity=0 time=0.05555550000000001
EXTRACT: note_on channel=9 note=67 velocity=0 time=0.001984125
EXTRACT: note_on channel=7 note=59 velocity=0 time=0
EXTRACT: note_on channel=9 note=32 velocity=0 time=0.001984125
EXTRACT: note_on channel=7 note=54 velocity=0 time=0
EXTRACT: note_on channel=5 note=66 velocity=0 time=0.0079365
EXTRACT: note_on channel=9 note=44 velocity=0 time=0.009920625
EXTRACT: note_on channel=1 note=35 velocity=0 time=0.013888875000000002
EXTRACT: note_on channel=3 note=63 velocity=0 time=0
EXTRACT: note_on channel=9 note=28 velocity=82 time=0.00396825
EXTRACT: note_on channel=9 note=36 velocity=101 time=0
EXTRACT: note_on channel=9 note=39 velocity=99 time=0
EXTRACT: note_on channel=9 note=42 velocity=92 time=0
EXTRACT: note_on channel=9 note=56 velocity=73 time=0
EXTRACT: note_on channel=1 note=39 velocity=91 time=0
EXTRACT: note_on channel=3 note=66 velocity=79 time=0
EXTRACT: note_on channel=7 note=51 velocity=91 time=0
EXTRACT: note_on channel=9 note=40 velocity=117 time=0
EXTRACT: note_on channel=9 note=36 velocity=126 time=0
EXTRACT: note_on channel=9 note=35 velocity=117 time=0
EXTRACT: note_on channel=9 note=39 velocity=121 time=0
EXTRACT: note_on channel=9 note=44 velocity=81 time=0
EXTRACT: note_on channel=9 note=69 velocity=78 time=0
EXTRACT: note_on channel=9 note=69 velocity=0 time=0.001984125
EXTRACT: note_on channel=9 note=36 velocity=0 time=0
EXTRACT: note_on channel=9 note=35 velocity=0 time=0
EXTRACT: note_on channel=9 note=40 velocity=0 time=0
EXTRACT: note_on channel=9 note=44 velocity=0 time=0
EXTRACT: note_on channel=9 note=39 velocity=0 time=0
EXTRACT: note_on channel=5 note=59 velocity=0 time=0.05158725000000001
EXTRACT: note_on channel=9 note=39 velocity=0 time=0.01984125
EXTRACT: note_on channel=9 note=28 velocity=0 time=0.001984125
EXTRACT: note_on channel=9 note=36 velocity=0 time=0.0079365
EXTRACT: note_on channel=9 note=61 velocity=73 time=0.03571425
EXTRACT: note_on channel=9 note=61 velocity=0 time=0.001984125
EXTRACT: note_on channel=9 note=32 velocity=68 time=0.0079365
EXTRACT: note_on channel=9 note=32 velocity=0 time=0.053571375000000004
EXTRACT: note_on channel=3 note=66 velocity=0 time=0.04761900000000001
EXTRACT: note_on channel=9 note=42 velocity=0 time=0.00396825
EXTRACT: note_on channel=1 note=39 velocity=0 time=0
EXTRACT: note_on channel=9 note=32 velocity=70 time=0.00396825
EXTRACT: note_on channel=9 note=44 velocity=65 time=0
EXTRACT: note_on channel=9 note=68 velocity=59 time=0
EXTRACT: note_on channel=1 note=42 velocity=85 time=0
EXTRACT: note_on channel=3 note=71 velocity=77 time=0
EXTRACT: note_on channel=5 note=59 velocity=90 time=0
EXTRACT: note_on channel=5 note=63 velocity=94 time=0
EXTRACT: note_on channel=5 note=66 velocity=87 time=0
EXTRACT: note_on channel=7 note=54 velocity=79 time=0
EXTRACT: note_on channel=7 note=59 velocity=75 time=0
EXTRACT: note_on channel=9 note=42 velocity=73 time=0
EXTRACT: note_on channel=9 note=60 velocity=66 time=0
EXTRACT: note_on channel=9 note=60 velocity=0 time=0.001984125
EXTRACT: note_on channel=9 note=42 velocity=0 time=0
EXTRACT: note_on channel=9 note=70 velocity=105 time=0
EXTRACT: note_on channel=9 note=70 velocity=0 time=0.001984125
EXTRACT: note_on channel=9 note=68 velocity=0 time=0.041666625000000006
EXTRACT: note_on channel=9 note=56 velocity=0 time=0.00396825
EXTRACT: note_on channel=9 note=44 velocity=0 time=0.005952375000000001
EXTRACT: note_on channel=9 note=32 velocity=0 time=0.0079365
EXTRACT: note_on channel=7 note=59 velocity=0 time=0.001984125
EXTRACT: note_on channel=7 note=54 velocity=0 time=0
EXTRACT: note_on channel=5 note=63 velocity=0 time=0.015873
EXTRACT: note_on channel=5 note=66 velocity=0 time=0.00396825
EXTRACT: note_on channel=7 note=54 velocity=77 time=0.03373012500000001
EXTRACT: note_on channel=7 note=59 velocity=47 time=0
EXTRACT: note_on channel=9 note=62 velocity=69 time=0
EXTRACT: note_on channel=9 note=62 velocity=0 time=0.001984125
EXTRACT: note_on channel=9 note=32 velocity=63 time=0.0079365
EXTRACT: note_on channel=9 note=68 velocity=54 time=0
EXTRACT: note_on channel=5 note=59 velocity=0 time=0
EXTRACT: note_on channel=10 note=63 velocity=0 time=0.00396825
EXTRACT: note_on channel=9 note=44 velocity=65 time=0.005952375000000001
EXTRACT: note_on channel=10 note=59 velocity=0 time=0.001984125
EXTRACT: note_on channel=9 note=42 velocity=66 time=0
EXTRACT: note_on channel=9 note=42 velocity=0 time=0.001984125
EXTRACT: note_on channel=7 note=51 velocity=0 time=0.0079365
EXTRACT: note_on channel=10 note=66 velocity=0 time=0.013888875000000002
EXTRACT: note_on channel=7 note=54 velocity=0 time=0.025793625000000004
EXTRACT: note_on channel=9 note=32 velocity=0 time=0.001984125
EXTRACT: note_on channel=9 note=68 velocity=0 time=0.001984125
EXTRACT: note_on channel=7 note=59 velocity=0 time=0.005952375000000001
EXTRACT: note_on channel=9 note=44 velocity=0 time=0.013888875000000002
EXTRACT: note_on channel=1 note=42 velocity=0 time=0.00396825
EXTRACT: note_on channel=10 note=83 velocity=0 time=0.009920625
EXTRACT: note_on channel=3 note=71 velocity=0 time=0.005952375000000001
EXTRACT: note_on channel=9 note=27 velocity=87 time=0.00396825
EXTRACT: note_on channel=9 note=36 velocity=101 time=0
EXTRACT: note_on channel=9 note=42 velocity=93 time=0
EXTRACT: note_on channel=9 note=56 velocity=70 time=0
EXTRACT: note_on channel=10 note=56 velocity=57 time=0
EXTRACT: note_on channel=10 note=59 velocity=49 time=0
EXTRACT: note_on channel=10 note=64 velocity=69 time=0
EXTRACT: note_on channel=10 note=80 velocity=65 time=0
EXTRACT: note_on channel=3 note=68 velocity=84 time=0
EXTRACT: note_on channel=7 note=52 velocity=91 time=0
EXTRACT: note_on channel=9 note=36 velocity=126 time=0
EXTRACT: note_on channel=9 note=35 velocity=117 time=0
EXTRACT: note_on channel=9 note=44 velocity=81 time=0
EXTRACT: note_on channel=9 note=82 velocity=69 time=0
EXTRACT: note_on channel=9 note=56 velocity=87 time=0
EXTRACT: note_on channel=9 note=60 velocity=63 time=0
EXTRACT: note_on channel=9 note=60 velocity=0 time=0.001984125
EXTRACT: note_on channel=9 note=35 velocity=0 time=0
EXTRACT: note_on channel=9 note=44 velocity=0 time=0
EXTRACT: note_on channel=9 note=36 velocity=0 time=0
EXTRACT: note_on channel=9 note=56 velocity=0 time=0
EXTRACT: note_on channel=9 note=82 velocity=0 time=0
EXTRACT: note_on channel=9 note=27 velocity=0 time=0.06746025000000001
EXTRACT: note_on channel=9 note=36 velocity=0 time=0.013888875000000002
EXTRACT: note_on channel=9 note=32 velocity=76 time=0.045634875000000005
EXTRACT: note_on channel=5 note=59 velocity=81 time=0
EXTRACT: note_on channel=5 note=64 velocity=99 time=0
EXTRACT: note_on channel=5 note=68 velocity=90 time=0
EXTRACT: note_on channel=9 note=82 velocity=43 time=0.011904750000000002
EXTRACT: note_on channel=9 note=82 velocity=0 time=0.001984125
EXTRACT: note_on channel=5 note=64 velocity=0 time=0.045634875000000005
EXTRACT: note_on channel=9 note=32 velocity=0 time=0.00396825
EXTRACT: note_on channel=5 note=59 velocity=0 time=0.001984125
EXTRACT: note_on channel=5 note=68 velocity=0 time=0.013888875000000002
EXTRACT: note_on channel=9 note=70 velocity=105 time=0.021825375
EXTRACT: note_on channel=9 note=70 velocity=0 time=0.001984125
EXTRACT: note_on channel=9 note=42 velocity=0 time=0.001984125
EXTRACT: note_on channel=9 note=27 velocity=58 time=0.00396825
EXTRACT: note_on channel=9 note=44 velocity=66 time=0
EXTRACT: note_on channel=9 note=67 velocity=43 time=0
EXTRACT: note_on channel=1 note=40 velocity=95 time=0
EXTRACT: note_on channel=7 note=56 velocity=74 time=0
EXTRACT: note_on channel=7 note=59 velocity=79 time=0
EXTRACT: note_on channel=9 note=42 velocity=73 time=0
EXTRACT: note_on channel=9 note=82 velocity=48 time=0
EXTRACT: note_on channel=9 note=82 velocity=0 time=0.001984125
EXTRACT: note_on channel=9 note=42 velocity=0 time=0
EXTRACT: note_on channel=9 note=67 velocity=0 time=0.03373012500000001
EXTRACT: note_on channel=9 note=27 velocity=0 time=0.009920625
EXTRACT: note_on channel=7 note=59 velocity=0 time=0.0079365
EXTRACT: note_on channel=9 note=56 velocity=0 time=0.001984125
EXTRACT: note_on channel=9 note=44 velocity=0 time=0.00396825
EXTRACT: note_on channel=7 note=56 velocity=0 time=0.00396825
EXTRACT: note_on channel=7 note=52 velocity=0 time=0.027777750000000004
EXTRACT: note_on channel=7 note=56 velocity=79 time=0.027777750000000004
EXTRACT: note_on channel=7 note=59 velocity=61 time=0
EXTRACT: note_on channel=9 note=56 velocity=87 time=0
EXTRACT: note_on channel=9 note=56 velocity=0 time=0.001984125
EXTRACT: note_on channel=9 note=67 velocity=40 time=0.0079365
EXTRACT: note_on channel=9 note=44 velocity=69 time=0.009920625
EXTRACT: note_on channel=9 note=42 velocity=66 time=0.001984125
EXTRACT: note_on channel=9 note=82 velocity=40 time=0
EXTRACT: note_on channel=9 note=82 velocity=0 time=0.001984125
EXTRACT: note_on channel=9 note=42 velocity=0 time=0
EXTRACT: note_on channel=9 note=67 velocity=0 time=0.04761900000000001
EXTRACT: note_on channel=7 note=59 velocity=0 time=0.001984125
EXTRACT: note_on channel=7 note=56 velocity=0 time=0.011904750000000002
EXTRACT: note_on channel=9 note=44 velocity=0 time=0.013888875000000002
EXTRACT: note_on channel=1 note=40 velocity=0 time=0.009920625
EXTRACT: note_on channel=3 note=68 velocity=0 time=0.005952375000000001
EXTRACT: note_on channel=9 note=28 velocity=85 time=0.00396825
EXTRACT: note_on channel=9 note=32 velocity=88 time=0
EXTRACT: note_on channel=9 note=36 velocity=101 time=0
EXTRACT: note_on channel=9 note=39 velocity=99 time=0
EXTRACT: note_on channel=9 note=42 velocity=90 time=0
EXTRACT: note_on channel=9 note=56 velocity=70 time=0
EXTRACT: note_on channel=1 note=35 velocity=84 time=0
EXTRACT: note_on channel=3 note=66 velocity=77 time=0
EXTRACT: note_on channel=5 note=59 velocity=92 time=0
EXTRACT: note_on channel=5 note=64 velocity=99 time=0
EXTRACT: note_on channel=5 note=68 velocity=92 time=0
EXTRACT: note_on channel=7 note=52 velocity=95 time=0
EXTRACT: note_on channel=9 note=39 velocity=121 time=0
EXTRACT: note_on channel=9 note=40 velocity=117 time=0
EXTRACT: note_on channel=9 note=36 velocity=126 time=0
EXTRACT: note_on channel=9 note=35 velocity=117 time=0
EXTRACT: note_on channel=9 note=44 velocity=81 time=0
EXTRACT: note_on channel=9 note=82 velocity=69 time=0
EXTRACT: note_on channel=5 note=64 velocity=0 time=0.001984125
EXTRACT: note_on channel=9 note=82 velocity=0 time=0
EXTRACT: note_on channel=9 note=40 velocity=0 time=0
EXTRACT: note_on channel=9 note=36 velocity=0 time=0
EXTRACT: note_on channel=9 note=39 velocity=0 time=0
EXTRACT: note_on channel=9 note=44 velocity=0 time=0
EXTRACT: note_on channel=9 note=35 velocity=0 time=0
EXTRACT: note_on channel=9 note=32 velocity=0 time=0.069444375
EXTRACT: note_on channel=9 note=28 velocity=0 time=0.001984125
EXTRACT: note_on channel=9 note=39 velocity=0 time=0.005952375000000001
EXTRACT: note_on channel=9 note=36 velocity=0 time=0.00396825
EXTRACT: note_on channel=5 note=64 velocity=35 time=0.045634875000000005
EXTRACT: note_on channel=1 note=35 velocity=0 time=0.08928562500000001
EXTRACT: note_on channel=3 note=66 velocity=0 time=0.011904750000000002
EXTRACT: note_on channel=9 note=70 velocity=105 time=0.001984125
EXTRACT: note_on channel=9 note=42 velocity=0 time=0.001984125
EXTRACT: note_on channel=9 note=70 velocity=0 time=0
EXTRACT: note_on channel=9 note=32 velocity=71 time=0.00396825
EXTRACT: note_on channel=9 note=44 velocity=69 time=0
EXTRACT: note_on channel=9 note=68 velocity=50 time=0
EXTRACT: note_on channel=1 note=40 velocity=91 time=0
EXTRACT: note_on channel=3 note=64 velocity=71 time=0
EXTRACT: note_on channel=7 note=56 velocity=75 time=0
EXTRACT: note_on channel=7 note=59 velocity=73 time=0
EXTRACT: note_on channel=9 note=42 velocity=73 time=0
EXTRACT: note_on channel=9 note=69 velocity=78 time=0
EXTRACT: note_on channel=9 note=56 velocity=87 time=0
EXTRACT: note_on channel=9 note=56 velocity=0 time=0.001984125
EXTRACT: note_on channel=9 note=69 velocity=0 time=0
EXTRACT: note_on channel=9 note=42 velocity=0 time=0
EXTRACT: note_on channel=9 note=68 velocity=0 time=0.031746
EXTRACT: note_on channel=5 note=59 velocity=0 time=0.0079365
EXTRACT: note_on channel=9 note=44 velocity=0 time=0.013888875000000002
EXTRACT: note_on channel=9 note=32 velocity=0 time=0
EXTRACT: note_on channel=7 note=56 velocity=0 time=0.009920625
EXTRACT: note_on channel=10 note=64 velocity=0 time=0.009920625
EXTRACT: note_on channel=7 note=59 velocity=0 time=0
EXTRACT: note_on channel=5 note=64 velocity=0 time=0.009920625
EXTRACT: note_on channel=5 note=68 velocity=0 time=0.00396825
EXTRACT: note_on channel=9 note=56 velocity=0 time=0.001984125
EXTRACT: note_on channel=10 note=56 velocity=0 time=0.0079365
EXTRACT: note_on channel=10 note=59 velocity=0 time=0
EXTRACT: note_on channel=7 note=56 velocity=81 time=0.01984125
EXTRACT: note_on channel=7 note=59 velocity=56 time=0
EXTRACT: note_on channel=9 note=32 velocity=67 time=0.009920625
EXTRACT: note_on channel=9 note=68 velocity=52 time=0
EXTRACT: note_on channel=7 note=52 velocity=0 time=0.005952375000000001
EXTRACT: note_on channel=9 note=44 velocity=68 time=0.00396825
EXTRACT: note_on channel=9 note=42 velocity=66 time=0.001984125
EXTRACT: note_on channel=9 note=69 velocity=73 time=0
EXTRACT: note_on channel=9 note=69 velocity=0 time=0.001984125
EXTRACT: note_on channel=9 note=42 velocity=0 time=0
EXTRACT: note_on channel=7 note=59 velocity=0 time=0.041666625000000006
EXTRACT: note_on channel=3 note=64 velocity=0 time=0.00396825
EXTRACT: note_on channel=7 note=56 velocity=0 time=0.001984125
EXTRACT: note_on channel=9 note=68 velocity=0 time=0.001984125
EXTRACT: note_on channel=9 note=32 velocity=0 time=0.005952375000000001
EXTRACT: note_on channel=1 note=40 velocity=0 time=0.013888875000000002
EXTRACT: note_on channel=9 note=44 velocity=0 time=0.005952375000000001
EXTRACT: note_on channel=10 note=80 velocity=0 time=0.015873
EXTRACT: note_on channel=9 note=27 velocity=90 time=0.00396825
EXTRACT: note_on channel=9 note=36 velocity=101 time=0
EXTRACT: note_on channel=9 note=42 velocity=93 time=0
EXTRACT: note_on channel=9 note=56 velocity=70 time=0
EXTRACT: note_on channel=1 note=37 velocity=83 time=0
EXTRACT: note_on channel=10 note=56 velocity=60 time=0
EXTRACT: note_on channel=10 note=61 velocity=57 time=0
EXTRACT: note_on channel=10 note=64 velocity=60 time=0
EXTRACT: note_on channel=10 note=76 velocity=70 time=0
EXTRACT: note_on channel=5 note=61 velocity=79 time=0
EXTRACT: note_on channel=5 note=64 velocity=98 time=0
EXTRACT: note_on channel=5 note=68 velocity=92 time=0
EXTRACT: note_on channel=7 note=49 velocity=85 time=0
EXTRACT: note_on channel=9 note=36 velocity=126 time=0
EXTRACT: note_on channel=9 note=35 velocity=117 time=0
EXTRACT: note_on channel=9 note=35 velocity=0 time=0.001984125
EXTRACT: note_on channel=9 note=36 velocity=0 time=0
EXTRACT: note_on channel=5 note=64 velocity=0 time=0.063492
EXTRACT: note_on channel=9 note=27 velocity=0 time=0.013888875000000002
EXTRACT: note_on channel=9 note=36 velocity=0 time=0.00396825
EXTRACT: note_on channel=5 note=68 velocity=0 time=0.001984125
EXTRACT: note_on channel=5 note=61 velocity=0 time=0.03373012500000001
EXTRACT: note_on channel=9 note=69 velocity=84 time=0.021825375
EXTRACT: note_on channel=9 note=69 velocity=0 time=0.001984125
EXTRACT: note_on channel=1 note=37 velocity=0 time=0.031746
EXTRACT: note_on channel=9 note=42 velocity=0 time=0.05952375000000001
EXTRACT: note_on channel=9 note=70 velocity=105 time=0
EXTRACT: note_on channel=9 note=27 velocity=78 time=0.00396825
EXTRACT: note_on channel=9 note=44 velocity=60 time=0
EXTRACT: note_on channel=9 note=67 velocity=40 time=0
EXTRACT: note_on channel=1 note=37 velocity=78 time=0
EXTRACT: note_on channel=3 note=64 velocity=85 time=0
EXTRACT: note_on channel=7 note=56 velocity=81 time=0
EXTRACT: note_on channel=7 note=61 velocity=69 time=0
EXTRACT: note_on channel=9 note=70 velocity=0 time=0
EXTRACT: note_on channel=9 note=42 velocity=73 time=0
EXTRACT: note_on channel=9 note=62 velocity=79 time=0
EXTRACT: note_on channel=9 note=62 velocity=0 time=0.001984125
EXTRACT: note_on channel=9 note=42 velocity=0 time=0
EXTRACT: note_on channel=9 note=56 velocity=0 time=0.027777750000000004
EXTRACT: note_on channel=9 note=67 velocity=0 time=0.009920625
EXTRACT: note_on channel=9 note=44 velocity=0 time=0.005952375000000001
EXTRACT: note_on channel=7 note=56 velocity=0 time=0.015873
EXTRACT: note_on channel=7 note=61 velocity=0 time=0.001984125
EXTRACT: note_on channel=9 note=27 velocity=0 time=0.001984125
EXTRACT: note_on channel=3 note=64 velocity=0 time=0.023809500000000004
EXTRACT: note_on channel=7 note=49 velocity=0 time=0.029761875000000004
EXTRACT: note_on channel=7 note=56 velocity=78 time=0
EXTRACT: note_on channel=7 note=61 velocity=61 time=0
EXTRACT: note_on channel=9 note=61 velocity=69 time=0
EXTRACT: note_on channel=9 note=61 velocity=0 time=0.001984125
EXTRACT: note_on channel=9 note=27 velocity=50 time=0.0079365
EXTRACT: note_on channel=9 note=67 velocity=41 time=0
EXTRACT: note_on channel=5 note=61 velocity=84 time=0
EXTRACT: note_on channel=5 note=64 velocity=88 time=0
EXTRACT: note_on channel=5 note=68 velocity=84 time=0
EXTRACT: note_on channel=9 note=44 velocity=63 time=0.009920625
EXTRACT: note_on channel=9 note=42 velocity=66 time=0.001984125
EXTRACT: note_on channel=9 note=69 velocity=68 time=0
EXTRACT: note_on channel=9 note=69 velocity=0 time=0.001984125
EXTRACT: note_on channel=9 note=42 velocity=0 time=0
EXTRACT: note_on channel=7 note=56 velocity=0 time=0.04761900000000001
EXTRACT: note_on channel=5 note=64 velocity=0 time=0.00396825
EXTRACT: note_on channel=7 note=61 velocity=0 time=0.005952375000000001
EXTRACT: note_on channel=9 note=67 velocity=0 time=0.001984125
EXTRACT: note_on channel=9 note=44 velocity=0 time=0.015873
EXTRACT: note_on channel=9 note=27 velocity=0 time=0
EXTRACT: note_on channel=1 note=37 velocity=0 time=0.015873
EXTRACT: note_on channel=9 note=28 velocity=74 time=0.00396825
EXTRACT: note_on channel=9 note=32 velocity=78 time=0
EXTRACT: note_on channel=9 note=36 velocity=99 time=0
EXTRACT: note_on channel=9 note=39 velocity=96 time=0
EXTRACT: note_on channel=9 note=42 velocity=93 time=0
EXTRACT: note_on channel=9 note=56 velocity=67 time=0
EXTRACT: note_on channel=1 note=40 velocity=91 time=0
EXTRACT: note_on channel=3 note=64 velocity=85 time=0
EXTRACT: note_on channel=5 note=68 velocity=0 time=0
EXTRACT: note_on channel=7 note=49 velocity=88 time=0
EXTRACT: note_on channel=9 note=39 velocity=121 time=0
EXTRACT: note_on channel=9 note=36 velocity=126 time=0
EXTRACT: note_on channel=9 note=35 velocity=117 time=0
EXTRACT: note_on channel=9 note=40 velocity=117 time=0
EXTRACT: note_on channel=9 note=44 velocity=81 time=0
EXTRACT: note_on channel=9 note=44 velocity=0 time=0.001984125
EXTRACT: note_on channel=9 note=35 velocity=0 time=0
EXTRACT: note_on channel=9 note=39 velocity=0 time=0
EXTRACT: note_on channel=9 note=36 velocity=0 time=0
EXTRACT: note_on channel=9 note=40 velocity=0 time=0
EXTRACT: note_on channel=5 note=61 velocity=0 time=0.027777750000000004
EXTRACT: note_on channel=9 note=32 velocity=0 time=0.041666625000000006
EXTRACT: note_on channel=9 note=39 velocity=0 time=0.0079365
EXTRACT: note_on channel=9 note=36 velocity=0 time=0
EXTRACT: note_on channel=9 note=28 velocity=0 time=0.011904750000000002
EXTRACT: note_on channel=9 note=62 velocity=73 time=0.027777750000000004
EXTRACT: note_on channel=9 note=62 velocity=0 time=0.001984125
EXTRACT: note_on channel=1 note=40 velocity=0 time=0.097222125
EXTRACT: note_on channel=9 note=42 velocity=0 time=0.015873
EXTRACT: note_on channel=3 note=64 velocity=0 time=0
EXTRACT: note_on channel=9 note=32 velocity=69 time=0.00396825
EXTRACT: note_on channel=9 note=44 velocity=69 time=0
EXTRACT: note_on channel=9 note=68 velocity=39 time=0
EXTRACT: note_on channel=1 note=44 velocity=91 time=0
EXTRACT: note_on channel=3 note=61 velocity=71 time=0
EXTRACT: note_on channel=5 note=61 velocity=87 time=0
EXTRACT: note_on channel=5 note=64 velocity=87 time=0
EXTRACT: note_on channel=5 note=68 velocity=89 time=0
EXTRACT: note_on channel=7 note=56 velocity=87 time=0
EXTRACT: note_on channel=7 note=61 velocity=74 time=0
EXTRACT: note_on channel=9 note=42 velocity=73 time=0
EXTRACT: note_on channel=9 note=61 velocity=66 time=0
EXTRACT: note_on channel=9 note=61 velocity=0 time=0.001984125
EXTRACT: note_on channel=9 note=42 velocity=0 time=0
EXTRACT: note_on channel=9 note=70 velocity=105 time=0.001984125
EXTRACT: note_on channel=9 note=70 velocity=0 time=0.001984125
EXTRACT: note_on channel=9 note=68 velocity=0 time=0.029761875000000004
EXTRACT: note_on channel=9 note=56 velocity=0 time=0.015873
EXTRACT: note_on channel=9 note=32 velocity=0 time=0.0079365
EXTRACT: note_on channel=9 note=44 velocity=0 time=0.005952375000000001
EXTRACT: note_on channel=7 note=56 velocity=0 time=0
EXTRACT: note_on channel=5 note=64 velocity=0 time=0.00396825
EXTRACT: note_on channel=7 note=61 velocity=0 time=0.00396825
EXTRACT: note_on channel=10 note=61 velocity=0 time=0.011904750000000002
EXTRACT: note_on channel=10 note=64 velocity=0 time=0.0079365
EXTRACT: note_on channel=5 note=61 velocity=0 time=0.001984125
EXTRACT: note_on channel=5 note=68 velocity=0 time=0.005952375000000001
EXTRACT: note_on channel=10 note=56 velocity=0 time=0.013888875000000002
EXTRACT: note_on channel=7 note=56 velocity=81 time=0.00396825
EXTRACT: note_on channel=7 note=61 velocity=68 time=0
EXTRACT: note_on channel=9 note=32 velocity=69 time=0.009920625
EXTRACT: note_on channel=9 note=68 velocity=56 time=0
EXTRACT: note_on channel=7 note=49 velocity=0 time=0.00396825
EXTRACT: note_on channel=9 note=44 velocity=64 time=0.005952375000000001
EXTRACT: note_on channel=9 note=42 velocity=66 time=0.001984125
EXTRACT: note_on channel=9 note=82 velocity=48 time=0
EXTRACT: note_on channel=9 note=82 velocity=0 time=0.001984125
EXTRACT: note_on channel=9 note=42 velocity=0 time=0
EXTRACT: note_on channel=9 note=68 velocity=0 time=0.04761900000000001
EXTRACT: note_on channel=7 note=56 velocity=0 time=0
EXTRACT: note_on channel=9 note=32 velocity=0 time=0.011904750000000002
EXTRACT: note_on channel=7 note=61 velocity=0 time=0.0079365
EXTRACT: note_on channel=1 note=44 velocity=0 time=0.00396825
EXTRACT: note_on channel=9 note=44 velocity=0 time=0.00396825
EXTRACT: note_on channel=10 note=76 velocity=0 time=0.015873
EXTRACT: note_on channel=3 note=61 velocity=0 time=0
EXTRACT: note_on channel=9 note=27 velocity=88 time=0.00396825
EXTRACT: note_on channel=9 note=36 velocity=103 time=0
EXTRACT: note_on channel=9 note=42 velocity=92 time=0
EXTRACT: note_on channel=9 note=56 velocity=69 time=0
EXTRACT: note_on channel=10 note=57 velocity=58 time=0
EXTRACT: note_on channel=10 note=61 velocity=59 time=0
EXTRACT: note_on channel=10 note=66 velocity=60 time=0
EXTRACT: note_on channel=10 note=78 velocity=71 time=0
EXTRACT: note_on channel=3 note=66 velocity=84 time=0
EXTRACT: note_on channel=7 note=54 velocity=83 time=0
EXTRACT: note_on channel=9 note=36 velocity=126 time=0
EXTRACT: note_on channel=9 note=35 velocity=117 time=0
EXTRACT: note_on channel=9 note=44 velocity=81 time=0
EXTRACT: note_on channel=9 note=82 velocity=55 time=0
EXTRACT: note_on channel=9 note=56 velocity=80 time=0
EXTRACT: note_on channel=9 note=56 velocity=0 time=0.001984125
EXTRACT: note_on channel=9 note=44 velocity=0 time=0
EXTRACT: note_on channel=9 note=36 velocity=0 time=0
EXTRACT: note_on channel=9 note=35 velocity=0 time=0
EXTRACT: note_on channel=9 note=82 velocity=0 time=0
EXTRACT: note_on channel=9 note=27 velocity=0 time=0.069444375
EXTRACT: note_on channel=9 note=36 velocity=0 time=0.009920625
EXTRACT: note_on channel=9 note=32 velocity=77 time=0.04761900000000001
EXTRACT: note_on channel=5 note=61 velocity=89 time=0
EXTRACT: note_on channel=5 note=66 velocity=90 time=0
EXTRACT: note_on channel=5 note=69 velocity=94 time=0
EXTRACT: note_on channel=9 note=82 velocity=63 time=0.011904750000000002
EXTRACT: note_on channel=9 note=82 velocity=0 time=0.001984125
EXTRACT: note_on channel=9 note=32 velocity=0 time=0.041666625000000006
EXTRACT: note_on channel=5 note=69 velocity=0 time=0.015873
EXTRACT: note_on channel=5 note=66 velocity=0 time=0.001984125
EXTRACT: note_on channel=5 note=61 velocity=0 time=0.017857125
EXTRACT: note_on channel=9 note=42 velocity=0 time=0.013888875000000002
EXTRACT: note_on channel=9 note=27 velocity=77 time=0.00396825
EXTRACT: note_on channel=9 note=44 velocity=70 time=0
EXTRACT: note_on channel=1 note=30 velocity=83 time=0
EXTRACT: note_on channel=7 note=57 velocity=80 time=0
EXTRACT: note_on channel=7 note=61 velocity=71 time=0
EXTRACT: note_on channel=9 note=42 velocity=73 time=0
EXTRACT: note_on channel=9 note=82 velocity=59 time=0
EXTRACT: note_on channel=9 note=63 velocity=60 time=0
EXTRACT: note_on channel=9 note=63 velocity=0 time=0.001984125
EXTRACT: note_on channel=9 note=82 velocity=0 time=0
EXTRACT: note_on channel=9 note=42 velocity=0 time=0
EXTRACT: note_on channel=9 note=70 velocity=105 time=0.001984125
EXTRACT: note_on channel=9 note=70 velocity=0 time=0.001984125
EXTRACT: note_on channel=9 note=56 velocity=0 time=0.04761900000000001
EXTRACT: note_on channel=9 note=44 velocity=0 time=0.001984125
EXTRACT: note_on channel=7 note=57 velocity=0 time=0
EXTRACT: note_on channel=9 note=27 velocity=0 time=0.0079365
EXTRACT: note_on channel=7 note=61 velocity=0 time=0
EXTRACT: note_on channel=7 note=57 velocity=77 time=0.05555550000000001
EXTRACT: note_on channel=7 note=61 velocity=64 time=0
EXTRACT: note_on channel=9 note=56 velocity=89 time=0
EXTRACT: note_on channel=9 note=56 velocity=0 time=0.001984125
EXTRACT: note_on channel=9 note=67 velocity=49 time=0.0079365
EXTRACT: note_on channel=7 note=54 velocity=0 time=0
EXTRACT: note_on channel=9 note=44 velocity=72 time=0.009920625
EXTRACT: note_on channel=9 note=42 velocity=66 time=0.001984125
EXTRACT: note_on channel=9 note=82 velocity=45 time=0
EXTRACT: note_on channel=9 note=82 velocity=0 time=0.001984125
EXTRACT: note_on channel=9 note=42 velocity=0 time=0
EXTRACT: note_on channel=7 note=57 velocity=0 time=0.0396825
EXTRACT: note_on channel=9 note=67 velocity=0 time=0.017857125
EXTRACT: note_on channel=9 note=44 velocity=0 time=0.013888875000000002
EXTRACT: note_on channel=7 note=61 velocity=0 time=0.00396825
EXTRACT: note_on channel=1 note=30 velocity=0 time=0.015873
EXTRACT: note_on channel=3 note=66 velocity=0 time=0
EXTRACT: note_on channel=9 note=28 velocity=79 time=0.00396825
EXTRACT: note_on channel=9 note=32 velocity=83 time=0
EXTRACT: note_on channel=9 note=36 velocity=95 time=0
EXTRACT: note_on channel=9 note=39 velocity=99 time=0
EXTRACT: note_on channel=9 note=42 velocity=94 time=0
EXTRACT: note_on channel=9 note=56 velocity=70 time=0
EXTRACT: note_on channel=1 note=37 velocity=87 time=0
EXTRACT: note_on channel=3 note=61 velocity=74 time=0
EXTRACT: note_on channel=5 note=61 velocity=90 time=0
EXTRACT: note_on channel=5 note=66 velocity=85 time=0
EXTRACT: note_on channel=5 note=69 velocity=101 time=0
EXTRACT: note_on channel=7 note=54 velocity=88 time=0
EXTRACT: note_on channel=9 note=36 velocity=126 time=0
EXTRACT: note_on channel=9 note=35 velocity=117 time=0
EXTRACT: note_on channel=9 note=39 velocity=121 time=0
EXTRACT: note_on channel=9 note=40 velocity=117 time=0
EXTRACT: note_on channel=9 note=44 velocity=81 time=0
EXTRACT: note_on channel=9 note=82 velocity=60 time=0
EXTRACT: note_on channel=9 note=82 velocity=0 time=0.001984125
EXTRACT: note_on channel=9 note=35 velocity=0 time=0
EXTRACT: note_on channel=9 note=39 velocity=0 time=0
EXTRACT: note_on channel=9 note=36 velocity=0 time=0
EXTRACT: note_on channel=9 note=44 velocity=0 time=0
EXTRACT: note_on channel=9 note=40 velocity=0 time=0
EXTRACT: note_on channel=9 note=32 velocity=0 time=0.061507875000000004
EXTRACT: note_on channel=9 note=28 velocity=0 time=0.005952375000000001
EXTRACT: note_on channel=9 note=36 velocity=0 time=0.009920625
EXTRACT: note_on channel=9 note=39 velocity=0 time=0.013888875000000002
EXTRACT: note_on channel=9 note=70 velocity=105 time=0.13888875
EXTRACT: note_on channel=9 note=42 velocity=0 time=0.001984125
EXTRACT: note_on channel=1 note=37 velocity=0 time=0
EXTRACT: note_on channel=9 note=70 velocity=0 time=0
EXTRACT: note_on channel=9 note=32 velocity=79 time=0.00396825
EXTRACT: note_on channel=9 note=44 velocity=70 time=0
EXTRACT: note_on channel=9 note=68 velocity=47 time=0
EXTRACT: note_on channel=1 note=30 velocity=81 time=0
EXTRACT: note_on channel=7 note=57 velocity=78 time=0
EXTRACT: note_on channel=7 note=61 velocity=67 time=0
EXTRACT: note_on channel=9 note=42 velocity=75 time=0
EXTRACT: note_on channel=9 note=69 velocity=87 time=0
EXTRACT: note_on channel=9 note=56 velocity=87 time=0
EXTRACT: note_on channel=9 note=56 velocity=0 time=0.001984125
EXTRACT: note_on channel=9 note=69 velocity=0 time=0
EXTRACT: note_on channel=9 note=42 velocity=0 time=0
EXTRACT: note_on channel=9 note=68 velocity=0 time=0.03373012500000001
EXTRACT: note_on channel=5 note=69 velocity=0 time=0.0079365
EXTRACT: note_on channel=5 note=66 velocity=0 time=0.005952375000000001
EXTRACT: note_on channel=5 note=61 velocity=0 time=0.005952375000000001
EXTRACT: note_on channel=9 note=44 velocity=0 time=0.00396825
EXTRACT: note_on channel=9 note=32 velocity=0 time=0
EXTRACT: note_on channel=7 note=57 velocity=0 time=0.00396825
EXTRACT: note_on channel=7 note=61 velocity=0 time=0.001984125
EXTRACT: note_on channel=9 note=56 velocity=0 time=0.015873
EXTRACT: note_on channel=10 note=61 velocity=0 time=0.0079365
EXTRACT: note_on channel=10 note=66 velocity=0 time=0.00396825
EXTRACT: note_on channel=7 note=54 velocity=0 time=0.025793625000000004
EXTRACT: note_on channel=7 note=57 velocity=80 time=0
EXTRACT: note_on channel=7 note=61 velocity=62 time=0
EXTRACT: note_on channel=9 note=62 velocity=64 time=0
EXTRACT: note_on channel=9 note=62 velocity=0 time=0.001984125
EXTRACT: note_on channel=9 note=32 velocity=71 time=0.0079365
EXTRACT: note_on channel=9 note=68 velocity=56 time=0
EXTRACT: note_on channel=10 note=57 velocity=0 time=0.00396825
EXTRACT: note_on channel=9 note=44 velocity=68 time=0.005952375000000001
EXTRACT: note_on channel=9 note=42 velocity=66 time=0.001984125
EXTRACT: note_on channel=9 note=69 velocity=69 time=0
EXTRACT: note_on channel=9 note=69 velocity=0 time=0.001984125
EXTRACT: note_on channel=9 note=42 velocity=0 time=0
EXTRACT: note_on channel=7 note=57 velocity=0 time=0.029761875000000004
EXTRACT: note_on channel=3 note=61 velocity=0 time=0.001984125
EXTRACT: note_on channel=9 note=32 velocity=0 time=0.017857125
EXTRACT: note_on channel=9 note=68 velocity=0 time=0.011904750000000002
EXTRACT: note_on channel=7 note=61 velocity=0 time=0
EXTRACT: note_on channel=9 note=44 velocity=0 time=0.0079365
EXTRACT: note_on channel=1 note=30 velocity=0 time=0.005952375000000001
EXTRACT: note_on channel=10 note=78 velocity=0 time=0.005952375000000001
EXTRACT: note_on channel=9 note=27 velocity=86 time=0.013888875000000002
EXTRACT: note_on channel=9 note=36 velocity=99 time=0
EXTRACT: note_on channel=9 note=42 velocity=92 time=0
EXTRACT: note_on channel=9 note=56 velocity=69 time=0
EXTRACT: note_on channel=1 note=35 velocity=81 time=0
EXTRACT: note_on channel=10 note=59 velocity=68 time=0
EXTRACT: note_on channel=10 note=64 velocity=61 time=0
EXTRACT: note_on channel=10 note=66 velocity=62 time=0
EXTRACT: note_on channel=10 note=71 velocity=70 time=0
EXTRACT: note_on channel=3 note=66 velocity=84 time=0
EXTRACT: note_on channel=5 note=59 velocity=89 time=0
EXTRACT: note_on channel=5 note=64 velocity=87 time=0
EXTRACT: note_on channel=5 note=66 velocity=89 time=0
EXTRACT: note_on channel=7 note=47 velocity=80 time=0
EXTRACT: note_on channel=9 note=36 velocity=126 time=0
EXTRACT: note_on channel=9 note=35 velocity=117 time=0
EXTRACT: note_on channel=9 note=44 velocity=81 time=0
EXTRACT: note_on channel=9 note=60 velocity=69 time=0
EXTRACT: note_on channel=9 note=60 velocity=0 time=0.001984125
EXTRACT: note_on channel=9 note=36 velocity=0 time=0
EXTRACT: note_on channel=9 note=35 velocity=0 time=0
EXTRACT: note_on channel=9 note=44 velocity=0 time=0
EXTRACT: note_on channel=5 note=64 velocity=0 time=0.061507875000000004
EXTRACT: note_on channel=9 note=27 velocity=0 time=0.015873
EXTRACT: note_on channel=9 note=36 velocity=0 time=0.00396825
EXTRACT: note_on channel=5 note=66 velocity=0 time=0.001984125
EXTRACT: note_on channel=3 note=66 velocity=0 time=0.0079365
EXTRACT: note_on channel=5 note=59 velocity=0 time=0.04761900000000001
EXTRACT: note_on channel=9 note=69 velocity=93 time=0
EXTRACT: note_on channel=9 note=69 velocity=0 time=0.001984125
EXTRACT: note_on channel=9 note=42 velocity=0 time=0.09126975000000001
EXTRACT: note_on channel=9 note=27 velocity=85 time=0.00396825
EXTRACT: note_on channel=9 note=44 velocity=64 time=0
EXTRACT: note_on channel=9 note=67 velocity=36 time=0
EXTRACT: note_on channel=3 note=66 velocity=83 time=0
EXTRACT: note_on channel=7 note=52 velocity=89 time=0
EXTRACT: note_on channel=7 note=59 velocity=73 time=0
EXTRACT: note_on channel=9 note=42 velocity=73 time=0
EXTRACT: note_on channel=9 note=62 velocity=59 time=0
EXTRACT: note_on channel=9 note=70 velocity=105 time=0
EXTRACT: note_on channel=9 note=70 velocity=0 time=0.001984125
EXTRACT: note_on channel=9 note=62 velocity=0 time=0
EXTRACT: note_on channel=9 note=42 velocity=0 time=0
EXTRACT: note_on channel=7 note=59 velocity=0 time=0.027777750000000004
EXTRACT: note_on channel=7 note=52 velocity=0 time=0
EXTRACT: note_on channel=9 note=67 velocity=0 time=0.011904750000000002
EXTRACT: note_on channel=9 note=44 velocity=0 time=0.001984125
EXTRACT: note_on channel=9 note=56 velocity=0 time=0.01984125
EXTRACT: note_on channel=9 note=27 velocity=0 time=0.011904750000000002
EXTRACT: note_on channel=3 note=66 velocity=0 time=0.009920625
EXTRACT: note_on channel=7 note=47 velocity=0 time=0.01984125
EXTRACT: note_on channel=7 note=52 velocity=99 time=0.013888875000000002
EXTRACT: note_on channel=7 note=59 velocity=78 time=0
EXTRACT: note_on channel=9 note=60 velocity=63 time=0
EXTRACT: note_on channel=9 note=60 velocity=0 time=0.001984125
EXTRACT: note_on channel=9 note=67 velocity=51 time=0.0079365
EXTRACT: note_on channel=5 note=59 velocity=86 time=0
EXTRACT: note_on channel=5 note=64 velocity=94 time=0
EXTRACT: note_on channel=5 note=66 velocity=88 time=0
EXTRACT: note_on channel=9 note=44 velocity=75 time=0.009920625
EXTRACT: note_on channel=9 note=42 velocity=66 time=0.001984125
EXTRACT: note_on channel=9 note=69 velocity=61 time=0
EXTRACT: note_on channel=9 note=69 velocity=0 time=0.001984125
EXTRACT: note_on channel=9 note=42 velocity=0 time=0
EXTRACT: note_on channel=7 note=52 velocity=0 time=0.029761875000000004
EXTRACT: note_on channel=5 note=64 velocity=0 time=0.017857125
EXTRACT: note_on channel=9 note=67 velocity=0 time=0.011904750000000002
EXTRACT: note_on channel=7 note=59 velocity=0 time=0.001984125
EXTRACT: note_on channel=5 note=66 velocity=0 time=0.00396825
EXTRACT: note_on channel=9 note=44 velocity=0 time=0.005952375000000001
EXTRACT: note_on channel=9 note=28 velocity=82 time=0.023809500000000004
EXTRACT: note_on channel=9 note=32 velocity=83 time=0
EXTRACT: note_on channel=9 note=36 velocity=101 time=0
EXTRACT: note_on channel=9 note=39 velocity=104 time=0
EXTRACT: note_on channel=9 note=42 velocity=94 time=0
EXTRACT: note_on channel=9 note=56 velocity=73 time=0
EXTRACT: note_on channel=3 note=66 velocity=83 time=0
EXTRACT: note_on channel=7 note=47 velocity=83 time=0
EXTRACT: note_on channel=9 note=40 velocity=117 time=0
EXTRACT: note_on channel=9 note=36 velocity=126 time=0
EXTRACT: note_on channel=9 note=35 velocity=117 time=0
EXTRACT: note_on channel=9 note=39 velocity=121 time=0
EXTRACT: note_on channel=9 note=44 velocity=81 time=0
EXTRACT: note_on channel=9 note=69 velocity=78 time=0
EXTRACT: note_on channel=9 note=69 velocity=0 time=0.001984125
EXTRACT: note_on channel=9 note=36 velocity=0 time=0
EXTRACT: note_on channel=9 note=35 velocity=0 time=0
EXTRACT: note_on channel=9 note=40 velocity=0 time=0
EXTRACT: note_on channel=9 note=44 velocity=0 time=0
EXTRACT: note_on channel=9 note=39 velocity=0 time=0
EXTRACT: note_on channel=5 note=59 velocity=0 time=0.037698375000000006
EXTRACT: note_on channel=9 note=32 velocity=0 time=0.031746
EXTRACT: note_on channel=9 note=28 velocity=0 time=0.00396825
EXTRACT: note_on channel=9 note=36 velocity=0 time=0.00396825
EXTRACT: note_on channel=9 note=61 velocity=73 time=0.0396825
EXTRACT: note_on channel=9 note=61 velocity=0 time=0.001984125
EXTRACT: note_on channel=9 note=39 velocity=0 time=0.031746
EXTRACT: note_on channel=1 note=35 velocity=0 time=0.0396825
EXTRACT: note_on channel=9 note=42 velocity=0 time=0.041666625000000006
EXTRACT: note_on channel=3 note=66 velocity=0 time=0
EXTRACT: note_on channel=9 note=32 velocity=78 time=0.00396825
EXTRACT: note_on channel=9 note=44 velocity=77 time=0
EXTRACT: note_on channel=9 note=68 velocity=48 time=0
EXTRACT: note_on channel=1 note=35 velocity=92 time=0
EXTRACT: note_on channel=3 note=64 velocity=73 time=0
EXTRACT: note_on channel=5 note=59 velocity=91 time=0
EXTRACT: note_on channel=5 note=64 velocity=91 time=0
EXTRACT: note_on channel=5 note=66 velocity=89 time=0
EXTRACT: note_on channel=7 note=52 velocity=99 time=0
EXTRACT: note_on channel=7 note=59 velocity=83 time=0
EXTRACT: note_on channel=9 note=42 velocity=73 time=0
EXTRACT: note_on channel=9 note=60 velocity=66 time=0
EXTRACT: note_on channel=9 note=60 velocity=0 time=0.001984125
EXTRACT: note_on channel=9 note=42 velocity=0 time=0
EXTRACT: note_on channel=9 note=70 velocity=105 time=0
EXTRACT: note_on channel=9 note=70 velocity=0 time=0.001984125
EXTRACT: note_on channel=9 note=68 velocity=0 time=0.029761875000000004
EXTRACT: note_on channel=9 note=56 velocity=0 time=0.009920625
EXTRACT: note_on channel=9 note=44 velocity=0 time=0.009920625
EXTRACT: note_on channel=7 note=52 velocity=0 time=0
EXTRACT: note_on channel=5 note=64 velocity=0 time=0.001984125
EXTRACT: note_on channel=7 note=59 velocity=0 time=0.0079365
EXTRACT: note_on channel=9 note=32 velocity=0 time=0.001984125
EXTRACT: note_on channel=5 note=66 velocity=0 time=0.013888875000000002
EXTRACT: note_on channel=5 note=59 velocity=0 time=0.011904750000000002
EXTRACT: note_on channel=10 note=64 velocity=0 time=0.0079365
EXTRACT: note_on channel=10 note=66 velocity=0 time=0.011904750000000002
EXTRACT: note_on channel=7 note=52 velocity=89 time=0.0079365
EXTRACT: note_on channel=7 note=59 velocity=74 time=0
EXTRACT: note_on channel=9 note=62 velocity=69 time=0
EXTRACT: note_on channel=3 note=64 velocity=0 time=0.001984125
EXTRACT: note_on channel=9 note=62 velocity=0 time=0
EXTRACT: note_on channel=9 note=32 velocity=55 time=0.0079365
EXTRACT: note_on channel=9 note=68 velocity=57 time=0
EXTRACT: note_on channel=9 note=44 velocity=74 time=0.009920625
EXTRACT: note_on channel=9 note=42 velocity=66 time=0.001984125
EXTRACT: note_on channel=9 note=42 velocity=0 time=0.001984125
EXTRACT: note_on channel=10 note=59 velocity=0 time=0.005952375000000001
EXTRACT: note_on channel=7 note=47 velocity=0 time=0.00396825
EXTRACT: note_on channel=7 note=52 velocity=0 time=0.021825375
EXTRACT: note_on channel=9 note=32 velocity=0 time=0.0079365
EXTRACT: note_on channel=9 note=68 velocity=0 time=0.015873
EXTRACT: note_on channel=7 note=59 velocity=0 time=0.005952375000000001
EXTRACT: note_on channel=9 note=44 velocity=0 time=0.005952375000000001
EXTRACT: note_on channel=9 note=27 velocity=87 time=0.027777750000000004
EXTRACT: note_on channel=9 note=36 velocity=103 time=0
EXTRACT: note_on channel=9 note=42 velocity=99 time=0
EXTRACT: note_on channel=9 note=56 velocity=72 time=0
EXTRACT: note_on channel=10 note=59 velocity=63 time=0
EXTRACT: note_on channel=10 note=63 velocity=65 time=0
EXTRACT: note_on channel=10 note=66 velocity=59 time=0
EXTRACT: note_on channel=3 note=68 velocity=85 time=0
EXTRACT: note_on channel=7 note=47 velocity=84 time=0
EXTRACT: note_on channel=9 note=36 velocity=126 time=0
EXTRACT: note_on channel=9 note=35 velocity=117 time=0
EXTRACT: note_on channel=9 note=44 velocity=81 time=0
EXTRACT: note_on channel=9 note=82 velocity=69 time=0
EXTRACT: note_on channel=9 note=56 velocity=87 time=0
EXTRACT: note_on channel=9 note=60 velocity=63 time=0
EXTRACT: note_on channel=9 note=60 velocity=0 time=0.001984125
EXTRACT: note_on channel=9 note=35 velocity=0 time=0
EXTRACT: note_on channel=9 note=44 velocity=0 time=0
EXTRACT: note_on channel=9 note=36 velocity=0 time=0
EXTRACT: note_on channel=9 note=56 velocity=0 time=0
EXTRACT: note_on channel=9 note=82 velocity=0 time=0
EXTRACT: note_on channel=9 note=36 velocity=0 time=0.077380875
EXTRACT: note_on channel=9 note=27 velocity=0 time=0.005952375000000001
EXTRACT: note_on channel=5 note=59 velocity=85 time=0.04365075
EXTRACT: note_on channel=5 note=63 velocity=91 time=0
EXTRACT: note_on channel=5 note=66 velocity=90 time=0
EXTRACT: note_on channel=9 note=82 velocity=43 time=0.011904750000000002
EXTRACT: note_on channel=9 note=82 velocity=0 time=0.001984125
EXTRACT: note_on channel=1 note=35 velocity=0 time=0.01984125
EXTRACT: note_on channel=5 note=63 velocity=0 time=0.037698375000000006
EXTRACT: note_on channel=5 note=66 velocity=0 time=0.001984125
EXTRACT: note_on channel=5 note=59 velocity=0 time=0.027777750000000004
EXTRACT: note_on channel=9 note=70 velocity=105 time=0
EXTRACT: note_on channel=9 note=70 velocity=0 time=0.001984125
EXTRACT: note_on channel=9 note=42 velocity=0 time=0.001984125
EXTRACT: note_on channel=9 note=27 velocity=86 time=0.00396825
EXTRACT: note_on channel=9 note=44 velocity=78 time=0
EXTRACT: note_on channel=9 note=66 velocity=75 time=0
EXTRACT: note_on channel=9 note=67 velocity=53 time=0
EXTRACT: note_on channel=1 note=35 velocity=82 time=0
EXTRACT: note_on channel=7 note=54 velocity=83 time=0
EXTRACT: note_on channel=7 note=59 velocity=79 time=0
EXTRACT: note_on channel=9 note=42 velocity=73 time=0
EXTRACT: note_on channel=9 note=82 velocity=48 time=0
EXTRACT: note_on channel=9 note=82 velocity=0 time=0.001984125
EXTRACT: note_on channel=9 note=42 velocity=0 time=0
EXTRACT: note_on channel=9 note=67 velocity=0 time=0.037698375000000006
EXTRACT: note_on channel=9 note=44 velocity=0 time=0.013888875000000002
EXTRACT: note_on channel=7 note=59 velocity=0 time=0.011904750000000002
EXTRACT: note_on channel=7 note=54 velocity=0 time=0.0079365
EXTRACT: note_on channel=9 note=66 velocity=0 time=0.001984125
EXTRACT: note_on channel=9 note=56 velocity=0 time=0.005952375000000001
EXTRACT: note_on channel=9 note=27 velocity=0 time=0.001984125
EXTRACT: note_on channel=7 note=47 velocity=0 time=0.029761875000000004
EXTRACT: note_on channel=7 note=54 velocity=83 time=0.005952375000000001
EXTRACT: note_on channel=7 note=59 velocity=82 time=0
EXTRACT: note_on channel=9 note=56 velocity=87 time=0
EXTRACT: note_on channel=9 note=56 velocity=0 time=0.001984125
EXTRACT: note_on channel=9 note=67 velocity=45 time=0.0079365
EXTRACT: note_on channel=9 note=44 velocity=75 time=0.009920625
EXTRACT: note_on channel=9 note=42 velocity=66 time=0.001984125
EXTRACT: note_on channel=9 note=82 velocity=40 time=0
EXTRACT: note_on channel=9 note=82 velocity=0 time=0.001984125
EXTRACT: note_on channel=9 note=42 velocity=0 time=0
EXTRACT: note_on channel=9 note=44 velocity=0 time=0.061507875000000004
EXTRACT: note_on channel=9 note=67 velocity=0 time=0
EXTRACT: note_on channel=7 note=54 velocity=0 time=0.013888875000000002
EXTRACT: note_on channel=7 note=59 velocity=0 time=0.005952375000000001
EXTRACT: note_on channel=1 note=35 velocity=0 time=0.009920625
EXTRACT: note_on channel=3 note=68 velocity=0 time=0
EXTRACT: note_on channel=9 note=28 velocity=85 time=0.00396825
EXTRACT: note_on channel=9 note=32 velocity=87 time=0
EXTRACT: note_on channel=9 note=36 velocity=103 time=0
EXTRACT: note_on channel=9 note=39 velocity=104 time=0
EXTRACT: note_on channel=9 note=42 velocity=99 time=0
EXTRACT: note_on channel=9 note=56 velocity=75 time=0
EXTRACT: note_on channel=9 note=65 velocity=73 time=0
EXTRACT: note_on channel=1 note=30 velocity=83 time=0
EXTRACT: note_on channel=3 note=66 velocity=84 time=0
EXTRACT: note_on channel=5 note=59 velocity=89 time=0
EXTRACT: note_on channel=5 note=63 velocity=94 time=0
EXTRACT: note_on channel=5 note=66 velocity=91 time=0
EXTRACT: note_on channel=7 note=47 velocity=81 time=0
EXTRACT: note_on channel=9 note=39 velocity=121 time=0
EXTRACT: note_on channel=9 note=40 velocity=117 time=0
EXTRACT: note_on channel=9 note=36 velocity=126 time=0
EXTRACT: note_on channel=9 note=35 velocity=117 time=0
EXTRACT: note_on channel=9 note=44 velocity=81 time=0
EXTRACT: note_on channel=9 note=82 velocity=69 time=0
EXTRACT: note_on channel=9 note=82 velocity=0 time=0.001984125
EXTRACT: note_on channel=9 note=40 velocity=0 time=0
EXTRACT: note_on channel=9 note=36 velocity=0 time=0
EXTRACT: note_on channel=9 note=39 velocity=0 time=0
EXTRACT: note_on channel=9 note=44 velocity=0 time=0
EXTRACT: note_on channel=9 note=35 velocity=0 time=0
EXTRACT: note_on channel=9 note=65 velocity=0 time=0.03373012500000001
EXTRACT: note_on channel=9 note=32 velocity=0 time=0.029761875000000004
EXTRACT: note_on channel=9 note=28 velocity=0 time=0.0079365
EXTRACT: note_on channel=9 note=36 velocity=0 time=0.001984125
EXTRACT: note_on channel=9 note=39 velocity=0 time=0.0079365
EXTRACT: note_on channel=10 note=71 velocity=0 time=0.105158625
EXTRACT: note_on channel=9 note=42 velocity=0 time=0.025793625000000004
EXTRACT: note_on channel=9 note=70 velocity=105 time=0.017857125
EXTRACT: note_on channel=1 note=30 velocity=0 time=0.001984125
EXTRACT: note_on channel=9 note=70 velocity=0 time=0
EXTRACT: note_on channel=9 note=32 velocity=74 time=0.00396825
EXTRACT: note_on channel=9 note=44 velocity=81 time=0
EXTRACT: note_on channel=9 note=65 velocity=68 time=0
EXTRACT: note_on channel=9 note=68 velocity=53 time=0
EXTRACT: note_on channel=1 note=35 velocity=81 time=0
EXTRACT: note_on channel=7 note=54 velocity=79 time=0
EXTRACT: note_on channel=7 note=59 velocity=76 time=0
EXTRACT: note_on channel=9 note=42 velocity=73 time=0
EXTRACT: note_on channel=9 note=69 velocity=78 time=0
EXTRACT: note_on channel=9 note=56 velocity=87 time=0
EXTRACT: note_on channel=9 note=56 velocity=0 time=0.001984125
EXTRACT: note_on channel=9 note=69 velocity=0 time=0
EXTRACT: note_on channel=9 note=42 velocity=0 time=0
EXTRACT: note_on channel=9 note=65 velocity=0 time=0.027777750000000004
EXTRACT: note_on channel=9 note=68 velocity=0 time=0.01984125
EXTRACT: note_on channel=9 note=44 velocity=0 time=0.005952375000000001
EXTRACT: note_on channel=9 note=32 velocity=0 time=0.00396825
EXTRACT: note_on channel=7 note=59 velocity=0 time=0.00396825
EXTRACT: note_on channel=7 note=54 velocity=0 time=0.001984125
EXTRACT: note_on channel=10 note=63 velocity=0 time=0.015873
EXTRACT: note_on channel=5 note=63 velocity=0 time=0
EXTRACT: note_on channel=5 note=66 velocity=0 time=0.009920625
EXTRACT: note_on channel=9 note=56 velocity=0 time=0.0079365
EXTRACT: note_on channel=5 note=59 velocity=0 time=0.015873
EXTRACT: note_on channel=7 note=54 velocity=84 time=0.00396825
EXTRACT: note_on channel=7 note=59 velocity=62 time=0
EXTRACT: note_on channel=9 note=32 velocity=69 time=0.009920625
EXTRACT: note_on channel=9 note=65 velocity=70 time=0
EXTRACT: note_on channel=9 note=68 velocity=52 time=0
EXTRACT: note_on channel=10 note=66 velocity=0 time=0.001984125
EXTRACT: note_on channel=10 note=59 velocity=0 time=0.001984125
EXTRACT: note_on channel=9 note=44 velocity=62 time=0.005952375000000001
EXTRACT: note_on channel=9 note=42 velocity=66 time=0.001984125
EXTRACT: note_on channel=9 note=69 velocity=73 time=0
EXTRACT: note_on channel=9 note=69 velocity=0 time=0.001984125
EXTRACT: note_on channel=9 note=42 velocity=0 time=0
EXTRACT: note_on channel=1 note=35 velocity=0 time=0.001984125
EXTRACT: note_on channel=7 note=47 velocity=0 time=0.029761875000000004
EXTRACT: note_on channel=9 note=65 velocity=0 time=0.005952375000000001
EXTRACT: note_on channel=9 note=68 velocity=0 time=0.011904750000000002
EXTRACT: note_on channel=9 note=32 velocity=0 time=0.001984125
EXTRACT: note_on channel=7 note=59 velocity=0 time=0.00396825
EXTRACT: note_on channel=7 note=54 velocity=0 time=0
EXTRACT: note_on channel=9 note=44 velocity=0 time=0.005952375000000001
EXTRACT: note_on channel=3 note=66 velocity=0 time=0.029761875000000004
EXTRACT: note_on channel=9 note=27 velocity=94 time=0.00396825
EXTRACT: note_on channel=9 note=36 velocity=105 time=0
EXTRACT: note_on channel=9 note=42 velocity=103 time=0
EXTRACT: note_on channel=9 note=44 velocity=107 time=0
EXTRACT: note_on channel=9 note=49 velocity=88 time=0
EXTRACT: note_on channel=9 note=56 velocity=82 time=0
EXTRACT: note_on channel=9 note=57 velocity=74 time=0
EXTRACT: note_on channel=1 note=37 velocity=84 time=0
EXTRACT: note_on channel=10 note=56 velocity=55 time=0
EXTRACT: note_on channel=10 note=61 velocity=44 time=0
EXTRACT: note_on channel=10 note=64 velocity=53 time=0
EXTRACT: note_on channel=10 note=85 velocity=57 time=0
EXTRACT: note_on channel=3 note=68 velocity=91 time=0
EXTRACT: note_on channel=5 note=61 velocity=81 time=0
EXTRACT: note_on channel=5 note=64 velocity=87 time=0
EXTRACT: note_on channel=5 note=68 velocity=75 time=0
EXTRACT: note_on channel=7 note=49 velocity=81 time=0
EXTRACT: note_on channel=9 note=36 velocity=126 time=0
EXTRACT: note_on channel=9 note=35 velocity=117 time=0
EXTRACT: note_on channel=9 note=35 velocity=0 time=0.001984125
EXTRACT: note_on channel=9 note=36 velocity=0 time=0
EXTRACT: note_on channel=9 note=44 velocity=0 time=0.061507875000000004
EXTRACT: note_on channel=5 note=64 velocity=0 time=0
EXTRACT: note_on channel=9 note=27 velocity=0 time=0.001984125
EXTRACT: note_on channel=9 note=36 velocity=0 time=0.0079365
EXTRACT: note_on channel=5 note=68 velocity=0 time=0.001984125
EXTRACT: note_on channel=9 note=49 velocity=0 time=0.009920625
EXTRACT: note_on channel=5 note=61 velocity=0 time=0
EXTRACT: note_on channel=9 note=57 velocity=0 time=0.009920625
EXTRACT: note_on channel=1 note=37 velocity=0 time=0.0396825
EXTRACT: note_on channel=9 note=69 velocity=84 time=0.005952375000000001
EXTRACT: note_on channel=9 note=69 velocity=0 time=0.001984125
EXTRACT: note_on channel=9 note=42 velocity=0 time=0.01984125
EXTRACT: note_on channel=7 note=49 velocity=0 time=0.03571425
EXTRACT: note_on channel=3 note=68 velocity=0 time=0.03571425
EXTRACT: note_on channel=9 note=70 velocity=105 time=0
EXTRACT: note_on channel=9 note=27 velocity=79 time=0.00396825
EXTRACT: note_on channel=9 note=44 velocity=51 time=0
EXTRACT: note_on channel=9 note=67 velocity=35 time=0
EXTRACT: note_on channel=1 note=37 velocity=81 time=0
EXTRACT: note_on channel=3 note=64 velocity=81 time=0
EXTRACT: note_on channel=7 note=56 velocity=74 time=0
EXTRACT: note_on channel=7 note=61 velocity=62 time=0
EXTRACT: note_on channel=9 note=70 velocity=0 time=0
EXTRACT: note_on channel=9 note=42 velocity=73 time=0
EXTRACT: note_on channel=9 note=62 velocity=79 time=0
EXTRACT: note_on channel=9 note=62 velocity=0 time=0.001984125
EXTRACT: note_on channel=9 note=42 velocity=0 time=0
EXTRACT: note_on channel=9 note=44 velocity=0 time=0.027777750000000004
EXTRACT: note_on channel=9 note=56 velocity=0 time=0.005952375000000001
EXTRACT: note_on channel=9 note=67 velocity=0 time=0.005952375000000001
EXTRACT: note_on channel=7 note=61 velocity=0 time=0.01984125
EXTRACT: note_on channel=7 note=56 velocity=0 time=0
EXTRACT: note_on channel=9 note=27 velocity=0 time=0.009920625
EXTRACT: note_on channel=7 note=56 velocity=82 time=0.04761900000000001
EXTRACT: note_on channel=7 note=61 velocity=71 time=0
EXTRACT: note_on channel=9 note=61 velocity=69 time=0
EXTRACT: note_on channel=9 note=61 velocity=0 time=0.001984125
EXTRACT: note_on channel=9 note=32 velocity=71 time=0.0079365
EXTRACT: note_on channel=9 note=44 velocity=66 time=0
EXTRACT: note_on channel=9 note=67 velocity=43 time=0
EXTRACT: note_on channel=5 note=61 velocity=76 time=0
EXTRACT: note_on channel=5 note=64 velocity=86 time=0
EXTRACT: note_on channel=5 note=68 velocity=77 time=0
EXTRACT: note_on channel=9 note=42 velocity=66 time=0.011904750000000002
EXTRACT: note_on channel=9 note=69 velocity=68 time=0
EXTRACT: note_on channel=9 note=69 velocity=0 time=0.001984125
EXTRACT: note_on channel=9 note=42 velocity=0 time=0
EXTRACT: note_on channel=7 note=61 velocity=0 time=0.037698375000000006
EXTRACT: note_on channel=9 note=44 velocity=0 time=0.001984125
EXTRACT: note_on channel=7 note=56 velocity=0 time=0.001984125
EXTRACT: note_on channel=9 note=67 velocity=0 time=0.015873
EXTRACT: note_on channel=3 note=64 velocity=0 time=0.0079365
EXTRACT: note_on channel=5 note=64 velocity=0 time=0.001984125
EXTRACT: note_on channel=9 note=32 velocity=0 time=0.00396825
EXTRACT: note_on channel=1 note=37 velocity=0 time=0.01984125
EXTRACT: note_on channel=9 note=28 velocity=74 time=0.00396825
EXTRACT: note_on channel=9 note=36 velocity=103 time=0
EXTRACT: note_on channel=9 note=39 velocity=104 time=0
EXTRACT: note_on channel=9 note=42 velocity=74 time=0
EXTRACT: note_on channel=9 note=56 velocity=77 time=0
EXTRACT: note_on channel=1 note=40 velocity=85 time=0
EXTRACT: note_on channel=3 note=68 velocity=79 time=0
EXTRACT: note_on channel=7 note=49 velocity=78 time=0
EXTRACT: note_on channel=9 note=39 velocity=121 time=0
EXTRACT: note_on channel=9 note=36 velocity=126 time=0
EXTRACT: note_on channel=9 note=35 velocity=117 time=0
EXTRACT: note_on channel=9 note=40 velocity=117 time=0
EXTRACT: note_on channel=9 note=44 velocity=81 time=0
EXTRACT: note_on channel=9 note=44 velocity=0 time=0.001984125
EXTRACT: note_on channel=9 note=35 velocity=0 time=0
EXTRACT: note_on channel=9 note=39 velocity=0 time=0
EXTRACT: note_on channel=9 note=36 velocity=0 time=0
EXTRACT: note_on channel=9 note=40 velocity=0 time=0
EXTRACT: note_on channel=5 note=68 velocity=0 time=0.017857125
EXTRACT: note_on channel=5 note=61 velocity=0 time=0.00396825
EXTRACT: note_on channel=9 note=39 velocity=0 time=0.037698375000000006
EXTRACT: note_on channel=9 note=42 velocity=0 time=0.00396825
EXTRACT: note_on channel=9 note=36 velocity=0 time=0.0079365
EXTRACT: note_on channel=9 note=28 velocity=0 time=0.017857125
EXTRACT: note_on channel=9 note=62 velocity=73 time=0.027777750000000004
EXTRACT: note_on channel=9 note=62 velocity=0 time=0.001984125
EXTRACT: note_on channel=9 note=32 velocity=59 time=0.0079365
EXTRACT: note_on channel=7 note=49 velocity=0 time=0.029761875000000004
EXTRACT: note_on channel=9 note=32 velocity=0 time=0.023809500000000004
EXTRACT: note_on channel=1 note=40 velocity=0 time=0.031746
EXTRACT: note_on channel=3 note=68 velocity=0 time=0.017857125
EXTRACT: note_on channel=9 note=32 velocity=63 time=0.005952375000000001
EXTRACT: note_on channel=9 note=44 velocity=53 time=0
EXTRACT: note_on channel=9 note=68 velocity=59 time=0
EXTRACT: note_on channel=1 note=44 velocity=91 time=0
EXTRACT: note_on channel=3 note=73 velocity=77 time=0
EXTRACT: note_on channel=5 note=61 velocity=84 time=0
EXTRACT: note_on channel=5 note=64 velocity=85 time=0
EXTRACT: note_on channel=5 note=68 velocity=86 time=0
EXTRACT: note_on channel=7 note=56 velocity=74 time=0
EXTRACT: note_on channel=7 note=61 velocity=57 time=0
EXTRACT: note_on channel=9 note=42 velocity=73 time=0
EXTRACT: note_on channel=9 note=61 velocity=66 time=0
EXTRACT: note_on channel=9 note=61 velocity=0 time=0.001984125
EXTRACT: note_on channel=9 note=42 velocity=0 time=0
EXTRACT: note_on channel=9 note=70 velocity=105 time=0.001984125
EXTRACT: note_on channel=9 note=70 velocity=0 time=0.001984125
EXTRACT: note_on channel=9 note=44 velocity=0 time=0.03373012500000001
EXTRACT: note_on channel=9 note=56 velocity=0 time=0.001984125
EXTRACT: note_on channel=7 note=61 velocity=0 time=0.013888875000000002
EXTRACT: note_on channel=9 note=68 velocity=0 time=0.005952375000000001
EXTRACT: note_on channel=5 note=64 velocity=0 time=0.001984125
EXTRACT: note_on channel=7 note=56 velocity=0 time=0.001984125
EXTRACT: note_on channel=9 note=32 velocity=0 time=0.005952375000000001
EXTRACT: note_on channel=5 note=61 velocity=0 time=0.029761875000000004
EXTRACT: note_on channel=5 note=68 velocity=0 time=0.0079365
EXTRACT: note_on channel=10 note=64 velocity=0 time=0.005952375000000001
EXTRACT: note_on channel=7 note=56 velocity=81 time=0.00396825
EXTRACT: note_on channel=7 note=61 velocity=68 time=0
EXTRACT: note_on channel=10 note=61 velocity=0 time=0.001984125
EXTRACT: note_on channel=9 note=32 velocity=62 time=0.0079365
EXTRACT: note_on channel=9 note=44 velocity=60 time=0
EXTRACT: note_on channel=9 note=68 velocity=36 time=0
EXTRACT: note_on channel=1 note=44 velocity=0 time=0.005952375000000001
EXTRACT: note_on channel=9 note=42 velocity=66 time=0.005952375000000001
EXTRACT: note_on channel=9 note=82 velocity=48 time=0
EXTRACT: note_on channel=9 note=82 velocity=0 time=0.001984125
EXTRACT: note_on channel=9 note=42 velocity=0 time=0
EXTRACT: note_on channel=9 note=68 velocity=0 time=0.045634875000000005
EXTRACT: note_on channel=10 note=56 velocity=0 time=0
EXTRACT: note_on channel=7 note=61 velocity=0 time=0
EXTRACT: note_on channel=9 note=44 velocity=0 time=0.001984125
EXTRACT: note_on channel=7 note=56 velocity=0 time=0
EXTRACT: note_on channel=9 note=32 velocity=0 time=0.011904750000000002
EXTRACT: note_on channel=3 note=73 velocity=0 time=0.031746
EXTRACT: note_on channel=9 note=27 velocity=88 time=0.00396825
EXTRACT: note_on channel=9 note=36 velocity=99 time=0
EXTRACT: note_on channel=9 note=42 velocity=93 time=0
EXTRACT: note_on channel=9 note=44 velocity=90 time=0
EXTRACT: note_on channel=9 note=56 velocity=73 time=0
EXTRACT: note_on channel=10 note=57 velocity=58 time=0
EXTRACT: note_on channel=10 note=61 velocity=58 time=0
EXTRACT: note_on channel=10 note=66 velocity=49 time=0
EXTRACT: note_on channel=10 note=81 velocity=61 time=0
EXTRACT: note_on channel=3 note=69 velocity=87 time=0
EXTRACT: note_on channel=7 note=54 velocity=83 time=0
EXTRACT: note_on channel=9 note=36 velocity=126 time=0
EXTRACT: note_on channel=9 note=35 velocity=117 time=0
EXTRACT: note_on channel=9 note=44 velocity=81 time=0
EXTRACT: note_on channel=9 note=82 velocity=55 time=0
EXTRACT: note_on channel=9 note=56 velocity=80 time=0
EXTRACT: note_on channel=9 note=56 velocity=0 time=0.001984125
EXTRACT: note_on channel=9 note=44 velocity=0 time=0
EXTRACT: note_on channel=9 note=36 velocity=0 time=0
EXTRACT: note_on channel=9 note=35 velocity=0 time=0
EXTRACT: note_on channel=9 note=82 velocity=0 time=0
EXTRACT: note_on channel=10 note=85 velocity=0 time=0.037698375000000006
EXTRACT: note_on channel=9 note=44 velocity=0 time=0.025793625000000004
EXTRACT: note_on channel=9 note=27 velocity=0 time=0.0079365
EXTRACT: note_on channel=9 note=36 velocity=0 time=0.01984125
EXTRACT: note_on channel=9 note=27 velocity=64 time=0.03571425
EXTRACT: note_on channel=5 note=61 velocity=84 time=0
EXTRACT: note_on channel=5 note=66 velocity=86 time=0
EXTRACT: note_on channel=5 note=69 velocity=97 time=0
EXTRACT: note_on channel=9 note=82 velocity=63 time=0.011904750000000002
EXTRACT: note_on channel=9 note=82 velocity=0 time=0.001984125
EXTRACT: note_on channel=9 note=42 velocity=0 time=0.005952375000000001
EXTRACT: note_on channel=9 note=27 velocity=0 time=0.041666625000000006
EXTRACT: note_on channel=5 note=69 velocity=0 time=0.0079365
EXTRACT: note_on channel=7 note=54 velocity=0 time=0
EXTRACT: note_on channel=5 note=66 velocity=0 time=0.00396825
EXTRACT: note_on channel=5 note=61 velocity=0 time=0.0079365
EXTRACT: note_on channel=9 note=27 velocity=69 time=0.027777750000000004
EXTRACT: note_on channel=9 note=44 velocity=53 time=0
EXTRACT: note_on channel=9 note=67 velocity=44 time=0
EXTRACT: note_on channel=1 note=30 velocity=88 time=0
EXTRACT: note_on channel=7 note=57 velocity=64 time=0
EXTRACT: note_on channel=7 note=61 velocity=49 time=0
EXTRACT: note_on channel=9 note=42 velocity=73 time=0
EXTRACT: note_on channel=9 note=82 velocity=59 time=0
EXTRACT: note_on channel=9 note=63 velocity=60 time=0
EXTRACT: note_on channel=9 note=63 velocity=0 time=0.001984125
EXTRACT: note_on channel=9 note=82 velocity=0 time=0
EXTRACT: note_on channel=9 note=42 velocity=0 time=0
EXTRACT: note_on channel=9 note=70 velocity=105 time=0.001984125
EXTRACT: note_on channel=9 note=70 velocity=0 time=0.001984125
EXTRACT: note_on channel=9 note=56 velocity=0 time=0.023809500000000004
EXTRACT: note_on channel=7 note=61 velocity=0 time=0.00396825
EXTRACT: note_on channel=7 note=57 velocity=0 time=0
EXTRACT: note_on channel=9 note=44 velocity=0 time=0.001984125
EXTRACT: note_on channel=9 note=67 velocity=0 time=0.005952375000000001
EXTRACT: note_on channel=9 note=27 velocity=0 time=0.037698375000000006
EXTRACT: note_on channel=7 note=57 velocity=71 time=0.0396825
EXTRACT: note_on channel=7 note=61 velocity=56 time=0
EXTRACT: note_on channel=9 note=56 velocity=89 time=0
EXTRACT: note_on channel=9 note=56 velocity=0 time=0.001984125
EXTRACT: note_on channel=9 note=44 velocity=35 time=0.0079365
EXTRACT: note_on channel=9 note=67 velocity=27 time=0
EXTRACT: note_on channel=9 note=42 velocity=66 time=0.011904750000000002
EXTRACT: note_on channel=9 note=82 velocity=45 time=0
EXTRACT: note_on channel=9 note=82 velocity=0 time=0.001984125
EXTRACT: note_on channel=9 note=42 velocity=0 time=0
EXTRACT: note_on channel=9 note=44 velocity=0 time=0.027777750000000004
EXTRACT: note_on channel=9 note=67 velocity=0 time=0.001984125
EXTRACT: note_on channel=7 note=57 velocity=0 time=0.015873
EXTRACT: note_on channel=7 note=61 velocity=0 time=0.00396825
EXTRACT: note_on channel=3 note=69 velocity=0 time=0.001984125
EXTRACT: note_on channel=1 note=30 velocity=0 time=0.0396825
EXTRACT: note_on channel=9 note=28 velocity=79 time=0.00396825
EXTRACT: note_on channel=9 note=32 velocity=78 time=0
EXTRACT: note_on channel=9 note=36 velocity=103 time=0
EXTRACT: note_on channel=9 note=39 velocity=99 time=0
EXTRACT: note_on channel=9 note=42 velocity=64 time=0
EXTRACT: note_on channel=9 note=56 velocity=76 time=0
EXTRACT: note_on channel=1 note=37 velocity=84 time=0
EXTRACT: note_on channel=5 note=61 velocity=82 time=0
EXTRACT: note_on channel=5 note=66 velocity=78 time=0
EXTRACT: note_on channel=5 note=69 velocity=96 time=0
EXTRACT: note_on channel=7 note=54 velocity=85 time=0
EXTRACT: note_on channel=9 note=36 velocity=126 time=0
EXTRACT: note_on channel=9 note=35 velocity=117 time=0
EXTRACT: note_on channel=9 note=39 velocity=121 time=0
EXTRACT: note_on channel=9 note=40 velocity=117 time=0
EXTRACT: note_on channel=9 note=44 velocity=81 time=0
EXTRACT: note_on channel=9 note=82 velocity=60 time=0
EXTRACT: note_on channel=9 note=82 velocity=0 time=0.001984125
EXTRACT: note_on channel=9 note=35 velocity=0 time=0
EXTRACT: note_on channel=9 note=39 velocity=0 time=0
EXTRACT: note_on channel=9 note=36 velocity=0 time=0
EXTRACT: note_on channel=9 note=44 velocity=0 time=0
EXTRACT: note_on channel=9 note=40 velocity=0 time=0
EXTRACT: note_on channel=9 note=39 velocity=0 time=0.063492
EXTRACT: note_on channel=9 note=28 velocity=0 time=0.00396825
EXTRACT: note_on channel=9 note=32 velocity=0 time=0.009920625
EXTRACT: note_on channel=9 note=42 velocity=0 time=0.001984125
EXTRACT: note_on channel=9 note=36 velocity=0 time=0.10317450000000002
EXTRACT: note_on channel=7 note=54 velocity=0 time=0.01984125
EXTRACT: note_on channel=9 note=70 velocity=105 time=0.027777750000000004
EXTRACT: note_on channel=1 note=37 velocity=0 time=0.001984125
EXTRACT: note_on channel=9 note=70 velocity=0 time=0
EXTRACT: note_on channel=9 note=32 velocity=67 time=0.00396825
EXTRACT: note_on channel=9 note=44 velocity=53 time=0
EXTRACT: note_on channel=9 note=68 velocity=40 time=0
EXTRACT: note_on channel=1 note=30 velocity=81 time=0
EXTRACT: note_on channel=7 note=57 velocity=70 time=0
EXTRACT: note_on channel=7 note=61 velocity=63 time=0
EXTRACT: note_on channel=9 note=42 velocity=75 time=0
EXTRACT: note_on channel=9 note=69 velocity=87 time=0
EXTRACT: note_on channel=9 note=56 velocity=87 time=0
EXTRACT: note_on channel=9 note=56 velocity=0 time=0.001984125
EXTRACT: note_on channel=9 note=69 velocity=0 time=0
EXTRACT: note_on channel=9 note=42 velocity=0 time=0
EXTRACT: note_on channel=9 note=68 velocity=0 time=0.027777750000000004
EXTRACT: note_on channel=7 note=57 velocity=0 time=0.011904750000000002
EXTRACT: note_on channel=9 note=32 velocity=0 time=0.009920625
EXTRACT: note_on channel=9 note=44 velocity=0 time=0.001984125
EXTRACT: note_on channel=7 note=61 velocity=0 time=0.011904750000000002
EXTRACT: note_on channel=9 note=56 velocity=0 time=0.005952375000000001
EXTRACT: note_on channel=5 note=66 velocity=0 time=0.027777750000000004
EXTRACT: note_on channel=5 note=69 velocity=0 time=0.00396825
EXTRACT: note_on channel=10 note=66 velocity=0 time=0.005952375000000001
EXTRACT: note_on channel=10 note=61 velocity=0 time=0.001984125
EXTRACT: note_on channel=7 note=57 velocity=74 time=0.0079365
EXTRACT: note_on channel=7 note=61 velocity=59 time=0
EXTRACT: note_on channel=9 note=62 velocity=64 time=0
EXTRACT: note_on channel=9 note=62 velocity=0 time=0.001984125
EXTRACT: note_on channel=9 note=32 velocity=64 time=0.0079365
EXTRACT: note_on channel=9 note=44 velocity=54 time=0
EXTRACT: note_on channel=9 note=68 velocity=34 time=0
EXTRACT: note_on channel=10 note=57 velocity=0 time=0.011904750000000002
EXTRACT: note_on channel=5 note=61 velocity=0 time=0
EXTRACT: note_on channel=9 note=42 velocity=66 time=0
EXTRACT: note_on channel=9 note=69 velocity=69 time=0
EXTRACT: note_on channel=9 note=69 velocity=0 time=0.001984125
EXTRACT: note_on channel=9 note=42 velocity=0 time=0
EXTRACT: note_on channel=9 note=44 velocity=0 time=0.041666625000000006
EXTRACT: note_on channel=7 note=57 velocity=0 time=0.00396825
EXTRACT: note_on channel=9 note=32 velocity=0 time=0.005952375000000001
EXTRACT: note_on channel=7 note=61 velocity=0 time=0
EXTRACT: note_on channel=9 note=68 velocity=0 time=0.0079365
EXTRACT: note_on channel=10 note=81 velocity=0 time=0.009920625
EXTRACT: note_on channel=1 note=30 velocity=0 time=0.021825375
EXTRACT: note_on channel=9 note=27 velocity=92 time=0.00396825
EXTRACT: note_on channel=9 note=36 velocity=99 time=0
EXTRACT: note_on channel=9 note=42 velocity=90 time=0
EXTRACT: note_on channel=9 note=44 velocity=89 time=0
EXTRACT: note_on channel=9 note=56 velocity=74 time=0
EXTRACT: note_on channel=1 note=35 velocity=88 time=0
EXTRACT: note_on channel=10 note=59 velocity=68 time=0
EXTRACT: note_on channel=10 note=63 velocity=46 time=0
EXTRACT: note_on channel=10 note=66 velocity=61 time=0
EXTRACT: note_on channel=10 note=78 velocity=59 time=0
EXTRACT: note_on channel=3 note=66 velocity=90 time=0
EXTRACT: note_on channel=5 note=59 velocity=83 time=0
EXTRACT: note_on channel=5 note=63 velocity=79 time=0
EXTRACT: note_on channel=5 note=66 velocity=81 time=0
EXTRACT: note_on channel=7 note=51 velocity=94 time=0
EXTRACT: note_on channel=9 note=36 velocity=126 time=0
EXTRACT: note_on channel=9 note=35 velocity=117 time=0
EXTRACT: note_on channel=9 note=44 velocity=81 time=0
EXTRACT: note_on channel=9 note=60 velocity=69 time=0
EXTRACT: note_on channel=9 note=60 velocity=0 time=0.001984125
EXTRACT: note_on channel=9 note=36 velocity=0 time=0
EXTRACT: note_on channel=9 note=35 velocity=0 time=0
EXTRACT: note_on channel=9 note=44 velocity=0 time=0
EXTRACT: note_on channel=5 note=63 velocity=0 time=0.06746025000000001
EXTRACT: note_on channel=9 note=27 velocity=0 time=0.009920625
EXTRACT: note_on channel=5 note=66 velocity=0 time=0
EXTRACT: note_on channel=9 note=44 velocity=0 time=0.001984125
EXTRACT: note_on channel=9 note=36 velocity=0 time=0.01984125
EXTRACT: note_on channel=5 note=59 velocity=0 time=0.011904750000000002
EXTRACT: note_on channel=7 note=51 velocity=0 time=0.015873
EXTRACT: note_on channel=9 note=69 velocity=93 time=0.011904750000000002
EXTRACT: note_on channel=9 note=69 velocity=0 time=0.001984125
EXTRACT: note_on channel=1 note=35 velocity=0 time=0.017857125
EXTRACT: note_on channel=9 note=42 velocity=0 time=0.031746
EXTRACT: note_on channel=3 note=66 velocity=0 time=0.041666625000000006
EXTRACT: note_on channel=9 note=27 velocity=85 time=0.00396825
EXTRACT: note_on channel=9 note=44 velocity=53 time=0
EXTRACT: note_on channel=9 note=67 velocity=38 time=0
EXTRACT: note_on channel=1 note=35 velocity=74 time=0
EXTRACT: note_on channel=3 note=63 velocity=73 time=0
EXTRACT: note_on channel=7 note=54 velocity=69 time=0
EXTRACT: note_on channel=7 note=59 velocity=41 time=0
EXTRACT: note_on channel=9 note=42 velocity=73 time=0
EXTRACT: note_on channel=9 note=62 velocity=59 time=0
EXTRACT: note_on channel=9 note=70 velocity=105 time=0
EXTRACT: note_on channel=9 note=70 velocity=0 time=0.001984125
EXTRACT: note_on channel=9 note=62 velocity=0 time=0
EXTRACT: note_on channel=9 note=42 velocity=0 time=0
EXTRACT: note_on channel=9 note=44 velocity=0 time=0.031746
EXTRACT: note_on channel=9 note=67 velocity=0 time=0.0079365
EXTRACT: note_on channel=7 note=59 velocity=0 time=0
EXTRACT: note_on channel=9 note=56 velocity=0 time=0.013888875000000002
EXTRACT: note_on channel=7 note=54 velocity=0 time=0.009920625
EXTRACT: note_on channel=9 note=27 velocity=0 time=0.00396825
EXTRACT: note_on channel=7 note=54 velocity=73 time=0.049603125000000005
EXTRACT: note_on channel=7 note=59 velocity=65 time=0
EXTRACT: note_on channel=9 note=60 velocity=63 time=0
EXTRACT: note_on channel=9 note=60 velocity=0 time=0.001984125
EXTRACT: note_on channel=9 note=32 velocity=76 time=0.0079365
EXTRACT: note_on channel=9 note=44 velocity=27 time=0
EXTRACT: note_on channel=9 note=67 velocity=45 time=0
EXTRACT: note_on channel=5 note=59 velocity=67 time=0
EXTRACT: note_on channel=5 note=63 velocity=90 time=0
EXTRACT: note_on channel=5 note=66 velocity=81 time=0
EXTRACT: note_on channel=9 note=42 velocity=66 time=0.011904750000000002
EXTRACT: note_on channel=9 note=69 velocity=61 time=0
EXTRACT: note_on channel=9 note=69 velocity=0 time=0.001984125
EXTRACT: note_on channel=9 note=42 velocity=0 time=0
EXTRACT: note_on channel=9 note=44 velocity=0 time=0.025793625000000004
EXTRACT: note_on channel=9 note=67 velocity=0 time=0.00396825
EXTRACT: note_on channel=9 note=32 velocity=0 time=0.029761875000000004
EXTRACT: note_on channel=5 note=63 velocity=0 time=0
EXTRACT: note_on channel=7 note=54 velocity=0 time=0
EXTRACT: note_on channel=7 note=59 velocity=0 time=0.001984125
EXTRACT: note_on channel=5 note=66 velocity=0 time=0.0079365
EXTRACT: note_on channel=1 note=35 velocity=0 time=0.021825375
EXTRACT: note_on channel=3 note=63 velocity=0 time=0
EXTRACT: note_on channel=9 note=28 velocity=82 time=0.00396825
EXTRACT: note_on channel=9 note=36 velocity=94 time=0
EXTRACT: note_on channel=9 note=39 velocity=99 time=0
EXTRACT: note_on channel=9 note=42 velocity=76 time=0
EXTRACT: note_on channel=9 note=56 velocity=76 time=0
EXTRACT: note_on channel=1 note=39 velocity=91 time=0
EXTRACT: note_on channel=3 note=66 velocity=74 time=0
EXTRACT: note_on channel=7 note=51 velocity=85 time=0
EXTRACT: note_on channel=9 note=40 velocity=117 time=0
EXTRACT: note_on channel=9 note=36 velocity=126 time=0
EXTRACT: note_on channel=9 note=35 velocity=117 time=0
EXTRACT: note_on channel=9 note=39 velocity=121 time=0
EXTRACT: note_on channel=9 note=44 velocity=81 time=0
EXTRACT: note_on channel=9 note=69 velocity=78 time=0
EXTRACT: note_on channel=9 note=69 velocity=0 time=0.001984125
EXTRACT: note_on channel=9 note=36 velocity=0 time=0
EXTRACT: note_on channel=9 note=35 velocity=0 time=0
EXTRACT: note_on channel=9 note=40 velocity=0 time=0
EXTRACT: note_on channel=9 note=44 velocity=0 time=0
EXTRACT: note_on channel=9 note=39 velocity=0 time=0
EXTRACT: note_on channel=5 note=59 velocity=0 time=0.0396825
EXTRACT: note_on channel=9 note=39 velocity=0 time=0.027777750000000004
EXTRACT: note_on channel=9 note=28 velocity=0 time=0.005952375000000001
EXTRACT: note_on channel=9 note=36 velocity=0 time=0
EXTRACT: note_on channel=9 note=42 velocity=0 time=0.03373012500000001
EXTRACT: note_on channel=9 note=61 velocity=73 time=0.009920625
EXTRACT: note_on channel=9 note=61 velocity=0 time=0.001984125
EXTRACT: note_on channel=9 note=32 velocity=68 time=0.0079365
EXTRACT: note_on channel=9 note=32 velocity=0 time=0.053571375000000004
EXTRACT: note_on channel=1 note=39 velocity=0 time=0.041666625000000006
EXTRACT: note_on channel=3 note=66 velocity=0 time=0.00396825
EXTRACT: note_on channel=7 note=51 velocity=0 time=0
EXTRACT: note_on channel=9 note=32 velocity=70 time=0.009920625
EXTRACT: note_on channel=9 note=44 velocity=59 time=0
EXTRACT: note_on channel=9 note=68 velocity=43 time=0
EXTRACT: note_on channel=1 note=42 velocity=83 time=0
EXTRACT: note_on channel=3 note=71 velocity=81 time=0
EXTRACT: note_on channel=5 note=59 velocity=87 time=0
EXTRACT: note_on channel=5 note=63 velocity=93 time=0
EXTRACT: note_on channel=5 note=66 velocity=86 time=0
EXTRACT: note_on channel=7 note=54 velocity=75 time=0
EXTRACT: note_on channel=7 note=59 velocity=76 time=0
EXTRACT: note_on channel=9 note=42 velocity=73 time=0
EXTRACT: note_on channel=9 note=60 velocity=66 time=0
EXTRACT: note_on channel=9 note=60 velocity=0 time=0.001984125
EXTRACT: note_on channel=9 note=42 velocity=0 time=0
EXTRACT: note_on channel=9 note=70 velocity=105 time=0
EXTRACT: note_on channel=9 note=70 velocity=0 time=0.001984125
EXTRACT: note_on channel=9 note=68 velocity=0 time=0.031746
EXTRACT: note_on channel=9 note=44 velocity=0 time=0.01984125
EXTRACT: note_on channel=9 note=32 velocity=0 time=0.0079365
EXTRACT: note_on channel=9 note=56 velocity=0 time=0.005952375000000001
EXTRACT: note_on channel=7 note=54 velocity=0 time=0
EXTRACT: note_on channel=5 note=63 velocity=0 time=0.00396825
EXTRACT: note_on channel=7 note=59 velocity=0 time=0.005952375000000001
EXTRACT: note_on channel=5 note=66 velocity=0 time=0.00396825
EXTRACT: note_on channel=10 note=63 velocity=0 time=0.025793625000000004
EXTRACT: note_on channel=5 note=59 velocity=0 time=0
EXTRACT: note_on channel=10 note=66 velocity=0 time=0.005952375000000001
EXTRACT: note_on channel=7 note=54 velocity=73 time=0.00396825
EXTRACT: note_on channel=7 note=59 velocity=51 time=0
EXTRACT: note_on channel=9 note=62 velocity=69 time=0
EXTRACT: note_on channel=9 note=62 velocity=0 time=0.001984125
EXTRACT: note_on channel=9 note=32 velocity=63 time=0.0079365
EXTRACT: note_on channel=9 note=44 velocity=61 time=0
EXTRACT: note_on channel=9 note=68 velocity=25 time=0
EXTRACT: note_on channel=9 note=42 velocity=66 time=0.011904750000000002
EXTRACT: note_on channel=10 note=59 velocity=0 time=0.001984125
EXTRACT: note_on channel=9 note=42 velocity=0 time=0
EXTRACT: note_on channel=9 note=44 velocity=0 time=0.045634875000000005
EXTRACT: note_on channel=7 note=54 velocity=0 time=0
EXTRACT: note_on channel=7 note=59 velocity=0 time=0.001984125
EXTRACT: note_on channel=9 note=32 velocity=0 time=0.001984125
EXTRACT: note_on channel=1 note=42 velocity=0 time=0.009920625
EXTRACT: note_on channel=9 note=68 velocity=0 time=0.011904750000000002
EXTRACT: note_on channel=3 note=71 velocity=0 time=0.01984125
EXTRACT: note_on channel=9 note=27 velocity=87 time=0.00396825
EXTRACT: note_on channel=9 note=36 velocity=103 time=0
EXTRACT: note_on channel=9 note=42 velocity=87 time=0
EXTRACT: note_on channel=9 note=44 velocity=85 time=0
EXTRACT: note_on channel=9 note=56 velocity=71 time=0
EXTRACT: note_on channel=10 note=59 velocity=60 time=0
EXTRACT: note_on channel=10 note=64 velocity=65 time=0
EXTRACT: note_on channel=10 note=68 velocity=58 time=0
EXTRACT: note_on channel=10 note=76 velocity=56 time=0
EXTRACT: note_on channel=3 note=68 velocity=88 time=0
EXTRACT: note_on channel=7 note=52 velocity=95 time=0
EXTRACT: note_on channel=9 note=36 velocity=126 time=0
EXTRACT: note_on channel=9 note=35 velocity=117 time=0
EXTRACT: note_on channel=9 note=44 velocity=81 time=0
EXTRACT: note_on channel=9 note=82 velocity=69 time=0
EXTRACT: note_on channel=9 note=56 velocity=87 time=0
EXTRACT: note_on channel=9 note=60 velocity=63 time=0
EXTRACT: note_on channel=9 note=60 velocity=0 time=0.001984125
EXTRACT: note_on channel=9 note=35 velocity=0 time=0
EXTRACT: note_on channel=9 note=44 velocity=0 time=0
EXTRACT: note_on channel=9 note=36 velocity=0 time=0
EXTRACT: note_on channel=9 note=56 velocity=0 time=0
EXTRACT: note_on channel=9 note=82 velocity=0 time=0
EXTRACT: note_on channel=10 note=78 velocity=0 time=0.023809500000000004
EXTRACT: note_on channel=9 note=27 velocity=0 time=0.04365075
EXTRACT: note_on channel=9 note=36 velocity=0 time=0.005952375000000001
EXTRACT: note_on channel=9 note=44 velocity=0 time=0.01984125
EXTRACT: note_on channel=9 note=32 velocity=76 time=0.03373012500000001
EXTRACT: note_on channel=5 note=59 velocity=77 time=0
EXTRACT: note_on channel=5 note=64 velocity=96 time=0
EXTRACT: note_on channel=5 note=68 velocity=84 time=0
EXTRACT: note_on channel=9 note=82 velocity=43 time=0.011904750000000002
EXTRACT: note_on channel=9 note=82 velocity=0 time=0.001984125
EXTRACT: note_on channel=9 note=32 velocity=0 time=0.049603125000000005
EXTRACT: note_on channel=5 note=64 velocity=0 time=0
EXTRACT: note_on channel=5 note=68 velocity=0 time=0.017857125
EXTRACT: note_on channel=5 note=59 velocity=0 time=0.017857125
EXTRACT: note_on channel=9 note=70 velocity=105 time=0.001984125
EXTRACT: note_on channel=9 note=70 velocity=0 time=0.001984125
EXTRACT: note_on channel=9 note=42 velocity=0 time=0.001984125
EXTRACT: note_on channel=9 note=27 velocity=58 time=0.00396825
EXTRACT: note_on channel=9 note=44 velocity=56 time=0
EXTRACT: note_on channel=9 note=67 velocity=44 time=0
EXTRACT: note_on channel=1 note=40 velocity=96 time=0
EXTRACT: note_on channel=7 note=56 velocity=70 time=0
EXTRACT: note_on channel=7 note=59 velocity=72 time=0
EXTRACT: note_on channel=9 note=42 velocity=73 time=0
EXTRACT: note_on channel=9 note=82 velocity=48 time=0
EXTRACT: note_on channel=9 note=82 velocity=0 time=0.001984125
EXTRACT: note_on channel=9 note=42 velocity=0 time=0
EXTRACT: note_on channel=7 note=52 velocity=0 time=0.031746
EXTRACT: note_on channel=9 note=67 velocity=0 time=0.0079365
EXTRACT: note_on channel=9 note=44 velocity=0 time=0
EXTRACT: note_on channel=7 note=59 velocity=0 time=0
EXTRACT: note_on channel=9 note=27 velocity=0 time=0.00396825
EXTRACT: note_on channel=7 note=56 velocity=0 time=0.015873
EXTRACT: note_on channel=9 note=56 velocity=0 time=0.001984125
EXTRACT: note_on channel=7 note=56 velocity=74 time=0.05555550000000001
EXTRACT: note_on channel=7 note=59 velocity=73 time=0
EXTRACT: note_on channel=9 note=56 velocity=87 time=0
EXTRACT: note_on channel=9 note=56 velocity=0 time=0.001984125
EXTRACT: note_on channel=9 note=44 velocity=51 time=0.0079365
EXTRACT: note_on channel=9 note=67 velocity=35 time=0
EXTRACT: note_on channel=9 note=42 velocity=66 time=0.011904750000000002
EXTRACT: note_on channel=9 note=82 velocity=40 time=0
EXTRACT: note_on channel=9 note=82 velocity=0 time=0.001984125
EXTRACT: note_on channel=9 note=42 velocity=0 time=0
EXTRACT: note_on channel=9 note=44 velocity=0 time=0.045634875000000005
EXTRACT: note_on channel=7 note=56 velocity=0 time=0
EXTRACT: note_on channel=9 note=67 velocity=0 time=0.005952375000000001
EXTRACT: note_on channel=7 note=59 velocity=0 time=0.00396825
EXTRACT: note_on channel=1 note=40 velocity=0 time=0.03571425
EXTRACT: note_on channel=3 note=68 velocity=0 time=0
EXTRACT: note_on channel=9 note=28 velocity=85 time=0.00396825
EXTRACT: note_on channel=9 note=32 velocity=88 time=0
EXTRACT: note_on channel=9 note=36 velocity=103 time=0
EXTRACT: note_on channel=9 note=39 velocity=94 time=0
EXTRACT: note_on channel=9 note=42 velocity=79 time=0
EXTRACT: note_on channel=9 note=56 velocity=70 time=0
EXTRACT: note_on channel=1 note=35 velocity=80 time=0
EXTRACT: note_on channel=3 note=66 velocity=78 time=0
EXTRACT: note_on channel=5 note=59 velocity=89 time=0
EXTRACT: note_on channel=5 note=64 velocity=97 time=0
EXTRACT: note_on channel=5 note=68 velocity=86 time=0
EXTRACT: note_on channel=7 note=52 velocity=91 time=0
EXTRACT: note_on channel=9 note=39 velocity=121 time=0
EXTRACT: note_on channel=9 note=40 velocity=117 time=0
EXTRACT: note_on channel=9 note=36 velocity=126 time=0
EXTRACT: note_on channel=9 note=35 velocity=117 time=0
EXTRACT: note_on channel=9 note=44 velocity=81 time=0
EXTRACT: note_on channel=9 note=82 velocity=69 time=0
EXTRACT: note_on channel=9 note=82 velocity=0 time=0.001984125
EXTRACT: note_on channel=9 note=40 velocity=0 time=0
EXTRACT: note_on channel=9 note=36 velocity=0 time=0
EXTRACT: note_on channel=9 note=39 velocity=0 time=0
EXTRACT: note_on channel=9 note=44 velocity=0 time=0
EXTRACT: note_on channel=9 note=35 velocity=0 time=0
EXTRACT: note_on channel=9 note=39 velocity=0 time=0.06746025000000001
EXTRACT: note_on channel=9 note=32 velocity=0 time=0.001984125
EXTRACT: note_on channel=9 note=28 velocity=0 time=0.001984125
EXTRACT: note_on channel=9 note=36 velocity=0 time=0
EXTRACT: note_on channel=9 note=42 velocity=0 time=0.0714285
EXTRACT: note_on channel=7 note=52 velocity=0 time=0.049603125000000005
EXTRACT: note_on channel=3 note=66 velocity=0 time=0.023809500000000004
EXTRACT: note_on channel=1 note=35 velocity=0 time=0.009920625
EXTRACT: note_on channel=9 note=70 velocity=105 time=0.00396825
EXTRACT: note_on channel=9 note=70 velocity=0 time=0.001984125
EXTRACT: note_on channel=9 note=32 velocity=71 time=0.00396825
EXTRACT: note_on channel=9 note=36 velocity=74 time=0
EXTRACT: note_on channel=9 note=44 velocity=55 time=0
EXTRACT: note_on channel=9 note=68 velocity=53 time=0
EXTRACT: note_on channel=1 note=40 velocity=94 time=0
EXTRACT: note_on channel=3 note=64 velocity=69 time=0
EXTRACT: note_on channel=7 note=56 velocity=77 time=0
EXTRACT: note_on channel=7 note=59 velocity=80 time=0
EXTRACT: note_on channel=9 note=42 velocity=73 time=0
EXTRACT: note_on channel=9 note=69 velocity=78 time=0
EXTRACT: note_on channel=9 note=56 velocity=87 time=0
EXTRACT: note_on channel=9 note=56 velocity=0 time=0.001984125
EXTRACT: note_on channel=9 note=69 velocity=0 time=0
EXTRACT: note_on channel=9 note=42 velocity=0 time=0
EXTRACT: note_on channel=9 note=44 velocity=0 time=0.041666625000000006
EXTRACT: note_on channel=5 note=59 velocity=0 time=0.009920625
EXTRACT: note_on channel=9 note=32 velocity=0 time=0.001984125
EXTRACT: note_on channel=9 note=68 velocity=0 time=0
EXTRACT: note_on channel=9 note=36 velocity=0 time=0.0079365
EXTRACT: note_on channel=10 note=64 velocity=0 time=0
EXTRACT: note_on channel=5 note=64 velocity=0 time=0
EXTRACT: note_on channel=7 note=56 velocity=0 time=0.001984125
EXTRACT: note_on channel=9 note=56 velocity=0 time=0.005952375000000001
EXTRACT: note_on channel=7 note=59 velocity=0 time=0.001984125
EXTRACT: note_on channel=10 note=68 velocity=0 time=0.029761875000000004
EXTRACT: note_on channel=5 note=68 velocity=0 time=0
EXTRACT: note_on channel=7 note=56 velocity=83 time=0.015873
EXTRACT: note_on channel=7 note=59 velocity=53 time=0
EXTRACT: note_on channel=9 note=32 velocity=67 time=0.009920625
EXTRACT: note_on channel=9 note=44 velocity=62 time=0
EXTRACT: note_on channel=9 note=68 velocity=35 time=0
EXTRACT: note_on channel=9 note=42 velocity=66 time=0.011904750000000002
EXTRACT: note_on channel=9 note=69 velocity=73 time=0
EXTRACT: note_on channel=9 note=69 velocity=0 time=0.001984125
EXTRACT: note_on channel=9 note=42 velocity=0 time=0
EXTRACT: note_on channel=10 note=59 velocity=0 time=0.0079365
EXTRACT: note_on channel=7 note=59 velocity=0 time=0.03373012500000001
EXTRACT: note_on channel=9 note=44 velocity=0 time=0.0079365
EXTRACT: note_on channel=9 note=32 velocity=0 time=0.005952375000000001
EXTRACT: note_on channel=7 note=56 velocity=0 time=0.001984125
EXTRACT: note_on channel=9 note=68 velocity=0 time=0.001984125
EXTRACT: note_on channel=1 note=40 velocity=0 time=0.0079365
EXTRACT: note_on channel=3 note=64 velocity=0 time=0.00396825
EXTRACT: note_on channel=9 note=27 velocity=90 time=0.023809500000000004
EXTRACT: note_on channel=9 note=36 velocity=101 time=0
EXTRACT: note_on channel=9 note=42 velocity=93 time=0
EXTRACT: note_on channel=9 note=44 velocity=85 time=0
EXTRACT: note_on channel=9 note=56 velocity=73 time=0
EXTRACT: note_on channel=1 note=37 velocity=82 time=0
EXTRACT: note_on channel=10 note=76 velocity=0 time=0
EXTRACT: note_on channel=10 note=61 velocity=57 time=0
EXTRACT: note_on channel=10 note=64 velocity=65 time=0
EXTRACT: note_on channel=10 note=68 velocity=57 time=0
EXTRACT: note_on channel=10 note=80 velocity=62 time=0
EXTRACT: note_on channel=5 note=61 velocity=74 time=0
EXTRACT: note_on channel=5 note=64 velocity=91 time=0
EXTRACT: note_on channel=5 note=68 velocity=90 time=0
EXTRACT: note_on channel=7 note=49 velocity=84 time=0
EXTRACT: note_on channel=9 note=36 velocity=126 time=0
EXTRACT: note_on channel=9 note=35 velocity=117 time=0
EXTRACT: note_on channel=9 note=35 velocity=0 time=0.001984125
EXTRACT: note_on channel=9 note=36 velocity=0 time=0
EXTRACT: note_on channel=5 note=64 velocity=0 time=0.063492
EXTRACT: note_on channel=9 note=27 velocity=0 time=0.013888875000000002
EXTRACT: note_on channel=5 note=68 velocity=0 time=0.005952375000000001
EXTRACT: note_on channel=5 note=61 velocity=0 time=0.0396825
EXTRACT: note_on channel=9 note=44 velocity=0 time=0.009920625
EXTRACT: note_on channel=9 note=36 velocity=0 time=0.00396825
EXTRACT: note_on channel=9 note=69 velocity=84 time=0.001984125
EXTRACT: note_on channel=9 note=69 velocity=0 time=0.001984125
EXTRACT: note_on channel=1 note=37 velocity=0 time=0.015873
EXTRACT: note_on channel=9 note=42 velocity=0 time=0.07539675000000001
EXTRACT: note_on channel=7 note=49 velocity=0 time=0
EXTRACT: note_on channel=9 note=70 velocity=105 time=0
EXTRACT: note_on channel=9 note=27 velocity=78 time=0.00396825
EXTRACT: note_on channel=9 note=44 velocity=43 time=0
EXTRACT: note_on channel=9 note=67 velocity=36 time=0
EXTRACT: note_on channel=1 note=37 velocity=79 time=0
EXTRACT: note_on channel=7 note=56 velocity=80 time=0
EXTRACT: note_on channel=7 note=61 velocity=63 time=0
EXTRACT: note_on channel=9 note=70 velocity=0 time=0
EXTRACT: note_on channel=9 note=42 velocity=73 time=0
EXTRACT: note_on channel=9 note=62 velocity=79 time=0
EXTRACT: note_on channel=9 note=62 velocity=0 time=0.001984125
EXTRACT: note_on channel=9 note=42 velocity=0 time=0
EXTRACT: note_on channel=9 note=44 velocity=0 time=0.027777750000000004
EXTRACT: note_on channel=9 note=67 velocity=0 time=0.013888875000000002
EXTRACT: note_on channel=7 note=56 velocity=0 time=0.011904750000000002
EXTRACT: note_on channel=7 note=61 velocity=0 time=0.005952375000000001
EXTRACT: note_on channel=9 note=27 velocity=0 time=0.00396825
EXTRACT: note_on channel=9 note=56 velocity=0 time=0.017857125
EXTRACT: note_on channel=7 note=56 velocity=81 time=0.03571425
EXTRACT: note_on channel=7 note=61 velocity=74 time=0
EXTRACT: note_on channel=9 note=61 velocity=69 time=0
EXTRACT: note_on channel=9 note=61 velocity=0 time=0.001984125
EXTRACT: note_on channel=9 note=27 velocity=50 time=0.0079365
EXTRACT: note_on channel=9 note=44 velocity=58 time=0
EXTRACT: note_on channel=9 note=67 velocity=42 time=0
EXTRACT: note_on channel=5 note=61 velocity=81 time=0
EXTRACT: note_on channel=5 note=64 velocity=84 time=0
EXTRACT: note_on channel=5 note=68 velocity=84 time=0
EXTRACT: note_on channel=9 note=42 velocity=66 time=0.011904750000000002
EXTRACT: note_on channel=9 note=69 velocity=68 time=0
EXTRACT: note_on channel=9 note=69 velocity=0 time=0.001984125
EXTRACT: note_on channel=9 note=42 velocity=0 time=0
EXTRACT: note_on channel=7 note=56 velocity=0 time=0.041666625000000006
EXTRACT: note_on channel=9 note=67 velocity=0 time=0.013888875000000002
EXTRACT: note_on channel=9 note=44 velocity=0 time=0
EXTRACT: note_on channel=5 note=64 velocity=0 time=0.001984125
EXTRACT: note_on channel=7 note=61 velocity=0 time=0
EXTRACT: note_on channel=9 note=27 velocity=0 time=0.017857125
EXTRACT: note_on channel=1 note=37 velocity=0 time=0.015873
EXTRACT: note_on channel=5 note=68 velocity=0 time=0
EXTRACT: note_on channel=9 note=28 velocity=74 time=0.00396825
EXTRACT: note_on channel=9 note=32 velocity=78 time=0
EXTRACT: note_on channel=9 note=36 velocity=103 time=0
EXTRACT: note_on channel=9 note=39 velocity=92 time=0
EXTRACT: note_on channel=9 note=42 velocity=79 time=0
EXTRACT: note_on channel=9 note=56 velocity=79 time=0
EXTRACT: note_on channel=1 note=40 velocity=84 time=0
EXTRACT: note_on channel=3 note=64 velocity=90 time=0
EXTRACT: note_on channel=7 note=49 velocity=87 time=0
EXTRACT: note_on channel=9 note=39 velocity=121 time=0
EXTRACT: note_on channel=9 note=36 velocity=126 time=0
EXTRACT: note_on channel=9 note=35 velocity=117 time=0
EXTRACT: note_on channel=9 note=40 velocity=117 time=0
EXTRACT: note_on channel=9 note=44 velocity=81 time=0
EXTRACT: note_on channel=9 note=44 velocity=0 time=0.001984125
EXTRACT: note_on channel=9 note=35 velocity=0 time=0
EXTRACT: note_on channel=9 note=39 velocity=0 time=0
EXTRACT: note_on channel=9 note=36 velocity=0 time=0
EXTRACT: note_on channel=9 note=40 velocity=0 time=0
EXTRACT: note_on channel=5 note=61 velocity=0 time=0.029761875000000004
EXTRACT: note_on channel=9 note=32 velocity=0 time=0.0396825
EXTRACT: note_on channel=9 note=39 velocity=0 time=0.00396825
EXTRACT: note_on channel=9 note=28 velocity=0 time=0.015873
EXTRACT: note_on channel=9 note=62 velocity=73 time=0.027777750000000004
EXTRACT: note_on channel=9 note=62 velocity=0 time=0.001984125
EXTRACT: note_on channel=9 note=36 velocity=0 time=0.031746
EXTRACT: note_on channel=9 note=42 velocity=0 time=0.06547612500000001
EXTRACT: note_on channel=7 note=49 velocity=0 time=0.009920625
EXTRACT: note_on channel=3 note=64 velocity=0 time=0.00396825
EXTRACT: note_on channel=1 note=40 velocity=0 time=0.001984125
EXTRACT: note_on channel=9 note=32 velocity=69 time=0.00396825
EXTRACT: note_on channel=9 note=44 velocity=55 time=0
EXTRACT: note_on channel=9 note=68 velocity=34 time=0
EXTRACT: note_on channel=1 note=44 velocity=93 time=0
EXTRACT: note_on channel=3 note=61 velocity=59 time=0
EXTRACT: note_on channel=5 note=61 velocity=84 time=0
EXTRACT: note_on channel=5 note=64 velocity=87 time=0
EXTRACT: note_on channel=5 note=68 velocity=89 time=0
EXTRACT: note_on channel=7 note=56 velocity=80 time=0
EXTRACT: note_on channel=7 note=61 velocity=59 time=0
EXTRACT: note_on channel=9 note=42 velocity=73 time=0
EXTRACT: note_on channel=9 note=61 velocity=66 time=0
EXTRACT: note_on channel=9 note=61 velocity=0 time=0.001984125
EXTRACT: note_on channel=9 note=42 velocity=0 time=0
EXTRACT: note_on channel=9 note=70 velocity=105 time=0.001984125
EXTRACT: note_on channel=9 note=70 velocity=0 time=0.001984125
EXTRACT: note_on channel=9 note=68 velocity=0 time=0.03571425
EXTRACT: note_on channel=9 note=44 velocity=0 time=0.001984125
EXTRACT: note_on channel=9 note=32 velocity=0 time=0.015873
EXTRACT: note_on channel=7 note=56 velocity=0 time=0.001984125
EXTRACT: note_on channel=7 note=61 velocity=0 time=0.00396825
EXTRACT: note_on channel=5 note=64 velocity=0 time=0.00396825
EXTRACT: note_on channel=10 note=64 velocity=0 time=0.00396825
EXTRACT: note_on channel=9 note=56 velocity=0 time=0.009920625
EXTRACT: note_on channel=5 note=68 velocity=0 time=0.015873
EXTRACT: note_on channel=10 note=68 velocity=0 time=0.013888875000000002
EXTRACT: note_on channel=10 note=61 velocity=0 time=0.001984125
EXTRACT: note_on channel=7 note=56 velocity=81 time=0.00396825
EXTRACT: note_on channel=7 note=61 velocity=71 time=0
EXTRACT: note_on channel=5 note=61 velocity=0 time=0.00396825
EXTRACT: note_on channel=9 note=32 velocity=69 time=0.005952375000000001
EXTRACT: note_on channel=9 note=44 velocity=62 time=0
EXTRACT: note_on channel=9 note=68 velocity=36 time=0
EXTRACT: note_on channel=9 note=42 velocity=66 time=0.011904750000000002
EXTRACT: note_on channel=9 note=82 velocity=48 time=0
EXTRACT: note_on channel=9 note=82 velocity=0 time=0.001984125
EXTRACT: note_on channel=9 note=42 velocity=0 time=0
EXTRACT: note_on channel=9 note=44 velocity=0 time=0.04761900000000001
EXTRACT: note_on channel=1 note=44 velocity=0 time=0
EXTRACT: note_on channel=7 note=56 velocity=0 time=0.001984125
EXTRACT: note_on channel=9 note=68 velocity=0 time=0.009920625
EXTRACT: note_on channel=9 note=32 velocity=0 time=0
EXTRACT: note_on channel=7 note=61 velocity=0 time=0.001984125
EXTRACT: note_on channel=3 note=61 velocity=0 time=0.029761875000000004
EXTRACT: note_on channel=9 note=27 velocity=88 time=0.00396825
EXTRACT: note_on channel=9 note=36 velocity=103 time=0
EXTRACT: note_on channel=9 note=42 velocity=93 time=0
EXTRACT: note_on channel=9 note=44 velocity=89 time=0
EXTRACT: note_on channel=9 note=56 velocity=73 time=0
EXTRACT: note_on channel=10 note=61 velocity=60 time=0
EXTRACT: note_on channel=10 note=66 velocity=53 time=0
EXTRACT: note_on channel=10 note=69 velocity=69 time=0
EXTRACT: note_on channel=10 note=78 velocity=57 time=0
EXTRACT: note_on channel=3 note=66 velocity=87 time=0
EXTRACT: note_on channel=7 note=54 velocity=83 time=0
EXTRACT: note_on channel=9 note=36 velocity=126 time=0
EXTRACT: note_on channel=9 note=35 velocity=117 time=0
EXTRACT: note_on channel=9 note=44 velocity=81 time=0
EXTRACT: note_on channel=9 note=82 velocity=55 time=0
EXTRACT: note_on channel=9 note=56 velocity=80 time=0
EXTRACT: note_on channel=9 note=56 velocity=0 time=0.001984125
EXTRACT: note_on channel=9 note=44 velocity=0 time=0
EXTRACT: note_on channel=9 note=36 velocity=0 time=0
EXTRACT: note_on channel=9 note=35 velocity=0 time=0
EXTRACT: note_on channel=9 note=82 velocity=0 time=0
EXTRACT: note_on channel=10 note=80 velocity=0 time=0.013888875000000002
EXTRACT: note_on channel=9 note=27 velocity=0 time=0.05555550000000001
EXTRACT: note_on channel=9 note=32 velocity=77 time=0.057539625000000004
EXTRACT: note_on channel=5 note=61 velocity=84 time=0
EXTRACT: note_on channel=5 note=66 velocity=86 time=0
EXTRACT: note_on channel=5 note=69 velocity=96 time=0
EXTRACT: note_on channel=9 note=82 velocity=63 time=0.011904750000000002
EXTRACT: note_on channel=9 note=82 velocity=0 time=0.001984125
EXTRACT: note_on channel=9 note=44 velocity=0 time=0.005952375000000001
EXTRACT: note_on channel=9 note=36 velocity=0 time=0
EXTRACT: note_on channel=9 note=32 velocity=0 time=0.03571425
EXTRACT: note_on channel=5 note=69 velocity=0 time=0.0079365
EXTRACT: note_on channel=5 note=66 velocity=0 time=0.0079365
EXTRACT: note_on channel=5 note=61 velocity=0 time=0.013888875000000002
EXTRACT: note_on channel=9 note=42 velocity=0 time=0.01984125
EXTRACT: note_on channel=9 note=27 velocity=77 time=0.00396825
EXTRACT: note_on channel=9 note=44 velocity=59 time=0
EXTRACT: note_on channel=9 note=67 velocity=24 time=0
EXTRACT: note_on channel=1 note=30 velocity=82 time=0
EXTRACT: note_on channel=7 note=57 velocity=74 time=0
EXTRACT: note_on channel=7 note=61 velocity=67 time=0
EXTRACT: note_on channel=9 note=42 velocity=73 time=0
EXTRACT: note_on channel=9 note=82 velocity=59 time=0
EXTRACT: note_on channel=9 note=63 velocity=60 time=0
EXTRACT: note_on channel=9 note=63 velocity=0 time=0.001984125
EXTRACT: note_on channel=9 note=82 velocity=0 time=0
EXTRACT: note_on channel=9 note=42 velocity=0 time=0
EXTRACT: note_on channel=9 note=70 velocity=105 time=0.001984125
EXTRACT: note_on channel=9 note=70 velocity=0 time=0.001984125
EXTRACT: note_on channel=7 note=54 velocity=0 time=0.023809500000000004
EXTRACT: note_on channel=7 note=57 velocity=0 time=0.009920625
EXTRACT: note_on channel=9 note=67 velocity=0 time=0.005952375000000001
EXTRACT: note_on channel=9 note=44 velocity=0 time=0.00396825
EXTRACT: note_on channel=9 note=27 velocity=0 time=0.013888875000000002
EXTRACT: note_on channel=7 note=61 velocity=0 time=0
EXTRACT: note_on channel=9 note=56 velocity=0 time=0.015873
EXTRACT: note_on channel=7 note=57 velocity=79 time=0.0396825
EXTRACT: note_on channel=7 note=61 velocity=69 time=0
EXTRACT: note_on channel=9 note=56 velocity=89 time=0
EXTRACT: note_on channel=9 note=56 velocity=0 time=0.001984125
EXTRACT: note_on channel=9 note=44 velocity=48 time=0.0079365
EXTRACT: note_on channel=9 note=67 velocity=43 time=0
EXTRACT: note_on channel=9 note=42 velocity=66 time=0.011904750000000002
EXTRACT: note_on channel=9 note=82 velocity=45 time=0
EXTRACT: note_on channel=9 note=82 velocity=0 time=0.001984125
EXTRACT: note_on channel=9 note=42 velocity=0 time=0
EXTRACT: note_on channel=7 note=57 velocity=0 time=0.031746
EXTRACT: note_on channel=9 note=44 velocity=0 time=0.00396825
EXTRACT: note_on channel=9 note=67 velocity=0 time=0.001984125
EXTRACT: note_on channel=7 note=61 velocity=0 time=0.03373012500000001
EXTRACT: note_on channel=1 note=30 velocity=0 time=0.01984125
EXTRACT: note_on channel=3 note=66 velocity=0 time=0
EXTRACT: note_on channel=9 note=28 velocity=79 time=0.00396825
EXTRACT: note_on channel=9 note=32 velocity=83 time=0
EXTRACT: note_on channel=9 note=36 velocity=103 time=0
EXTRACT: note_on channel=9 note=39 velocity=96 time=0
EXTRACT: note_on channel=9 note=42 velocity=75 time=0
EXTRACT: note_on channel=9 note=56 velocity=73 time=0
EXTRACT: note_on channel=1 note=33 velocity=78 time=0
EXTRACT: note_on channel=3 note=61 velocity=69 time=0
EXTRACT: note_on channel=5 note=61 velocity=82 time=0
EXTRACT: note_on channel=5 note=66 velocity=82 time=0
EXTRACT: note_on channel=5 note=69 velocity=99 time=0
EXTRACT: note_on channel=7 note=54 velocity=87 time=0
EXTRACT: note_on channel=9 note=36 velocity=126 time=0
EXTRACT: note_on channel=9 note=35 velocity=117 time=0
EXTRACT: note_on channel=9 note=39 velocity=121 time=0
EXTRACT: note_on channel=9 note=40 velocity=117 time=0
EXTRACT: note_on channel=9 note=44 velocity=81 time=0
EXTRACT: note_on channel=9 note=82 velocity=60 time=0
EXTRACT: note_on channel=9 note=82 velocity=0 time=0.001984125
EXTRACT: note_on channel=9 note=35 velocity=0 time=0
EXTRACT: note_on channel=9 note=39 velocity=0 time=0
EXTRACT: note_on channel=9 note=36 velocity=0 time=0
EXTRACT: note_on channel=9 note=44 velocity=0 time=0
EXTRACT: note_on channel=9 note=40 velocity=0 time=0
EXTRACT: note_on channel=9 note=32 velocity=0 time=0.061507875000000004
EXTRACT: note_on channel=9 note=28 velocity=0 time=0.005952375000000001
EXTRACT: note_on channel=9 note=39 velocity=0 time=0.00396825
EXTRACT: note_on channel=9 note=36 velocity=0 time=0.011904750000000002
EXTRACT: note_on channel=7 note=54 velocity=0 time=0.11904750000000001
EXTRACT: note_on channel=9 note=70 velocity=105 time=0.027777750000000004
EXTRACT: note_on channel=9 note=42 velocity=0 time=0.001984125
EXTRACT: note_on channel=1 note=33 velocity=0 time=0
EXTRACT: note_on channel=9 note=70 velocity=0 time=0
EXTRACT: note_on channel=9 note=32 velocity=79 time=0.00396825
EXTRACT: note_on channel=9 note=44 velocity=62 time=0
EXTRACT: note_on channel=9 note=68 velocity=41 time=0
EXTRACT: note_on channel=1 note=37 velocity=86 time=0
EXTRACT: note_on channel=7 note=57 velocity=80 time=0
EXTRACT: note_on channel=7 note=61 velocity=72 time=0
EXTRACT: note_on channel=9 note=42 velocity=75 time=0
EXTRACT: note_on channel=9 note=69 velocity=87 time=0
EXTRACT: note_on channel=9 note=56 velocity=87 time=0
EXTRACT: note_on channel=9 note=56 velocity=0 time=0.001984125
EXTRACT: note_on channel=9 note=69 velocity=0 time=0
EXTRACT: note_on channel=9 note=42 velocity=0 time=0
EXTRACT: note_on channel=7 note=57 velocity=0 time=0.049603125000000005
EXTRACT: note_on channel=9 note=44 velocity=0 time=0.001984125
EXTRACT: note_on channel=9 note=68 velocity=0 time=0.005952375000000001
EXTRACT: note_on channel=9 note=32 velocity=0 time=0
EXTRACT: note_on channel=9 note=56 velocity=0 time=0.00396825
EXTRACT: note_on channel=7 note=61 velocity=0 time=0.011904750000000002
EXTRACT: note_on channel=5 note=66 velocity=0 time=0.009920625
EXTRACT: note_on channel=5 note=69 velocity=0 time=0.0079365
EXTRACT: note_on channel=10 note=66 velocity=0 time=0.009920625
EXTRACT: note_on channel=10 note=69 velocity=0 time=0.0079365
EXTRACT: note_on channel=5 note=61 velocity=0 time=0
EXTRACT: note_on channel=7 note=57 velocity=78 time=0.0079365
EXTRACT: note_on channel=7 note=61 velocity=68 time=0
EXTRACT: note_on channel=9 note=62 velocity=64 time=0
EXTRACT: note_on channel=9 note=62 velocity=0 time=0.001984125
EXTRACT: note_on channel=3 note=61 velocity=0 time=0.001984125
EXTRACT: note_on channel=9 note=32 velocity=71 time=0.005952375000000001
EXTRACT: note_on channel=9 note=44 velocity=51 time=0
EXTRACT: note_on channel=9 note=68 velocity=25 time=0
EXTRACT: note_on channel=10 note=61 velocity=0 time=0.009920625
EXTRACT: note_on channel=9 note=42 velocity=66 time=0.001984125
EXTRACT: note_on channel=9 note=69 velocity=69 time=0
EXTRACT: note_on channel=9 note=69 velocity=0 time=0.001984125
EXTRACT: note_on channel=9 note=42 velocity=0 time=0
EXTRACT: note_on channel=7 note=57 velocity=0 time=0.031746
EXTRACT: note_on channel=9 note=44 velocity=0 time=0.0079365
EXTRACT: note_on channel=9 note=32 velocity=0 time=0.009920625
EXTRACT: note_on channel=9 note=68 velocity=0 time=0.0079365
EXTRACT: note_on channel=7 note=61 velocity=0 time=0.00396825
EXTRACT: note_on channel=1 note=37 velocity=0 time=0.005952375000000001
EXTRACT: note_on channel=9 note=27 velocity=86 time=0.027777750000000004
EXTRACT: note_on channel=9 note=36 velocity=105 time=0
EXTRACT: note_on channel=9 note=42 velocity=85 time=0
EXTRACT: note_on channel=9 note=44 velocity=82 time=0
EXTRACT: note_on channel=9 note=56 velocity=75 time=0
EXTRACT: note_on channel=1 note=35 velocity=90 time=0
EXTRACT: note_on channel=10 note=59 velocity=68 time=0
EXTRACT: note_on channel=10 note=64 velocity=62 time=0
EXTRACT: note_on channel=10 note=66 velocity=62 time=0
EXTRACT: note_on channel=10 note=76 velocity=56 time=0
EXTRACT: note_on channel=5 note=59 velocity=88 time=0
EXTRACT: note_on channel=5 note=64 velocity=85 time=0
EXTRACT: note_on channel=5 note=66 velocity=81 time=0
EXTRACT: note_on channel=7 note=47 velocity=83 time=0
EXTRACT: note_on channel=9 note=36 velocity=126 time=0
EXTRACT: note_on channel=9 note=35 velocity=117 time=0
EXTRACT: note_on channel=9 note=44 velocity=81 time=0
EXTRACT: note_on channel=9 note=60 velocity=69 time=0
EXTRACT: note_on channel=9 note=60 velocity=0 time=0.001984125
EXTRACT: note_on channel=9 note=36 velocity=0 time=0
EXTRACT: note_on channel=9 note=35 velocity=0 time=0
EXTRACT: note_on channel=9 note=44 velocity=0 time=0
EXTRACT: note_on channel=10 note=78 velocity=0 time=0.027777750000000004
EXTRACT: note_on channel=5 note=64 velocity=0 time=0.041666625000000006
EXTRACT: note_on channel=9 note=27 velocity=0 time=0.0079365
EXTRACT: note_on channel=9 note=36 velocity=0 time=0.009920625
EXTRACT: note_on channel=5 note=66 velocity=0 time=0.001984125
EXTRACT: note_on channel=5 note=59 velocity=0 time=0.021825375
EXTRACT: note_on channel=9 note=69 velocity=93 time=0.027777750000000004
EXTRACT: note_on channel=9 note=69 velocity=0 time=0.001984125
EXTRACT: note_on channel=9 note=44 velocity=0 time=0.06547612500000001
EXTRACT: note_on channel=9 note=42 velocity=0 time=0.025793625000000004
EXTRACT: note_on channel=9 note=27 velocity=85 time=0.00396825
EXTRACT: note_on channel=9 note=44 velocity=48 time=0
EXTRACT: note_on channel=9 note=67 velocity=33 time=0
EXTRACT: note_on channel=7 note=52 velocity=92 time=0
EXTRACT: note_on channel=7 note=59 velocity=71 time=0
EXTRACT: note_on channel=9 note=42 velocity=73 time=0
EXTRACT: note_on channel=9 note=62 velocity=59 time=0
EXTRACT: note_on channel=9 note=70 velocity=105 time=0
EXTRACT: note_on channel=9 note=70 velocity=0 time=0.001984125
EXTRACT: note_on channel=9 note=62 velocity=0 time=0
EXTRACT: note_on channel=9 note=42 velocity=0 time=0
EXTRACT: note_on channel=7 note=59 velocity=0 time=0.023809500000000004
EXTRACT: note_on channel=9 note=44 velocity=0 time=0.00396825
EXTRACT: note_on channel=9 note=67 velocity=0 time=0.011904750000000002
EXTRACT: note_on channel=7 note=52 velocity=0 time=0.00396825
EXTRACT: note_on channel=7 note=47 velocity=0 time=0.023809500000000004
EXTRACT: note_on channel=9 note=27 velocity=0 time=0.005952375000000001
EXTRACT: note_on channel=9 note=56 velocity=0 time=0.009920625
EXTRACT: note_on channel=7 note=52 velocity=96 time=0.03373012500000001
EXTRACT: note_on channel=7 note=59 velocity=75 time=0
EXTRACT: note_on channel=9 note=60 velocity=63 time=0
EXTRACT: note_on channel=9 note=60 velocity=0 time=0.001984125
EXTRACT: note_on channel=9 note=44 velocity=63 time=0.0079365
EXTRACT: note_on channel=9 note=67 velocity=43 time=0
EXTRACT: note_on channel=5 note=59 velocity=81 time=0
EXTRACT: note_on channel=5 note=64 velocity=81 time=0
EXTRACT: note_on channel=5 note=66 velocity=80 time=0
EXTRACT: note_on channel=9 note=42 velocity=66 time=0.011904750000000002
EXTRACT: note_on channel=9 note=69 velocity=61 time=0
EXTRACT: note_on channel=9 note=69 velocity=0 time=0.001984125
EXTRACT: note_on channel=9 note=42 velocity=0 time=0
EXTRACT: note_on channel=7 note=52 velocity=0 time=0.025793625000000004
EXTRACT: note_on channel=9 note=44 velocity=0 time=0.013888875000000002
EXTRACT: note_on channel=9 note=67 velocity=0 time=0.0079365
EXTRACT: note_on channel=7 note=59 velocity=0 time=0.00396825
EXTRACT: note_on channel=5 note=64 velocity=0 time=0.00396825
EXTRACT: note_on channel=1 note=35 velocity=0 time=0.03571425
EXTRACT: note_on channel=9 note=28 velocity=82 time=0.00396825
EXTRACT: note_on channel=9 note=32 velocity=83 time=0
EXTRACT: note_on channel=9 note=36 velocity=105 time=0
EXTRACT: note_on channel=9 note=39 velocity=96 time=0
EXTRACT: note_on channel=9 note=42 velocity=82 time=0
EXTRACT: note_on channel=9 note=56 velocity=78 time=0
EXTRACT: note_on channel=1 note=30 velocity=76 time=0
EXTRACT: note_on channel=3 note=66 velocity=82 time=0
EXTRACT: note_on channel=7 note=47 velocity=82 time=0
EXTRACT: note_on channel=9 note=40 velocity=117 time=0
EXTRACT: note_on channel=9 note=36 velocity=126 time=0
EXTRACT: note_on channel=9 note=35 velocity=117 time=0
EXTRACT: note_on channel=9 note=39 velocity=121 time=0
EXTRACT: note_on channel=9 note=44 velocity=81 time=0
EXTRACT: note_on channel=9 note=69 velocity=78 time=0
EXTRACT: note_on channel=9 note=69 velocity=0 time=0.001984125
EXTRACT: note_on channel=9 note=36 velocity=0 time=0
EXTRACT: note_on channel=9 note=35 velocity=0 time=0
EXTRACT: note_on channel=9 note=40 velocity=0 time=0
EXTRACT: note_on channel=9 note=44 velocity=0 time=0
EXTRACT: note_on channel=9 note=39 velocity=0 time=0
EXTRACT: note_on channel=5 note=66 velocity=0 time=0.001984125
EXTRACT: note_on channel=5 note=59 velocity=0 time=0.05158725000000001
EXTRACT: note_on channel=9 note=39 velocity=0 time=0.013888875000000002
EXTRACT: note_on channel=9 note=32 velocity=0 time=0.001984125
EXTRACT: note_on channel=9 note=28 velocity=0 time=0.00396825
EXTRACT: note_on channel=9 note=36 velocity=0 time=0.00396825
EXTRACT: note_on channel=9 note=61 velocity=73 time=0.0396825
EXTRACT: note_on channel=9 note=61 velocity=0 time=0.001984125
EXTRACT: note_on channel=9 note=42 velocity=0 time=0.11309512500000002
EXTRACT: note_on channel=1 note=30 velocity=0 time=0
EXTRACT: note_on channel=3 note=66 velocity=0 time=0
EXTRACT: note_on channel=9 note=32 velocity=78 time=0.00396825
EXTRACT: note_on channel=9 note=44 velocity=55 time=0
EXTRACT: note_on channel=9 note=68 velocity=37 time=0
EXTRACT: note_on channel=1 note=35 velocity=94 time=0
EXTRACT: note_on channel=3 note=64 velocity=73 time=0
EXTRACT: note_on channel=5 note=59 velocity=90 time=0
EXTRACT: note_on channel=5 note=64 velocity=97 time=0
EXTRACT: note_on channel=5 note=66 velocity=88 time=0
EXTRACT: note_on channel=7 note=52 velocity=82 time=0
EXTRACT: note_on channel=7 note=59 velocity=70 time=0
EXTRACT: note_on channel=9 note=42 velocity=73 time=0
EXTRACT: note_on channel=9 note=60 velocity=66 time=0
EXTRACT: note_on channel=9 note=60 velocity=0 time=0.001984125
EXTRACT: note_on channel=9 note=42 velocity=0 time=0
EXTRACT: note_on channel=9 note=70 velocity=105 time=0
EXTRACT: note_on channel=9 note=70 velocity=0 time=0.001984125
EXTRACT: note_on channel=7 note=52 velocity=0 time=0.031746
EXTRACT: note_on channel=9 note=44 velocity=0 time=0.00396825
EXTRACT: note_on channel=9 note=68 velocity=0 time=0.00396825
EXTRACT: note_on channel=10 note=64 velocity=0 time=0.0079365
EXTRACT: note_on channel=5 note=64 velocity=0 time=0.009920625
EXTRACT: note_on channel=9 note=32 velocity=0 time=0.00396825
EXTRACT: note_on channel=7 note=59 velocity=0 time=0.009920625
EXTRACT: note_on channel=10 note=66 velocity=0 time=0.00396825
EXTRACT: note_on channel=5 note=66 velocity=0 time=0
EXTRACT: note_on channel=9 note=56 velocity=0 time=0.013888875000000002
EXTRACT: note_on channel=5 note=59 velocity=0 time=0.011904750000000002
EXTRACT: note_on channel=7 note=47 velocity=0 time=0
EXTRACT: note_on channel=10 note=59 velocity=0 time=0.00396825
EXTRACT: note_on channel=7 note=52 velocity=89 time=0.009920625
EXTRACT: note_on channel=7 note=59 velocity=62 time=0
EXTRACT: note_on channel=9 note=62 velocity=69 time=0
EXTRACT: note_on channel=9 note=62 velocity=0 time=0.001984125
EXTRACT: note_on channel=9 note=32 velocity=55 time=0.0079365
EXTRACT: note_on channel=9 note=44 velocity=55 time=0
EXTRACT: note_on channel=9 note=68 velocity=38 time=0
EXTRACT: note_on channel=9 note=42 velocity=66 time=0.011904750000000002
EXTRACT: note_on channel=9 note=42 velocity=0 time=0.001984125
EXTRACT: note_on channel=1 note=35 velocity=0 time=0.001984125
EXTRACT: note_on channel=7 note=52 velocity=0 time=0.023809500000000004
EXTRACT: note_on channel=7 note=59 velocity=0 time=0.005952375000000001
EXTRACT: note_on channel=9 note=32 velocity=0 time=0.0079365
EXTRACT: note_on channel=9 note=44 velocity=0 time=0.005952375000000001
EXTRACT: note_on channel=9 note=68 velocity=0 time=0.011904750000000002
EXTRACT: note_on channel=3 note=64 velocity=0 time=0
EXTRACT: note_on channel=10 note=76 velocity=0 time=0.029761875000000004
EXTRACT: note_on channel=9 note=27 velocity=87 time=0.0079365
EXTRACT: note_on channel=9 note=36 velocity=103 time=0
EXTRACT: note_on channel=9 note=42 velocity=90 time=0
EXTRACT: note_on channel=9 note=44 velocity=89 time=0
EXTRACT: note_on channel=9 note=56 velocity=78 time=0
EXTRACT: note_on channel=1 note=35 velocity=90 time=0
EXTRACT: note_on channel=10 note=59 velocity=68 time=0
EXTRACT: note_on channel=10 note=63 velocity=56 time=0
EXTRACT: note_on channel=10 note=66 velocity=56 time=0
EXTRACT: note_on channel=10 note=75 velocity=60 time=0
EXTRACT: note_on channel=3 note=68 velocity=85 time=0
EXTRACT: note_on channel=7 note=47 velocity=83 time=0
EXTRACT: note_on channel=9 note=36 velocity=126 time=0
EXTRACT: note_on channel=9 note=35 velocity=117 time=0
EXTRACT: note_on channel=9 note=44 velocity=81 time=0
EXTRACT: note_on channel=9 note=82 velocity=69 time=0
EXTRACT: note_on channel=9 note=56 velocity=87 time=0
EXTRACT: note_on channel=9 note=60 velocity=63 time=0
EXTRACT: note_on channel=9 note=60 velocity=0 time=0.001984125
EXTRACT: note_on channel=9 note=35 velocity=0 time=0
EXTRACT: note_on channel=9 note=44 velocity=0 time=0
EXTRACT: note_on channel=9 note=36 velocity=0 time=0
EXTRACT: note_on channel=9 note=56 velocity=0 time=0
EXTRACT: note_on channel=9 note=82 velocity=0 time=0
EXTRACT: note_on channel=9 note=36 velocity=0 time=0.077380875
EXTRACT: note_on channel=9 note=27 velocity=0 time=0.005952375000000001
EXTRACT: note_on channel=5 note=59 velocity=87 time=0.04365075
EXTRACT: note_on channel=5 note=63 velocity=89 time=0
EXTRACT: note_on channel=5 note=66 velocity=87 time=0
EXTRACT: note_on channel=9 note=82 velocity=43 time=0.011904750000000002
EXTRACT: note_on channel=9 note=82 velocity=0 time=0.001984125
EXTRACT: note_on channel=9 note=44 velocity=0 time=0.027777750000000004
EXTRACT: note_on channel=5 note=63 velocity=0 time=0.021825375
EXTRACT: note_on channel=5 note=66 velocity=0 time=0.0079365
EXTRACT: note_on channel=5 note=59 velocity=0 time=0.027777750000000004
EXTRACT: note_on channel=9 note=70 velocity=105 time=0.001984125
EXTRACT: note_on channel=9 note=70 velocity=0 time=0.001984125
EXTRACT: note_on channel=9 note=42 velocity=0 time=0.001984125
EXTRACT: note_on channel=1 note=35 velocity=0 time=0
EXTRACT: note_on channel=9 note=27 velocity=86 time=0.00396825
EXTRACT: note_on channel=9 note=44 velocity=60 time=0
EXTRACT: note_on channel=9 note=65 velocity=88 time=0
EXTRACT: note_on channel=9 note=67 velocity=51 time=0
EXTRACT: note_on channel=1 note=30 velocity=77 time=0
EXTRACT: note_on channel=7 note=54 velocity=74 time=0
EXTRACT: note_on channel=7 note=59 velocity=71 time=0
EXTRACT: note_on channel=9 note=42 velocity=73 time=0
EXTRACT: note_on channel=9 note=82 velocity=48 time=0
EXTRACT: note_on channel=9 note=82 velocity=0 time=0.001984125
EXTRACT: note_on channel=9 note=42 velocity=0 time=0
EXTRACT: note_on channel=9 note=44 velocity=0 time=0.031746
EXTRACT: note_on channel=7 note=59 velocity=0 time=0.001984125
EXTRACT: note_on channel=9 note=67 velocity=0 time=0.00396825
EXTRACT: note_on channel=7 note=54 velocity=0 time=0.015873
EXTRACT: note_on channel=9 note=65 velocity=0 time=0.009920625
EXTRACT: note_on channel=9 note=56 velocity=0 time=0.005952375000000001
EXTRACT: note_on channel=9 note=27 velocity=0 time=0.011904750000000002
EXTRACT: note_on channel=7 note=47 velocity=0 time=0.009920625
EXTRACT: note_on channel=7 note=54 velocity=79 time=0.025793625000000004
EXTRACT: note_on channel=7 note=59 velocity=60 time=0
EXTRACT: note_on channel=9 note=56 velocity=87 time=0
EXTRACT: note_on channel=9 note=56 velocity=0 time=0.001984125
EXTRACT: note_on channel=9 note=44 velocity=63 time=0.0079365
EXTRACT: note_on channel=9 note=65 velocity=80 time=0
EXTRACT: note_on channel=9 note=67 velocity=36 time=0
EXTRACT: note_on channel=9 note=42 velocity=66 time=0.011904750000000002
EXTRACT: note_on channel=9 note=82 velocity=40 time=0
EXTRACT: note_on channel=9 note=82 velocity=0 time=0.001984125
EXTRACT: note_on channel=9 note=42 velocity=0 time=0
EXTRACT: note_on channel=9 note=67 velocity=0 time=0.029761875000000004
EXTRACT: note_on channel=9 note=65 velocity=0 time=0.011904750000000002
EXTRACT: note_on channel=9 note=44 velocity=0 time=0.00396825
EXTRACT: note_on channel=7 note=54 velocity=0 time=0.01984125
EXTRACT: note_on channel=7 note=59 velocity=0 time=0.00396825
EXTRACT: note_on channel=1 note=30 velocity=0 time=0.017857125
EXTRACT: note_on channel=3 note=68 velocity=0 time=0.00396825
EXTRACT: note_on channel=9 note=28 velocity=85 time=0.00396825
EXTRACT: note_on channel=9 note=32 velocity=87 time=0
EXTRACT: note_on channel=9 note=36 velocity=103 time=0
EXTRACT: note_on channel=9 note=39 velocity=99 time=0
EXTRACT: note_on channel=9 note=42 velocity=84 time=0
EXTRACT: note_on channel=9 note=56 velocity=78 time=0
EXTRACT: note_on channel=9 note=66 velocity=83 time=0
EXTRACT: note_on channel=1 note=33 velocity=87 time=0
EXTRACT: note_on channel=3 note=66 velocity=83 time=0
EXTRACT: note_on channel=5 note=59 velocity=90 time=0
EXTRACT: note_on channel=5 note=63 velocity=90 time=0
EXTRACT: note_on channel=5 note=66 velocity=87 time=0
EXTRACT: note_on channel=7 note=47 velocity=88 time=0
EXTRACT: note_on channel=9 note=39 velocity=121 time=0
EXTRACT: note_on channel=9 note=40 velocity=117 time=0
EXTRACT: note_on channel=9 note=36 velocity=126 time=0
EXTRACT: note_on channel=9 note=35 velocity=117 time=0
EXTRACT: note_on channel=9 note=44 velocity=81 time=0
EXTRACT: note_on channel=9 note=82 velocity=69 time=0
EXTRACT: note_on channel=9 note=82 velocity=0 time=0.001984125
EXTRACT: note_on channel=9 note=40 velocity=0 time=0
EXTRACT: note_on channel=9 note=36 velocity=0 time=0
EXTRACT: note_on channel=9 note=39 velocity=0 time=0
EXTRACT: note_on channel=9 note=44 velocity=0 time=0
EXTRACT: note_on channel=9 note=35 velocity=0 time=0
EXTRACT: note_on channel=9 note=32 velocity=0 time=0.063492
EXTRACT: note_on channel=9 note=39 velocity=0 time=0.005952375000000001
EXTRACT: note_on channel=9 note=28 velocity=0 time=0.001984125
EXTRACT: note_on channel=9 note=36 velocity=0 time=0.005952375000000001
EXTRACT: note_on channel=9 note=66 velocity=0 time=0.00396825
EXTRACT: note_on channel=1 note=33 velocity=0 time=0.10714275000000001
EXTRACT: note_on channel=9 note=42 velocity=0 time=0.017857125
EXTRACT: note_on channel=9 note=70 velocity=105 time=0.023809500000000004
EXTRACT: note_on channel=9 note=70 velocity=0 time=0.001984125
EXTRACT: note_on channel=9 note=32 velocity=74 time=0.00396825
EXTRACT: note_on channel=9 note=36 velocity=91 time=0
EXTRACT: note_on channel=9 note=44 velocity=60 time=0
EXTRACT: note_on channel=9 note=66 velocity=71 time=0
EXTRACT: note_on channel=9 note=68 velocity=44 time=0
EXTRACT: note_on channel=1 note=35 velocity=85 time=0
EXTRACT: note_on channel=7 note=54 velocity=83 time=0
EXTRACT: note_on channel=7 note=59 velocity=79 time=0
EXTRACT: note_on channel=9 note=42 velocity=73 time=0
EXTRACT: note_on channel=9 note=69 velocity=78 time=0
EXTRACT: note_on channel=9 note=56 velocity=87 time=0
EXTRACT: note_on channel=7 note=47 velocity=0 time=0.001984125
EXTRACT: note_on channel=9 note=56 velocity=0 time=0
EXTRACT: note_on channel=9 note=69 velocity=0 time=0
EXTRACT: note_on channel=9 note=42 velocity=0 time=0
EXTRACT: note_on channel=9 note=68 velocity=0 time=0.023809500000000004
EXTRACT: note_on channel=9 note=44 velocity=0 time=0.01984125
EXTRACT: note_on channel=9 note=36 velocity=0 time=0.0079365
EXTRACT: note_on channel=9 note=32 velocity=0 time=0.005952375000000001
EXTRACT: note_on channel=9 note=56 velocity=0 time=0.001984125
EXTRACT: note_on channel=9 note=66 velocity=0 time=0.0079365
EXTRACT: note_on channel=7 note=54 velocity=0 time=0.001984125
EXTRACT: note_on channel=7 note=59 velocity=0 time=0.00396825
EXTRACT: note_on channel=5 note=63 velocity=0 time=0.015873
EXTRACT: note_on channel=5 note=66 velocity=0 time=0.0079365
EXTRACT: note_on channel=5 note=59 velocity=0 time=0.009920625
EXTRACT: note_on channel=10 note=63 velocity=0 time=0.005952375000000001
EXTRACT: note_on channel=7 note=54 velocity=84 time=0.00396825
EXTRACT: note_on channel=7 note=59 velocity=66 time=0
EXTRACT: note_on channel=10 note=66 velocity=0 time=0.005952375000000001
EXTRACT: note_on channel=9 note=32 velocity=69 time=0.00396825
EXTRACT: note_on channel=9 note=44 velocity=58 time=0
EXTRACT: note_on channel=9 note=65 velocity=75 time=0
EXTRACT: note_on channel=9 note=68 velocity=50 time=0
EXTRACT: note_on channel=9 note=42 velocity=66 time=0.011904750000000002
EXTRACT: note_on channel=9 note=69 velocity=73 time=0
EXTRACT: note_on channel=9 note=69 velocity=0 time=0.001984125
EXTRACT: note_on channel=9 note=42 velocity=0 time=0
EXTRACT: note_on channel=3 note=66 velocity=0 time=0.005952375000000001
EXTRACT: note_on channel=1 note=35 velocity=0 time=0.001984125
EXTRACT: note_on channel=10 note=59 velocity=0 time=0.011904750000000002
EXTRACT: note_on channel=9 note=68 velocity=0 time=0.027777750000000004
EXTRACT: note_on channel=9 note=44 velocity=0 time=0
EXTRACT: note_on channel=9 note=32 velocity=0 time=0.00396825
EXTRACT: note_on channel=7 note=54 velocity=0 time=0.0079365
EXTRACT: note_on channel=7 note=59 velocity=0 time=0.017857125
EXTRACT: note_on channel=9 note=27 velocity=94 time=0.017857125
EXTRACT: note_on channel=9 note=36 velocity=105 time=0
EXTRACT: note_on channel=9 note=42 velocity=88 time=0
EXTRACT: note_on channel=9 note=49 velocity=94 time=0
EXTRACT: note_on channel=9 note=56 velocity=83 time=0
EXTRACT: note_on channel=1 note=37 velocity=82 time=0
EXTRACT: note_on channel=10 note=61 velocity=60 time=0
EXTRACT: note_on channel=10 note=64 velocity=51 time=0
EXTRACT: note_on channel=10 note=68 velocity=53 time=0
EXTRACT: note_on channel=10 note=76 velocity=79 time=0
EXTRACT: note_on channel=3 note=68 velocity=80 time=0
EXTRACT: note_on channel=5 note=61 velocity=80 time=0
EXTRACT: note_on channel=5 note=64 velocity=87 time=0
EXTRACT: note_on channel=5 note=68 velocity=86 time=0
EXTRACT: note_on channel=7 note=49 velocity=90 time=0
EXTRACT: note_on channel=9 note=36 velocity=126 time=0
EXTRACT: note_on channel=9 note=35 velocity=117 time=0
EXTRACT: note_on channel=9 note=35 velocity=0 time=0.001984125
EXTRACT: note_on channel=9 note=36 velocity=0 time=0
EXTRACT: note_on channel=9 note=65 velocity=0 time=0.00396825
EXTRACT: note_on channel=10 note=75 velocity=0 time=0
EXTRACT: note_on channel=5 note=64 velocity=0 time=0.05555550000000001
EXTRACT: note_on channel=9 note=27 velocity=0 time=0.00396825
EXTRACT: note_on channel=9 note=36 velocity=0 time=0.005952375000000001
EXTRACT: note_on channel=5 note=68 velocity=0 time=0.017857125
EXTRACT: note_on channel=5 note=61 velocity=0 time=0.045634875000000005
EXTRACT: note_on channel=9 note=69 velocity=84 time=0.005952375000000001
EXTRACT: note_on channel=9 note=69 velocity=0 time=0.001984125
EXTRACT: note_on channel=1 note=37 velocity=0 time=0.03571425
EXTRACT: note_on channel=9 note=42 velocity=0 time=0.05555550000000001
EXTRACT: note_on channel=3 note=68 velocity=0 time=0
EXTRACT: note_on channel=9 note=70 velocity=105 time=0
EXTRACT: note_on channel=9 note=27 velocity=79 time=0.00396825
EXTRACT: note_on channel=9 note=44 velocity=60 time=0
EXTRACT: note_on channel=9 note=67 velocity=37 time=0
EXTRACT: note_on channel=1 note=37 velocity=83 time=0
EXTRACT: note_on channel=3 note=64 velocity=80 time=0
EXTRACT: note_on channel=7 note=49 velocity=0 time=0
EXTRACT: note_on channel=7 note=56 velocity=77 time=0
EXTRACT: note_on channel=7 note=61 velocity=60 time=0
EXTRACT: note_on channel=9 note=70 velocity=0 time=0
EXTRACT: note_on channel=9 note=42 velocity=73 time=0
EXTRACT: note_on channel=9 note=62 velocity=79 time=0
EXTRACT: note_on channel=9 note=62 velocity=0 time=0.001984125
EXTRACT: note_on channel=9 note=42 velocity=0 time=0
EXTRACT: note_on channel=9 note=67 velocity=0 time=0.0396825
EXTRACT: note_on channel=7 note=61 velocity=0 time=0.0079365
EXTRACT: note_on channel=9 note=44 velocity=0 time=0.005952375000000001
EXTRACT: note_on channel=7 note=56 velocity=0 time=0
EXTRACT: note_on channel=9 note=56 velocity=0 time=0.0079365
EXTRACT: note_on channel=9 note=27 velocity=0 time=0.0079365
EXTRACT: note_on channel=7 note=56 velocity=88 time=0.04761900000000001
EXTRACT: note_on channel=7 note=61 velocity=73 time=0
EXTRACT: note_on channel=9 note=61 velocity=69 time=0
EXTRACT: note_on channel=9 note=61 velocity=0 time=0.001984125
EXTRACT: note_on channel=9 note=32 velocity=71 time=0.0079365
EXTRACT: note_on channel=9 note=67 velocity=29 time=0
EXTRACT: note_on channel=5 note=61 velocity=82 time=0
EXTRACT: note_on channel=5 note=64 velocity=85 time=0
EXTRACT: note_on channel=5 note=68 velocity=84 time=0
EXTRACT: note_on channel=9 note=44 velocity=69 time=0.009920625
EXTRACT: note_on channel=9 note=42 velocity=66 time=0.001984125
EXTRACT: note_on channel=9 note=69 velocity=68 time=0
EXTRACT: note_on channel=9 note=69 velocity=0 time=0.001984125
EXTRACT: note_on channel=9 note=42 velocity=0 time=0
EXTRACT: note_on channel=9 note=67 velocity=0 time=0.029761875000000004
EXTRACT: note_on channel=7 note=56 velocity=0 time=0.017857125
EXTRACT: note_on channel=5 note=64 velocity=0 time=0.0079365
EXTRACT: note_on channel=7 note=61 velocity=0 time=0.005952375000000001
EXTRACT: note_on channel=9 note=32 velocity=0 time=0.009920625
EXTRACT: note_on channel=9 note=44 velocity=0 time=0.005952375000000001
EXTRACT: note_on channel=3 note=64 velocity=0 time=0.00396825
EXTRACT: note_on channel=5 note=68 velocity=0 time=0.00396825
EXTRACT: note_on channel=1 note=37 velocity=0 time=0.005952375000000001
EXTRACT: note_on channel=9 note=28 velocity=74 time=0.00396825
EXTRACT: note_on channel=9 note=36 velocity=99 time=0
EXTRACT: note_on channel=9 note=39 velocity=101 time=0
EXTRACT: note_on channel=9 note=42 velocity=90 time=0
EXTRACT: note_on channel=9 note=56 velocity=80 time=0
EXTRACT: note_on channel=1 note=40 velocity=84 time=0
EXTRACT: note_on channel=3 note=68 velocity=74 time=0
EXTRACT: note_on channel=7 note=52 velocity=99 time=0
EXTRACT: note_on channel=9 note=39 velocity=121 time=0
EXTRACT: note_on channel=9 note=36 velocity=126 time=0
EXTRACT: note_on channel=9 note=35 velocity=117 time=0
EXTRACT: note_on channel=9 note=40 velocity=117 time=0
EXTRACT: note_on channel=9 note=44 velocity=81 time=0
EXTRACT: note_on channel=9 note=44 velocity=0 time=0.001984125
EXTRACT: note_on channel=9 note=35 velocity=0 time=0
EXTRACT: note_on channel=9 note=39 velocity=0 time=0
EXTRACT: note_on channel=9 note=36 velocity=0 time=0
EXTRACT: note_on channel=9 note=40 velocity=0 time=0
EXTRACT: note_on channel=5 note=61 velocity=0 time=0.029761875000000004
EXTRACT: note_on channel=9 note=39 velocity=0 time=0.0396825
EXTRACT: note_on channel=9 note=36 velocity=0 time=0.00396825
EXTRACT: note_on channel=9 note=28 velocity=0 time=0.015873
EXTRACT: note_on channel=9 note=62 velocity=73 time=0.027777750000000004
EXTRACT: note_on channel=9 note=62 velocity=0 time=0.001984125
EXTRACT: note_on channel=9 note=32 velocity=59 time=0.0079365
EXTRACT: note_on channel=9 note=32 velocity=0 time=0.053571375000000004
EXTRACT: note_on channel=9 note=42 velocity=0 time=0.05158725000000001
EXTRACT: note_on channel=1 note=40 velocity=0 time=0
EXTRACT: note_on channel=3 note=68 velocity=0 time=0
EXTRACT: note_on channel=9 note=32 velocity=63 time=0.00396825
EXTRACT: note_on channel=9 note=44 velocity=44 time=0
EXTRACT: note_on channel=9 note=68 velocity=62 time=0
EXTRACT: note_on channel=1 note=44 velocity=92 time=0
EXTRACT: note_on channel=3 note=73 velocity=76 time=0
EXTRACT: note_on channel=5 note=61 velocity=87 time=0
EXTRACT: note_on channel=5 note=64 velocity=91 time=0
EXTRACT: note_on channel=5 note=68 velocity=89 time=0
EXTRACT: note_on channel=7 note=56 velocity=77 time=0
EXTRACT: note_on channel=7 note=61 velocity=57 time=0
EXTRACT: note_on channel=9 note=42 velocity=73 time=0
EXTRACT: note_on channel=9 note=61 velocity=66 time=0
EXTRACT: note_on channel=9 note=61 velocity=0 time=0.001984125
EXTRACT: note_on channel=9 note=42 velocity=0 time=0
EXTRACT: note_on channel=9 note=70 velocity=105 time=0.001984125
EXTRACT: note_on channel=9 note=70 velocity=0 time=0.001984125
EXTRACT: note_on channel=5 note=64 velocity=0 time=0.053571375000000004
EXTRACT: note_on channel=7 note=56 velocity=0 time=0.001984125
EXTRACT: note_on channel=9 note=68 velocity=0 time=0.00396825
EXTRACT: note_on channel=9 note=44 velocity=0 time=0
EXTRACT: note_on channel=10 note=64 velocity=0 time=0
EXTRACT: note_on channel=7 note=61 velocity=0 time=0
EXTRACT: note_on channel=9 note=32 velocity=0 time=0.005952375000000001
EXTRACT: note_on channel=7 note=52 velocity=0 time=0.0079365
EXTRACT: note_on channel=10 note=68 velocity=0 time=0.001984125
EXTRACT: note_on channel=9 note=56 velocity=0 time=0.001984125
EXTRACT: note_on channel=5 note=68 velocity=0 time=0.021825375
EXTRACT: note_on channel=7 note=56 velocity=83 time=0.013888875000000002
EXTRACT: note_on channel=7 note=61 velocity=72 time=0
EXTRACT: note_on channel=10 note=61 velocity=0 time=0.001984125
EXTRACT: note_on channel=5 note=61 velocity=0 time=0
EXTRACT: note_on channel=9 note=49 velocity=0 time=0.00396825
EXTRACT: note_on channel=9 note=32 velocity=62 time=0.00396825
EXTRACT: note_on channel=9 note=56 velocity=79 time=0
EXTRACT: note_on channel=9 note=68 velocity=36 time=0
EXTRACT: note_on channel=9 note=44 velocity=59 time=0.009920625
EXTRACT: note_on channel=9 note=42 velocity=66 time=0.001984125
EXTRACT: note_on channel=9 note=82 velocity=48 time=0
EXTRACT: note_on channel=9 note=82 velocity=0 time=0.001984125
EXTRACT: note_on channel=9 note=42 velocity=0 time=0
EXTRACT: note_on channel=9 note=68 velocity=0 time=0.021825375
EXTRACT: note_on channel=1 note=44 velocity=0 time=0.013888875000000002
EXTRACT: note_on channel=7 note=56 velocity=0 time=0.013888875000000002
EXTRACT: note_on channel=7 note=61 velocity=0 time=0.005952375000000001
EXTRACT: note_on channel=9 note=32 velocity=0 time=0.00396825
EXTRACT: note_on channel=9 note=44 velocity=0 time=0.01984125
EXTRACT: note_on channel=10 note=76 velocity=0 time=0.001984125
EXTRACT: note_on channel=3 note=73 velocity=0 time=0.009920625
EXTRACT: note_on channel=9 note=27 velocity=88 time=0.00396825
EXTRACT: note_on channel=9 note=36 velocity=101 time=0
EXTRACT: note_on channel=9 note=42 velocity=93 time=0
EXTRACT: note_on channel=10 note=57 velocity=38 time=0
EXTRACT: note_on channel=10 note=61 velocity=55 time=0
EXTRACT: note_on channel=10 note=66 velocity=59 time=0
EXTRACT: note_on channel=10 note=78 velocity=67 time=0
EXTRACT: note_on channel=3 note=69 velocity=85 time=0
EXTRACT: note_on channel=7 note=54 velocity=88 time=0
EXTRACT: note_on channel=9 note=36 velocity=126 time=0
EXTRACT: note_on channel=9 note=35 velocity=117 time=0
EXTRACT: note_on channel=9 note=44 velocity=81 time=0
EXTRACT: note_on channel=9 note=82 velocity=55 time=0
EXTRACT: note_on channel=9 note=56 velocity=80 time=0
EXTRACT: note_on channel=9 note=56 velocity=0 time=0.001984125
EXTRACT: note_on channel=9 note=44 velocity=0 time=0
EXTRACT: note_on channel=9 note=36 velocity=0 time=0
EXTRACT: note_on channel=9 note=35 velocity=0 time=0
EXTRACT: note_on channel=9 note=82 velocity=0 time=0
EXTRACT: note_on channel=9 note=27 velocity=0 time=0.0714285
EXTRACT: note_on channel=9 note=36 velocity=0 time=0.005952375000000001
EXTRACT: note_on channel=9 note=27 velocity=64 time=0.049603125000000005
EXTRACT: note_on channel=5 note=61 velocity=84 time=0
EXTRACT: note_on channel=5 note=66 velocity=84 time=0
EXTRACT: note_on channel=5 note=69 velocity=98 time=0
EXTRACT: note_on channel=9 note=82 velocity=63 time=0.011904750000000002
EXTRACT: note_on channel=9 note=82 velocity=0 time=0.001984125
EXTRACT: note_on channel=9 note=56 velocity=0 time=0.0396825
EXTRACT: note_on channel=9 note=27 velocity=0 time=0.0079365
EXTRACT: note_on channel=5 note=69 velocity=0 time=0.001984125
EXTRACT: note_on channel=5 note=66 velocity=0 time=0.001984125
EXTRACT: note_on channel=5 note=61 velocity=0 time=0.01984125
EXTRACT: note_on channel=9 note=42 velocity=0 time=0.01984125
EXTRACT: note_on channel=9 note=27 velocity=69 time=0.00396825
EXTRACT: note_on channel=9 note=44 velocity=67 time=0
EXTRACT: note_on channel=9 note=67 velocity=28 time=0
EXTRACT: note_on channel=1 note=30 velocity=83 time=0
EXTRACT: note_on channel=7 note=57 velocity=64 time=0
EXTRACT: note_on channel=7 note=61 velocity=47 time=0
EXTRACT: note_on channel=9 note=42 velocity=73 time=0
EXTRACT: note_on channel=9 note=82 velocity=59 time=0
EXTRACT: note_on channel=9 note=63 velocity=60 time=0
EXTRACT: note_on channel=9 note=63 velocity=0 time=0.001984125
EXTRACT: note_on channel=9 note=82 velocity=0 time=0
EXTRACT: note_on channel=9 note=42 velocity=0 time=0
EXTRACT: note_on channel=9 note=70 velocity=105 time=0.001984125
EXTRACT: note_on channel=9 note=70 velocity=0 time=0.001984125
EXTRACT: note_on channel=7 note=57 velocity=0 time=0.01984125
EXTRACT: note_on channel=9 note=67 velocity=0 time=0.015873
EXTRACT: note_on channel=7 note=61 velocity=0 time=0
EXTRACT: note_on channel=9 note=44 velocity=0 time=0.017857125
EXTRACT: note_on channel=9 note=27 velocity=0 time=0.01984125
EXTRACT: note_on channel=7 note=54 velocity=0 time=0.029761875000000004
EXTRACT: note_on channel=7 note=57 velocity=76 time=0.009920625
EXTRACT: note_on channel=7 note=61 velocity=64 time=0
EXTRACT: note_on channel=9 note=56 velocity=89 time=0
EXTRACT: note_on channel=9 note=56 velocity=0 time=0.001984125
EXTRACT: note_on channel=9 note=67 velocity=42 time=0.0079365
EXTRACT: note_on channel=9 note=44 velocity=67 time=0.009920625
EXTRACT: note_on channel=9 note=42 velocity=66 time=0.001984125
EXTRACT: note_on channel=9 note=82 velocity=45 time=0
EXTRACT: note_on channel=9 note=82 velocity=0 time=0.001984125
EXTRACT: note_on channel=9 note=42 velocity=0 time=0
EXTRACT: note_on channel=9 note=67 velocity=0 time=0.029761875000000004
EXTRACT: note_on channel=3 note=69 velocity=0 time=0.0079365
EXTRACT: note_on channel=7 note=57 velocity=0 time=0.00396825
EXTRACT: note_on channel=7 note=61 velocity=0 time=0.01984125
EXTRACT: note_on channel=9 note=44 velocity=0 time=0.023809500000000004
EXTRACT: note_on channel=1 note=30 velocity=0 time=0.005952375000000001
EXTRACT: note_on channel=9 note=28 velocity=79 time=0.00396825
EXTRACT: note_on channel=9 note=32 velocity=78 time=0
EXTRACT: note_on channel=9 note=36 velocity=101 time=0
EXTRACT: note_on channel=9 note=39 velocity=96 time=0
EXTRACT: note_on channel=9 note=42 velocity=88 time=0
EXTRACT: note_on channel=9 note=56 velocity=80 time=0
EXTRACT: note_on channel=1 note=37 velocity=85 time=0
EXTRACT: note_on channel=5 note=61 velocity=86 time=0
EXTRACT: note_on channel=5 note=66 velocity=83 time=0
EXTRACT: note_on channel=5 note=69 velocity=98 time=0
EXTRACT: note_on channel=7 note=54 velocity=85 time=0
EXTRACT: note_on channel=9 note=36 velocity=126 time=0
EXTRACT: note_on channel=9 note=35 velocity=117 time=0
EXTRACT: note_on channel=9 note=39 velocity=121 time=0
EXTRACT: note_on channel=9 note=40 velocity=117 time=0
EXTRACT: note_on channel=9 note=44 velocity=81 time=0
EXTRACT: note_on channel=9 note=82 velocity=60 time=0
EXTRACT: note_on channel=9 note=82 velocity=0 time=0.001984125
EXTRACT: note_on channel=9 note=35 velocity=0 time=0
EXTRACT: note_on channel=9 note=39 velocity=0 time=0
EXTRACT: note_on channel=9 note=36 velocity=0 time=0
EXTRACT: note_on channel=9 note=44 velocity=0 time=0
EXTRACT: note_on channel=9 note=40 velocity=0 time=0
EXTRACT: note_on channel=9 note=28 velocity=0 time=0.06746025000000001
EXTRACT: note_on channel=9 note=39 velocity=0 time=0.00396825
EXTRACT: note_on channel=9 note=32 velocity=0 time=0.005952375000000001
EXTRACT: note_on channel=9 note=36 velocity=0 time=0
EXTRACT: note_on channel=9 note=70 velocity=105 time=0.15277762500000003
EXTRACT: note_on channel=9 note=42 velocity=0 time=0.001984125
EXTRACT: note_on channel=1 note=37 velocity=0 time=0
EXTRACT: note_on channel=9 note=70 velocity=0 time=0
EXTRACT: note_on channel=9 note=32 velocity=67 time=0.00396825
EXTRACT: note_on channel=9 note=44 velocity=70 time=0
EXTRACT: note_on channel=9 note=68 velocity=26 time=0
EXTRACT: note_on channel=1 note=30 velocity=79 time=0
EXTRACT: note_on channel=7 note=57 velocity=75 time=0
EXTRACT: note_on channel=7 note=61 velocity=63 time=0
EXTRACT: note_on channel=9 note=42 velocity=75 time=0
EXTRACT: note_on channel=9 note=69 velocity=87 time=0
EXTRACT: note_on channel=9 note=56 velocity=87 time=0
EXTRACT: note_on channel=9 note=56 velocity=0 time=0.001984125
EXTRACT: note_on channel=9 note=69 velocity=0 time=0
EXTRACT: note_on channel=9 note=42 velocity=0 time=0
EXTRACT: note_on channel=9 note=68 velocity=0 time=0.03373012500000001
EXTRACT: note_on channel=7 note=54 velocity=0 time=0
EXTRACT: note_on channel=9 note=32 velocity=0 time=0.015873
EXTRACT: note_on channel=7 note=57 velocity=0 time=0.001984125
EXTRACT: note_on channel=9 note=56 velocity=0 time=0.001984125
EXTRACT: note_on channel=9 note=44 velocity=0 time=0.0079365
EXTRACT: note_on channel=7 note=61 velocity=0 time=0.001984125
EXTRACT: note_on channel=10 note=61 velocity=0 time=0.027777750000000004
EXTRACT: note_on channel=5 note=66 velocity=0 time=0.005952375000000001
EXTRACT: note_on channel=10 note=66 velocity=0 time=0.00396825
EXTRACT: note_on channel=5 note=69 velocity=0 time=0
EXTRACT: note_on channel=7 note=57 velocity=78 time=0.015873
EXTRACT: note_on channel=7 note=61 velocity=62 time=0
EXTRACT: note_on channel=9 note=62 velocity=64 time=0
EXTRACT: note_on channel=9 note=62 velocity=0 time=0.001984125
EXTRACT: note_on channel=9 note=32 velocity=64 time=0.0079365
EXTRACT: note_on channel=9 note=68 velocity=51 time=0
EXTRACT: note_on channel=10 note=57 velocity=0 time=0.001984125
EXTRACT: note_on channel=5 note=61 velocity=0 time=0
EXTRACT: note_on channel=9 note=44 velocity=68 time=0.0079365
EXTRACT: note_on channel=9 note=42 velocity=66 time=0.001984125
EXTRACT: note_on channel=9 note=69 velocity=69 time=0
EXTRACT: note_on channel=9 note=69 velocity=0 time=0.001984125
EXTRACT: note_on channel=9 note=42 velocity=0 time=0
EXTRACT: note_on channel=7 note=57 velocity=0 time=0.037698375000000006
EXTRACT: note_on channel=9 note=32 velocity=0 time=0.013888875000000002
EXTRACT: note_on channel=9 note=68 velocity=0 time=0.005952375000000001
EXTRACT: note_on channel=7 note=61 velocity=0 time=0.011904750000000002
EXTRACT: note_on channel=1 note=30 velocity=0 time=0.011904750000000002
EXTRACT: note_on channel=9 note=44 velocity=0 time=0.00396825
EXTRACT: note_on channel=10 note=78 velocity=0 time=0.005952375000000001
EXTRACT: note_on channel=9 note=27 velocity=92 time=0.00396825
EXTRACT: note_on channel=9 note=36 velocity=101 time=0
EXTRACT: note_on channel=9 note=42 velocity=93 time=0
EXTRACT: note_on channel=9 note=56 velocity=76 time=0
EXTRACT: note_on channel=1 note=35 velocity=80 time=0
EXTRACT: note_on channel=10 note=59 velocity=68 time=0
EXTRACT: note_on channel=10 note=63 velocity=56 time=0
EXTRACT: note_on channel=10 note=66 velocity=53 time=0
EXTRACT: note_on channel=10 note=83 velocity=60 time=0
EXTRACT: note_on channel=3 note=66 velocity=82 time=0
EXTRACT: note_on channel=5 note=59 velocity=88 time=0
EXTRACT: note_on channel=5 note=63 velocity=86 time=0
EXTRACT: note_on channel=5 note=66 velocity=84 time=0
EXTRACT: note_on channel=7 note=51 velocity=91 time=0
EXTRACT: note_on channel=9 note=36 velocity=126 time=0
EXTRACT: note_on channel=9 note=35 velocity=117 time=0
EXTRACT: note_on channel=9 note=44 velocity=81 time=0
EXTRACT: note_on channel=9 note=60 velocity=69 time=0
EXTRACT: note_on channel=9 note=60 velocity=0 time=0.001984125
EXTRACT: note_on channel=9 note=36 velocity=0 time=0
EXTRACT: note_on channel=9 note=35 velocity=0 time=0
EXTRACT: note_on channel=9 note=44 velocity=0 time=0
EXTRACT: note_on channel=5 note=63 velocity=0 time=0.069444375
EXTRACT: note_on channel=5 note=66 velocity=0 time=0.00396825
EXTRACT: note_on channel=9 note=27 velocity=0 time=0.00396825
EXTRACT: note_on channel=9 note=36 velocity=0 time=0.00396825
EXTRACT: note_on channel=9 note=69 velocity=93 time=0.057539625000000004
EXTRACT: note_on channel=9 note=69 velocity=0 time=0.001984125
EXTRACT: note_on channel=1 note=35 velocity=0 time=0.015873
EXTRACT: note_on channel=5 note=59 velocity=0 time=0.013888875000000002
EXTRACT: note_on channel=9 note=42 velocity=0 time=0.061507875000000004
EXTRACT: note_on channel=3 note=66 velocity=0 time=0
EXTRACT: note_on channel=9 note=27 velocity=85 time=0.00396825
EXTRACT: note_on channel=9 note=44 velocity=62 time=0
EXTRACT: note_on channel=9 note=67 velocity=36 time=0
EXTRACT: note_on channel=1 note=35 velocity=80 time=0
EXTRACT: note_on channel=3 note=63 velocity=65 time=0
EXTRACT: note_on channel=7 note=54 velocity=73 time=0
EXTRACT: note_on channel=7 note=59 velocity=58 time=0
EXTRACT: note_on channel=9 note=42 velocity=73 time=0
EXTRACT: note_on channel=9 note=62 velocity=59 time=0
EXTRACT: note_on channel=9 note=70 velocity=105 time=0
EXTRACT: note_on channel=9 note=70 velocity=0 time=0.001984125
EXTRACT: note_on channel=9 note=62 velocity=0 time=0
EXTRACT: note_on channel=9 note=42 velocity=0 time=0
EXTRACT: note_on channel=9 note=67 velocity=0 time=0.037698375000000006
EXTRACT: note_on channel=7 note=59 velocity=0 time=0
EXTRACT: note_on channel=9 note=56 velocity=0 time=0.001984125
EXTRACT: note_on channel=9 note=44 velocity=0 time=0.01984125
EXTRACT: note_on channel=7 note=54 velocity=0 time=0.001984125
EXTRACT: note_on channel=9 note=27 velocity=0 time=0.005952375000000001
EXTRACT: note_on channel=7 note=54 velocity=78 time=0.049603125000000005
EXTRACT: note_on channel=7 note=59 velocity=78 time=0
EXTRACT: note_on channel=9 note=60 velocity=63 time=0
EXTRACT: note_on channel=9 note=60 velocity=0 time=0.001984125
EXTRACT: note_on channel=9 note=32 velocity=76 time=0.0079365
EXTRACT: note_on channel=9 note=67 velocity=46 time=0
EXTRACT: note_on channel=5 note=59 velocity=78 time=0
EXTRACT: note_on channel=5 note=63 velocity=87 time=0
EXTRACT: note_on channel=5 note=66 velocity=85 time=0
EXTRACT: note_on channel=7 note=51 velocity=0 time=0.001984125
EXTRACT: note_on channel=9 note=44 velocity=71 time=0.0079365
EXTRACT: note_on channel=9 note=42 velocity=66 time=0.001984125
EXTRACT: note_on channel=9 note=69 velocity=61 time=0
EXTRACT: note_on channel=9 note=69 velocity=0 time=0.001984125
EXTRACT: note_on channel=9 note=42 velocity=0 time=0
EXTRACT: note_on channel=5 note=63 velocity=0 time=0.05555550000000001
EXTRACT: note_on channel=9 note=67 velocity=0 time=0.001984125
EXTRACT: note_on channel=7 note=59 velocity=0 time=0
EXTRACT: note_on channel=9 note=32 velocity=0 time=0.001984125
EXTRACT: note_on channel=7 note=54 velocity=0 time=0
EXTRACT: note_on channel=5 note=66 velocity=0 time=0.0079365
EXTRACT: note_on channel=9 note=44 velocity=0 time=0.009920625
EXTRACT: note_on channel=1 note=35 velocity=0 time=0.013888875000000002
EXTRACT: note_on channel=3 note=63 velocity=0 time=0
EXTRACT: note_on channel=9 note=28 velocity=82 time=0.00396825
EXTRACT: note_on channel=9 note=36 velocity=101 time=0
EXTRACT: note_on channel=9 note=39 velocity=99 time=0
EXTRACT: note_on channel=9 note=42 velocity=92 time=0
EXTRACT: note_on channel=9 note=56 velocity=73 time=0
EXTRACT: note_on channel=1 note=39 velocity=91 time=0
EXTRACT: note_on channel=3 note=66 velocity=79 time=0
EXTRACT: note_on channel=7 note=51 velocity=91 time=0
EXTRACT: note_on channel=9 note=40 velocity=117 time=0
EXTRACT: note_on channel=9 note=36 velocity=126 time=0
EXTRACT: note_on channel=9 note=35 velocity=117 time=0
EXTRACT: note_on channel=9 note=39 velocity=121 time=0
EXTRACT: note_on channel=9 note=44 velocity=81 time=0
EXTRACT: note_on channel=9 note=69 velocity=78 time=0
EXTRACT: note_on channel=9 note=69 velocity=0 time=0.001984125
EXTRACT: note_on channel=9 note=36 velocity=0 time=0
EXTRACT: note_on channel=9 note=35 velocity=0 time=0
EXTRACT: note_on channel=9 note=40 velocity=0 time=0
EXTRACT: note_on channel=9 note=44 velocity=0 time=0
EXTRACT: note_on channel=9 note=39 velocity=0 time=0
EXTRACT: note_on channel=5 note=59 velocity=0 time=0.05158725000000001
EXTRACT: note_on channel=9 note=39 velocity=0 time=0.01984125
EXTRACT: note_on channel=9 note=28 velocity=0 time=0.001984125
EXTRACT: note_on channel=9 note=36 velocity=0 time=0.0079365
EXTRACT: note_on channel=9 note=61 velocity=73 time=0.03571425
EXTRACT: note_on channel=9 note=61 velocity=0 time=0.001984125
EXTRACT: note_on channel=9 note=32 velocity=68 time=0.0079365
EXTRACT: note_on channel=9 note=32 velocity=0 time=0.053571375000000004
EXTRACT: note_on channel=3 note=66 velocity=0 time=0.04761900000000001
EXTRACT: note_on channel=9 note=42 velocity=0 time=0.00396825
EXTRACT: note_on channel=1 note=39 velocity=0 time=0
EXTRACT: note_on channel=9 note=32 velocity=70 time=0.00396825
EXTRACT: note_on channel=9 note=44 velocity=65 time=0
EXTRACT: note_on channel=9 note=68 velocity=59 time=0
EXTRACT: note_on channel=1 note=42 velocity=85 time=0
EXTRACT: note_on channel=3 note=71 velocity=77 time=0
EXTRACT: note_on channel=5 note=59 velocity=90 time=0
EXTRACT: note_on channel=5 note=63 velocity=94 time=0
EXTRACT: note_on channel=5 note=66 velocity=87 time=0
EXTRACT: note_on channel=7 note=54 velocity=79 time=0
EXTRACT: note_on channel=7 note=59 velocity=75 time=0
EXTRACT: note_on channel=9 note=42 velocity=73 time=0
EXTRACT: note_on channel=9 note=60 velocity=66 time=0
EXTRACT: note_on channel=9 note=60 velocity=0 time=0.001984125
EXTRACT: note_on channel=9 note=42 velocity=0 time=0
EXTRACT: note_on channel=9 note=70 velocity=105 time=0
EXTRACT: note_on channel=9 note=70 velocity=0 time=0.001984125
EXTRACT: note_on channel=9 note=68 velocity=0 time=0.041666625000000006
EXTRACT: note_on channel=9 note=56 velocity=0 time=0.00396825
EXTRACT: note_on channel=9 note=44 velocity=0 time=0.005952375000000001
EXTRACT: note_on channel=9 note=32 velocity=0 time=0.0079365
EXTRACT: note_on channel=7 note=59 velocity=0 time=0.001984125
EXTRACT: note_on channel=7 note=54 velocity=0 time=0
EXTRACT: note_on channel=5 note=63 velocity=0 time=0.015873
EXTRACT: note_on channel=5 note=66 velocity=0 time=0.00396825
EXTRACT: note_on channel=7 note=54 velocity=77 time=0.03373012500000001
EXTRACT: note_on channel=7 note=59 velocity=47 time=0
EXTRACT: note_on channel=9 note=62 velocity=69 time=0
EXTRACT: note_on channel=9 note=62 velocity=0 time=0.001984125
EXTRACT: note_on channel=9 note=32 velocity=63 time=0.0079365
EXTRACT: note_on channel=9 note=68 velocity=54 time=0
EXTRACT: note_on channel=5 note=59 velocity=0 time=0
EXTRACT: note_on channel=10 note=63 velocity=0 time=0.00396825
EXTRACT: note_on channel=9 note=44 velocity=65 time=0.005952375000000001
EXTRACT: note_on channel=10 note=59 velocity=0 time=0.001984125
EXTRACT: note_on channel=9 note=42 velocity=66 time=0
EXTRACT: note_on channel=9 note=42 velocity=0 time=0.001984125
EXTRACT: note_on channel=7 note=51 velocity=0 time=0.0079365
EXTRACT: note_on channel=10 note=66 velocity=0 time=0.013888875000000002
EXTRACT: note_on channel=7 note=54 velocity=0 time=0.025793625000000004
EXTRACT: note_on channel=9 note=32 velocity=0 time=0.001984125
EXTRACT: note_on channel=9 note=68 velocity=0 time=0.001984125
EXTRACT: note_on channel=7 note=59 velocity=0 time=0.005952375000000001
EXTRACT: note_on channel=9 note=44 velocity=0 time=0.013888875000000002
EXTRACT: note_on channel=1 note=42 velocity=0 time=0.00396825
EXTRACT: note_on channel=10 note=83 velocity=0 time=0.009920625
EXTRACT: note_on channel=3 note=71 velocity=0 time=0.005952375000000001
EXTRACT: note_on channel=9 note=27 velocity=87 time=0.00396825
EXTRACT: note_on channel=9 note=36 velocity=101 time=0
EXTRACT: note_on channel=9 note=42 velocity=93 time=0
EXTRACT: note_on channel=9 note=56 velocity=70 time=0
EXTRACT: note_on channel=10 note=56 velocity=57 time=0
EXTRACT: note_on channel=10 note=59 velocity=49 time=0
EXTRACT: note_on channel=10 note=64 velocity=69 time=0
EXTRACT: note_on channel=10 note=80 velocity=65 time=0
EXTRACT: note_on channel=3 note=68 velocity=84 time=0
EXTRACT: note_on channel=7 note=52 velocity=91 time=0
EXTRACT: note_on channel=9 note=36 velocity=126 time=0
EXTRACT: note_on channel=9 note=35 velocity=117 time=0
EXTRACT: note_on channel=9 note=44 velocity=81 time=0
EXTRACT: note_on channel=9 note=82 velocity=69 time=0
EXTRACT: note_on channel=9 note=56 velocity=87 time=0
EXTRACT: note_on channel=9 note=60 velocity=63 time=0
EXTRACT: note_on channel=9 note=60 velocity=0 time=0.001984125
EXTRACT: note_on channel=9 note=35 velocity=0 time=0
EXTRACT: note_on channel=9 note=44 velocity=0 time=0
EXTRACT: note_on channel=9 note=36 velocity=0 time=0
EXTRACT: note_on channel=9 note=56 velocity=0 time=0
EXTRACT: note_on channel=9 note=82 velocity=0 time=0
EXTRACT: note_on channel=9 note=27 velocity=0 time=0.06746025000000001
EXTRACT: note_on channel=9 note=36 velocity=0 time=0.013888875000000002
EXTRACT: note_on channel=9 note=32 velocity=76 time=0.045634875000000005
EXTRACT: note_on channel=5 note=59 velocity=81 time=0
EXTRACT: note_on channel=5 note=64 velocity=99 time=0
EXTRACT: note_on channel=5 note=68 velocity=90 time=0
EXTRACT: note_on channel=9 note=82 velocity=43 time=0.011904750000000002
EXTRACT: note_on channel=9 note=82 velocity=0 time=0.001984125
EXTRACT: note_on channel=5 note=64 velocity=0 time=0.045634875000000005
EXTRACT: note_on channel=9 note=32 velocity=0 time=0.00396825
EXTRACT: note_on channel=5 note=59 velocity=0 time=0.001984125
EXTRACT: note_on channel=5 note=68 velocity=0 time=0.013888875000000002
EXTRACT: note_on channel=9 note=70 velocity=105 time=0.021825375
EXTRACT: note_on channel=9 note=70 velocity=0 time=0.001984125
EXTRACT: note_on channel=9 note=42 velocity=0 time=0.001984125
EXTRACT: note_on channel=9 note=27 velocity=58 time=0.00396825
EXTRACT: note_on channel=9 note=44 velocity=66 time=0
EXTRACT: note_on channel=9 note=67 velocity=43 time=0
EXTRACT: note_on channel=1 note=40 velocity=95 time=0
EXTRACT: note_on channel=7 note=56 velocity=74 time=0
EXTRACT: note_on channel=7 note=59 velocity=79 time=0
EXTRACT: note_on channel=9 note=42 velocity=73 time=0
EXTRACT: note_on channel=9 note=82 velocity=48 time=0
EXTRACT: note_on channel=9 note=82 velocity=0 time=0.001984125
EXTRACT: note_on channel=9 note=42 velocity=0 time=0
EXTRACT: note_on channel=9 note=67 velocity=0 time=0.03373012500000001
EXTRACT: note_on channel=9 note=27 velocity=0 time=0.009920625
EXTRACT: note_on channel=7 note=59 velocity=0 time=0.0079365
EXTRACT: note_on channel=9 note=56 velocity=0 time=0.001984125
EXTRACT: note_on channel=9 note=44 velocity=0 time=0.00396825
EXTRACT: note_on channel=7 note=56 velocity=0 time=0.00396825
EXTRACT: note_on channel=7 note=52 velocity=0 time=0.027777750000000004
EXTRACT: note_on channel=7 note=56 velocity=79 time=0.027777750000000004
EXTRACT: note_on channel=7 note=59 velocity=61 time=0
EXTRACT: note_on channel=9 note=56 velocity=87 time=0
EXTRACT: note_on channel=9 note=56 velocity=0 time=0.001984125
EXTRACT: note_on channel=9 note=67 velocity=40 time=0.0079365
EXTRACT: note_on channel=9 note=44 velocity=69 time=0.009920625
EXTRACT: note_on channel=9 note=42 velocity=66 time=0.001984125
EXTRACT: note_on channel=9 note=82 velocity=40 time=0
EXTRACT: note_on channel=9 note=82 velocity=0 time=0.001984125
EXTRACT: note_on channel=9 note=42 velocity=0 time=0
EXTRACT: note_on channel=9 note=67 velocity=0 time=0.04761900000000001
EXTRACT: note_on channel=7 note=59 velocity=0 time=0.001984125
EXTRACT: note_on channel=7 note=56 velocity=0 time=0.011904750000000002
EXTRACT: note_on channel=9 note=44 velocity=0 time=0.013888875000000002
EXTRACT: note_on channel=1 note=40 velocity=0 time=0.009920625
EXTRACT: note_on channel=3 note=68 velocity=0 time=0.005952375000000001
EXTRACT: note_on channel=9 note=28 velocity=85 time=0.00396825
EXTRACT: note_on channel=9 note=32 velocity=88 time=0
EXTRACT: note_on channel=9 note=36 velocity=101 time=0
EXTRACT: note_on channel=9 note=39 velocity=99 time=0
EXTRACT: note_on channel=9 note=42 velocity=90 time=0
EXTRACT: note_on channel=9 note=56 velocity=70 time=0
EXTRACT: note_on channel=1 note=35 velocity=84 time=0
EXTRACT: note_on channel=3 note=66 velocity=77 time=0
EXTRACT: note_on channel=5 note=59 velocity=92 time=0
EXTRACT: note_on channel=5 note=64 velocity=99 time=0
EXTRACT: note_on channel=5 note=68 velocity=92 time=0
EXTRACT: note_on channel=7 note=52 velocity=95 time=0
EXTRACT: note_on channel=9 note=39 velocity=121 time=0
EXTRACT: note_on channel=9 note=40 velocity=117 time=0
EXTRACT: note_on channel=9 note=36 velocity=126 time=0
EXTRACT: note_on channel=9 note=35 velocity=117 time=0
EXTRACT: note_on channel=9 note=44 velocity=81 time=0
EXTRACT: note_on channel=9 note=82 velocity=69 time=0
EXTRACT: note_on channel=5 note=64 velocity=0 time=0.001984125
EXTRACT: note_on channel=9 note=82 velocity=0 time=0
EXTRACT: note_on channel=9 note=40 velocity=0 time=0
EXTRACT: note_on channel=9 note=36 velocity=0 time=0
EXTRACT: note_on channel=9 note=39 velocity=0 time=0
EXTRACT: note_on channel=9 note=44 velocity=0 time=0
EXTRACT: note_on channel=9 note=35 velocity=0 time=0
EXTRACT: note_on channel=9 note=32 velocity=0 time=0.069444375
EXTRACT: note_on channel=9 note=28 velocity=0 time=0.001984125
EXTRACT: note_on channel=9 note=39 velocity=0 time=0.005952375000000001
EXTRACT: note_on channel=9 note=36 velocity=0 time=0.00396825
EXTRACT: note_on channel=5 note=64 velocity=35 time=0.045634875000000005
EXTRACT: note_on channel=1 note=35 velocity=0 time=0.08928562500000001
EXTRACT: note_on channel=3 note=66 velocity=0 time=0.011904750000000002
EXTRACT: note_on channel=9 note=70 velocity=105 time=0.001984125
EXTRACT: note_on channel=9 note=42 velocity=0 time=0.001984125
EXTRACT: note_on channel=9 note=70 velocity=0 time=0
EXTRACT: note_on channel=9 note=32 velocity=71 time=0.00396825
EXTRACT: note_on channel=9 note=44 velocity=69 time=0
EXTRACT: note_on channel=9 note=68 velocity=50 time=0
EXTRACT: note_on channel=1 note=40 velocity=91 time=0
EXTRACT: note_on channel=3 note=64 velocity=71 time=0
EXTRACT: note_on channel=7 note=56 velocity=75 time=0
EXTRACT: note_on channel=7 note=59 velocity=73 time=0
EXTRACT: note_on channel=9 note=42 velocity=73 time=0
EXTRACT: note_on channel=9 note=69 velocity=78 time=0
EXTRACT: note_on channel=9 note=56 velocity=87 time=0
EXTRACT: note_on channel=9 note=56 velocity=0 time=0.001984125
EXTRACT: note_on channel=9 note=69 velocity=0 time=0
EXTRACT: note_on channel=9 note=42 velocity=0 time=0
EXTRACT: note_on channel=9 note=68 velocity=0 time=0.031746
EXTRACT: note_on channel=5 note=59 velocity=0 time=0.0079365
EXTRACT: note_on channel=9 note=44 velocity=0 time=0.013888875000000002
EXTRACT: note_on channel=9 note=32 velocity=0 time=0
EXTRACT: note_on channel=7 note=56 velocity=0 time=0.009920625
EXTRACT: note_on channel=10 note=64 velocity=0 time=0.009920625
EXTRACT: note_on channel=7 note=59 velocity=0 time=0
EXTRACT: note_on channel=5 note=64 velocity=0 time=0.009920625
EXTRACT: note_on channel=5 note=68 velocity=0 time=0.00396825
EXTRACT: note_on channel=9 note=56 velocity=0 time=0.001984125
EXTRACT: note_on channel=10 note=56 velocity=0 time=0.0079365
EXTRACT: note_on channel=10 note=59 velocity=0 time=0
EXTRACT: note_on channel=7 note=56 velocity=81 time=0.01984125
EXTRACT: note_on channel=7 note=59 velocity=56 time=0
EXTRACT: note_on channel=9 note=32 velocity=67 time=0.009920625
EXTRACT: note_on channel=9 note=68 velocity=52 time=0
EXTRACT: note_on channel=7 note=52 velocity=0 time=0.005952375000000001
EXTRACT: note_on channel=9 note=44 velocity=68 time=0.00396825
EXTRACT: note_on channel=9 note=42 velocity=66 time=0.001984125
EXTRACT: note_on channel=9 note=69 velocity=73 time=0
EXTRACT: note_on channel=9 note=69 velocity=0 time=0.001984125
EXTRACT: note_on channel=9 note=42 velocity=0 time=0
EXTRACT: note_on channel=7 note=59 velocity=0 time=0.041666625000000006
EXTRACT: note_on channel=3 note=64 velocity=0 time=0.00396825
EXTRACT: note_on channel=7 note=56 velocity=0 time=0.001984125
EXTRACT: note_on channel=9 note=68 velocity=0 time=0.001984125
EXTRACT: note_on channel=9 note=32 velocity=0 time=0.005952375000000001
EXTRACT: note_on channel=1 note=40 velocity=0 time=0.013888875000000002
EXTRACT: note_on channel=9 note=44 velocity=0 time=0.005952375000000001
EXTRACT: note_on channel=10 note=80 velocity=0 time=0.015873
EXTRACT: note_on channel=9 note=27 velocity=90 time=0.00396825
EXTRACT: note_on channel=9 note=36 velocity=101 time=0
EXTRACT: note_on channel=9 note=42 velocity=93 time=0
EXTRACT: note_on channel=9 note=56 velocity=70 time=0
EXTRACT: note_on channel=1 note=37 velocity=83 time=0
EXTRACT: note_on channel=10 note=56 velocity=60 time=0
EXTRACT: note_on channel=10 note=61 velocity=57 time=0
EXTRACT: note_on channel=10 note=64 velocity=60 time=0
EXTRACT: note_on channel=10 note=76 velocity=70 time=0
EXTRACT: note_on channel=5 note=61 velocity=79 time=0
EXTRACT: note_on channel=5 note=64 velocity=98 time=0
EXTRACT: note_on channel=5 note=68 velocity=92 time=0
EXTRACT: note_on channel=7 note=49 velocity=85 time=0
EXTRACT: note_on channel=9 note=36 velocity=126 time=0
EXTRACT: note_on channel=9 note=35 velocity=117 time=0
EXTRACT: note_on channel=9 note=35 velocity=0 time=0.001984125
EXTRACT: note_on channel=9 note=36 velocity=0 time=0
EXTRACT: note_on channel=5 note=64 velocity=0 time=0.063492
EXTRACT: note_on channel=9 note=27 velocity=0 time=0.013888875000000002
EXTRACT: note_on channel=9 note=36 velocity=0 time=0.00396825
EXTRACT: note_on channel=5 note=68 velocity=0 time=0.001984125
EXTRACT: note_on channel=5 note=61 velocity=0 time=0.03373012500000001
EXTRACT: note_on channel=9 note=69 velocity=84 time=0.021825375
EXTRACT: note_on channel=9 note=69 velocity=0 time=0.001984125
EXTRACT: note_on channel=1 note=37 velocity=0 time=0.031746
EXTRACT: note_on channel=9 note=42 velocity=0 time=0.05952375000000001
EXTRACT: note_on channel=9 note=70 velocity=105 time=0
EXTRACT: note_on channel=9 note=27 velocity=78 time=0.00396825
EXTRACT: note_on channel=9 note=44 velocity=60 time=0
EXTRACT: note_on channel=9 note=67 velocity=40 time=0
EXTRACT: note_on channel=1 note=37 velocity=78 time=0
EXTRACT: note_on channel=3 note=64 velocity=85 time=0
EXTRACT: note_on channel=7 note=56 velocity=81 time=0
EXTRACT: note_on channel=7 note=61 velocity=69 time=0
EXTRACT: note_on channel=9 note=70 velocity=0 time=0
EXTRACT: note_on channel=9 note=42 velocity=73 time=0
EXTRACT: note_on channel=9 note=62 velocity=79 time=0
EXTRACT: note_on channel=9 note=62 velocity=0 time=0.001984125
EXTRACT: note_on channel=9 note=42 velocity=0 time=0
EXTRACT: note_on channel=9 note=56 velocity=0 time=0.027777750000000004
EXTRACT: note_on channel=9 note=67 velocity=0 time=0.009920625
EXTRACT: note_on channel=9 note=44 velocity=0 time=0.005952375000000001
EXTRACT: note_on channel=7 note=56 velocity=0 time=0.015873
EXTRACT: note_on channel=7 note=61 velocity=0 time=0.001984125
EXTRACT: note_on channel=9 note=27 velocity=0 time=0.001984125
EXTRACT: note_on channel=3 note=64 velocity=0 time=0.023809500000000004
EXTRACT: note_on channel=7 note=49 velocity=0 time=0.029761875000000004
EXTRACT: note_on channel=7 note=56 velocity=78 time=0
EXTRACT: note_on channel=7 note=61 velocity=61 time=0
EXTRACT: note_on channel=9 note=61 velocity=69 time=0
EXTRACT: note_on channel=9 note=61 velocity=0 time=0.001984125
EXTRACT: note_on channel=9 note=27 velocity=50 time=0.0079365
EXTRACT: note_on channel=9 note=67 velocity=41 time=0
EXTRACT: note_on channel=5 note=61 velocity=84 time=0
EXTRACT: note_on channel=5 note=64 velocity=88 time=0
EXTRACT: note_on channel=5 note=68 velocity=84 time=0
EXTRACT: note_on channel=9 note=44 velocity=63 time=0.009920625
EXTRACT: note_on channel=9 note=42 velocity=66 time=0.001984125
EXTRACT: note_on channel=9 note=69 velocity=68 time=0
EXTRACT: note_on channel=9 note=69 velocity=0 time=0.001984125
EXTRACT: note_on channel=9 note=42 velocity=0 time=0
EXTRACT: note_on channel=7 note=56 velocity=0 time=0.04761900000000001
EXTRACT: note_on channel=5 note=64 velocity=0 time=0.00396825
EXTRACT: note_on channel=7 note=61 velocity=0 time=0.005952375000000001
EXTRACT: note_on channel=9 note=67 velocity=0 time=0.001984125
EXTRACT: note_on channel=9 note=44 velocity=0 time=0.015873
EXTRACT: note_on channel=9 note=27 velocity=0 time=0
EXTRACT: note_on channel=1 note=37 velocity=0 time=0.015873
EXTRACT: note_on channel=9 note=28 velocity=74 time=0.00396825
EXTRACT: note_on channel=9 note=32 velocity=78 time=0
EXTRACT: note_on channel=9 note=36 velocity=99 time=0
EXTRACT: note_on channel=9 note=39 velocity=96 time=0
EXTRACT: note_on channel=9 note=42 velocity=93 time=0
EXTRACT: note_on channel=9 note=56 velocity=67 time=0
EXTRACT: note_on channel=1 note=40 velocity=91 time=0
EXTRACT: note_on channel=3 note=64 velocity=85 time=0
EXTRACT: note_on channel=5 note=68 velocity=0 time=0
EXTRACT: note_on channel=7 note=49 velocity=88 time=0
EXTRACT: note_on channel=9 note=39 velocity=121 time=0
EXTRACT: note_on channel=9 note=36 velocity=126 time=0
EXTRACT: note_on channel=9 note=35 velocity=117 time=0
EXTRACT: note_on channel=9 note=40 velocity=117 time=0
EXTRACT: note_on channel=9 note=44 velocity=81 time=0
EXTRACT: note_on channel=9 note=44 velocity=0 time=0.001984125
EXTRACT: note_on channel=9 note=35 velocity=0 time=0
EXTRACT: note_on channel=9 note=39 velocity=0 time=0
EXTRACT: note_on channel=9 note=36 velocity=0 time=0
EXTRACT: note_on channel=9 note=40 velocity=0 time=0
EXTRACT: note_on channel=5 note=61 velocity=0 time=0.027777750000000004
EXTRACT: note_on channel=9 note=32 velocity=0 time=0.041666625000000006
EXTRACT: note_on channel=9 note=39 velocity=0 time=0.0079365
EXTRACT: note_on channel=9 note=36 velocity=0 time=0
EXTRACT: note_on channel=9 note=28 velocity=0 time=0.011904750000000002
EXTRACT: note_on channel=9 note=62 velocity=73 time=0.027777750000000004
EXTRACT: note_on channel=9 note=62 velocity=0 time=0.001984125
EXTRACT: note_on channel=1 note=40 velocity=0 time=0.097222125
EXTRACT: note_on channel=9 note=42 velocity=0 time=0.015873
EXTRACT: note_on channel=3 note=64 velocity=0 time=0
EXTRACT: note_on channel=9 note=32 velocity=69 time=0.00396825
EXTRACT: note_on channel=9 note=44 velocity=69 time=0
EXTRACT: note_on channel=9 note=68 velocity=39 time=0
EXTRACT: note_on channel=1 note=44 velocity=91 time=0
EXTRACT: note_on channel=3 note=61 velocity=71 time=0
EXTRACT: note_on channel=5 note=61 velocity=87 time=0
EXTRACT: note_on channel=5 note=64 velocity=87 time=0
EXTRACT: note_on channel=5 note=68 velocity=89 time=0
EXTRACT: note_on channel=7 note=56 velocity=87 time=0
EXTRACT: note_on channel=7 note=61 velocity=74 time=0
EXTRACT: note_on channel=9 note=42 velocity=73 time=0
EXTRACT: note_on channel=9 note=61 velocity=66 time=0
EXTRACT: note_on channel=9 note=61 velocity=0 time=0.001984125
EXTRACT: note_on channel=9 note=42 velocity=0 time=0
EXTRACT: note_on channel=9 note=70 velocity=105 time=0.001984125
EXTRACT: note_on channel=9 note=70 velocity=0 time=0.001984125
EXTRACT: note_on channel=9 note=68 velocity=0 time=0.029761875000000004
EXTRACT: note_on channel=9 note=56 velocity=0 time=0.015873
EXTRACT: note_on channel=9 note=32 velocity=0 time=0.0079365
EXTRACT: note_on channel=9 note=44 velocity=0 time=0.005952375000000001
EXTRACT: note_on channel=7 note=56 velocity=0 time=0
EXTRACT: note_on channel=5 note=64 velocity=0 time=0.00396825
EXTRACT: note_on channel=7 note=61 velocity=0 time=0.00396825
EXTRACT: note_on channel=10 note=61 velocity=0 time=0.011904750000000002
EXTRACT: note_on channel=10 note=64 velocity=0 time=0.0079365
EXTRACT: note_on channel=5 note=61 velocity=0 time=0.001984125
EXTRACT: note_on channel=5 note=68 velocity=0 time=0.005952375000000001
EXTRACT: note_on channel=10 note=56 velocity=0 time=0.013888875000000002
EXTRACT: note_on channel=7 note=56 velocity=81 time=0.00396825
EXTRACT: note_on channel=7 note=61 velocity=68 time=0
EXTRACT: note_on channel=9 note=32 velocity=69 time=0.009920625
EXTRACT: note_on channel=9 note=68 velocity=56 time=0
EXTRACT: note_on channel=7 note=49 velocity=0 time=0.00396825
EXTRACT: note_on channel=9 note=44 velocity=64 time=0.005952375000000001
EXTRACT: note_on channel=9 note=42 velocity=66 time=0.001984125
EXTRACT: note_on channel=9 note=82 velocity=48 time=0
EXTRACT: note_on channel=9 note=82 velocity=0 time=0.001984125
EXTRACT: note_on channel=9 note=42 velocity=0 time=0
EXTRACT: note_on channel=9 note=68 velocity=0 time=0.04761900000000001
EXTRACT: note_on channel=7 note=56 velocity=0 time=0
EXTRACT: note_on channel=9 note=32 velocity=0 time=0.011904750000000002
EXTRACT: note_on channel=7 note=61 velocity=0 time=0.0079365
EXTRACT: note_on channel=1 note=44 velocity=0 time=0.00396825
EXTRACT: note_on channel=9 note=44 velocity=0 time=0.00396825
EXTRACT: note_on channel=10 note=76 velocity=0 time=0.015873
EXTRACT: note_on channel=3 note=61 velocity=0 time=0
EXTRACT: note_on channel=9 note=27 velocity=88 time=0.00396825
EXTRACT: note_on channel=9 note=36 velocity=103 time=0
EXTRACT: note_on channel=9 note=42 velocity=92 time=0
EXTRACT: note_on channel=9 note=56 velocity=69 time=0
EXTRACT: note_on channel=10 note=57 velocity=58 time=0
EXTRACT: note_on channel=10 note=61 velocity=59 time=0
EXTRACT: note_on channel=10 note=66 velocity=60 time=0
EXTRACT: note_on channel=10 note=78 velocity=71 time=0
EXTRACT: note_on channel=3 note=66 velocity=84 time=0
EXTRACT: note_on channel=7 note=54 velocity=83 time=0
EXTRACT: note_on channel=9 note=36 velocity=126 time=0
EXTRACT: note_on channel=9 note=35 velocity=117 time=0
EXTRACT: note_on channel=9 note=44 velocity=81 time=0
EXTRACT: note_on channel=9 note=82 velocity=55 time=0
EXTRACT: note_on channel=9 note=56 velocity=80 time=0
EXTRACT: note_on channel=9 note=56 velocity=0 time=0.001984125
EXTRACT: note_on channel=9 note=44 velocity=0 time=0
EXTRACT: note_on channel=9 note=36 velocity=0 time=0
EXTRACT: note_on channel=9 note=35 velocity=0 time=0
EXTRACT: note_on channel=9 note=82 velocity=0 time=0
EXTRACT: note_on channel=9 note=27 velocity=0 time=0.069444375
EXTRACT: note_on channel=9 note=36 velocity=0 time=0.009920625
EXTRACT: note_on channel=9 note=32 velocity=77 time=0.04761900000000001
EXTRACT: note_on channel=5 note=61 velocity=89 time=0
EXTRACT: note_on channel=5 note=66 velocity=90 time=0
EXTRACT: note_on channel=5 note=69 velocity=94 time=0
EXTRACT: note_on channel=9 note=82 velocity=63 time=0.011904750000000002
EXTRACT: note_on channel=9 note=82 velocity=0 time=0.001984125
EXTRACT: note_on channel=9 note=32 velocity=0 time=0.041666625000000006
EXTRACT: note_on channel=5 note=69 velocity=0 time=0.015873
EXTRACT: note_on channel=5 note=66 velocity=0 time=0.001984125
EXTRACT: note_on channel=5 note=61 velocity=0 time=0.017857125
EXTRACT: note_on channel=9 note=42 velocity=0 time=0.013888875000000002
EXTRACT: note_on channel=9 note=27 velocity=77 time=0.00396825
EXTRACT: note_on channel=9 note=44 velocity=70 time=0
EXTRACT: note_on channel=1 note=30 velocity=83 time=0
EXTRACT: note_on channel=7 note=57 velocity=80 time=0
EXTRACT: note_on channel=7 note=61 velocity=71 time=0
EXTRACT: note_on channel=9 note=42 velocity=73 time=0
EXTRACT: note_on channel=9 note=82 velocity=59 time=0
EXTRACT: note_on channel=9 note=63 velocity=60 time=0
EXTRACT: note_on channel=9 note=63 velocity=0 time=0.001984125
EXTRACT: note_on channel=9 note=82 velocity=0 time=0
EXTRACT: note_on channel=9 note=42 velocity=0 time=0
EXTRACT: note_on channel=9 note=70 velocity=105 time=0.001984125
EXTRACT: note_on channel=9 note=70 velocity=0 time=0.001984125
EXTRACT: note_on channel=9 note=56 velocity=0 time=0.04761900000000001
EXTRACT: note_on channel=9 note=44 velocity=0 time=0.001984125
EXTRACT: note_on channel=7 note=57 velocity=0 time=0
EXTRACT: note_on channel=9 note=27 velocity=0 time=0.0079365
EXTRACT: note_on channel=7 note=61 velocity=0 time=0
EXTRACT: note_on channel=7 note=57 velocity=77 time=0.05555550000000001
EXTRACT: note_on channel=7 note=61 velocity=64 time=0
EXTRACT: note_on channel=9 note=56 velocity=89 time=0
EXTRACT: note_on channel=9 note=56 velocity=0 time=0.001984125
EXTRACT: note_on channel=9 note=67 velocity=49 time=0.0079365
EXTRACT: note_on channel=7 note=54 velocity=0 time=0
EXTRACT: note_on channel=9 note=44 velocity=72 time=0.009920625
EXTRACT: note_on channel=9 note=42 velocity=66 time=0.001984125
EXTRACT: note_on channel=9 note=82 velocity=45 time=0
EXTRACT: note_on channel=9 note=82 velocity=0 time=0.001984125
EXTRACT: note_on channel=9 note=42 velocity=0 time=0
EXTRACT: note_on channel=7 note=57 velocity=0 time=0.0396825
EXTRACT: note_on channel=9 note=67 velocity=0 time=0.017857125
EXTRACT: note_on channel=9 note=44 velocity=0 time=0.013888875000000002
EXTRACT: note_on channel=7 note=61 velocity=0 time=0.00396825
EXTRACT: note_on channel=1 note=30 velocity=0 time=0.015873
EXTRACT: note_on channel=3 note=66 velocity=0 time=0
EXTRACT: note_on channel=9 note=28 velocity=79 time=0.00396825
EXTRACT: note_on channel=9 note=32 velocity=83 time=0
EXTRACT: note_on channel=9 note=36 velocity=95 time=0
EXTRACT: note_on channel=9 note=39 velocity=99 time=0
EXTRACT: note_on channel=9 note=42 velocity=94 time=0
EXTRACT: note_on channel=9 note=56 velocity=70 time=0
EXTRACT: note_on channel=1 note=37 velocity=87 time=0
EXTRACT: note_on channel=3 note=61 velocity=74 time=0
EXTRACT: note_on channel=5 note=61 velocity=90 time=0
EXTRACT: note_on channel=5 note=66 velocity=85 time=0
EXTRACT: note_on channel=5 note=69 velocity=101 time=0
EXTRACT: note_on channel=7 note=54 velocity=88 time=0
EXTRACT: note_on channel=9 note=36 velocity=126 time=0
EXTRACT: note_on channel=9 note=35 velocity=117 time=0
EXTRACT: note_on channel=9 note=39 velocity=121 time=0
EXTRACT: note_on channel=9 note=40 velocity=117 time=0
EXTRACT: note_on channel=9 note=44 velocity=81 time=0
EXTRACT: note_on channel=9 note=82 velocity=60 time=0
EXTRACT: note_on channel=9 note=82 velocity=0 time=0.001984125
EXTRACT: note_on channel=9 note=35 velocity=0 time=0
EXTRACT: note_on channel=9 note=39 velocity=0 time=0
EXTRACT: note_on channel=9 note=36 velocity=0 time=0
EXTRACT: note_on channel=9 note=44 velocity=0 time=0
EXTRACT: note_on channel=9 note=40 velocity=0 time=0
EXTRACT: note_on channel=9 note=32 velocity=0 time=0.061507875000000004
EXTRACT: note_on channel=9 note=28 velocity=0 time=0.005952375000000001
EXTRACT: note_on channel=9 note=36 velocity=0 time=0.009920625
EXTRACT: note_on channel=9 note=39 velocity=0 time=0.013888875000000002
EXTRACT: note_on channel=9 note=70 velocity=105 time=0.13888875
EXTRACT: note_on channel=9 note=42 velocity=0 time=0.001984125
EXTRACT: note_on channel=1 note=37 velocity=0 time=0
EXTRACT: note_on channel=9 note=70 velocity=0 time=0
EXTRACT: note_on channel=9 note=32 velocity=79 time=0.00396825
EXTRACT: note_on channel=9 note=44 velocity=70 time=0
EXTRACT: note_on channel=9 note=68 velocity=47 time=0
EXTRACT: note_on channel=1 note=30 velocity=81 time=0
EXTRACT: note_on channel=7 note=57 velocity=78 time=0
EXTRACT: note_on channel=7 note=61 velocity=67 time=0
EXTRACT: note_on channel=9 note=42 velocity=75 time=0
EXTRACT: note_on channel=9 note=69 velocity=87 time=0
EXTRACT: note_on channel=9 note=56 velocity=87 time=0
EXTRACT: note_on channel=9 note=56 velocity=0 time=0.001984125
EXTRACT: note_on channel=9 note=69 velocity=0 time=0
EXTRACT: note_on channel=9 note=42 velocity=0 time=0
EXTRACT: note_on channel=9 note=68 velocity=0 time=0.03373012500000001
EXTRACT: note_on channel=5 note=69 velocity=0 time=0.0079365
EXTRACT: note_on channel=5 note=66 velocity=0 time=0.005952375000000001
EXTRACT: note_on channel=5 note=61 velocity=0 time=0.005952375000000001
EXTRACT: note_on channel=9 note=44 velocity=0 time=0.00396825
EXTRACT: note_on channel=9 note=32 velocity=0 time=0
EXTRACT: note_on channel=7 note=57 velocity=0 time=0.00396825
EXTRACT: note_on channel=7 note=61 velocity=0 time=0.001984125
EXTRACT: note_on channel=9 note=56 velocity=0 time=0.015873
EXTRACT: note_on channel=10 note=61 velocity=0 time=0.0079365
EXTRACT: note_on channel=10 note=66 velocity=0 time=0.00396825
EXTRACT: note_on channel=7 note=54 velocity=0 time=0.025793625000000004
EXTRACT: note_on channel=7 note=57 velocity=80 time=0
EXTRACT: note_on channel=7 note=61 velocity=62 time=0
EXTRACT: note_on channel=9 note=62 velocity=64 time=0
EXTRACT: note_on channel=9 note=62 velocity=0 time=0.001984125
EXTRACT: note_on channel=9 note=32 velocity=71 time=0.0079365
EXTRACT: note_on channel=9 note=68 velocity=56 time=0
EXTRACT: note_on channel=10 note=57 velocity=0 time=0.00396825
EXTRACT: note_on channel=9 note=44 velocity=68 time=0.005952375000000001
EXTRACT: note_on channel=9 note=42 velocity=66 time=0.001984125
EXTRACT: note_on channel=9 note=69 velocity=69 time=0
EXTRACT: note_on channel=9 note=69 velocity=0 time=0.001984125
EXTRACT: note_on channel=9 note=42 velocity=0 time=0
EXTRACT: note_on channel=7 note=57 velocity=0 time=0.029761875000000004
EXTRACT: note_on channel=3 note=61 velocity=0 time=0.001984125
EXTRACT: note_on channel=9 note=32 velocity=0 time=0.017857125
EXTRACT: note_on channel=9 note=68 velocity=0 time=0.011904750000000002
EXTRACT: note_on channel=7 note=61 velocity=0 time=0
EXTRACT: note_on channel=9 note=44 velocity=0 time=0.0079365
EXTRACT: note_on channel=1 note=30 velocity=0 time=0.005952375000000001
EXTRACT: note_on channel=10 note=78 velocity=0 time=0.005952375000000001
EXTRACT: note_on channel=9 note=27 velocity=86 time=0.013888875000000002
EXTRACT: note_on channel=9 note=36 velocity=99 time=0
EXTRACT: note_on channel=9 note=42 velocity=92 time=0
EXTRACT: note_on channel=9 note=56 velocity=69 time=0
EXTRACT: note_on channel=1 note=35 velocity=81 time=0
EXTRACT: note_on channel=10 note=59 velocity=68 time=0
EXTRACT: note_on channel=10 note=64 velocity=61 time=0
EXTRACT: note_on channel=10 note=66 velocity=62 time=0
EXTRACT: note_on channel=10 note=71 velocity=70 time=0
EXTRACT: note_on channel=3 note=66 velocity=84 time=0
EXTRACT: note_on channel=5 note=59 velocity=89 time=0
EXTRACT: note_on channel=5 note=64 velocity=87 time=0
EXTRACT: note_on channel=5 note=66 velocity=89 time=0
EXTRACT: note_on channel=7 note=47 velocity=80 time=0
EXTRACT: note_on channel=9 note=36 velocity=126 time=0
EXTRACT: note_on channel=9 note=35 velocity=117 time=0
EXTRACT: note_on channel=9 note=44 velocity=81 time=0
EXTRACT: note_on channel=9 note=60 velocity=69 time=0
EXTRACT: note_on channel=9 note=60 velocity=0 time=0.001984125
EXTRACT: note_on channel=9 note=36 velocity=0 time=0
EXTRACT: note_on channel=9 note=35 velocity=0 time=0
EXTRACT: note_on channel=9 note=44 velocity=0 time=0
EXTRACT: note_on channel=5 note=64 velocity=0 time=0.061507875000000004
EXTRACT: note_on channel=9 note=27 velocity=0 time=0.015873
EXTRACT: note_on channel=9 note=36 velocity=0 time=0.00396825
EXTRACT: note_on channel=5 note=66 velocity=0 time=0.001984125
EXTRACT: note_on channel=3 note=66 velocity=0 time=0.0079365
EXTRACT: note_on channel=5 note=59 velocity=0 time=0.04761900000000001
EXTRACT: note_on channel=9 note=69 velocity=93 time=0
EXTRACT: note_on channel=9 note=69 velocity=0 time=0.001984125
EXTRACT: note_on channel=9 note=42 velocity=0 time=0.09126975000000001
EXTRACT: note_on channel=9 note=27 velocity=85 time=0.00396825
EXTRACT: note_on channel=9 note=44 velocity=64 time=0
EXTRACT: note_on channel=9 note=67 velocity=36 time=0
EXTRACT: note_on channel=3 note=66 velocity=83 time=0
EXTRACT: note_on channel=7 note=52 velocity=89 time=0
EXTRACT: note_on channel=7 note=59 velocity=73 time=0
EXTRACT: note_on channel=9 note=42 velocity=73 time=0
EXTRACT: note_on channel=9 note=62 velocity=59 time=0
EXTRACT: note_on channel=9 note=70 velocity=105 time=0
EXTRACT: note_on channel=9 note=70 velocity=0 time=0.001984125
EXTRACT: note_on channel=9 note=62 velocity=0 time=0
EXTRACT: note_on channel=9 note=42 velocity=0 time=0
EXTRACT: note_on channel=7 note=59 velocity=0 time=0.027777750000000004
EXTRACT: note_on channel=7 note=52 velocity=0 time=0
EXTRACT: note_on channel=9 note=67 velocity=0 time=0.011904750000000002
EXTRACT: note_on channel=9 note=44 velocity=0 time=0.001984125
EXTRACT: note_on channel=9 note=56 velocity=0 time=0.01984125
EXTRACT: note_on channel=9 note=27 velocity=0 time=0.011904750000000002
EXTRACT: note_on channel=3 note=66 velocity=0 time=0.009920625
EXTRACT: note_on channel=7 note=47 velocity=0 time=0.01984125
EXTRACT: note_on channel=7 note=52 velocity=99 time=0.013888875000000002
EXTRACT: note_on channel=7 note=59 velocity=78 time=0
EXTRACT: note_on channel=9 note=60 velocity=63 time=0
EXTRACT: note_on channel=9 note=60 velocity=0 time=0.001984125
EXTRACT: note_on channel=9 note=67 velocity=51 time=0.0079365
EXTRACT: note_on channel=5 note=59 velocity=86 time=0
EXTRACT: note_on channel=5 note=64 velocity=94 time=0
EXTRACT: note_on channel=5 note=66 velocity=88 time=0
EXTRACT: note_on channel=9 note=44 velocity=75 time=0.009920625
EXTRACT: note_on channel=9 note=42 velocity=66 time=0.001984125
EXTRACT: note_on channel=9 note=69 velocity=61 time=0
EXTRACT: note_on channel=9 note=69 velocity=0 time=0.001984125
EXTRACT: note_on channel=9 note=42 velocity=0 time=0
EXTRACT: note_on channel=7 note=52 velocity=0 time=0.029761875000000004
EXTRACT: note_on channel=5 note=64 velocity=0 time=0.017857125
EXTRACT: note_on channel=9 note=67 velocity=0 time=0.011904750000000002
EXTRACT: note_on channel=7 note=59 velocity=0 time=0.001984125
EXTRACT: note_on channel=5 note=66 velocity=0 time=0.00396825
EXTRACT: note_on channel=9 note=44 velocity=0 time=0.005952375000000001
EXTRACT: note_on channel=9 note=28 velocity=82 time=0.023809500000000004
EXTRACT: note_on channel=9 note=32 velocity=83 time=0
EXTRACT: note_on channel=9 note=36 velocity=101 time=0
EXTRACT: note_on channel=9 note=39 velocity=104 time=0
EXTRACT: note_on channel=9 note=42 velocity=94 time=0
EXTRACT: note_on channel=9 note=56 velocity=73 time=0
EXTRACT: note_on channel=3 note=66 velocity=83 time=0
EXTRACT: note_on channel=7 note=47 velocity=83 time=0
EXTRACT: note_on channel=9 note=40 velocity=117 time=0
EXTRACT: note_on channel=9 note=36 velocity=126 time=0
EXTRACT: note_on channel=9 note=35 velocity=117 time=0
EXTRACT: note_on channel=9 note=39 velocity=121 time=0
EXTRACT: note_on channel=9 note=44 velocity=81 time=0
EXTRACT: note_on channel=9 note=69 velocity=78 time=0
EXTRACT: note_on channel=9 note=69 velocity=0 time=0.001984125
EXTRACT: note_on channel=9 note=36 velocity=0 time=0
EXTRACT: note_on channel=9 note=35 velocity=0 time=0
EXTRACT: note_on channel=9 note=40 velocity=0 time=0
EXTRACT: note_on channel=9 note=44 velocity=0 time=0
EXTRACT: note_on channel=9 note=39 velocity=0 time=0
EXTRACT: note_on channel=5 note=59 velocity=0 time=0.037698375000000006
EXTRACT: note_on channel=9 note=32 velocity=0 time=0.031746
EXTRACT: note_on channel=9 note=28 velocity=0 time=0.00396825
EXTRACT: note_on channel=9 note=36 velocity=0 time=0.00396825
EXTRACT: note_on channel=9 note=61 velocity=73 time=0.0396825
EXTRACT: note_on channel=9 note=61 velocity=0 time=0.001984125
EXTRACT: note_on channel=9 note=39 velocity=0 time=0.031746
EXTRACT: note_on channel=1 note=35 velocity=0 time=0.0396825
EXTRACT: note_on channel=9 note=42 velocity=0 time=0.041666625000000006
EXTRACT: note_on channel=3 note=66 velocity=0 time=0
EXTRACT: note_on channel=9 note=32 velocity=78 time=0.00396825
EXTRACT: note_on channel=9 note=44 velocity=77 time=0
EXTRACT: note_on channel=9 note=68 velocity=48 time=0
EXTRACT: note_on channel=1 note=35 velocity=92 time=0
EXTRACT: note_on channel=3 note=64 velocity=73 time=0
EXTRACT: note_on channel=5 note=59 velocity=91 time=0
EXTRACT: note_on channel=5 note=64 velocity=91 time=0
EXTRACT: note_on channel=5 note=66 velocity=89 time=0
EXTRACT: note_on channel=7 note=52 velocity=99 time=0
EXTRACT: note_on channel=7 note=59 velocity=83 time=0
EXTRACT: note_on channel=9 note=42 velocity=73 time=0
EXTRACT: note_on channel=9 note=60 velocity=66 time=0
EXTRACT: note_on channel=9 note=60 velocity=0 time=0.001984125
EXTRACT: note_on channel=9 note=42 velocity=0 time=0
EXTRACT: note_on channel=9 note=70 velocity=105 time=0
EXTRACT: note_on channel=9 note=70 velocity=0 time=0.001984125
EXTRACT: note_on channel=9 note=68 velocity=0 time=0.029761875000000004
EXTRACT: note_on channel=9 note=56 velocity=0 time=0.009920625
EXTRACT: note_on channel=9 note=44 velocity=0 time=0.009920625
EXTRACT: note_on channel=7 note=52 velocity=0 time=0
EXTRACT: note_on channel=5 note=64 velocity=0 time=0.001984125
EXTRACT: note_on channel=7 note=59 velocity=0 time=0.0079365
EXTRACT: note_on channel=9 note=32 velocity=0 time=0.001984125
EXTRACT: note_on channel=5 note=66 velocity=0 time=0.013888875000000002
EXTRACT: note_on channel=5 note=59 velocity=0 time=0.011904750000000002
EXTRACT: note_on channel=10 note=64 velocity=0 time=0.0079365
EXTRACT: note_on channel=10 note=66 velocity=0 time=0.011904750000000002
EXTRACT: note_on channel=7 note=52 velocity=89 time=0.0079365
EXTRACT: note_on channel=7 note=59 velocity=74 time=0
EXTRACT: note_on channel=9 note=62 velocity=69 time=0
EXTRACT: note_on channel=3 note=64 velocity=0 time=0.001984125
EXTRACT: note_on channel=9 note=62 velocity=0 time=0
EXTRACT: note_on channel=9 note=32 velocity=55 time=0.0079365
EXTRACT: note_on channel=9 note=68 velocity=57 time=0
EXTRACT: note_on channel=9 note=44 velocity=74 time=0.009920625
EXTRACT: note_on channel=9 note=42 velocity=66 time=0.001984125
EXTRACT: note_on channel=9 note=42 velocity=0 time=0.001984125
EXTRACT: note_on channel=10 note=59 velocity=0 time=0.005952375000000001
EXTRACT: note_on channel=7 note=47 velocity=0 time=0.00396825
EXTRACT: note_on channel=7 note=52 velocity=0 time=0.021825375
EXTRACT: note_on channel=9 note=32 velocity=0 time=0.0079365
EXTRACT: note_on channel=9 note=68 velocity=0 time=0.015873
EXTRACT: note_on channel=7 note=59 velocity=0 time=0.005952375000000001
EXTRACT: note_on channel=9 note=44 velocity=0 time=0.005952375000000001
EXTRACT: note_on channel=9 note=27 velocity=87 time=0.027777750000000004
EXTRACT: note_on channel=9 note=36 velocity=103 time=0
EXTRACT: note_on channel=9 note=42 velocity=99 time=0
EXTRACT: note_on channel=9 note=56 velocity=72 time=0
EXTRACT: note_on channel=10 note=59 velocity=63 time=0
EXTRACT: note_on channel=10 note=63 velocity=65 time=0
EXTRACT: note_on channel=10 note=66 velocity=59 time=0
EXTRACT: note_on channel=3 note=68 velocity=85 time=0
EXTRACT: note_on channel=7 note=47 velocity=84 time=0
EXTRACT: note_on channel=9 note=36 velocity=126 time=0
EXTRACT: note_on channel=9 note=35 velocity=117 time=0
EXTRACT: note_on channel=9 note=44 velocity=81 time=0
EXTRACT: note_on channel=9 note=82 velocity=69 time=0
EXTRACT: note_on channel=9 note=56 velocity=87 time=0
EXTRACT: note_on channel=9 note=60 velocity=63 time=0
EXTRACT: note_on channel=9 note=60 velocity=0 time=0.001984125
EXTRACT: note_on channel=9 note=35 velocity=0 time=0
EXTRACT: note_on channel=9 note=44 velocity=0 time=0
EXTRACT: note_on channel=9 note=36 velocity=0 time=0
EXTRACT: note_on channel=9 note=56 velocity=0 time=0
EXTRACT: note_on channel=9 note=82 velocity=0 time=0
EXTRACT: note_on channel=9 note=36 velocity=0 time=0.077380875
EXTRACT: note_on channel=9 note=27 velocity=0 time=0.005952375000000001
EXTRACT: note_on channel=5 note=59 velocity=85 time=0.04365075
EXTRACT: note_on channel=5 note=63 velocity=91 time=0
EXTRACT: note_on channel=5 note=66 velocity=90 time=0
EXTRACT: note_on channel=9 note=82 velocity=43 time=0.011904750000000002
EXTRACT: note_on channel=9 note=82 velocity=0 time=0.001984125
EXTRACT: note_on channel=1 note=35 velocity=0 time=0.01984125
EXTRACT: note_on channel=5 note=63 velocity=0 time=0.037698375000000006
EXTRACT: note_on channel=5 note=66 velocity=0 time=0.001984125
EXTRACT: note_on channel=5 note=59 velocity=0 time=0.027777750000000004
EXTRACT: note_on channel=9 note=70 velocity=105 time=0
EXTRACT: note_on channel=9 note=70 velocity=0 time=0.001984125
EXTRACT: note_on channel=9 note=42 velocity=0 time=0.001984125
EXTRACT: note_on channel=9 note=27 velocity=86 time=0.00396825
EXTRACT: note_on channel=9 note=44 velocity=78 time=0
EXTRACT: note_on channel=9 note=66 velocity=75 time=0
EXTRACT: note_on channel=9 note=67 velocity=53 time=0
EXTRACT: note_on channel=1 note=35 velocity=82 time=0
EXTRACT: note_on channel=7 note=54 velocity=83 time=0
EXTRACT: note_on channel=7 note=59 velocity=79 time=0
EXTRACT: note_on channel=9 note=42 velocity=73 time=0
EXTRACT: note_on channel=9 note=82 velocity=48 time=0
EXTRACT: note_on channel=9 note=82 velocity=0 time=0.001984125
EXTRACT: note_on channel=9 note=42 velocity=0 time=0
EXTRACT: note_on channel=9 note=67 velocity=0 time=0.037698375000000006
EXTRACT: note_on channel=9 note=44 velocity=0 time=0.013888875000000002
EXTRACT: note_on channel=7 note=59 velocity=0 time=0.011904750000000002
EXTRACT: note_on channel=7 note=54 velocity=0 time=0.0079365
EXTRACT: note_on channel=9 note=66 velocity=0 time=0.001984125
EXTRACT: note_on channel=9 note=56 velocity=0 time=0.005952375000000001
EXTRACT: note_on channel=9 note=27 velocity=0 time=0.001984125
EXTRACT: note_on channel=7 note=47 velocity=0 time=0.029761875000000004
EXTRACT: note_on channel=7 note=54 velocity=83 time=0.005952375000000001
EXTRACT: note_on channel=7 note=59 velocity=82 time=0
EXTRACT: note_on channel=9 note=56 velocity=87 time=0
EXTRACT: note_on channel=9 note=56 velocity=0 time=0.001984125
EXTRACT: note_on channel=9 note=67 velocity=45 time=0.0079365
EXTRACT: note_on channel=9 note=44 velocity=75 time=0.009920625
EXTRACT: note_on channel=9 note=42 velocity=66 time=0.001984125
EXTRACT: note_on channel=9 note=82 velocity=40 time=0
EXTRACT: note_on channel=9 note=82 velocity=0 time=0.001984125
EXTRACT: note_on channel=9 note=42 velocity=0 time=0
EXTRACT: note_on channel=9 note=44 velocity=0 time=0.061507875000000004
EXTRACT: note_on channel=9 note=67 velocity=0 time=0
EXTRACT: note_on channel=7 note=54 velocity=0 time=0.013888875000000002
EXTRACT: note_on channel=7 note=59 velocity=0 time=0.005952375000000001
EXTRACT: note_on channel=1 note=35 velocity=0 time=0.009920625
EXTRACT: note_on channel=3 note=68 velocity=0 time=0
EXTRACT: note_on channel=9 note=28 velocity=85 time=0.00396825
EXTRACT: note_on channel=9 note=32 velocity=87 time=0
EXTRACT: note_on channel=9 note=36 velocity=103 time=0
EXTRACT: note_on channel=9 note=39 velocity=104 time=0
EXTRACT: note_on channel=9 note=42 velocity=99 time=0
EXTRACT: note_on channel=9 note=56 velocity=75 time=0
EXTRACT: note_on channel=9 note=65 velocity=73 time=0
EXTRACT: note_on channel=1 note=30 velocity=83 time=0
EXTRACT: note_on channel=3 note=66 velocity=84 time=0
EXTRACT: note_on channel=5 note=59 velocity=89 time=0
EXTRACT: note_on channel=5 note=63 velocity=94 time=0
EXTRACT: note_on channel=5 note=66 velocity=91 time=0
EXTRACT: note_on channel=7 note=47 velocity=81 time=0
EXTRACT: note_on channel=9 note=39 velocity=121 time=0
EXTRACT: note_on channel=9 note=40 velocity=117 time=0
EXTRACT: note_on channel=9 note=36 velocity=126 time=0
EXTRACT: note_on channel=9 note=35 velocity=117 time=0
EXTRACT: note_on channel=9 note=44 velocity=81 time=0
EXTRACT: note_on channel=9 note=82 velocity=69 time=0
EXTRACT: note_on channel=9 note=82 velocity=0 time=0.001984125
EXTRACT: note_on channel=9 note=40 velocity=0 time=0
EXTRACT: note_on channel=9 note=36 velocity=0 time=0
EXTRACT: note_on channel=9 note=39 velocity=0 time=0
EXTRACT: note_on channel=9 note=44 velocity=0 time=0
EXTRACT: note_on channel=9 note=35 velocity=0 time=0
EXTRACT: note_on channel=9 note=65 velocity=0 time=0.03373012500000001
EXTRACT: note_on channel=9 note=32 velocity=0 time=0.029761875000000004
EXTRACT: note_on channel=9 note=28 velocity=0 time=0.0079365
EXTRACT: note_on channel=9 note=36 velocity=0 time=0.001984125
EXTRACT: note_on channel=9 note=39 velocity=0 time=0.0079365
EXTRACT: note_on channel=10 note=71 velocity=0 time=0.105158625
EXTRACT: note_on channel=9 note=42 velocity=0 time=0.025793625000000004
EXTRACT: note_on channel=9 note=70 velocity=105 time=0.017857125
EXTRACT: note_on channel=1 note=30 velocity=0 time=0.001984125
EXTRACT: note_on channel=9 note=70 velocity=0 time=0
EXTRACT: note_on channel=9 note=32 velocity=74 time=0.00396825
EXTRACT: note_on channel=9 note=44 velocity=81 time=0
EXTRACT: note_on channel=9 note=65 velocity=68 time=0
EXTRACT: note_on channel=9 note=68 velocity=53 time=0
EXTRACT: note_on channel=1 note=35 velocity=81 time=0
EXTRACT: note_on channel=7 note=54 velocity=79 time=0
EXTRACT: note_on channel=7 note=59 velocity=76 time=0
EXTRACT: note_on channel=9 note=42 velocity=73 time=0
EXTRACT: note_on channel=9 note=69 velocity=78 time=0
EXTRACT: note_on channel=9 note=56 velocity=87 time=0
EXTRACT: note_on channel=9 note=56 velocity=0 time=0.001984125
EXTRACT: note_on channel=9 note=69 velocity=0 time=0
EXTRACT: note_on channel=9 note=42 velocity=0 time=0
EXTRACT: note_on channel=9 note=65 velocity=0 time=0.027777750000000004
EXTRACT: note_on channel=9 note=68 velocity=0 time=0.01984125
EXTRACT: note_on channel=9 note=44 velocity=0 time=0.005952375000000001
EXTRACT: note_on channel=9 note=32 velocity=0 time=0.00396825
EXTRACT: note_on channel=7 note=59 velocity=0 time=0.00396825
EXTRACT: note_on channel=7 note=54 velocity=0 time=0.001984125
EXTRACT: note_on channel=10 note=63 velocity=0 time=0.015873
EXTRACT: note_on channel=5 note=63 velocity=0 time=0
EXTRACT: note_on channel=5 note=66 velocity=0 time=0.009920625
EXTRACT: note_on channel=9 note=56 velocity=0 time=0.0079365
EXTRACT: note_on channel=5 note=59 velocity=0 time=0.015873
EXTRACT: note_on channel=7 note=54 velocity=84 time=0.00396825
EXTRACT: note_on channel=7 note=59 velocity=62 time=0
EXTRACT: note_on channel=9 note=32 velocity=69 time=0.009920625
EXTRACT: note_on channel=9 note=65 velocity=70 time=0
EXTRACT: note_on channel=9 note=68 velocity=52 time=0
EXTRACT: note_on channel=10 note=66 velocity=0 time=0.001984125
EXTRACT: note_on channel=10 note=59 velocity=0 time=0.001984125
EXTRACT: note_on channel=9 note=44 velocity=62 time=0.005952375000000001
EXTRACT: note_on channel=9 note=42 velocity=66 time=0.001984125
EXTRACT: note_on channel=9 note=69 velocity=73 time=0
EXTRACT: note_on channel=9 note=69 velocity=0 time=0.001984125
EXTRACT: note_on channel=9 note=42 velocity=0 time=0
EXTRACT: note_on channel=1 note=35 velocity=0 time=0.001984125
EXTRACT: note_on channel=7 note=47 velocity=0 time=0.029761875000000004
EXTRACT: note_on channel=9 note=65 velocity=0 time=0.005952375000000001
EXTRACT: note_on channel=9 note=68 velocity=0 time=0.011904750000000002
EXTRACT: note_on channel=9 note=32 velocity=0 time=0.001984125
EXTRACT: note_on channel=7 note=59 velocity=0 time=0.00396825
EXTRACT: note_on channel=7 note=54 velocity=0 time=0
EXTRACT: note_on channel=9 note=44 velocity=0 time=0.005952375000000001
EXTRACT: note_on channel=3 note=66 velocity=0 time=0.029761875000000004
EXTRACT: note_on channel=9 note=27 velocity=94 time=0.00396825
EXTRACT: note_on channel=9 note=36 velocity=109 time=0
EXTRACT: note_on channel=9 note=42 velocity=107 time=0
EXTRACT: note_on channel=9 note=44 velocity=111 time=0
EXTRACT: note_on channel=9 note=49 velocity=92 time=0
EXTRACT: note_on channel=9 note=56 velocity=86 time=0
EXTRACT: note_on channel=9 note=57 velocity=78 time=0
EXTRACT: note_on channel=1 note=33 velocity=83 time=0
EXTRACT: note_on channel=10 note=52 velocity=76 time=0
EXTRACT: note_on channel=10 note=57 velocity=50 time=0
EXTRACT: note_on channel=10 note=61 velocity=54 time=0
EXTRACT: note_on channel=10 note=69 velocity=68 time=0
EXTRACT: note_on channel=10 note=73 velocity=59 time=0
EXTRACT: note_on channel=10 note=76 velocity=60 time=0
EXTRACT: note_on channel=4 note=64 velocity=113 time=0
EXTRACT: note_on channel=5 note=61 velocity=77 time=0
EXTRACT: note_on channel=5 note=64 velocity=88 time=0
EXTRACT: note_on channel=5 note=68 velocity=77 time=0
EXTRACT: note_on channel=6 note=61 velocity=55 time=0
EXTRACT: note_on channel=6 note=64 velocity=66 time=0
EXTRACT: note_on channel=6 note=68 velocity=55 time=0
EXTRACT: note_on channel=7 note=52 velocity=109 time=0
EXTRACT: note_on channel=9 note=36 velocity=126 time=0
EXTRACT: note_on channel=9 note=35 velocity=117 time=0
EXTRACT: note_on channel=9 note=35 velocity=0 time=0.001984125
EXTRACT: note_on channel=9 note=36 velocity=0 time=0
EXTRACT: note_on channel=9 note=44 velocity=0 time=0.061507875000000004
EXTRACT: note_on channel=5 note=64 velocity=0 time=0
EXTRACT: note_on channel=9 note=27 velocity=0 time=0.001984125
EXTRACT: note_on channel=5 note=61 velocity=0 time=0.00396825
EXTRACT: note_on channel=9 note=36 velocity=0 time=0.00396825
EXTRACT: note_on channel=9 note=49 velocity=0 time=0.011904750000000002
EXTRACT: note_on channel=4 note=64 velocity=0 time=0.00396825
EXTRACT: note_on channel=9 note=57 velocity=0 time=0.005952375000000001
EXTRACT: note_on channel=5 note=68 velocity=0 time=0.00396825
EXTRACT: note_on channel=9 note=69 velocity=84 time=0.041666625000000006
EXTRACT: note_on channel=9 note=69 velocity=0 time=0.001984125
EXTRACT: note_on channel=9 note=42 velocity=0 time=0.01984125
EXTRACT: note_on channel=7 note=52 velocity=0 time=0.001984125
EXTRACT: note_on channel=6 note=68 velocity=0 time=0.0079365
EXTRACT: note_on channel=6 note=64 velocity=0 time=0
EXTRACT: note_on channel=6 note=61 velocity=0 time=0
EXTRACT: note_on channel=9 note=70 velocity=105 time=0.061507875000000004
EXTRACT: note_on channel=9 note=27 velocity=79 time=0.00396825
EXTRACT: note_on channel=9 note=44 velocity=55 time=0
EXTRACT: note_on channel=9 note=67 velocity=39 time=0
EXTRACT: note_on channel=4 note=64 velocity=110 time=0
EXTRACT: note_on channel=7 note=57 velocity=56 time=0
EXTRACT: note_on channel=7 note=61 velocity=49 time=0
EXTRACT: note_on channel=9 note=70 velocity=0 time=0
EXTRACT: note_on channel=9 note=42 velocity=73 time=0
EXTRACT: note_on channel=9 note=62 velocity=79 time=0
EXTRACT: note_on channel=9 note=62 velocity=0 time=0.001984125
EXTRACT: note_on channel=9 note=42 velocity=0 time=0
EXTRACT: note_on channel=9 note=44 velocity=0 time=0.027777750000000004
EXTRACT: note_on channel=9 note=56 velocity=0 time=0.005952375000000001
EXTRACT: note_on channel=9 note=67 velocity=0 time=0.005952375000000001
EXTRACT: note_on channel=7 note=61 velocity=0 time=0.021825375
EXTRACT: note_on channel=7 note=57 velocity=0 time=0
EXTRACT: note_on channel=9 note=27 velocity=0 time=0.0079365
EXTRACT: note_on channel=9 note=61 velocity=69 time=0.04761900000000001
EXTRACT: note_on channel=9 note=61 velocity=0 time=0.001984125
EXTRACT: note_on channel=9 note=32 velocity=71 time=0.0079365
EXTRACT: note_on channel=9 note=44 velocity=70 time=0
EXTRACT: note_on channel=9 note=67 velocity=47 time=0
EXTRACT: note_on channel=5 note=61 velocity=78 time=0
EXTRACT: note_on channel=5 note=64 velocity=82 time=0
EXTRACT: note_on channel=5 note=68 velocity=73 time=0
EXTRACT: note_on channel=6 note=61 velocity=56 time=0
EXTRACT: note_on channel=6 note=64 velocity=60 time=0
EXTRACT: note_on channel=6 note=68 velocity=51 time=0
EXTRACT: note_on channel=7 note=57 velocity=68 time=0
EXTRACT: note_on channel=7 note=61 velocity=56 time=0
EXTRACT: note_on channel=9 note=42 velocity=66 time=0.011904750000000002
EXTRACT: note_on channel=9 note=69 velocity=68 time=0
EXTRACT: note_on channel=9 note=69 velocity=0 time=0.001984125
EXTRACT: note_on channel=9 note=42 velocity=0 time=0
EXTRACT: note_on channel=9 note=44 velocity=0 time=0.0396825
EXTRACT: note_on channel=1 note=33 velocity=0 time=0
EXTRACT: note_on channel=7 note=57 velocity=0 time=0.009920625
EXTRACT: note_on channel=5 note=64 velocity=0 time=0.005952375000000001
EXTRACT: note_on channel=9 note=67 velocity=0 time=0.001984125
EXTRACT: note_on channel=5 note=61 velocity=0 time=0
EXTRACT: note_on channel=7 note=61 velocity=0 time=0.0079365
EXTRACT: note_on channel=9 note=32 velocity=0 time=0.005952375000000001
EXTRACT: note_on channel=5 note=68 velocity=0 time=0.005952375000000001
EXTRACT: note_on channel=4 note=64 velocity=0 time=0.013888875000000002
EXTRACT: note_on channel=9 note=36 velocity=107 time=0.00396825
EXTRACT: note_on channel=9 note=39 velocity=108 time=0
EXTRACT: note_on channel=9 note=42 velocity=78 time=0
EXTRACT: note_on channel=9 note=56 velocity=81 time=0
EXTRACT: note_on channel=1 note=37 velocity=87 time=0
EXTRACT: note_on channel=4 note=61 velocity=87 time=0
EXTRACT: note_on channel=7 note=52 velocity=97 time=0
EXTRACT: note_on channel=9 note=39 velocity=121 time=0
EXTRACT: note_on channel=9 note=36 velocity=126 time=0
EXTRACT: note_on channel=9 note=35 velocity=117 time=0
EXTRACT: note_on channel=9 note=40 velocity=117 time=0
EXTRACT: note_on channel=9 note=44 velocity=81 time=0
EXTRACT: note_on channel=9 note=44 velocity=0 time=0.001984125
EXTRACT: note_on channel=9 note=35 velocity=0 time=0
EXTRACT: note_on channel=9 note=39 velocity=0 time=0
EXTRACT: note_on channel=9 note=36 velocity=0 time=0
EXTRACT: note_on channel=9 note=40 velocity=0 time=0
EXTRACT: note_on channel=9 note=39 velocity=0 time=0.05952375000000001
EXTRACT: note_on channel=6 note=68 velocity=0 time=0.001984125
EXTRACT: note_on channel=6 note=64 velocity=0 time=0
EXTRACT: note_on channel=6 note=61 velocity=0 time=0
EXTRACT: note_on channel=9 note=42 velocity=0 time=0.001984125
EXTRACT: note_on channel=9 note=36 velocity=0 time=0.0079365
EXTRACT: note_on channel=7 note=52 velocity=0 time=0.031746
EXTRACT: note_on channel=9 note=62 velocity=73 time=0.013888875000000002
EXTRACT: note_on channel=9 note=62 velocity=0 time=0.001984125
EXTRACT: note_on channel=9 note=32 velocity=59 time=0.0079365
EXTRACT: note_on channel=9 note=32 velocity=0 time=0.053571375000000004
EXTRACT: note_on channel=4 note=61 velocity=0 time=0.001984125
EXTRACT: note_on channel=9 note=32 velocity=63 time=0.053571375000000004
EXTRACT: note_on channel=9 note=44 velocity=57 time=0
EXTRACT: note_on channel=9 note=68 velocity=63 time=0
EXTRACT: note_on channel=1 note=40 velocity=80 time=0
EXTRACT: note_on channel=4 note=59 velocity=84 time=0
EXTRACT: note_on channel=5 note=61 velocity=80 time=0
EXTRACT: note_on channel=5 note=64 velocity=78 time=0
EXTRACT: note_on channel=5 note=68 velocity=73 time=0
EXTRACT: note_on channel=6 note=61 velocity=58 time=0
EXTRACT: note_on channel=6 note=64 velocity=56 time=0
EXTRACT: note_on channel=6 note=68 velocity=51 time=0
EXTRACT: note_on channel=7 note=57 velocity=68 time=0
EXTRACT: note_on channel=7 note=61 velocity=49 time=0
EXTRACT: note_on channel=9 note=42 velocity=73 time=0
EXTRACT: note_on channel=9 note=61 velocity=66 time=0
EXTRACT: note_on channel=9 note=61 velocity=0 time=0.001984125
EXTRACT: note_on channel=9 note=42 velocity=0 time=0
EXTRACT: note_on channel=9 note=70 velocity=105 time=0.001984125
EXTRACT: note_on channel=9 note=70 velocity=0 time=0.001984125
EXTRACT: note_on channel=1 note=37 velocity=0 time=0.005952375000000001
EXTRACT: note_on channel=9 note=44 velocity=0 time=0.027777750000000004
EXTRACT: note_on channel=9 note=56 velocity=0 time=0.001984125
EXTRACT: note_on channel=9 note=68 velocity=0 time=0.01984125
EXTRACT: note_on channel=7 note=61 velocity=0 time=0.001984125
EXTRACT: note_on channel=7 note=57 velocity=0 time=0
EXTRACT: note_on channel=5 note=64 velocity=0 time=0.005952375000000001
EXTRACT: note_on channel=5 note=61 velocity=0 time=0
EXTRACT: note_on channel=9 note=32 velocity=0 time=0.001984125
EXTRACT: note_on channel=5 note=68 velocity=0 time=0.013888875000000002
EXTRACT: note_on channel=9 note=32 velocity=62 time=0.04365075
EXTRACT: note_on channel=9 note=44 velocity=64 time=0
EXTRACT: note_on channel=9 note=68 velocity=40 time=0
EXTRACT: note_on channel=7 note=57 velocity=71 time=0
EXTRACT: note_on channel=7 note=61 velocity=56 time=0
EXTRACT: note_on channel=10 note=69 velocity=0 time=0.00396825
EXTRACT: note_on channel=9 note=42 velocity=66 time=0.0079365
EXTRACT: note_on channel=9 note=82 velocity=48 time=0
EXTRACT: note_on channel=9 note=82 velocity=0 time=0.001984125
EXTRACT: note_on channel=9 note=42 velocity=0 time=0
EXTRACT: note_on channel=10 note=57 velocity=0 time=0.005952375000000001
EXTRACT: note_on channel=10 note=73 velocity=0 time=0.011904750000000002
EXTRACT: note_on channel=10 note=61 velocity=0 time=0
EXTRACT: note_on channel=6 note=68 velocity=0 time=0.011904750000000002
EXTRACT: note_on channel=6 note=64 velocity=0 time=0
EXTRACT: note_on channel=6 note=61 velocity=0 time=0
EXTRACT: note_on channel=10 note=52 velocity=0 time=0.009920625
EXTRACT: note_on channel=10 note=76 velocity=0 time=0
EXTRACT: note_on channel=9 note=68 velocity=0 time=0.005952375000000001
EXTRACT: note_on channel=9 note=44 velocity=0 time=0.001984125
EXTRACT: note_on channel=1 note=40 velocity=0 time=0.001984125
EXTRACT: note_on channel=7 note=57 velocity=0 time=0
EXTRACT: note_on channel=9 note=32 velocity=0 time=0.009920625
EXTRACT: note_on channel=4 note=59 velocity=0 time=0.005952375000000001
EXTRACT: note_on channel=7 note=61 velocity=0 time=0.00396825
EXTRACT: note_on channel=9 note=27 velocity=88 time=0.025793625000000004
EXTRACT: note_on channel=9 note=36 velocity=103 time=0
EXTRACT: note_on channel=9 note=42 velocity=97 time=0
EXTRACT: note_on channel=9 note=44 velocity=94 time=0
EXTRACT: note_on channel=9 note=56 velocity=77 time=0
EXTRACT: note_on channel=1 note=35 velocity=84 time=0
EXTRACT: note_on channel=10 note=54 velocity=65 time=0
EXTRACT: note_on channel=10 note=59 velocity=68 time=0
EXTRACT: note_on channel=10 note=66 velocity=62 time=0
EXTRACT: note_on channel=10 note=71 velocity=58 time=0
EXTRACT: note_on channel=10 note=75 velocity=71 time=0
EXTRACT: note_on channel=4 note=64 velocity=101 time=0
EXTRACT: note_on channel=7 note=54 velocity=89 time=0
EXTRACT: note_on channel=9 note=36 velocity=126 time=0
EXTRACT: note_on channel=9 note=35 velocity=117 time=0
EXTRACT: note_on channel=9 note=44 velocity=81 time=0
EXTRACT: note_on channel=9 note=82 velocity=55 time=0
EXTRACT: note_on channel=9 note=56 velocity=80 time=0
EXTRACT: note_on channel=9 note=56 velocity=0 time=0.001984125
EXTRACT: note_on channel=9 note=44 velocity=0 time=0
EXTRACT: note_on channel=9 note=36 velocity=0 time=0
EXTRACT: note_on channel=9 note=35 velocity=0 time=0
EXTRACT: note_on channel=9 note=82 velocity=0 time=0
EXTRACT: note_on channel=9 note=44 velocity=0 time=0.063492
EXTRACT: note_on channel=9 note=27 velocity=0 time=0.0079365
EXTRACT: note_on channel=9 note=36 velocity=0 time=0.01984125
EXTRACT: note_on channel=4 note=64 velocity=0 time=0.001984125
EXTRACT: note_on channel=7 note=54 velocity=0 time=0
EXTRACT: note_on channel=9 note=27 velocity=64 time=0.03373012500000001
EXTRACT: note_on channel=5 note=59 velocity=73 time=0
EXTRACT: note_on channel=5 note=64 velocity=85 time=0
EXTRACT: note_on channel=5 note=66 velocity=77 time=0
EXTRACT: note_on channel=6 note=59 velocity=51 time=0
EXTRACT: note_on channel=6 note=64 velocity=63 time=0
EXTRACT: note_on channel=6 note=66 velocity=55 time=0
EXTRACT: note_on channel=1 note=35 velocity=0 time=0.011904750000000002
EXTRACT: note_on channel=9 note=82 velocity=63 time=0
EXTRACT: note_on channel=9 note=82 velocity=0 time=0.001984125
EXTRACT: note_on channel=9 note=42 velocity=0 time=0.005952375000000001
EXTRACT: note_on channel=9 note=27 velocity=0 time=0.041666625000000006
EXTRACT: note_on channel=5 note=64 velocity=0 time=0.009920625
EXTRACT: note_on channel=5 note=59 velocity=0 time=0.00396825
EXTRACT: note_on channel=5 note=66 velocity=0 time=0.0079365
EXTRACT: note_on channel=9 note=27 velocity=69 time=0.025793625000000004
EXTRACT: note_on channel=9 note=44 velocity=57 time=0
EXTRACT: note_on channel=9 note=67 velocity=48 time=0
EXTRACT: note_on channel=1 note=35 velocity=71 time=0
EXTRACT: note_on channel=4 note=64 velocity=103 time=0
EXTRACT: note_on channel=7 note=57 velocity=42 time=0
EXTRACT: note_on channel=7 note=59 velocity=50 time=0
EXTRACT: note_on channel=9 note=42 velocity=73 time=0
EXTRACT: note_on channel=9 note=82 velocity=59 time=0
EXTRACT: note_on channel=9 note=63 velocity=60 time=0
EXTRACT: note_on channel=9 note=63 velocity=0 time=0.001984125
EXTRACT: note_on channel=9 note=82 velocity=0 time=0
EXTRACT: note_on channel=9 note=42 velocity=0 time=0
EXTRACT: note_on channel=9 note=70 velocity=105 time=0.001984125
EXTRACT: note_on channel=9 note=70 velocity=0 time=0.001984125
EXTRACT: note_on channel=9 note=56 velocity=0 time=0.023809500000000004
EXTRACT: note_on channel=9 note=44 velocity=0 time=0.005952375000000001
EXTRACT: note_on channel=9 note=67 velocity=0 time=0.005952375000000001
EXTRACT: note_on channel=6 note=66 velocity=0 time=0.021825375
EXTRACT: note_on channel=6 note=64 velocity=0 time=0
EXTRACT: note_on channel=6 note=59 velocity=0 time=0
EXTRACT: note_on channel=7 note=59 velocity=0 time=0
EXTRACT: note_on channel=7 note=57 velocity=0 time=0
EXTRACT: note_on channel=9 note=27 velocity=0 time=0.015873
EXTRACT: note_on channel=9 note=56 velocity=89 time=0.0396825
EXTRACT: note_on channel=9 note=56 velocity=0 time=0.001984125
EXTRACT: note_on channel=9 note=44 velocity=39 time=0.0079365
EXTRACT: note_on channel=9 note=67 velocity=31 time=0
EXTRACT: note_on channel=7 note=57 velocity=62 time=0
EXTRACT: note_on channel=7 note=59 velocity=70 time=0
EXTRACT: note_on channel=9 note=42 velocity=66 time=0.011904750000000002
EXTRACT: note_on channel=9 note=82 velocity=45 time=0
EXTRACT: note_on channel=9 note=82 velocity=0 time=0.001984125
EXTRACT: note_on channel=9 note=42 velocity=0 time=0
EXTRACT: note_on channel=9 note=44 velocity=0 time=0.027777750000000004
EXTRACT: note_on channel=9 note=67 velocity=0 time=0.001984125
EXTRACT: note_on channel=7 note=59 velocity=0 time=0.01984125
EXTRACT: note_on channel=7 note=57 velocity=0 time=0.009920625
EXTRACT: note_on channel=4 note=64 velocity=0 time=0.005952375000000001
EXTRACT: note_on channel=9 note=32 velocity=78 time=0.029761875000000004
EXTRACT: note_on channel=9 note=36 velocity=107 time=0
EXTRACT: note_on channel=9 note=39 velocity=103 time=0
EXTRACT: note_on channel=9 note=42 velocity=68 time=0
EXTRACT: note_on channel=9 note=56 velocity=80 time=0
EXTRACT: note_on channel=1 note=39 velocity=85 time=0
EXTRACT: note_on channel=4 note=61 velocity=90 time=0
EXTRACT: note_on channel=5 note=59 velocity=45 time=0
EXTRACT: note_on channel=5 note=64 velocity=78 time=0
EXTRACT: note_on channel=5 note=66 velocity=71 time=0
EXTRACT: note_on channel=6 note=59 velocity=23 time=0
EXTRACT: note_on channel=6 note=64 velocity=56 time=0
EXTRACT: note_on channel=6 note=66 velocity=49 time=0
EXTRACT: note_on channel=7 note=54 velocity=90 time=0
EXTRACT: note_on channel=9 note=36 velocity=126 time=0
EXTRACT: note_on channel=9 note=35 velocity=117 time=0
EXTRACT: note_on channel=9 note=39 velocity=121 time=0
EXTRACT: note_on channel=9 note=40 velocity=117 time=0
EXTRACT: note_on channel=9 note=44 velocity=81 time=0
EXTRACT: note_on channel=9 note=82 velocity=60 time=0
EXTRACT: note_on channel=9 note=82 velocity=0 time=0.001984125
EXTRACT: note_on channel=9 note=35 velocity=0 time=0
EXTRACT: note_on channel=9 note=39 velocity=0 time=0
EXTRACT: note_on channel=9 note=36 velocity=0 time=0
EXTRACT: note_on channel=9 note=44 velocity=0 time=0
EXTRACT: note_on channel=9 note=40 velocity=0 time=0
EXTRACT: note_on channel=1 note=35 velocity=0 time=0.013888875000000002
EXTRACT: note_on channel=5 note=59 velocity=0 time=0.023809500000000004
EXTRACT: note_on channel=9 note=39 velocity=0 time=0.025793625000000004
EXTRACT: note_on channel=5 note=64 velocity=0 time=0.009920625
EXTRACT: note_on channel=9 note=32 velocity=0 time=0.00396825
EXTRACT: note_on channel=9 note=42 velocity=0 time=0.001984125
EXTRACT: note_on channel=5 note=66 velocity=0 time=0.013888875000000002
EXTRACT: note_on channel=7 note=54 velocity=0 time=0.03373012500000001
EXTRACT: note_on channel=6 note=66 velocity=0 time=0.04365075
EXTRACT: note_on channel=6 note=64 velocity=0 time=0
EXTRACT: note_on channel=6 note=59 velocity=0 time=0
EXTRACT: note_on channel=9 note=36 velocity=0 time=0.011904750000000002
EXTRACT: note_on channel=4 note=61 velocity=0 time=0.005952375000000001
EXTRACT: note_on channel=1 note=39 velocity=0 time=0.037698375000000006
EXTRACT: note_on channel=9 note=70 velocity=105 time=0.00396825
EXTRACT: note_on channel=9 note=70 velocity=0 time=0.001984125
EXTRACT: note_on channel=9 note=32 velocity=67 time=0.00396825
EXTRACT: note_on channel=9 note=44 velocity=57 time=0
EXTRACT: note_on channel=9 note=68 velocity=44 time=0
EXTRACT: note_on channel=1 note=42 velocity=79 time=0
EXTRACT: note_on channel=4 note=59 velocity=84 time=0
EXTRACT: note_on channel=5 note=59 velocity=78 time=0
EXTRACT: note_on channel=5 note=63 velocity=83 time=0
EXTRACT: note_on channel=5 note=66 velocity=82 time=0
EXTRACT: note_on channel=6 note=59 velocity=56 time=0
EXTRACT: note_on channel=6 note=63 velocity=61 time=0
EXTRACT: note_on channel=6 note=66 velocity=60 time=0
EXTRACT: note_on channel=7 note=57 velocity=53 time=0
EXTRACT: note_on channel=7 note=59 velocity=62 time=0
EXTRACT: note_on channel=9 note=42 velocity=75 time=0
EXTRACT: note_on channel=9 note=69 velocity=87 time=0
EXTRACT: note_on channel=9 note=56 velocity=87 time=0
EXTRACT: note_on channel=9 note=56 velocity=0 time=0.001984125
EXTRACT: note_on channel=9 note=69 velocity=0 time=0
EXTRACT: note_on channel=9 note=42 velocity=0 time=0
EXTRACT: note_on channel=9 note=68 velocity=0 time=0.027777750000000004
EXTRACT: note_on channel=5 note=59 velocity=0 time=0.001984125
EXTRACT: note_on channel=9 note=32 velocity=0 time=0.01984125
EXTRACT: note_on channel=9 note=44 velocity=0 time=0.001984125
EXTRACT: note_on channel=10 note=71 velocity=0 time=0
EXTRACT: note_on channel=5 note=63 velocity=0 time=0.0079365
EXTRACT: note_on channel=7 note=59 velocity=0 time=0.001984125
EXTRACT: note_on channel=7 note=57 velocity=0 time=0
EXTRACT: note_on channel=9 note=56 velocity=0 time=0.0079365
EXTRACT: note_on channel=10 note=66 velocity=0 time=0.0079365
EXTRACT: note_on channel=5 note=66 velocity=0 time=0
EXTRACT: note_on channel=9 note=62 velocity=64 time=0.0396825
EXTRACT: note_on channel=9 note=62 velocity=0 time=0.001984125
EXTRACT: note_on channel=10 note=59 velocity=0 time=0.001984125
EXTRACT: note_on channel=9 note=32 velocity=64 time=0.005952375000000001
EXTRACT: note_on channel=9 note=44 velocity=58 time=0
EXTRACT: note_on channel=9 note=68 velocity=38 time=0
EXTRACT: note_on channel=7 note=57 velocity=60 time=0
EXTRACT: note_on channel=7 note=59 velocity=67 time=0
EXTRACT: note_on channel=10 note=75 velocity=0 time=0.009920625
EXTRACT: note_on channel=9 note=42 velocity=66 time=0.001984125
EXTRACT: note_on channel=9 note=69 velocity=69 time=0
EXTRACT: note_on channel=9 note=69 velocity=0 time=0.001984125
EXTRACT: note_on channel=9 note=42 velocity=0 time=0
EXTRACT: note_on channel=10 note=54 velocity=0 time=0.027777750000000004
EXTRACT: note_on channel=6 note=66 velocity=0 time=0.001984125
EXTRACT: note_on channel=6 note=63 velocity=0 time=0
EXTRACT: note_on channel=6 note=59 velocity=0 time=0
EXTRACT: note_on channel=9 note=44 velocity=0 time=0.011904750000000002
EXTRACT: note_on channel=7 note=57 velocity=0 time=0.0079365
EXTRACT: note_on channel=9 note=32 velocity=0 time=0.001984125
EXTRACT: note_on channel=9 note=68 velocity=0 time=0.0079365
EXTRACT: note_on channel=4 note=59 velocity=0 time=0.001984125
EXTRACT: note_on channel=7 note=59 velocity=0 time=0
EXTRACT: note_on channel=1 note=42 velocity=0 time=0.005952375000000001
EXTRACT: note_on channel=9 note=27 velocity=92 time=0.027777750000000004
EXTRACT: note_on channel=9 note=36 velocity=103 time=0
EXTRACT: note_on channel=9 note=42 velocity=94 time=0
EXTRACT: note_on channel=9 note=44 velocity=93 time=0
EXTRACT: note_on channel=9 note=56 velocity=78 time=0
EXTRACT: note_on channel=10 note=56 velocity=74 time=0
EXTRACT: note_on channel=10 note=59 velocity=54 time=0
EXTRACT: note_on channel=10 note=63 velocity=59 time=0
EXTRACT: note_on channel=10 note=68 velocity=61 time=0
EXTRACT: note_on channel=10 note=71 velocity=56 time=0
EXTRACT: note_on channel=10 note=75 velocity=69 time=0
EXTRACT: note_on channel=3 note=71 velocity=94 time=0
EXTRACT: note_on channel=5 note=59 velocity=68 time=0
EXTRACT: note_on channel=5 note=63 velocity=85 time=0
EXTRACT: note_on channel=5 note=68 velocity=85 time=0
EXTRACT: note_on channel=6 note=59 velocity=46 time=0
EXTRACT: note_on channel=6 note=63 velocity=63 time=0
EXTRACT: note_on channel=6 note=68 velocity=63 time=0
EXTRACT: note_on channel=7 note=56 velocity=90 time=0
EXTRACT: note_on channel=9 note=36 velocity=126 time=0
EXTRACT: note_on channel=9 note=35 velocity=117 time=0
EXTRACT: note_on channel=9 note=44 velocity=81 time=0
EXTRACT: note_on channel=9 note=60 velocity=69 time=0
EXTRACT: note_on channel=9 note=60 velocity=0 time=0.001984125
EXTRACT: note_on channel=9 note=36 velocity=0 time=0
EXTRACT: note_on channel=9 note=35 velocity=0 time=0
EXTRACT: note_on channel=9 note=44 velocity=0 time=0
EXTRACT: note_on channel=5 note=59 velocity=0 time=0.027777750000000004
EXTRACT: note_on channel=5 note=63 velocity=0 time=0.021825375
EXTRACT: note_on channel=9 note=27 velocity=0 time=0.027777750000000004
EXTRACT: note_on channel=9 note=44 velocity=0 time=0.001984125
EXTRACT: note_on channel=5 note=68 velocity=0 time=0.001984125
EXTRACT: note_on channel=9 note=36 velocity=0 time=0.017857125
EXTRACT: note_on channel=9 note=69 velocity=93 time=0.0396825
EXTRACT: note_on channel=9 note=69 velocity=0 time=0.001984125
EXTRACT: note_on channel=7 note=56 velocity=0 time=0.009920625
EXTRACT: note_on channel=6 note=68 velocity=0 time=0.01984125
EXTRACT: note_on channel=6 note=63 velocity=0 time=0
EXTRACT: note_on channel=6 note=59 velocity=0 time=0
EXTRACT: note_on channel=9 note=42 velocity=0 time=0.01984125
EXTRACT: note_on channel=9 note=27 velocity=85 time=0.045634875000000005
EXTRACT: note_on channel=9 note=44 velocity=57 time=0
EXTRACT: note_on channel=9 note=67 velocity=42 time=0
EXTRACT: note_on channel=1 note=32 velocity=88 time=0
EXTRACT: note_on channel=7 note=59 velocity=53 time=0
EXTRACT: note_on channel=7 note=63 velocity=49 time=0
EXTRACT: note_on channel=9 note=42 velocity=73 time=0
EXTRACT: note_on channel=9 note=62 velocity=59 time=0
EXTRACT: note_on channel=9 note=70 velocity=105 time=0
EXTRACT: note_on channel=9 note=70 velocity=0 time=0.001984125
EXTRACT: note_on channel=9 note=62 velocity=0 time=0
EXTRACT: note_on channel=9 note=42 velocity=0 time=0
EXTRACT: note_on channel=9 note=44 velocity=0 time=0.031746
EXTRACT: note_on channel=9 note=67 velocity=0 time=0.0079365
EXTRACT: note_on channel=9 note=56 velocity=0 time=0.013888875000000002
EXTRACT: note_on channel=7 note=63 velocity=0 time=0.0079365
EXTRACT: note_on channel=7 note=59 velocity=0 time=0
EXTRACT: note_on channel=9 note=27 velocity=0 time=0.005952375000000001
EXTRACT: note_on channel=9 note=60 velocity=63 time=0.049603125000000005
EXTRACT: note_on channel=9 note=60 velocity=0 time=0.001984125
EXTRACT: note_on channel=9 note=32 velocity=76 time=0.0079365
EXTRACT: note_on channel=9 note=44 velocity=31 time=0
EXTRACT: note_on channel=9 note=67 velocity=49 time=0
EXTRACT: note_on channel=5 note=59 velocity=74 time=0
EXTRACT: note_on channel=5 note=63 velocity=87 time=0
EXTRACT: note_on channel=5 note=68 velocity=82 time=0
EXTRACT: note_on channel=6 note=59 velocity=52 time=0
EXTRACT: note_on channel=6 note=63 velocity=65 time=0
EXTRACT: note_on channel=6 note=68 velocity=60 time=0
EXTRACT: note_on channel=7 note=59 velocity=62 time=0
EXTRACT: note_on channel=7 note=63 velocity=68 time=0
EXTRACT: note_on channel=9 note=42 velocity=66 time=0.011904750000000002
EXTRACT: note_on channel=9 note=69 velocity=61 time=0
EXTRACT: note_on channel=9 note=69 velocity=0 time=0.001984125
EXTRACT: note_on channel=9 note=42 velocity=0 time=0
EXTRACT: note_on channel=5 note=59 velocity=0 time=0.017857125
EXTRACT: note_on channel=9 note=44 velocity=0 time=0.0079365
EXTRACT: note_on channel=9 note=67 velocity=0 time=0.00396825
EXTRACT: note_on channel=5 note=63 velocity=0 time=0.009920625
EXTRACT: note_on channel=3 note=71 velocity=0 time=0.015873
EXTRACT: note_on channel=9 note=32 velocity=0 time=0.00396825
EXTRACT: note_on channel=7 note=63 velocity=0 time=0.001984125
EXTRACT: note_on channel=7 note=59 velocity=0 time=0
EXTRACT: note_on channel=5 note=68 velocity=0 time=0.013888875000000002
EXTRACT: note_on channel=9 note=36 velocity=98 time=0.01984125
EXTRACT: note_on channel=9 note=39 velocity=103 time=0
EXTRACT: note_on channel=9 note=42 velocity=80 time=0
EXTRACT: note_on channel=9 note=56 velocity=80 time=0
EXTRACT: note_on channel=1 note=35 velocity=74 time=0
EXTRACT: note_on channel=3 note=68 velocity=91 time=0
EXTRACT: note_on channel=7 note=56 velocity=90 time=0
EXTRACT: note_on channel=9 note=40 velocity=117 time=0
EXTRACT: note_on channel=9 note=36 velocity=126 time=0
EXTRACT: note_on channel=9 note=35 velocity=117 time=0
EXTRACT: note_on channel=9 note=39 velocity=121 time=0
EXTRACT: note_on channel=9 note=44 velocity=81 time=0
EXTRACT: note_on channel=9 note=69 velocity=78 time=0
EXTRACT: note_on channel=9 note=69 velocity=0 time=0.001984125
EXTRACT: note_on channel=9 note=36 velocity=0 time=0
EXTRACT: note_on channel=9 note=35 velocity=0 time=0
EXTRACT: note_on channel=9 note=40 velocity=0 time=0
EXTRACT: note_on channel=9 note=44 velocity=0 time=0
EXTRACT: note_on channel=9 note=39 velocity=0 time=0
EXTRACT: note_on channel=1 note=32 velocity=0 time=0.013888875000000002
EXTRACT: note_on channel=6 note=68 velocity=0 time=0.04761900000000001
EXTRACT: note_on channel=6 note=63 velocity=0 time=0
EXTRACT: note_on channel=6 note=59 velocity=0 time=0
EXTRACT: note_on channel=9 note=39 velocity=0 time=0.005952375000000001
EXTRACT: note_on channel=9 note=36 velocity=0 time=0.005952375000000001
EXTRACT: note_on channel=9 note=42 velocity=0 time=0.03373012500000001
EXTRACT: note_on channel=7 note=56 velocity=0 time=0.005952375000000001
EXTRACT: note_on channel=9 note=61 velocity=73 time=0.00396825
EXTRACT: note_on channel=9 note=61 velocity=0 time=0.001984125
EXTRACT: note_on channel=9 note=32 velocity=68 time=0.0079365
EXTRACT: note_on channel=9 note=32 velocity=0 time=0.053571375000000004
EXTRACT: note_on channel=1 note=35 velocity=0 time=0.049603125000000005
EXTRACT: note_on channel=9 note=32 velocity=70 time=0.005952375000000001
EXTRACT: note_on channel=9 note=44 velocity=63 time=0
EXTRACT: note_on channel=9 note=68 velocity=47 time=0
EXTRACT: note_on channel=1 note=39 velocity=94 time=0
EXTRACT: note_on channel=5 note=59 velocity=78 time=0
EXTRACT: note_on channel=5 note=63 velocity=91 time=0
EXTRACT: note_on channel=5 note=68 velocity=86 time=0
EXTRACT: note_on channel=6 note=59 velocity=56 time=0
EXTRACT: note_on channel=6 note=63 velocity=69 time=0
EXTRACT: note_on channel=6 note=68 velocity=64 time=0
EXTRACT: note_on channel=7 note=59 velocity=59 time=0
EXTRACT: note_on channel=7 note=63 velocity=63 time=0
EXTRACT: note_on channel=9 note=42 velocity=73 time=0
EXTRACT: note_on channel=9 note=60 velocity=66 time=0
EXTRACT: note_on channel=9 note=60 velocity=0 time=0.001984125
EXTRACT: note_on channel=9 note=42 velocity=0 time=0
EXTRACT: note_on channel=9 note=70 velocity=105 time=0
EXTRACT: note_on channel=9 note=70 velocity=0 time=0.001984125
EXTRACT: note_on channel=9 note=68 velocity=0 time=0.031746
EXTRACT: note_on channel=5 note=59 velocity=0 time=0.013888875000000002
EXTRACT: note_on channel=9 note=44 velocity=0 time=0.005952375000000001
EXTRACT: note_on channel=5 note=63 velocity=0 time=0
EXTRACT: note_on channel=9 note=32 velocity=0 time=0.0079365
EXTRACT: note_on channel=7 note=63 velocity=0 time=0
EXTRACT: note_on channel=7 note=59 velocity=0 time=0
EXTRACT: note_on channel=9 note=56 velocity=0 time=0.005952375000000001
EXTRACT: note_on channel=5 note=68 velocity=0 time=0.01984125
EXTRACT: note_on channel=9 note=62 velocity=69 time=0.029761875000000004
EXTRACT: note_on channel=10 note=71 velocity=0 time=0.001984125
EXTRACT: note_on channel=9 note=62 velocity=0 time=0
EXTRACT: note_on channel=9 note=32 velocity=63 time=0.0079365
EXTRACT: note_on channel=9 note=44 velocity=65 time=0
EXTRACT: note_on channel=9 note=68 velocity=29 time=0
EXTRACT: note_on channel=10 note=68 velocity=0 time=0
EXTRACT: note_on channel=7 note=59 velocity=72 time=0
EXTRACT: note_on channel=7 note=63 velocity=72 time=0
EXTRACT: note_on channel=10 note=63 velocity=0 time=0.00396825
EXTRACT: note_on channel=10 note=56 velocity=0 time=0.0079365
EXTRACT: note_on channel=9 note=42 velocity=66 time=0
EXTRACT: note_on channel=9 note=42 velocity=0 time=0.001984125
EXTRACT: note_on channel=1 note=39 velocity=0 time=0.015873
EXTRACT: note_on channel=10 note=75 velocity=0 time=0.005952375000000001
EXTRACT: note_on channel=6 note=68 velocity=0 time=0.0079365
EXTRACT: note_on channel=6 note=63 velocity=0 time=0
EXTRACT: note_on channel=6 note=59 velocity=0 time=0
EXTRACT: note_on channel=9 note=44 velocity=0 time=0.015873
EXTRACT: note_on channel=10 note=59 velocity=0 time=0.001984125
EXTRACT: note_on channel=9 note=32 velocity=0 time=0.001984125
EXTRACT: note_on channel=7 note=59 velocity=0 time=0
EXTRACT: note_on channel=7 note=63 velocity=0 time=0.009920625
EXTRACT: note_on channel=3 note=68 velocity=0 time=0.001984125
EXTRACT: note_on channel=9 note=68 velocity=0 time=0.009920625
EXTRACT: note_on channel=9 note=27 velocity=87 time=0.023809500000000004
EXTRACT: note_on channel=9 note=36 velocity=107 time=0
EXTRACT: note_on channel=9 note=42 velocity=91 time=0
EXTRACT: note_on channel=9 note=44 velocity=89 time=0
EXTRACT: note_on channel=9 note=56 velocity=75 time=0
EXTRACT: note_on channel=1 note=37 velocity=88 time=0
EXTRACT: note_on channel=10 note=56 velocity=75 time=0
EXTRACT: note_on channel=10 note=61 velocity=44 time=0
EXTRACT: note_on channel=10 note=64 velocity=55 time=0
EXTRACT: note_on channel=10 note=68 velocity=66 time=0
EXTRACT: note_on channel=10 note=73 velocity=60 time=0
EXTRACT: note_on channel=3 note=64 velocity=90 time=0
EXTRACT: note_on channel=7 note=56 velocity=90 time=0
EXTRACT: note_on channel=9 note=36 velocity=126 time=0
EXTRACT: note_on channel=9 note=35 velocity=117 time=0
EXTRACT: note_on channel=9 note=44 velocity=81 time=0
EXTRACT: note_on channel=9 note=82 velocity=69 time=0
EXTRACT: note_on channel=9 note=56 velocity=87 time=0
EXTRACT: note_on channel=9 note=60 velocity=63 time=0
EXTRACT: note_on channel=9 note=60 velocity=0 time=0.001984125
EXTRACT: note_on channel=9 note=35 velocity=0 time=0
EXTRACT: note_on channel=9 note=44 velocity=0 time=0
EXTRACT: note_on channel=9 note=36 velocity=0 time=0
EXTRACT: note_on channel=9 note=56 velocity=0 time=0
EXTRACT: note_on channel=9 note=82 velocity=0 time=0
EXTRACT: note_on channel=9 note=27 velocity=0 time=0.06746025000000001
EXTRACT: note_on channel=9 note=36 velocity=0 time=0.005952375000000001
EXTRACT: note_on channel=9 note=44 velocity=0 time=0.01984125
EXTRACT: note_on channel=9 note=32 velocity=76 time=0.03373012500000001
EXTRACT: note_on channel=5 note=61 velocity=71 time=0
EXTRACT: note_on channel=5 note=64 velocity=85 time=0
EXTRACT: note_on channel=5 note=68 velocity=79 time=0
EXTRACT: note_on channel=6 note=61 velocity=49 time=0
EXTRACT: note_on channel=6 note=64 velocity=63 time=0
EXTRACT: note_on channel=6 note=68 velocity=57 time=0
EXTRACT: note_on channel=9 note=82 velocity=43 time=0.011904750000000002
EXTRACT: note_on channel=9 note=82 velocity=0 time=0.001984125
EXTRACT: note_on channel=7 note=56 velocity=0 time=0.011904750000000002
EXTRACT: note_on channel=1 note=37 velocity=0 time=0.017857125
EXTRACT: note_on channel=5 note=61 velocity=0 time=0.017857125
EXTRACT: note_on channel=9 note=32 velocity=0 time=0.001984125
EXTRACT: note_on channel=5 note=64 velocity=0 time=0.001984125
EXTRACT: note_on channel=5 note=68 velocity=0 time=0.005952375000000001
EXTRACT: note_on channel=9 note=70 velocity=105 time=0.029761875000000004
EXTRACT: note_on channel=9 note=70 velocity=0 time=0.001984125
EXTRACT: note_on channel=9 note=42 velocity=0 time=0.001984125
EXTRACT: note_on channel=9 note=27 velocity=58 time=0.00396825
EXTRACT: note_on channel=9 note=44 velocity=60 time=0
EXTRACT: note_on channel=9 note=67 velocity=48 time=0
EXTRACT: note_on channel=1 note=37 velocity=82 time=0
EXTRACT: note_on channel=7 note=61 velocity=54 time=0
EXTRACT: note_on channel=7 note=64 velocity=65 time=0
EXTRACT: note_on channel=9 note=42 velocity=73 time=0
EXTRACT: note_on channel=9 note=82 velocity=48 time=0
EXTRACT: note_on channel=9 note=82 velocity=0 time=0.001984125
EXTRACT: note_on channel=9 note=42 velocity=0 time=0
EXTRACT: note_on channel=9 note=67 velocity=0 time=0.0396825
EXTRACT: note_on channel=9 note=44 velocity=0 time=0
EXTRACT: note_on channel=9 note=27 velocity=0 time=0.00396825
EXTRACT: note_on channel=9 note=56 velocity=0 time=0.017857125
EXTRACT: note_on channel=6 note=68 velocity=0 time=0
EXTRACT: note_on channel=6 note=64 velocity=0 time=0
EXTRACT: note_on channel=6 note=61 velocity=0 time=0
EXTRACT: note_on channel=7 note=64 velocity=0 time=0
EXTRACT: note_on channel=7 note=61 velocity=0 time=0
EXTRACT: note_on channel=9 note=56 velocity=87 time=0.05555550000000001
EXTRACT: note_on channel=9 note=56 velocity=0 time=0.001984125
EXTRACT: note_on channel=9 note=44 velocity=55 time=0.0079365
EXTRACT: note_on channel=9 note=67 velocity=39 time=0
EXTRACT: note_on channel=7 note=61 velocity=65 time=0
EXTRACT: note_on channel=7 note=64 velocity=68 time=0
EXTRACT: note_on channel=9 note=42 velocity=66 time=0.011904750000000002
EXTRACT: note_on channel=9 note=82 velocity=40 time=0
EXTRACT: note_on channel=9 note=82 velocity=0 time=0.001984125
EXTRACT: note_on channel=9 note=42 velocity=0 time=0
EXTRACT: note_on channel=9 note=44 velocity=0 time=0.045634875000000005
EXTRACT: note_on channel=7 note=64 velocity=0 time=0.00396825
EXTRACT: note_on channel=9 note=67 velocity=0 time=0.001984125
EXTRACT: note_on channel=7 note=61 velocity=0 time=0
EXTRACT: note_on channel=3 note=64 velocity=0 time=0.023809500000000004
EXTRACT: note_on channel=9 note=32 velocity=88 time=0.01984125
EXTRACT: note_on channel=9 note=36 velocity=107 time=0
EXTRACT: note_on channel=9 note=39 velocity=98 time=0
EXTRACT: note_on channel=9 note=42 velocity=83 time=0
EXTRACT: note_on channel=9 note=56 velocity=74 time=0
EXTRACT: note_on channel=1 note=32 velocity=86 time=0
EXTRACT: note_on channel=3 note=61 velocity=80 time=0
EXTRACT: note_on channel=5 note=61 velocity=68 time=0
EXTRACT: note_on channel=5 note=64 velocity=80 time=0
EXTRACT: note_on channel=5 note=68 velocity=82 time=0
EXTRACT: note_on channel=6 note=61 velocity=46 time=0
EXTRACT: note_on channel=6 note=64 velocity=58 time=0
EXTRACT: note_on channel=6 note=68 velocity=60 time=0
EXTRACT: note_on channel=7 note=56 velocity=90 time=0
EXTRACT: note_on channel=9 note=39 velocity=121 time=0
EXTRACT: note_on channel=9 note=40 velocity=117 time=0
EXTRACT: note_on channel=9 note=36 velocity=126 time=0
EXTRACT: note_on channel=9 note=35 velocity=117 time=0
EXTRACT: note_on channel=9 note=44 velocity=81 time=0
EXTRACT: note_on channel=9 note=82 velocity=69 time=0
EXTRACT: note_on channel=9 note=82 velocity=0 time=0.001984125
EXTRACT: note_on channel=9 note=40 velocity=0 time=0
EXTRACT: note_on channel=9 note=36 velocity=0 time=0
EXTRACT: note_on channel=9 note=39 velocity=0 time=0
EXTRACT: note_on channel=9 note=44 velocity=0 time=0
EXTRACT: note_on channel=9 note=35 velocity=0 time=0
EXTRACT: note_on channel=1 note=37 velocity=0 time=0.013888875000000002
EXTRACT: note_on channel=5 note=64 velocity=0 time=0.049603125000000005
EXTRACT: note_on channel=9 note=39 velocity=0 time=0.00396825
EXTRACT: note_on channel=9 note=32 velocity=0 time=0.001984125
EXTRACT: note_on channel=9 note=36 velocity=0 time=0.001984125
EXTRACT: note_on channel=5 note=61 velocity=0 time=0.001984125
EXTRACT: note_on channel=5 note=68 velocity=0 time=0.023809500000000004
EXTRACT: note_on channel=7 note=56 velocity=0 time=0.009920625
EXTRACT: note_on channel=9 note=42 velocity=0 time=0.03571425
EXTRACT: note_on channel=6 note=68 velocity=0 time=0.027777750000000004
EXTRACT: note_on channel=6 note=64 velocity=0 time=0
EXTRACT: note_on channel=6 note=61 velocity=0 time=0
EXTRACT: note_on channel=3 note=61 velocity=0 time=0.057539625000000004
EXTRACT: note_on channel=1 note=32 velocity=0 time=0.001984125
EXTRACT: note_on channel=9 note=70 velocity=105 time=0
EXTRACT: note_on channel=9 note=70 velocity=0 time=0.001984125
EXTRACT: note_on channel=9 note=32 velocity=71 time=0.00396825
EXTRACT: note_on channel=9 note=36 velocity=78 time=0
EXTRACT: note_on channel=9 note=44 velocity=59 time=0
EXTRACT: note_on channel=9 note=68 velocity=57 time=0
EXTRACT: note_on channel=1 note=35 velocity=80 time=0
EXTRACT: note_on channel=3 note=59 velocity=80 time=0
EXTRACT: note_on channel=5 note=61 velocity=78 time=0
EXTRACT: note_on channel=5 note=64 velocity=80 time=0
EXTRACT: note_on channel=5 note=68 velocity=85 time=0
EXTRACT: note_on channel=6 note=61 velocity=56 time=0
EXTRACT: note_on channel=6 note=64 velocity=58 time=0
EXTRACT: note_on channel=6 note=68 velocity=63 time=0
EXTRACT: note_on channel=7 note=61 velocity=56 time=0
EXTRACT: note_on channel=7 note=64 velocity=62 time=0
EXTRACT: note_on channel=9 note=42 velocity=73 time=0
EXTRACT: note_on channel=9 note=69 velocity=78 time=0
EXTRACT: note_on channel=9 note=56 velocity=87 time=0
EXTRACT: note_on channel=9 note=56 velocity=0 time=0.001984125
EXTRACT: note_on channel=9 note=69 velocity=0 time=0
EXTRACT: note_on channel=9 note=42 velocity=0 time=0
EXTRACT: note_on channel=9 note=44 velocity=0 time=0.041666625000000006
EXTRACT: note_on channel=9 note=32 velocity=0 time=0.011904750000000002
EXTRACT: note_on channel=9 note=68 velocity=0 time=0
EXTRACT: note_on channel=5 note=61 velocity=0 time=0.00396825
EXTRACT: note_on channel=5 note=64 velocity=0 time=0.001984125
EXTRACT: note_on channel=9 note=36 velocity=0 time=0.001984125
EXTRACT: note_on channel=7 note=64 velocity=0 time=0
EXTRACT: note_on channel=7 note=61 velocity=0 time=0
EXTRACT: note_on channel=9 note=56 velocity=0 time=0.0079365
EXTRACT: note_on channel=10 note=73 velocity=0 time=0.001984125
EXTRACT: note_on channel=5 note=68 velocity=0 time=0
EXTRACT: note_on channel=10 note=64 velocity=0 time=0.005952375000000001
EXTRACT: note_on channel=10 note=68 velocity=0 time=0.005952375000000001
EXTRACT: note_on channel=10 note=61 velocity=0 time=0.023809500000000004
EXTRACT: note_on channel=10 note=56 velocity=0 time=0.013888875000000002
EXTRACT: note_on channel=9 note=32 velocity=67 time=0.005952375000000001
EXTRACT: note_on channel=9 note=44 velocity=66 time=0
EXTRACT: note_on channel=9 note=68 velocity=39 time=0
EXTRACT: note_on channel=7 note=61 velocity=67 time=0
EXTRACT: note_on channel=7 note=64 velocity=65 time=0
EXTRACT: note_on channel=9 note=42 velocity=66 time=0.011904750000000002
EXTRACT: note_on channel=9 note=69 velocity=73 time=0
EXTRACT: note_on channel=9 note=69 velocity=0 time=0.001984125
EXTRACT: note_on channel=9 note=42 velocity=0 time=0
EXTRACT: note_on channel=6 note=68 velocity=0 time=0.029761875000000004
EXTRACT: note_on channel=6 note=64 velocity=0 time=0
EXTRACT: note_on channel=6 note=61 velocity=0 time=0
EXTRACT: note_on channel=9 note=44 velocity=0 time=0.01984125
EXTRACT: note_on channel=7 note=64 velocity=0 time=0
EXTRACT: note_on channel=9 note=32 velocity=0 time=0.005952375000000001
EXTRACT: note_on channel=7 note=61 velocity=0 time=0.001984125
EXTRACT: note_on channel=9 note=68 velocity=0 time=0.001984125
EXTRACT: note_on channel=3 note=59 velocity=0 time=0.005952375000000001
EXTRACT: note_on channel=1 note=35 velocity=0 time=0.005952375000000001
EXTRACT: note_on channel=9 note=27 velocity=90 time=0.023809500000000004
EXTRACT: note_on channel=9 note=36 velocity=105 time=0
EXTRACT: note_on channel=9 note=42 velocity=97 time=0
EXTRACT: note_on channel=9 note=44 velocity=89 time=0
EXTRACT: note_on channel=9 note=56 velocity=77 time=0
EXTRACT: note_on channel=1 note=33 velocity=80 time=0
EXTRACT: note_on channel=10 note=52 velocity=70 time=0
EXTRACT: note_on channel=10 note=57 velocity=56 time=0
EXTRACT: note_on channel=10 note=61 velocity=49 time=0
EXTRACT: note_on channel=10 note=69 velocity=74 time=0
EXTRACT: note_on channel=10 note=73 velocity=52 time=0
EXTRACT: note_on channel=10 note=76 velocity=59 time=0
EXTRACT: note_on channel=4 note=64 velocity=110 time=0
EXTRACT: note_on channel=5 note=61 velocity=76 time=0
EXTRACT: note_on channel=5 note=64 velocity=77 time=0
EXTRACT: note_on channel=5 note=69 velocity=85 time=0
EXTRACT: note_on channel=6 note=61 velocity=54 time=0
EXTRACT: note_on channel=6 note=64 velocity=55 time=0
EXTRACT: note_on channel=6 note=69 velocity=63 time=0
EXTRACT: note_on channel=7 note=52 velocity=95 time=0
EXTRACT: note_on channel=9 note=36 velocity=126 time=0
EXTRACT: note_on channel=9 note=35 velocity=117 time=0
EXTRACT: note_on channel=9 note=35 velocity=0 time=0.001984125
EXTRACT: note_on channel=9 note=36 velocity=0 time=0
EXTRACT: note_on channel=5 note=64 velocity=0 time=0.029761875000000004
EXTRACT: note_on channel=5 note=69 velocity=0 time=0.027777750000000004
EXTRACT: note_on channel=5 note=61 velocity=0 time=0.009920625
EXTRACT: note_on channel=9 note=27 velocity=0 time=0.009920625
EXTRACT: note_on channel=4 note=64 velocity=0 time=0.005952375000000001
EXTRACT: note_on channel=7 note=52 velocity=0 time=0.00396825
EXTRACT: note_on channel=9 note=44 velocity=0 time=0.045634875000000005
EXTRACT: note_on channel=9 note=36 velocity=0 time=0.00396825
EXTRACT: note_on channel=9 note=69 velocity=84 time=0.001984125
EXTRACT: note_on channel=1 note=33 velocity=0 time=0.001984125
EXTRACT: note_on channel=9 note=69 velocity=0 time=0
EXTRACT: note_on channel=6 note=69 velocity=0 time=0.029761875000000004
EXTRACT: note_on channel=6 note=64 velocity=0 time=0
EXTRACT: note_on channel=6 note=61 velocity=0 time=0
EXTRACT: note_on channel=9 note=42 velocity=0 time=0.061507875000000004
EXTRACT: note_on channel=9 note=70 velocity=105 time=0
EXTRACT: note_on channel=9 note=27 velocity=78 time=0.00396825
EXTRACT: note_on channel=9 note=44 velocity=47 time=0
EXTRACT: note_on channel=9 note=67 velocity=40 time=0
EXTRACT: note_on channel=1 note=33 velocity=76 time=0
EXTRACT: note_on channel=4 note=64 velocity=103 time=0
EXTRACT: note_on channel=7 note=57 velocity=48 time=0
EXTRACT: note_on channel=7 note=61 velocity=56 time=0
EXTRACT: note_on channel=9 note=70 velocity=0 time=0
EXTRACT: note_on channel=9 note=42 velocity=73 time=0
EXTRACT: note_on channel=9 note=62 velocity=79 time=0
EXTRACT: note_on channel=9 note=62 velocity=0 time=0.001984125
EXTRACT: note_on channel=9 note=42 velocity=0 time=0
EXTRACT: note_on channel=9 note=44 velocity=0 time=0.027777750000000004
EXTRACT: note_on channel=9 note=67 velocity=0 time=0.013888875000000002
EXTRACT: note_on channel=7 note=61 velocity=0 time=0.01984125
EXTRACT: note_on channel=7 note=57 velocity=0 time=0
EXTRACT: note_on channel=9 note=27 velocity=0 time=0.001984125
EXTRACT: note_on channel=9 note=56 velocity=0 time=0.017857125
EXTRACT: note_on channel=9 note=61 velocity=69 time=0.03571425
EXTRACT: note_on channel=9 note=61 velocity=0 time=0.001984125
EXTRACT: note_on channel=9 note=27 velocity=50 time=0.0079365
EXTRACT: note_on channel=9 note=44 velocity=62 time=0
EXTRACT: note_on channel=9 note=67 velocity=46 time=0
EXTRACT: note_on channel=5 note=61 velocity=66 time=0
EXTRACT: note_on channel=5 note=64 velocity=78 time=0
EXTRACT: note_on channel=5 note=69 velocity=80 time=0
EXTRACT: note_on channel=6 note=61 velocity=44 time=0
EXTRACT: note_on channel=6 note=64 velocity=56 time=0
EXTRACT: note_on channel=6 note=69 velocity=58 time=0
EXTRACT: note_on channel=7 note=57 velocity=66 time=0
EXTRACT: note_on channel=7 note=61 velocity=65 time=0
EXTRACT: note_on channel=9 note=42 velocity=66 time=0.011904750000000002
EXTRACT: note_on channel=9 note=69 velocity=68 time=0
EXTRACT: note_on channel=9 note=69 velocity=0 time=0.001984125
EXTRACT: note_on channel=9 note=42 velocity=0 time=0
EXTRACT: note_on channel=5 note=64 velocity=0 time=0.041666625000000006
EXTRACT: note_on channel=5 note=61 velocity=0 time=0.005952375000000001
EXTRACT: note_on channel=9 note=67 velocity=0 time=0.0079365
EXTRACT: note_on channel=9 note=44 velocity=0 time=0
EXTRACT: note_on channel=7 note=57 velocity=0 time=0.00396825
EXTRACT: note_on channel=5 note=69 velocity=0 time=0.009920625
EXTRACT: note_on channel=9 note=27 velocity=0 time=0.005952375000000001
EXTRACT: note_on channel=7 note=61 velocity=0 time=0
EXTRACT: note_on channel=4 note=64 velocity=0 time=0.015873
EXTRACT: note_on channel=9 note=32 velocity=78 time=0.00396825
EXTRACT: note_on channel=9 note=36 velocity=107 time=0
EXTRACT: note_on channel=9 note=39 velocity=96 time=0
EXTRACT: note_on channel=9 note=42 velocity=83 time=0
EXTRACT: note_on channel=9 note=56 velocity=83 time=0
EXTRACT: note_on channel=1 note=37 velocity=77 time=0
EXTRACT: note_on channel=4 note=61 velocity=87 time=0
EXTRACT: note_on channel=7 note=52 velocity=88 time=0
EXTRACT: note_on channel=9 note=39 velocity=121 time=0
EXTRACT: note_on channel=9 note=36 velocity=126 time=0
EXTRACT: note_on channel=9 note=35 velocity=117 time=0
EXTRACT: note_on channel=9 note=40 velocity=117 time=0
EXTRACT: note_on channel=9 note=44 velocity=81 time=0
EXTRACT: note_on channel=9 note=44 velocity=0 time=0.001984125
EXTRACT: note_on channel=9 note=35 velocity=0 time=0
EXTRACT: note_on channel=9 note=39 velocity=0 time=0
EXTRACT: note_on channel=9 note=36 velocity=0 time=0
EXTRACT: note_on channel=9 note=40 velocity=0 time=0
EXTRACT: note_on channel=1 note=33 velocity=0 time=0.021825375
EXTRACT: note_on channel=6 note=69 velocity=0 time=0.0396825
EXTRACT: note_on channel=6 note=64 velocity=0 time=0
EXTRACT: note_on channel=6 note=61 velocity=0 time=0
EXTRACT: note_on channel=9 note=32 velocity=0 time=0.0079365
EXTRACT: note_on channel=9 note=39 velocity=0 time=0.00396825
EXTRACT: note_on channel=9 note=62 velocity=73 time=0.04365075
EXTRACT: note_on channel=9 note=62 velocity=0 time=0.001984125
EXTRACT: note_on channel=9 note=36 velocity=0 time=0.031746
EXTRACT: note_on channel=7 note=52 velocity=0 time=0.0079365
EXTRACT: note_on channel=4 note=61 velocity=0 time=0.03373012500000001
EXTRACT: note_on channel=9 note=42 velocity=0 time=0.023809500000000004
EXTRACT: note_on channel=9 note=32 velocity=69 time=0.01984125
EXTRACT: note_on channel=9 note=44 velocity=59 time=0
EXTRACT: note_on channel=9 note=68 velocity=38 time=0
EXTRACT: note_on channel=1 note=37 velocity=0 time=0
EXTRACT: note_on channel=1 note=40 velocity=81 time=0
EXTRACT: note_on channel=4 note=59 velocity=84 time=0
EXTRACT: note_on channel=5 note=61 velocity=71 time=0
EXTRACT: note_on channel=5 note=64 velocity=81 time=0
EXTRACT: note_on channel=5 note=69 velocity=93 time=0
EXTRACT: note_on channel=6 note=61 velocity=49 time=0
EXTRACT: note_on channel=6 note=64 velocity=59 time=0
EXTRACT: note_on channel=6 note=69 velocity=71 time=0
EXTRACT: note_on channel=7 note=57 velocity=64 time=0
EXTRACT: note_on channel=7 note=61 velocity=65 time=0
EXTRACT: note_on channel=9 note=42 velocity=73 time=0
EXTRACT: note_on channel=9 note=61 velocity=66 time=0
EXTRACT: note_on channel=9 note=61 velocity=0 time=0.001984125
EXTRACT: note_on channel=9 note=42 velocity=0 time=0
EXTRACT: note_on channel=9 note=70 velocity=105 time=0.001984125
EXTRACT: note_on channel=9 note=70 velocity=0 time=0.001984125
EXTRACT: note_on channel=9 note=68 velocity=0 time=0.03571425
EXTRACT: note_on channel=9 note=44 velocity=0 time=0.001984125
EXTRACT: note_on channel=9 note=32 velocity=0 time=0.015873
EXTRACT: note_on channel=7 note=57 velocity=0 time=0.00396825
EXTRACT: note_on channel=5 note=64 velocity=0 time=0.005952375000000001
EXTRACT: note_on channel=5 note=61 velocity=0 time=0.00396825
EXTRACT: note_on channel=7 note=61 velocity=0 time=0
EXTRACT: note_on channel=5 note=69 velocity=0 time=0.005952375000000001
EXTRACT: note_on channel=9 note=56 velocity=0 time=0.00396825
EXTRACT: note_on channel=10 note=76 velocity=0 time=0.009920625
EXTRACT: note_on channel=10 note=57 velocity=0 time=0.0079365
EXTRACT: note_on channel=10 note=69 velocity=0 time=0.011904750000000002
EXTRACT: note_on channel=10 note=52 velocity=0 time=0.0079365
EXTRACT: note_on channel=9 note=32 velocity=69 time=0.0079365
EXTRACT: note_on channel=9 note=44 velocity=66 time=0
EXTRACT: note_on channel=9 note=68 velocity=40 time=0
EXTRACT: note_on channel=7 note=57 velocity=73 time=0
EXTRACT: note_on channel=7 note=61 velocity=60 time=0
EXTRACT: note_on channel=10 note=61 velocity=0 time=0.005952375000000001
EXTRACT: note_on channel=9 note=42 velocity=66 time=0.005952375000000001
EXTRACT: note_on channel=9 note=82 velocity=48 time=0
EXTRACT: note_on channel=10 note=73 velocity=0 time=0.001984125
EXTRACT: note_on channel=9 note=82 velocity=0 time=0
EXTRACT: note_on channel=9 note=42 velocity=0 time=0
EXTRACT: note_on channel=6 note=69 velocity=0 time=0.029761875000000004
EXTRACT: note_on channel=6 note=64 velocity=0 time=0
EXTRACT: note_on channel=6 note=61 velocity=0 time=0
EXTRACT: note_on channel=9 note=44 velocity=0 time=0.017857125
EXTRACT: note_on channel=7 note=57 velocity=0 time=0.001984125
EXTRACT: note_on channel=9 note=68 velocity=0 time=0.009920625
EXTRACT: note_on channel=9 note=32 velocity=0 time=0
EXTRACT: note_on channel=7 note=61 velocity=0 time=0.005952375000000001
EXTRACT: note_on channel=4 note=59 velocity=0 time=0.025793625000000004
EXTRACT: note_on channel=9 note=27 velocity=88 time=0.00396825
EXTRACT: note_on channel=9 note=36 velocity=107 time=0
EXTRACT: note_on channel=9 note=42 velocity=97 time=0
EXTRACT: note_on channel=9 note=44 velocity=93 time=0
EXTRACT: note_on channel=9 note=56 velocity=77 time=0
EXTRACT: note_on channel=1 note=35 velocity=84 time=0
EXTRACT: note_on channel=10 note=54 velocity=67 time=0
EXTRACT: note_on channel=10 note=59 velocity=68 time=0
EXTRACT: note_on channel=10 note=66 velocity=57 time=0
EXTRACT: note_on channel=10 note=71 velocity=57 time=0
EXTRACT: note_on channel=10 note=75 velocity=67 time=0
EXTRACT: note_on channel=4 note=64 velocity=103 time=0
EXTRACT: note_on channel=7 note=54 velocity=83 time=0
EXTRACT: note_on channel=9 note=36 velocity=126 time=0
EXTRACT: note_on channel=9 note=35 velocity=117 time=0
EXTRACT: note_on channel=9 note=44 velocity=81 time=0
EXTRACT: note_on channel=9 note=82 velocity=55 time=0
EXTRACT: note_on channel=9 note=56 velocity=80 time=0
EXTRACT: note_on channel=1 note=40 velocity=0 time=0.001984125
EXTRACT: note_on channel=9 note=56 velocity=0 time=0
EXTRACT: note_on channel=9 note=44 velocity=0 time=0
EXTRACT: note_on channel=9 note=36 velocity=0 time=0
EXTRACT: note_on channel=9 note=35 velocity=0 time=0
EXTRACT: note_on channel=9 note=82 velocity=0 time=0
EXTRACT: note_on channel=9 note=27 velocity=0 time=0.069444375
EXTRACT: note_on channel=4 note=64 velocity=0 time=0.037698375000000006
EXTRACT: note_on channel=7 note=54 velocity=0 time=0.005952375000000001
EXTRACT: note_on channel=9 note=32 velocity=77 time=0.013888875000000002
EXTRACT: note_on channel=5 note=59 velocity=75 time=0
EXTRACT: note_on channel=5 note=64 velocity=79 time=0
EXTRACT: note_on channel=5 note=66 velocity=75 time=0
EXTRACT: note_on channel=6 note=59 velocity=53 time=0
EXTRACT: note_on channel=6 note=64 velocity=57 time=0
EXTRACT: note_on channel=6 note=66 velocity=53 time=0
EXTRACT: note_on channel=9 note=82 velocity=63 time=0.011904750000000002
EXTRACT: note_on channel=9 note=82 velocity=0 time=0.001984125
EXTRACT: note_on channel=9 note=44 velocity=0 time=0.005952375000000001
EXTRACT: note_on channel=9 note=36 velocity=0 time=0
EXTRACT: note_on channel=5 note=64 velocity=0 time=0.009920625
EXTRACT: note_on channel=5 note=59 velocity=0 time=0.001984125
EXTRACT: note_on channel=9 note=32 velocity=0 time=0.023809500000000004
EXTRACT: note_on channel=5 note=66 velocity=0 time=0.017857125
EXTRACT: note_on channel=9 note=42 velocity=0 time=0.031746
EXTRACT: note_on channel=9 note=27 velocity=77 time=0.00396825
EXTRACT: note_on channel=9 note=44 velocity=63 time=0
EXTRACT: note_on channel=9 note=67 velocity=28 time=0
EXTRACT: note_on channel=4 note=64 velocity=99 time=0
EXTRACT: note_on channel=7 note=57 velocity=55 time=0
EXTRACT: note_on channel=7 note=59 velocity=64 time=0
EXTRACT: note_on channel=9 note=42 velocity=73 time=0
EXTRACT: note_on channel=9 note=82 velocity=59 time=0
EXTRACT: note_on channel=9 note=63 velocity=60 time=0
EXTRACT: note_on channel=9 note=63 velocity=0 time=0.001984125
EXTRACT: note_on channel=9 note=82 velocity=0 time=0
EXTRACT: note_on channel=9 note=42 velocity=0 time=0
EXTRACT: note_on channel=9 note=70 velocity=105 time=0.001984125
EXTRACT: note_on channel=9 note=70 velocity=0 time=0.001984125
EXTRACT: note_on channel=9 note=67 velocity=0 time=0.0396825
EXTRACT: note_on channel=9 note=44 velocity=0 time=0.00396825
EXTRACT: note_on channel=9 note=27 velocity=0 time=0.013888875000000002
EXTRACT: note_on channel=6 note=66 velocity=0 time=0
EXTRACT: note_on channel=6 note=64 velocity=0 time=0
EXTRACT: note_on channel=6 note=59 velocity=0 time=0
EXTRACT: note_on channel=7 note=59 velocity=0 time=0
EXTRACT: note_on channel=7 note=57 velocity=0 time=0
EXTRACT: note_on channel=9 note=56 velocity=0 time=0.015873
EXTRACT: note_on channel=9 note=56 velocity=89 time=0.0396825
EXTRACT: note_on channel=9 note=56 velocity=0 time=0.001984125
EXTRACT: note_on channel=9 note=44 velocity=52 time=0.0079365
EXTRACT: note_on channel=9 note=67 velocity=47 time=0
EXTRACT: note_on channel=7 note=57 velocity=66 time=0
EXTRACT: note_on channel=7 note=59 velocity=76 time=0
EXTRACT: note_on channel=9 note=42 velocity=66 time=0.011904750000000002
EXTRACT: note_on channel=9 note=82 velocity=45 time=0
EXTRACT: note_on channel=9 note=82 velocity=0 time=0.001984125
EXTRACT: note_on channel=9 note=42 velocity=0 time=0
EXTRACT: note_on channel=9 note=44 velocity=0 time=0.03571425
EXTRACT: note_on channel=9 note=67 velocity=0 time=0.001984125
EXTRACT: note_on channel=7 note=57 velocity=0 time=0.01984125
EXTRACT: note_on channel=7 note=59 velocity=0 time=0.0079365
EXTRACT: note_on channel=4 note=64 velocity=0 time=0.025793625000000004
EXTRACT: note_on channel=9 note=32 velocity=83 time=0.00396825
EXTRACT: note_on channel=9 note=36 velocity=107 time=0
EXTRACT: note_on channel=9 note=39 velocity=100 time=0
EXTRACT: note_on channel=9 note=42 velocity=79 time=0
EXTRACT: note_on channel=9 note=56 velocity=77 time=0
EXTRACT: note_on channel=1 note=39 velocity=90 time=0
EXTRACT: note_on channel=4 note=61 velocity=87 time=0
EXTRACT: note_on channel=5 note=59 velocity=72 time=0
EXTRACT: note_on channel=5 note=64 velocity=81 time=0
EXTRACT: note_on channel=5 note=66 velocity=76 time=0
EXTRACT: note_on channel=6 note=59 velocity=50 time=0
EXTRACT: note_on channel=6 note=64 velocity=59 time=0
EXTRACT: note_on channel=6 note=66 velocity=54 time=0
EXTRACT: note_on channel=7 note=54 velocity=84 time=0
EXTRACT: note_on channel=9 note=36 velocity=126 time=0
EXTRACT: note_on channel=9 note=35 velocity=117 time=0
EXTRACT: note_on channel=9 note=39 velocity=121 time=0
EXTRACT: note_on channel=9 note=40 velocity=117 time=0
EXTRACT: note_on channel=9 note=44 velocity=81 time=0
EXTRACT: note_on channel=9 note=82 velocity=60 time=0
EXTRACT: note_on channel=9 note=82 velocity=0 time=0.001984125
EXTRACT: note_on channel=9 note=35 velocity=0 time=0
EXTRACT: note_on channel=9 note=39 velocity=0 time=0
EXTRACT: note_on channel=9 note=36 velocity=0 time=0
EXTRACT: note_on channel=9 note=44 velocity=0 time=0
EXTRACT: note_on channel=9 note=40 velocity=0 time=0
EXTRACT: note_on channel=1 note=35 velocity=0 time=0.013888875000000002
EXTRACT: note_on channel=5 note=59 velocity=0 time=0.009920625
EXTRACT: note_on channel=9 note=32 velocity=0 time=0.037698375000000006
EXTRACT: note_on channel=5 note=64 velocity=0 time=0
EXTRACT: note_on channel=9 note=39 velocity=0 time=0.009920625
EXTRACT: note_on channel=5 note=66 velocity=0 time=0
EXTRACT: note_on channel=9 note=36 velocity=0 time=0.011904750000000002
EXTRACT: note_on channel=7 note=54 velocity=0 time=0.053571375000000004
EXTRACT: note_on channel=6 note=66 velocity=0 time=0.03373012500000001
EXTRACT: note_on channel=6 note=64 velocity=0 time=0
EXTRACT: note_on channel=6 note=59 velocity=0 time=0
EXTRACT: note_on channel=4 note=61 velocity=0 time=0.015873
EXTRACT: note_on channel=1 note=39 velocity=0 time=0.03373012500000001
EXTRACT: note_on channel=9 note=70 velocity=105 time=0.009920625
EXTRACT: note_on channel=9 note=42 velocity=0 time=0.001984125
EXTRACT: note_on channel=9 note=70 velocity=0 time=0
EXTRACT: note_on channel=9 note=32 velocity=79 time=0.00396825
EXTRACT: note_on channel=9 note=44 velocity=66 time=0
EXTRACT: note_on channel=9 note=68 velocity=45 time=0
EXTRACT: note_on channel=1 note=42 velocity=86 time=0
EXTRACT: note_on channel=4 note=59 velocity=89 time=0
EXTRACT: note_on channel=5 note=59 velocity=81 time=0
EXTRACT: note_on channel=5 note=63 velocity=78 time=0
EXTRACT: note_on channel=5 note=66 velocity=78 time=0
EXTRACT: note_on channel=6 note=59 velocity=59 time=0
EXTRACT: note_on channel=6 note=63 velocity=56 time=0
EXTRACT: note_on channel=6 note=66 velocity=56 time=0
EXTRACT: note_on channel=7 note=57 velocity=64 time=0
EXTRACT: note_on channel=7 note=59 velocity=70 time=0
EXTRACT: note_on channel=9 note=42 velocity=75 time=0
EXTRACT: note_on channel=9 note=69 velocity=87 time=0
EXTRACT: note_on channel=9 note=56 velocity=87 time=0
EXTRACT: note_on channel=9 note=56 velocity=0 time=0.001984125
EXTRACT: note_on channel=9 note=69 velocity=0 time=0
EXTRACT: note_on channel=9 note=42 velocity=0 time=0
EXTRACT: note_on channel=9 note=44 velocity=0 time=0.05158725000000001
EXTRACT: note_on channel=9 note=68 velocity=0 time=0.005952375000000001
EXTRACT: note_on channel=9 note=32 velocity=0 time=0
EXTRACT: note_on channel=10 note=71 velocity=0 time=0.001984125
EXTRACT: note_on channel=9 note=56 velocity=0 time=0.001984125
EXTRACT: note_on channel=5 note=63 velocity=0 time=0
EXTRACT: note_on channel=7 note=59 velocity=0 time=0
EXTRACT: note_on channel=7 note=57 velocity=0 time=0
EXTRACT: note_on channel=5 note=59 velocity=0 time=0.009920625
EXTRACT: note_on channel=5 note=66 velocity=0 time=0.005952375000000001
EXTRACT: note_on channel=10 note=66 velocity=0 time=0.005952375000000001
EXTRACT: note_on channel=10 note=59 velocity=0 time=0.01984125
EXTRACT: note_on channel=9 note=62 velocity=64 time=0.013888875000000002
EXTRACT: note_on channel=9 note=62 velocity=0 time=0.001984125
EXTRACT: note_on channel=9 note=32 velocity=71 time=0.0079365
EXTRACT: note_on channel=9 note=44 velocity=55 time=0
EXTRACT: note_on channel=9 note=68 velocity=29 time=0
EXTRACT: note_on channel=10 note=75 velocity=0 time=0
EXTRACT: note_on channel=7 note=57 velocity=69 time=0
EXTRACT: note_on channel=7 note=59 velocity=57 time=0
EXTRACT: note_on channel=10 note=54 velocity=0 time=0.011904750000000002
EXTRACT: note_on channel=9 note=42 velocity=66 time=0
EXTRACT: note_on channel=9 note=69 velocity=69 time=0
EXTRACT: note_on channel=9 note=69 velocity=0 time=0.001984125
EXTRACT: note_on channel=9 note=42 velocity=0 time=0
EXTRACT: note_on channel=6 note=66 velocity=0 time=0.029761875000000004
EXTRACT: note_on channel=6 note=63 velocity=0 time=0
EXTRACT: note_on channel=6 note=59 velocity=0 time=0
EXTRACT: note_on channel=9 note=44 velocity=0 time=0.009920625
EXTRACT: note_on channel=9 note=32 velocity=0 time=0.009920625
EXTRACT: note_on channel=7 note=59 velocity=0 time=0
EXTRACT: note_on channel=7 note=57 velocity=0 time=0.005952375000000001
EXTRACT: note_on channel=9 note=68 velocity=0 time=0.001984125
EXTRACT: note_on channel=4 note=59 velocity=0 time=0.013888875000000002
EXTRACT: note_on channel=9 note=27 velocity=86 time=0.023809500000000004
EXTRACT: note_on channel=9 note=36 velocity=109 time=0
EXTRACT: note_on channel=9 note=42 velocity=89 time=0
EXTRACT: note_on channel=9 note=44 velocity=86 time=0
EXTRACT: note_on channel=9 note=56 velocity=79 time=0
EXTRACT: note_on channel=10 note=56 velocity=74 time=0
EXTRACT: note_on channel=10 note=59 velocity=68 time=0
EXTRACT: note_on channel=10 note=63 velocity=64 time=0
EXTRACT: note_on channel=10 note=68 velocity=74 time=0
EXTRACT: note_on channel=10 note=71 velocity=62 time=0
EXTRACT: note_on channel=10 note=75 velocity=67 time=0
EXTRACT: note_on channel=5 note=59 velocity=78 time=0
EXTRACT: note_on channel=5 note=63 velocity=92 time=0
EXTRACT: note_on channel=5 note=68 velocity=86 time=0
EXTRACT: note_on channel=6 note=59 velocity=56 time=0
EXTRACT: note_on channel=6 note=63 velocity=70 time=0
EXTRACT: note_on channel=6 note=68 velocity=64 time=0
EXTRACT: note_on channel=7 note=56 velocity=91 time=0
EXTRACT: note_on channel=9 note=36 velocity=126 time=0
EXTRACT: note_on channel=9 note=35 velocity=117 time=0
EXTRACT: note_on channel=9 note=44 velocity=81 time=0
EXTRACT: note_on channel=9 note=60 velocity=69 time=0
EXTRACT: note_on channel=9 note=60 velocity=0 time=0.001984125
EXTRACT: note_on channel=9 note=36 velocity=0 time=0
EXTRACT: note_on channel=9 note=35 velocity=0 time=0
EXTRACT: note_on channel=9 note=44 velocity=0 time=0
EXTRACT: note_on channel=1 note=42 velocity=0 time=0.011904750000000002
EXTRACT: note_on channel=5 note=59 velocity=0 time=0.015873
EXTRACT: note_on channel=5 note=63 velocity=0 time=0.021825375
EXTRACT: note_on channel=9 note=27 velocity=0 time=0.027777750000000004
EXTRACT: note_on channel=5 note=68 velocity=0 time=0.005952375000000001
EXTRACT: note_on channel=9 note=36 velocity=0 time=0.00396825
EXTRACT: note_on channel=7 note=56 velocity=0 time=0.04365075
EXTRACT: note_on channel=9 note=69 velocity=93 time=0.0079365
EXTRACT: note_on channel=9 note=69 velocity=0 time=0.001984125
EXTRACT: note_on channel=6 note=68 velocity=0 time=0.029761875000000004
EXTRACT: note_on channel=6 note=63 velocity=0 time=0
EXTRACT: note_on channel=6 note=59 velocity=0 time=0
EXTRACT: note_on channel=9 note=44 velocity=0 time=0.03571425
EXTRACT: note_on channel=9 note=42 velocity=0 time=0.025793625000000004
EXTRACT: note_on channel=9 note=27 velocity=85 time=0.00396825
EXTRACT: note_on channel=9 note=44 velocity=52 time=0
EXTRACT: note_on channel=9 note=67 velocity=37 time=0
EXTRACT: note_on channel=1 note=32 velocity=90 time=0
EXTRACT: note_on channel=3 note=73 velocity=91 time=0
EXTRACT: note_on channel=7 note=59 velocity=70 time=0
EXTRACT: note_on channel=7 note=63 velocity=70 time=0
EXTRACT: note_on channel=9 note=42 velocity=73 time=0
EXTRACT: note_on channel=9 note=62 velocity=59 time=0
EXTRACT: note_on channel=9 note=70 velocity=105 time=0
EXTRACT: note_on channel=9 note=70 velocity=0 time=0.001984125
EXTRACT: note_on channel=9 note=62 velocity=0 time=0
EXTRACT: note_on channel=9 note=42 velocity=0 time=0
EXTRACT: note_on channel=9 note=44 velocity=0 time=0.027777750000000004
EXTRACT: note_on channel=9 note=67 velocity=0 time=0.011904750000000002
EXTRACT: note_on channel=7 note=63 velocity=0 time=0.021825375
EXTRACT: note_on channel=7 note=59 velocity=0 time=0
EXTRACT: note_on channel=9 note=27 velocity=0 time=0.011904750000000002
EXTRACT: note_on channel=9 note=56 velocity=0 time=0.009920625
EXTRACT: note_on channel=9 note=60 velocity=63 time=0.03373012500000001
EXTRACT: note_on channel=9 note=60 velocity=0 time=0.001984125
EXTRACT: note_on channel=9 note=44 velocity=67 time=0.0079365
EXTRACT: note_on channel=9 note=67 velocity=47 time=0
EXTRACT: note_on channel=5 note=59 velocity=77 time=0
EXTRACT: note_on channel=5 note=63 velocity=87 time=0
EXTRACT: note_on channel=5 note=68 velocity=87 time=0
EXTRACT: note_on channel=6 note=59 velocity=55 time=0
EXTRACT: note_on channel=6 note=63 velocity=65 time=0
EXTRACT: note_on channel=6 note=68 velocity=65 time=0
EXTRACT: note_on channel=7 note=59 velocity=51 time=0
EXTRACT: note_on channel=7 note=63 velocity=77 time=0
EXTRACT: note_on channel=9 note=42 velocity=66 time=0.011904750000000002
EXTRACT: note_on channel=9 note=69 velocity=61 time=0
EXTRACT: note_on channel=9 note=69 velocity=0 time=0.001984125
EXTRACT: note_on channel=9 note=42 velocity=0 time=0
EXTRACT: note_on channel=5 note=59 velocity=0 time=0.015873
EXTRACT: note_on channel=5 note=63 velocity=0 time=0.01984125
EXTRACT: note_on channel=9 note=44 velocity=0 time=0.00396825
EXTRACT: note_on channel=9 note=67 velocity=0 time=0.0079365
EXTRACT: note_on channel=7 note=63 velocity=0 time=0.0079365
EXTRACT: note_on channel=7 note=59 velocity=0 time=0.00396825
EXTRACT: note_on channel=5 note=68 velocity=0 time=0.011904750000000002
EXTRACT: note_on channel=3 note=73 velocity=0 time=0.01984125
EXTRACT: note_on channel=9 note=32 velocity=83 time=0.00396825
EXTRACT: note_on channel=9 note=36 velocity=109 time=0
EXTRACT: note_on channel=9 note=39 velocity=100 time=0
EXTRACT: note_on channel=9 note=42 velocity=86 time=0
EXTRACT: note_on channel=9 note=56 velocity=82 time=0
EXTRACT: note_on channel=1 note=35 velocity=80 time=0
EXTRACT: note_on channel=3 note=71 velocity=94 time=0
EXTRACT: note_on channel=7 note=56 velocity=87 time=0
EXTRACT: note_on channel=9 note=40 velocity=117 time=0
EXTRACT: note_on channel=9 note=36 velocity=126 time=0
EXTRACT: note_on channel=9 note=35 velocity=117 time=0
EXTRACT: note_on channel=9 note=39 velocity=121 time=0
EXTRACT: note_on channel=9 note=44 velocity=81 time=0
EXTRACT: note_on channel=9 note=69 velocity=78 time=0
EXTRACT: note_on channel=9 note=69 velocity=0 time=0.001984125
EXTRACT: note_on channel=9 note=36 velocity=0 time=0
EXTRACT: note_on channel=9 note=35 velocity=0 time=0
EXTRACT: note_on channel=9 note=40 velocity=0 time=0
EXTRACT: note_on channel=9 note=44 velocity=0 time=0
EXTRACT: note_on channel=9 note=39 velocity=0 time=0
EXTRACT: note_on channel=1 note=32 velocity=0 time=0.01984125
EXTRACT: note_on channel=6 note=68 velocity=0 time=0.041666625000000006
EXTRACT: note_on channel=6 note=63 velocity=0 time=0
EXTRACT: note_on channel=6 note=59 velocity=0 time=0
EXTRACT: note_on channel=9 note=39 velocity=0 time=0.005952375000000001
EXTRACT: note_on channel=9 note=32 velocity=0 time=0.001984125
EXTRACT: note_on channel=9 note=36 velocity=0 time=0.0079365
EXTRACT: note_on channel=9 note=61 velocity=73 time=0.0396825
EXTRACT: note_on channel=9 note=61 velocity=0 time=0.001984125
EXTRACT: note_on channel=7 note=56 velocity=0 time=0.001984125
EXTRACT: note_on channel=9 note=42 velocity=0 time=0.11111100000000002
EXTRACT: note_on channel=3 note=71 velocity=0 time=0
EXTRACT: note_on channel=9 note=32 velocity=78 time=0.00396825
EXTRACT: note_on channel=9 note=44 velocity=59 time=0
EXTRACT: note_on channel=9 note=68 velocity=41 time=0
EXTRACT: note_on channel=1 note=39 velocity=84 time=0
EXTRACT: note_on channel=3 note=73 velocity=87 time=0
EXTRACT: note_on channel=5 note=59 velocity=82 time=0
EXTRACT: note_on channel=5 note=63 velocity=96 time=0
EXTRACT: note_on channel=5 note=68 velocity=89 time=0
EXTRACT: note_on channel=6 note=59 velocity=60 time=0
EXTRACT: note_on channel=6 note=63 velocity=74 time=0
EXTRACT: note_on channel=6 note=68 velocity=67 time=0
EXTRACT: note_on channel=7 note=59 velocity=74 time=0
EXTRACT: note_on channel=7 note=63 velocity=79 time=0
EXTRACT: note_on channel=9 note=42 velocity=73 time=0
EXTRACT: note_on channel=9 note=60 velocity=66 time=0
EXTRACT: note_on channel=9 note=60 velocity=0 time=0.001984125
EXTRACT: note_on channel=9 note=42 velocity=0 time=0
EXTRACT: note_on channel=9 note=70 velocity=105 time=0
EXTRACT: note_on channel=9 note=70 velocity=0 time=0.001984125
EXTRACT: note_on channel=1 note=35 velocity=0 time=0.001984125
EXTRACT: note_on channel=9 note=44 velocity=0 time=0.03373012500000001
EXTRACT: note_on channel=9 note=68 velocity=0 time=0.00396825
EXTRACT: note_on channel=5 note=59 velocity=0 time=0.011904750000000002
EXTRACT: note_on channel=5 note=63 velocity=0 time=0.005952375000000001
EXTRACT: note_on channel=7 note=59 velocity=0 time=0.001984125
EXTRACT: note_on channel=9 note=32 velocity=0 time=0.001984125
EXTRACT: note_on channel=7 note=63 velocity=0 time=0
EXTRACT: note_on channel=9 note=56 velocity=0 time=0.027777750000000004
EXTRACT: note_on channel=10 note=68 velocity=0 time=0
EXTRACT: note_on channel=10 note=71 velocity=0 time=0.001984125
EXTRACT: note_on channel=5 note=68 velocity=0 time=0
EXTRACT: note_on channel=9 note=62 velocity=69 time=0.023809500000000004
EXTRACT: note_on channel=9 note=62 velocity=0 time=0.001984125
EXTRACT: note_on channel=9 note=32 velocity=55 time=0.0079365
EXTRACT: note_on channel=9 note=44 velocity=59 time=0
EXTRACT: note_on channel=9 note=68 velocity=42 time=0
EXTRACT: note_on channel=7 note=59 velocity=62 time=0
EXTRACT: note_on channel=7 note=63 velocity=75 time=0
EXTRACT: note_on channel=10 note=63 velocity=0 time=0.005952375000000001
EXTRACT: note_on channel=9 note=42 velocity=66 time=0.005952375000000001
EXTRACT: note_on channel=9 note=42 velocity=0 time=0.001984125
EXTRACT: note_on channel=10 note=75 velocity=0 time=0.0079365
EXTRACT: note_on channel=3 note=73 velocity=0 time=0.0079365
EXTRACT: note_on channel=1 note=39 velocity=0 time=0.005952375000000001
EXTRACT: note_on channel=6 note=68 velocity=0 time=0.0079365
EXTRACT: note_on channel=6 note=63 velocity=0 time=0
EXTRACT: note_on channel=6 note=59 velocity=0 time=0
EXTRACT: note_on channel=9 note=32 velocity=0 time=0.009920625
EXTRACT: note_on channel=9 note=44 velocity=0 time=0.005952375000000001
EXTRACT: note_on channel=10 note=56 velocity=0 time=0.00396825
EXTRACT: note_on channel=7 note=63 velocity=0 time=0
EXTRACT: note_on channel=10 note=59 velocity=0 time=0.001984125
EXTRACT: note_on channel=9 note=68 velocity=0 time=0.005952375000000001
EXTRACT: note_on channel=7 note=59 velocity=0 time=0.001984125
EXTRACT: note_on channel=9 note=27 velocity=87 time=0.03571425
EXTRACT: note_on channel=9 note=36 velocity=107 time=0
EXTRACT: note_on channel=9 note=42 velocity=94 time=0
EXTRACT: note_on channel=9 note=44 velocity=93 time=0
EXTRACT: note_on channel=9 note=56 velocity=82 time=0
EXTRACT: note_on channel=1 note=37 velocity=87 time=0
EXTRACT: note_on channel=10 note=56 velocity=73 time=0
EXTRACT: note_on channel=10 note=61 velocity=43 time=0
EXTRACT: note_on channel=10 note=64 velocity=58 time=0
EXTRACT: note_on channel=10 note=68 velocity=60 time=0
EXTRACT: note_on channel=10 note=73 velocity=58 time=0
EXTRACT: note_on channel=7 note=56 velocity=89 time=0
EXTRACT: note_on channel=9 note=36 velocity=126 time=0
EXTRACT: note_on channel=9 note=35 velocity=117 time=0
EXTRACT: note_on channel=9 note=44 velocity=81 time=0
EXTRACT: note_on channel=9 note=82 velocity=69 time=0
EXTRACT: note_on channel=9 note=56 velocity=87 time=0
EXTRACT: note_on channel=9 note=60 velocity=63 time=0
EXTRACT: note_on channel=9 note=60 velocity=0 time=0.001984125
EXTRACT: note_on channel=9 note=35 velocity=0 time=0
EXTRACT: note_on channel=9 note=44 velocity=0 time=0
EXTRACT: note_on channel=9 note=36 velocity=0 time=0
EXTRACT: note_on channel=9 note=56 velocity=0 time=0
EXTRACT: note_on channel=9 note=82 velocity=0 time=0
EXTRACT: note_on channel=9 note=36 velocity=0 time=0.077380875
EXTRACT: note_on channel=9 note=27 velocity=0 time=0.005952375000000001
EXTRACT: note_on channel=5 note=61 velocity=76 time=0.04365075
EXTRACT: note_on channel=5 note=64 velocity=94 time=0
EXTRACT: note_on channel=5 note=68 velocity=87 time=0
EXTRACT: note_on channel=6 note=61 velocity=54 time=0
EXTRACT: note_on channel=6 note=64 velocity=72 time=0
EXTRACT: note_on channel=6 note=68 velocity=65 time=0
EXTRACT: note_on channel=9 note=82 velocity=43 time=0.011904750000000002
EXTRACT: note_on channel=9 note=82 velocity=0 time=0.001984125
EXTRACT: note_on channel=7 note=56 velocity=0 time=0.017857125
EXTRACT: note_on channel=1 note=37 velocity=0 time=0.0079365
EXTRACT: note_on channel=9 note=44 velocity=0 time=0.001984125
EXTRACT: note_on channel=5 note=61 velocity=0 time=0.01984125
EXTRACT: note_on channel=5 note=64 velocity=0 time=0.001984125
EXTRACT: note_on channel=5 note=68 velocity=0 time=0.0079365
EXTRACT: note_on channel=9 note=70 velocity=105 time=0.029761875000000004
EXTRACT: note_on channel=9 note=70 velocity=0 time=0.001984125
EXTRACT: note_on channel=9 note=42 velocity=0 time=0.001984125
EXTRACT: note_on channel=9 note=27 velocity=86 time=0.00396825
EXTRACT: note_on channel=9 note=44 velocity=64 time=0
EXTRACT: note_on channel=9 note=65 velocity=92 time=0
EXTRACT: note_on channel=9 note=67 velocity=55 time=0
EXTRACT: note_on channel=1 note=37 velocity=91 time=0
EXTRACT: note_on channel=3 note=73 velocity=85 time=0
EXTRACT: note_on channel=7 note=61 velocity=61 time=0
EXTRACT: note_on channel=7 note=64 velocity=69 time=0
EXTRACT: note_on channel=9 note=42 velocity=73 time=0
EXTRACT: note_on channel=9 note=82 velocity=48 time=0
EXTRACT: note_on channel=9 note=82 velocity=0 time=0.001984125
EXTRACT: note_on channel=9 note=42 velocity=0 time=0
EXTRACT: note_on channel=9 note=44 velocity=0 time=0.031746
EXTRACT: note_on channel=9 note=67 velocity=0 time=0.005952375000000001
EXTRACT: note_on channel=6 note=68 velocity=0 time=0.023809500000000004
EXTRACT: note_on channel=6 note=64 velocity=0 time=0
EXTRACT: note_on channel=6 note=61 velocity=0 time=0
EXTRACT: note_on channel=7 note=64 velocity=0 time=0
EXTRACT: note_on channel=7 note=61 velocity=0 time=0
EXTRACT: note_on channel=9 note=65 velocity=0 time=0.001984125
EXTRACT: note_on channel=9 note=56 velocity=0 time=0.005952375000000001
EXTRACT: note_on channel=9 note=27 velocity=0 time=0.011904750000000002
EXTRACT: note_on channel=9 note=56 velocity=87 time=0.03571425
EXTRACT: note_on channel=9 note=56 velocity=0 time=0.001984125
EXTRACT: note_on channel=9 note=44 velocity=67 time=0.0079365
EXTRACT: note_on channel=9 note=65 velocity=84 time=0
EXTRACT: note_on channel=9 note=67 velocity=40 time=0
EXTRACT: note_on channel=7 note=61 velocity=69 time=0
EXTRACT: note_on channel=7 note=64 velocity=67 time=0
EXTRACT: note_on channel=9 note=42 velocity=66 time=0.011904750000000002
EXTRACT: note_on channel=9 note=82 velocity=40 time=0
EXTRACT: note_on channel=9 note=82 velocity=0 time=0.001984125
EXTRACT: note_on channel=9 note=42 velocity=0 time=0
EXTRACT: note_on channel=9 note=67 velocity=0 time=0.029761875000000004
EXTRACT: note_on channel=9 note=65 velocity=0 time=0.011904750000000002
EXTRACT: note_on channel=9 note=44 velocity=0 time=0.00396825
EXTRACT: note_on channel=7 note=64 velocity=0 time=0.013888875000000002
EXTRACT: note_on channel=7 note=61 velocity=0 time=0.005952375000000001
EXTRACT: note_on channel=1 note=37 velocity=0 time=0.00396825
EXTRACT: note_on channel=3 note=73 velocity=0 time=0.021825375
EXTRACT: note_on channel=9 note=32 velocity=87 time=0.00396825
EXTRACT: note_on channel=9 note=36 velocity=107 time=0
EXTRACT: note_on channel=9 note=39 velocity=103 time=0
EXTRACT: note_on channel=9 note=42 velocity=88 time=0
EXTRACT: note_on channel=9 note=56 velocity=82 time=0
EXTRACT: note_on channel=9 note=66 velocity=87 time=0
EXTRACT: note_on channel=1 note=35 velocity=82 time=0
EXTRACT: note_on channel=3 note=71 velocity=91 time=0
EXTRACT: note_on channel=5 note=61 velocity=71 time=0
EXTRACT: note_on channel=5 note=64 velocity=85 time=0
EXTRACT: note_on channel=5 note=68 velocity=80 time=0
EXTRACT: note_on channel=6 note=61 velocity=49 time=0
EXTRACT: note_on channel=6 note=64 velocity=63 time=0
EXTRACT: note_on channel=6 note=68 velocity=58 time=0
EXTRACT: note_on channel=7 note=56 velocity=86 time=0
EXTRACT: note_on channel=9 note=39 velocity=121 time=0
EXTRACT: note_on channel=9 note=40 velocity=117 time=0
EXTRACT: note_on channel=9 note=36 velocity=126 time=0
EXTRACT: note_on channel=9 note=35 velocity=117 time=0
EXTRACT: note_on channel=9 note=44 velocity=81 time=0
EXTRACT: note_on channel=9 note=82 velocity=69 time=0
EXTRACT: note_on channel=9 note=82 velocity=0 time=0.001984125
EXTRACT: note_on channel=9 note=40 velocity=0 time=0
EXTRACT: note_on channel=9 note=36 velocity=0 time=0
EXTRACT: note_on channel=9 note=39 velocity=0 time=0
EXTRACT: note_on channel=9 note=44 velocity=0 time=0
EXTRACT: note_on channel=9 note=35 velocity=0 time=0
EXTRACT: note_on channel=9 note=32 velocity=0 time=0.063492
EXTRACT: note_on channel=5 note=64 velocity=0 time=0
EXTRACT: note_on channel=5 note=61 velocity=0 time=0.00396825
EXTRACT: note_on channel=9 note=39 velocity=0 time=0.001984125
EXTRACT: note_on channel=9 note=36 velocity=0 time=0.0079365
EXTRACT: note_on channel=5 note=68 velocity=0 time=0.001984125
EXTRACT: note_on channel=9 note=66 velocity=0 time=0.001984125
EXTRACT: note_on channel=7 note=56 velocity=0 time=0.0396825
EXTRACT: note_on channel=6 note=68 velocity=0 time=0.049603125000000005
EXTRACT: note_on channel=6 note=64 velocity=0 time=0
EXTRACT: note_on channel=6 note=61 velocity=0 time=0
EXTRACT: note_on channel=9 note=42 velocity=0 time=0.03571425
EXTRACT: note_on channel=3 note=71 velocity=0 time=0.005952375000000001
EXTRACT: note_on channel=9 note=70 velocity=105 time=0.017857125
EXTRACT: note_on channel=9 note=70 velocity=0 time=0.001984125
EXTRACT: note_on channel=9 note=32 velocity=74 time=0.00396825
EXTRACT: note_on channel=9 note=36 velocity=95 time=0
EXTRACT: note_on channel=9 note=44 velocity=64 time=0
EXTRACT: note_on channel=9 note=66 velocity=75 time=0
EXTRACT: note_on channel=9 note=68 velocity=48 time=0
EXTRACT: note_on channel=1 note=35 velocity=0 time=0
EXTRACT: note_on channel=1 note=37 velocity=88 time=0
EXTRACT: note_on channel=3 note=73 velocity=83 time=0
EXTRACT: note_on channel=5 note=61 velocity=80 time=0
EXTRACT: note_on channel=5 note=64 velocity=87 time=0
EXTRACT: note_on channel=5 note=68 velocity=88 time=0
EXTRACT: note_on channel=6 note=61 velocity=58 time=0
EXTRACT: note_on channel=6 note=64 velocity=65 time=0
EXTRACT: note_on channel=6 note=68 velocity=66 time=0
EXTRACT: note_on channel=7 note=61 velocity=71 time=0
EXTRACT: note_on channel=7 note=64 velocity=76 time=0
EXTRACT: note_on channel=9 note=42 velocity=73 time=0
EXTRACT: note_on channel=9 note=69 velocity=78 time=0
EXTRACT: note_on channel=9 note=56 velocity=87 time=0
EXTRACT: note_on channel=9 note=56 velocity=0 time=0.001984125
EXTRACT: note_on channel=9 note=69 velocity=0 time=0
EXTRACT: note_on channel=9 note=42 velocity=0 time=0
EXTRACT: note_on channel=9 note=68 velocity=0 time=0.023809500000000004
EXTRACT: note_on channel=9 note=44 velocity=0 time=0.01984125
EXTRACT: note_on channel=9 note=36 velocity=0 time=0.0079365
EXTRACT: note_on channel=10 note=64 velocity=0 time=0.001984125
EXTRACT: note_on channel=9 note=32 velocity=0 time=0.00396825
EXTRACT: note_on channel=9 note=56 velocity=0 time=0.001984125
EXTRACT: note_on channel=10 note=73 velocity=0 time=0
EXTRACT: note_on channel=10 note=68 velocity=0 time=0.001984125
EXTRACT: note_on channel=5 note=64 velocity=0 time=0.001984125
EXTRACT: note_on channel=5 note=61 velocity=0 time=0
EXTRACT: note_on channel=9 note=66 velocity=0 time=0.00396825
EXTRACT: note_on channel=5 note=68 velocity=0 time=0
EXTRACT: note_on channel=7 note=64 velocity=0 time=0
EXTRACT: note_on channel=7 note=61 velocity=0 time=0.005952375000000001
EXTRACT: note_on channel=10 note=61 velocity=0 time=0.00396825
EXTRACT: note_on channel=10 note=56 velocity=0 time=0.015873
EXTRACT: note_on channel=9 note=32 velocity=69 time=0.03373012500000001
EXTRACT: note_on channel=9 note=44 velocity=62 time=0
EXTRACT: note_on channel=9 note=65 velocity=79 time=0
EXTRACT: note_on channel=9 note=68 velocity=54 time=0
EXTRACT: note_on channel=7 note=61 velocity=66 time=0
EXTRACT: note_on channel=7 note=64 velocity=72 time=0
EXTRACT: note_on channel=9 note=42 velocity=66 time=0.011904750000000002
EXTRACT: note_on channel=9 note=69 velocity=73 time=0
EXTRACT: note_on channel=9 note=69 velocity=0 time=0.001984125
EXTRACT: note_on channel=9 note=42 velocity=0 time=0
EXTRACT: note_on channel=3 note=73 velocity=0 time=0.029761875000000004
EXTRACT: note_on channel=6 note=68 velocity=0 time=0
EXTRACT: note_on channel=6 note=64 velocity=0 time=0
EXTRACT: note_on channel=6 note=61 velocity=0 time=0
EXTRACT: note_on channel=1 note=37 velocity=0 time=0.0079365
EXTRACT: note_on channel=9 note=68 velocity=0 time=0.009920625
EXTRACT: note_on channel=9 note=44 velocity=0 time=0
EXTRACT: note_on channel=7 note=64 velocity=0 time=0.001984125
EXTRACT: note_on channel=9 note=32 velocity=0 time=0.001984125
EXTRACT: note_on channel=7 note=61 velocity=0 time=0.013888875000000002
EXTRACT: note_on channel=9 note=27 velocity=94 time=0.029761875000000004
EXTRACT: note_on channel=9 note=36 velocity=109 time=0
EXTRACT: note_on channel=9 note=42 velocity=92 time=0
EXTRACT: note_on channel=9 note=49 velocity=98 time=0
EXTRACT: note_on channel=9 note=56 velocity=87 time=0
EXTRACT: note_on channel=1 note=33 velocity=85 time=0
EXTRACT: note_on channel=10 note=52 velocity=79 time=0
EXTRACT: note_on channel=10 note=57 velocity=51 time=0
EXTRACT: note_on channel=10 note=61 velocity=61 time=0
EXTRACT: note_on channel=10 note=69 velocity=80 time=0
EXTRACT: note_on channel=10 note=73 velocity=61 time=0
EXTRACT: note_on channel=10 note=76 velocity=79 time=0
EXTRACT: note_on channel=4 note=64 velocity=118 time=0
EXTRACT: note_on channel=5 note=61 velocity=84 time=0
EXTRACT: note_on channel=5 note=64 velocity=83 time=0
EXTRACT: note_on channel=5 note=69 velocity=78 time=0
EXTRACT: note_on channel=6 note=61 velocity=62 time=0
EXTRACT: note_on channel=6 note=64 velocity=61 time=0
EXTRACT: note_on channel=6 note=69 velocity=56 time=0
EXTRACT: note_on channel=7 note=52 velocity=91 time=0
EXTRACT: note_on channel=9 note=36 velocity=126 time=0
EXTRACT: note_on channel=9 note=35 velocity=117 time=0
EXTRACT: note_on channel=9 note=35 velocity=0 time=0.001984125
EXTRACT: note_on channel=9 note=36 velocity=0 time=0
EXTRACT: note_on channel=9 note=65 velocity=0 time=0.00396825
EXTRACT: note_on channel=5 note=64 velocity=0 time=0.04761900000000001
EXTRACT: note_on channel=9 note=27 velocity=0 time=0.011904750000000002
EXTRACT: note_on channel=5 note=69 velocity=0 time=0.00396825
EXTRACT: note_on channel=5 note=61 velocity=0 time=0
EXTRACT: note_on channel=9 note=36 velocity=0 time=0.001984125
EXTRACT: note_on channel=7 note=52 velocity=0 time=0.031746
EXTRACT: note_on channel=4 note=64 velocity=0 time=0.005952375000000001
EXTRACT: note_on channel=9 note=69 velocity=84 time=0.031746
EXTRACT: note_on channel=9 note=69 velocity=0 time=0.001984125
EXTRACT: note_on channel=1 note=33 velocity=0 time=0.017857125
EXTRACT: note_on channel=6 note=69 velocity=0 time=0.011904750000000002
EXTRACT: note_on channel=6 note=64 velocity=0 time=0
EXTRACT: note_on channel=6 note=61 velocity=0 time=0
EXTRACT: note_on channel=9 note=42 velocity=0 time=0.061507875000000004
EXTRACT: note_on channel=9 note=70 velocity=105 time=0
EXTRACT: note_on channel=9 note=27 velocity=79 time=0.00396825
EXTRACT: note_on channel=9 note=44 velocity=64 time=0
EXTRACT: note_on channel=9 note=67 velocity=41 time=0
EXTRACT: note_on channel=1 note=33 velocity=80 time=0
EXTRACT: note_on channel=4 note=64 velocity=101 time=0
EXTRACT: note_on channel=7 note=57 velocity=51 time=0
EXTRACT: note_on channel=7 note=61 velocity=56 time=0
EXTRACT: note_on channel=9 note=70 velocity=0 time=0
EXTRACT: note_on channel=9 note=42 velocity=73 time=0
EXTRACT: note_on channel=9 note=62 velocity=79 time=0
EXTRACT: note_on channel=9 note=62 velocity=0 time=0.001984125
EXTRACT: note_on channel=9 note=42 velocity=0 time=0
EXTRACT: note_on channel=9 note=67 velocity=0 time=0.0396825
EXTRACT: note_on channel=9 note=44 velocity=0 time=0.013888875000000002
EXTRACT: note_on channel=9 note=56 velocity=0 time=0.0079365
EXTRACT: note_on channel=7 note=61 velocity=0 time=0
EXTRACT: note_on channel=7 note=57 velocity=0 time=0
EXTRACT: note_on channel=9 note=27 velocity=0 time=0.0079365
EXTRACT: note_on channel=9 note=61 velocity=69 time=0.04761900000000001
EXTRACT: note_on channel=9 note=61 velocity=0 time=0.001984125
EXTRACT: note_on channel=9 note=32 velocity=71 time=0.0079365
EXTRACT: note_on channel=9 note=67 velocity=33 time=0
EXTRACT: note_on channel=5 note=61 velocity=74 time=0
EXTRACT: note_on channel=5 note=64 velocity=83 time=0
EXTRACT: note_on channel=5 note=69 velocity=87 time=0
EXTRACT: note_on channel=6 note=61 velocity=52 time=0
EXTRACT: note_on channel=6 note=64 velocity=61 time=0
EXTRACT: note_on channel=6 note=69 velocity=65 time=0
EXTRACT: note_on channel=7 note=57 velocity=75 time=0
EXTRACT: note_on channel=7 note=61 velocity=60 time=0
EXTRACT: note_on channel=9 note=44 velocity=73 time=0.009920625
EXTRACT: note_on channel=9 note=42 velocity=66 time=0.001984125
EXTRACT: note_on channel=9 note=69 velocity=68 time=0
EXTRACT: note_on channel=9 note=69 velocity=0 time=0.001984125
EXTRACT: note_on channel=9 note=42 velocity=0 time=0
EXTRACT: note_on channel=9 note=67 velocity=0 time=0.029761875000000004
EXTRACT: note_on channel=5 note=64 velocity=0 time=0.01984125
EXTRACT: note_on channel=7 note=57 velocity=0 time=0
EXTRACT: note_on channel=5 note=61 velocity=0 time=0.005952375000000001
EXTRACT: note_on channel=5 note=69 velocity=0 time=0.011904750000000002
EXTRACT: note_on channel=1 note=33 velocity=0 time=0.001984125
EXTRACT: note_on channel=9 note=32 velocity=0 time=0.001984125
EXTRACT: note_on channel=9 note=44 velocity=0 time=0.005952375000000001
EXTRACT: note_on channel=7 note=61 velocity=0 time=0.0079365
EXTRACT: note_on channel=4 note=64 velocity=0 time=0.001984125
EXTRACT: note_on channel=9 note=36 velocity=103 time=0.0079365
EXTRACT: note_on channel=9 note=39 velocity=105 time=0
EXTRACT: note_on channel=9 note=42 velocity=94 time=0
EXTRACT: note_on channel=9 note=56 velocity=84 time=0
EXTRACT: note_on channel=1 note=37 velocity=78 time=0
EXTRACT: note_on channel=4 note=61 velocity=87 time=0
EXTRACT: note_on channel=7 note=52 velocity=95 time=0
EXTRACT: note_on channel=9 note=39 velocity=121 time=0
EXTRACT: note_on channel=9 note=36 velocity=126 time=0
EXTRACT: note_on channel=9 note=35 velocity=117 time=0
EXTRACT: note_on channel=9 note=40 velocity=117 time=0
EXTRACT: note_on channel=9 note=44 velocity=81 time=0
EXTRACT: note_on channel=9 note=44 velocity=0 time=0.001984125
EXTRACT: note_on channel=9 note=35 velocity=0 time=0
EXTRACT: note_on channel=9 note=39 velocity=0 time=0
EXTRACT: note_on channel=9 note=36 velocity=0 time=0
EXTRACT: note_on channel=9 note=40 velocity=0 time=0
EXTRACT: note_on channel=6 note=69 velocity=0 time=0.061507875000000004
EXTRACT: note_on channel=6 note=64 velocity=0 time=0
EXTRACT: note_on channel=6 note=61 velocity=0 time=0
EXTRACT: note_on channel=9 note=39 velocity=0 time=0.0079365
EXTRACT: note_on channel=9 note=36 velocity=0 time=0.00396825
EXTRACT: note_on channel=9 note=62 velocity=73 time=0.04365075
EXTRACT: note_on channel=9 note=62 velocity=0 time=0.001984125
EXTRACT: note_on channel=9 note=32 velocity=59 time=0.0079365
EXTRACT: note_on channel=7 note=52 velocity=0 time=0.045634875000000005
EXTRACT: note_on channel=9 note=32 velocity=0 time=0.0079365
EXTRACT: note_on channel=4 note=61 velocity=0 time=0.009920625
EXTRACT: note_on channel=1 note=37 velocity=0 time=0.021825375
EXTRACT: note_on channel=9 note=42 velocity=0 time=0.01984125
EXTRACT: note_on channel=9 note=32 velocity=63 time=0.00396825
EXTRACT: note_on channel=9 note=44 velocity=48 time=0
EXTRACT: note_on channel=9 note=68 velocity=66 time=0
EXTRACT: note_on channel=1 note=40 velocity=90 time=0
EXTRACT: note_on channel=4 note=59 velocity=83 time=0
EXTRACT: note_on channel=5 note=61 velocity=81 time=0
EXTRACT: note_on channel=5 note=64 velocity=87 time=0
EXTRACT: note_on channel=5 note=69 velocity=92 time=0
EXTRACT: note_on channel=6 note=61 velocity=59 time=0
EXTRACT: note_on channel=6 note=64 velocity=65 time=0
EXTRACT: note_on channel=6 note=69 velocity=70 time=0
EXTRACT: note_on channel=7 note=57 velocity=62 time=0
EXTRACT: note_on channel=7 note=61 velocity=65 time=0
EXTRACT: note_on channel=9 note=42 velocity=73 time=0
EXTRACT: note_on channel=9 note=61 velocity=66 time=0
EXTRACT: note_on channel=9 note=61 velocity=0 time=0.001984125
EXTRACT: note_on channel=9 note=42 velocity=0 time=0
EXTRACT: note_on channel=9 note=70 velocity=105 time=0.001984125
EXTRACT: note_on channel=9 note=70 velocity=0 time=0.001984125
EXTRACT: note_on channel=5 note=61 velocity=0 time=0.057539625000000004
EXTRACT: note_on channel=7 note=57 velocity=0 time=0
EXTRACT: note_on channel=9 note=68 velocity=0 time=0.001984125
EXTRACT: note_on channel=9 note=44 velocity=0 time=0
EXTRACT: note_on channel=5 note=64 velocity=0 time=0.00396825
EXTRACT: note_on channel=9 note=32 velocity=0 time=0.001984125
EXTRACT: note_on channel=7 note=61 velocity=0 time=0
EXTRACT: note_on channel=5 note=69 velocity=0 time=0.0079365
EXTRACT: note_on channel=10 note=57 velocity=0 time=0.001984125
EXTRACT: note_on channel=9 note=56 velocity=0 time=0.001984125
EXTRACT: note_on channel=10 note=52 velocity=0 time=0.021825375
EXTRACT: note_on channel=10 note=73 velocity=0 time=0.00396825
EXTRACT: note_on channel=10 note=69 velocity=0 time=0.005952375000000001
EXTRACT: note_on channel=10 note=76 velocity=0 time=0.00396825
EXTRACT: note_on channel=9 note=49 velocity=0 time=0.005952375000000001
EXTRACT: note_on channel=9 note=32 velocity=62 time=0.00396825
EXTRACT: note_on channel=9 note=56 velocity=83 time=0
EXTRACT: note_on channel=9 note=68 velocity=40 time=0
EXTRACT: note_on channel=7 note=57 velocity=69 time=0
EXTRACT: note_on channel=7 note=61 velocity=68 time=0
EXTRACT: note_on channel=10 note=61 velocity=0 time=0.00396825
EXTRACT: note_on channel=9 note=44 velocity=63 time=0.005952375000000001
EXTRACT: note_on channel=9 note=42 velocity=66 time=0.001984125
EXTRACT: note_on channel=9 note=82 velocity=48 time=0
EXTRACT: note_on channel=9 note=82 velocity=0 time=0.001984125
EXTRACT: note_on channel=9 note=42 velocity=0 time=0
EXTRACT: note_on channel=9 note=68 velocity=0 time=0.021825375
EXTRACT: note_on channel=6 note=69 velocity=0 time=0.0079365
EXTRACT: note_on channel=6 note=64 velocity=0 time=0
EXTRACT: note_on channel=6 note=61 velocity=0 time=0
EXTRACT: note_on channel=7 note=57 velocity=0 time=0.01984125
EXTRACT: note_on channel=9 note=32 velocity=0 time=0.009920625
EXTRACT: note_on channel=7 note=61 velocity=0 time=0.005952375000000001
EXTRACT: note_on channel=9 note=44 velocity=0 time=0.013888875000000002
EXTRACT: note_on channel=4 note=59 velocity=0 time=0.005952375000000001
EXTRACT: note_on channel=1 note=40 velocity=0 time=0.005952375000000001
EXTRACT: note_on channel=9 note=27 velocity=88 time=0.00396825
EXTRACT: note_on channel=9 note=36 velocity=105 time=0
EXTRACT: note_on channel=9 note=42 velocity=97 time=0
EXTRACT: note_on channel=1 note=35 velocity=85 time=0
EXTRACT: note_on channel=10 note=54 velocity=67 time=0
EXTRACT: note_on channel=10 note=59 velocity=64 time=0
EXTRACT: note_on channel=10 note=66 velocity=61 time=0
EXTRACT: note_on channel=10 note=71 velocity=69 time=0
EXTRACT: note_on channel=10 note=75 velocity=52 time=0
EXTRACT: note_on channel=10 note=78 velocity=67 time=0
EXTRACT: note_on channel=4 note=64 velocity=99 time=0
EXTRACT: note_on channel=7 note=54 velocity=87 time=0
EXTRACT: note_on channel=9 note=36 velocity=126 time=0
EXTRACT: note_on channel=9 note=35 velocity=117 time=0
EXTRACT: note_on channel=9 note=44 velocity=81 time=0
EXTRACT: note_on channel=9 note=82 velocity=55 time=0
EXTRACT: note_on channel=9 note=56 velocity=80 time=0
EXTRACT: note_on channel=9 note=56 velocity=0 time=0.001984125
EXTRACT: note_on channel=9 note=44 velocity=0 time=0
EXTRACT: note_on channel=9 note=36 velocity=0 time=0
EXTRACT: note_on channel=9 note=35 velocity=0 time=0
EXTRACT: note_on channel=9 note=82 velocity=0 time=0
EXTRACT: note_on channel=9 note=27 velocity=0 time=0.0714285
EXTRACT: note_on channel=9 note=36 velocity=0 time=0.005952375000000001
EXTRACT: note_on channel=4 note=64 velocity=0 time=0.029761875000000004
EXTRACT: note_on channel=9 note=27 velocity=64 time=0.01984125
EXTRACT: note_on channel=5 note=59 velocity=75 time=0
EXTRACT: note_on channel=5 note=64 velocity=82 time=0
EXTRACT: note_on channel=5 note=66 velocity=76 time=0
EXTRACT: note_on channel=6 note=59 velocity=53 time=0
EXTRACT: note_on channel=6 note=64 velocity=60 time=0
EXTRACT: note_on channel=6 note=66 velocity=54 time=0
EXTRACT: note_on channel=9 note=82 velocity=63 time=0.011904750000000002
EXTRACT: note_on channel=9 note=82 velocity=0 time=0.001984125
EXTRACT: note_on channel=5 note=59 velocity=0 time=0.021825375
EXTRACT: note_on channel=9 note=56 velocity=0 time=0.017857125
EXTRACT: note_on channel=5 note=64 velocity=0 time=0.005952375000000001
EXTRACT: note_on channel=9 note=27 velocity=0 time=0.001984125
EXTRACT: note_on channel=5 note=66 velocity=0 time=0.01984125
EXTRACT: note_on channel=7 note=54 velocity=0 time=0.013888875000000002
EXTRACT: note_on channel=9 note=42 velocity=0 time=0.009920625
EXTRACT: note_on channel=9 note=27 velocity=69 time=0.00396825
EXTRACT: note_on channel=9 note=44 velocity=71 time=0
EXTRACT: note_on channel=9 note=67 velocity=32 time=0
EXTRACT: note_on channel=4 note=64 velocity=95 time=0
EXTRACT: note_on channel=7 note=57 velocity=60 time=0
EXTRACT: note_on channel=7 note=59 velocity=68 time=0
EXTRACT: note_on channel=9 note=42 velocity=73 time=0
EXTRACT: note_on channel=9 note=82 velocity=59 time=0
EXTRACT: note_on channel=9 note=63 velocity=60 time=0
EXTRACT: note_on channel=9 note=63 velocity=0 time=0.001984125
EXTRACT: note_on channel=9 note=82 velocity=0 time=0
EXTRACT: note_on channel=9 note=42 velocity=0 time=0
EXTRACT: note_on channel=9 note=70 velocity=105 time=0.001984125
EXTRACT: note_on channel=9 note=70 velocity=0 time=0.001984125
EXTRACT: note_on channel=9 note=67 velocity=0 time=0.03571425
EXTRACT: note_on channel=9 note=44 velocity=0 time=0.017857125
EXTRACT: note_on channel=6 note=66 velocity=0 time=0.00396825
EXTRACT: note_on channel=6 note=64 velocity=0 time=0
EXTRACT: note_on channel=6 note=59 velocity=0 time=0
EXTRACT: note_on channel=7 note=59 velocity=0 time=0
EXTRACT: note_on channel=7 note=57 velocity=0 time=0
EXTRACT: note_on channel=9 note=27 velocity=0 time=0.015873
EXTRACT: note_on channel=9 note=56 velocity=89 time=0.0396825
EXTRACT: note_on channel=9 note=56 velocity=0 time=0.001984125
EXTRACT: note_on channel=9 note=67 velocity=46 time=0.0079365
EXTRACT: note_on channel=7 note=57 velocity=64 time=0
EXTRACT: note_on channel=7 note=59 velocity=67 time=0
EXTRACT: note_on channel=9 note=44 velocity=71 time=0.009920625
EXTRACT: note_on channel=9 note=42 velocity=66 time=0.001984125
EXTRACT: note_on channel=9 note=82 velocity=45 time=0
EXTRACT: note_on channel=9 note=82 velocity=0 time=0.001984125
EXTRACT: note_on channel=9 note=42 velocity=0 time=0
EXTRACT: note_on channel=9 note=67 velocity=0 time=0.029761875000000004
EXTRACT: note_on channel=7 note=59 velocity=0 time=0.027777750000000004
EXTRACT: note_on channel=7 note=57 velocity=0 time=0
EXTRACT: note_on channel=4 note=64 velocity=0 time=0.00396825
EXTRACT: note_on channel=1 note=35 velocity=0 time=0.013888875000000002
EXTRACT: note_on channel=9 note=44 velocity=0 time=0.009920625
EXTRACT: note_on channel=9 note=32 velocity=78 time=0.009920625
EXTRACT: note_on channel=9 note=36 velocity=105 time=0
EXTRACT: note_on channel=9 note=39 velocity=100 time=0
EXTRACT: note_on channel=9 note=42 velocity=92 time=0
EXTRACT: note_on channel=9 note=56 velocity=84 time=0
EXTRACT: note_on channel=1 note=39 velocity=86 time=0
EXTRACT: note_on channel=4 note=61 velocity=86 time=0
EXTRACT: note_on channel=5 note=59 velocity=77 time=0
EXTRACT: note_on channel=5 note=64 velocity=84 time=0
EXTRACT: note_on channel=5 note=66 velocity=76 time=0
EXTRACT: note_on channel=6 note=59 velocity=55 time=0
EXTRACT: note_on channel=6 note=64 velocity=62 time=0
EXTRACT: note_on channel=6 note=66 velocity=54 time=0
EXTRACT: note_on channel=7 note=54 velocity=86 time=0
EXTRACT: note_on channel=9 note=36 velocity=126 time=0
EXTRACT: note_on channel=9 note=35 velocity=117 time=0
EXTRACT: note_on channel=9 note=39 velocity=121 time=0
EXTRACT: note_on channel=9 note=40 velocity=117 time=0
EXTRACT: note_on channel=9 note=44 velocity=81 time=0
EXTRACT: note_on channel=9 note=82 velocity=60 time=0
EXTRACT: note_on channel=9 note=82 velocity=0 time=0.001984125
EXTRACT: note_on channel=9 note=35 velocity=0 time=0
EXTRACT: note_on channel=9 note=39 velocity=0 time=0
EXTRACT: note_on channel=9 note=36 velocity=0 time=0
EXTRACT: note_on channel=9 note=44 velocity=0 time=0
EXTRACT: note_on channel=9 note=40 velocity=0 time=0
EXTRACT: note_on channel=5 note=59 velocity=0 time=0.029761875000000004
EXTRACT: note_on channel=5 note=64 velocity=0 time=0.037698375000000006
EXTRACT: note_on channel=9 note=39 velocity=0 time=0.00396825
EXTRACT: note_on channel=9 note=32 velocity=0 time=0.005952375000000001
EXTRACT: note_on channel=9 note=36 velocity=0 time=0
EXTRACT: note_on channel=5 note=66 velocity=0 time=0.005952375000000001
EXTRACT: note_on channel=6 note=66 velocity=0 time=0.0873015
EXTRACT: note_on channel=6 note=64 velocity=0 time=0
EXTRACT: note_on channel=6 note=59 velocity=0 time=0
EXTRACT: note_on channel=7 note=54 velocity=0 time=0.0079365
EXTRACT: note_on channel=4 note=61 velocity=0 time=0.013888875000000002
EXTRACT: note_on channel=1 note=39 velocity=0 time=0.03373012500000001
EXTRACT: note_on channel=9 note=70 velocity=105 time=0.00396825
EXTRACT: note_on channel=9 note=42 velocity=0 time=0.001984125
EXTRACT: note_on channel=9 note=70 velocity=0 time=0
EXTRACT: note_on channel=9 note=32 velocity=67 time=0.00396825
EXTRACT: note_on channel=9 note=44 velocity=74 time=0
EXTRACT: note_on channel=9 note=68 velocity=30 time=0
EXTRACT: note_on channel=1 note=42 velocity=86 time=0
EXTRACT: note_on channel=4 note=59 velocity=91 time=0
EXTRACT: note_on channel=5 note=59 velocity=82 time=0
EXTRACT: note_on channel=5 note=63 velocity=83 time=0
EXTRACT: note_on channel=5 note=66 velocity=84 time=0
EXTRACT: note_on channel=6 note=59 velocity=60 time=0
EXTRACT: note_on channel=6 note=63 velocity=61 time=0
EXTRACT: note_on channel=6 note=66 velocity=62 time=0
EXTRACT: note_on channel=7 note=57 velocity=61 time=0
EXTRACT: note_on channel=7 note=59 velocity=67 time=0
EXTRACT: note_on channel=9 note=42 velocity=75 time=0
EXTRACT: note_on channel=9 note=69 velocity=87 time=0
EXTRACT: note_on channel=9 note=56 velocity=87 time=0
EXTRACT: note_on channel=9 note=56 velocity=0 time=0.001984125
EXTRACT: note_on channel=9 note=69 velocity=0 time=0
EXTRACT: note_on channel=9 note=42 velocity=0 time=0
EXTRACT: note_on channel=9 note=68 velocity=0 time=0.03373012500000001
EXTRACT: note_on channel=5 note=59 velocity=0 time=0.005952375000000001
EXTRACT: note_on channel=9 note=32 velocity=0 time=0.009920625
EXTRACT: note_on channel=5 note=63 velocity=0 time=0.001984125
EXTRACT: note_on channel=9 note=56 velocity=0 time=0.001984125
EXTRACT: note_on channel=9 note=44 velocity=0 time=0.0079365
EXTRACT: note_on channel=7 note=59 velocity=0 time=0
EXTRACT: note_on channel=7 note=57 velocity=0 time=0
EXTRACT: note_on channel=10 note=71 velocity=0 time=0.001984125
EXTRACT: note_on channel=5 note=66 velocity=0 time=0.009920625
EXTRACT: note_on channel=10 note=66 velocity=0 time=0.015873
EXTRACT: note_on channel=10 note=75 velocity=0 time=0.021825375
EXTRACT: note_on channel=9 note=62 velocity=64 time=0.005952375000000001
EXTRACT: note_on channel=9 note=62 velocity=0 time=0.001984125
EXTRACT: note_on channel=9 note=32 velocity=64 time=0.0079365
EXTRACT: note_on channel=9 note=68 velocity=55 time=0
EXTRACT: note_on channel=7 note=57 velocity=71 time=0
EXTRACT: note_on channel=7 note=59 velocity=67 time=0
EXTRACT: note_on channel=10 note=78 velocity=0 time=0.005952375000000001
EXTRACT: note_on channel=9 note=44 velocity=72 time=0.00396825
EXTRACT: note_on channel=9 note=42 velocity=66 time=0.001984125
EXTRACT: note_on channel=9 note=69 velocity=69 time=0
EXTRACT: note_on channel=9 note=69 velocity=0 time=0.001984125
EXTRACT: note_on channel=9 note=42 velocity=0 time=0
EXTRACT: note_on channel=10 note=54 velocity=0 time=0.009920625
EXTRACT: note_on channel=10 note=59 velocity=0 time=0.017857125
EXTRACT: note_on channel=6 note=66 velocity=0 time=0.001984125
EXTRACT: note_on channel=6 note=63 velocity=0 time=0
EXTRACT: note_on channel=6 note=59 velocity=0 time=0
EXTRACT: note_on channel=7 note=57 velocity=0 time=0.01984125
EXTRACT: note_on channel=9 note=32 velocity=0 time=0.001984125
EXTRACT: note_on channel=9 note=68 velocity=0 time=0.005952375000000001
EXTRACT: note_on channel=1 note=42 velocity=0 time=0.001984125
EXTRACT: note_on channel=7 note=59 velocity=0 time=0.001984125
EXTRACT: note_on channel=4 note=59 velocity=0 time=0.005952375000000001
EXTRACT: note_on channel=9 note=44 velocity=0 time=0.017857125
EXTRACT: note_on channel=9 note=27 velocity=92 time=0.009920625
EXTRACT: note_on channel=9 note=36 velocity=105 time=0
EXTRACT: note_on channel=9 note=42 velocity=97 time=0
EXTRACT: note_on channel=9 note=56 velocity=80 time=0
EXTRACT: note_on channel=10 note=56 velocity=74 time=0
EXTRACT: note_on channel=10 note=59 velocity=38 time=0
EXTRACT: note_on channel=10 note=63 velocity=72 time=0
EXTRACT: note_on channel=10 note=68 velocity=67 time=0
EXTRACT: note_on channel=10 note=71 velocity=71 time=0
EXTRACT: note_on channel=10 note=75 velocity=60 time=0
EXTRACT: note_on channel=10 note=80 velocity=66 time=0
EXTRACT: note_on channel=3 note=71 velocity=94 time=0
EXTRACT: note_on channel=5 note=59 velocity=80 time=0
EXTRACT: note_on channel=5 note=63 velocity=97 time=0
EXTRACT: note_on channel=5 note=68 velocity=88 time=0
EXTRACT: note_on channel=6 note=59 velocity=58 time=0
EXTRACT: note_on channel=6 note=63 velocity=75 time=0
EXTRACT: note_on channel=6 note=68 velocity=66 time=0
EXTRACT: note_on channel=7 note=56 velocity=88 time=0
EXTRACT: note_on channel=9 note=36 velocity=126 time=0
EXTRACT: note_on channel=9 note=35 velocity=117 time=0
EXTRACT: note_on channel=9 note=44 velocity=81 time=0
EXTRACT: note_on channel=9 note=60 velocity=69 time=0
EXTRACT: note_on channel=9 note=60 velocity=0 time=0.001984125
EXTRACT: note_on channel=9 note=36 velocity=0 time=0
EXTRACT: note_on channel=9 note=35 velocity=0 time=0
EXTRACT: note_on channel=9 note=44 velocity=0 time=0
EXTRACT: note_on channel=5 note=59 velocity=0 time=0.04761900000000001
EXTRACT: note_on channel=5 note=63 velocity=0 time=0.009920625
EXTRACT: note_on channel=9 note=27 velocity=0 time=0.01984125
EXTRACT: note_on channel=9 note=36 velocity=0 time=0.00396825
EXTRACT: note_on channel=5 note=68 velocity=0 time=0.0079365
EXTRACT: note_on channel=9 note=69 velocity=93 time=0.049603125000000005
EXTRACT: note_on channel=9 note=69 velocity=0 time=0.001984125
EXTRACT: note_on channel=6 note=68 velocity=0 time=0.029761875000000004
EXTRACT: note_on channel=6 note=63 velocity=0 time=0
EXTRACT: note_on channel=6 note=59 velocity=0 time=0
EXTRACT: note_on channel=7 note=56 velocity=0 time=0.009920625
EXTRACT: note_on channel=9 note=42 velocity=0 time=0.05158725000000001
EXTRACT: note_on channel=9 note=27 velocity=85 time=0.00396825
EXTRACT: note_on channel=9 note=44 velocity=66 time=0
EXTRACT: note_on channel=9 note=67 velocity=40 time=0
EXTRACT: note_on channel=1 note=32 velocity=88 time=0
EXTRACT: note_on channel=7 note=59 velocity=71 time=0
EXTRACT: note_on channel=7 note=63 velocity=70 time=0
EXTRACT: note_on channel=9 note=42 velocity=73 time=0
EXTRACT: note_on channel=9 note=62 velocity=59 time=0
EXTRACT: note_on channel=9 note=70 velocity=105 time=0
EXTRACT: note_on channel=9 note=70 velocity=0 time=0.001984125
EXTRACT: note_on channel=9 note=62 velocity=0 time=0
EXTRACT: note_on channel=9 note=42 velocity=0 time=0
EXTRACT: note_on channel=9 note=67 velocity=0 time=0.037698375000000006
EXTRACT: note_on channel=9 note=56 velocity=0 time=0.001984125
EXTRACT: note_on channel=9 note=44 velocity=0 time=0.01984125
EXTRACT: note_on channel=7 note=63 velocity=0 time=0.001984125
EXTRACT: note_on channel=7 note=59 velocity=0 time=0
EXTRACT: note_on channel=9 note=27 velocity=0 time=0.005952375000000001
EXTRACT: note_on channel=9 note=60 velocity=63 time=0.049603125000000005
EXTRACT: note_on channel=9 note=60 velocity=0 time=0.001984125
EXTRACT: note_on channel=9 note=32 velocity=76 time=0.0079365
EXTRACT: note_on channel=9 note=67 velocity=50 time=0
EXTRACT: note_on channel=5 note=59 velocity=81 time=0
EXTRACT: note_on channel=5 note=63 velocity=92 time=0
EXTRACT: note_on channel=5 note=68 velocity=87 time=0
EXTRACT: note_on channel=6 note=59 velocity=59 time=0
EXTRACT: note_on channel=6 note=63 velocity=70 time=0
EXTRACT: note_on channel=6 note=68 velocity=65 time=0
EXTRACT: note_on channel=7 note=59 velocity=69 time=0
EXTRACT: note_on channel=7 note=63 velocity=78 time=0
EXTRACT: note_on channel=9 note=44 velocity=75 time=0.009920625
EXTRACT: note_on channel=9 note=42 velocity=66 time=0.001984125
EXTRACT: note_on channel=9 note=69 velocity=61 time=0
EXTRACT: note_on channel=9 note=69 velocity=0 time=0.001984125
EXTRACT: note_on channel=9 note=42 velocity=0 time=0
EXTRACT: note_on channel=5 note=59 velocity=0 time=0.021825375
EXTRACT: note_on channel=3 note=71 velocity=0 time=0.0079365
EXTRACT: note_on channel=5 note=63 velocity=0 time=0.0079365
EXTRACT: note_on channel=7 note=59 velocity=0 time=0.011904750000000002
EXTRACT: note_on channel=9 note=67 velocity=0 time=0.0079365
EXTRACT: note_on channel=9 note=32 velocity=0 time=0.001984125
EXTRACT: note_on channel=7 note=63 velocity=0 time=0.001984125
EXTRACT: note_on channel=5 note=68 velocity=0 time=0.005952375000000001
EXTRACT: note_on channel=9 note=44 velocity=0 time=0.009920625
EXTRACT: note_on channel=9 note=36 velocity=105 time=0.017857125
EXTRACT: note_on channel=9 note=39 velocity=103 time=0
EXTRACT: note_on channel=9 note=42 velocity=96 time=0
EXTRACT: note_on channel=9 note=56 velocity=77 time=0
EXTRACT: note_on channel=1 note=35 velocity=79 time=0
EXTRACT: note_on channel=3 note=68 velocity=90 time=0
EXTRACT: note_on channel=7 note=56 velocity=81 time=0
EXTRACT: note_on channel=9 note=40 velocity=117 time=0
EXTRACT: note_on channel=9 note=36 velocity=126 time=0
EXTRACT: note_on channel=9 note=35 velocity=117 time=0
EXTRACT: note_on channel=9 note=39 velocity=121 time=0
EXTRACT: note_on channel=9 note=44 velocity=81 time=0
EXTRACT: note_on channel=9 note=69 velocity=78 time=0
EXTRACT: note_on channel=9 note=69 velocity=0 time=0.001984125
EXTRACT: note_on channel=9 note=36 velocity=0 time=0
EXTRACT: note_on channel=9 note=35 velocity=0 time=0
EXTRACT: note_on channel=9 note=40 velocity=0 time=0
EXTRACT: note_on channel=9 note=44 velocity=0 time=0
EXTRACT: note_on channel=9 note=39 velocity=0 time=0
EXTRACT: note_on channel=1 note=32 velocity=0 time=0.01984125
EXTRACT: note_on channel=6 note=68 velocity=0 time=0.041666625000000006
EXTRACT: note_on channel=6 note=63 velocity=0 time=0
EXTRACT: note_on channel=6 note=59 velocity=0 time=0
EXTRACT: note_on channel=9 note=39 velocity=0 time=0.009920625
EXTRACT: note_on channel=9 note=36 velocity=0 time=0.009920625
EXTRACT: note_on channel=9 note=61 velocity=73 time=0.03571425
EXTRACT: note_on channel=9 note=61 velocity=0 time=0.001984125
EXTRACT: note_on channel=9 note=32 velocity=68 time=0.0079365
EXTRACT: note_on channel=9 note=32 velocity=0 time=0.053571375000000004
EXTRACT: note_on channel=7 note=56 velocity=0 time=0.027777750000000004
EXTRACT: note_on channel=1 note=35 velocity=0 time=0.011904750000000002
EXTRACT: note_on channel=9 note=42 velocity=0 time=0.011904750000000002
EXTRACT: note_on channel=9 note=32 velocity=70 time=0.00396825
EXTRACT: note_on channel=9 note=44 velocity=69 time=0
EXTRACT: note_on channel=9 note=68 velocity=63 time=0
EXTRACT: note_on channel=1 note=39 velocity=95 time=0
EXTRACT: note_on channel=5 note=59 velocity=84 time=0
EXTRACT: note_on channel=5 note=63 velocity=97 time=0
EXTRACT: note_on channel=5 note=68 velocity=92 time=0
EXTRACT: note_on channel=6 note=59 velocity=62 time=0
EXTRACT: note_on channel=6 note=63 velocity=75 time=0
EXTRACT: note_on channel=6 note=68 velocity=70 time=0
EXTRACT: note_on channel=7 note=59 velocity=68 time=0
EXTRACT: note_on channel=7 note=63 velocity=77 time=0
EXTRACT: note_on channel=9 note=42 velocity=73 time=0
EXTRACT: note_on channel=9 note=60 velocity=66 time=0
EXTRACT: note_on channel=9 note=60 velocity=0 time=0.001984125
EXTRACT: note_on channel=9 note=42 velocity=0 time=0
EXTRACT: note_on channel=9 note=70 velocity=105 time=0
EXTRACT: note_on channel=9 note=70 velocity=0 time=0.001984125
EXTRACT: note_on channel=5 note=59 velocity=0 time=0.025793625000000004
EXTRACT: note_on channel=9 note=68 velocity=0 time=0.015873
EXTRACT: note_on channel=9 note=56 velocity=0 time=0.00396825
EXTRACT: note_on channel=5 note=63 velocity=0 time=0
EXTRACT: note_on channel=9 note=44 velocity=0 time=0.005952375000000001
EXTRACT: note_on channel=9 note=32 velocity=0 time=0.0079365
EXTRACT: note_on channel=7 note=63 velocity=0 time=0
EXTRACT: note_on channel=7 note=59 velocity=0 time=0
EXTRACT: note_on channel=10 note=75 velocity=0 time=0.0079365
EXTRACT: note_on channel=10 note=80 velocity=0 time=0.0079365
EXTRACT: note_on channel=5 note=68 velocity=0 time=0.005952375000000001
EXTRACT: note_on channel=10 note=63 velocity=0 time=0.009920625
EXTRACT: note_on channel=10 note=56 velocity=0 time=0.005952375000000001
EXTRACT: note_on channel=10 note=71 velocity=0 time=0.0079365
EXTRACT: note_on channel=10 note=68 velocity=0 time=0.001984125
EXTRACT: note_on channel=9 note=62 velocity=69 time=0.0079365
EXTRACT: note_on channel=9 note=62 velocity=0 time=0.001984125
EXTRACT: note_on channel=10 note=59 velocity=0 time=0.00396825
EXTRACT: note_on channel=9 note=32 velocity=63 time=0.00396825
EXTRACT: note_on channel=9 note=68 velocity=58 time=0
EXTRACT: note_on channel=7 note=59 velocity=74 time=0
EXTRACT: note_on channel=7 note=63 velocity=73 time=0
EXTRACT: note_on channel=9 note=44 velocity=69 time=0.009920625
EXTRACT: note_on channel=9 note=42 velocity=66 time=0.001984125
EXTRACT: note_on channel=9 note=42 velocity=0 time=0.001984125
EXTRACT: note_on channel=3 note=68 velocity=0 time=0.021825375
EXTRACT: note_on channel=6 note=68 velocity=0 time=0.0079365
EXTRACT: note_on channel=6 note=63 velocity=0 time=0
EXTRACT: note_on channel=6 note=59 velocity=0 time=0
EXTRACT: note_on channel=1 note=39 velocity=0 time=0.011904750000000002
EXTRACT: note_on channel=9 note=32 velocity=0 time=0.0079365
EXTRACT: note_on channel=7 note=59 velocity=0 time=0
EXTRACT: note_on channel=9 note=68 velocity=0 time=0.001984125
EXTRACT: note_on channel=7 note=63 velocity=0 time=0.0079365
EXTRACT: note_on channel=9 note=44 velocity=0 time=0.011904750000000002
EXTRACT: note_on channel=9 note=27 velocity=87 time=0.023809500000000004
EXTRACT: note_on channel=9 note=36 velocity=105 time=0
EXTRACT: note_on channel=9 note=42 velocity=97 time=0
EXTRACT: note_on channel=9 note=56 velocity=74 time=0
EXTRACT: note_on channel=1 note=37 velocity=90 time=0
EXTRACT: note_on channel=10 note=56 velocity=75 time=0
EXTRACT: note_on channel=10 note=61 velocity=48 time=0
EXTRACT: note_on channel=10 note=64 velocity=60 time=0
EXTRACT: note_on channel=10 note=68 velocity=73 time=0
EXTRACT: note_on channel=10 note=73 velocity=58 time=0
EXTRACT: note_on channel=10 note=76 velocity=68 time=0
EXTRACT: note_on channel=10 note=80 velocity=64 time=0
EXTRACT: note_on channel=3 note=64 velocity=95 time=0
EXTRACT: note_on channel=7 note=56 velocity=84 time=0
EXTRACT: note_on channel=9 note=36 velocity=126 time=0
EXTRACT: note_on channel=9 note=35 velocity=117 time=0
EXTRACT: note_on channel=9 note=44 velocity=81 time=0
EXTRACT: note_on channel=9 note=82 velocity=69 time=0
EXTRACT: note_on channel=9 note=56 velocity=87 time=0
EXTRACT: note_on channel=9 note=60 velocity=63 time=0
EXTRACT: note_on channel=9 note=60 velocity=0 time=0.001984125
EXTRACT: note_on channel=9 note=35 velocity=0 time=0
EXTRACT: note_on channel=9 note=44 velocity=0 time=0
EXTRACT: note_on channel=9 note=36 velocity=0 time=0
EXTRACT: note_on channel=9 note=56 velocity=0 time=0
EXTRACT: note_on channel=9 note=82 velocity=0 time=0
EXTRACT: note_on channel=9 note=27 velocity=0 time=0.06746025000000001
EXTRACT: note_on channel=9 note=36 velocity=0 time=0.013888875000000002
EXTRACT: note_on channel=9 note=32 velocity=76 time=0.045634875000000005
EXTRACT: note_on channel=5 note=61 velocity=68 time=0
EXTRACT: note_on channel=5 note=64 velocity=95 time=0
EXTRACT: note_on channel=5 note=68 velocity=84 time=0
EXTRACT: note_on channel=6 note=61 velocity=46 time=0
EXTRACT: note_on channel=6 note=64 velocity=73 time=0
EXTRACT: note_on channel=6 note=68 velocity=62 time=0
EXTRACT: note_on channel=9 note=82 velocity=43 time=0.011904750000000002
EXTRACT: note_on channel=9 note=82 velocity=0 time=0.001984125
EXTRACT: note_on channel=1 note=37 velocity=0 time=0.01984125
EXTRACT: note_on channel=5 note=64 velocity=0 time=0.021825375
EXTRACT: note_on channel=9 note=32 velocity=0 time=0.0079365
EXTRACT: note_on channel=5 note=61 velocity=0 time=0.005952375000000001
EXTRACT: note_on channel=5 note=68 velocity=0 time=0.001984125
EXTRACT: note_on channel=9 note=70 velocity=105 time=0.029761875000000004
EXTRACT: note_on channel=9 note=70 velocity=0 time=0.001984125
EXTRACT: note_on channel=9 note=42 velocity=0 time=0.001984125
EXTRACT: note_on channel=9 note=27 velocity=58 time=0.00396825
EXTRACT: note_on channel=9 note=44 velocity=70 time=0
EXTRACT: note_on channel=9 note=67 velocity=47 time=0
EXTRACT: note_on channel=1 note=37 velocity=83 time=0
EXTRACT: note_on channel=7 note=61 velocity=54 time=0
EXTRACT: note_on channel=7 note=64 velocity=69 time=0
EXTRACT: note_on channel=9 note=42 velocity=73 time=0
EXTRACT: note_on channel=9 note=82 velocity=48 time=0
EXTRACT: note_on channel=9 note=82 velocity=0 time=0.001984125
EXTRACT: note_on channel=9 note=42 velocity=0 time=0
EXTRACT: note_on channel=9 note=67 velocity=0 time=0.03373012500000001
EXTRACT: note_on channel=9 note=27 velocity=0 time=0.009920625
EXTRACT: note_on channel=9 note=56 velocity=0 time=0.009920625
EXTRACT: note_on channel=7 note=56 velocity=0 time=0
EXTRACT: note_on channel=9 note=44 velocity=0 time=0.00396825
EXTRACT: note_on channel=6 note=68 velocity=0 time=0.00396825
EXTRACT: note_on channel=6 note=64 velocity=0 time=0
EXTRACT: note_on channel=6 note=61 velocity=0 time=0
EXTRACT: note_on channel=7 note=61 velocity=0 time=0
EXTRACT: note_on channel=7 note=64 velocity=0 time=0.0079365
EXTRACT: note_on channel=9 note=56 velocity=87 time=0.04761900000000001
EXTRACT: note_on channel=9 note=56 velocity=0 time=0.001984125
EXTRACT: note_on channel=9 note=67 velocity=44 time=0.0079365
EXTRACT: note_on channel=7 note=61 velocity=63 time=0
EXTRACT: note_on channel=7 note=64 velocity=71 time=0
EXTRACT: note_on channel=9 note=44 velocity=73 time=0.009920625
EXTRACT: note_on channel=9 note=42 velocity=66 time=0.001984125
EXTRACT: note_on channel=9 note=82 velocity=40 time=0
EXTRACT: note_on channel=9 note=82 velocity=0 time=0.001984125
EXTRACT: note_on channel=9 note=42 velocity=0 time=0
EXTRACT: note_on channel=9 note=67 velocity=0 time=0.04761900000000001
EXTRACT: note_on channel=3 note=64 velocity=0 time=0.011904750000000002
EXTRACT: note_on channel=7 note=64 velocity=0 time=0
EXTRACT: note_on channel=7 note=61 velocity=0 time=0.009920625
EXTRACT: note_on channel=9 note=44 velocity=0 time=0.005952375000000001
EXTRACT: note_on channel=9 note=32 velocity=88 time=0.01984125
EXTRACT: note_on channel=9 note=36 velocity=105 time=0
EXTRACT: note_on channel=9 note=39 velocity=103 time=0
EXTRACT: note_on channel=9 note=42 velocity=94 time=0
EXTRACT: note_on channel=9 note=56 velocity=74 time=0
EXTRACT: note_on channel=1 note=32 velocity=86 time=0
EXTRACT: note_on channel=3 note=61 velocity=82 time=0
EXTRACT: note_on channel=5 note=61 velocity=73 time=0
EXTRACT: note_on channel=5 note=64 velocity=85 time=0
EXTRACT: note_on channel=5 note=68 velocity=81 time=0
EXTRACT: note_on channel=6 note=61 velocity=51 time=0
EXTRACT: note_on channel=6 note=64 velocity=63 time=0
EXTRACT: note_on channel=6 note=68 velocity=59 time=0
EXTRACT: note_on channel=7 note=56 velocity=86 time=0
EXTRACT: note_on channel=9 note=39 velocity=121 time=0
EXTRACT: note_on channel=9 note=40 velocity=117 time=0
EXTRACT: note_on channel=9 note=36 velocity=126 time=0
EXTRACT: note_on channel=9 note=35 velocity=117 time=0
EXTRACT: note_on channel=9 note=44 velocity=81 time=0
EXTRACT: note_on channel=9 note=82 velocity=69 time=0
EXTRACT: note_on channel=9 note=82 velocity=0 time=0.001984125
EXTRACT: note_on channel=9 note=40 velocity=0 time=0
EXTRACT: note_on channel=9 note=36 velocity=0 time=0
EXTRACT: note_on channel=9 note=39 velocity=0 time=0
EXTRACT: note_on channel=9 note=44 velocity=0 time=0
EXTRACT: note_on channel=9 note=35 velocity=0 time=0
EXTRACT: note_on channel=1 note=37 velocity=0 time=0.0396825
EXTRACT: note_on channel=5 note=64 velocity=0 time=0.023809500000000004
EXTRACT: note_on channel=9 note=32 velocity=0 time=0.005952375000000001
EXTRACT: note_on channel=9 note=39 velocity=0 time=0.0079365
EXTRACT: note_on channel=9 note=36 velocity=0 time=0.00396825
EXTRACT: note_on channel=5 note=61 velocity=0 time=0.005952375000000001
EXTRACT: note_on channel=5 note=68 velocity=0 time=0.021825375
EXTRACT: note_on channel=7 note=56 velocity=0 time=0.029761875000000004
EXTRACT: note_on channel=6 note=68 velocity=0 time=0.031746
EXTRACT: note_on channel=6 note=64 velocity=0 time=0
EXTRACT: note_on channel=6 note=61 velocity=0 time=0
EXTRACT: note_on channel=1 note=32 velocity=0 time=0.05158725000000001
EXTRACT: note_on channel=9 note=70 velocity=105 time=0.0079365
EXTRACT: note_on channel=9 note=42 velocity=0 time=0.001984125
EXTRACT: note_on channel=3 note=61 velocity=0 time=0
EXTRACT: note_on channel=9 note=70 velocity=0 time=0
EXTRACT: note_on channel=9 note=32 velocity=71 time=0.00396825
EXTRACT: note_on channel=9 note=44 velocity=73 time=0
EXTRACT: note_on channel=9 note=68 velocity=54 time=0
EXTRACT: note_on channel=1 note=37 velocity=91 time=0
EXTRACT: note_on channel=3 note=59 velocity=85 time=0
EXTRACT: note_on channel=5 note=61 velocity=71 time=0
EXTRACT: note_on channel=5 note=64 velocity=84 time=0
EXTRACT: note_on channel=5 note=68 velocity=81 time=0
EXTRACT: note_on channel=6 note=61 velocity=49 time=0
EXTRACT: note_on channel=6 note=64 velocity=62 time=0
EXTRACT: note_on channel=6 note=68 velocity=59 time=0
EXTRACT: note_on channel=7 note=61 velocity=69 time=0
EXTRACT: note_on channel=7 note=64 velocity=71 time=0
EXTRACT: note_on channel=9 note=42 velocity=73 time=0
EXTRACT: note_on channel=9 note=69 velocity=78 time=0
EXTRACT: note_on channel=9 note=56 velocity=87 time=0
EXTRACT: note_on channel=9 note=56 velocity=0 time=0.001984125
EXTRACT: note_on channel=9 note=69 velocity=0 time=0
EXTRACT: note_on channel=9 note=42 velocity=0 time=0
EXTRACT: note_on channel=9 note=68 velocity=0 time=0.031746
EXTRACT: note_on channel=9 note=44 velocity=0 time=0.021825375
EXTRACT: note_on channel=9 note=32 velocity=0 time=0
EXTRACT: note_on channel=10 note=76 velocity=0 time=0.00396825
EXTRACT: note_on channel=7 note=64 velocity=0 time=0.00396825
EXTRACT: note_on channel=7 note=61 velocity=0 time=0
EXTRACT: note_on channel=10 note=73 velocity=0 time=0.005952375000000001
EXTRACT: note_on channel=5 note=61 velocity=0 time=0.001984125
EXTRACT: note_on channel=5 note=64 velocity=0 time=0.001984125
EXTRACT: note_on channel=10 note=64 velocity=0 time=0.005952375000000001
EXTRACT: note_on channel=10 note=80 velocity=0 time=0.001984125
EXTRACT: note_on channel=5 note=68 velocity=0 time=0
EXTRACT: note_on channel=10 note=68 velocity=0 time=0.001984125
EXTRACT: note_on channel=9 note=56 velocity=0 time=0.0079365
EXTRACT: note_on channel=10 note=61 velocity=0 time=0.027777750000000004
EXTRACT: note_on channel=9 note=32 velocity=67 time=0.009920625
EXTRACT: note_on channel=9 note=68 velocity=56 time=0
EXTRACT: note_on channel=7 note=61 velocity=65 time=0
EXTRACT: note_on channel=7 note=64 velocity=71 time=0
EXTRACT: note_on channel=9 note=44 velocity=72 time=0.009920625
EXTRACT: note_on channel=9 note=42 velocity=66 time=0.001984125
EXTRACT: note_on channel=9 note=69 velocity=73 time=0
EXTRACT: note_on channel=9 note=69 velocity=0 time=0.001984125
EXTRACT: note_on channel=9 note=42 velocity=0 time=0
EXTRACT: note_on channel=10 note=56 velocity=0 time=0.005952375000000001
EXTRACT: note_on channel=6 note=68 velocity=0 time=0.023809500000000004
EXTRACT: note_on channel=6 note=64 velocity=0 time=0
EXTRACT: note_on channel=6 note=61 velocity=0 time=0
EXTRACT: note_on channel=1 note=37 velocity=0 time=0.009920625
EXTRACT: note_on channel=3 note=59 velocity=0 time=0
EXTRACT: note_on channel=9 note=68 velocity=0 time=0.009920625
EXTRACT: note_on channel=9 note=32 velocity=0 time=0.005952375000000001
EXTRACT: note_on channel=7 note=64 velocity=0 time=0.001984125
EXTRACT: note_on channel=7 note=61 velocity=0 time=0.00396825
EXTRACT: note_on channel=9 note=44 velocity=0 time=0.013888875000000002
EXTRACT: note_on channel=9 note=27 velocity=90 time=0.01984125
EXTRACT: note_on channel=9 note=36 velocity=105 time=0
EXTRACT: note_on channel=9 note=42 velocity=97 time=0
EXTRACT: note_on channel=9 note=56 velocity=74 time=0
EXTRACT: note_on channel=1 note=33 velocity=82 time=0
EXTRACT: note_on channel=10 note=52 velocity=69 time=0
EXTRACT: note_on channel=10 note=57 velocity=54 time=0
EXTRACT: note_on channel=10 note=61 velocity=57 time=0
EXTRACT: note_on channel=10 note=69 velocity=76 time=0
EXTRACT: note_on channel=10 note=73 velocity=59 time=0
EXTRACT: note_on channel=10 note=81 velocity=66 time=0
EXTRACT: note_on channel=4 note=64 velocity=108 time=0
EXTRACT: note_on channel=5 note=61 velocity=82 time=0
EXTRACT: note_on channel=5 note=64 velocity=85 time=0
EXTRACT: note_on channel=5 note=69 velocity=84 time=0
EXTRACT: note_on channel=6 note=61 velocity=60 time=0
EXTRACT: note_on channel=6 note=64 velocity=63 time=0
EXTRACT: note_on channel=6 note=69 velocity=62 time=0
EXTRACT: note_on channel=7 note=52 velocity=84 time=0
EXTRACT: note_on channel=9 note=36 velocity=126 time=0
EXTRACT: note_on channel=9 note=35 velocity=117 time=0
EXTRACT: note_on channel=9 note=35 velocity=0 time=0.001984125
EXTRACT: note_on channel=9 note=36 velocity=0 time=0
EXTRACT: note_on channel=5 note=64 velocity=0 time=0.057539625000000004
EXTRACT: note_on channel=5 note=69 velocity=0 time=0.00396825
EXTRACT: note_on channel=5 note=61 velocity=0 time=0
EXTRACT: note_on channel=9 note=27 velocity=0 time=0.015873
EXTRACT: note_on channel=9 note=36 velocity=0 time=0.00396825
EXTRACT: note_on channel=4 note=64 velocity=0 time=0.05158725000000001
EXTRACT: note_on channel=7 note=52 velocity=0 time=0
EXTRACT: note_on channel=9 note=69 velocity=84 time=0.005952375000000001
EXTRACT: note_on channel=9 note=69 velocity=0 time=0.001984125
EXTRACT: note_on channel=1 note=33 velocity=0 time=0.021825375
EXTRACT: note_on channel=6 note=69 velocity=0 time=0.0079365
EXTRACT: note_on channel=6 note=64 velocity=0 time=0
EXTRACT: note_on channel=6 note=61 velocity=0 time=0
EXTRACT: note_on channel=9 note=42 velocity=0 time=0.061507875000000004
EXTRACT: note_on channel=9 note=70 velocity=105 time=0
EXTRACT: note_on channel=9 note=27 velocity=78 time=0.00396825
EXTRACT: note_on channel=9 note=44 velocity=64 time=0
EXTRACT: note_on channel=9 note=67 velocity=44 time=0
EXTRACT: note_on channel=1 note=33 velocity=79 time=0
EXTRACT: note_on channel=4 note=64 velocity=101 time=0
EXTRACT: note_on channel=7 note=57 velocity=67 time=0
EXTRACT: note_on channel=7 note=61 velocity=60 time=0
EXTRACT: note_on channel=9 note=70 velocity=0 time=0
EXTRACT: note_on channel=9 note=42 velocity=73 time=0
EXTRACT: note_on channel=9 note=62 velocity=79 time=0
EXTRACT: note_on channel=9 note=62 velocity=0 time=0.001984125
EXTRACT: note_on channel=9 note=42 velocity=0 time=0
EXTRACT: note_on channel=9 note=56 velocity=0 time=0.027777750000000004
EXTRACT: note_on channel=9 note=67 velocity=0 time=0.009920625
EXTRACT: note_on channel=9 note=44 velocity=0 time=0.005952375000000001
EXTRACT: note_on channel=7 note=57 velocity=0 time=0.017857125
EXTRACT: note_on channel=9 note=27 velocity=0 time=0.001984125
EXTRACT: note_on channel=7 note=61 velocity=0 time=0.015873
EXTRACT: note_on channel=9 note=61 velocity=69 time=0.037698375000000006
EXTRACT: note_on channel=9 note=61 velocity=0 time=0.001984125
EXTRACT: note_on channel=9 note=27 velocity=50 time=0.0079365
EXTRACT: note_on channel=9 note=67 velocity=45 time=0
EXTRACT: note_on channel=5 note=61 velocity=65 time=0
EXTRACT: note_on channel=5 note=64 velocity=80 time=0
EXTRACT: note_on channel=5 note=69 velocity=84 time=0
EXTRACT: note_on channel=6 note=61 velocity=43 time=0
EXTRACT: note_on channel=6 note=64 velocity=58 time=0
EXTRACT: note_on channel=6 note=69 velocity=62 time=0
EXTRACT: note_on channel=7 note=57 velocity=76 time=0
EXTRACT: note_on channel=7 note=61 velocity=67 time=0
EXTRACT: note_on channel=9 note=44 velocity=67 time=0.009920625
EXTRACT: note_on channel=9 note=42 velocity=66 time=0.001984125
EXTRACT: note_on channel=9 note=69 velocity=68 time=0
EXTRACT: note_on channel=9 note=69 velocity=0 time=0.001984125
EXTRACT: note_on channel=9 note=42 velocity=0 time=0
EXTRACT: note_on channel=5 note=64 velocity=0 time=0.0396825
EXTRACT: note_on channel=5 note=61 velocity=0 time=0.0079365
EXTRACT: note_on channel=7 note=57 velocity=0 time=0.001984125
EXTRACT: note_on channel=9 note=67 velocity=0 time=0.009920625
EXTRACT: note_on channel=4 note=64 velocity=0 time=0
EXTRACT: note_on channel=5 note=69 velocity=0 time=0.005952375000000001
EXTRACT: note_on channel=1 note=33 velocity=0 time=0.005952375000000001
EXTRACT: note_on channel=9 note=44 velocity=0 time=0.00396825
EXTRACT: note_on channel=9 note=27 velocity=0 time=0
EXTRACT: note_on channel=7 note=61 velocity=0 time=0
EXTRACT: note_on channel=9 note=32 velocity=78 time=0.01984125
EXTRACT: note_on channel=9 note=36 velocity=103 time=0
EXTRACT: note_on channel=9 note=39 velocity=100 time=0
EXTRACT: note_on channel=9 note=42 velocity=97 time=0
EXTRACT: note_on channel=9 note=56 velocity=71 time=0
EXTRACT: note_on channel=1 note=37 velocity=80 time=0
EXTRACT: note_on channel=4 note=61 velocity=83 time=0
EXTRACT: note_on channel=7 note=52 velocity=92 time=0
EXTRACT: note_on channel=9 note=39 velocity=121 time=0
EXTRACT: note_on channel=9 note=36 velocity=126 time=0
EXTRACT: note_on channel=9 note=35 velocity=117 time=0
EXTRACT: note_on channel=9 note=40 velocity=117 time=0
EXTRACT: note_on channel=9 note=44 velocity=81 time=0
EXTRACT: note_on channel=9 note=44 velocity=0 time=0.001984125
EXTRACT: note_on channel=9 note=35 velocity=0 time=0
EXTRACT: note_on channel=9 note=39 velocity=0 time=0
EXTRACT: note_on channel=9 note=36 velocity=0 time=0
EXTRACT: note_on channel=9 note=40 velocity=0 time=0
EXTRACT: note_on channel=6 note=69 velocity=0 time=0.061507875000000004
EXTRACT: note_on channel=6 note=64 velocity=0 time=0
EXTRACT: note_on channel=6 note=61 velocity=0 time=0
EXTRACT: note_on channel=9 note=32 velocity=0 time=0.0079365
EXTRACT: note_on channel=9 note=36 velocity=0 time=0.0079365
EXTRACT: note_on channel=9 note=39 velocity=0 time=0
EXTRACT: note_on channel=9 note=62 velocity=73 time=0.0396825
EXTRACT: note_on channel=9 note=62 velocity=0 time=0.001984125
EXTRACT: note_on channel=7 note=52 velocity=0 time=0.0714285
EXTRACT: note_on channel=4 note=61 velocity=0 time=0.005952375000000001
EXTRACT: note_on channel=9 note=42 velocity=0 time=0.03571425
EXTRACT: note_on channel=9 note=32 velocity=69 time=0.00396825
EXTRACT: note_on channel=9 note=44 velocity=73 time=0
EXTRACT: note_on channel=9 note=68 velocity=43 time=0
EXTRACT: note_on channel=1 note=40 velocity=82 time=0
EXTRACT: note_on channel=4 note=59 velocity=83 time=0
EXTRACT: note_on channel=5 note=61 velocity=75 time=0
EXTRACT: note_on channel=5 note=64 velocity=84 time=0
EXTRACT: note_on channel=5 note=69 velocity=98 time=0
EXTRACT: note_on channel=6 note=61 velocity=53 time=0
EXTRACT: note_on channel=6 note=64 velocity=62 time=0
EXTRACT: note_on channel=6 note=69 velocity=76 time=0
EXTRACT: note_on channel=7 note=57 velocity=70 time=0
EXTRACT: note_on channel=7 note=61 velocity=65 time=0
EXTRACT: note_on channel=9 note=42 velocity=73 time=0
EXTRACT: note_on channel=9 note=61 velocity=66 time=0
EXTRACT: note_on channel=9 note=61 velocity=0 time=0.001984125
EXTRACT: note_on channel=9 note=42 velocity=0 time=0
EXTRACT: note_on channel=9 note=70 velocity=105 time=0.001984125
EXTRACT: note_on channel=9 note=70 velocity=0 time=0.001984125
EXTRACT: note_on channel=1 note=37 velocity=0 time=0.013888875000000002
EXTRACT: note_on channel=9 note=68 velocity=0 time=0.015873
EXTRACT: note_on channel=9 note=56 velocity=0 time=0.015873
EXTRACT: note_on channel=9 note=32 velocity=0 time=0.0079365
EXTRACT: note_on channel=5 note=61 velocity=0 time=0.00396825
EXTRACT: note_on channel=7 note=57 velocity=0 time=0
EXTRACT: note_on channel=9 note=44 velocity=0 time=0.001984125
EXTRACT: note_on channel=5 note=64 velocity=0 time=0
EXTRACT: note_on channel=7 note=61 velocity=0 time=0.00396825
EXTRACT: note_on channel=5 note=69 velocity=0 time=0.01984125
EXTRACT: note_on channel=10 note=73 velocity=0 time=0.005952375000000001
EXTRACT: note_on channel=10 note=57 velocity=0 time=0.005952375000000001
EXTRACT: note_on channel=10 note=81 velocity=0 time=0.011904750000000002
EXTRACT: note_on channel=10 note=69 velocity=0 time=0.001984125
EXTRACT: note_on channel=9 note=32 velocity=69 time=0.013888875000000002
EXTRACT: note_on channel=9 note=68 velocity=60 time=0
EXTRACT: note_on channel=10 note=52 velocity=0 time=0
EXTRACT: note_on channel=7 note=57 velocity=67 time=0
EXTRACT: note_on channel=7 note=61 velocity=67 time=0
EXTRACT: note_on channel=9 note=44 velocity=68 time=0.009920625
EXTRACT: note_on channel=9 note=42 velocity=66 time=0.001984125
EXTRACT: note_on channel=9 note=82 velocity=48 time=0
EXTRACT: note_on channel=9 note=82 velocity=0 time=0.001984125
EXTRACT: note_on channel=9 note=42 velocity=0 time=0
EXTRACT: note_on channel=10 note=61 velocity=0 time=0.011904750000000002
EXTRACT: note_on channel=6 note=69 velocity=0 time=0.017857125
EXTRACT: note_on channel=6 note=64 velocity=0 time=0
EXTRACT: note_on channel=6 note=61 velocity=0 time=0
EXTRACT: note_on channel=9 note=68 velocity=0 time=0.017857125
EXTRACT: note_on channel=7 note=57 velocity=0 time=0.001984125
EXTRACT: note_on channel=9 note=32 velocity=0 time=0.009920625
EXTRACT: note_on channel=7 note=61 velocity=0 time=0.011904750000000002
EXTRACT: note_on channel=9 note=44 velocity=0 time=0.00396825
EXTRACT: note_on channel=4 note=59 velocity=0 time=0.00396825
EXTRACT: note_on channel=1 note=40 velocity=0 time=0.0079365
EXTRACT: note_on channel=9 note=27 velocity=88 time=0.0079365
EXTRACT: note_on channel=9 note=36 velocity=107 time=0
EXTRACT: note_on channel=9 note=42 velocity=96 time=0
EXTRACT: note_on channel=9 note=56 velocity=73 time=0
EXTRACT: note_on channel=1 note=35 velocity=88 time=0
EXTRACT: note_on channel=10 note=54 velocity=69 time=0
EXTRACT: note_on channel=10 note=59 velocity=65 time=0
EXTRACT: note_on channel=10 note=66 velocity=64 time=0
EXTRACT: note_on channel=10 note=71 velocity=68 time=0
EXTRACT: note_on channel=10 note=75 velocity=72 time=0
EXTRACT: note_on channel=10 note=78 velocity=67 time=0
EXTRACT: note_on channel=4 note=64 velocity=103 time=0
EXTRACT: note_on channel=7 note=54 velocity=83 time=0
EXTRACT: note_on channel=9 note=36 velocity=126 time=0
EXTRACT: note_on channel=9 note=35 velocity=117 time=0
EXTRACT: note_on channel=9 note=44 velocity=81 time=0
EXTRACT: note_on channel=9 note=82 velocity=55 time=0
EXTRACT: note_on channel=9 note=56 velocity=80 time=0
EXTRACT: note_on channel=9 note=56 velocity=0 time=0.001984125
EXTRACT: note_on channel=9 note=44 velocity=0 time=0
EXTRACT: note_on channel=9 note=36 velocity=0 time=0
EXTRACT: note_on channel=9 note=35 velocity=0 time=0
EXTRACT: note_on channel=9 note=82 velocity=0 time=0
EXTRACT: note_on channel=9 note=27 velocity=0 time=0.069444375
EXTRACT: note_on channel=9 note=36 velocity=0 time=0.009920625
EXTRACT: note_on channel=9 note=32 velocity=77 time=0.04761900000000001
EXTRACT: note_on channel=5 note=59 velocity=79 time=0
EXTRACT: note_on channel=5 note=64 velocity=84 time=0
EXTRACT: note_on channel=5 note=66 velocity=78 time=0
EXTRACT: note_on channel=6 note=59 velocity=57 time=0
EXTRACT: note_on channel=6 note=64 velocity=62 time=0
EXTRACT: note_on channel=6 note=66 velocity=56 time=0
EXTRACT: note_on channel=4 note=64 velocity=0 time=0.001984125
EXTRACT: note_on channel=9 note=82 velocity=63 time=0.009920625
EXTRACT: note_on channel=9 note=82 velocity=0 time=0.001984125
EXTRACT: note_on channel=5 note=59 velocity=0 time=0.017857125
EXTRACT: note_on channel=9 note=32 velocity=0 time=0.023809500000000004
EXTRACT: note_on channel=5 note=64 velocity=0 time=0.00396825
EXTRACT: note_on channel=5 note=66 velocity=0 time=0.00396825
EXTRACT: note_on channel=7 note=54 velocity=0 time=0.021825375
EXTRACT: note_on channel=9 note=42 velocity=0 time=0.01984125
EXTRACT: note_on channel=9 note=27 velocity=77 time=0.00396825
EXTRACT: note_on channel=9 note=44 velocity=74 time=0
EXTRACT: note_on channel=4 note=64 velocity=96 time=0
EXTRACT: note_on channel=7 note=57 velocity=44 time=0
EXTRACT: note_on channel=7 note=59 velocity=61 time=0
EXTRACT: note_on channel=9 note=42 velocity=73 time=0
EXTRACT: note_on channel=9 note=82 velocity=59 time=0
EXTRACT: note_on channel=9 note=63 velocity=60 time=0
EXTRACT: note_on channel=9 note=63 velocity=0 time=0.001984125
EXTRACT: note_on channel=9 note=82 velocity=0 time=0
EXTRACT: note_on channel=9 note=42 velocity=0 time=0
EXTRACT: note_on channel=9 note=70 velocity=105 time=0.001984125
EXTRACT: note_on channel=9 note=70 velocity=0 time=0.001984125
EXTRACT: note_on channel=9 note=56 velocity=0 time=0.04761900000000001
EXTRACT: note_on channel=9 note=44 velocity=0 time=0.001984125
EXTRACT: note_on channel=9 note=27 velocity=0 time=0.0079365
EXTRACT: note_on channel=6 note=66 velocity=0 time=0
EXTRACT: note_on channel=6 note=64 velocity=0 time=0
EXTRACT: note_on channel=6 note=59 velocity=0 time=0
EXTRACT: note_on channel=7 note=59 velocity=0 time=0
EXTRACT: note_on channel=7 note=57 velocity=0 time=0
EXTRACT: note_on channel=9 note=56 velocity=89 time=0.05555550000000001
EXTRACT: note_on channel=9 note=56 velocity=0 time=0.001984125
EXTRACT: note_on channel=9 note=67 velocity=53 time=0.0079365
EXTRACT: note_on channel=7 note=57 velocity=64 time=0
EXTRACT: note_on channel=7 note=59 velocity=74 time=0
EXTRACT: note_on channel=9 note=44 velocity=76 time=0.009920625
EXTRACT: note_on channel=9 note=42 velocity=66 time=0.001984125
EXTRACT: note_on channel=9 note=82 velocity=45 time=0
EXTRACT: note_on channel=9 note=82 velocity=0 time=0.001984125
EXTRACT: note_on channel=9 note=42 velocity=0 time=0
EXTRACT: note_on channel=7 note=59 velocity=0 time=0.049603125000000005
EXTRACT: note_on channel=7 note=57 velocity=0 time=0
EXTRACT: note_on channel=4 note=64 velocity=0 time=0.001984125
EXTRACT: note_on channel=9 note=67 velocity=0 time=0.005952375000000001
EXTRACT: note_on channel=1 note=35 velocity=0 time=0.009920625
EXTRACT: note_on channel=9 note=44 velocity=0 time=0.00396825
EXTRACT: note_on channel=9 note=32 velocity=83 time=0.023809500000000004
EXTRACT: note_on channel=9 note=36 velocity=99 time=0
EXTRACT: note_on channel=9 note=39 velocity=103 time=0
EXTRACT: note_on channel=9 note=42 velocity=98 time=0
EXTRACT: note_on channel=9 note=56 velocity=74 time=0
EXTRACT: note_on channel=1 note=39 velocity=86 time=0
EXTRACT: note_on channel=4 note=61 velocity=85 time=0
EXTRACT: note_on channel=5 note=59 velocity=78 time=0
EXTRACT: note_on channel=5 note=64 velocity=84 time=0
EXTRACT: note_on channel=5 note=66 velocity=75 time=0
EXTRACT: note_on channel=6 note=59 velocity=56 time=0
EXTRACT: note_on channel=6 note=64 velocity=62 time=0
EXTRACT: note_on channel=6 note=66 velocity=53 time=0
EXTRACT: note_on channel=7 note=54 velocity=86 time=0
EXTRACT: note_on channel=9 note=36 velocity=126 time=0
EXTRACT: note_on channel=9 note=35 velocity=117 time=0
EXTRACT: note_on channel=9 note=39 velocity=121 time=0
EXTRACT: note_on channel=9 note=40 velocity=117 time=0
EXTRACT: note_on channel=9 note=44 velocity=81 time=0
EXTRACT: note_on channel=9 note=82 velocity=60 time=0
EXTRACT: note_on channel=9 note=82 velocity=0 time=0.001984125
EXTRACT: note_on channel=9 note=35 velocity=0 time=0
EXTRACT: note_on channel=9 note=39 velocity=0 time=0
EXTRACT: note_on channel=9 note=36 velocity=0 time=0
EXTRACT: note_on channel=9 note=44 velocity=0 time=0
EXTRACT: note_on channel=9 note=40 velocity=0 time=0
EXTRACT: note_on channel=5 note=59 velocity=0 time=0.031746
EXTRACT: note_on channel=9 note=32 velocity=0 time=0.029761875000000004
EXTRACT: note_on channel=5 note=64 velocity=0 time=0
EXTRACT: note_on channel=5 note=66 velocity=0 time=0.001984125
EXTRACT: note_on channel=9 note=36 velocity=0 time=0.013888875000000002
EXTRACT: note_on channel=9 note=39 velocity=0 time=0.013888875000000002
EXTRACT: note_on channel=6 note=66 velocity=0 time=0.079365
EXTRACT: note_on channel=6 note=64 velocity=0 time=0
EXTRACT: note_on channel=6 note=59 velocity=0 time=0
EXTRACT: note_on channel=4 note=61 velocity=0 time=0.029761875000000004
EXTRACT: note_on channel=7 note=54 velocity=0 time=0.009920625
EXTRACT: note_on channel=9 note=70 velocity=105 time=0.01984125
EXTRACT: note_on channel=9 note=42 velocity=0 time=0.001984125
EXTRACT: note_on channel=9 note=70 velocity=0 time=0
EXTRACT: note_on channel=9 note=32 velocity=79 time=0.00396825
EXTRACT: note_on channel=9 note=44 velocity=74 time=0
EXTRACT: note_on channel=9 note=68 velocity=51 time=0
EXTRACT: note_on channel=1 note=42 velocity=84 time=0
EXTRACT: note_on channel=4 note=59 velocity=87 time=0
EXTRACT: note_on channel=5 note=59 velocity=78 time=0
EXTRACT: note_on channel=5 note=63 velocity=85 time=0
EXTRACT: note_on channel=5 note=66 velocity=78 time=0
EXTRACT: note_on channel=6 note=59 velocity=56 time=0
EXTRACT: note_on channel=6 note=63 velocity=63 time=0
EXTRACT: note_on channel=6 note=66 velocity=56 time=0
EXTRACT: note_on channel=7 note=57 velocity=62 time=0
EXTRACT: note_on channel=7 note=59 velocity=70 time=0
EXTRACT: note_on channel=9 note=42 velocity=75 time=0
EXTRACT: note_on channel=9 note=69 velocity=87 time=0
EXTRACT: note_on channel=9 note=56 velocity=87 time=0
EXTRACT: note_on channel=9 note=56 velocity=0 time=0.001984125
EXTRACT: note_on channel=9 note=69 velocity=0 time=0
EXTRACT: note_on channel=9 note=42 velocity=0 time=0
EXTRACT: note_on channel=1 note=39 velocity=0 time=0.009920625
EXTRACT: note_on channel=5 note=59 velocity=0 time=0.017857125
EXTRACT: note_on channel=10 note=59 velocity=0 time=0.00396825
EXTRACT: note_on channel=9 note=68 velocity=0 time=0.001984125
EXTRACT: note_on channel=9 note=44 velocity=0 time=0.023809500000000004
EXTRACT: note_on channel=9 note=32 velocity=0 time=0
EXTRACT: note_on channel=5 note=63 velocity=0 time=0
EXTRACT: note_on channel=7 note=57 velocity=0 time=0.00396825
EXTRACT: note_on channel=5 note=66 velocity=0 time=0.005952375000000001
EXTRACT: note_on channel=7 note=59 velocity=0 time=0.009920625
EXTRACT: note_on channel=9 note=56 velocity=0 time=0.001984125
EXTRACT: note_on channel=10 note=71 velocity=0 time=0.011904750000000002
EXTRACT: note_on channel=10 note=54 velocity=0 time=0.011904750000000002
EXTRACT: note_on channel=10 note=66 velocity=0 time=0
EXTRACT: note_on channel=9 note=62 velocity=64 time=0.013888875000000002
EXTRACT: note_on channel=9 note=62 velocity=0 time=0.001984125
EXTRACT: note_on channel=9 note=32 velocity=71 time=0.0079365
EXTRACT: note_on channel=9 note=68 velocity=60 time=0
EXTRACT: note_on channel=10 note=75 velocity=0 time=0
EXTRACT: note_on channel=7 note=57 velocity=62 time=0
EXTRACT: note_on channel=7 note=59 velocity=36 time=0
EXTRACT: note_on channel=9 note=44 velocity=72 time=0.009920625
EXTRACT: note_on channel=10 note=78 velocity=0 time=0.001984125
EXTRACT: note_on channel=9 note=42 velocity=66 time=0
EXTRACT: note_on channel=9 note=69 velocity=69 time=0
EXTRACT: note_on channel=9 note=69 velocity=0 time=0.001984125
EXTRACT: note_on channel=9 note=42 velocity=0 time=0
EXTRACT: note_on channel=6 note=66 velocity=0 time=0.029761875000000004
EXTRACT: note_on channel=6 note=63 velocity=0 time=0
EXTRACT: note_on channel=6 note=59 velocity=0 time=0
EXTRACT: note_on channel=9 note=32 velocity=0 time=0.01984125
EXTRACT: note_on channel=7 note=57 velocity=0 time=0
EXTRACT: note_on channel=7 note=59 velocity=0 time=0.0079365
EXTRACT: note_on channel=9 note=68 velocity=0 time=0.00396825
EXTRACT: note_on channel=9 note=44 velocity=0 time=0.0079365
EXTRACT: note_on channel=4 note=59 velocity=0 time=0.0079365
EXTRACT: note_on channel=9 note=27 velocity=91 time=0.017857125
EXTRACT: note_on channel=9 note=36 velocity=108 time=0
EXTRACT: note_on channel=9 note=42 velocity=101 time=0
EXTRACT: note_on channel=9 note=56 velocity=78 time=0
EXTRACT: note_on channel=1 note=32 velocity=88 time=0
EXTRACT: note_on channel=10 note=56 velocity=79 time=0
EXTRACT: note_on channel=10 note=59 velocity=60 time=0
EXTRACT: note_on channel=10 note=63 velocity=67 time=0
EXTRACT: note_on channel=10 note=68 velocity=72 time=0
EXTRACT: note_on channel=10 note=71 velocity=72 time=0
EXTRACT: note_on channel=10 note=75 velocity=67 time=0
EXTRACT: note_on channel=10 note=83 velocity=66 time=0
EXTRACT: note_on channel=5 note=59 velocity=73 time=0
EXTRACT: note_on channel=5 note=63 velocity=94 time=0
EXTRACT: note_on channel=5 note=68 velocity=86 time=0
EXTRACT: note_on channel=6 note=59 velocity=51 time=0
EXTRACT: note_on channel=6 note=63 velocity=72 time=0
EXTRACT: note_on channel=6 note=68 velocity=64 time=0
EXTRACT: note_on channel=7 note=56 velocity=86 time=0
EXTRACT: note_on channel=9 note=36 velocity=126 time=0
EXTRACT: note_on channel=9 note=35 velocity=117 time=0
EXTRACT: note_on channel=9 note=44 velocity=81 time=0
EXTRACT: note_on channel=9 note=60 velocity=69 time=0
EXTRACT: note_on channel=9 note=60 velocity=0 time=0.001984125
EXTRACT: note_on channel=9 note=36 velocity=0 time=0
EXTRACT: note_on channel=9 note=35 velocity=0 time=0
EXTRACT: note_on channel=9 note=44 velocity=0 time=0
EXTRACT: note_on channel=1 note=42 velocity=0 time=0.00396825
EXTRACT: note_on channel=5 note=59 velocity=0 time=0.023809500000000004
EXTRACT: note_on channel=5 note=63 velocity=0 time=0.029761875000000004
EXTRACT: note_on channel=9 note=27 velocity=0 time=0.01984125
EXTRACT: note_on channel=9 note=36 velocity=0 time=0.00396825
EXTRACT: note_on channel=5 note=68 velocity=0 time=0.0079365
EXTRACT: note_on channel=9 note=69 velocity=93 time=0.049603125000000005
EXTRACT: note_on channel=9 note=69 velocity=0 time=0.001984125
EXTRACT: note_on channel=1 note=32 velocity=0 time=0.001984125
EXTRACT: note_on channel=6 note=68 velocity=0 time=0.027777750000000004
EXTRACT: note_on channel=6 note=63 velocity=0 time=0
EXTRACT: note_on channel=6 note=59 velocity=0 time=0
EXTRACT: note_on channel=9 note=42 velocity=0 time=0.061507875000000004
EXTRACT: note_on channel=9 note=27 velocity=90 time=0.00396825
EXTRACT: note_on channel=9 note=44 velocity=73 time=0
EXTRACT: note_on channel=9 note=67 velocity=45 time=0
EXTRACT: note_on channel=1 note=32 velocity=83 time=0
EXTRACT: note_on channel=3 note=73 velocity=93 time=0
EXTRACT: note_on channel=7 note=59 velocity=75 time=0
EXTRACT: note_on channel=7 note=63 velocity=66 time=0
EXTRACT: note_on channel=9 note=42 velocity=73 time=0
EXTRACT: note_on channel=9 note=62 velocity=59 time=0
EXTRACT: note_on channel=9 note=70 velocity=105 time=0
EXTRACT: note_on channel=9 note=70 velocity=0 time=0.001984125
EXTRACT: note_on channel=9 note=62 velocity=0 time=0
EXTRACT: note_on channel=9 note=42 velocity=0 time=0
EXTRACT: note_on channel=7 note=56 velocity=0 time=0.027777750000000004
EXTRACT: note_on channel=9 note=67 velocity=0 time=0.011904750000000002
EXTRACT: note_on channel=9 note=44 velocity=0 time=0.001984125
EXTRACT: note_on channel=9 note=56 velocity=0 time=0.01984125
EXTRACT: note_on channel=7 note=63 velocity=0 time=0
EXTRACT: note_on channel=7 note=59 velocity=0 time=0
EXTRACT: note_on channel=9 note=27 velocity=0 time=0.011904750000000002
EXTRACT: note_on channel=9 note=60 velocity=63 time=0.04365075
EXTRACT: note_on channel=9 note=60 velocity=0 time=0.001984125
EXTRACT: note_on channel=9 note=67 velocity=60 time=0.0079365
EXTRACT: note_on channel=5 note=59 velocity=79 time=0
EXTRACT: note_on channel=5 note=63 velocity=94 time=0
EXTRACT: note_on channel=5 note=68 velocity=89 time=0
EXTRACT: note_on channel=6 note=59 velocity=57 time=0
EXTRACT: note_on channel=6 note=63 velocity=72 time=0
EXTRACT: note_on channel=6 note=68 velocity=67 time=0
EXTRACT: note_on channel=7 note=59 velocity=60 time=0
EXTRACT: note_on channel=7 note=63 velocity=79 time=0
EXTRACT: note_on channel=9 note=44 velocity=84 time=0.009920625
EXTRACT: note_on channel=9 note=42 velocity=66 time=0.001984125
EXTRACT: note_on channel=9 note=69 velocity=61 time=0
EXTRACT: note_on channel=9 note=69 velocity=0 time=0.001984125
EXTRACT: note_on channel=9 note=42 velocity=0 time=0
EXTRACT: note_on channel=5 note=59 velocity=0 time=0.015873
EXTRACT: note_on channel=5 note=63 velocity=0 time=0.01984125
EXTRACT: note_on channel=7 note=59 velocity=0 time=0.013888875000000002
EXTRACT: note_on channel=9 note=67 velocity=0 time=0.009920625
EXTRACT: note_on channel=7 note=63 velocity=0 time=0
EXTRACT: note_on channel=9 note=44 velocity=0 time=0.011904750000000002
EXTRACT: note_on channel=5 note=68 velocity=0 time=0
EXTRACT: note_on channel=3 note=73 velocity=0 time=0.01984125
EXTRACT: note_on channel=9 note=32 velocity=88 time=0.00396825
EXTRACT: note_on channel=9 note=36 velocity=110 time=0
EXTRACT: note_on channel=9 note=39 velocity=113 time=0
EXTRACT: note_on channel=9 note=42 velocity=103 time=0
EXTRACT: note_on channel=9 note=56 velocity=82 time=0
EXTRACT: note_on channel=1 note=35 velocity=83 time=0
EXTRACT: note_on channel=3 note=71 velocity=89 time=0
EXTRACT: note_on channel=7 note=56 velocity=83 time=0
EXTRACT: note_on channel=9 note=40 velocity=117 time=0
EXTRACT: note_on channel=9 note=36 velocity=126 time=0
EXTRACT: note_on channel=9 note=35 velocity=117 time=0
EXTRACT: note_on channel=9 note=39 velocity=121 time=0
EXTRACT: note_on channel=9 note=44 velocity=81 time=0
EXTRACT: note_on channel=9 note=69 velocity=78 time=0
EXTRACT: note_on channel=9 note=69 velocity=0 time=0.001984125
EXTRACT: note_on channel=9 note=36 velocity=0 time=0
EXTRACT: note_on channel=9 note=35 velocity=0 time=0
EXTRACT: note_on channel=9 note=40 velocity=0 time=0
EXTRACT: note_on channel=9 note=44 velocity=0 time=0
EXTRACT: note_on channel=9 note=39 velocity=0 time=0
EXTRACT: note_on channel=1 note=32 velocity=0 time=0.017857125
EXTRACT: note_on channel=6 note=68 velocity=0 time=0.04365075
EXTRACT: note_on channel=6 note=63 velocity=0 time=0
EXTRACT: note_on channel=6 note=59 velocity=0 time=0
EXTRACT: note_on channel=9 note=32 velocity=0 time=0.0079365
EXTRACT: note_on channel=9 note=36 velocity=0 time=0.0079365
EXTRACT: note_on channel=9 note=61 velocity=73 time=0.0396825
EXTRACT: note_on channel=9 note=61 velocity=0 time=0.001984125
EXTRACT: note_on channel=9 note=39 velocity=0 time=0.031746
EXTRACT: note_on channel=3 note=71 velocity=0 time=0.05952375000000001
EXTRACT: note_on channel=9 note=42 velocity=0 time=0.021825375
EXTRACT: note_on channel=9 note=32 velocity=83 time=0.00396825
EXTRACT: note_on channel=9 note=44 velocity=86 time=0
EXTRACT: note_on channel=9 note=68 velocity=57 time=0
EXTRACT: note_on channel=1 note=39 velocity=91 time=0
EXTRACT: note_on channel=3 note=73 velocity=85 time=0
EXTRACT: note_on channel=5 note=59 velocity=85 time=0
EXTRACT: note_on channel=5 note=63 velocity=99 time=0
EXTRACT: note_on channel=5 note=68 velocity=94 time=0
EXTRACT: note_on channel=6 note=59 velocity=63 time=0
EXTRACT: note_on channel=6 note=63 velocity=77 time=0
EXTRACT: note_on channel=6 note=68 velocity=72 time=0
EXTRACT: note_on channel=7 note=59 velocity=72 time=0
EXTRACT: note_on channel=7 note=63 velocity=74 time=0
EXTRACT: note_on channel=9 note=42 velocity=73 time=0
EXTRACT: note_on channel=9 note=60 velocity=66 time=0
EXTRACT: note_on channel=9 note=60 velocity=0 time=0.001984125
EXTRACT: note_on channel=9 note=42 velocity=0 time=0
EXTRACT: note_on channel=9 note=70 velocity=105 time=0
EXTRACT: note_on channel=1 note=35 velocity=0 time=0.001984125
EXTRACT: note_on channel=9 note=70 velocity=0 time=0
EXTRACT: note_on channel=9 note=68 velocity=0 time=0.029761875000000004
EXTRACT: note_on channel=9 note=56 velocity=0 time=0.009920625
EXTRACT: note_on channel=9 note=44 velocity=0 time=0.009920625
EXTRACT: note_on channel=5 note=63 velocity=0 time=0.001984125
EXTRACT: note_on channel=5 note=59 velocity=0 time=0.0079365
EXTRACT: note_on channel=7 note=63 velocity=0 time=0
EXTRACT: note_on channel=7 note=59 velocity=0 time=0
EXTRACT: note_on channel=9 note=32 velocity=0 time=0.001984125
EXTRACT: note_on channel=5 note=68 velocity=0 time=0.013888875000000002
EXTRACT: note_on channel=10 note=75 velocity=0 time=0.001984125
EXTRACT: note_on channel=10 note=83 velocity=0 time=0.001984125
EXTRACT: note_on channel=7 note=56 velocity=0 time=0
EXTRACT: note_on channel=10 note=68 velocity=0 time=0.009920625
EXTRACT: note_on channel=10 note=63 velocity=0 time=0.005952375000000001
EXTRACT: note_on channel=10 note=71 velocity=0 time=0.001984125
EXTRACT: note_on channel=10 note=56 velocity=0 time=0.001984125
EXTRACT: note_on channel=10 note=59 velocity=0 time=0.001984125
EXTRACT: note_on channel=9 note=62 velocity=69 time=0.013888875000000002
EXTRACT: note_on channel=9 note=62 velocity=0 time=0.001984125
EXTRACT: note_on channel=9 note=32 velocity=60 time=0.0079365
EXTRACT: note_on channel=9 note=68 velocity=66 time=0
EXTRACT: note_on channel=7 note=59 velocity=60 time=0
EXTRACT: note_on channel=7 note=63 velocity=80 time=0
EXTRACT: note_on channel=9 note=44 velocity=83 time=0.009920625
EXTRACT: note_on channel=9 note=42 velocity=66 time=0.001984125
EXTRACT: note_on channel=9 note=42 velocity=0 time=0.001984125
EXTRACT: note_on channel=3 note=73 velocity=0 time=0.001984125
EXTRACT: note_on channel=6 note=68 velocity=0 time=0.027777750000000004
EXTRACT: note_on channel=6 note=63 velocity=0 time=0
EXTRACT: note_on channel=6 note=59 velocity=0 time=0
EXTRACT: note_on channel=9 note=32 velocity=0 time=0.009920625
EXTRACT: note_on channel=7 note=59 velocity=0 time=0.009920625
EXTRACT: note_on channel=1 note=39 velocity=0 time=0.001984125
EXTRACT: note_on channel=9 note=68 velocity=0 time=0.00396825
EXTRACT: note_on channel=7 note=63 velocity=0 time=0
EXTRACT: note_on channel=9 note=44 velocity=0 time=0.011904750000000002
EXTRACT: note_on channel=9 note=27 velocity=92 time=0.027777750000000004
EXTRACT: note_on channel=9 note=36 velocity=112 time=0
EXTRACT: note_on channel=9 note=42 velocity=108 time=0
EXTRACT: note_on channel=9 note=56 velocity=81 time=0
EXTRACT: note_on channel=1 note=37 velocity=90 time=0
EXTRACT: note_on channel=10 note=56 velocity=77 time=0
EXTRACT: note_on channel=10 note=61 velocity=51 time=0
EXTRACT: note_on channel=10 note=64 velocity=62 time=0
EXTRACT: note_on channel=10 note=68 velocity=74 time=0
EXTRACT: note_on channel=10 note=73 velocity=62 time=0
EXTRACT: note_on channel=10 note=76 velocity=73 time=0
EXTRACT: note_on channel=10 note=85 velocity=63 time=0
EXTRACT: note_on channel=7 note=56 velocity=87 time=0
EXTRACT: note_on channel=9 note=36 velocity=126 time=0
EXTRACT: note_on channel=9 note=35 velocity=117 time=0
EXTRACT: note_on channel=9 note=44 velocity=81 time=0
EXTRACT: note_on channel=9 note=82 velocity=69 time=0
EXTRACT: note_on channel=9 note=56 velocity=87 time=0
EXTRACT: note_on channel=9 note=60 velocity=63 time=0
EXTRACT: note_on channel=9 note=60 velocity=0 time=0.001984125
EXTRACT: note_on channel=9 note=35 velocity=0 time=0
EXTRACT: note_on channel=9 note=44 velocity=0 time=0
EXTRACT: note_on channel=9 note=36 velocity=0 time=0
EXTRACT: note_on channel=9 note=56 velocity=0 time=0
EXTRACT: note_on channel=9 note=82 velocity=0 time=0
EXTRACT: note_on channel=9 note=36 velocity=0 time=0.077380875
EXTRACT: note_on channel=9 note=27 velocity=0 time=0.005952375000000001
EXTRACT: note_on channel=5 note=61 velocity=56 time=0.04365075
EXTRACT: note_on channel=5 note=64 velocity=94 time=0
EXTRACT: note_on channel=5 note=68 velocity=85 time=0
EXTRACT: note_on channel=6 note=61 velocity=34 time=0
EXTRACT: note_on channel=6 note=64 velocity=72 time=0
EXTRACT: note_on channel=6 note=68 velocity=63 time=0
EXTRACT: note_on channel=9 note=82 velocity=43 time=0.011904750000000002
EXTRACT: note_on channel=9 note=82 velocity=0 time=0.001984125
EXTRACT: note_on channel=5 note=61 velocity=0 time=0.017857125
EXTRACT: note_on channel=5 note=64 velocity=0 time=0.021825375
EXTRACT: note_on channel=5 note=68 velocity=0 time=0.009920625
EXTRACT: note_on channel=9 note=70 velocity=105 time=0.037698375000000006
EXTRACT: note_on channel=9 note=70 velocity=0 time=0.001984125
EXTRACT: note_on channel=9 note=42 velocity=0 time=0.001984125
EXTRACT: note_on channel=9 note=27 velocity=91 time=0.00396825
EXTRACT: note_on channel=9 note=44 velocity=87 time=0
EXTRACT: note_on channel=9 note=66 velocity=84 time=0
EXTRACT: note_on channel=9 note=67 velocity=62 time=0
EXTRACT: note_on channel=3 note=73 velocity=90 time=0
EXTRACT: note_on channel=7 note=61 velocity=55 time=0
EXTRACT: note_on channel=7 note=64 velocity=70 time=0
EXTRACT: note_on channel=9 note=42 velocity=73 time=0
EXTRACT: note_on channel=9 note=82 velocity=48 time=0
EXTRACT: note_on channel=9 note=82 velocity=0 time=0.001984125
EXTRACT: note_on channel=9 note=42 velocity=0 time=0
EXTRACT: note_on channel=9 note=67 velocity=0 time=0.037698375000000006
EXTRACT: note_on channel=9 note=44 velocity=0 time=0.013888875000000002
EXTRACT: note_on channel=6 note=68 velocity=0 time=0.009920625
EXTRACT: note_on channel=6 note=64 velocity=0 time=0
EXTRACT: note_on channel=6 note=61 velocity=0 time=0
EXTRACT: note_on channel=7 note=64 velocity=0 time=0
EXTRACT: note_on channel=7 note=61 velocity=0 time=0
EXTRACT: note_on channel=7 note=56 velocity=0 time=0.005952375000000001
EXTRACT: note_on channel=9 note=66 velocity=0 time=0.005952375000000001
EXTRACT: note_on channel=9 note=56 velocity=0 time=0.005952375000000001
EXTRACT: note_on channel=9 note=27 velocity=0 time=0.001984125
EXTRACT: note_on channel=9 note=56 velocity=87 time=0.03571425
EXTRACT: note_on channel=9 note=56 velocity=0 time=0.001984125
EXTRACT: note_on channel=9 note=67 velocity=54 time=0.0079365
EXTRACT: note_on channel=7 note=61 velocity=64 time=0
EXTRACT: note_on channel=7 note=64 velocity=70 time=0
EXTRACT: note_on channel=9 note=44 velocity=84 time=0.009920625
EXTRACT: note_on channel=9 note=42 velocity=66 time=0.001984125
EXTRACT: note_on channel=9 note=82 velocity=40 time=0
EXTRACT: note_on channel=9 note=82 velocity=0 time=0.001984125
EXTRACT: note_on channel=9 note=42 velocity=0 time=0
EXTRACT: note_on channel=7 note=64 velocity=0 time=0.05158725000000001
EXTRACT: note_on channel=9 note=44 velocity=0 time=0.009920625
EXTRACT: note_on channel=9 note=67 velocity=0 time=0
EXTRACT: note_on channel=7 note=61 velocity=0 time=0.0079365
EXTRACT: note_on channel=1 note=37 velocity=0 time=0.011904750000000002
EXTRACT: note_on channel=3 note=73 velocity=0 time=0.009920625
EXTRACT: note_on channel=9 note=32 velocity=92 time=0.00396825
EXTRACT: note_on channel=9 note=36 velocity=112 time=0
EXTRACT: note_on channel=9 note=39 velocity=113 time=0
EXTRACT: note_on channel=9 note=42 velocity=108 time=0
EXTRACT: note_on channel=9 note=56 velocity=84 time=0
EXTRACT: note_on channel=9 note=65 velocity=82 time=0
EXTRACT: note_on channel=1 note=35 velocity=83 time=0
EXTRACT: note_on channel=3 note=71 velocity=92 time=0
EXTRACT: note_on channel=5 note=61 velocity=78 time=0
EXTRACT: note_on channel=5 note=64 velocity=88 time=0
EXTRACT: note_on channel=5 note=68 velocity=88 time=0
EXTRACT: note_on channel=6 note=61 velocity=56 time=0
EXTRACT: note_on channel=6 note=64 velocity=66 time=0
EXTRACT: note_on channel=6 note=68 velocity=66 time=0
EXTRACT: note_on channel=7 note=56 velocity=86 time=0
EXTRACT: note_on channel=9 note=39 velocity=121 time=0
EXTRACT: note_on channel=9 note=40 velocity=117 time=0
EXTRACT: note_on channel=9 note=36 velocity=126 time=0
EXTRACT: note_on channel=9 note=35 velocity=117 time=0
EXTRACT: note_on channel=9 note=44 velocity=81 time=0
EXTRACT: note_on channel=9 note=82 velocity=69 time=0
EXTRACT: note_on channel=9 note=82 velocity=0 time=0.001984125
EXTRACT: note_on channel=9 note=40 velocity=0 time=0
EXTRACT: note_on channel=9 note=36 velocity=0 time=0
EXTRACT: note_on channel=9 note=39 velocity=0 time=0
EXTRACT: note_on channel=9 note=44 velocity=0 time=0
EXTRACT: note_on channel=9 note=35 velocity=0 time=0
EXTRACT: note_on channel=9 note=65 velocity=0 time=0.03373012500000001
EXTRACT: note_on channel=9 note=32 velocity=0 time=0.029761875000000004
EXTRACT: note_on channel=9 note=36 velocity=0 time=0.009920625
EXTRACT: note_on channel=9 note=39 velocity=0 time=0.0079365
EXTRACT: note_on channel=1 note=35 velocity=0 time=0.10912687500000001
EXTRACT: note_on channel=3 note=71 velocity=0 time=0.01984125
EXTRACT: note_on channel=9 note=42 velocity=0 time=0.001984125
EXTRACT: note_on channel=10 note=76 velocity=0 time=0.0079365
EXTRACT: note_on channel=9 note=70 velocity=105 time=0.009920625
EXTRACT: note_on channel=9 note=70 velocity=0 time=0.001984125
EXTRACT: note_on channel=9 note=32 velocity=79 time=0.00396825
EXTRACT: note_on channel=9 note=44 velocity=90 time=0
EXTRACT: note_on channel=9 note=65 velocity=77 time=0
EXTRACT: note_on channel=9 note=68 velocity=62 time=0
EXTRACT: note_on channel=1 note=36 velocity=92 time=0
EXTRACT: note_on channel=3 note=73 velocity=83 time=0
EXTRACT: note_on channel=7 note=61 velocity=67 time=0
EXTRACT: note_on channel=7 note=64 velocity=76 time=0
EXTRACT: note_on channel=9 note=42 velocity=73 time=0
EXTRACT: note_on channel=9 note=69 velocity=78 time=0
EXTRACT: note_on channel=9 note=56 velocity=87 time=0
EXTRACT: note_on channel=10 note=85 velocity=0 time=0.001984125
EXTRACT: note_on channel=9 note=56 velocity=0 time=0
EXTRACT: note_on channel=9 note=69 velocity=0 time=0
EXTRACT: note_on channel=9 note=42 velocity=0 time=0
EXTRACT: note_on channel=9 note=65 velocity=0 time=0.027777750000000004
EXTRACT: note_on channel=7 note=56 velocity=0 time=0.005952375000000001
EXTRACT: note_on channel=10 note=68 velocity=0 time=0.00396825
EXTRACT: note_on channel=5 note=64 velocity=0 time=0
EXTRACT: note_on channel=5 note=61 velocity=0 time=0
EXTRACT: note_on channel=6 note=64 velocity=0 time=0
EXTRACT: note_on channel=6 note=61 velocity=0 time=0
EXTRACT: note_on channel=9 note=68 velocity=0 time=0.009920625
EXTRACT: note_on channel=10 note=73 velocity=0 time=0.001984125
EXTRACT: note_on channel=5 note=68 velocity=0 time=0.001984125
EXTRACT: note_on channel=6 note=68 velocity=0 time=0
EXTRACT: note_on channel=9 note=44 velocity=0 time=0.001984125
EXTRACT: note_on channel=9 note=32 velocity=0 time=0.00396825
EXTRACT: note_on channel=7 note=64 velocity=0 time=0.005952375000000001
EXTRACT: note_on channel=7 note=61 velocity=0 time=0
EXTRACT: note_on channel=9 note=56 velocity=0 time=0.03373012500000001
EXTRACT: note_on channel=3 note=73 velocity=0 time=0.013888875000000002
EXTRACT: note_on channel=9 note=32 velocity=74 time=0.015873
EXTRACT: note_on channel=9 note=65 velocity=79 time=0
EXTRACT: note_on channel=9 note=68 velocity=61 time=0
EXTRACT: note_on channel=7 note=61 velocity=74 time=0
EXTRACT: note_on channel=7 note=64 velocity=80 time=0
EXTRACT: note_on channel=9 note=44 velocity=71 time=0.009920625
EXTRACT: note_on channel=9 note=42 velocity=66 time=0.001984125
EXTRACT: note_on channel=9 note=69 velocity=73 time=0
EXTRACT: note_on channel=9 note=69 velocity=0 time=0.001984125
EXTRACT: note_on channel=9 note=42 velocity=0 time=0
EXTRACT: note_on channel=10 note=56 velocity=0 time=0.027777750000000004
EXTRACT: note_on channel=10 note=61 velocity=0 time=0.00396825
EXTRACT: note_on channel=10 note=64 velocity=0 time=0.00396825
EXTRACT: note_on channel=9 note=65 velocity=0 time=0.001984125
EXTRACT: note_on channel=9 note=68 velocity=0 time=0.011904750000000002
EXTRACT: note_on channel=9 note=32 velocity=0 time=0.001984125
EXTRACT: note_on channel=7 note=64 velocity=0 time=0.00396825
EXTRACT: note_on channel=9 note=44 velocity=0 time=0.005952375000000001
EXTRACT: note_on channel=7 note=61 velocity=0 time=0.00396825
EXTRACT: note_on channel=1 note=36 velocity=0 time=0.013888875000000002
EXTRACT: note_on channel=9 note=36 velocity=78 time=0.015873
EXTRACT: note_on channel=9 note=49 velocity=92 time=0
EXTRACT: note_on channel=9 note=57 velocity=79 time=0
EXTRACT: note_on channel=1 note=33 velocity=85 time=0
EXTRACT: note_on channel=10 note=52 velocity=79 time=0
EXTRACT: note_on channel=10 note=57 velocity=51 time=0
EXTRACT: note_on channel=10 note=61 velocity=61 time=0
EXTRACT: note_on channel=10 note=69 velocity=80 time=0
EXTRACT: note_on channel=10 note=73 velocity=61 time=0
EXTRACT: note_on channel=10 note=76 velocity=79 time=0
EXTRACT: note_on channel=5 note=61 velocity=84 time=0
EXTRACT: note_on channel=5 note=64 velocity=83 time=0
EXTRACT: note_on channel=5 note=69 velocity=78 time=0
EXTRACT: note_on channel=6 note=61 velocity=62 time=0
EXTRACT: note_on channel=6 note=64 velocity=61 time=0
EXTRACT: note_on channel=6 note=69 velocity=56 time=0
EXTRACT: note_on channel=7 note=52 velocity=91 time=0
EXTRACT: note_on channel=9 note=36 velocity=126 time=0
EXTRACT: note_on channel=9 note=35 velocity=117 time=0
EXTRACT: note_on channel=9 note=35 velocity=0 time=0.001984125
EXTRACT: note_on channel=9 note=36 velocity=0 time=0
EXTRACT: note_on channel=5 note=64 velocity=0 time=0.05158725000000001
EXTRACT: note_on channel=5 note=69 velocity=0 time=0.015873
EXTRACT: note_on channel=5 note=61 velocity=0 time=0
EXTRACT: note_on channel=7 note=52 velocity=0 time=0.03373012500000001
EXTRACT: note_on channel=9 note=69 velocity=84 time=0.037698375000000006
EXTRACT: note_on channel=9 note=69 velocity=0 time=0.001984125
EXTRACT: note_on channel=1 note=33 velocity=0 time=0.017857125
EXTRACT: note_on channel=6 note=69 velocity=0 time=0.011904750000000002
EXTRACT: note_on channel=6 note=64 velocity=0 time=0
EXTRACT: note_on channel=6 note=61 velocity=0 time=0
EXTRACT: note_on channel=9 note=70 velocity=105 time=0.061507875000000004
EXTRACT: note_on channel=1 note=33 velocity=80 time=0.00396825
EXTRACT: note_on channel=3 note=73 velocity=87 time=0
EXTRACT: note_on channel=7 note=57 velocity=51 time=0
EXTRACT: note_on channel=7 note=61 velocity=56 time=0
EXTRACT: note_on channel=9 note=70 velocity=0 time=0
EXTRACT: note_on channel=9 note=42 velocity=73 time=0
EXTRACT: note_on channel=9 note=62 velocity=79 time=0
EXTRACT: note_on channel=9 note=62 velocity=0 time=0.001984125
EXTRACT: note_on channel=9 note=42 velocity=0 time=0
EXTRACT: note_on channel=9 note=49 velocity=0 time=0.001984125
EXTRACT: note_on channel=9 note=57 velocity=0 time=0.011904750000000002
EXTRACT: note_on channel=9 note=36 velocity=0 time=0.04365075
EXTRACT: note_on channel=7 note=61 velocity=0 time=0.00396825
EXTRACT: note_on channel=7 note=57 velocity=0 time=0
EXTRACT: note_on channel=9 note=61 velocity=69 time=0.05555550000000001
EXTRACT: note_on channel=9 note=61 velocity=0 time=0.001984125
EXTRACT: note_on channel=5 note=61 velocity=74 time=0.0079365
EXTRACT: note_on channel=5 note=64 velocity=83 time=0
EXTRACT: note_on channel=5 note=69 velocity=87 time=0
EXTRACT: note_on channel=6 note=61 velocity=52 time=0
EXTRACT: note_on channel=6 note=64 velocity=61 time=0
EXTRACT: note_on channel=6 note=69 velocity=65 time=0
EXTRACT: note_on channel=7 note=57 velocity=75 time=0
EXTRACT: note_on channel=7 note=61 velocity=60 time=0
EXTRACT: note_on channel=9 note=42 velocity=66 time=0.011904750000000002
EXTRACT: note_on channel=9 note=69 velocity=68 time=0
EXTRACT: note_on channel=9 note=69 velocity=0 time=0.001984125
EXTRACT: note_on channel=9 note=42 velocity=0 time=0
EXTRACT: note_on channel=5 note=64 velocity=0 time=0.049603125000000005
EXTRACT: note_on channel=7 note=57 velocity=0 time=0
EXTRACT: note_on channel=5 note=61 velocity=0 time=0.005952375000000001
EXTRACT: note_on channel=5 note=69 velocity=0 time=0.011904750000000002
EXTRACT: note_on channel=1 note=33 velocity=0 time=0.001984125
EXTRACT: note_on channel=7 note=61 velocity=0 time=0.015873
EXTRACT: note_on channel=1 note=37 velocity=78 time=0.009920625
EXTRACT: note_on channel=3 note=71 velocity=91 time=0
EXTRACT: note_on channel=7 note=52 velocity=95 time=0
EXTRACT: note_on channel=9 note=39 velocity=121 time=0
EXTRACT: note_on channel=9 note=36 velocity=126 time=0
EXTRACT: note_on channel=9 note=35 velocity=117 time=0
EXTRACT: note_on channel=9 note=40 velocity=117 time=0
EXTRACT: note_on channel=9 note=44 velocity=81 time=0
EXTRACT: note_on channel=9 note=44 velocity=0 time=0.001984125
EXTRACT: note_on channel=9 note=35 velocity=0 time=0
EXTRACT: note_on channel=9 note=39 velocity=0 time=0
EXTRACT: note_on channel=9 note=36 velocity=0 time=0
EXTRACT: note_on channel=9 note=40 velocity=0 time=0
EXTRACT: note_on channel=3 note=73 velocity=0 time=0.0396825
EXTRACT: note_on channel=6 note=69 velocity=0 time=0.021825375
EXTRACT: note_on channel=6 note=64 velocity=0 time=0
EXTRACT: note_on channel=6 note=61 velocity=0 time=0
EXTRACT: note_on channel=9 note=62 velocity=73 time=0.05555550000000001
EXTRACT: note_on channel=9 note=62 velocity=0 time=0.001984125
EXTRACT: note_on channel=7 note=52 velocity=0 time=0.053571375000000004
EXTRACT: note_on channel=1 note=37 velocity=0 time=0.0396825
EXTRACT: note_on channel=3 note=71 velocity=0 time=0.005952375000000001
EXTRACT: note_on channel=1 note=40 velocity=90 time=0.017857125
EXTRACT: note_on channel=3 note=69 velocity=90 time=0
EXTRACT: note_on channel=5 note=61 velocity=81 time=0
EXTRACT: note_on channel=5 note=64 velocity=87 time=0
EXTRACT: note_on channel=5 note=69 velocity=92 time=0
EXTRACT: note_on channel=6 note=61 velocity=59 time=0
EXTRACT: note_on channel=6 note=64 velocity=65 time=0
EXTRACT: note_on channel=6 note=69 velocity=70 time=0
EXTRACT: note_on channel=7 note=57 velocity=62 time=0
EXTRACT: note_on channel=7 note=61 velocity=65 time=0
EXTRACT: note_on channel=9 note=42 velocity=73 time=0
EXTRACT: note_on channel=9 note=61 velocity=66 time=0
EXTRACT: note_on channel=9 note=61 velocity=0 time=0.001984125
EXTRACT: note_on channel=9 note=42 velocity=0 time=0
EXTRACT: note_on channel=9 note=70 velocity=105 time=0.001984125
EXTRACT: note_on channel=9 note=70 velocity=0 time=0.001984125
EXTRACT: note_on channel=5 note=61 velocity=0 time=0.057539625000000004
EXTRACT: note_on channel=7 note=57 velocity=0 time=0
EXTRACT: note_on channel=5 note=64 velocity=0 time=0.005952375000000001
EXTRACT: note_on channel=3 note=69 velocity=0 time=0.001984125
EXTRACT: note_on channel=7 note=61 velocity=0 time=0
EXTRACT: note_on channel=5 note=69 velocity=0 time=0.0079365
EXTRACT: note_on channel=10 note=57 velocity=0 time=0.001984125
EXTRACT: note_on channel=10 note=52 velocity=0 time=0.023809500000000004
EXTRACT: note_on channel=10 note=73 velocity=0 time=0.00396825
EXTRACT: note_on channel=10 note=69 velocity=0 time=0.005952375000000001
EXTRACT: note_on channel=10 note=76 velocity=0 time=0.00396825
EXTRACT: note_on channel=7 note=57 velocity=69 time=0.009920625
EXTRACT: note_on channel=7 note=61 velocity=68 time=0
EXTRACT: note_on channel=10 note=61 velocity=0 time=0.00396825
EXTRACT: note_on channel=9 note=42 velocity=66 time=0.0079365
EXTRACT: note_on channel=9 note=82 velocity=48 time=0
EXTRACT: note_on channel=9 note=82 velocity=0 time=0.001984125
EXTRACT: note_on channel=9 note=42 velocity=0 time=0
EXTRACT: note_on channel=6 note=69 velocity=0 time=0.029761875000000004
EXTRACT: note_on channel=6 note=64 velocity=0 time=0
EXTRACT: note_on channel=6 note=61 velocity=0 time=0
EXTRACT: note_on channel=7 note=57 velocity=0 time=0.01984125
EXTRACT: note_on channel=7 note=61 velocity=0 time=0.015873
EXTRACT: note_on channel=1 note=40 velocity=0 time=0.025793625000000004
EXTRACT: note_on channel=1 note=35 velocity=85 time=0.00396825
EXTRACT: note_on channel=10 note=54 velocity=67 time=0
EXTRACT: note_on channel=10 note=59 velocity=64 time=0
EXTRACT: note_on channel=10 note=66 velocity=61 time=0
EXTRACT: note_on channel=10 note=71 velocity=69 time=0
EXTRACT: note_on channel=10 note=75 velocity=52 time=0
EXTRACT: note_on channel=10 note=78 velocity=67 time=0
EXTRACT: note_on channel=3 note=73 velocity=83 time=0
EXTRACT: note_on channel=7 note=54 velocity=87 time=0
EXTRACT: note_on channel=9 note=36 velocity=126 time=0
EXTRACT: note_on channel=9 note=35 velocity=117 time=0
EXTRACT: note_on channel=9 note=44 velocity=81 time=0
EXTRACT: note_on channel=9 note=82 velocity=55 time=0
EXTRACT: note_on channel=9 note=56 velocity=80 time=0
EXTRACT: note_on channel=9 note=56 velocity=0 time=0.001984125
EXTRACT: note_on channel=9 note=44 velocity=0 time=0
EXTRACT: note_on channel=9 note=36 velocity=0 time=0
EXTRACT: note_on channel=9 note=35 velocity=0 time=0
EXTRACT: note_on channel=9 note=82 velocity=0 time=0
EXTRACT: note_on channel=5 note=59 velocity=75 time=0.126984
EXTRACT: note_on channel=5 note=64 velocity=82 time=0
EXTRACT: note_on channel=5 note=66 velocity=76 time=0
EXTRACT: note_on channel=6 note=59 velocity=53 time=0
EXTRACT: note_on channel=6 note=64 velocity=60 time=0
EXTRACT: note_on channel=6 note=66 velocity=54 time=0
EXTRACT: note_on channel=9 note=82 velocity=63 time=0.011904750000000002
EXTRACT: note_on channel=9 note=82 velocity=0 time=0.001984125
EXTRACT: note_on channel=5 note=59 velocity=0 time=0.021825375
EXTRACT: note_on channel=5 note=64 velocity=0 time=0.023809500000000004
EXTRACT: note_on channel=5 note=66 velocity=0 time=0.021825375
EXTRACT: note_on channel=7 note=54 velocity=0 time=0.013888875000000002
EXTRACT: note_on channel=3 note=71 velocity=89 time=0.013888875000000002
EXTRACT: note_on channel=7 note=57 velocity=60 time=0
EXTRACT: note_on channel=7 note=59 velocity=68 time=0
EXTRACT: note_on channel=9 note=42 velocity=73 time=0
EXTRACT: note_on channel=9 note=82 velocity=59 time=0
EXTRACT: note_on channel=9 note=63 velocity=60 time=0
EXTRACT: note_on channel=9 note=63 velocity=0 time=0.001984125
EXTRACT: note_on channel=9 note=82 velocity=0 time=0
EXTRACT: note_on channel=9 note=42 velocity=0 time=0
EXTRACT: note_on channel=3 note=73 velocity=0 time=0.001984125
EXTRACT: note_on channel=9 note=70 velocity=105 time=0
EXTRACT: note_on channel=9 note=70 velocity=0 time=0.001984125
EXTRACT: note_on channel=6 note=66 velocity=0 time=0.057539625000000004
EXTRACT: note_on channel=6 note=64 velocity=0 time=0
EXTRACT: note_on channel=6 note=59 velocity=0 time=0
EXTRACT: note_on channel=7 note=59 velocity=0 time=0
EXTRACT: note_on channel=7 note=57 velocity=0 time=0
EXTRACT: note_on channel=9 note=56 velocity=89 time=0.05555550000000001
EXTRACT: note_on channel=9 note=56 velocity=0 time=0.001984125
EXTRACT: note_on channel=7 note=57 velocity=64 time=0.0079365
EXTRACT: note_on channel=7 note=59 velocity=67 time=0
EXTRACT: note_on channel=9 note=42 velocity=66 time=0.011904750000000002
EXTRACT: note_on channel=9 note=82 velocity=45 time=0
EXTRACT: note_on channel=9 note=82 velocity=0 time=0.001984125
EXTRACT: note_on channel=9 note=42 velocity=0 time=0
EXTRACT: note_on channel=7 note=59 velocity=0 time=0.057539625000000004
EXTRACT: note_on channel=7 note=57 velocity=0 time=0
EXTRACT: note_on channel=1 note=35 velocity=0 time=0.017857125
EXTRACT: note_on channel=1 note=39 velocity=86 time=0.01984125
EXTRACT: note_on channel=5 note=59 velocity=77 time=0
EXTRACT: note_on channel=5 note=64 velocity=84 time=0
EXTRACT: note_on channel=5 note=66 velocity=76 time=0
EXTRACT: note_on channel=6 note=59 velocity=55 time=0
EXTRACT: note_on channel=6 note=64 velocity=62 time=0
EXTRACT: note_on channel=6 note=66 velocity=54 time=0
EXTRACT: note_on channel=7 note=54 velocity=86 time=0
EXTRACT: note_on channel=9 note=36 velocity=126 time=0
EXTRACT: note_on channel=9 note=35 velocity=117 time=0
EXTRACT: note_on channel=9 note=39 velocity=121 time=0
EXTRACT: note_on channel=9 note=40 velocity=117 time=0
EXTRACT: note_on channel=9 note=44 velocity=81 time=0
EXTRACT: note_on channel=9 note=82 velocity=60 time=0
EXTRACT: note_on channel=9 note=82 velocity=0 time=0.001984125
EXTRACT: note_on channel=9 note=35 velocity=0 time=0
EXTRACT: note_on channel=9 note=39 velocity=0 time=0
EXTRACT: note_on channel=9 note=36 velocity=0 time=0
EXTRACT: note_on channel=9 note=44 velocity=0 time=0
EXTRACT: note_on channel=9 note=40 velocity=0 time=0
EXTRACT: note_on channel=5 note=59 velocity=0 time=0.029761875000000004
EXTRACT: note_on channel=5 note=64 velocity=0 time=0.037698375000000006
EXTRACT: note_on channel=5 note=66 velocity=0 time=0.015873
EXTRACT: note_on channel=6 note=66 velocity=0 time=0.0873015
EXTRACT: note_on channel=6 note=64 velocity=0 time=0
EXTRACT: note_on channel=6 note=59 velocity=0 time=0
EXTRACT: note_on channel=7 note=54 velocity=0 time=0.0079365
EXTRACT: note_on channel=3 note=71 velocity=0 time=0.023809500000000004
EXTRACT: note_on channel=1 note=39 velocity=0 time=0.023809500000000004
EXTRACT: note_on channel=9 note=70 velocity=105 time=0.00396825
EXTRACT: note_on channel=9 note=70 velocity=0 time=0.001984125
EXTRACT: note_on channel=1 note=42 velocity=86 time=0.00396825
EXTRACT: note_on channel=3 note=68 velocity=84 time=0
EXTRACT: note_on channel=5 note=59 velocity=82 time=0
EXTRACT: note_on channel=5 note=63 velocity=83 time=0
EXTRACT: note_on channel=5 note=66 velocity=84 time=0
EXTRACT: note_on channel=6 note=59 velocity=60 time=0
EXTRACT: note_on channel=6 note=63 velocity=61 time=0
EXTRACT: note_on channel=6 note=66 velocity=62 time=0
EXTRACT: note_on channel=7 note=57 velocity=61 time=0
EXTRACT: note_on channel=7 note=59 velocity=67 time=0
EXTRACT: note_on channel=9 note=42 velocity=75 time=0
EXTRACT: note_on channel=9 note=69 velocity=87 time=0
EXTRACT: note_on channel=9 note=56 velocity=87 time=0
EXTRACT: note_on channel=9 note=56 velocity=0 time=0.001984125
EXTRACT: note_on channel=9 note=69 velocity=0 time=0
EXTRACT: note_on channel=9 note=42 velocity=0 time=0
EXTRACT: note_on channel=5 note=59 velocity=0 time=0.0396825
EXTRACT: note_on channel=5 note=63 velocity=0 time=0.011904750000000002
EXTRACT: note_on channel=7 note=59 velocity=0 time=0.009920625
EXTRACT: note_on channel=7 note=57 velocity=0 time=0
EXTRACT: note_on channel=10 note=71 velocity=0 time=0.001984125
EXTRACT: note_on channel=5 note=66 velocity=0 time=0.009920625
EXTRACT: note_on channel=10 note=66 velocity=0 time=0.015873
EXTRACT: note_on channel=10 note=75 velocity=0 time=0.021825375
EXTRACT: note_on channel=9 note=62 velocity=64 time=0.005952375000000001
EXTRACT: note_on channel=9 note=62 velocity=0 time=0.001984125
EXTRACT: note_on channel=7 note=57 velocity=71 time=0.0079365
EXTRACT: note_on channel=7 note=59 velocity=67 time=0
EXTRACT: note_on channel=10 note=78 velocity=0 time=0.005952375000000001
EXTRACT: note_on channel=9 note=42 velocity=66 time=0.005952375000000001
EXTRACT: note_on channel=9 note=69 velocity=69 time=0
EXTRACT: note_on channel=9 note=69 velocity=0 time=0.001984125
EXTRACT: note_on channel=9 note=42 velocity=0 time=0
EXTRACT: note_on channel=10 note=54 velocity=0 time=0.009920625
EXTRACT: note_on channel=10 note=59 velocity=0 time=0.017857125
EXTRACT: note_on channel=6 note=66 velocity=0 time=0.001984125
EXTRACT: note_on channel=6 note=63 velocity=0 time=0
EXTRACT: note_on channel=6 note=59 velocity=0 time=0
EXTRACT: note_on channel=7 note=57 velocity=0 time=0.01984125
EXTRACT: note_on channel=1 note=42 velocity=0 time=0.009920625
EXTRACT: note_on channel=7 note=59 velocity=0 time=0.001984125
EXTRACT: note_on channel=10 note=56 velocity=74 time=0.03373012500000001
EXTRACT: note_on channel=10 note=59 velocity=38 time=0
EXTRACT: note_on channel=10 note=63 velocity=72 time=0
EXTRACT: note_on channel=10 note=68 velocity=67 time=0
EXTRACT: note_on channel=10 note=71 velocity=71 time=0
EXTRACT: note_on channel=10 note=75 velocity=60 time=0
EXTRACT: note_on channel=10 note=80 velocity=66 time=0
EXTRACT: note_on channel=5 note=59 velocity=80 time=0
EXTRACT: note_on channel=5 note=63 velocity=97 time=0
EXTRACT: note_on channel=5 note=68 velocity=88 time=0
EXTRACT: note_on channel=6 note=59 velocity=58 time=0
EXTRACT: note_on channel=6 note=63 velocity=75 time=0
EXTRACT: note_on channel=6 note=68 velocity=66 time=0
EXTRACT: note_on channel=7 note=56 velocity=88 time=0
EXTRACT: note_on channel=5 note=59 velocity=0 time=0.049603125000000005
EXTRACT: note_on channel=5 note=63 velocity=0 time=0.009920625
EXTRACT: note_on channel=5 note=68 velocity=0 time=0.031746
EXTRACT: note_on channel=6 note=68 velocity=0 time=0.08134912500000001
EXTRACT: note_on channel=6 note=63 velocity=0 time=0
EXTRACT: note_on channel=6 note=59 velocity=0 time=0
EXTRACT: note_on channel=7 note=56 velocity=0 time=0.009920625
EXTRACT: note_on channel=1 note=32 velocity=88 time=0.05555550000000001
EXTRACT: note_on channel=7 note=59 velocity=71 time=0
EXTRACT: note_on channel=7 note=63 velocity=70 time=0
EXTRACT: note_on channel=7 note=63 velocity=0 time=0.063492
EXTRACT: note_on channel=7 note=59 velocity=0 time=0
EXTRACT: note_on channel=5 note=59 velocity=81 time=0.06547612500000001
EXTRACT: note_on channel=5 note=63 velocity=92 time=0
EXTRACT: note_on channel=5 note=68 velocity=87 time=0
EXTRACT: note_on channel=6 note=59 velocity=59 time=0
EXTRACT: note_on channel=6 note=63 velocity=70 time=0
EXTRACT: note_on channel=6 note=68 velocity=65 time=0
EXTRACT: note_on channel=7 note=59 velocity=69 time=0
EXTRACT: note_on channel=7 note=63 velocity=78 time=0
EXTRACT: note_on channel=5 note=59 velocity=0 time=0.03571425
EXTRACT: note_on channel=5 note=63 velocity=0 time=0.015873
EXTRACT: note_on channel=7 note=59 velocity=0 time=0.011904750000000002
EXTRACT: note_on channel=7 note=63 velocity=0 time=0.011904750000000002
EXTRACT: note_on channel=5 note=68 velocity=0 time=0.005952375000000001
EXTRACT: note_on channel=1 note=35 velocity=79 time=0.027777750000000004
EXTRACT: note_on channel=4 note=75 velocity=97 time=0
EXTRACT: note_on channel=7 note=56 velocity=81 time=0
EXTRACT: note_on channel=1 note=32 velocity=0 time=0.021825375
EXTRACT: note_on channel=6 note=68 velocity=0 time=0.041666625000000006
EXTRACT: note_on channel=6 note=63 velocity=0 time=0
EXTRACT: note_on channel=6 note=59 velocity=0 time=0
EXTRACT: note_on channel=7 note=56 velocity=0 time=0.14682525000000002
EXTRACT: note_on channel=1 note=35 velocity=0 time=0.011904750000000002
EXTRACT: note_on channel=1 note=39 velocity=95 time=0.015873
EXTRACT: note_on channel=4 note=68 velocity=81 time=0
EXTRACT: note_on channel=5 note=59 velocity=84 time=0
EXTRACT: note_on channel=5 note=63 velocity=97 time=0
EXTRACT: note_on channel=5 note=68 velocity=92 time=0
EXTRACT: note_on channel=6 note=59 velocity=62 time=0
EXTRACT: note_on channel=6 note=63 velocity=75 time=0
EXTRACT: note_on channel=6 note=68 velocity=70 time=0
EXTRACT: note_on channel=7 note=59 velocity=68 time=0
EXTRACT: note_on channel=7 note=63 velocity=77 time=0
EXTRACT: note_on channel=4 note=75 velocity=0 time=0.005952375000000001
EXTRACT: note_on channel=5 note=59 velocity=0 time=0.023809500000000004
EXTRACT: note_on channel=5 note=63 velocity=0 time=0.01984125
EXTRACT: note_on channel=7 note=63 velocity=0 time=0.013888875000000002
EXTRACT: note_on channel=7 note=59 velocity=0 time=0
EXTRACT: note_on channel=10 note=75 velocity=0 time=0.0079365
EXTRACT: note_on channel=3 note=68 velocity=0 time=0
EXTRACT: note_on channel=10 note=80 velocity=0 time=0.0079365
EXTRACT: note_on channel=5 note=68 velocity=0 time=0.005952375000000001
EXTRACT: note_on channel=10 note=63 velocity=0 time=0.009920625
EXTRACT: note_on channel=10 note=56 velocity=0 time=0.005952375000000001
EXTRACT: note_on channel=10 note=71 velocity=0 time=0.0079365
EXTRACT: note_on channel=10 note=68 velocity=0 time=0.001984125
EXTRACT: note_on channel=10 note=59 velocity=0 time=0.013888875000000002
EXTRACT: note_on channel=7 note=59 velocity=74 time=0.00396825
EXTRACT: note_on channel=7 note=63 velocity=73 time=0
EXTRACT: note_on channel=4 note=68 velocity=0 time=0.0396825
EXTRACT: note_on channel=6 note=68 velocity=0 time=0.00396825
EXTRACT: note_on channel=6 note=63 velocity=0 time=0
EXTRACT: note_on channel=6 note=59 velocity=0 time=0
EXTRACT: note_on channel=1 note=39 velocity=0 time=0.011904750000000002
EXTRACT: note_on channel=7 note=59 velocity=0 time=0.0079365
EXTRACT: note_on channel=7 note=63 velocity=0 time=0.009920625
EXTRACT: note_on channel=1 note=37 velocity=90 time=0.03571425
EXTRACT: note_on channel=10 note=56 velocity=75 time=0
EXTRACT: note_on channel=10 note=61 velocity=48 time=0
EXTRACT: note_on channel=10 note=64 velocity=60 time=0
EXTRACT: note_on channel=10 note=68 velocity=73 time=0
EXTRACT: note_on channel=10 note=73 velocity=58 time=0
EXTRACT: note_on channel=10 note=76 velocity=68 time=0
EXTRACT: note_on channel=10 note=80 velocity=64 time=0
EXTRACT: note_on channel=4 note=71 velocity=85 time=0
EXTRACT: note_on channel=7 note=56 velocity=84 time=0
EXTRACT: note_on channel=5 note=61 velocity=68 time=0.12896812500000002
EXTRACT: note_on channel=5 note=64 velocity=95 time=0
EXTRACT: note_on channel=5 note=68 velocity=84 time=0
EXTRACT: note_on channel=6 note=61 velocity=46 time=0
EXTRACT: note_on channel=6 note=64 velocity=73 time=0
EXTRACT: note_on channel=6 note=68 velocity=62 time=0
EXTRACT: note_on channel=4 note=71 velocity=0 time=0.00396825
EXTRACT: note_on channel=1 note=37 velocity=0 time=0.029761875000000004
EXTRACT: note_on channel=5 note=64 velocity=0 time=0.021825375
EXTRACT: note_on channel=5 note=61 velocity=0 time=0.013888875000000002
EXTRACT: note_on channel=5 note=68 velocity=0 time=0.001984125
EXTRACT: note_on channel=1 note=37 velocity=83 time=0.037698375000000006
EXTRACT: note_on channel=4 note=73 velocity=87 time=0
EXTRACT: note_on channel=7 note=61 velocity=54 time=0
EXTRACT: note_on channel=7 note=64 velocity=69 time=0
EXTRACT: note_on channel=7 note=56 velocity=0 time=0.05555550000000001
EXTRACT: note_on channel=6 note=68 velocity=0 time=0.0079365
EXTRACT: note_on channel=6 note=64 velocity=0 time=0
EXTRACT: note_on channel=6 note=61 velocity=0 time=0
EXTRACT: note_on channel=7 note=61 velocity=0 time=0
EXTRACT: note_on channel=7 note=64 velocity=0 time=0.0079365
EXTRACT: note_on channel=7 note=61 velocity=63 time=0.057539625000000004
EXTRACT: note_on channel=7 note=64 velocity=71 time=0
EXTRACT: note_on channel=7 note=64 velocity=0 time=0.07341262500000001
EXTRACT: note_on channel=7 note=61 velocity=0 time=0.009920625
EXTRACT: note_on channel=1 note=32 velocity=86 time=0.025793625000000004
EXTRACT: note_on channel=5 note=61 velocity=73 time=0
EXTRACT: note_on channel=5 note=64 velocity=85 time=0
EXTRACT: note_on channel=5 note=68 velocity=81 time=0
EXTRACT: note_on channel=6 note=61 velocity=51 time=0
EXTRACT: note_on channel=6 note=64 velocity=63 time=0
EXTRACT: note_on channel=6 note=68 velocity=59 time=0
EXTRACT: note_on channel=7 note=56 velocity=86 time=0
EXTRACT: note_on channel=1 note=37 velocity=0 time=0.041666625000000006
EXTRACT: note_on channel=5 note=64 velocity=0 time=0.023809500000000004
EXTRACT: note_on channel=5 note=61 velocity=0 time=0.023809500000000004
EXTRACT: note_on channel=5 note=68 velocity=0 time=0.021825375
EXTRACT: note_on channel=7 note=56 velocity=0 time=0.029761875000000004
EXTRACT: note_on channel=6 note=68 velocity=0 time=0.031746
EXTRACT: note_on channel=6 note=64 velocity=0 time=0
EXTRACT: note_on channel=6 note=61 velocity=0 time=0
EXTRACT: note_on channel=1 note=32 velocity=0 time=0.05158725000000001
EXTRACT: note_on channel=1 note=37 velocity=91 time=0.013888875000000002
EXTRACT: note_on channel=5 note=61 velocity=71 time=0
EXTRACT: note_on channel=5 note=64 velocity=84 time=0
EXTRACT: note_on channel=5 note=68 velocity=81 time=0
EXTRACT: note_on channel=6 note=61 velocity=49 time=0
EXTRACT: note_on channel=6 note=64 velocity=62 time=0
EXTRACT: note_on channel=6 note=68 velocity=59 time=0
EXTRACT: note_on channel=7 note=61 velocity=69 time=0
EXTRACT: note_on channel=7 note=64 velocity=71 time=0
EXTRACT: note_on channel=4 note=73 velocity=0 time=0.053571375000000004
EXTRACT: note_on channel=10 note=76 velocity=0 time=0.005952375000000001
EXTRACT: note_on channel=7 note=64 velocity=0 time=0.00396825
EXTRACT: note_on channel=7 note=61 velocity=0 time=0
EXTRACT: note_on channel=10 note=73 velocity=0 time=0.005952375000000001
EXTRACT: note_on channel=5 note=61 velocity=0 time=0.001984125
EXTRACT: note_on channel=5 note=64 velocity=0 time=0.001984125
EXTRACT: note_on channel=10 note=64 velocity=0 time=0.005952375000000001
EXTRACT: note_on channel=10 note=80 velocity=0 time=0.001984125
EXTRACT: note_on channel=5 note=68 velocity=0 time=0
EXTRACT: note_on channel=10 note=68 velocity=0 time=0.001984125
EXTRACT: note_on channel=10 note=61 velocity=0 time=0.03571425
EXTRACT: note_on channel=7 note=61 velocity=65 time=0.009920625
EXTRACT: note_on channel=7 note=64 velocity=71 time=0
EXTRACT: note_on channel=10 note=56 velocity=0 time=0.01984125
EXTRACT: note_on channel=6 note=68 velocity=0 time=0.023809500000000004
EXTRACT: note_on channel=6 note=64 velocity=0 time=0
EXTRACT: note_on channel=6 note=61 velocity=0 time=0
EXTRACT: note_on channel=1 note=37 velocity=0 time=0.009920625
EXTRACT: note_on channel=7 note=64 velocity=0 time=0.017857125
EXTRACT: note_on channel=7 note=61 velocity=0 time=0.00396825
EXTRACT: note_on channel=1 note=33 velocity=82 time=0.03373012500000001
EXTRACT: note_on channel=10 note=52 velocity=69 time=0
EXTRACT: note_on channel=10 note=57 velocity=54 time=0
EXTRACT: note_on channel=10 note=61 velocity=57 time=0
EXTRACT: note_on channel=10 note=69 velocity=76 time=0
EXTRACT: note_on channel=10 note=73 velocity=59 time=0
EXTRACT: note_on channel=10 note=81 velocity=66 time=0
EXTRACT: note_on channel=5 note=61 velocity=82 time=0
EXTRACT: note_on channel=5 note=64 velocity=85 time=0
EXTRACT: note_on channel=5 note=69 velocity=84 time=0
EXTRACT: note_on channel=6 note=61 velocity=60 time=0
EXTRACT: note_on channel=6 note=64 velocity=63 time=0
EXTRACT: note_on channel=6 note=69 velocity=62 time=0
EXTRACT: note_on channel=7 note=52 velocity=84 time=0
EXTRACT: note_on channel=5 note=64 velocity=0 time=0.05952375000000001
EXTRACT: note_on channel=5 note=69 velocity=0 time=0.00396825
EXTRACT: note_on channel=5 note=61 velocity=0 time=0
EXTRACT: note_on channel=7 note=52 velocity=0 time=0.0714285
EXTRACT: note_on channel=1 note=33 velocity=0 time=0.029761875000000004
EXTRACT: note_on channel=6 note=69 velocity=0 time=0.0079365
EXTRACT: note_on channel=6 note=64 velocity=0 time=0
EXTRACT: note_on channel=6 note=61 velocity=0 time=0
EXTRACT: note_on channel=1 note=33 velocity=79 time=0.06547612500000001
EXTRACT: note_on channel=7 note=57 velocity=67 time=0
EXTRACT: note_on channel=7 note=61 velocity=60 time=0
EXTRACT: note_on channel=7 note=57 velocity=0 time=0.063492
EXTRACT: note_on channel=7 note=61 velocity=0 time=0.017857125
EXTRACT: note_on channel=5 note=61 velocity=65 time=0.04761900000000001
EXTRACT: note_on channel=5 note=64 velocity=80 time=0
EXTRACT: note_on channel=5 note=69 velocity=84 time=0
EXTRACT: note_on channel=6 note=61 velocity=43 time=0
EXTRACT: note_on channel=6 note=64 velocity=58 time=0
EXTRACT: note_on channel=6 note=69 velocity=62 time=0
EXTRACT: note_on channel=7 note=57 velocity=76 time=0
EXTRACT: note_on channel=7 note=61 velocity=67 time=0
EXTRACT: note_on channel=5 note=64 velocity=0 time=0.053571375000000004
EXTRACT: note_on channel=5 note=61 velocity=0 time=0.0079365
EXTRACT: note_on channel=7 note=57 velocity=0 time=0.001984125
EXTRACT: note_on channel=5 note=69 velocity=0 time=0.015873
EXTRACT: note_on channel=1 note=33 velocity=0 time=0.005952375000000001
EXTRACT: note_on channel=7 note=61 velocity=0 time=0.00396825
EXTRACT: note_on channel=1 note=37 velocity=80 time=0.01984125
EXTRACT: note_on channel=7 note=52 velocity=92 time=0
EXTRACT: note_on channel=6 note=69 velocity=0 time=0.063492
EXTRACT: note_on channel=6 note=64 velocity=0 time=0
EXTRACT: note_on channel=6 note=61 velocity=0 time=0
EXTRACT: note_on channel=7 note=52 velocity=0 time=0.12896812500000002
EXTRACT: note_on channel=1 note=40 velocity=82 time=0.045634875000000005
EXTRACT: note_on channel=5 note=61 velocity=75 time=0
EXTRACT: note_on channel=5 note=64 velocity=84 time=0
EXTRACT: note_on channel=5 note=69 velocity=98 time=0
EXTRACT: note_on channel=6 note=61 velocity=53 time=0
EXTRACT: note_on channel=6 note=64 velocity=62 time=0
EXTRACT: note_on channel=6 note=69 velocity=76 time=0
EXTRACT: note_on channel=7 note=57 velocity=70 time=0
EXTRACT: note_on channel=7 note=61 velocity=65 time=0
EXTRACT: note_on channel=1 note=37 velocity=0 time=0.01984125
EXTRACT: note_on channel=5 note=61 velocity=0 time=0.04365075
EXTRACT: note_on channel=7 note=57 velocity=0 time=0
EXTRACT: note_on channel=5 note=64 velocity=0 time=0.001984125
EXTRACT: note_on channel=7 note=61 velocity=0 time=0.00396825
EXTRACT: note_on channel=5 note=69 velocity=0 time=0.01984125
EXTRACT: note_on channel=10 note=73 velocity=0 time=0.005952375000000001
EXTRACT: note_on channel=10 note=57 velocity=0 time=0.005952375000000001
EXTRACT: note_on channel=10 note=81 velocity=0 time=0.011904750000000002
EXTRACT: note_on channel=10 note=69 velocity=0 time=0.001984125
EXTRACT: note_on channel=10 note=52 velocity=0 time=0.013888875000000002
EXTRACT: note_on channel=7 note=57 velocity=67 time=0
EXTRACT: note_on channel=7 note=61 velocity=67 time=0
EXTRACT: note_on channel=10 note=61 velocity=0 time=0.025793625000000004
EXTRACT: note_on channel=6 note=69 velocity=0 time=0.017857125
EXTRACT: note_on channel=6 note=64 velocity=0 time=0
EXTRACT: note_on channel=6 note=61 velocity=0 time=0
EXTRACT: note_on channel=7 note=57 velocity=0 time=0.01984125
EXTRACT: note_on channel=7 note=61 velocity=0 time=0.021825375
EXTRACT: note_on channel=1 note=40 velocity=0 time=0.015873
EXTRACT: note_on channel=1 note=35 velocity=88 time=0.0079365
EXTRACT: note_on channel=10 note=54 velocity=69 time=0
EXTRACT: note_on channel=10 note=59 velocity=65 time=0
EXTRACT: note_on channel=10 note=66 velocity=64 time=0
EXTRACT: note_on channel=10 note=71 velocity=68 time=0
EXTRACT: note_on channel=10 note=75 velocity=72 time=0
EXTRACT: note_on channel=10 note=78 velocity=67 time=0
EXTRACT: note_on channel=7 note=54 velocity=83 time=0
EXTRACT: note_on channel=5 note=59 velocity=79 time=0.12896812500000002
EXTRACT: note_on channel=5 note=64 velocity=84 time=0
EXTRACT: note_on channel=5 note=66 velocity=78 time=0
EXTRACT: note_on channel=6 note=59 velocity=57 time=0
EXTRACT: note_on channel=6 note=64 velocity=62 time=0
EXTRACT: note_on channel=6 note=66 velocity=56 time=0
EXTRACT: note_on channel=5 note=59 velocity=0 time=0.031746
EXTRACT: note_on channel=5 note=64 velocity=0 time=0.027777750000000004
EXTRACT: note_on channel=5 note=66 velocity=0 time=0.00396825
EXTRACT: note_on channel=7 note=54 velocity=0 time=0.021825375
EXTRACT: note_on channel=7 note=57 velocity=44 time=0.023809500000000004
EXTRACT: note_on channel=7 note=59 velocity=61 time=0
EXTRACT: note_on channel=6 note=66 velocity=0 time=0.063492
EXTRACT: note_on channel=6 note=64 velocity=0 time=0
EXTRACT: note_on channel=6 note=59 velocity=0 time=0
EXTRACT: note_on channel=7 note=59 velocity=0 time=0
EXTRACT: note_on channel=7 note=57 velocity=0 time=0
EXTRACT: note_on channel=7 note=57 velocity=64 time=0.06547612500000001
EXTRACT: note_on channel=7 note=59 velocity=74 time=0
EXTRACT: note_on channel=7 note=59 velocity=0 time=0.063492
EXTRACT: note_on channel=7 note=57 velocity=0 time=0
EXTRACT: note_on channel=1 note=35 velocity=0 time=0.017857125
EXTRACT: note_on channel=1 note=39 velocity=86 time=0.027777750000000004
EXTRACT: note_on channel=5 note=59 velocity=78 time=0
EXTRACT: note_on channel=5 note=64 velocity=84 time=0
EXTRACT: note_on channel=5 note=66 velocity=75 time=0
EXTRACT: note_on channel=6 note=59 velocity=56 time=0
EXTRACT: note_on channel=6 note=64 velocity=62 time=0
EXTRACT: note_on channel=6 note=66 velocity=53 time=0
EXTRACT: note_on channel=7 note=54 velocity=86 time=0
EXTRACT: note_on channel=5 note=59 velocity=0 time=0.03373012500000001
EXTRACT: note_on channel=5 note=64 velocity=0 time=0.029761875000000004
EXTRACT: note_on channel=5 note=66 velocity=0 time=0.001984125
EXTRACT: note_on channel=6 note=66 velocity=0 time=0.10714275000000001
EXTRACT: note_on channel=6 note=64 velocity=0 time=0
EXTRACT: note_on channel=6 note=59 velocity=0 time=0
EXTRACT: note_on channel=7 note=54 velocity=0 time=0.0396825
EXTRACT: note_on channel=1 note=42 velocity=84 time=0.025793625000000004
EXTRACT: note_on channel=5 note=59 velocity=78 time=0
EXTRACT: note_on channel=5 note=63 velocity=85 time=0
EXTRACT: note_on channel=5 note=66 velocity=78 time=0
EXTRACT: note_on channel=6 note=59 velocity=56 time=0
EXTRACT: note_on channel=6 note=63 velocity=63 time=0
EXTRACT: note_on channel=6 note=66 velocity=56 time=0
EXTRACT: note_on channel=7 note=57 velocity=62 time=0
EXTRACT: note_on channel=7 note=59 velocity=70 time=0
EXTRACT: note_on channel=1 note=39 velocity=0 time=0.011904750000000002
EXTRACT: note_on channel=5 note=59 velocity=0 time=0.017857125
EXTRACT: note_on channel=10 note=59 velocity=0 time=0.00396825
EXTRACT: note_on channel=5 note=63 velocity=0 time=0.025793625000000004
EXTRACT: note_on channel=7 note=57 velocity=0 time=0.00396825
EXTRACT: note_on channel=5 note=66 velocity=0 time=0.005952375000000001
EXTRACT: note_on channel=7 note=59 velocity=0 time=0.009920625
EXTRACT: note_on channel=10 note=71 velocity=0 time=0.013888875000000002
EXTRACT: note_on channel=10 note=54 velocity=0 time=0.011904750000000002
EXTRACT: note_on channel=10 note=66 velocity=0 time=0
EXTRACT: note_on channel=10 note=75 velocity=0 time=0.023809500000000004
EXTRACT: note_on channel=7 note=57 velocity=62 time=0
EXTRACT: note_on channel=7 note=59 velocity=36 time=0
EXTRACT: note_on channel=10 note=78 velocity=0 time=0.011904750000000002
EXTRACT: note_on channel=6 note=66 velocity=0 time=0.031746
EXTRACT: note_on channel=6 note=63 velocity=0 time=0
EXTRACT: note_on channel=6 note=59 velocity=0 time=0
EXTRACT: note_on channel=7 note=57 velocity=0 time=0.01984125
EXTRACT: note_on channel=7 note=59 velocity=0 time=0.0079365
EXTRACT: note_on channel=1 note=32 velocity=88 time=0.037698375000000006
EXTRACT: note_on channel=10 note=56 velocity=79 time=0
EXTRACT: note_on channel=10 note=59 velocity=60 time=0
EXTRACT: note_on channel=10 note=63 velocity=67 time=0
EXTRACT: note_on channel=10 note=68 velocity=72 time=0
EXTRACT: note_on channel=10 note=71 velocity=72 time=0
EXTRACT: note_on channel=10 note=75 velocity=67 time=0
EXTRACT: note_on channel=10 note=83 velocity=66 time=0
EXTRACT: note_on channel=5 note=59 velocity=73 time=0
EXTRACT: note_on channel=5 note=63 velocity=94 time=0
EXTRACT: note_on channel=5 note=68 velocity=86 time=0
EXTRACT: note_on channel=6 note=59 velocity=51 time=0
EXTRACT: note_on channel=6 note=63 velocity=72 time=0
EXTRACT: note_on channel=6 note=68 velocity=64 time=0
EXTRACT: note_on channel=7 note=56 velocity=86 time=0
EXTRACT: note_on channel=1 note=42 velocity=0 time=0.005952375000000001
EXTRACT: note_on channel=5 note=59 velocity=0 time=0.023809500000000004
EXTRACT: note_on channel=5 note=63 velocity=0 time=0.029761875000000004
EXTRACT: note_on channel=5 note=68 velocity=0 time=0.031746
EXTRACT: note_on channel=1 note=32 velocity=0 time=0.053571375000000004
EXTRACT: note_on channel=6 note=68 velocity=0 time=0.027777750000000004
EXTRACT: note_on channel=6 note=63 velocity=0 time=0
EXTRACT: note_on channel=6 note=59 velocity=0 time=0
EXTRACT: note_on channel=1 note=32 velocity=83 time=0.06547612500000001
EXTRACT: note_on channel=3 note=80 velocity=87 time=0
EXTRACT: note_on channel=7 note=59 velocity=75 time=0
EXTRACT: note_on channel=7 note=63 velocity=66 time=0
EXTRACT: note_on channel=7 note=56 velocity=0 time=0.029761875000000004
EXTRACT: note_on channel=7 note=63 velocity=0 time=0.03373012500000001
EXTRACT: note_on channel=7 note=59 velocity=0 time=0
EXTRACT: note_on channel=5 note=59 velocity=79 time=0.06547612500000001
EXTRACT: note_on channel=5 note=63 velocity=94 time=0
EXTRACT: note_on channel=5 note=68 velocity=89 time=0
EXTRACT: note_on channel=6 note=59 velocity=57 time=0
EXTRACT: note_on channel=6 note=63 velocity=72 time=0
EXTRACT: note_on channel=6 note=68 velocity=67 time=0
EXTRACT: note_on channel=7 note=59 velocity=60 time=0
EXTRACT: note_on channel=7 note=63 velocity=79 time=0
EXTRACT: note_on channel=5 note=59 velocity=0 time=0.029761875000000004
EXTRACT: note_on channel=3 note=80 velocity=0 time=0.00396825
EXTRACT: note_on channel=5 note=63 velocity=0 time=0.015873
EXTRACT: note_on channel=7 note=59 velocity=0 time=0.013888875000000002
EXTRACT: note_on channel=7 note=63 velocity=0 time=0.009920625
EXTRACT: note_on channel=5 note=68 velocity=0 time=0.011904750000000002
EXTRACT: note_on channel=1 note=35 velocity=83 time=0.023809500000000004
EXTRACT: note_on channel=3 note=78 velocity=77 time=0
EXTRACT: note_on channel=7 note=56 velocity=83 time=0
EXTRACT: note_on channel=1 note=32 velocity=0 time=0.01984125
EXTRACT: note_on channel=6 note=68 velocity=0 time=0.04365075
EXTRACT: note_on channel=6 note=63 velocity=0 time=0
EXTRACT: note_on channel=6 note=59 velocity=0 time=0
EXTRACT: note_on channel=3 note=75 velocity=71 time=0.05555550000000001
EXTRACT: note_on channel=3 note=78 velocity=0 time=0.013888875000000002
EXTRACT: note_on channel=3 note=75 velocity=0 time=0.10119037500000001
EXTRACT: note_on channel=1 note=39 velocity=91 time=0.00396825
EXTRACT: note_on channel=3 note=73 velocity=83 time=0
EXTRACT: note_on channel=5 note=59 velocity=85 time=0
EXTRACT: note_on channel=5 note=63 velocity=99 time=0
EXTRACT: note_on channel=5 note=68 velocity=94 time=0
EXTRACT: note_on channel=6 note=59 velocity=63 time=0
EXTRACT: note_on channel=6 note=63 velocity=77 time=0
EXTRACT: note_on channel=6 note=68 velocity=72 time=0
EXTRACT: note_on channel=7 note=59 velocity=72 time=0
EXTRACT: note_on channel=7 note=63 velocity=74 time=0
EXTRACT: note_on channel=1 note=35 velocity=0 time=0.00396825
EXTRACT: note_on channel=5 note=63 velocity=0 time=0.05158725000000001
EXTRACT: note_on channel=5 note=59 velocity=0 time=0.0079365
EXTRACT: note_on channel=7 note=63 velocity=0 time=0
EXTRACT: note_on channel=7 note=59 velocity=0 time=0
EXTRACT: note_on channel=5 note=68 velocity=0 time=0.015873
EXTRACT: note_on channel=10 note=75 velocity=0 time=0.001984125
EXTRACT: note_on channel=10 note=83 velocity=0 time=0.001984125
EXTRACT: note_on channel=7 note=56 velocity=0 time=0
EXTRACT: note_on channel=10 note=68 velocity=0 time=0.009920625
EXTRACT: note_on channel=10 note=63 velocity=0 time=0.005952375000000001
EXTRACT: note_on channel=10 note=71 velocity=0 time=0.001984125
EXTRACT: note_on channel=10 note=56 velocity=0 time=0.001984125
EXTRACT: note_on channel=10 note=59 velocity=0 time=0.001984125
EXTRACT: note_on channel=7 note=59 velocity=60 time=0.023809500000000004
EXTRACT: note_on channel=7 note=63 velocity=80 time=0
EXTRACT: note_on channel=6 note=68 velocity=0 time=0.04365075
EXTRACT: note_on channel=6 note=63 velocity=0 time=0
EXTRACT: note_on channel=6 note=59 velocity=0 time=0
EXTRACT: note_on channel=7 note=59 velocity=0 time=0.01984125
EXTRACT: note_on channel=1 note=39 velocity=0 time=0.001984125
EXTRACT: note_on channel=7 note=63 velocity=0 time=0.00396825
EXTRACT: note_on channel=3 note=73 velocity=0 time=0.015873
EXTRACT: note_on channel=1 note=37 velocity=90 time=0.023809500000000004
EXTRACT: note_on channel=10 note=56 velocity=77 time=0
EXTRACT: note_on channel=10 note=61 velocity=51 time=0
EXTRACT: note_on channel=10 note=64 velocity=62 time=0
EXTRACT: note_on channel=10 note=68 velocity=74 time=0
EXTRACT: note_on channel=10 note=73 velocity=62 time=0
EXTRACT: note_on channel=10 note=76 velocity=73 time=0
EXTRACT: note_on channel=10 note=85 velocity=63 time=0
EXTRACT: note_on channel=3 note=71 velocity=81 time=0
EXTRACT: note_on channel=7 note=56 velocity=87 time=0
EXTRACT: note_on channel=5 note=61 velocity=56 time=0.12896812500000002
EXTRACT: note_on channel=5 note=64 velocity=94 time=0
EXTRACT: note_on channel=5 note=68 velocity=85 time=0
EXTRACT: note_on channel=6 note=61 velocity=34 time=0
EXTRACT: note_on channel=6 note=64 velocity=72 time=0
EXTRACT: note_on channel=6 note=68 velocity=63 time=0
EXTRACT: note_on channel=5 note=61 velocity=0 time=0.031746
EXTRACT: note_on channel=5 note=64 velocity=0 time=0.021825375
EXTRACT: note_on channel=5 note=68 velocity=0 time=0.009920625
EXTRACT: note_on channel=3 note=73 velocity=79 time=0.045634875000000005
EXTRACT: note_on channel=7 note=61 velocity=55 time=0
EXTRACT: note_on channel=7 note=64 velocity=70 time=0
EXTRACT: note_on channel=3 note=71 velocity=0 time=0.00396825
EXTRACT: note_on channel=6 note=68 velocity=0 time=0.05952375000000001
EXTRACT: note_on channel=6 note=64 velocity=0 time=0
EXTRACT: note_on channel=6 note=61 velocity=0 time=0
EXTRACT: note_on channel=7 note=64 velocity=0 time=0
EXTRACT: note_on channel=7 note=61 velocity=0 time=0
EXTRACT: note_on channel=7 note=56 velocity=0 time=0.005952375000000001
EXTRACT: note_on channel=7 note=61 velocity=64 time=0.05952375000000001
EXTRACT: note_on channel=7 note=64 velocity=70 time=0
EXTRACT: note_on channel=7 note=64 velocity=0 time=0.06547612500000001
EXTRACT: note_on channel=7 note=61 velocity=0 time=0.017857125
EXTRACT: note_on channel=1 note=37 velocity=0 time=0.011904750000000002
EXTRACT: note_on channel=1 note=35 velocity=83 time=0.013888875000000002
EXTRACT: note_on channel=5 note=61 velocity=78 time=0
EXTRACT: note_on channel=5 note=64 velocity=88 time=0
EXTRACT: note_on channel=5 note=68 velocity=88 time=0
EXTRACT: note_on channel=6 note=61 velocity=56 time=0
EXTRACT: note_on channel=6 note=64 velocity=66 time=0
EXTRACT: note_on channel=6 note=68 velocity=66 time=0
EXTRACT: note_on channel=7 note=56 velocity=86 time=0
EXTRACT: note_on channel=1 note=35 velocity=0 time=0.192460125
EXTRACT: note_on channel=10 note=76 velocity=0 time=0.029761875000000004
EXTRACT: note_on channel=1 note=36 velocity=92 time=0.015873
EXTRACT: note_on channel=7 note=61 velocity=67 time=0
EXTRACT: note_on channel=7 note=64 velocity=76 time=0
EXTRACT: note_on channel=10 note=85 velocity=0 time=0.001984125
EXTRACT: note_on channel=7 note=56 velocity=0 time=0.03373012500000001
EXTRACT: note_on channel=10 note=68 velocity=0 time=0.00396825
EXTRACT: note_on channel=5 note=64 velocity=0 time=0
EXTRACT: note_on channel=5 note=61 velocity=0 time=0
EXTRACT: note_on channel=6 note=64 velocity=0 time=0
EXTRACT: note_on channel=6 note=61 velocity=0 time=0
EXTRACT: note_on channel=10 note=73 velocity=0 time=0.011904750000000002
EXTRACT: note_on channel=5 note=68 velocity=0 time=0.001984125
EXTRACT: note_on channel=6 note=68 velocity=0 time=0
EXTRACT: note_on channel=7 note=64 velocity=0 time=0.011904750000000002
EXTRACT: note_on channel=7 note=61 velocity=0 time=0
EXTRACT: note_on channel=7 note=61 velocity=74 time=0.063492
EXTRACT: note_on channel=7 note=64 velocity=80 time=0
EXTRACT: note_on channel=3 note=73 velocity=0 time=0.03571425
EXTRACT: note_on channel=10 note=56 velocity=0 time=0.005952375000000001
EXTRACT: note_on channel=10 note=61 velocity=0 time=0.00396825
EXTRACT: note_on channel=10 note=64 velocity=0 time=0.00396825
EXTRACT: note_on channel=7 note=64 velocity=0 time=0.01984125
EXTRACT: note_on channel=7 note=61 velocity=0 time=0.009920625
EXTRACT: note_on channel=1 note=36 velocity=0 time=0.013888875000000002
EXTRACT: note_on channel=9 note=35 velocity=89 time=0.015873
EXTRACT: note_on channel=9 note=36 velocity=88 time=0
EXTRACT: note_on channel=9 note=87 velocity=113 time=0
EXTRACT: note_on channel=1 note=37 velocity=94 time=0
EXTRACT: note_on channel=9 note=87 velocity=0 time=0.063492
EXTRACT: note_on channel=9 note=36 velocity=0 time=0.005952375000000001
EXTRACT: note_on channel=9 note=35 velocity=0 time=0.015873
EXTRACT: note_on channel=1 note=37 velocity=0 time=0.176587125
EXTRACT: control_change channel=9 control=121 value=0 time=1.9007917500000002
EXTRACT: control_change channel=9 control=7 value=100 time=0
EXTRACT: control_change channel=1 control=121 value=0 time=0
EXTRACT: control_change channel=1 control=7 value=100 time=0
EXTRACT: control_change channel=10 control=121 value=0 time=0
EXTRACT: control_change channel=10 control=7 value=93 time=0
EXTRACT: control_change channel=3 control=121 value=0 time=0
EXTRACT: control_change channel=3 control=7 value=97 time=0
EXTRACT: control_change channel=4 control=121 value=0 time=0
EXTRACT: control_change channel=4 control=7 value=97 time=0
EXTRACT: control_change channel=5 control=121 value=0 time=0
EXTRACT: control_change channel=5 control=7 value=92 time=0
EXTRACT: control_change channel=6 control=121 value=0 time=0
EXTRACT: control_change channel=6 control=7 value=98 time=0
EXTRACT: control_change channel=7 control=121 value=0 time=0
EXTRACT: control_change channel=7 control=7 value=96 time=0
